G75*
G70*
%OFA0B0*%
%FSLAX24Y24*%
%IPPOS*%
%LPD*%
%AMOC8*
5,1,8,0,0,1.08239X$1,22.5*
%
%ADD10C,0.0050*%
%ADD11R,0.0150X0.0159*%
%ADD12R,0.0370X0.0010*%
%ADD13R,0.0410X0.0010*%
%ADD14R,0.0070X0.0010*%
%ADD15R,0.0330X0.0010*%
%ADD16R,0.0050X0.0010*%
%ADD17R,0.0030X0.0010*%
%ADD18R,0.0240X0.0010*%
%ADD19R,0.0040X0.0010*%
%ADD20R,0.0010X0.0010*%
%ADD21R,0.0250X0.0010*%
%ADD22R,0.0260X0.0010*%
%ADD23R,0.0090X0.0010*%
%ADD24R,0.0100X0.0010*%
%ADD25R,0.0110X0.0010*%
%ADD26R,0.0060X0.0010*%
%ADD27R,0.0120X0.0010*%
%ADD28R,0.0020X0.0010*%
%ADD29R,0.0190X0.0010*%
%ADD30R,0.0160X0.0010*%
%ADD31R,0.0180X0.0010*%
%ADD32R,0.0130X0.0010*%
%ADD33R,0.0080X0.0010*%
%ADD34R,0.0420X0.0010*%
%ADD35R,0.0390X0.0010*%
%ADD36R,0.0350X0.0010*%
%ADD37C,0.0030*%
%ADD38R,0.0079X0.0079*%
%ADD39C,0.0040*%
%ADD40R,0.0160X0.0340*%
%ADD41C,0.0060*%
D10*
X005222Y005400D02*
X005222Y007467D01*
X007643Y007467D01*
X007643Y005400D01*
X005222Y005400D01*
X007101Y005765D02*
X007103Y005792D01*
X007109Y005819D01*
X007118Y005845D01*
X007131Y005869D01*
X007147Y005892D01*
X007166Y005911D01*
X007188Y005928D01*
X007212Y005942D01*
X007237Y005952D01*
X007264Y005959D01*
X007291Y005962D01*
X007319Y005961D01*
X007346Y005956D01*
X007372Y005948D01*
X007396Y005936D01*
X007419Y005920D01*
X007440Y005902D01*
X007457Y005881D01*
X007472Y005857D01*
X007483Y005832D01*
X007491Y005806D01*
X007495Y005779D01*
X007495Y005751D01*
X007491Y005724D01*
X007483Y005698D01*
X007472Y005673D01*
X007457Y005649D01*
X007440Y005628D01*
X007419Y005610D01*
X007397Y005594D01*
X007372Y005582D01*
X007346Y005574D01*
X007319Y005569D01*
X007291Y005568D01*
X007264Y005571D01*
X007237Y005578D01*
X007212Y005588D01*
X007188Y005602D01*
X007166Y005619D01*
X007147Y005638D01*
X007131Y005661D01*
X007118Y005685D01*
X007109Y005711D01*
X007103Y005738D01*
X007101Y005765D01*
D11*
X007072Y005301D03*
X007328Y005301D03*
X006816Y005301D03*
X006560Y005301D03*
X006304Y005301D03*
X006048Y005301D03*
X005792Y005301D03*
X005536Y005301D03*
X005537Y007567D03*
X005793Y007567D03*
X005793Y007567D03*
X006049Y007567D03*
X006305Y007567D03*
X006560Y007567D03*
X006816Y007567D03*
X007072Y007567D03*
X007328Y007567D03*
D12*
X005783Y006736D03*
D13*
X005783Y006746D03*
D14*
X005893Y006806D03*
X005963Y006756D03*
X005953Y006936D03*
X005833Y006916D03*
X005733Y007106D03*
X005543Y006856D03*
D15*
X005723Y006756D03*
D16*
X005743Y006856D03*
X005523Y006896D03*
X005513Y006926D03*
X005503Y007026D03*
X005493Y007036D03*
X005483Y007176D03*
X005623Y007186D03*
X005723Y007096D03*
X005933Y007066D03*
X005943Y007046D03*
X005953Y006996D03*
X005963Y006926D03*
X005993Y006786D03*
X005973Y006766D03*
D17*
X005993Y006836D03*
X005993Y006846D03*
X005993Y006856D03*
X005983Y006866D03*
X005983Y006876D03*
X005983Y006886D03*
X005893Y006796D03*
X005843Y006766D03*
X005953Y007016D03*
X005723Y007066D03*
X005723Y007076D03*
X005723Y007086D03*
X005483Y007066D03*
X005473Y007076D03*
X005473Y007086D03*
X005473Y007096D03*
X005473Y007106D03*
X005473Y007116D03*
X005473Y007126D03*
X005473Y007136D03*
X005473Y007146D03*
X005473Y007156D03*
D18*
X005798Y007186D03*
X005808Y007166D03*
X005658Y006776D03*
X005668Y006766D03*
D19*
X005748Y006866D03*
X005818Y006926D03*
X005968Y006916D03*
X005978Y006906D03*
X005978Y006896D03*
X005998Y006826D03*
X005998Y006816D03*
X005998Y006806D03*
X005998Y006796D03*
X005988Y006776D03*
X005958Y007006D03*
X005948Y007026D03*
X005948Y007036D03*
X005938Y007056D03*
X005518Y006916D03*
X005518Y006906D03*
X005528Y006886D03*
X005508Y006936D03*
X005508Y006946D03*
X005488Y007046D03*
X005488Y007056D03*
X005478Y007166D03*
D20*
X005633Y007166D03*
X005733Y006976D03*
X005733Y006966D03*
X005743Y006946D03*
X005743Y006936D03*
X005743Y006926D03*
X005743Y006916D03*
X005793Y006946D03*
X005803Y006936D03*
X005913Y006996D03*
X005823Y006796D03*
X005823Y006786D03*
X005833Y006776D03*
D21*
X005653Y006786D03*
X005653Y006796D03*
X005643Y006816D03*
X005643Y006826D03*
X005643Y006836D03*
X005823Y007126D03*
X005813Y007146D03*
X005813Y007156D03*
X005803Y007176D03*
D22*
X005818Y007136D03*
X005828Y007116D03*
X005648Y006806D03*
D23*
X005643Y006896D03*
X005553Y006846D03*
X005883Y006816D03*
X005943Y006946D03*
D24*
X005848Y006906D03*
X005878Y006836D03*
X005878Y006826D03*
X005828Y007036D03*
X005828Y007046D03*
X005618Y007036D03*
X005588Y007126D03*
X005528Y006996D03*
D25*
X005613Y007046D03*
X005603Y007066D03*
X005593Y007096D03*
X005583Y007116D03*
X005633Y006946D03*
X005633Y006936D03*
X005633Y006926D03*
X005643Y006906D03*
X005853Y006896D03*
X005863Y006886D03*
X005873Y006846D03*
X005833Y007016D03*
X005833Y007026D03*
X005903Y007106D03*
D26*
X005928Y007086D03*
X005928Y007076D03*
X005818Y007066D03*
X005738Y006846D03*
X005648Y006886D03*
X005538Y006876D03*
X005538Y006866D03*
X005508Y007016D03*
X005638Y007026D03*
X005578Y007146D03*
X005488Y007186D03*
D27*
X005588Y007106D03*
X005598Y007086D03*
X005598Y007076D03*
X005608Y007056D03*
X005638Y006916D03*
X005838Y006996D03*
X005838Y007006D03*
X005928Y006956D03*
X005868Y006876D03*
X005868Y006866D03*
X005868Y006856D03*
D28*
X005748Y006876D03*
X005748Y006886D03*
X005748Y006896D03*
X005748Y006906D03*
X005738Y006956D03*
X005728Y006986D03*
X005728Y006996D03*
X005728Y007006D03*
X005728Y007016D03*
X005718Y007026D03*
X005718Y007036D03*
X005718Y007046D03*
X005718Y007056D03*
X005658Y007016D03*
X005628Y007176D03*
D29*
X005583Y006966D03*
X005583Y006956D03*
X005883Y006986D03*
D30*
X005908Y006966D03*
D31*
X005888Y006976D03*
X005578Y006976D03*
D32*
X005553Y006986D03*
D33*
X005518Y007006D03*
X005578Y007136D03*
X005818Y007056D03*
X005918Y007096D03*
D34*
X005688Y007196D03*
D35*
X005683Y007206D03*
D36*
X005683Y007216D03*
D37*
X006796Y006966D02*
X006796Y006918D01*
X006989Y006724D01*
X006796Y006724D01*
X006796Y006966D02*
X006844Y007015D01*
X006941Y007015D01*
X006989Y006966D01*
X007090Y006966D02*
X007139Y007015D01*
X007236Y007015D01*
X007284Y006966D01*
X007284Y006773D01*
X007236Y006724D01*
X007139Y006724D01*
X007090Y006773D01*
X007384Y006724D02*
X007480Y006724D01*
X007432Y006724D02*
X007432Y007015D01*
X007480Y007015D02*
X007384Y007015D01*
X007470Y009075D02*
X007224Y009075D01*
X007162Y009137D01*
X007162Y009260D01*
X007224Y009322D01*
X007162Y009444D02*
X007162Y009690D01*
X007162Y009567D02*
X007532Y009567D01*
X007409Y009444D01*
X007470Y009322D02*
X007532Y009260D01*
X007532Y009137D01*
X007470Y009075D01*
X007972Y009137D02*
X007972Y009260D01*
X008034Y009322D01*
X008034Y009444D02*
X007972Y009505D01*
X007972Y009629D01*
X008034Y009690D01*
X008095Y009690D01*
X008157Y009629D01*
X008157Y009567D01*
X008157Y009629D02*
X008219Y009690D01*
X008280Y009690D01*
X008342Y009629D01*
X008342Y009505D01*
X008280Y009444D01*
X008280Y009322D02*
X008342Y009260D01*
X008342Y009137D01*
X008280Y009075D01*
X008034Y009075D01*
X007972Y009137D01*
X008772Y009137D02*
X008772Y009260D01*
X008834Y009322D01*
X008957Y009444D02*
X008957Y009690D01*
X008772Y009629D02*
X009142Y009629D01*
X008957Y009444D01*
X009080Y009322D02*
X009142Y009260D01*
X009142Y009137D01*
X009080Y009075D01*
X008834Y009075D01*
X008772Y009137D01*
X006702Y009137D02*
X006640Y009075D01*
X006394Y009075D01*
X006332Y009137D01*
X006332Y009260D01*
X006394Y009322D01*
X006332Y009444D02*
X006579Y009690D01*
X006640Y009690D01*
X006702Y009629D01*
X006702Y009505D01*
X006640Y009444D01*
X006640Y009322D02*
X006702Y009260D01*
X006702Y009137D01*
X006332Y009444D02*
X006332Y009690D01*
D38*
X008433Y007274D03*
X008433Y006554D03*
X008433Y005854D03*
D39*
X009626Y005724D02*
X009933Y005724D01*
X009626Y006031D01*
X009626Y006108D01*
X009703Y006184D01*
X009856Y006184D01*
X009933Y006108D01*
X010086Y006108D02*
X010086Y005954D01*
X010163Y005877D01*
X010393Y005877D01*
X010393Y005724D02*
X010393Y006184D01*
X010163Y006184D01*
X010086Y006108D01*
X010240Y005877D02*
X010086Y005724D01*
X010163Y005484D02*
X010086Y005408D01*
X010086Y005254D01*
X010163Y005177D01*
X010393Y005177D01*
X010393Y005024D02*
X010393Y005484D01*
X010163Y005484D01*
X009933Y005331D02*
X009779Y005484D01*
X009779Y005024D01*
X009626Y005024D02*
X009933Y005024D01*
X010086Y005024D02*
X010240Y005177D01*
X010393Y006424D02*
X010393Y006884D01*
X010163Y006884D01*
X010086Y006808D01*
X010086Y006654D01*
X010163Y006577D01*
X010393Y006577D01*
X010240Y006577D02*
X010086Y006424D01*
X009933Y006501D02*
X009856Y006424D01*
X009703Y006424D01*
X009626Y006501D01*
X009626Y006577D01*
X009703Y006654D01*
X009779Y006654D01*
X009703Y006654D02*
X009626Y006731D01*
X009626Y006808D01*
X009703Y006884D01*
X009856Y006884D01*
X009933Y006808D01*
D40*
X010092Y006554D03*
X009592Y006554D03*
X009592Y005854D03*
X010092Y005854D03*
X010092Y007254D03*
X009592Y007254D03*
D41*
X009672Y007394D02*
X010012Y007394D01*
X010012Y007114D02*
X009672Y007114D01*
X009672Y006694D02*
X010012Y006694D01*
X010012Y006414D02*
X009672Y006414D01*
X009672Y005994D02*
X010012Y005994D01*
X010012Y005714D02*
X009672Y005714D01*
M02*
