G75*
G70*
%OFA0B0*%
%FSLAX24Y24*%
%IPPOS*%
%LPD*%
%AMOC8*
5,1,8,0,0,1.08239X$1,22.5*
%
%ADD10C,0.1030*%
%ADD11R,0.0230X0.0640*%
%ADD12R,0.0710X0.0592*%
%ADD13R,0.0552X0.0552*%
%ADD14R,0.0474X0.0513*%
%ADD15C,0.0680*%
D10*
X001390Y001394D03*
X011461Y001395D03*
X011477Y011471D03*
X001380Y011481D03*
D11*
X005537Y007926D03*
X005793Y007926D03*
X006048Y007926D03*
X006304Y007926D03*
X006560Y007926D03*
X006816Y007926D03*
X007072Y007926D03*
X007328Y007926D03*
X007328Y004941D03*
X007072Y004941D03*
X006816Y004941D03*
X006560Y004941D03*
X006304Y004941D03*
X006048Y004941D03*
X005793Y004941D03*
X005537Y004941D03*
D12*
X005972Y009060D03*
X005972Y009848D03*
X006802Y009848D03*
X006802Y009060D03*
X007612Y009060D03*
X007612Y009848D03*
X008412Y009848D03*
X008412Y009060D03*
D13*
X008059Y007274D03*
X008059Y006554D03*
X008059Y005854D03*
X008886Y005854D03*
X008886Y006554D03*
X008886Y007274D03*
D14*
X009508Y007254D03*
X010177Y007254D03*
X010177Y006554D03*
X010177Y005854D03*
X009508Y005854D03*
X009508Y006554D03*
D15*
X008132Y003934D02*
X007532Y003934D01*
X006732Y003934D02*
X006132Y003934D01*
X005332Y003934D02*
X004732Y003934D01*
X004732Y002934D02*
X005332Y002934D01*
X006132Y002934D02*
X006732Y002934D01*
X007532Y002934D02*
X008132Y002934D01*
X008132Y001934D02*
X007532Y001934D01*
X006732Y001934D02*
X006132Y001934D01*
X005332Y001934D02*
X004732Y001934D01*
M02*
