G75*
G70*
%OFA0B0*%
%FSLAX24Y24*%
%IPPOS*%
%LPD*%
%AMOC8*
5,1,8,0,0,1.08239X$1,22.5*
%
%ADD10C,0.0100*%
%ADD11C,0.0050*%
%ADD12C,0.0030*%
%ADD13C,0.0060*%
D10*
X000681Y003301D02*
X000681Y004791D01*
X003681Y004791D01*
X006681Y004791D01*
X009681Y004791D01*
X009681Y003301D01*
X006681Y003301D02*
X006681Y004791D01*
X003681Y004791D02*
X003681Y003301D01*
X000261Y005401D02*
X000261Y007601D01*
D11*
X002066Y004617D02*
X002270Y004617D01*
X002168Y004617D02*
X002168Y004006D01*
X002066Y004006D02*
X002270Y004006D01*
X004886Y004006D02*
X005192Y004006D01*
X005293Y004108D01*
X005293Y004210D01*
X005192Y004312D01*
X004886Y004312D01*
X004886Y004617D02*
X004886Y004006D01*
X005192Y004312D02*
X005293Y004413D01*
X005293Y004515D01*
X005192Y004617D01*
X004886Y004617D01*
X005777Y004254D02*
X006002Y004028D01*
X006002Y004329D01*
X006227Y004254D02*
X005777Y004254D01*
X005852Y003868D02*
X006002Y003868D01*
X006077Y003793D01*
X006077Y003568D01*
X006227Y003568D02*
X005777Y003568D01*
X005777Y003793D01*
X005852Y003868D01*
X005777Y003408D02*
X005777Y003258D01*
X005777Y003333D02*
X006152Y003333D01*
X006227Y003258D01*
X006227Y003183D01*
X006152Y003108D01*
X007177Y003258D02*
X007177Y003408D01*
X007177Y003333D02*
X007552Y003333D01*
X007627Y003258D01*
X007627Y003183D01*
X007552Y003108D01*
X007477Y003568D02*
X007477Y003793D01*
X007402Y003868D01*
X007252Y003868D01*
X007177Y003793D01*
X007177Y003568D01*
X007627Y003568D01*
X007552Y004028D02*
X007627Y004104D01*
X007627Y004254D01*
X007552Y004329D01*
X007477Y004329D01*
X007402Y004254D01*
X007402Y004179D01*
X007402Y004254D02*
X007327Y004329D01*
X007252Y004329D01*
X007177Y004254D01*
X007177Y004104D01*
X007252Y004028D01*
X007886Y004006D02*
X007886Y004413D01*
X008090Y004617D01*
X008293Y004413D01*
X008293Y004006D01*
X008577Y004104D02*
X008577Y004254D01*
X008652Y004329D01*
X008727Y004329D01*
X009027Y004028D01*
X009027Y004329D01*
X008652Y004028D02*
X008577Y004104D01*
X008652Y003868D02*
X008802Y003868D01*
X008877Y003793D01*
X008877Y003568D01*
X009027Y003568D02*
X008577Y003568D01*
X008577Y003793D01*
X008652Y003868D01*
X008293Y004312D02*
X007886Y004312D01*
X008577Y003408D02*
X008577Y003258D01*
X008577Y003333D02*
X008952Y003333D01*
X009027Y003258D01*
X009027Y003183D01*
X008952Y003108D01*
D12*
X002365Y005776D02*
X002219Y005922D01*
X002171Y005873D02*
X002365Y006067D01*
X002171Y006067D02*
X002171Y005776D01*
X002070Y005825D02*
X002070Y006018D01*
X002022Y006067D01*
X001925Y006067D01*
X001876Y006018D01*
X001876Y005825D01*
X001925Y005776D01*
X002022Y005776D01*
X002070Y005825D01*
D13*
X004532Y004184D02*
X004532Y003684D01*
X004782Y003434D01*
X004532Y003184D01*
X004532Y002684D01*
X004782Y002434D01*
X004532Y002184D01*
X004532Y001684D01*
X004782Y001434D01*
X005282Y001434D01*
X005532Y001684D01*
X005532Y002184D01*
X005282Y002434D01*
X004782Y002434D01*
X005282Y002434D02*
X005532Y002684D01*
X005532Y003184D01*
X005282Y003434D01*
X004782Y003434D01*
X005282Y003434D02*
X005532Y003684D01*
X005532Y004184D01*
X005282Y004434D01*
X004782Y004434D01*
X004532Y004184D01*
X005932Y004184D02*
X005932Y003684D01*
X006182Y003434D01*
X005932Y003184D01*
X005932Y002684D01*
X006182Y002434D01*
X005932Y002184D01*
X005932Y001684D01*
X006182Y001434D01*
X006682Y001434D01*
X006932Y001684D01*
X006932Y002184D01*
X006682Y002434D01*
X006182Y002434D01*
X006682Y002434D02*
X006932Y002684D01*
X006932Y003184D01*
X006682Y003434D01*
X006182Y003434D01*
X006682Y003434D02*
X006932Y003684D01*
X006932Y004184D01*
X006682Y004434D01*
X006182Y004434D01*
X005932Y004184D01*
X007332Y004184D02*
X007332Y003684D01*
X007582Y003434D01*
X007332Y003184D01*
X007332Y002684D01*
X007582Y002434D01*
X007332Y002184D01*
X007332Y001684D01*
X007582Y001434D01*
X008082Y001434D01*
X008332Y001684D01*
X008332Y002184D01*
X008082Y002434D01*
X007582Y002434D01*
X008082Y002434D02*
X008332Y002684D01*
X008332Y003184D01*
X008082Y003434D01*
X007582Y003434D01*
X008082Y003434D02*
X008332Y003684D01*
X008332Y004184D01*
X008082Y004434D01*
X007582Y004434D01*
X007332Y004184D01*
M02*
