G75*
G70*
%OFA0B0*%
%FSLAX24Y24*%
%IPPOS*%
%LPD*%
%AMOC8*
5,1,8,0,0,1.08239X$1,22.5*
%
%ADD10C,0.0390*%
%ADD11C,0.0630*%
%ADD12C,0.0080*%
%ADD13C,0.0170*%
%ADD14C,0.0210*%
%ADD15C,0.0120*%
%ADD16C,0.0700*%
D10*
X009120Y007086D03*
X007939Y008936D03*
X010380Y008936D03*
D11*
X014039Y006936D03*
X015039Y006936D03*
X016039Y006936D03*
X019239Y006936D03*
X020239Y006936D03*
X021239Y006936D03*
X022239Y006936D03*
X023239Y006936D03*
X024239Y006936D03*
X026239Y006936D03*
X027239Y006936D03*
X028239Y006936D03*
X029239Y006936D03*
X030239Y006936D03*
X031239Y006936D03*
X032239Y006936D03*
X033239Y006936D03*
X035239Y006936D03*
X036239Y006936D03*
X037239Y006936D03*
X038239Y006936D03*
X039239Y006936D03*
X040239Y006936D03*
X041239Y006936D03*
X042239Y006936D03*
X043239Y008936D03*
X044239Y008936D03*
X044239Y009936D03*
X043239Y009936D03*
X043239Y010936D03*
X044239Y010936D03*
X044239Y011936D03*
X043239Y011936D03*
X043239Y012936D03*
X044239Y012936D03*
X044239Y013936D03*
X043239Y013936D03*
X043239Y014936D03*
X044239Y014936D03*
X044239Y015936D03*
X043239Y015936D03*
X043239Y016936D03*
X044239Y016936D03*
X044239Y017936D03*
X043239Y017936D03*
X043239Y018936D03*
X044239Y018936D03*
X044239Y019936D03*
X043239Y019936D03*
X043239Y020936D03*
X044239Y020936D03*
X044239Y021936D03*
X043239Y021936D03*
X043239Y022936D03*
X044239Y022936D03*
X044239Y023936D03*
X043239Y023936D03*
X043239Y024936D03*
X044239Y024936D03*
X044239Y025936D03*
X043239Y025936D03*
X040239Y025936D03*
X039239Y025936D03*
X038239Y025936D03*
X037239Y025936D03*
X036239Y025936D03*
X035239Y025936D03*
X034239Y025936D03*
X033239Y025936D03*
X031239Y025936D03*
X030239Y025936D03*
X029239Y025936D03*
X028239Y025936D03*
X027239Y025936D03*
X026239Y025936D03*
X025239Y025936D03*
X024239Y025936D03*
X024239Y024936D03*
X025239Y024936D03*
X026239Y024936D03*
X027239Y024936D03*
X028239Y024936D03*
X029239Y024936D03*
X030239Y024936D03*
X031239Y024936D03*
X022639Y024936D03*
X021639Y024936D03*
X020639Y024936D03*
X019639Y024936D03*
X018639Y024936D03*
X017639Y024936D03*
X016639Y024936D03*
X015639Y024936D03*
X015639Y025936D03*
X016639Y025936D03*
X017639Y025936D03*
X018639Y025936D03*
X019639Y025936D03*
X020639Y025936D03*
X021639Y025936D03*
X022639Y025936D03*
X015739Y022436D03*
X015739Y021436D03*
X015739Y020436D03*
X014239Y020436D03*
X014239Y019436D03*
X015739Y019436D03*
X008239Y020070D03*
X008239Y021803D03*
X007361Y024149D03*
X009920Y024149D03*
X009920Y025921D03*
X007361Y025921D03*
X007659Y017436D03*
X007819Y016436D03*
X007659Y015436D03*
X007819Y014436D03*
X007659Y013436D03*
X007819Y012436D03*
X031239Y015936D03*
X032239Y015936D03*
X032239Y016936D03*
X031239Y016936D03*
X031239Y017936D03*
X032239Y017936D03*
X035239Y017936D03*
X036239Y017936D03*
X036239Y016936D03*
X035239Y016936D03*
X035239Y015936D03*
X036239Y015936D03*
D12*
X006479Y006636D02*
X006479Y006176D01*
X011800Y006176D01*
X011746Y006199D01*
X011501Y006444D01*
X011369Y006763D01*
X011369Y007109D01*
X011501Y007429D01*
X011746Y007674D01*
X012066Y007806D01*
X012412Y007806D01*
X012732Y007674D01*
X012976Y007429D01*
X013109Y007109D01*
X013109Y006763D01*
X012976Y006444D01*
X012732Y006199D01*
X012677Y006176D01*
X043800Y006176D01*
X043746Y006199D01*
X043501Y006444D01*
X043369Y006763D01*
X043369Y007109D01*
X043501Y007429D01*
X043746Y007674D01*
X044066Y007806D01*
X044412Y007806D01*
X044732Y007674D01*
X044976Y007429D01*
X045109Y007109D01*
X045109Y006763D01*
X044976Y006444D01*
X044732Y006199D01*
X044677Y006176D01*
X045999Y006176D01*
X045999Y026696D01*
X042177Y026696D01*
X042232Y026674D01*
X042476Y026429D01*
X042609Y026109D01*
X042609Y025763D01*
X042476Y025444D01*
X042232Y025199D01*
X041912Y025066D01*
X041566Y025066D01*
X041246Y025199D01*
X041001Y025444D01*
X040869Y025763D01*
X040869Y026109D01*
X041001Y026429D01*
X041246Y026674D01*
X041300Y026696D01*
X012677Y026696D01*
X012732Y026674D01*
X012976Y026429D01*
X013109Y026109D01*
X013109Y025763D01*
X012976Y025444D01*
X012732Y025199D01*
X012412Y025066D01*
X012066Y025066D01*
X011746Y025199D01*
X011501Y025444D01*
X011369Y025763D01*
X011369Y026109D01*
X011501Y026429D01*
X011746Y026674D01*
X011800Y026696D01*
X006479Y026696D01*
X006479Y010636D01*
X011439Y010636D01*
X011439Y007836D01*
X010239Y006636D01*
X006479Y006636D01*
X006479Y006565D02*
X008720Y006565D01*
X008766Y006611D02*
X008664Y006509D01*
X008664Y006364D01*
X008766Y006261D01*
X008911Y006261D01*
X009014Y006364D01*
X009014Y006509D01*
X008911Y006611D01*
X008766Y006611D01*
X008664Y006486D02*
X006479Y006486D01*
X006479Y006408D02*
X008664Y006408D01*
X008699Y006329D02*
X006479Y006329D01*
X006479Y006251D02*
X011694Y006251D01*
X011616Y006329D02*
X008979Y006329D01*
X009014Y006408D02*
X011537Y006408D01*
X011484Y006486D02*
X009014Y006486D01*
X008958Y006565D02*
X011451Y006565D01*
X011418Y006643D02*
X010246Y006643D01*
X010324Y006722D02*
X011386Y006722D01*
X011369Y006800D02*
X010403Y006800D01*
X010481Y006879D02*
X011369Y006879D01*
X011369Y006957D02*
X010560Y006957D01*
X010638Y007036D02*
X011369Y007036D01*
X011371Y007115D02*
X010717Y007115D01*
X010795Y007193D02*
X011403Y007193D01*
X011436Y007272D02*
X010874Y007272D01*
X010953Y007350D02*
X011468Y007350D01*
X011501Y007429D02*
X011031Y007429D01*
X011110Y007507D02*
X011579Y007507D01*
X011658Y007586D02*
X011188Y007586D01*
X011267Y007664D02*
X011736Y007664D01*
X011912Y007743D02*
X011345Y007743D01*
X011424Y007821D02*
X045999Y007821D01*
X045999Y007743D02*
X044565Y007743D01*
X044741Y007664D02*
X045999Y007664D01*
X045999Y007586D02*
X044820Y007586D01*
X044898Y007507D02*
X045999Y007507D01*
X045999Y007429D02*
X044976Y007429D01*
X045009Y007350D02*
X045999Y007350D01*
X045999Y007272D02*
X045042Y007272D01*
X045074Y007193D02*
X045999Y007193D01*
X045999Y007115D02*
X045107Y007115D01*
X045109Y007036D02*
X045999Y007036D01*
X045999Y006957D02*
X045109Y006957D01*
X045109Y006879D02*
X045999Y006879D01*
X045999Y006800D02*
X045109Y006800D01*
X045091Y006722D02*
X045999Y006722D01*
X045999Y006643D02*
X045059Y006643D01*
X045026Y006565D02*
X045999Y006565D01*
X045999Y006486D02*
X044994Y006486D01*
X044940Y006408D02*
X045999Y006408D01*
X045999Y006329D02*
X044862Y006329D01*
X044783Y006251D02*
X045999Y006251D01*
X043694Y006251D02*
X012783Y006251D01*
X012862Y006329D02*
X043616Y006329D01*
X043537Y006408D02*
X012940Y006408D01*
X012994Y006486D02*
X022172Y006486D01*
X022199Y006486D02*
X022279Y006486D01*
X022279Y006482D02*
X022345Y006493D01*
X022413Y006515D01*
X022477Y006547D01*
X022535Y006589D01*
X022586Y006640D01*
X022628Y006698D01*
X022660Y006762D01*
X022682Y006830D01*
X022693Y006896D01*
X022279Y006896D01*
X022279Y006976D01*
X022693Y006976D01*
X022682Y007043D01*
X022660Y007111D01*
X022628Y007175D01*
X022586Y007233D01*
X022535Y007283D01*
X022477Y007326D01*
X022413Y007358D01*
X022345Y007380D01*
X022279Y007391D01*
X022279Y006977D01*
X022199Y006977D01*
X022199Y007391D01*
X022132Y007380D01*
X022064Y007358D01*
X022000Y007326D01*
X021942Y007283D01*
X021892Y007233D01*
X021850Y007175D01*
X021817Y007111D01*
X021795Y007043D01*
X021784Y006976D01*
X022199Y006976D01*
X022199Y006896D01*
X022279Y006896D01*
X022279Y006482D01*
X022305Y006486D02*
X023172Y006486D01*
X023199Y006486D02*
X023279Y006486D01*
X023279Y006482D02*
X023345Y006493D01*
X023413Y006515D01*
X023477Y006547D01*
X023535Y006589D01*
X023586Y006640D01*
X023628Y006698D01*
X023660Y006762D01*
X023682Y006830D01*
X023693Y006896D01*
X023279Y006896D01*
X023279Y006976D01*
X023693Y006976D01*
X023682Y007043D01*
X023660Y007111D01*
X023628Y007175D01*
X023586Y007233D01*
X023535Y007283D01*
X023477Y007326D01*
X023413Y007358D01*
X023345Y007380D01*
X023279Y007391D01*
X023279Y006977D01*
X023199Y006977D01*
X023199Y007391D01*
X023132Y007380D01*
X023064Y007358D01*
X023000Y007326D01*
X022942Y007283D01*
X022892Y007233D01*
X022850Y007175D01*
X022817Y007111D01*
X022795Y007043D01*
X022784Y006976D01*
X023199Y006976D01*
X023199Y006896D01*
X023279Y006896D01*
X023279Y006482D01*
X023305Y006486D02*
X043484Y006486D01*
X043451Y006565D02*
X042400Y006565D01*
X042468Y006593D02*
X042582Y006707D01*
X042644Y006856D01*
X042644Y007017D01*
X042582Y007166D01*
X042468Y007280D01*
X042319Y007341D01*
X042158Y007341D01*
X042009Y007280D01*
X041895Y007166D01*
X041834Y007017D01*
X041834Y006856D01*
X041895Y006707D01*
X042009Y006593D01*
X042158Y006531D01*
X042319Y006531D01*
X042468Y006593D01*
X042518Y006643D02*
X043418Y006643D01*
X043386Y006722D02*
X042588Y006722D01*
X042621Y006800D02*
X043369Y006800D01*
X043369Y006879D02*
X042644Y006879D01*
X042644Y006957D02*
X043369Y006957D01*
X043369Y007036D02*
X042636Y007036D01*
X042603Y007115D02*
X043371Y007115D01*
X043403Y007193D02*
X042555Y007193D01*
X042476Y007272D02*
X043436Y007272D01*
X043468Y007350D02*
X023429Y007350D01*
X023547Y007272D02*
X024001Y007272D01*
X024009Y007280D02*
X023895Y007166D01*
X023834Y007017D01*
X023834Y006856D01*
X023895Y006707D01*
X024009Y006593D01*
X024158Y006531D01*
X024319Y006531D01*
X024468Y006593D01*
X024582Y006707D01*
X024644Y006856D01*
X024644Y007017D01*
X024582Y007166D01*
X024468Y007280D01*
X024319Y007341D01*
X024158Y007341D01*
X024009Y007280D01*
X023923Y007193D02*
X023615Y007193D01*
X023659Y007115D02*
X023874Y007115D01*
X023842Y007036D02*
X023684Y007036D01*
X023690Y006879D02*
X023834Y006879D01*
X023834Y006957D02*
X023279Y006957D01*
X023279Y006879D02*
X023199Y006879D01*
X023199Y006896D02*
X023199Y006482D01*
X023132Y006493D01*
X023064Y006515D01*
X023000Y006547D01*
X022942Y006589D01*
X022892Y006640D01*
X022850Y006698D01*
X022817Y006762D01*
X022795Y006830D01*
X022784Y006896D01*
X023199Y006896D01*
X023199Y006957D02*
X022279Y006957D01*
X022279Y006879D02*
X022199Y006879D01*
X022199Y006896D02*
X022199Y006482D01*
X022132Y006493D01*
X022064Y006515D01*
X022000Y006547D01*
X021942Y006589D01*
X021892Y006640D01*
X021850Y006698D01*
X021817Y006762D01*
X021795Y006830D01*
X021784Y006896D01*
X022199Y006896D01*
X022199Y006957D02*
X021644Y006957D01*
X021644Y007017D02*
X021582Y007166D01*
X021468Y007280D01*
X021319Y007341D01*
X021158Y007341D01*
X021009Y007280D01*
X020895Y007166D01*
X020834Y007017D01*
X020834Y006856D01*
X020895Y006707D01*
X021009Y006593D01*
X021158Y006531D01*
X021319Y006531D01*
X021468Y006593D01*
X021582Y006707D01*
X021644Y006856D01*
X021644Y007017D01*
X021636Y007036D02*
X021794Y007036D01*
X021819Y007115D02*
X021603Y007115D01*
X021555Y007193D02*
X021863Y007193D01*
X021931Y007272D02*
X021476Y007272D01*
X021644Y006879D02*
X021787Y006879D01*
X021804Y006800D02*
X021621Y006800D01*
X021588Y006722D02*
X021837Y006722D01*
X021889Y006643D02*
X021518Y006643D01*
X021400Y006565D02*
X021976Y006565D01*
X022199Y006565D02*
X022279Y006565D01*
X022279Y006643D02*
X022199Y006643D01*
X022199Y006722D02*
X022279Y006722D01*
X022279Y006800D02*
X022199Y006800D01*
X022199Y007036D02*
X022279Y007036D01*
X022279Y007115D02*
X022199Y007115D01*
X022199Y007193D02*
X022279Y007193D01*
X022279Y007272D02*
X022199Y007272D01*
X022199Y007350D02*
X022279Y007350D01*
X022429Y007350D02*
X023049Y007350D01*
X022931Y007272D02*
X022547Y007272D01*
X022615Y007193D02*
X022863Y007193D01*
X022819Y007115D02*
X022659Y007115D01*
X022684Y007036D02*
X022794Y007036D01*
X022787Y006879D02*
X022690Y006879D01*
X022673Y006800D02*
X022804Y006800D01*
X022837Y006722D02*
X022640Y006722D01*
X022588Y006643D02*
X022889Y006643D01*
X022976Y006565D02*
X022501Y006565D01*
X023199Y006565D02*
X023279Y006565D01*
X023279Y006643D02*
X023199Y006643D01*
X023199Y006722D02*
X023279Y006722D01*
X023279Y006800D02*
X023199Y006800D01*
X023199Y007036D02*
X023279Y007036D01*
X023279Y007115D02*
X023199Y007115D01*
X023199Y007193D02*
X023279Y007193D01*
X023279Y007272D02*
X023199Y007272D01*
X023199Y007350D02*
X023279Y007350D01*
X023673Y006800D02*
X023857Y006800D01*
X023889Y006722D02*
X023640Y006722D01*
X023588Y006643D02*
X023959Y006643D01*
X024078Y006565D02*
X023501Y006565D01*
X024400Y006565D02*
X026078Y006565D01*
X026009Y006593D02*
X026158Y006531D01*
X026319Y006531D01*
X026468Y006593D01*
X026582Y006707D01*
X026644Y006856D01*
X026644Y007017D01*
X026582Y007166D01*
X026468Y007280D01*
X026319Y007341D01*
X026158Y007341D01*
X026009Y007280D01*
X025895Y007166D01*
X025834Y007017D01*
X025834Y006856D01*
X025895Y006707D01*
X026009Y006593D01*
X025959Y006643D02*
X024518Y006643D01*
X024588Y006722D02*
X025889Y006722D01*
X025857Y006800D02*
X024621Y006800D01*
X024644Y006879D02*
X025834Y006879D01*
X025834Y006957D02*
X024644Y006957D01*
X024636Y007036D02*
X025842Y007036D01*
X025874Y007115D02*
X024603Y007115D01*
X024555Y007193D02*
X025923Y007193D01*
X026001Y007272D02*
X024476Y007272D01*
X026064Y008264D02*
X026166Y008161D01*
X026311Y008161D01*
X026414Y008264D01*
X026414Y008409D01*
X026311Y008511D01*
X026166Y008511D01*
X026064Y008409D01*
X026064Y008264D01*
X026064Y008293D02*
X011439Y008293D01*
X011439Y008371D02*
X026064Y008371D01*
X026105Y008450D02*
X011439Y008450D01*
X011439Y008528D02*
X027599Y008528D01*
X027564Y008564D02*
X027666Y008461D01*
X027811Y008461D01*
X027914Y008564D01*
X027914Y008709D01*
X027811Y008811D01*
X027666Y008811D01*
X027564Y008709D01*
X027564Y008564D01*
X027564Y008607D02*
X011439Y008607D01*
X011439Y008685D02*
X027564Y008685D01*
X027619Y008764D02*
X021542Y008764D01*
X021519Y008741D02*
X021634Y008856D01*
X021634Y009017D01*
X021519Y009131D01*
X021358Y009131D01*
X021244Y009017D01*
X021244Y008856D01*
X021358Y008741D01*
X021519Y008741D01*
X021621Y008842D02*
X032285Y008842D01*
X032264Y008864D02*
X032366Y008761D01*
X032511Y008761D01*
X032614Y008864D01*
X032614Y009009D01*
X032511Y009111D01*
X032366Y009111D01*
X032264Y009009D01*
X032264Y008864D01*
X032264Y008921D02*
X021634Y008921D01*
X021634Y009000D02*
X032264Y009000D01*
X032333Y009078D02*
X031828Y009078D01*
X031811Y009061D02*
X031914Y009164D01*
X031914Y009309D01*
X031811Y009411D01*
X031666Y009411D01*
X031564Y009309D01*
X031564Y009164D01*
X031666Y009061D01*
X031811Y009061D01*
X031906Y009157D02*
X035064Y009157D01*
X035064Y009209D02*
X035064Y009064D01*
X035166Y008961D01*
X035311Y008961D01*
X035414Y009064D01*
X035414Y009209D01*
X035311Y009311D01*
X035166Y009311D01*
X035064Y009209D01*
X035090Y009235D02*
X031914Y009235D01*
X031909Y009314D02*
X036569Y009314D01*
X036564Y009309D02*
X036564Y009164D01*
X036666Y009061D01*
X036811Y009061D01*
X036914Y009164D01*
X036914Y009309D01*
X036811Y009411D01*
X036666Y009411D01*
X036564Y009309D01*
X036564Y009235D02*
X036187Y009235D01*
X036214Y009209D02*
X036111Y009311D01*
X035966Y009311D01*
X035864Y009209D01*
X035864Y009064D01*
X035966Y008961D01*
X036111Y008961D01*
X036214Y009064D01*
X036214Y009209D01*
X036214Y009157D02*
X036571Y009157D01*
X036649Y009078D02*
X036214Y009078D01*
X036149Y009000D02*
X037264Y009000D01*
X037264Y009009D02*
X037264Y008864D01*
X037366Y008761D01*
X037511Y008761D01*
X037614Y008864D01*
X037614Y009009D01*
X037511Y009111D01*
X037366Y009111D01*
X037264Y009009D01*
X037264Y008921D02*
X033214Y008921D01*
X033214Y008864D02*
X033111Y008761D01*
X032966Y008761D01*
X032864Y008864D01*
X032864Y009009D01*
X032966Y009111D01*
X033111Y009111D01*
X033214Y009009D01*
X033214Y008864D01*
X033192Y008842D02*
X037285Y008842D01*
X037364Y008764D02*
X033114Y008764D01*
X032964Y008764D02*
X032514Y008764D01*
X032592Y008842D02*
X032885Y008842D01*
X032864Y008921D02*
X032614Y008921D01*
X032614Y009000D02*
X032864Y009000D01*
X032933Y009078D02*
X032544Y009078D01*
X032364Y008764D02*
X027859Y008764D01*
X027914Y008685D02*
X038064Y008685D01*
X038064Y008709D02*
X038064Y008564D01*
X038166Y008461D01*
X038311Y008461D01*
X038414Y008564D01*
X038414Y008709D01*
X038311Y008811D01*
X038166Y008811D01*
X038064Y008709D01*
X038119Y008764D02*
X037514Y008764D01*
X037592Y008842D02*
X039085Y008842D01*
X039064Y008864D02*
X039166Y008761D01*
X039311Y008761D01*
X039414Y008864D01*
X039414Y009009D01*
X039311Y009111D01*
X039166Y009111D01*
X039064Y009009D01*
X039064Y008864D01*
X039064Y008921D02*
X037614Y008921D01*
X037614Y009000D02*
X039064Y009000D01*
X039133Y009078D02*
X037544Y009078D01*
X037333Y009078D02*
X036828Y009078D01*
X036906Y009157D02*
X039771Y009157D01*
X039764Y009164D02*
X039866Y009061D01*
X040011Y009061D01*
X040114Y009164D01*
X040114Y009309D01*
X040011Y009411D01*
X039866Y009411D01*
X039764Y009309D01*
X039764Y009164D01*
X039764Y009235D02*
X036914Y009235D01*
X036909Y009314D02*
X039769Y009314D01*
X039847Y009392D02*
X036830Y009392D01*
X036647Y009392D02*
X031830Y009392D01*
X031647Y009392D02*
X011439Y009392D01*
X011439Y009314D02*
X031569Y009314D01*
X031564Y009235D02*
X011439Y009235D01*
X011439Y009157D02*
X031571Y009157D01*
X031649Y009078D02*
X021573Y009078D01*
X021305Y009078D02*
X021173Y009078D01*
X021119Y009131D02*
X020958Y009131D01*
X020844Y009017D01*
X020844Y008856D01*
X020958Y008741D01*
X021119Y008741D01*
X021234Y008856D01*
X021234Y009017D01*
X021119Y009131D01*
X021234Y009000D02*
X021244Y009000D01*
X021234Y008921D02*
X021244Y008921D01*
X021257Y008842D02*
X021221Y008842D01*
X021142Y008764D02*
X021335Y008764D01*
X020935Y008764D02*
X020742Y008764D01*
X020719Y008741D02*
X020834Y008856D01*
X020834Y009017D01*
X020719Y009131D01*
X020558Y009131D01*
X020444Y009017D01*
X020444Y008856D01*
X020558Y008741D01*
X020719Y008741D01*
X020821Y008842D02*
X020857Y008842D01*
X020844Y008921D02*
X020834Y008921D01*
X020834Y009000D02*
X020844Y009000D01*
X020905Y009078D02*
X020773Y009078D01*
X020505Y009078D02*
X020373Y009078D01*
X020319Y009131D02*
X020158Y009131D01*
X020044Y009017D01*
X020044Y008856D01*
X020158Y008741D01*
X020319Y008741D01*
X020434Y008856D01*
X020434Y009017D01*
X020319Y009131D01*
X020434Y009000D02*
X020444Y009000D01*
X020434Y008921D02*
X020444Y008921D01*
X020457Y008842D02*
X020421Y008842D01*
X020342Y008764D02*
X020535Y008764D01*
X020135Y008764D02*
X011439Y008764D01*
X011439Y008842D02*
X020057Y008842D01*
X020044Y008921D02*
X011439Y008921D01*
X011439Y009000D02*
X020044Y009000D01*
X020105Y009078D02*
X011439Y009078D01*
X011439Y009471D02*
X030157Y009471D01*
X030166Y009461D02*
X030311Y009461D01*
X030414Y009564D01*
X030414Y009709D01*
X030311Y009811D01*
X030166Y009811D01*
X030064Y009709D01*
X030064Y009564D01*
X030166Y009461D01*
X030078Y009549D02*
X011439Y009549D01*
X011439Y009628D02*
X030064Y009628D01*
X030064Y009706D02*
X029356Y009706D01*
X029311Y009661D02*
X029414Y009764D01*
X029414Y009909D01*
X029311Y010011D01*
X029166Y010011D01*
X029064Y009909D01*
X029064Y009764D01*
X029166Y009661D01*
X029311Y009661D01*
X029414Y009785D02*
X030140Y009785D01*
X030338Y009785D02*
X042863Y009785D01*
X042834Y009856D02*
X042895Y009707D01*
X043009Y009593D01*
X043158Y009531D01*
X043319Y009531D01*
X043468Y009593D01*
X043582Y009707D01*
X043644Y009856D01*
X043644Y010017D01*
X043582Y010166D01*
X043468Y010280D01*
X043319Y010341D01*
X043158Y010341D01*
X043009Y010280D01*
X042895Y010166D01*
X042834Y010017D01*
X042834Y009856D01*
X042834Y009864D02*
X029414Y009864D01*
X029380Y009942D02*
X042834Y009942D01*
X042835Y010021D02*
X028414Y010021D01*
X028414Y009964D02*
X028311Y009861D01*
X028166Y009861D01*
X028064Y009964D01*
X028064Y010109D01*
X028166Y010211D01*
X028311Y010211D01*
X028414Y010109D01*
X028414Y009964D01*
X028392Y009942D02*
X029097Y009942D01*
X029064Y009864D02*
X028313Y009864D01*
X028164Y009864D02*
X011439Y009864D01*
X011439Y009942D02*
X028086Y009942D01*
X028064Y010021D02*
X011439Y010021D01*
X011439Y010099D02*
X028064Y010099D01*
X028133Y010178D02*
X027328Y010178D01*
X027311Y010161D02*
X027414Y010264D01*
X027414Y010409D01*
X027311Y010511D01*
X027166Y010511D01*
X027064Y010409D01*
X027064Y010264D01*
X027166Y010161D01*
X027311Y010161D01*
X027406Y010256D02*
X042986Y010256D01*
X042907Y010178D02*
X028345Y010178D01*
X028414Y010099D02*
X042868Y010099D01*
X043142Y010335D02*
X027414Y010335D01*
X027409Y010413D02*
X045999Y010413D01*
X045999Y010335D02*
X044335Y010335D01*
X044319Y010341D02*
X044158Y010341D01*
X044009Y010280D01*
X043895Y010166D01*
X043834Y010017D01*
X043834Y009856D01*
X043895Y009707D01*
X044009Y009593D01*
X044158Y009531D01*
X044319Y009531D01*
X044468Y009593D01*
X044582Y009707D01*
X044644Y009856D01*
X044644Y010017D01*
X044582Y010166D01*
X044468Y010280D01*
X044319Y010341D01*
X044142Y010335D02*
X043335Y010335D01*
X043492Y010256D02*
X043986Y010256D01*
X043907Y010178D02*
X043570Y010178D01*
X043610Y010099D02*
X043868Y010099D01*
X043835Y010021D02*
X043642Y010021D01*
X043644Y009942D02*
X043834Y009942D01*
X043834Y009864D02*
X043644Y009864D01*
X043614Y009785D02*
X043863Y009785D01*
X043896Y009706D02*
X043582Y009706D01*
X043503Y009628D02*
X043974Y009628D01*
X044115Y009549D02*
X043363Y009549D01*
X043345Y009380D02*
X043279Y009391D01*
X043279Y008977D01*
X043199Y008977D01*
X043199Y009391D01*
X043132Y009380D01*
X043064Y009358D01*
X043000Y009326D01*
X042942Y009283D01*
X042892Y009233D01*
X042850Y009175D01*
X042817Y009111D01*
X042795Y009043D01*
X042784Y008976D01*
X043199Y008976D01*
X043199Y008896D01*
X043279Y008896D01*
X043279Y008976D01*
X043693Y008976D01*
X043682Y009043D01*
X043660Y009111D01*
X043628Y009175D01*
X043586Y009233D01*
X043535Y009283D01*
X043477Y009326D01*
X043413Y009358D01*
X043345Y009380D01*
X043279Y009314D02*
X043199Y009314D01*
X043199Y009235D02*
X043279Y009235D01*
X043279Y009157D02*
X043199Y009157D01*
X043199Y009078D02*
X043279Y009078D01*
X043279Y009000D02*
X043199Y009000D01*
X043199Y008921D02*
X039414Y008921D01*
X039414Y009000D02*
X042788Y009000D01*
X042806Y009078D02*
X042328Y009078D01*
X042311Y009061D02*
X042414Y009164D01*
X042414Y009309D01*
X042311Y009411D01*
X042166Y009411D01*
X042064Y009309D01*
X042064Y009164D01*
X042166Y009061D01*
X042311Y009061D01*
X042406Y009157D02*
X042840Y009157D01*
X042894Y009235D02*
X042414Y009235D01*
X042409Y009314D02*
X042984Y009314D01*
X043115Y009549D02*
X030399Y009549D01*
X030414Y009628D02*
X042974Y009628D01*
X042896Y009706D02*
X030414Y009706D01*
X030321Y009471D02*
X045999Y009471D01*
X045999Y009549D02*
X044363Y009549D01*
X044503Y009628D02*
X045999Y009628D01*
X045999Y009706D02*
X044582Y009706D01*
X044614Y009785D02*
X045999Y009785D01*
X045999Y009864D02*
X044644Y009864D01*
X044644Y009942D02*
X045999Y009942D01*
X045999Y010021D02*
X044642Y010021D01*
X044610Y010099D02*
X045999Y010099D01*
X045999Y010178D02*
X044570Y010178D01*
X044492Y010256D02*
X045999Y010256D01*
X045999Y010492D02*
X027331Y010492D01*
X027147Y010492D02*
X026414Y010492D01*
X026414Y010464D02*
X026311Y010361D01*
X026166Y010361D01*
X026064Y010464D01*
X026064Y010609D01*
X026166Y010711D01*
X026311Y010711D01*
X026414Y010609D01*
X026414Y010464D01*
X026363Y010413D02*
X027068Y010413D01*
X027064Y010335D02*
X011439Y010335D01*
X011439Y010413D02*
X026114Y010413D01*
X026064Y010492D02*
X011439Y010492D01*
X011439Y010570D02*
X026064Y010570D01*
X026104Y010649D02*
X006479Y010649D01*
X006479Y010728D02*
X042887Y010728D01*
X042895Y010707D02*
X043009Y010593D01*
X043158Y010531D01*
X043319Y010531D01*
X043468Y010593D01*
X043582Y010707D01*
X043644Y010856D01*
X043644Y011017D01*
X043582Y011166D01*
X043468Y011280D01*
X043319Y011341D01*
X043158Y011341D01*
X043009Y011280D01*
X042895Y011166D01*
X042834Y011017D01*
X042834Y010856D01*
X042895Y010707D01*
X042953Y010649D02*
X026374Y010649D01*
X026414Y010570D02*
X043064Y010570D01*
X042854Y010806D02*
X006479Y010806D01*
X006479Y010885D02*
X042834Y010885D01*
X042834Y010963D02*
X006479Y010963D01*
X006479Y011042D02*
X042844Y011042D01*
X042877Y011120D02*
X006479Y011120D01*
X006479Y011199D02*
X042928Y011199D01*
X043007Y011277D02*
X006479Y011277D01*
X006479Y011356D02*
X045999Y011356D01*
X045999Y011434D02*
X006479Y011434D01*
X006479Y011513D02*
X045999Y011513D01*
X045999Y011591D02*
X044464Y011591D01*
X044468Y011593D02*
X044582Y011707D01*
X044644Y011856D01*
X044644Y012017D01*
X044582Y012166D01*
X044468Y012280D01*
X044319Y012341D01*
X044158Y012341D01*
X044009Y012280D01*
X043895Y012166D01*
X043834Y012017D01*
X043834Y011856D01*
X043895Y011707D01*
X044009Y011593D01*
X044158Y011531D01*
X044319Y011531D01*
X044468Y011593D01*
X044545Y011670D02*
X045999Y011670D01*
X045999Y011749D02*
X044599Y011749D01*
X044632Y011827D02*
X045999Y011827D01*
X045999Y011906D02*
X044644Y011906D01*
X044644Y011984D02*
X045999Y011984D01*
X045999Y012063D02*
X044625Y012063D01*
X044592Y012141D02*
X045999Y012141D01*
X045999Y012220D02*
X044528Y012220D01*
X044423Y012298D02*
X045999Y012298D01*
X045999Y012377D02*
X022234Y012377D01*
X022234Y012417D02*
X022119Y012531D01*
X021958Y012531D01*
X021844Y012417D01*
X021844Y012256D01*
X021958Y012141D01*
X022119Y012141D01*
X022234Y012256D01*
X022234Y012417D01*
X022195Y012455D02*
X045999Y012455D01*
X045999Y012534D02*
X044326Y012534D01*
X044319Y012531D02*
X044468Y012593D01*
X044582Y012707D01*
X044644Y012856D01*
X044644Y013017D01*
X044582Y013166D01*
X044468Y013280D01*
X044319Y013341D01*
X044158Y013341D01*
X044009Y013280D01*
X043895Y013166D01*
X043834Y013017D01*
X043834Y012856D01*
X043895Y012707D01*
X044009Y012593D01*
X044158Y012531D01*
X044319Y012531D01*
X044152Y012534D02*
X043326Y012534D01*
X043319Y012531D02*
X043468Y012593D01*
X043582Y012707D01*
X043644Y012856D01*
X043644Y013017D01*
X043582Y013166D01*
X043468Y013280D01*
X043319Y013341D01*
X043158Y013341D01*
X043009Y013280D01*
X042895Y013166D01*
X042834Y013017D01*
X042834Y012856D01*
X042895Y012707D01*
X043009Y012593D01*
X043158Y012531D01*
X043319Y012531D01*
X043152Y012534D02*
X011417Y012534D01*
X011434Y012517D02*
X011319Y012631D01*
X011158Y012631D01*
X011044Y012517D01*
X011044Y012356D01*
X011158Y012241D01*
X011319Y012241D01*
X011434Y012356D01*
X011434Y012517D01*
X011434Y012455D02*
X021882Y012455D01*
X021844Y012377D02*
X011434Y012377D01*
X011376Y012298D02*
X021844Y012298D01*
X021879Y012220D02*
X011331Y012220D01*
X011319Y012231D02*
X011158Y012231D01*
X011044Y012117D01*
X011044Y011956D01*
X011158Y011841D01*
X011319Y011841D01*
X011434Y011956D01*
X011434Y012117D01*
X011319Y012231D01*
X011410Y012141D02*
X042885Y012141D01*
X042895Y012166D02*
X042834Y012017D01*
X042834Y011856D01*
X042895Y011707D01*
X043009Y011593D01*
X043158Y011531D01*
X043319Y011531D01*
X043468Y011593D01*
X043582Y011707D01*
X043644Y011856D01*
X043644Y012017D01*
X043582Y012166D01*
X043468Y012280D01*
X043319Y012341D01*
X043158Y012341D01*
X043009Y012280D01*
X042895Y012166D01*
X042949Y012220D02*
X022198Y012220D01*
X022234Y012298D02*
X043054Y012298D01*
X042853Y012063D02*
X011434Y012063D01*
X011434Y011984D02*
X042834Y011984D01*
X042834Y011906D02*
X015845Y011906D01*
X015819Y011931D02*
X015658Y011931D01*
X015544Y011817D01*
X015544Y011656D01*
X015658Y011541D01*
X015819Y011541D01*
X015934Y011656D01*
X015934Y011817D01*
X015819Y011931D01*
X015924Y011827D02*
X042846Y011827D01*
X042878Y011749D02*
X015934Y011749D01*
X015934Y011670D02*
X042932Y011670D01*
X043013Y011591D02*
X015870Y011591D01*
X015608Y011591D02*
X015370Y011591D01*
X015319Y011541D02*
X015434Y011656D01*
X015434Y011817D01*
X015319Y011931D01*
X015158Y011931D01*
X015044Y011817D01*
X015044Y011656D01*
X015158Y011541D01*
X015319Y011541D01*
X015434Y011670D02*
X015544Y011670D01*
X015544Y011749D02*
X015434Y011749D01*
X015424Y011827D02*
X015554Y011827D01*
X015632Y011906D02*
X015345Y011906D01*
X015132Y011906D02*
X014845Y011906D01*
X014819Y011931D02*
X014934Y011817D01*
X014934Y011656D01*
X014819Y011541D01*
X014658Y011541D01*
X014544Y011656D01*
X014544Y011817D01*
X014658Y011931D01*
X014819Y011931D01*
X014924Y011827D02*
X015054Y011827D01*
X015044Y011749D02*
X014934Y011749D01*
X014934Y011670D02*
X015044Y011670D01*
X015108Y011591D02*
X014870Y011591D01*
X014608Y011591D02*
X014370Y011591D01*
X014319Y011541D02*
X014434Y011656D01*
X014434Y011817D01*
X014319Y011931D01*
X014158Y011931D01*
X014044Y011817D01*
X014044Y011656D01*
X014158Y011541D01*
X014319Y011541D01*
X014434Y011670D02*
X014544Y011670D01*
X014544Y011749D02*
X014434Y011749D01*
X014424Y011827D02*
X014554Y011827D01*
X014632Y011906D02*
X014345Y011906D01*
X014132Y011906D02*
X011384Y011906D01*
X011094Y011906D02*
X010984Y011906D01*
X011034Y011956D02*
X010919Y011841D01*
X010758Y011841D01*
X010644Y011956D01*
X010644Y012117D01*
X010758Y012231D01*
X010919Y012231D01*
X011034Y012117D01*
X011034Y011956D01*
X011034Y011984D02*
X011044Y011984D01*
X011034Y012063D02*
X011044Y012063D01*
X011068Y012141D02*
X011010Y012141D01*
X010931Y012220D02*
X011146Y012220D01*
X011101Y012298D02*
X010976Y012298D01*
X010919Y012241D02*
X011034Y012356D01*
X011034Y012517D01*
X010919Y012631D01*
X010758Y012631D01*
X010644Y012517D01*
X010644Y012356D01*
X010758Y012241D01*
X010919Y012241D01*
X010746Y012220D02*
X008167Y012220D01*
X008162Y012207D02*
X008224Y012356D01*
X008224Y012517D01*
X008162Y012666D01*
X008048Y012780D01*
X007899Y012841D01*
X007738Y012841D01*
X007589Y012780D01*
X007475Y012666D01*
X007414Y012517D01*
X007414Y012356D01*
X007475Y012207D01*
X007589Y012093D01*
X007738Y012031D01*
X007899Y012031D01*
X008048Y012093D01*
X008162Y012207D01*
X008096Y012141D02*
X010668Y012141D01*
X010644Y012063D02*
X007975Y012063D01*
X007662Y012063D02*
X006479Y012063D01*
X006479Y012141D02*
X007541Y012141D01*
X007470Y012220D02*
X006479Y012220D01*
X006479Y012298D02*
X007437Y012298D01*
X007414Y012377D02*
X006479Y012377D01*
X006479Y012455D02*
X007414Y012455D01*
X007421Y012534D02*
X006479Y012534D01*
X006479Y012613D02*
X007453Y012613D01*
X007501Y012691D02*
X006479Y012691D01*
X006479Y012770D02*
X007579Y012770D01*
X007578Y013031D02*
X007739Y013031D01*
X007888Y013093D01*
X008002Y013207D01*
X008064Y013356D01*
X008064Y013517D01*
X008002Y013666D01*
X007888Y013780D01*
X007739Y013841D01*
X007578Y013841D01*
X007429Y013780D01*
X007315Y013666D01*
X007254Y013517D01*
X007254Y013356D01*
X007315Y013207D01*
X007429Y013093D01*
X007578Y013031D01*
X007451Y013084D02*
X006479Y013084D01*
X006479Y013162D02*
X007360Y013162D01*
X007301Y013241D02*
X006479Y013241D01*
X006479Y013319D02*
X007269Y013319D01*
X007254Y013398D02*
X006479Y013398D01*
X006479Y013477D02*
X007254Y013477D01*
X007270Y013555D02*
X006479Y013555D01*
X006479Y013634D02*
X007302Y013634D01*
X007362Y013712D02*
X006479Y013712D01*
X006479Y013791D02*
X007456Y013791D01*
X007589Y014093D02*
X007738Y014031D01*
X007899Y014031D01*
X008048Y014093D01*
X008162Y014207D01*
X008224Y014356D01*
X008224Y014517D01*
X008162Y014666D01*
X008048Y014780D01*
X007899Y014841D01*
X007738Y014841D01*
X007589Y014780D01*
X007475Y014666D01*
X007414Y014517D01*
X007414Y014356D01*
X007475Y014207D01*
X007589Y014093D01*
X007577Y014105D02*
X006479Y014105D01*
X006479Y014183D02*
X007499Y014183D01*
X007453Y014262D02*
X006479Y014262D01*
X006479Y014341D02*
X007420Y014341D01*
X007414Y014419D02*
X006479Y014419D01*
X006479Y014498D02*
X007414Y014498D01*
X007438Y014576D02*
X006479Y014576D01*
X006479Y014655D02*
X007471Y014655D01*
X007543Y014733D02*
X006479Y014733D01*
X006479Y014812D02*
X007667Y014812D01*
X007699Y014982D02*
X007765Y014993D01*
X007833Y015015D01*
X007897Y015047D01*
X007955Y015089D01*
X008006Y015140D01*
X008048Y015198D01*
X008080Y015262D01*
X008102Y015330D01*
X008113Y015396D01*
X007699Y015396D01*
X007699Y015476D01*
X008113Y015476D01*
X008102Y015543D01*
X008080Y015611D01*
X008048Y015675D01*
X008006Y015733D01*
X007955Y015783D01*
X007897Y015826D01*
X007833Y015858D01*
X007765Y015880D01*
X007699Y015891D01*
X007699Y015477D01*
X007619Y015477D01*
X007619Y015891D01*
X007552Y015880D01*
X007484Y015858D01*
X007420Y015826D01*
X007362Y015783D01*
X007312Y015733D01*
X007270Y015675D01*
X007237Y015611D01*
X007215Y015543D01*
X007204Y015476D01*
X007619Y015476D01*
X007619Y015396D01*
X007699Y015396D01*
X007699Y014982D01*
X007699Y015047D02*
X007619Y015047D01*
X007619Y014982D02*
X007619Y015396D01*
X007204Y015396D01*
X007215Y015330D01*
X007237Y015262D01*
X007270Y015198D01*
X007312Y015140D01*
X007362Y015089D01*
X007420Y015047D01*
X007484Y015015D01*
X007552Y014993D01*
X007619Y014982D01*
X007619Y015126D02*
X007699Y015126D01*
X007699Y015204D02*
X007619Y015204D01*
X007619Y015283D02*
X007699Y015283D01*
X007699Y015362D02*
X007619Y015362D01*
X007619Y015440D02*
X006479Y015440D01*
X006479Y015362D02*
X007210Y015362D01*
X007230Y015283D02*
X006479Y015283D01*
X006479Y015204D02*
X007266Y015204D01*
X007326Y015126D02*
X006479Y015126D01*
X006479Y015047D02*
X007420Y015047D01*
X007699Y015440D02*
X014095Y015440D01*
X014064Y015409D02*
X014064Y015264D01*
X014166Y015161D01*
X014311Y015161D01*
X014414Y015264D01*
X014414Y015409D01*
X014311Y015511D01*
X014166Y015511D01*
X014064Y015409D01*
X014064Y015362D02*
X008107Y015362D01*
X008087Y015283D02*
X014064Y015283D01*
X014123Y015204D02*
X008051Y015204D01*
X007992Y015126D02*
X023364Y015126D01*
X023364Y015064D02*
X023441Y014986D01*
X023364Y014909D01*
X023364Y014764D01*
X023466Y014661D01*
X023611Y014661D01*
X023714Y014764D01*
X023714Y014909D01*
X023636Y014986D01*
X023714Y015064D01*
X023714Y015161D01*
X023811Y015161D01*
X023914Y015264D01*
X023914Y015409D01*
X023811Y015511D01*
X023666Y015511D01*
X023564Y015409D01*
X023564Y015311D01*
X023466Y015311D01*
X023364Y015209D01*
X023364Y015064D01*
X023380Y015047D02*
X007897Y015047D01*
X007971Y014812D02*
X022667Y014812D01*
X022664Y014809D02*
X022664Y014664D01*
X022766Y014561D01*
X022911Y014561D01*
X023014Y014664D01*
X023014Y014809D01*
X022911Y014911D01*
X022766Y014911D01*
X022664Y014809D01*
X022664Y014733D02*
X008095Y014733D01*
X008167Y014655D02*
X022673Y014655D01*
X022751Y014576D02*
X009546Y014576D01*
X009511Y014611D02*
X009366Y014611D01*
X009264Y014509D01*
X009264Y014364D01*
X009366Y014261D01*
X009511Y014261D01*
X009614Y014364D01*
X009614Y014509D01*
X009511Y014611D01*
X009614Y014498D02*
X045999Y014498D01*
X045999Y014576D02*
X044427Y014576D01*
X044468Y014593D02*
X044582Y014707D01*
X044644Y014856D01*
X044644Y015017D01*
X044582Y015166D01*
X044468Y015280D01*
X044319Y015341D01*
X044158Y015341D01*
X044009Y015280D01*
X043895Y015166D01*
X043834Y015017D01*
X043834Y014856D01*
X043895Y014707D01*
X044009Y014593D01*
X044158Y014531D01*
X044319Y014531D01*
X044468Y014593D01*
X044530Y014655D02*
X045999Y014655D01*
X045999Y014733D02*
X044593Y014733D01*
X044625Y014812D02*
X045999Y014812D01*
X045999Y014890D02*
X044644Y014890D01*
X044644Y014969D02*
X045999Y014969D01*
X045999Y015047D02*
X044631Y015047D01*
X044599Y015126D02*
X045999Y015126D01*
X045999Y015204D02*
X044543Y015204D01*
X044460Y015283D02*
X045999Y015283D01*
X045999Y015362D02*
X037611Y015362D01*
X037614Y015364D02*
X037511Y015261D01*
X037366Y015261D01*
X037264Y015364D01*
X037264Y015509D01*
X037366Y015611D01*
X037511Y015611D01*
X037614Y015509D01*
X037614Y015364D01*
X037614Y015440D02*
X045999Y015440D01*
X045999Y015519D02*
X037604Y015519D01*
X037525Y015597D02*
X043005Y015597D01*
X043009Y015593D02*
X043158Y015531D01*
X043319Y015531D01*
X043468Y015593D01*
X043582Y015707D01*
X043644Y015856D01*
X043644Y016017D01*
X043582Y016166D01*
X043468Y016280D01*
X043319Y016341D01*
X043158Y016341D01*
X043009Y016280D01*
X042895Y016166D01*
X042834Y016017D01*
X042834Y015856D01*
X042895Y015707D01*
X043009Y015593D01*
X042927Y015676D02*
X036551Y015676D01*
X036582Y015707D02*
X036644Y015856D01*
X036644Y016017D01*
X036582Y016166D01*
X036468Y016280D01*
X036319Y016341D01*
X036158Y016341D01*
X036009Y016280D01*
X035895Y016166D01*
X035834Y016017D01*
X035834Y015856D01*
X035895Y015707D01*
X036009Y015593D01*
X036158Y015531D01*
X036319Y015531D01*
X036468Y015593D01*
X036582Y015707D01*
X036602Y015754D02*
X042876Y015754D01*
X042843Y015833D02*
X036634Y015833D01*
X036644Y015911D02*
X042834Y015911D01*
X042834Y015990D02*
X036644Y015990D01*
X036622Y016068D02*
X042855Y016068D01*
X042888Y016147D02*
X036590Y016147D01*
X036522Y016226D02*
X042955Y016226D01*
X043068Y016304D02*
X036409Y016304D01*
X036319Y016531D02*
X036468Y016593D01*
X036582Y016707D01*
X036644Y016856D01*
X036644Y017017D01*
X036582Y017166D01*
X036468Y017280D01*
X036319Y017341D01*
X036158Y017341D01*
X036009Y017280D01*
X035895Y017166D01*
X035834Y017017D01*
X035834Y016856D01*
X035895Y016707D01*
X036009Y016593D01*
X036158Y016531D01*
X036319Y016531D01*
X036339Y016540D02*
X043138Y016540D01*
X043158Y016531D02*
X043009Y016593D01*
X042895Y016707D01*
X042834Y016856D01*
X042834Y017017D01*
X042895Y017166D01*
X043009Y017280D01*
X043158Y017341D01*
X043319Y017341D01*
X043468Y017280D01*
X043582Y017166D01*
X043644Y017017D01*
X043644Y016856D01*
X043582Y016707D01*
X043468Y016593D01*
X043319Y016531D01*
X043158Y016531D01*
X043339Y016540D02*
X044138Y016540D01*
X044158Y016531D02*
X044319Y016531D01*
X044468Y016593D01*
X044582Y016707D01*
X044644Y016856D01*
X044644Y017017D01*
X044582Y017166D01*
X044468Y017280D01*
X044319Y017341D01*
X044158Y017341D01*
X044009Y017280D01*
X043895Y017166D01*
X043834Y017017D01*
X043834Y016856D01*
X043895Y016707D01*
X044009Y016593D01*
X044158Y016531D01*
X044339Y016540D02*
X045999Y016540D01*
X045999Y016618D02*
X044493Y016618D01*
X044572Y016697D02*
X045999Y016697D01*
X045999Y016775D02*
X044610Y016775D01*
X044643Y016854D02*
X045999Y016854D01*
X045999Y016932D02*
X044644Y016932D01*
X044644Y017011D02*
X045999Y017011D01*
X045999Y017090D02*
X044614Y017090D01*
X044580Y017168D02*
X045999Y017168D01*
X045999Y017247D02*
X044501Y017247D01*
X044358Y017325D02*
X045999Y017325D01*
X045999Y017404D02*
X040419Y017404D01*
X040411Y017411D02*
X040266Y017411D01*
X040164Y017309D01*
X040164Y017164D01*
X040266Y017061D01*
X040411Y017061D01*
X040514Y017164D01*
X040514Y017309D01*
X040411Y017411D01*
X040497Y017325D02*
X043119Y017325D01*
X042976Y017247D02*
X040514Y017247D01*
X040514Y017168D02*
X042898Y017168D01*
X042864Y017090D02*
X040439Y017090D01*
X040238Y017090D02*
X039439Y017090D01*
X039411Y017061D02*
X039514Y017164D01*
X039514Y017309D01*
X039411Y017411D01*
X039266Y017411D01*
X039164Y017309D01*
X039164Y017164D01*
X039266Y017061D01*
X039411Y017061D01*
X039514Y017168D02*
X040164Y017168D01*
X040164Y017247D02*
X039514Y017247D01*
X039497Y017325D02*
X040180Y017325D01*
X040259Y017404D02*
X039419Y017404D01*
X039259Y017404D02*
X031819Y017404D01*
X031811Y017411D02*
X031666Y017411D01*
X031564Y017309D01*
X031564Y017184D01*
X031468Y017280D01*
X031319Y017341D01*
X031158Y017341D01*
X031009Y017280D01*
X030895Y017166D01*
X030834Y017017D01*
X030834Y016856D01*
X030895Y016707D01*
X031009Y016593D01*
X031158Y016531D01*
X031319Y016531D01*
X031468Y016593D01*
X031582Y016707D01*
X031644Y016856D01*
X031644Y017017D01*
X031596Y017131D01*
X031666Y017061D01*
X031811Y017061D01*
X031881Y017131D01*
X031834Y017017D01*
X031834Y016856D01*
X031895Y016707D01*
X032009Y016593D01*
X032158Y016531D01*
X032319Y016531D01*
X032468Y016593D01*
X032582Y016707D01*
X032644Y016856D01*
X032644Y017017D01*
X032582Y017166D01*
X032468Y017280D01*
X032319Y017341D01*
X032158Y017341D01*
X032009Y017280D01*
X031914Y017184D01*
X031914Y017309D01*
X031811Y017411D01*
X031897Y017325D02*
X032119Y017325D01*
X031976Y017247D02*
X031914Y017247D01*
X031864Y017090D02*
X031839Y017090D01*
X031834Y017011D02*
X031644Y017011D01*
X031644Y016932D02*
X031834Y016932D01*
X031834Y016854D02*
X031643Y016854D01*
X031610Y016775D02*
X031867Y016775D01*
X031906Y016697D02*
X031572Y016697D01*
X031493Y016618D02*
X031984Y016618D01*
X032138Y016540D02*
X031339Y016540D01*
X031319Y016341D02*
X031158Y016341D01*
X031009Y016280D01*
X030895Y016166D01*
X030834Y016017D01*
X030834Y015856D01*
X030895Y015707D01*
X031009Y015593D01*
X031158Y015531D01*
X031319Y015531D01*
X031468Y015593D01*
X031582Y015707D01*
X031644Y015856D01*
X031644Y016017D01*
X031582Y016166D01*
X031468Y016280D01*
X031319Y016341D01*
X031409Y016304D02*
X031971Y016304D01*
X031942Y016283D02*
X032000Y016326D01*
X032064Y016358D01*
X032132Y016380D01*
X032199Y016391D01*
X032199Y015977D01*
X032279Y015977D01*
X032279Y016391D01*
X032345Y016380D01*
X032413Y016358D01*
X032477Y016326D01*
X032479Y016324D01*
X032566Y016411D01*
X032711Y016411D01*
X032814Y016309D01*
X032814Y016164D01*
X032711Y016061D01*
X032676Y016061D01*
X032682Y016043D01*
X032693Y015976D01*
X032279Y015976D01*
X032279Y015896D01*
X032693Y015896D01*
X032682Y015830D01*
X032660Y015762D01*
X032628Y015698D01*
X032586Y015640D01*
X032535Y015589D01*
X032477Y015547D01*
X032413Y015515D01*
X032345Y015493D01*
X032279Y015482D01*
X032279Y015896D01*
X032199Y015896D01*
X032199Y015482D01*
X032132Y015493D01*
X032064Y015515D01*
X032000Y015547D01*
X031942Y015589D01*
X031892Y015640D01*
X031850Y015698D01*
X031817Y015762D01*
X031795Y015830D01*
X031784Y015896D01*
X032199Y015896D01*
X032199Y015976D01*
X031784Y015976D01*
X031795Y016043D01*
X031817Y016111D01*
X031850Y016175D01*
X031892Y016233D01*
X031942Y016283D01*
X031886Y016226D02*
X031522Y016226D01*
X031590Y016147D02*
X031835Y016147D01*
X031803Y016068D02*
X031622Y016068D01*
X031644Y015990D02*
X031787Y015990D01*
X031794Y015833D02*
X031634Y015833D01*
X031644Y015911D02*
X032199Y015911D01*
X032199Y015833D02*
X032279Y015833D01*
X032279Y015911D02*
X034834Y015911D01*
X034834Y015856D02*
X034895Y015707D01*
X035009Y015593D01*
X035158Y015531D01*
X035319Y015531D01*
X035468Y015593D01*
X035582Y015707D01*
X035644Y015856D01*
X035644Y016017D01*
X035582Y016166D01*
X035468Y016280D01*
X035319Y016341D01*
X035158Y016341D01*
X035009Y016280D01*
X034895Y016166D01*
X034834Y016017D01*
X034834Y015856D01*
X034843Y015833D02*
X032683Y015833D01*
X032657Y015754D02*
X034876Y015754D01*
X034927Y015676D02*
X032612Y015676D01*
X032543Y015597D02*
X035005Y015597D01*
X035011Y015511D02*
X034866Y015511D01*
X034764Y015409D01*
X034764Y015264D01*
X034866Y015161D01*
X035011Y015161D01*
X035114Y015264D01*
X035114Y015409D01*
X035011Y015511D01*
X035082Y015440D02*
X035295Y015440D01*
X035264Y015409D02*
X035264Y015264D01*
X035366Y015161D01*
X035511Y015161D01*
X035614Y015264D01*
X035614Y015409D01*
X035511Y015511D01*
X035366Y015511D01*
X035264Y015409D01*
X035264Y015362D02*
X035114Y015362D01*
X035114Y015283D02*
X035264Y015283D01*
X035323Y015204D02*
X035054Y015204D01*
X034823Y015204D02*
X030614Y015204D01*
X030614Y015164D02*
X030614Y015309D01*
X030511Y015411D01*
X030366Y015411D01*
X030264Y015309D01*
X030264Y015164D01*
X030366Y015061D01*
X030511Y015061D01*
X030614Y015164D01*
X030576Y015126D02*
X042879Y015126D01*
X042895Y015166D02*
X042834Y015017D01*
X042834Y014856D01*
X042895Y014707D01*
X043009Y014593D01*
X043158Y014531D01*
X043319Y014531D01*
X043468Y014593D01*
X043582Y014707D01*
X043644Y014856D01*
X043644Y015017D01*
X043582Y015166D01*
X043468Y015280D01*
X043319Y015341D01*
X043158Y015341D01*
X043009Y015280D01*
X042895Y015166D01*
X042934Y015204D02*
X035554Y015204D01*
X035614Y015283D02*
X037345Y015283D01*
X037266Y015362D02*
X035614Y015362D01*
X035582Y015440D02*
X037264Y015440D01*
X037274Y015519D02*
X032421Y015519D01*
X032279Y015519D02*
X032199Y015519D01*
X032199Y015597D02*
X032279Y015597D01*
X032279Y015676D02*
X032199Y015676D01*
X032199Y015754D02*
X032279Y015754D01*
X032279Y015990D02*
X032199Y015990D01*
X032199Y016068D02*
X032279Y016068D01*
X032279Y016147D02*
X032199Y016147D01*
X032199Y016226D02*
X032279Y016226D01*
X032279Y016304D02*
X032199Y016304D01*
X032199Y016383D02*
X032279Y016383D01*
X032329Y016383D02*
X032538Y016383D01*
X032740Y016383D02*
X045999Y016383D01*
X045999Y016461D02*
X026214Y016461D01*
X026214Y016509D02*
X026111Y016611D01*
X025966Y016611D01*
X025864Y016509D01*
X025864Y016364D01*
X025966Y016261D01*
X026111Y016261D01*
X026214Y016364D01*
X026214Y016509D01*
X026183Y016540D02*
X031138Y016540D01*
X030984Y016618D02*
X021068Y016618D01*
X021114Y016664D02*
X021011Y016561D01*
X020866Y016561D01*
X020764Y016664D01*
X020764Y016809D01*
X020866Y016911D01*
X021011Y016911D01*
X021114Y016809D01*
X021114Y016664D01*
X021114Y016697D02*
X022531Y016697D01*
X022566Y016661D02*
X022711Y016661D01*
X022814Y016764D01*
X022814Y016909D01*
X022711Y017011D01*
X022566Y017011D01*
X020012Y017011D01*
X020011Y017011D02*
X019866Y017011D01*
X019414Y017011D01*
X019414Y016964D02*
X019311Y016861D01*
X019166Y016861D01*
X019064Y016964D01*
X019064Y017109D01*
X019166Y017211D01*
X019311Y017211D01*
X019414Y017109D01*
X019414Y016964D01*
X019382Y016932D02*
X019787Y016932D01*
X019764Y016909D02*
X019764Y016764D01*
X019866Y016661D01*
X020011Y016661D01*
X020114Y016764D01*
X020114Y016909D01*
X020011Y017011D01*
X020090Y016932D02*
X022487Y016932D01*
X022464Y016909D02*
X022464Y016764D01*
X022566Y016661D01*
X022464Y016775D02*
X021114Y016775D01*
X021069Y016854D02*
X022464Y016854D01*
X022464Y016909D02*
X022566Y017011D01*
X022712Y017011D02*
X025717Y017011D01*
X025766Y016961D02*
X025911Y016961D01*
X026014Y017064D01*
X026014Y017209D01*
X025936Y017286D01*
X026014Y017364D01*
X026014Y017509D01*
X025911Y017611D01*
X025766Y017611D01*
X025664Y017509D01*
X025664Y017364D01*
X025741Y017286D01*
X025664Y017209D01*
X025664Y017064D01*
X025766Y016961D01*
X025664Y017090D02*
X019414Y017090D01*
X019354Y017168D02*
X025664Y017168D01*
X025701Y017247D02*
X018296Y017247D01*
X018314Y017264D02*
X018236Y017186D01*
X018314Y017109D01*
X018314Y016964D01*
X018211Y016861D01*
X018066Y016861D01*
X017964Y016964D01*
X017964Y017109D01*
X018041Y017186D01*
X017964Y017264D01*
X017964Y017409D01*
X018066Y017511D01*
X018211Y017511D01*
X018314Y017409D01*
X018314Y017264D01*
X018314Y017325D02*
X025702Y017325D01*
X025664Y017404D02*
X018314Y017404D01*
X018240Y017482D02*
X025664Y017482D01*
X025716Y017561D02*
X011690Y017561D01*
X011734Y017517D02*
X011619Y017631D01*
X011458Y017631D01*
X011344Y017517D01*
X011344Y017356D01*
X011458Y017241D01*
X011619Y017241D01*
X011734Y017356D01*
X011734Y017517D01*
X011734Y017482D02*
X018037Y017482D01*
X017964Y017404D02*
X011734Y017404D01*
X011703Y017325D02*
X017964Y017325D01*
X017981Y017247D02*
X011625Y017247D01*
X011453Y017247D02*
X011304Y017247D01*
X011334Y017217D02*
X011219Y017331D01*
X011058Y017331D01*
X010944Y017217D01*
X010944Y017056D01*
X011013Y016986D01*
X010944Y016917D01*
X010944Y016756D01*
X011058Y016641D01*
X011219Y016641D01*
X011334Y016756D01*
X011334Y016917D01*
X011264Y016986D01*
X011334Y017056D01*
X011334Y017217D01*
X011334Y017168D02*
X018023Y017168D01*
X017964Y017090D02*
X011334Y017090D01*
X011289Y017011D02*
X017964Y017011D01*
X017995Y016932D02*
X011318Y016932D01*
X011334Y016854D02*
X019764Y016854D01*
X019764Y016909D02*
X019866Y017011D01*
X019764Y016775D02*
X011334Y016775D01*
X011275Y016697D02*
X019831Y016697D01*
X020047Y016697D02*
X020764Y016697D01*
X020764Y016775D02*
X020114Y016775D01*
X020114Y016854D02*
X020809Y016854D01*
X020809Y016618D02*
X008182Y016618D01*
X008162Y016666D02*
X008048Y016780D01*
X007899Y016841D01*
X007738Y016841D01*
X007589Y016780D01*
X007475Y016666D01*
X007414Y016517D01*
X007414Y016356D01*
X007475Y016207D01*
X007589Y016093D01*
X007738Y016031D01*
X007899Y016031D01*
X008048Y016093D01*
X008162Y016207D01*
X008224Y016356D01*
X008224Y016517D01*
X008162Y016666D01*
X008131Y016697D02*
X011003Y016697D01*
X010944Y016775D02*
X008052Y016775D01*
X008214Y016540D02*
X025495Y016540D01*
X025464Y016509D02*
X025464Y016364D01*
X025566Y016261D01*
X025711Y016261D01*
X025814Y016364D01*
X025814Y016509D01*
X025711Y016611D01*
X025566Y016611D01*
X025464Y016509D01*
X025464Y016461D02*
X008224Y016461D01*
X008224Y016383D02*
X025464Y016383D01*
X025524Y016304D02*
X022918Y016304D01*
X022911Y016311D02*
X022766Y016311D01*
X022664Y016209D01*
X022664Y016064D01*
X022766Y015961D01*
X022911Y015961D01*
X023014Y016064D01*
X023014Y016209D01*
X022911Y016311D01*
X022997Y016226D02*
X030955Y016226D01*
X030888Y016147D02*
X023014Y016147D01*
X023014Y016068D02*
X030855Y016068D01*
X030834Y015990D02*
X022940Y015990D01*
X022738Y015990D02*
X022614Y015990D01*
X022614Y016009D02*
X022511Y016111D01*
X022366Y016111D01*
X022264Y016009D01*
X022264Y015864D01*
X022366Y015761D01*
X022511Y015761D01*
X022614Y015864D01*
X022614Y016009D01*
X022664Y016068D02*
X022554Y016068D01*
X022664Y016147D02*
X008102Y016147D01*
X008170Y016226D02*
X022680Y016226D01*
X022759Y016304D02*
X008202Y016304D01*
X007989Y016068D02*
X022323Y016068D01*
X022264Y015990D02*
X006479Y015990D01*
X006479Y016068D02*
X007649Y016068D01*
X007535Y016147D02*
X006479Y016147D01*
X006479Y016226D02*
X007468Y016226D01*
X007435Y016304D02*
X006479Y016304D01*
X006479Y016383D02*
X007414Y016383D01*
X007414Y016461D02*
X006479Y016461D01*
X006479Y016540D02*
X007423Y016540D01*
X007456Y016618D02*
X006479Y016618D01*
X006479Y016697D02*
X007506Y016697D01*
X007585Y016775D02*
X006479Y016775D01*
X006479Y016854D02*
X010944Y016854D01*
X010959Y016932D02*
X006479Y016932D01*
X006479Y017011D02*
X010988Y017011D01*
X010944Y017090D02*
X007880Y017090D01*
X007888Y017093D02*
X007739Y017031D01*
X007578Y017031D01*
X007429Y017093D01*
X007315Y017207D01*
X007254Y017356D01*
X007254Y017517D01*
X007315Y017666D01*
X007429Y017780D01*
X007578Y017841D01*
X007739Y017841D01*
X007888Y017780D01*
X008002Y017666D01*
X008064Y017517D01*
X008064Y017356D01*
X008002Y017207D01*
X007888Y017093D01*
X007963Y017168D02*
X010944Y017168D01*
X010973Y017247D02*
X008018Y017247D01*
X008051Y017325D02*
X011052Y017325D01*
X011226Y017325D02*
X011374Y017325D01*
X011344Y017404D02*
X008064Y017404D01*
X008064Y017482D02*
X011344Y017482D01*
X011387Y017561D02*
X008046Y017561D01*
X008013Y017639D02*
X030963Y017639D01*
X031009Y017593D02*
X031158Y017531D01*
X031319Y017531D01*
X031468Y017593D01*
X031582Y017707D01*
X031644Y017856D01*
X031644Y018017D01*
X031582Y018166D01*
X031468Y018280D01*
X031319Y018341D01*
X031158Y018341D01*
X031009Y018280D01*
X030895Y018166D01*
X030834Y018017D01*
X030834Y017856D01*
X030895Y017707D01*
X031009Y017593D01*
X031087Y017561D02*
X025962Y017561D01*
X026014Y017482D02*
X032545Y017482D01*
X032566Y017461D02*
X032711Y017461D01*
X032814Y017564D01*
X032814Y017709D01*
X032711Y017811D01*
X032625Y017811D01*
X032644Y017856D01*
X032644Y018017D01*
X032582Y018166D01*
X032468Y018280D01*
X032319Y018341D01*
X032158Y018341D01*
X032009Y018280D01*
X031895Y018166D01*
X031834Y018017D01*
X031834Y017856D01*
X031895Y017707D01*
X032009Y017593D01*
X032158Y017531D01*
X032319Y017531D01*
X032464Y017591D01*
X032464Y017564D01*
X032566Y017461D01*
X032467Y017561D02*
X032390Y017561D01*
X032358Y017325D02*
X035119Y017325D01*
X035158Y017341D02*
X035009Y017280D01*
X034895Y017166D01*
X034834Y017017D01*
X034834Y016856D01*
X034895Y016707D01*
X035009Y016593D01*
X035158Y016531D01*
X035319Y016531D01*
X035468Y016593D01*
X035582Y016707D01*
X035644Y016856D01*
X035644Y017017D01*
X035582Y017166D01*
X035468Y017280D01*
X035319Y017341D01*
X035158Y017341D01*
X035158Y017531D02*
X035319Y017531D01*
X035468Y017593D01*
X035582Y017707D01*
X035644Y017856D01*
X035644Y018017D01*
X035582Y018166D01*
X035468Y018280D01*
X035319Y018341D01*
X035158Y018341D01*
X035009Y018280D01*
X034895Y018166D01*
X034834Y018017D01*
X034834Y017856D01*
X034895Y017707D01*
X035009Y017593D01*
X035158Y017531D01*
X035087Y017561D02*
X032811Y017561D01*
X032814Y017639D02*
X034963Y017639D01*
X034891Y017718D02*
X032805Y017718D01*
X032726Y017796D02*
X034858Y017796D01*
X034834Y017875D02*
X032644Y017875D01*
X032644Y017954D02*
X034834Y017954D01*
X034840Y018032D02*
X032637Y018032D01*
X032605Y018111D02*
X034873Y018111D01*
X034919Y018189D02*
X032559Y018189D01*
X032480Y018268D02*
X034997Y018268D01*
X035480Y018268D02*
X035997Y018268D01*
X036009Y018280D02*
X035895Y018166D01*
X035834Y018017D01*
X035834Y017856D01*
X035895Y017707D01*
X036009Y017593D01*
X036158Y017531D01*
X036319Y017531D01*
X036468Y017593D01*
X036582Y017707D01*
X036644Y017856D01*
X036644Y018017D01*
X036582Y018166D01*
X036468Y018280D01*
X036319Y018341D01*
X036158Y018341D01*
X036009Y018280D01*
X035919Y018189D02*
X035559Y018189D01*
X035605Y018111D02*
X035873Y018111D01*
X035840Y018032D02*
X035637Y018032D01*
X035644Y017954D02*
X035834Y017954D01*
X035834Y017875D02*
X035644Y017875D01*
X035619Y017796D02*
X035858Y017796D01*
X035891Y017718D02*
X035587Y017718D01*
X035514Y017639D02*
X035963Y017639D01*
X036087Y017561D02*
X035390Y017561D01*
X035358Y017325D02*
X036119Y017325D01*
X035976Y017247D02*
X035501Y017247D01*
X035580Y017168D02*
X035898Y017168D01*
X035864Y017090D02*
X035614Y017090D01*
X035644Y017011D02*
X035834Y017011D01*
X035834Y016932D02*
X035644Y016932D01*
X035643Y016854D02*
X035834Y016854D01*
X035867Y016775D02*
X035610Y016775D01*
X035572Y016697D02*
X035906Y016697D01*
X035984Y016618D02*
X035493Y016618D01*
X035339Y016540D02*
X036138Y016540D01*
X036068Y016304D02*
X035409Y016304D01*
X035522Y016226D02*
X035955Y016226D01*
X035888Y016147D02*
X035590Y016147D01*
X035622Y016068D02*
X035855Y016068D01*
X035834Y015990D02*
X035644Y015990D01*
X035644Y015911D02*
X035834Y015911D01*
X035843Y015833D02*
X035634Y015833D01*
X035602Y015754D02*
X035876Y015754D01*
X035927Y015676D02*
X035551Y015676D01*
X035472Y015597D02*
X036005Y015597D01*
X036472Y015597D02*
X037352Y015597D01*
X037533Y015283D02*
X043017Y015283D01*
X042846Y015047D02*
X023697Y015047D01*
X023714Y015126D02*
X024602Y015126D01*
X024564Y015164D02*
X024666Y015061D01*
X024811Y015061D01*
X024914Y015164D01*
X024914Y015309D01*
X024811Y015411D01*
X024714Y015411D01*
X024714Y015509D01*
X024611Y015611D01*
X024466Y015611D01*
X024364Y015509D01*
X024364Y015364D01*
X024466Y015261D01*
X024564Y015261D01*
X024564Y015164D01*
X024564Y015204D02*
X023854Y015204D01*
X023914Y015283D02*
X024445Y015283D01*
X024366Y015362D02*
X023914Y015362D01*
X023882Y015440D02*
X024364Y015440D01*
X024374Y015519D02*
X008106Y015519D01*
X008085Y015597D02*
X019030Y015597D01*
X019066Y015561D02*
X019211Y015561D01*
X019314Y015664D01*
X019314Y015809D01*
X019211Y015911D01*
X019066Y015911D01*
X018964Y015809D01*
X018964Y015664D01*
X019066Y015561D01*
X018964Y015676D02*
X008047Y015676D01*
X007984Y015754D02*
X018964Y015754D01*
X018988Y015833D02*
X007883Y015833D01*
X007699Y015833D02*
X007619Y015833D01*
X007619Y015754D02*
X007699Y015754D01*
X007699Y015676D02*
X007619Y015676D01*
X007619Y015597D02*
X007699Y015597D01*
X007699Y015519D02*
X007619Y015519D01*
X007435Y015833D02*
X006479Y015833D01*
X006479Y015911D02*
X022264Y015911D01*
X022211Y015911D02*
X022066Y015911D01*
X021964Y015809D01*
X021964Y015664D01*
X022066Y015561D01*
X022211Y015561D01*
X022314Y015664D01*
X022314Y015809D01*
X022211Y015911D01*
X022290Y015833D02*
X022295Y015833D01*
X022314Y015754D02*
X025564Y015754D01*
X025564Y015809D02*
X025564Y015664D01*
X025666Y015561D01*
X025811Y015561D01*
X025914Y015664D01*
X025914Y015809D01*
X025811Y015911D01*
X025666Y015911D01*
X025564Y015809D01*
X025588Y015833D02*
X022583Y015833D01*
X022614Y015911D02*
X030834Y015911D01*
X030843Y015833D02*
X027690Y015833D01*
X027714Y015809D02*
X027611Y015911D01*
X027466Y015911D01*
X027364Y015809D01*
X027364Y015664D01*
X027466Y015561D01*
X027611Y015561D01*
X027714Y015664D01*
X027714Y015809D01*
X027714Y015754D02*
X030876Y015754D01*
X030927Y015676D02*
X027714Y015676D01*
X027647Y015597D02*
X031005Y015597D01*
X031464Y015509D02*
X031464Y015364D01*
X031566Y015261D01*
X031711Y015261D01*
X031814Y015364D01*
X031814Y015509D01*
X031711Y015611D01*
X031566Y015611D01*
X031464Y015509D01*
X031474Y015519D02*
X024704Y015519D01*
X024714Y015440D02*
X031464Y015440D01*
X031466Y015362D02*
X030561Y015362D01*
X030614Y015283D02*
X031545Y015283D01*
X031733Y015283D02*
X034764Y015283D01*
X034764Y015362D02*
X031811Y015362D01*
X031814Y015440D02*
X034795Y015440D01*
X034834Y015990D02*
X032691Y015990D01*
X032718Y016068D02*
X034855Y016068D01*
X034888Y016147D02*
X032797Y016147D01*
X032814Y016226D02*
X034955Y016226D01*
X035068Y016304D02*
X032814Y016304D01*
X032493Y016618D02*
X034984Y016618D01*
X034906Y016697D02*
X032572Y016697D01*
X032610Y016775D02*
X034867Y016775D01*
X034834Y016854D02*
X032643Y016854D01*
X032644Y016932D02*
X034834Y016932D01*
X034834Y017011D02*
X032644Y017011D01*
X032614Y017090D02*
X034864Y017090D01*
X034898Y017168D02*
X032580Y017168D01*
X032501Y017247D02*
X034976Y017247D01*
X035138Y016540D02*
X032339Y016540D01*
X032148Y016383D02*
X026214Y016383D01*
X026154Y016304D02*
X031068Y016304D01*
X030906Y016697D02*
X027547Y016697D01*
X027511Y016661D02*
X027614Y016764D01*
X027614Y016909D01*
X027511Y017011D01*
X027366Y017011D01*
X025961Y017011D01*
X026014Y017090D02*
X029138Y017090D01*
X029166Y017061D02*
X029311Y017061D01*
X029414Y017164D01*
X029414Y017309D01*
X029311Y017411D01*
X029166Y017411D01*
X029064Y017309D01*
X029064Y017164D01*
X029166Y017061D01*
X029064Y017168D02*
X026014Y017168D01*
X025976Y017247D02*
X029064Y017247D01*
X029080Y017325D02*
X025975Y017325D01*
X026014Y017404D02*
X029159Y017404D01*
X029319Y017404D02*
X031659Y017404D01*
X031580Y017325D02*
X031358Y017325D01*
X031501Y017247D02*
X031564Y017247D01*
X031614Y017090D02*
X031638Y017090D01*
X031119Y017325D02*
X029397Y017325D01*
X029414Y017247D02*
X030976Y017247D01*
X030898Y017168D02*
X029414Y017168D01*
X029339Y017090D02*
X030864Y017090D01*
X030834Y017011D02*
X027512Y017011D01*
X027590Y016932D02*
X030834Y016932D01*
X030834Y016854D02*
X027614Y016854D01*
X027614Y016775D02*
X030867Y016775D01*
X031390Y017561D02*
X032087Y017561D01*
X031963Y017639D02*
X031514Y017639D01*
X031587Y017718D02*
X031891Y017718D01*
X031858Y017796D02*
X031619Y017796D01*
X031644Y017875D02*
X031834Y017875D01*
X031834Y017954D02*
X031644Y017954D01*
X031637Y018032D02*
X031840Y018032D01*
X031873Y018111D02*
X031605Y018111D01*
X031559Y018189D02*
X031919Y018189D01*
X031997Y018268D02*
X031480Y018268D01*
X030997Y018268D02*
X024818Y018268D01*
X024811Y018261D02*
X024914Y018364D01*
X024914Y018509D01*
X024811Y018611D01*
X024666Y018611D01*
X024564Y018509D01*
X024564Y018364D01*
X024666Y018261D01*
X024811Y018261D01*
X024896Y018346D02*
X045999Y018346D01*
X045999Y018268D02*
X044480Y018268D01*
X044468Y018280D02*
X044319Y018341D01*
X044158Y018341D01*
X044009Y018280D01*
X043895Y018166D01*
X043834Y018017D01*
X043834Y017856D01*
X043895Y017707D01*
X044009Y017593D01*
X044158Y017531D01*
X044319Y017531D01*
X044468Y017593D01*
X044582Y017707D01*
X044644Y017856D01*
X044644Y018017D01*
X044582Y018166D01*
X044468Y018280D01*
X044559Y018189D02*
X045999Y018189D01*
X045999Y018111D02*
X044605Y018111D01*
X044637Y018032D02*
X045999Y018032D01*
X045999Y017954D02*
X044644Y017954D01*
X044644Y017875D02*
X045999Y017875D01*
X045999Y017796D02*
X044619Y017796D01*
X044587Y017718D02*
X045999Y017718D01*
X045999Y017639D02*
X044514Y017639D01*
X044390Y017561D02*
X045999Y017561D01*
X045999Y017482D02*
X032732Y017482D01*
X030891Y017718D02*
X022668Y017718D01*
X022714Y017764D02*
X022611Y017661D01*
X022466Y017661D01*
X022364Y017764D01*
X022364Y017909D01*
X022466Y018011D01*
X022611Y018011D01*
X022714Y017909D01*
X022714Y017764D01*
X022714Y017796D02*
X030858Y017796D01*
X030834Y017875D02*
X022714Y017875D01*
X022669Y017954D02*
X030834Y017954D01*
X030840Y018032D02*
X023082Y018032D01*
X023114Y018064D02*
X023011Y017961D01*
X022866Y017961D01*
X022764Y018064D01*
X022764Y018209D01*
X022866Y018311D01*
X023011Y018311D01*
X023114Y018209D01*
X023114Y018064D01*
X023114Y018111D02*
X030873Y018111D01*
X030919Y018189D02*
X023114Y018189D01*
X023055Y018268D02*
X024660Y018268D01*
X024581Y018346D02*
X006479Y018346D01*
X006479Y018268D02*
X022823Y018268D01*
X022764Y018189D02*
X006479Y018189D01*
X006479Y018111D02*
X022764Y018111D01*
X022796Y018032D02*
X006479Y018032D01*
X006479Y017954D02*
X022408Y017954D01*
X022364Y017875D02*
X006479Y017875D01*
X006479Y017796D02*
X007470Y017796D01*
X007367Y017718D02*
X006479Y017718D01*
X006479Y017639D02*
X007304Y017639D01*
X007272Y017561D02*
X006479Y017561D01*
X006479Y017482D02*
X007254Y017482D01*
X007254Y017404D02*
X006479Y017404D01*
X006479Y017325D02*
X007266Y017325D01*
X007299Y017247D02*
X006479Y017247D01*
X006479Y017168D02*
X007354Y017168D01*
X007438Y017090D02*
X006479Y017090D01*
X007848Y017796D02*
X022364Y017796D01*
X022410Y017718D02*
X007950Y017718D01*
X006479Y018425D02*
X022003Y018425D01*
X021964Y018464D02*
X022066Y018361D01*
X022211Y018361D01*
X022314Y018464D01*
X022314Y018609D01*
X022211Y018711D01*
X022066Y018711D01*
X021964Y018609D01*
X021964Y018464D01*
X021964Y018503D02*
X006479Y018503D01*
X006479Y018582D02*
X021964Y018582D01*
X022015Y018660D02*
X006479Y018660D01*
X006479Y018739D02*
X023364Y018739D01*
X023311Y018711D02*
X023166Y018711D01*
X023064Y018609D01*
X023064Y018464D01*
X023166Y018361D01*
X023311Y018361D01*
X023414Y018464D01*
X023414Y018609D01*
X023311Y018711D01*
X023364Y018664D02*
X023466Y018561D01*
X023611Y018561D01*
X023714Y018664D01*
X023714Y018809D01*
X023611Y018911D01*
X023466Y018911D01*
X023364Y018809D01*
X023364Y018664D01*
X023362Y018660D02*
X023367Y018660D01*
X023414Y018582D02*
X023446Y018582D01*
X023414Y018503D02*
X024564Y018503D01*
X024564Y018425D02*
X023375Y018425D01*
X023103Y018425D02*
X022275Y018425D01*
X022314Y018503D02*
X023064Y018503D01*
X023064Y018582D02*
X022314Y018582D01*
X022262Y018660D02*
X023115Y018660D01*
X023166Y018861D02*
X023311Y018861D01*
X023414Y018964D01*
X023414Y019109D01*
X023311Y019211D01*
X023166Y019211D01*
X023064Y019109D01*
X023064Y018964D01*
X023166Y018861D01*
X023132Y018896D02*
X022814Y018896D01*
X022814Y018864D02*
X022711Y018761D01*
X022566Y018761D01*
X022464Y018864D01*
X022464Y018961D01*
X022366Y018961D01*
X022264Y019064D01*
X022264Y019209D01*
X022366Y019311D01*
X022511Y019311D01*
X022614Y019209D01*
X022614Y019111D01*
X022711Y019111D01*
X022814Y019009D01*
X022814Y018864D01*
X022767Y018817D02*
X023372Y018817D01*
X023346Y018896D02*
X023451Y018896D01*
X023414Y018975D02*
X025829Y018975D01*
X025866Y019011D02*
X025764Y018909D01*
X025764Y018764D01*
X025816Y018711D01*
X025766Y018711D01*
X025664Y018609D01*
X025664Y018464D01*
X025766Y018361D01*
X025911Y018361D01*
X026014Y018464D01*
X026014Y018609D01*
X025961Y018661D01*
X026011Y018661D01*
X026114Y018764D01*
X026114Y018909D01*
X026011Y019011D01*
X025866Y019011D01*
X025764Y018896D02*
X023627Y018896D01*
X023705Y018817D02*
X025764Y018817D01*
X025789Y018739D02*
X023714Y018739D01*
X023710Y018660D02*
X025715Y018660D01*
X025664Y018582D02*
X024841Y018582D01*
X024914Y018503D02*
X025664Y018503D01*
X025703Y018425D02*
X024914Y018425D01*
X024637Y018582D02*
X023632Y018582D01*
X023064Y018975D02*
X022814Y018975D01*
X022769Y019053D02*
X023064Y019053D01*
X023087Y019132D02*
X022614Y019132D01*
X022612Y019210D02*
X023165Y019210D01*
X023312Y019210D02*
X042940Y019210D01*
X042895Y019166D02*
X042834Y019017D01*
X042834Y018856D01*
X042895Y018707D01*
X043009Y018593D01*
X043158Y018531D01*
X043319Y018531D01*
X043468Y018593D01*
X043582Y018707D01*
X043644Y018856D01*
X043644Y019017D01*
X043582Y019166D01*
X043468Y019280D01*
X043319Y019341D01*
X043158Y019341D01*
X043009Y019280D01*
X042895Y019166D01*
X042881Y019132D02*
X023391Y019132D01*
X023414Y019053D02*
X042849Y019053D01*
X042834Y018975D02*
X026048Y018975D01*
X026114Y018896D02*
X027751Y018896D01*
X027766Y018911D02*
X027664Y018809D01*
X027664Y018664D01*
X027766Y018561D01*
X027911Y018561D01*
X028014Y018664D01*
X028014Y018809D01*
X027911Y018911D01*
X027766Y018911D01*
X027672Y018817D02*
X026114Y018817D01*
X026089Y018739D02*
X027664Y018739D01*
X027667Y018660D02*
X025962Y018660D01*
X026014Y018582D02*
X027746Y018582D01*
X027932Y018582D02*
X043036Y018582D01*
X042942Y018660D02*
X028010Y018660D01*
X028014Y018739D02*
X042882Y018739D01*
X042850Y018817D02*
X028005Y018817D01*
X027927Y018896D02*
X042834Y018896D01*
X043441Y018582D02*
X044036Y018582D01*
X044009Y018593D02*
X044158Y018531D01*
X044319Y018531D01*
X044468Y018593D01*
X044582Y018707D01*
X044644Y018856D01*
X044644Y019017D01*
X044582Y019166D01*
X044468Y019280D01*
X044319Y019341D01*
X044158Y019341D01*
X044009Y019280D01*
X043895Y019166D01*
X043834Y019017D01*
X043834Y018856D01*
X043895Y018707D01*
X044009Y018593D01*
X043942Y018660D02*
X043536Y018660D01*
X043595Y018739D02*
X043882Y018739D01*
X043850Y018817D02*
X043628Y018817D01*
X043644Y018896D02*
X043834Y018896D01*
X043834Y018975D02*
X043644Y018975D01*
X043629Y019053D02*
X043849Y019053D01*
X043881Y019132D02*
X043596Y019132D01*
X043538Y019210D02*
X043940Y019210D01*
X044031Y019289D02*
X043446Y019289D01*
X043319Y019531D02*
X043468Y019593D01*
X043582Y019707D01*
X043644Y019856D01*
X043644Y020017D01*
X043582Y020166D01*
X043468Y020280D01*
X043319Y020341D01*
X043158Y020341D01*
X043009Y020280D01*
X042895Y020166D01*
X042834Y020017D01*
X042834Y019856D01*
X042895Y019707D01*
X043009Y019593D01*
X043158Y019531D01*
X043319Y019531D01*
X043478Y019603D02*
X043999Y019603D01*
X044009Y019593D02*
X044158Y019531D01*
X044319Y019531D01*
X044468Y019593D01*
X044582Y019707D01*
X044644Y019856D01*
X044644Y020017D01*
X044582Y020166D01*
X044468Y020280D01*
X044319Y020341D01*
X044158Y020341D01*
X044009Y020280D01*
X043895Y020166D01*
X043834Y020017D01*
X043834Y019856D01*
X043895Y019707D01*
X044009Y019593D01*
X043921Y019681D02*
X043557Y019681D01*
X043604Y019760D02*
X043873Y019760D01*
X043841Y019839D02*
X043637Y019839D01*
X043644Y019917D02*
X043834Y019917D01*
X043834Y019996D02*
X043644Y019996D01*
X043620Y020074D02*
X043857Y020074D01*
X043890Y020153D02*
X043587Y020153D01*
X043517Y020231D02*
X043961Y020231D01*
X044082Y020310D02*
X043395Y020310D01*
X043319Y020531D02*
X043468Y020593D01*
X043582Y020707D01*
X043644Y020856D01*
X043644Y021017D01*
X043582Y021166D01*
X043468Y021280D01*
X043319Y021341D01*
X043158Y021341D01*
X043009Y021280D01*
X042895Y021166D01*
X042834Y021017D01*
X042834Y020856D01*
X042895Y020707D01*
X043009Y020593D01*
X043158Y020531D01*
X043319Y020531D01*
X043353Y020545D02*
X044124Y020545D01*
X044158Y020531D02*
X044319Y020531D01*
X044468Y020593D01*
X044582Y020707D01*
X044644Y020856D01*
X044644Y021017D01*
X044582Y021166D01*
X044468Y021280D01*
X044319Y021341D01*
X044158Y021341D01*
X044009Y021280D01*
X043895Y021166D01*
X043834Y021017D01*
X043834Y020856D01*
X043895Y020707D01*
X044009Y020593D01*
X044158Y020531D01*
X044353Y020545D02*
X045999Y020545D01*
X045999Y020467D02*
X024414Y020467D01*
X024414Y020509D02*
X024311Y020611D01*
X024166Y020611D01*
X024064Y020509D01*
X024064Y020364D01*
X024166Y020261D01*
X024311Y020261D01*
X024414Y020364D01*
X024414Y020509D01*
X024377Y020545D02*
X043124Y020545D01*
X042978Y020624D02*
X018614Y020624D01*
X018614Y020564D02*
X018511Y020461D01*
X018366Y020461D01*
X018264Y020564D01*
X018264Y020709D01*
X018366Y020811D01*
X018511Y020811D01*
X018614Y020709D01*
X018614Y020564D01*
X018595Y020545D02*
X019000Y020545D01*
X018964Y020509D02*
X018964Y020364D01*
X019066Y020261D01*
X019164Y020261D01*
X019164Y020164D01*
X019266Y020061D01*
X019364Y020061D01*
X019364Y019964D01*
X019466Y019861D01*
X019564Y019861D01*
X019564Y019764D01*
X019666Y019661D01*
X019811Y019661D01*
X019914Y019764D01*
X019914Y019909D01*
X019811Y020011D01*
X019714Y020011D01*
X019714Y020109D01*
X019611Y020211D01*
X019514Y020211D01*
X019514Y020309D01*
X019411Y020411D01*
X019314Y020411D01*
X019314Y020509D01*
X019211Y020611D01*
X019066Y020611D01*
X018964Y020509D01*
X018964Y020467D02*
X018517Y020467D01*
X018361Y020467D02*
X016144Y020467D01*
X016144Y020517D02*
X016082Y020666D01*
X015968Y020780D01*
X015819Y020841D01*
X015658Y020841D01*
X015509Y020780D01*
X015395Y020666D01*
X015334Y020517D01*
X015334Y020356D01*
X015395Y020207D01*
X015509Y020093D01*
X015658Y020031D01*
X015819Y020031D01*
X015968Y020093D01*
X016082Y020207D01*
X016144Y020356D01*
X016144Y020517D01*
X016132Y020545D02*
X018282Y020545D01*
X018264Y020624D02*
X016099Y020624D01*
X016045Y020703D02*
X018264Y020703D01*
X018211Y020761D02*
X018314Y020864D01*
X018314Y021009D01*
X018211Y021111D01*
X018066Y021111D01*
X017964Y021009D01*
X017964Y020864D01*
X018066Y020761D01*
X018211Y020761D01*
X018231Y020781D02*
X018336Y020781D01*
X018309Y020860D02*
X026964Y020860D01*
X026964Y020909D02*
X026964Y020764D01*
X027066Y020661D01*
X027211Y020661D01*
X027314Y020764D01*
X027314Y020909D01*
X027211Y021011D01*
X027066Y021011D01*
X026964Y020909D01*
X026988Y020938D02*
X026993Y020938D01*
X027014Y020964D02*
X026911Y020861D01*
X026766Y020861D01*
X026664Y020964D01*
X026664Y021109D01*
X026766Y021211D01*
X026911Y021211D01*
X027014Y021109D01*
X027014Y020964D01*
X027014Y021017D02*
X035364Y021017D01*
X035364Y020964D02*
X035466Y020861D01*
X035611Y020861D01*
X035714Y020964D01*
X035714Y021109D01*
X035611Y021211D01*
X035466Y021211D01*
X035364Y021109D01*
X035364Y020964D01*
X035389Y020938D02*
X027284Y020938D01*
X027314Y020860D02*
X042834Y020860D01*
X042834Y020938D02*
X035688Y020938D01*
X035714Y021017D02*
X042834Y021017D01*
X042866Y021095D02*
X035714Y021095D01*
X035649Y021174D02*
X042903Y021174D01*
X042982Y021252D02*
X021670Y021252D01*
X021714Y021209D02*
X021611Y021311D01*
X021466Y021311D01*
X021364Y021209D01*
X021364Y021064D01*
X021466Y020961D01*
X021611Y020961D01*
X021714Y021064D01*
X021714Y021209D01*
X021714Y021174D02*
X026729Y021174D01*
X026664Y021095D02*
X021714Y021095D01*
X021667Y021017D02*
X026664Y021017D01*
X026689Y020938D02*
X018314Y020938D01*
X018306Y021017D02*
X021411Y021017D01*
X021364Y021095D02*
X018227Y021095D01*
X018050Y021095D02*
X017945Y021095D01*
X017911Y021061D02*
X018014Y021164D01*
X018014Y021309D01*
X017911Y021411D01*
X017766Y021411D01*
X017664Y021309D01*
X017664Y021164D01*
X017766Y021061D01*
X017911Y021061D01*
X017972Y021017D02*
X013714Y021017D01*
X013714Y020964D02*
X013611Y020861D01*
X013466Y020861D01*
X013364Y020964D01*
X013364Y021109D01*
X013466Y021211D01*
X013611Y021211D01*
X013714Y021109D01*
X013714Y020964D01*
X013688Y020938D02*
X017964Y020938D01*
X017968Y020860D02*
X010509Y020860D01*
X010514Y020864D02*
X010411Y020761D01*
X010266Y020761D01*
X010164Y020864D01*
X010164Y021009D01*
X010266Y021111D01*
X010411Y021111D01*
X010514Y021009D01*
X010514Y020864D01*
X010514Y020938D02*
X013389Y020938D01*
X013364Y021017D02*
X010506Y021017D01*
X010427Y021095D02*
X013364Y021095D01*
X013429Y021174D02*
X006479Y021174D01*
X006479Y021252D02*
X015377Y021252D01*
X015395Y021207D02*
X015509Y021093D01*
X015658Y021031D01*
X015819Y021031D01*
X015968Y021093D01*
X016082Y021207D01*
X016144Y021356D01*
X016144Y021517D01*
X016082Y021666D01*
X015968Y021780D01*
X015819Y021841D01*
X015658Y021841D01*
X015509Y021780D01*
X015395Y021666D01*
X015334Y021517D01*
X015334Y021356D01*
X015395Y021207D01*
X015429Y021174D02*
X013649Y021174D01*
X013714Y021095D02*
X015507Y021095D01*
X015344Y021331D02*
X006479Y021331D01*
X006479Y021409D02*
X008008Y021409D01*
X008000Y021413D02*
X008064Y021381D01*
X008132Y021359D01*
X008199Y021348D01*
X008199Y021762D01*
X008279Y021762D01*
X008279Y021348D01*
X008345Y021359D01*
X008413Y021381D01*
X008477Y021413D01*
X008535Y021455D01*
X008586Y021506D01*
X008628Y021564D01*
X008660Y021628D01*
X008682Y021696D01*
X008693Y021763D01*
X008279Y021763D01*
X008279Y021842D01*
X008693Y021842D01*
X008682Y021909D01*
X008660Y021977D01*
X008628Y022041D01*
X008586Y022099D01*
X008535Y022150D01*
X008477Y022192D01*
X008413Y022224D01*
X008345Y022246D01*
X008279Y022257D01*
X008279Y021843D01*
X008199Y021843D01*
X008199Y022257D01*
X008132Y022246D01*
X008064Y022224D01*
X008000Y022192D01*
X007942Y022150D01*
X007892Y022099D01*
X007850Y022041D01*
X007817Y021977D01*
X007795Y021909D01*
X007784Y021842D01*
X008199Y021842D01*
X008199Y021763D01*
X007784Y021763D01*
X007795Y021696D01*
X007817Y021628D01*
X007850Y021564D01*
X007892Y021506D01*
X007942Y021455D01*
X008000Y021413D01*
X007910Y021488D02*
X006479Y021488D01*
X006479Y021566D02*
X007848Y021566D01*
X007811Y021645D02*
X006479Y021645D01*
X006479Y021724D02*
X007791Y021724D01*
X007790Y021881D02*
X006479Y021881D01*
X006479Y021959D02*
X007811Y021959D01*
X007848Y022038D02*
X006479Y022038D01*
X006479Y022116D02*
X007909Y022116D01*
X008007Y022195D02*
X006479Y022195D01*
X006479Y022273D02*
X012164Y022273D01*
X012164Y022264D02*
X012266Y022161D01*
X012411Y022161D01*
X012514Y022264D01*
X012514Y022409D01*
X012411Y022511D01*
X012266Y022511D01*
X012164Y022409D01*
X012164Y022264D01*
X012164Y022352D02*
X006479Y022352D01*
X006479Y022430D02*
X012185Y022430D01*
X012264Y022509D02*
X006479Y022509D01*
X006479Y022588D02*
X015363Y022588D01*
X015334Y022517D02*
X015395Y022666D01*
X015509Y022780D01*
X015658Y022841D01*
X015819Y022841D01*
X015968Y022780D01*
X016082Y022666D01*
X016144Y022517D01*
X016144Y022356D01*
X016082Y022207D01*
X015968Y022093D01*
X015819Y022031D01*
X015658Y022031D01*
X015509Y022093D01*
X015395Y022207D01*
X015334Y022356D01*
X015334Y022517D01*
X015334Y022509D02*
X012414Y022509D01*
X012492Y022430D02*
X015334Y022430D01*
X015335Y022352D02*
X012514Y022352D01*
X012514Y022273D02*
X015368Y022273D01*
X015407Y022195D02*
X012445Y022195D01*
X012233Y022195D02*
X008471Y022195D01*
X008568Y022116D02*
X015486Y022116D01*
X015643Y022038D02*
X008630Y022038D01*
X008666Y021959D02*
X008786Y021959D01*
X008744Y021917D02*
X008744Y021756D01*
X008858Y021641D01*
X009019Y021641D01*
X009089Y021711D01*
X009158Y021641D01*
X009319Y021641D01*
X009389Y021711D01*
X009458Y021641D01*
X009619Y021641D01*
X009734Y021756D01*
X009734Y021917D01*
X009619Y022031D01*
X009458Y022031D01*
X009389Y021962D01*
X009319Y022031D01*
X009158Y022031D01*
X009089Y021962D01*
X009019Y022031D01*
X008858Y022031D01*
X008744Y021917D01*
X008744Y021881D02*
X008687Y021881D01*
X008744Y021802D02*
X008279Y021802D01*
X008279Y021724D02*
X008199Y021724D01*
X008199Y021802D02*
X006479Y021802D01*
X006479Y021095D02*
X009750Y021095D01*
X009766Y021111D02*
X009664Y021009D01*
X009664Y020864D01*
X009766Y020761D01*
X009911Y020761D01*
X010014Y020864D01*
X010014Y021009D01*
X009911Y021111D01*
X009766Y021111D01*
X009672Y021017D02*
X006479Y021017D01*
X006479Y020938D02*
X009664Y020938D01*
X009668Y020860D02*
X006479Y020860D01*
X006479Y020781D02*
X009747Y020781D01*
X009931Y020781D02*
X010247Y020781D01*
X010168Y020860D02*
X010009Y020860D01*
X010014Y020938D02*
X010164Y020938D01*
X010172Y021017D02*
X010006Y021017D01*
X009927Y021095D02*
X010250Y021095D01*
X010431Y020781D02*
X014013Y020781D01*
X014009Y020780D02*
X013895Y020666D01*
X013834Y020517D01*
X013834Y020356D01*
X013895Y020207D01*
X014009Y020093D01*
X014158Y020031D01*
X014319Y020031D01*
X014468Y020093D01*
X014582Y020207D01*
X014644Y020356D01*
X014644Y020517D01*
X014582Y020666D01*
X014468Y020780D01*
X014319Y020841D01*
X014158Y020841D01*
X014009Y020780D01*
X013932Y020703D02*
X006479Y020703D01*
X006479Y020624D02*
X013878Y020624D01*
X013846Y020545D02*
X006479Y020545D01*
X006479Y020467D02*
X008015Y020467D01*
X008000Y020459D02*
X007942Y020417D01*
X007892Y020367D01*
X007850Y020309D01*
X007817Y020245D01*
X007795Y020177D01*
X007784Y020110D01*
X008199Y020110D01*
X008199Y020030D01*
X008279Y020030D01*
X008279Y020110D01*
X008693Y020110D01*
X008682Y020177D01*
X008660Y020245D01*
X008628Y020309D01*
X008586Y020367D01*
X008535Y020417D01*
X008477Y020459D01*
X008413Y020492D01*
X008345Y020514D01*
X008279Y020525D01*
X008279Y020110D01*
X008199Y020110D01*
X008199Y020525D01*
X008132Y020514D01*
X008064Y020492D01*
X008000Y020459D01*
X007913Y020388D02*
X006479Y020388D01*
X006479Y020310D02*
X007850Y020310D01*
X007813Y020231D02*
X006479Y020231D01*
X006479Y020153D02*
X007791Y020153D01*
X007784Y020030D02*
X007795Y019964D01*
X007817Y019896D01*
X007850Y019832D01*
X007892Y019774D01*
X007942Y019723D01*
X008000Y019681D01*
X008064Y019649D01*
X008132Y019626D01*
X008199Y019616D01*
X008199Y020030D01*
X007784Y020030D01*
X007790Y019996D02*
X006479Y019996D01*
X006479Y020074D02*
X008199Y020074D01*
X008199Y019996D02*
X008279Y019996D01*
X008279Y020030D02*
X008279Y019616D01*
X008345Y019626D01*
X008413Y019649D01*
X008477Y019681D01*
X008535Y019723D01*
X008586Y019774D01*
X008628Y019832D01*
X008660Y019896D01*
X008682Y019964D01*
X008693Y020030D01*
X008279Y020030D01*
X008279Y020074D02*
X014055Y020074D01*
X013950Y020153D02*
X008686Y020153D01*
X008665Y020231D02*
X013885Y020231D01*
X013853Y020310D02*
X008627Y020310D01*
X008564Y020388D02*
X013834Y020388D01*
X013834Y020467D02*
X008462Y020467D01*
X008279Y020467D02*
X008199Y020467D01*
X008199Y020388D02*
X008279Y020388D01*
X008279Y020310D02*
X008199Y020310D01*
X008199Y020231D02*
X008279Y020231D01*
X008279Y020153D02*
X008199Y020153D01*
X008199Y019917D02*
X008279Y019917D01*
X008279Y019839D02*
X008199Y019839D01*
X008199Y019760D02*
X008279Y019760D01*
X008279Y019681D02*
X008199Y019681D01*
X008000Y019681D02*
X006479Y019681D01*
X006479Y019603D02*
X009944Y019603D01*
X009944Y019617D02*
X009944Y019456D01*
X010058Y019341D01*
X010219Y019341D01*
X010334Y019456D01*
X010334Y019617D01*
X010219Y019731D01*
X010058Y019731D01*
X009944Y019617D01*
X010008Y019681D02*
X008478Y019681D01*
X008572Y019760D02*
X012315Y019760D01*
X012264Y019709D02*
X012264Y019564D01*
X012366Y019461D01*
X012464Y019461D01*
X012464Y019364D01*
X012566Y019261D01*
X012711Y019261D01*
X012814Y019364D01*
X012814Y019509D01*
X012711Y019611D01*
X012614Y019611D01*
X012614Y019709D01*
X012511Y019811D01*
X012366Y019811D01*
X012264Y019709D01*
X012264Y019681D02*
X010269Y019681D01*
X010334Y019603D02*
X012264Y019603D01*
X012303Y019524D02*
X010334Y019524D01*
X010324Y019446D02*
X012464Y019446D01*
X012464Y019367D02*
X010245Y019367D01*
X010032Y019367D02*
X006479Y019367D01*
X006479Y019289D02*
X012539Y019289D01*
X012739Y019289D02*
X013861Y019289D01*
X013834Y019356D02*
X013895Y019207D01*
X014009Y019093D01*
X014158Y019031D01*
X014319Y019031D01*
X014468Y019093D01*
X014582Y019207D01*
X014644Y019356D01*
X014644Y019517D01*
X014582Y019666D01*
X014468Y019780D01*
X014319Y019841D01*
X014158Y019841D01*
X014009Y019780D01*
X013895Y019666D01*
X013834Y019517D01*
X013834Y019356D01*
X013834Y019367D02*
X012814Y019367D01*
X012814Y019446D02*
X013834Y019446D01*
X013837Y019524D02*
X012798Y019524D01*
X012720Y019603D02*
X013869Y019603D01*
X013911Y019681D02*
X012614Y019681D01*
X012563Y019760D02*
X013990Y019760D01*
X014151Y019839D02*
X008631Y019839D01*
X008667Y019917D02*
X019411Y019917D01*
X019364Y019996D02*
X008688Y019996D01*
X007906Y019760D02*
X006479Y019760D01*
X006479Y019839D02*
X007846Y019839D01*
X007810Y019917D02*
X006479Y019917D01*
X006479Y019524D02*
X009944Y019524D01*
X009954Y019446D02*
X006479Y019446D01*
X006479Y019210D02*
X013894Y019210D01*
X013971Y019132D02*
X006479Y019132D01*
X006479Y019053D02*
X014106Y019053D01*
X014372Y019053D02*
X015606Y019053D01*
X015658Y019031D02*
X015819Y019031D01*
X015968Y019093D01*
X016082Y019207D01*
X016144Y019356D01*
X016144Y019517D01*
X016082Y019666D01*
X015968Y019780D01*
X015819Y019841D01*
X015658Y019841D01*
X015509Y019780D01*
X015395Y019666D01*
X015334Y019517D01*
X015334Y019356D01*
X015395Y019207D01*
X015509Y019093D01*
X015658Y019031D01*
X015471Y019132D02*
X014507Y019132D01*
X014583Y019210D02*
X015394Y019210D01*
X015361Y019289D02*
X014616Y019289D01*
X014644Y019367D02*
X015334Y019367D01*
X015334Y019446D02*
X014644Y019446D01*
X014641Y019524D02*
X015337Y019524D01*
X015369Y019603D02*
X014608Y019603D01*
X014566Y019681D02*
X015411Y019681D01*
X015490Y019760D02*
X014488Y019760D01*
X014326Y019839D02*
X015651Y019839D01*
X015826Y019839D02*
X019564Y019839D01*
X019568Y019760D02*
X015988Y019760D01*
X016066Y019681D02*
X019646Y019681D01*
X019831Y019681D02*
X020164Y019681D01*
X020164Y019709D02*
X020164Y019564D01*
X020266Y019461D01*
X020411Y019461D01*
X020514Y019564D01*
X020514Y019709D01*
X020411Y019811D01*
X020266Y019811D01*
X020164Y019709D01*
X020215Y019760D02*
X019910Y019760D01*
X019914Y019839D02*
X042841Y019839D01*
X042834Y019917D02*
X020467Y019917D01*
X020514Y019964D02*
X020411Y019861D01*
X020266Y019861D01*
X020164Y019964D01*
X020164Y020109D01*
X020266Y020211D01*
X020411Y020211D01*
X020514Y020109D01*
X020514Y019964D01*
X020514Y019996D02*
X042834Y019996D01*
X042857Y020074D02*
X020514Y020074D01*
X020470Y020153D02*
X042890Y020153D01*
X042961Y020231D02*
X019514Y020231D01*
X019513Y020310D02*
X024118Y020310D01*
X024064Y020388D02*
X019434Y020388D01*
X019314Y020467D02*
X024064Y020467D01*
X024100Y020545D02*
X019277Y020545D01*
X019164Y020231D02*
X016092Y020231D01*
X016125Y020310D02*
X019018Y020310D01*
X018964Y020388D02*
X016144Y020388D01*
X016028Y020153D02*
X019175Y020153D01*
X019253Y020074D02*
X015923Y020074D01*
X015555Y020074D02*
X014423Y020074D01*
X014528Y020153D02*
X015450Y020153D01*
X015385Y020231D02*
X014592Y020231D01*
X014625Y020310D02*
X015353Y020310D01*
X015334Y020388D02*
X014644Y020388D01*
X014644Y020467D02*
X015334Y020467D01*
X015346Y020545D02*
X014632Y020545D01*
X014599Y020624D02*
X015378Y020624D01*
X015432Y020703D02*
X014545Y020703D01*
X014465Y020781D02*
X015513Y020781D01*
X015965Y020781D02*
X018047Y020781D01*
X017732Y021095D02*
X015970Y021095D01*
X016049Y021174D02*
X017664Y021174D01*
X017664Y021252D02*
X016101Y021252D01*
X016133Y021331D02*
X017686Y021331D01*
X017764Y021409D02*
X016144Y021409D01*
X016144Y021488D02*
X036640Y021488D01*
X036666Y021461D02*
X036564Y021564D01*
X036564Y021709D01*
X036666Y021811D01*
X036811Y021811D01*
X036914Y021709D01*
X036914Y021564D01*
X036811Y021461D01*
X036666Y021461D01*
X036564Y021566D02*
X017916Y021566D01*
X017911Y021561D02*
X018014Y021664D01*
X018014Y021809D01*
X017911Y021911D01*
X017766Y021911D01*
X017664Y021809D01*
X017664Y021664D01*
X017766Y021561D01*
X017911Y021561D01*
X017995Y021645D02*
X036564Y021645D01*
X036578Y021724D02*
X018014Y021724D01*
X018014Y021802D02*
X036657Y021802D01*
X036820Y021802D02*
X042856Y021802D01*
X042834Y021856D02*
X042895Y021707D01*
X043009Y021593D01*
X043158Y021531D01*
X043319Y021531D01*
X043468Y021593D01*
X043582Y021707D01*
X043644Y021856D01*
X043644Y022017D01*
X043582Y022166D01*
X043468Y022280D01*
X043319Y022341D01*
X043158Y022341D01*
X043009Y022280D01*
X042895Y022166D01*
X042834Y022017D01*
X042834Y021856D01*
X042834Y021881D02*
X017942Y021881D01*
X017736Y021881D02*
X009734Y021881D01*
X009734Y021802D02*
X014257Y021802D01*
X014266Y021811D02*
X014164Y021709D01*
X014164Y021564D01*
X014266Y021461D01*
X014411Y021461D01*
X014514Y021564D01*
X014514Y021709D01*
X014411Y021811D01*
X014266Y021811D01*
X014178Y021724D02*
X009702Y021724D01*
X009623Y021645D02*
X014164Y021645D01*
X014164Y021566D02*
X008629Y021566D01*
X008666Y021645D02*
X008854Y021645D01*
X008776Y021724D02*
X008687Y021724D01*
X008568Y021488D02*
X014240Y021488D01*
X014438Y021488D02*
X015334Y021488D01*
X015334Y021409D02*
X008469Y021409D01*
X008279Y021409D02*
X008199Y021409D01*
X008199Y021488D02*
X008279Y021488D01*
X008279Y021566D02*
X008199Y021566D01*
X008199Y021645D02*
X008279Y021645D01*
X008279Y021881D02*
X008199Y021881D01*
X008199Y021959D02*
X008279Y021959D01*
X008279Y022038D02*
X008199Y022038D01*
X008199Y022116D02*
X008279Y022116D01*
X008279Y022195D02*
X008199Y022195D01*
X009023Y021645D02*
X009154Y021645D01*
X009323Y021645D02*
X009454Y021645D01*
X009692Y021959D02*
X042834Y021959D01*
X042842Y022038D02*
X015835Y022038D01*
X015991Y022116D02*
X042875Y022116D01*
X042924Y022195D02*
X016070Y022195D01*
X016110Y022273D02*
X043003Y022273D01*
X043158Y022531D02*
X043009Y022593D01*
X042895Y022707D01*
X042834Y022856D01*
X042834Y023017D01*
X042895Y023166D01*
X043009Y023280D01*
X043158Y023341D01*
X043319Y023341D01*
X043468Y023280D01*
X043582Y023166D01*
X043644Y023017D01*
X043644Y022856D01*
X043582Y022707D01*
X043468Y022593D01*
X043319Y022531D01*
X043158Y022531D01*
X043022Y022588D02*
X042014Y022588D01*
X042014Y022609D02*
X041911Y022711D01*
X041766Y022711D01*
X041664Y022609D01*
X041664Y022464D01*
X041766Y022361D01*
X041911Y022361D01*
X042014Y022464D01*
X042014Y022609D01*
X041956Y022666D02*
X042936Y022666D01*
X042880Y022745D02*
X041594Y022745D01*
X041614Y022764D02*
X041511Y022661D01*
X041366Y022661D01*
X041264Y022764D01*
X041264Y022909D01*
X041366Y023011D01*
X041511Y023011D01*
X041614Y022909D01*
X041614Y022764D01*
X041614Y022823D02*
X042847Y022823D01*
X042834Y022902D02*
X041614Y022902D01*
X041542Y022980D02*
X042834Y022980D01*
X042851Y023059D02*
X029864Y023059D01*
X029914Y023009D02*
X029811Y023111D01*
X029714Y023111D01*
X029714Y023209D01*
X029611Y023311D01*
X029466Y023311D01*
X029364Y023209D01*
X029364Y023064D01*
X029466Y022961D01*
X029564Y022961D01*
X029564Y022864D01*
X029666Y022761D01*
X029811Y022761D01*
X029914Y022864D01*
X029914Y023009D01*
X029914Y022980D02*
X033335Y022980D01*
X033366Y023011D02*
X033264Y022909D01*
X033264Y022764D01*
X033366Y022661D01*
X033511Y022661D01*
X033614Y022764D01*
X033614Y022909D01*
X033511Y023011D01*
X033366Y023011D01*
X033264Y022902D02*
X029914Y022902D01*
X029873Y022823D02*
X033264Y022823D01*
X033283Y022745D02*
X028778Y022745D01*
X028814Y022709D02*
X028711Y022811D01*
X028566Y022811D01*
X028464Y022709D01*
X028464Y022564D01*
X028566Y022461D01*
X028711Y022461D01*
X028814Y022564D01*
X028814Y022709D01*
X028814Y022666D02*
X030021Y022666D01*
X030066Y022711D02*
X029964Y022609D01*
X029964Y022464D01*
X030066Y022361D01*
X030211Y022361D01*
X030314Y022464D01*
X030314Y022609D01*
X030211Y022711D01*
X030066Y022711D01*
X029964Y022588D02*
X028814Y022588D01*
X028759Y022509D02*
X029964Y022509D01*
X029997Y022430D02*
X026880Y022430D01*
X026914Y022464D02*
X026811Y022361D01*
X026666Y022361D01*
X026564Y022464D01*
X026564Y022609D01*
X026666Y022711D01*
X026811Y022711D01*
X026914Y022609D01*
X026914Y022464D01*
X026914Y022509D02*
X028519Y022509D01*
X028464Y022588D02*
X026914Y022588D01*
X026856Y022666D02*
X028261Y022666D01*
X028266Y022661D02*
X028411Y022661D01*
X028514Y022764D01*
X028514Y022909D01*
X028411Y023011D01*
X028266Y023011D01*
X028164Y022909D01*
X028164Y022764D01*
X028266Y022661D01*
X028183Y022745D02*
X016003Y022745D01*
X016082Y022666D02*
X026621Y022666D01*
X026564Y022588D02*
X016114Y022588D01*
X016144Y022509D02*
X026564Y022509D01*
X026597Y022430D02*
X016144Y022430D01*
X016142Y022352D02*
X045999Y022352D01*
X045999Y022430D02*
X041980Y022430D01*
X042014Y022509D02*
X045999Y022509D01*
X045999Y022588D02*
X044455Y022588D01*
X044468Y022593D02*
X044582Y022707D01*
X044644Y022856D01*
X044644Y023017D01*
X044582Y023166D01*
X044468Y023280D01*
X044319Y023341D01*
X044158Y023341D01*
X044009Y023280D01*
X043895Y023166D01*
X043834Y023017D01*
X043834Y022856D01*
X043895Y022707D01*
X044009Y022593D01*
X044158Y022531D01*
X044319Y022531D01*
X044468Y022593D01*
X044541Y022666D02*
X045999Y022666D01*
X045999Y022745D02*
X044598Y022745D01*
X044630Y022823D02*
X045999Y022823D01*
X045999Y022902D02*
X044644Y022902D01*
X044644Y022980D02*
X045999Y022980D01*
X045999Y023059D02*
X044626Y023059D01*
X044594Y023137D02*
X045999Y023137D01*
X045999Y023216D02*
X044532Y023216D01*
X044433Y023294D02*
X045999Y023294D01*
X045999Y023373D02*
X040514Y023373D01*
X040514Y023364D02*
X040411Y023261D01*
X040314Y023261D01*
X040314Y023164D01*
X040211Y023061D01*
X040066Y023061D01*
X039964Y023164D01*
X039964Y023309D01*
X040066Y023411D01*
X040164Y023411D01*
X040164Y023509D01*
X040266Y023611D01*
X040411Y023611D01*
X040514Y023509D01*
X040514Y023364D01*
X040514Y023452D02*
X045999Y023452D01*
X045999Y023530D02*
X040492Y023530D01*
X040414Y023609D02*
X042994Y023609D01*
X043009Y023593D02*
X043158Y023531D01*
X043319Y023531D01*
X043468Y023593D01*
X043582Y023707D01*
X043644Y023856D01*
X043644Y024017D01*
X043582Y024166D01*
X043468Y024280D01*
X043319Y024341D01*
X043158Y024341D01*
X043009Y024280D01*
X042895Y024166D01*
X042834Y024017D01*
X042834Y023856D01*
X042895Y023707D01*
X043009Y023593D01*
X042915Y023687D02*
X026214Y023687D01*
X026214Y023664D02*
X026111Y023561D01*
X025966Y023561D01*
X025864Y023664D01*
X025864Y023809D01*
X025966Y023911D01*
X026111Y023911D01*
X026214Y023809D01*
X026214Y023664D01*
X026158Y023609D02*
X040264Y023609D01*
X040185Y023530D02*
X024080Y023530D01*
X024114Y023564D02*
X024011Y023461D01*
X023866Y023461D01*
X023764Y023564D01*
X023764Y023709D01*
X023866Y023811D01*
X024011Y023811D01*
X024114Y023709D01*
X024114Y023564D01*
X024114Y023609D02*
X025919Y023609D01*
X025864Y023687D02*
X024114Y023687D01*
X024057Y023766D02*
X025864Y023766D01*
X025899Y023844D02*
X023178Y023844D01*
X023214Y023809D02*
X023111Y023911D01*
X022966Y023911D01*
X022864Y023809D01*
X022864Y023664D01*
X022966Y023561D01*
X023111Y023561D01*
X023214Y023664D01*
X023214Y023809D01*
X023214Y023766D02*
X023821Y023766D01*
X023764Y023687D02*
X023214Y023687D01*
X023158Y023609D02*
X023764Y023609D01*
X023798Y023530D02*
X006479Y023530D01*
X006479Y023452D02*
X040164Y023452D01*
X040028Y023373D02*
X016650Y023373D01*
X016611Y023411D02*
X016466Y023411D01*
X016364Y023309D01*
X016364Y023164D01*
X016466Y023061D01*
X016611Y023061D01*
X016714Y023164D01*
X016714Y023309D01*
X016611Y023411D01*
X016714Y023294D02*
X029449Y023294D01*
X029371Y023216D02*
X016714Y023216D01*
X016687Y023137D02*
X029364Y023137D01*
X029369Y023059D02*
X006479Y023059D01*
X006479Y023137D02*
X016390Y023137D01*
X016364Y023216D02*
X006479Y023216D01*
X006479Y023294D02*
X016364Y023294D01*
X016428Y023373D02*
X006479Y023373D01*
X006479Y023609D02*
X022919Y023609D01*
X022864Y023687D02*
X010837Y023687D01*
X010811Y023661D02*
X010914Y023764D01*
X010914Y023909D01*
X010811Y024011D01*
X010666Y024011D01*
X010564Y023909D01*
X010564Y023764D01*
X010666Y023661D01*
X010811Y023661D01*
X010914Y023766D02*
X022864Y023766D01*
X022899Y023844D02*
X010914Y023844D01*
X010900Y023923D02*
X042834Y023923D01*
X042834Y024001D02*
X010821Y024001D01*
X010656Y024001D02*
X010350Y024001D01*
X010341Y023974D02*
X010364Y024042D01*
X010374Y024109D01*
X009960Y024109D01*
X009960Y024189D01*
X010374Y024189D01*
X010364Y024256D01*
X010341Y024324D01*
X010309Y024387D01*
X010267Y024445D01*
X010216Y024496D01*
X010158Y024538D01*
X010094Y024571D01*
X010026Y024593D01*
X009960Y024603D01*
X009960Y024189D01*
X009880Y024189D01*
X009880Y024603D01*
X009813Y024593D01*
X009745Y024571D01*
X009681Y024538D01*
X009623Y024496D01*
X009573Y024445D01*
X009531Y024387D01*
X009498Y024324D01*
X009476Y024256D01*
X009465Y024189D01*
X009880Y024189D01*
X009880Y024109D01*
X009960Y024109D01*
X009960Y023695D01*
X010026Y023705D01*
X010094Y023727D01*
X010158Y023760D01*
X010216Y023802D01*
X010267Y023853D01*
X010309Y023910D01*
X010341Y023974D01*
X010315Y023923D02*
X010578Y023923D01*
X010564Y023844D02*
X010259Y023844D01*
X010166Y023766D02*
X010564Y023766D01*
X010640Y023687D02*
X006479Y023687D01*
X006479Y023766D02*
X007114Y023766D01*
X007122Y023760D02*
X007186Y023727D01*
X007254Y023705D01*
X007321Y023695D01*
X007321Y024109D01*
X007401Y024109D01*
X007401Y024189D01*
X007815Y024189D01*
X007805Y024256D01*
X007782Y024324D01*
X007750Y024387D01*
X007708Y024445D01*
X007657Y024496D01*
X007599Y024538D01*
X007535Y024571D01*
X007467Y024593D01*
X007401Y024603D01*
X007401Y024189D01*
X007321Y024189D01*
X007321Y024603D01*
X007254Y024593D01*
X007186Y024571D01*
X007122Y024538D01*
X007064Y024496D01*
X007014Y024445D01*
X006972Y024387D01*
X006939Y024324D01*
X006917Y024256D01*
X006906Y024189D01*
X007321Y024189D01*
X007321Y024109D01*
X006906Y024109D01*
X006917Y024042D01*
X006939Y023974D01*
X006972Y023910D01*
X007014Y023853D01*
X007064Y023802D01*
X007122Y023760D01*
X007022Y023844D02*
X006479Y023844D01*
X006479Y023923D02*
X006965Y023923D01*
X006930Y024001D02*
X006479Y024001D01*
X006479Y024080D02*
X006911Y024080D01*
X006914Y024237D02*
X006479Y024237D01*
X006479Y024316D02*
X006937Y024316D01*
X006976Y024394D02*
X006479Y024394D01*
X006479Y024473D02*
X007041Y024473D01*
X007148Y024551D02*
X006479Y024551D01*
X006479Y024630D02*
X015373Y024630D01*
X015409Y024593D02*
X015558Y024531D01*
X015719Y024531D01*
X015868Y024593D01*
X015982Y024707D01*
X016044Y024856D01*
X016044Y025017D01*
X015982Y025166D01*
X015868Y025280D01*
X015719Y025341D01*
X015558Y025341D01*
X015409Y025280D01*
X015295Y025166D01*
X015234Y025017D01*
X015234Y024856D01*
X015295Y024707D01*
X015409Y024593D01*
X015510Y024551D02*
X010133Y024551D01*
X010240Y024473D02*
X014427Y024473D01*
X014466Y024511D02*
X014364Y024409D01*
X014364Y024264D01*
X014466Y024161D01*
X014611Y024161D01*
X014714Y024264D01*
X014714Y024409D01*
X014611Y024511D01*
X014466Y024511D01*
X014364Y024394D02*
X010304Y024394D01*
X010344Y024316D02*
X014364Y024316D01*
X014391Y024237D02*
X010367Y024237D01*
X010369Y024080D02*
X021948Y024080D01*
X021966Y024061D02*
X022111Y024061D01*
X022214Y024164D01*
X022214Y024309D01*
X022111Y024411D01*
X021966Y024411D01*
X021864Y024309D01*
X021864Y024164D01*
X021966Y024061D01*
X021869Y024158D02*
X009960Y024158D01*
X009960Y024080D02*
X009880Y024080D01*
X009880Y024109D02*
X009880Y023695D01*
X009813Y023705D01*
X009745Y023727D01*
X009681Y023760D01*
X009623Y023802D01*
X009573Y023853D01*
X009531Y023910D01*
X009498Y023974D01*
X009476Y024042D01*
X009465Y024109D01*
X009880Y024109D01*
X009880Y024158D02*
X007401Y024158D01*
X007401Y024109D02*
X007815Y024109D01*
X007805Y024042D01*
X007782Y023974D01*
X007750Y023910D01*
X007708Y023853D01*
X007657Y023802D01*
X007599Y023760D01*
X007535Y023727D01*
X007467Y023705D01*
X007401Y023695D01*
X007401Y024109D01*
X007401Y024080D02*
X007321Y024080D01*
X007321Y024158D02*
X006479Y024158D01*
X006479Y024708D02*
X015295Y024708D01*
X015262Y024787D02*
X014637Y024787D01*
X014611Y024761D02*
X014714Y024864D01*
X014714Y025009D01*
X014611Y025111D01*
X014466Y025111D01*
X014364Y025009D01*
X014364Y024864D01*
X014466Y024761D01*
X014611Y024761D01*
X014714Y024865D02*
X015234Y024865D01*
X015234Y024944D02*
X014714Y024944D01*
X014700Y025022D02*
X015236Y025022D01*
X015269Y025101D02*
X014622Y025101D01*
X014456Y025101D02*
X012495Y025101D01*
X012685Y025179D02*
X015309Y025179D01*
X015388Y025258D02*
X012791Y025258D01*
X012869Y025337D02*
X015547Y025337D01*
X015731Y025337D02*
X016547Y025337D01*
X016558Y025341D02*
X016409Y025280D01*
X016295Y025166D01*
X016234Y025017D01*
X016234Y024856D01*
X016295Y024707D01*
X016409Y024593D01*
X016558Y024531D01*
X016719Y024531D01*
X016868Y024593D01*
X016982Y024707D01*
X017044Y024856D01*
X017044Y025017D01*
X016982Y025166D01*
X016868Y025280D01*
X016719Y025341D01*
X016558Y025341D01*
X016599Y025482D02*
X016599Y025896D01*
X016679Y025896D01*
X016679Y025976D01*
X017093Y025976D01*
X017082Y026043D01*
X017060Y026111D01*
X017028Y026175D01*
X016986Y026233D01*
X016935Y026283D01*
X016877Y026326D01*
X016813Y026358D01*
X016745Y026380D01*
X016679Y026391D01*
X016679Y025977D01*
X016599Y025977D01*
X016599Y026391D01*
X016532Y026380D01*
X016464Y026358D01*
X016400Y026326D01*
X016342Y026283D01*
X016292Y026233D01*
X016250Y026175D01*
X016217Y026111D01*
X016195Y026043D01*
X016184Y025976D01*
X016599Y025976D01*
X016599Y025896D01*
X016184Y025896D01*
X016195Y025830D01*
X016217Y025762D01*
X016250Y025698D01*
X016292Y025640D01*
X016342Y025589D01*
X016400Y025547D01*
X016464Y025515D01*
X016532Y025493D01*
X016599Y025482D01*
X016599Y025494D02*
X016679Y025494D01*
X016679Y025482D02*
X016745Y025493D01*
X016813Y025515D01*
X016877Y025547D01*
X016935Y025589D01*
X016986Y025640D01*
X017028Y025698D01*
X017060Y025762D01*
X017082Y025830D01*
X017093Y025896D01*
X016679Y025896D01*
X016679Y025482D01*
X016749Y025494D02*
X028364Y025494D01*
X028364Y025509D02*
X028364Y025364D01*
X028434Y025294D01*
X028319Y025341D01*
X028158Y025341D01*
X028009Y025280D01*
X027895Y025166D01*
X027834Y025017D01*
X027834Y024856D01*
X027895Y024707D01*
X028009Y024593D01*
X028158Y024531D01*
X028319Y024531D01*
X028468Y024593D01*
X028582Y024707D01*
X028644Y024856D01*
X028644Y025017D01*
X028582Y025166D01*
X028486Y025261D01*
X028611Y025261D01*
X028714Y025364D01*
X028714Y025509D01*
X028611Y025611D01*
X028486Y025611D01*
X028582Y025707D01*
X028644Y025856D01*
X028644Y026017D01*
X028582Y026166D01*
X028468Y026280D01*
X028319Y026341D01*
X028158Y026341D01*
X028009Y026280D01*
X027895Y026166D01*
X027834Y026017D01*
X027834Y025856D01*
X027895Y025707D01*
X028009Y025593D01*
X028158Y025531D01*
X028319Y025531D01*
X028434Y025579D01*
X028364Y025509D01*
X028418Y025572D02*
X028427Y025572D01*
X028526Y025651D02*
X028952Y025651D01*
X028895Y025707D02*
X029009Y025593D01*
X029158Y025531D01*
X029319Y025531D01*
X029468Y025593D01*
X029582Y025707D01*
X029644Y025856D01*
X029644Y026017D01*
X029582Y026166D01*
X029468Y026280D01*
X029319Y026341D01*
X029158Y026341D01*
X029009Y026280D01*
X028895Y026166D01*
X028834Y026017D01*
X028834Y025856D01*
X028895Y025707D01*
X028886Y025729D02*
X028591Y025729D01*
X028624Y025808D02*
X028854Y025808D01*
X028834Y025886D02*
X028644Y025886D01*
X028644Y025965D02*
X028834Y025965D01*
X028845Y026043D02*
X028633Y026043D01*
X028600Y026122D02*
X028877Y026122D01*
X028930Y026201D02*
X028547Y026201D01*
X028469Y026279D02*
X029009Y026279D01*
X029469Y026279D02*
X030009Y026279D01*
X030009Y026280D02*
X029895Y026166D01*
X029834Y026017D01*
X029834Y025856D01*
X029895Y025707D01*
X030009Y025593D01*
X030158Y025531D01*
X030319Y025531D01*
X030468Y025593D01*
X030582Y025707D01*
X030644Y025856D01*
X030644Y026017D01*
X030582Y026166D01*
X030468Y026280D01*
X030319Y026341D01*
X030158Y026341D01*
X030009Y026280D01*
X029930Y026201D02*
X029547Y026201D01*
X029600Y026122D02*
X029877Y026122D01*
X029845Y026043D02*
X029633Y026043D01*
X029644Y025965D02*
X029834Y025965D01*
X029834Y025886D02*
X029644Y025886D01*
X029624Y025808D02*
X029854Y025808D01*
X029886Y025729D02*
X029591Y025729D01*
X029526Y025651D02*
X029952Y025651D01*
X030060Y025572D02*
X029418Y025572D01*
X029319Y025341D02*
X029158Y025341D01*
X029009Y025280D01*
X028895Y025166D01*
X028834Y025017D01*
X028834Y024856D01*
X028895Y024707D01*
X029009Y024593D01*
X029158Y024531D01*
X029319Y024531D01*
X029468Y024593D01*
X029582Y024707D01*
X029644Y024856D01*
X029644Y025017D01*
X029582Y025166D01*
X029468Y025280D01*
X029319Y025341D01*
X029331Y025337D02*
X030147Y025337D01*
X030158Y025341D02*
X030009Y025280D01*
X029895Y025166D01*
X029834Y025017D01*
X029834Y024856D01*
X029895Y024707D01*
X030009Y024593D01*
X030158Y024531D01*
X030319Y024531D01*
X030468Y024593D01*
X030582Y024707D01*
X030644Y024856D01*
X030644Y025017D01*
X030582Y025166D01*
X030468Y025280D01*
X030319Y025341D01*
X030158Y025341D01*
X030331Y025337D02*
X031147Y025337D01*
X031158Y025341D02*
X031009Y025280D01*
X030895Y025166D01*
X030834Y025017D01*
X030834Y024856D01*
X030895Y024707D01*
X031009Y024593D01*
X031158Y024531D01*
X031319Y024531D01*
X031468Y024593D01*
X031582Y024707D01*
X031644Y024856D01*
X031644Y025017D01*
X031582Y025166D01*
X031468Y025280D01*
X031319Y025341D01*
X031158Y025341D01*
X031331Y025337D02*
X041108Y025337D01*
X041030Y025415D02*
X028714Y025415D01*
X028714Y025494D02*
X040980Y025494D01*
X040948Y025572D02*
X040418Y025572D01*
X040468Y025593D02*
X040582Y025707D01*
X040644Y025856D01*
X040644Y026017D01*
X040582Y026166D01*
X040468Y026280D01*
X040319Y026341D01*
X040158Y026341D01*
X040009Y026280D01*
X039895Y026166D01*
X039834Y026017D01*
X039834Y025856D01*
X039895Y025707D01*
X040009Y025593D01*
X040158Y025531D01*
X040319Y025531D01*
X040468Y025593D01*
X040526Y025651D02*
X040915Y025651D01*
X040883Y025729D02*
X040591Y025729D01*
X040624Y025808D02*
X040869Y025808D01*
X040869Y025886D02*
X040644Y025886D01*
X040644Y025965D02*
X040869Y025965D01*
X040869Y026043D02*
X040633Y026043D01*
X040600Y026122D02*
X040874Y026122D01*
X040906Y026201D02*
X040547Y026201D01*
X040469Y026279D02*
X040939Y026279D01*
X040972Y026358D02*
X016814Y026358D01*
X016679Y026358D02*
X016599Y026358D01*
X016599Y026279D02*
X016679Y026279D01*
X016679Y026201D02*
X016599Y026201D01*
X016599Y026122D02*
X016679Y026122D01*
X016679Y026043D02*
X016599Y026043D01*
X016599Y025965D02*
X016044Y025965D01*
X016044Y026017D02*
X015982Y026166D01*
X015868Y026280D01*
X015719Y026341D01*
X015558Y026341D01*
X015409Y026280D01*
X015295Y026166D01*
X015234Y026017D01*
X015234Y025856D01*
X015295Y025707D01*
X015409Y025593D01*
X015558Y025531D01*
X015719Y025531D01*
X015868Y025593D01*
X015982Y025707D01*
X016044Y025856D01*
X016044Y026017D01*
X016033Y026043D02*
X016195Y026043D01*
X016223Y026122D02*
X016000Y026122D01*
X015947Y026201D02*
X016268Y026201D01*
X016338Y026279D02*
X015869Y026279D01*
X016044Y025886D02*
X016186Y025886D01*
X016202Y025808D02*
X016024Y025808D01*
X015991Y025729D02*
X016234Y025729D01*
X016284Y025651D02*
X015926Y025651D01*
X015818Y025572D02*
X016366Y025572D01*
X016529Y025494D02*
X014714Y025494D01*
X014714Y025464D02*
X014611Y025361D01*
X014466Y025361D01*
X014364Y025464D01*
X014364Y025609D01*
X014466Y025711D01*
X014611Y025711D01*
X014714Y025609D01*
X014714Y025464D01*
X014665Y025415D02*
X028364Y025415D01*
X028391Y025337D02*
X028331Y025337D01*
X028490Y025258D02*
X028988Y025258D01*
X028909Y025179D02*
X028568Y025179D01*
X028609Y025101D02*
X028869Y025101D01*
X028836Y025022D02*
X028641Y025022D01*
X028644Y024944D02*
X028834Y024944D01*
X028834Y024865D02*
X028644Y024865D01*
X028615Y024787D02*
X028862Y024787D01*
X028895Y024708D02*
X028583Y024708D01*
X028505Y024630D02*
X028973Y024630D01*
X029110Y024551D02*
X028367Y024551D01*
X028110Y024551D02*
X027367Y024551D01*
X027319Y024531D02*
X027468Y024593D01*
X027582Y024707D01*
X027644Y024856D01*
X027644Y025017D01*
X027582Y025166D01*
X027468Y025280D01*
X027319Y025341D01*
X027158Y025341D01*
X027009Y025280D01*
X026895Y025166D01*
X026834Y025017D01*
X026834Y024856D01*
X026895Y024707D01*
X027009Y024593D01*
X027158Y024531D01*
X027319Y024531D01*
X027110Y024551D02*
X026367Y024551D01*
X026319Y024531D02*
X026468Y024593D01*
X026582Y024707D01*
X026644Y024856D01*
X026644Y025017D01*
X026582Y025166D01*
X026468Y025280D01*
X026319Y025341D01*
X026158Y025341D01*
X026009Y025280D01*
X025895Y025166D01*
X025834Y025017D01*
X025834Y024856D01*
X025895Y024707D01*
X026009Y024593D01*
X026158Y024531D01*
X026319Y024531D01*
X026110Y024551D02*
X025367Y024551D01*
X025319Y024531D02*
X025468Y024593D01*
X025582Y024707D01*
X025644Y024856D01*
X025644Y025017D01*
X025582Y025166D01*
X025468Y025280D01*
X025319Y025341D01*
X025158Y025341D01*
X025009Y025280D01*
X024895Y025166D01*
X024834Y025017D01*
X024834Y024856D01*
X024895Y024707D01*
X025009Y024593D01*
X025158Y024531D01*
X025319Y024531D01*
X025110Y024551D02*
X024367Y024551D01*
X024319Y024531D02*
X024468Y024593D01*
X024582Y024707D01*
X024644Y024856D01*
X024644Y025017D01*
X024582Y025166D01*
X024468Y025280D01*
X024319Y025341D01*
X024158Y025341D01*
X024009Y025280D01*
X023895Y025166D01*
X023834Y025017D01*
X023834Y024856D01*
X023895Y024707D01*
X024009Y024593D01*
X024158Y024531D01*
X024319Y024531D01*
X024110Y024551D02*
X022767Y024551D01*
X022719Y024531D02*
X022868Y024593D01*
X022982Y024707D01*
X023044Y024856D01*
X023044Y025017D01*
X022982Y025166D01*
X022868Y025280D01*
X022719Y025341D01*
X022558Y025341D01*
X022409Y025280D01*
X022295Y025166D01*
X022234Y025017D01*
X022234Y024856D01*
X022295Y024707D01*
X022409Y024593D01*
X022558Y024531D01*
X022719Y024531D01*
X022510Y024551D02*
X021767Y024551D01*
X021719Y024531D02*
X021868Y024593D01*
X021982Y024707D01*
X022044Y024856D01*
X022044Y025017D01*
X021982Y025166D01*
X021868Y025280D01*
X021719Y025341D01*
X021558Y025341D01*
X021409Y025280D01*
X021295Y025166D01*
X021234Y025017D01*
X021234Y024856D01*
X021295Y024707D01*
X021409Y024593D01*
X021558Y024531D01*
X021719Y024531D01*
X021510Y024551D02*
X020767Y024551D01*
X020719Y024531D02*
X020868Y024593D01*
X020982Y024707D01*
X021044Y024856D01*
X021044Y025017D01*
X020982Y025166D01*
X020868Y025280D01*
X020719Y025341D01*
X020558Y025341D01*
X020409Y025280D01*
X020295Y025166D01*
X020234Y025017D01*
X020234Y024856D01*
X020295Y024707D01*
X020409Y024593D01*
X020558Y024531D01*
X020719Y024531D01*
X020510Y024551D02*
X019767Y024551D01*
X019719Y024531D02*
X019868Y024593D01*
X019982Y024707D01*
X020044Y024856D01*
X020044Y025017D01*
X019982Y025166D01*
X019868Y025280D01*
X019719Y025341D01*
X019558Y025341D01*
X019409Y025280D01*
X019295Y025166D01*
X019234Y025017D01*
X019234Y024856D01*
X019295Y024707D01*
X019409Y024593D01*
X019558Y024531D01*
X019719Y024531D01*
X019510Y024551D02*
X018767Y024551D01*
X018719Y024531D02*
X018868Y024593D01*
X018982Y024707D01*
X019044Y024856D01*
X019044Y025017D01*
X018982Y025166D01*
X018868Y025280D01*
X018719Y025341D01*
X018558Y025341D01*
X018409Y025280D01*
X018295Y025166D01*
X018234Y025017D01*
X018234Y024856D01*
X018295Y024707D01*
X018409Y024593D01*
X018558Y024531D01*
X018719Y024531D01*
X018510Y024551D02*
X017767Y024551D01*
X017719Y024531D02*
X017868Y024593D01*
X017982Y024707D01*
X018044Y024856D01*
X018044Y025017D01*
X017982Y025166D01*
X017868Y025280D01*
X017719Y025341D01*
X017558Y025341D01*
X017409Y025280D01*
X017295Y025166D01*
X017234Y025017D01*
X017234Y024856D01*
X017295Y024707D01*
X017409Y024593D01*
X017558Y024531D01*
X017719Y024531D01*
X017510Y024551D02*
X016767Y024551D01*
X016905Y024630D02*
X017373Y024630D01*
X017295Y024708D02*
X016983Y024708D01*
X017015Y024787D02*
X017262Y024787D01*
X017234Y024865D02*
X017044Y024865D01*
X017044Y024944D02*
X017234Y024944D01*
X017236Y025022D02*
X017041Y025022D01*
X017009Y025101D02*
X017269Y025101D01*
X017309Y025179D02*
X016968Y025179D01*
X016890Y025258D02*
X017388Y025258D01*
X017547Y025337D02*
X016731Y025337D01*
X016679Y025572D02*
X016599Y025572D01*
X016599Y025651D02*
X016679Y025651D01*
X016679Y025729D02*
X016599Y025729D01*
X016599Y025808D02*
X016679Y025808D01*
X016679Y025886D02*
X016599Y025886D01*
X016679Y025965D02*
X017234Y025965D01*
X017234Y026017D02*
X017234Y025856D01*
X017295Y025707D01*
X017409Y025593D01*
X017558Y025531D01*
X017719Y025531D01*
X017868Y025593D01*
X017982Y025707D01*
X018044Y025856D01*
X018044Y026017D01*
X017982Y026166D01*
X017868Y026280D01*
X017719Y026341D01*
X017558Y026341D01*
X017409Y026280D01*
X017295Y026166D01*
X017234Y026017D01*
X017245Y026043D02*
X017082Y026043D01*
X017055Y026122D02*
X017277Y026122D01*
X017330Y026201D02*
X017009Y026201D01*
X016939Y026279D02*
X017409Y026279D01*
X017234Y025886D02*
X017091Y025886D01*
X017075Y025808D02*
X017254Y025808D01*
X017286Y025729D02*
X017044Y025729D01*
X016994Y025651D02*
X017352Y025651D01*
X017460Y025572D02*
X016912Y025572D01*
X016388Y025258D02*
X015890Y025258D01*
X015968Y025179D02*
X016309Y025179D01*
X016269Y025101D02*
X016009Y025101D01*
X016041Y025022D02*
X016236Y025022D01*
X016234Y024944D02*
X016044Y024944D01*
X016044Y024865D02*
X016234Y024865D01*
X016262Y024787D02*
X016015Y024787D01*
X015983Y024708D02*
X016295Y024708D01*
X016373Y024630D02*
X015905Y024630D01*
X015767Y024551D02*
X016510Y024551D01*
X017905Y024630D02*
X018373Y024630D01*
X018295Y024708D02*
X017983Y024708D01*
X018015Y024787D02*
X018262Y024787D01*
X018234Y024865D02*
X018044Y024865D01*
X018044Y024944D02*
X018234Y024944D01*
X018236Y025022D02*
X018041Y025022D01*
X018009Y025101D02*
X018269Y025101D01*
X018309Y025179D02*
X017968Y025179D01*
X017890Y025258D02*
X018388Y025258D01*
X018547Y025337D02*
X017731Y025337D01*
X017818Y025572D02*
X018460Y025572D01*
X018409Y025593D02*
X018558Y025531D01*
X018719Y025531D01*
X018868Y025593D01*
X018982Y025707D01*
X019044Y025856D01*
X019044Y026017D01*
X018982Y026166D01*
X018868Y026280D01*
X018719Y026341D01*
X018558Y026341D01*
X018409Y026280D01*
X018295Y026166D01*
X018234Y026017D01*
X018234Y025856D01*
X018295Y025707D01*
X018409Y025593D01*
X018352Y025651D02*
X017926Y025651D01*
X017991Y025729D02*
X018286Y025729D01*
X018254Y025808D02*
X018024Y025808D01*
X018044Y025886D02*
X018234Y025886D01*
X018234Y025965D02*
X018044Y025965D01*
X018033Y026043D02*
X018245Y026043D01*
X018277Y026122D02*
X018000Y026122D01*
X017947Y026201D02*
X018330Y026201D01*
X018409Y026279D02*
X017869Y026279D01*
X018869Y026279D02*
X019409Y026279D01*
X019409Y026280D02*
X019295Y026166D01*
X019234Y026017D01*
X019234Y025856D01*
X019295Y025707D01*
X019409Y025593D01*
X019558Y025531D01*
X019719Y025531D01*
X019868Y025593D01*
X019982Y025707D01*
X020044Y025856D01*
X020044Y026017D01*
X019982Y026166D01*
X019868Y026280D01*
X019719Y026341D01*
X019558Y026341D01*
X019409Y026280D01*
X019330Y026201D02*
X018947Y026201D01*
X019000Y026122D02*
X019277Y026122D01*
X019245Y026043D02*
X019033Y026043D01*
X019044Y025965D02*
X019234Y025965D01*
X019234Y025886D02*
X019044Y025886D01*
X019024Y025808D02*
X019254Y025808D01*
X019286Y025729D02*
X018991Y025729D01*
X018926Y025651D02*
X019352Y025651D01*
X019460Y025572D02*
X018818Y025572D01*
X018731Y025337D02*
X019547Y025337D01*
X019388Y025258D02*
X018890Y025258D01*
X018968Y025179D02*
X019309Y025179D01*
X019269Y025101D02*
X019009Y025101D01*
X019041Y025022D02*
X019236Y025022D01*
X019234Y024944D02*
X019044Y024944D01*
X019044Y024865D02*
X019234Y024865D01*
X019262Y024787D02*
X019015Y024787D01*
X018983Y024708D02*
X019295Y024708D01*
X019373Y024630D02*
X018905Y024630D01*
X019905Y024630D02*
X020373Y024630D01*
X020295Y024708D02*
X019983Y024708D01*
X020015Y024787D02*
X020262Y024787D01*
X020234Y024865D02*
X020044Y024865D01*
X020044Y024944D02*
X020234Y024944D01*
X020236Y025022D02*
X020041Y025022D01*
X020009Y025101D02*
X020269Y025101D01*
X020309Y025179D02*
X019968Y025179D01*
X019890Y025258D02*
X020388Y025258D01*
X020547Y025337D02*
X019731Y025337D01*
X019818Y025572D02*
X020460Y025572D01*
X020409Y025593D02*
X020558Y025531D01*
X020719Y025531D01*
X020868Y025593D01*
X020982Y025707D01*
X021044Y025856D01*
X021044Y026017D01*
X020982Y026166D01*
X020868Y026280D01*
X020719Y026341D01*
X020558Y026341D01*
X020409Y026280D01*
X020295Y026166D01*
X020234Y026017D01*
X020234Y025856D01*
X020295Y025707D01*
X020409Y025593D01*
X020352Y025651D02*
X019926Y025651D01*
X019991Y025729D02*
X020286Y025729D01*
X020254Y025808D02*
X020024Y025808D01*
X020044Y025886D02*
X020234Y025886D01*
X020234Y025965D02*
X020044Y025965D01*
X020033Y026043D02*
X020245Y026043D01*
X020277Y026122D02*
X020000Y026122D01*
X019947Y026201D02*
X020330Y026201D01*
X020409Y026279D02*
X019869Y026279D01*
X020869Y026279D02*
X021409Y026279D01*
X021409Y026280D02*
X021295Y026166D01*
X021234Y026017D01*
X021234Y025856D01*
X021295Y025707D01*
X021409Y025593D01*
X021558Y025531D01*
X021719Y025531D01*
X021868Y025593D01*
X021982Y025707D01*
X022044Y025856D01*
X022044Y026017D01*
X021982Y026166D01*
X021868Y026280D01*
X021719Y026341D01*
X021558Y026341D01*
X021409Y026280D01*
X021330Y026201D02*
X020947Y026201D01*
X021000Y026122D02*
X021277Y026122D01*
X021245Y026043D02*
X021033Y026043D01*
X021044Y025965D02*
X021234Y025965D01*
X021234Y025886D02*
X021044Y025886D01*
X021024Y025808D02*
X021254Y025808D01*
X021286Y025729D02*
X020991Y025729D01*
X020926Y025651D02*
X021352Y025651D01*
X021460Y025572D02*
X020818Y025572D01*
X020731Y025337D02*
X021547Y025337D01*
X021388Y025258D02*
X020890Y025258D01*
X020968Y025179D02*
X021309Y025179D01*
X021269Y025101D02*
X021009Y025101D01*
X021041Y025022D02*
X021236Y025022D01*
X021234Y024944D02*
X021044Y024944D01*
X021044Y024865D02*
X021234Y024865D01*
X021262Y024787D02*
X021015Y024787D01*
X020983Y024708D02*
X021295Y024708D01*
X021373Y024630D02*
X020905Y024630D01*
X021905Y024630D02*
X022373Y024630D01*
X022295Y024708D02*
X021983Y024708D01*
X022015Y024787D02*
X022262Y024787D01*
X022234Y024865D02*
X022044Y024865D01*
X022044Y024944D02*
X022234Y024944D01*
X022236Y025022D02*
X022041Y025022D01*
X022009Y025101D02*
X022269Y025101D01*
X022309Y025179D02*
X021968Y025179D01*
X021890Y025258D02*
X022388Y025258D01*
X022547Y025337D02*
X021731Y025337D01*
X021818Y025572D02*
X022460Y025572D01*
X022409Y025593D02*
X022558Y025531D01*
X022719Y025531D01*
X022868Y025593D01*
X022982Y025707D01*
X023044Y025856D01*
X023044Y026017D01*
X022982Y026166D01*
X022868Y026280D01*
X022719Y026341D01*
X022558Y026341D01*
X022409Y026280D01*
X022295Y026166D01*
X022234Y026017D01*
X022234Y025856D01*
X022295Y025707D01*
X022409Y025593D01*
X022352Y025651D02*
X021926Y025651D01*
X021991Y025729D02*
X022286Y025729D01*
X022254Y025808D02*
X022024Y025808D01*
X022044Y025886D02*
X022234Y025886D01*
X022234Y025965D02*
X022044Y025965D01*
X022033Y026043D02*
X022245Y026043D01*
X022277Y026122D02*
X022000Y026122D01*
X021947Y026201D02*
X022330Y026201D01*
X022409Y026279D02*
X021869Y026279D01*
X022869Y026279D02*
X024009Y026279D01*
X024009Y026280D02*
X023895Y026166D01*
X023834Y026017D01*
X023834Y025856D01*
X023895Y025707D01*
X024009Y025593D01*
X024158Y025531D01*
X024319Y025531D01*
X024468Y025593D01*
X024582Y025707D01*
X024644Y025856D01*
X024644Y026017D01*
X024582Y026166D01*
X024468Y026280D01*
X024319Y026341D01*
X024158Y026341D01*
X024009Y026280D01*
X023930Y026201D02*
X022947Y026201D01*
X023000Y026122D02*
X023877Y026122D01*
X023845Y026043D02*
X023033Y026043D01*
X023044Y025965D02*
X023834Y025965D01*
X023834Y025886D02*
X023044Y025886D01*
X023024Y025808D02*
X023854Y025808D01*
X023886Y025729D02*
X022991Y025729D01*
X022926Y025651D02*
X023952Y025651D01*
X024060Y025572D02*
X022818Y025572D01*
X022731Y025337D02*
X024147Y025337D01*
X023988Y025258D02*
X022890Y025258D01*
X022968Y025179D02*
X023909Y025179D01*
X023869Y025101D02*
X023009Y025101D01*
X023041Y025022D02*
X023836Y025022D01*
X023834Y024944D02*
X023044Y024944D01*
X023044Y024865D02*
X023834Y024865D01*
X023862Y024787D02*
X023015Y024787D01*
X022983Y024708D02*
X023895Y024708D01*
X023973Y024630D02*
X022905Y024630D01*
X022207Y024316D02*
X027870Y024316D01*
X027864Y024309D02*
X027864Y024164D01*
X027966Y024061D01*
X028111Y024061D01*
X028214Y024164D01*
X028214Y024309D01*
X028111Y024411D01*
X027966Y024411D01*
X027864Y024309D01*
X027864Y024237D02*
X022214Y024237D01*
X022208Y024158D02*
X027869Y024158D01*
X027948Y024080D02*
X022130Y024080D01*
X021864Y024237D02*
X014687Y024237D01*
X014714Y024316D02*
X021870Y024316D01*
X021949Y024394D02*
X014714Y024394D01*
X014650Y024473D02*
X045999Y024473D01*
X045999Y024551D02*
X044367Y024551D01*
X044319Y024531D02*
X044468Y024593D01*
X044582Y024707D01*
X044644Y024856D01*
X044644Y025017D01*
X044582Y025166D01*
X044468Y025280D01*
X044319Y025341D01*
X044158Y025341D01*
X044009Y025280D01*
X043895Y025166D01*
X043834Y025017D01*
X043834Y024856D01*
X043895Y024707D01*
X044009Y024593D01*
X044158Y024531D01*
X044319Y024531D01*
X044319Y024341D02*
X044158Y024341D01*
X044009Y024280D01*
X043895Y024166D01*
X043834Y024017D01*
X043834Y023856D01*
X043895Y023707D01*
X044009Y023593D01*
X044158Y023531D01*
X044319Y023531D01*
X044468Y023593D01*
X044582Y023707D01*
X044644Y023856D01*
X044644Y024017D01*
X044582Y024166D01*
X044468Y024280D01*
X044319Y024341D01*
X044382Y024316D02*
X045999Y024316D01*
X045999Y024394D02*
X028129Y024394D01*
X028207Y024316D02*
X043096Y024316D01*
X042967Y024237D02*
X028214Y024237D01*
X028208Y024158D02*
X042892Y024158D01*
X042860Y024080D02*
X028130Y024080D01*
X027949Y024394D02*
X022129Y024394D01*
X024505Y024630D02*
X024973Y024630D01*
X024895Y024708D02*
X024583Y024708D01*
X024615Y024787D02*
X024862Y024787D01*
X024834Y024865D02*
X024644Y024865D01*
X024644Y024944D02*
X024834Y024944D01*
X024836Y025022D02*
X024641Y025022D01*
X024609Y025101D02*
X024869Y025101D01*
X024909Y025179D02*
X024568Y025179D01*
X024490Y025258D02*
X024988Y025258D01*
X025147Y025337D02*
X024331Y025337D01*
X024418Y025572D02*
X025060Y025572D01*
X025009Y025593D02*
X025158Y025531D01*
X025319Y025531D01*
X025468Y025593D01*
X025582Y025707D01*
X025644Y025856D01*
X025644Y026017D01*
X025582Y026166D01*
X025468Y026280D01*
X025319Y026341D01*
X025158Y026341D01*
X025009Y026280D01*
X024895Y026166D01*
X024834Y026017D01*
X024834Y025856D01*
X024895Y025707D01*
X025009Y025593D01*
X024952Y025651D02*
X024526Y025651D01*
X024591Y025729D02*
X024886Y025729D01*
X024854Y025808D02*
X024624Y025808D01*
X024644Y025886D02*
X024834Y025886D01*
X024834Y025965D02*
X024644Y025965D01*
X024633Y026043D02*
X024845Y026043D01*
X024877Y026122D02*
X024600Y026122D01*
X024547Y026201D02*
X024930Y026201D01*
X025009Y026279D02*
X024469Y026279D01*
X025469Y026279D02*
X026009Y026279D01*
X026009Y026280D02*
X025895Y026166D01*
X025834Y026017D01*
X025834Y025856D01*
X025895Y025707D01*
X026009Y025593D01*
X026158Y025531D01*
X026319Y025531D01*
X026468Y025593D01*
X026582Y025707D01*
X026644Y025856D01*
X026644Y026017D01*
X026582Y026166D01*
X026468Y026280D01*
X026319Y026341D01*
X026158Y026341D01*
X026009Y026280D01*
X025930Y026201D02*
X025547Y026201D01*
X025600Y026122D02*
X025877Y026122D01*
X025845Y026043D02*
X025633Y026043D01*
X025644Y025965D02*
X025834Y025965D01*
X025834Y025886D02*
X025644Y025886D01*
X025624Y025808D02*
X025854Y025808D01*
X025886Y025729D02*
X025591Y025729D01*
X025526Y025651D02*
X025952Y025651D01*
X026060Y025572D02*
X025418Y025572D01*
X025331Y025337D02*
X026147Y025337D01*
X025988Y025258D02*
X025490Y025258D01*
X025568Y025179D02*
X025909Y025179D01*
X025869Y025101D02*
X025609Y025101D01*
X025641Y025022D02*
X025836Y025022D01*
X025834Y024944D02*
X025644Y024944D01*
X025644Y024865D02*
X025834Y024865D01*
X025862Y024787D02*
X025615Y024787D01*
X025583Y024708D02*
X025895Y024708D01*
X025973Y024630D02*
X025505Y024630D01*
X026505Y024630D02*
X026973Y024630D01*
X026895Y024708D02*
X026583Y024708D01*
X026615Y024787D02*
X026862Y024787D01*
X026834Y024865D02*
X026644Y024865D01*
X026644Y024944D02*
X026834Y024944D01*
X026836Y025022D02*
X026641Y025022D01*
X026609Y025101D02*
X026869Y025101D01*
X026909Y025179D02*
X026568Y025179D01*
X026490Y025258D02*
X026988Y025258D01*
X027147Y025337D02*
X026331Y025337D01*
X026418Y025572D02*
X027060Y025572D01*
X027009Y025593D02*
X027158Y025531D01*
X027319Y025531D01*
X027468Y025593D01*
X027582Y025707D01*
X027644Y025856D01*
X027644Y026017D01*
X027582Y026166D01*
X027468Y026280D01*
X027319Y026341D01*
X027158Y026341D01*
X027009Y026280D01*
X026895Y026166D01*
X026834Y026017D01*
X026834Y025856D01*
X026895Y025707D01*
X027009Y025593D01*
X026952Y025651D02*
X026526Y025651D01*
X026591Y025729D02*
X026886Y025729D01*
X026854Y025808D02*
X026624Y025808D01*
X026644Y025886D02*
X026834Y025886D01*
X026834Y025965D02*
X026644Y025965D01*
X026633Y026043D02*
X026845Y026043D01*
X026877Y026122D02*
X026600Y026122D01*
X026547Y026201D02*
X026930Y026201D01*
X027009Y026279D02*
X026469Y026279D01*
X027469Y026279D02*
X028009Y026279D01*
X027930Y026201D02*
X027547Y026201D01*
X027600Y026122D02*
X027877Y026122D01*
X027845Y026043D02*
X027633Y026043D01*
X027644Y025965D02*
X027834Y025965D01*
X027834Y025886D02*
X027644Y025886D01*
X027624Y025808D02*
X027854Y025808D01*
X027886Y025729D02*
X027591Y025729D01*
X027526Y025651D02*
X027952Y025651D01*
X028060Y025572D02*
X027418Y025572D01*
X027331Y025337D02*
X028147Y025337D01*
X027988Y025258D02*
X027490Y025258D01*
X027568Y025179D02*
X027909Y025179D01*
X027869Y025101D02*
X027609Y025101D01*
X027641Y025022D02*
X027836Y025022D01*
X027834Y024944D02*
X027644Y024944D01*
X027644Y024865D02*
X027834Y024865D01*
X027862Y024787D02*
X027615Y024787D01*
X027583Y024708D02*
X027895Y024708D01*
X027973Y024630D02*
X027505Y024630D01*
X028686Y025337D02*
X029147Y025337D01*
X029060Y025572D02*
X028650Y025572D01*
X029490Y025258D02*
X029988Y025258D01*
X029909Y025179D02*
X029568Y025179D01*
X029609Y025101D02*
X029869Y025101D01*
X029836Y025022D02*
X029641Y025022D01*
X029644Y024944D02*
X029834Y024944D01*
X029834Y024865D02*
X029644Y024865D01*
X029615Y024787D02*
X029862Y024787D01*
X029895Y024708D02*
X029583Y024708D01*
X029505Y024630D02*
X029973Y024630D01*
X030110Y024551D02*
X029367Y024551D01*
X030367Y024551D02*
X031110Y024551D01*
X030973Y024630D02*
X030505Y024630D01*
X030583Y024708D02*
X030895Y024708D01*
X030862Y024787D02*
X030615Y024787D01*
X030644Y024865D02*
X030834Y024865D01*
X030834Y024944D02*
X030644Y024944D01*
X030641Y025022D02*
X030836Y025022D01*
X030869Y025101D02*
X030609Y025101D01*
X030568Y025179D02*
X030909Y025179D01*
X030988Y025258D02*
X030490Y025258D01*
X030418Y025572D02*
X031060Y025572D01*
X031009Y025593D02*
X031158Y025531D01*
X031319Y025531D01*
X031468Y025593D01*
X031582Y025707D01*
X031644Y025856D01*
X031644Y026017D01*
X031582Y026166D01*
X031468Y026280D01*
X031319Y026341D01*
X031158Y026341D01*
X031009Y026280D01*
X030895Y026166D01*
X030834Y026017D01*
X030834Y025856D01*
X030895Y025707D01*
X031009Y025593D01*
X030952Y025651D02*
X030526Y025651D01*
X030591Y025729D02*
X030886Y025729D01*
X030854Y025808D02*
X030624Y025808D01*
X030644Y025886D02*
X030834Y025886D01*
X030834Y025965D02*
X030644Y025965D01*
X030633Y026043D02*
X030845Y026043D01*
X030877Y026122D02*
X030600Y026122D01*
X030547Y026201D02*
X030930Y026201D01*
X031009Y026279D02*
X030469Y026279D01*
X031469Y026279D02*
X033009Y026279D01*
X033009Y026280D02*
X032895Y026166D01*
X032834Y026017D01*
X032834Y025856D01*
X032895Y025707D01*
X033009Y025593D01*
X033158Y025531D01*
X033319Y025531D01*
X033468Y025593D01*
X033582Y025707D01*
X033644Y025856D01*
X033644Y026017D01*
X033582Y026166D01*
X033468Y026280D01*
X033319Y026341D01*
X033158Y026341D01*
X033009Y026280D01*
X032930Y026201D02*
X031547Y026201D01*
X031600Y026122D02*
X032877Y026122D01*
X032845Y026043D02*
X031633Y026043D01*
X031644Y025965D02*
X032834Y025965D01*
X032834Y025886D02*
X031644Y025886D01*
X031624Y025808D02*
X032854Y025808D01*
X032886Y025729D02*
X031591Y025729D01*
X031526Y025651D02*
X032952Y025651D01*
X033060Y025572D02*
X031418Y025572D01*
X031490Y025258D02*
X041187Y025258D01*
X041293Y025179D02*
X031568Y025179D01*
X031609Y025101D02*
X041482Y025101D01*
X041995Y025101D02*
X042869Y025101D01*
X042895Y025166D02*
X042834Y025017D01*
X042834Y024856D01*
X042895Y024707D01*
X043009Y024593D01*
X043158Y024531D01*
X043319Y024531D01*
X043468Y024593D01*
X043582Y024707D01*
X043644Y024856D01*
X043644Y025017D01*
X043582Y025166D01*
X043468Y025280D01*
X043319Y025341D01*
X043158Y025341D01*
X043009Y025280D01*
X042895Y025166D01*
X042909Y025179D02*
X042185Y025179D01*
X042291Y025258D02*
X042988Y025258D01*
X043147Y025337D02*
X042369Y025337D01*
X042448Y025415D02*
X045999Y025415D01*
X045999Y025337D02*
X044331Y025337D01*
X044490Y025258D02*
X045999Y025258D01*
X045999Y025179D02*
X044568Y025179D01*
X044609Y025101D02*
X045999Y025101D01*
X045999Y025022D02*
X044641Y025022D01*
X044644Y024944D02*
X045999Y024944D01*
X045999Y024865D02*
X044644Y024865D01*
X044615Y024787D02*
X045999Y024787D01*
X045999Y024708D02*
X044583Y024708D01*
X044505Y024630D02*
X045999Y024630D01*
X045999Y024237D02*
X044511Y024237D01*
X044585Y024158D02*
X045999Y024158D01*
X045999Y024080D02*
X044618Y024080D01*
X044644Y024001D02*
X045999Y024001D01*
X045999Y023923D02*
X044644Y023923D01*
X044639Y023844D02*
X045999Y023844D01*
X045999Y023766D02*
X044606Y023766D01*
X044562Y023687D02*
X045999Y023687D01*
X045999Y023609D02*
X044484Y023609D01*
X043994Y023609D02*
X043484Y023609D01*
X043562Y023687D02*
X043915Y023687D01*
X043871Y023766D02*
X043606Y023766D01*
X043639Y023844D02*
X043839Y023844D01*
X043834Y023923D02*
X043644Y023923D01*
X043644Y024001D02*
X043834Y024001D01*
X043860Y024080D02*
X043618Y024080D01*
X043585Y024158D02*
X043892Y024158D01*
X043967Y024237D02*
X043511Y024237D01*
X043382Y024316D02*
X044096Y024316D01*
X044110Y024551D02*
X043367Y024551D01*
X043505Y024630D02*
X043973Y024630D01*
X043895Y024708D02*
X043583Y024708D01*
X043615Y024787D02*
X043862Y024787D01*
X043834Y024865D02*
X043644Y024865D01*
X043644Y024944D02*
X043834Y024944D01*
X043836Y025022D02*
X043641Y025022D01*
X043609Y025101D02*
X043869Y025101D01*
X043909Y025179D02*
X043568Y025179D01*
X043490Y025258D02*
X043988Y025258D01*
X044147Y025337D02*
X043331Y025337D01*
X043319Y025531D02*
X043468Y025593D01*
X043582Y025707D01*
X043644Y025856D01*
X043644Y026017D01*
X043582Y026166D01*
X043468Y026280D01*
X043319Y026341D01*
X043158Y026341D01*
X043009Y026280D01*
X042895Y026166D01*
X042834Y026017D01*
X042834Y025856D01*
X042895Y025707D01*
X043009Y025593D01*
X043158Y025531D01*
X043319Y025531D01*
X043418Y025572D02*
X044060Y025572D01*
X044009Y025593D02*
X044158Y025531D01*
X044319Y025531D01*
X044468Y025593D01*
X044582Y025707D01*
X044644Y025856D01*
X044644Y026017D01*
X044582Y026166D01*
X044468Y026280D01*
X044319Y026341D01*
X044158Y026341D01*
X044009Y026280D01*
X043895Y026166D01*
X043834Y026017D01*
X043834Y025856D01*
X043895Y025707D01*
X044009Y025593D01*
X043952Y025651D02*
X043526Y025651D01*
X043591Y025729D02*
X043886Y025729D01*
X043854Y025808D02*
X043624Y025808D01*
X043644Y025886D02*
X043834Y025886D01*
X043834Y025965D02*
X043644Y025965D01*
X043633Y026043D02*
X043845Y026043D01*
X043877Y026122D02*
X043600Y026122D01*
X043547Y026201D02*
X043930Y026201D01*
X044009Y026279D02*
X043469Y026279D01*
X043009Y026279D02*
X042538Y026279D01*
X042506Y026358D02*
X045999Y026358D01*
X045999Y026436D02*
X042469Y026436D01*
X042391Y026515D02*
X045999Y026515D01*
X045999Y026593D02*
X042312Y026593D01*
X042234Y026672D02*
X045999Y026672D01*
X045999Y026279D02*
X044469Y026279D01*
X044547Y026201D02*
X045999Y026201D01*
X045999Y026122D02*
X044600Y026122D01*
X044633Y026043D02*
X045999Y026043D01*
X045999Y025965D02*
X044644Y025965D01*
X044644Y025886D02*
X045999Y025886D01*
X045999Y025808D02*
X044624Y025808D01*
X044591Y025729D02*
X045999Y025729D01*
X045999Y025651D02*
X044526Y025651D01*
X044418Y025572D02*
X045999Y025572D01*
X045999Y025494D02*
X042497Y025494D01*
X042530Y025572D02*
X043060Y025572D01*
X042952Y025651D02*
X042562Y025651D01*
X042595Y025729D02*
X042886Y025729D01*
X042854Y025808D02*
X042609Y025808D01*
X042609Y025886D02*
X042834Y025886D01*
X042834Y025965D02*
X042609Y025965D01*
X042609Y026043D02*
X042845Y026043D01*
X042877Y026122D02*
X042604Y026122D01*
X042571Y026201D02*
X042930Y026201D01*
X042836Y025022D02*
X031641Y025022D01*
X031644Y024944D02*
X042834Y024944D01*
X042834Y024865D02*
X031644Y024865D01*
X031615Y024787D02*
X042862Y024787D01*
X042895Y024708D02*
X031583Y024708D01*
X031505Y024630D02*
X042973Y024630D01*
X043110Y024551D02*
X031367Y024551D01*
X029707Y023216D02*
X039964Y023216D01*
X039964Y023294D02*
X029628Y023294D01*
X029714Y023137D02*
X039990Y023137D01*
X040287Y023137D02*
X042884Y023137D01*
X042946Y023216D02*
X040314Y023216D01*
X040444Y023294D02*
X043045Y023294D01*
X043433Y023294D02*
X044045Y023294D01*
X043946Y023216D02*
X043532Y023216D01*
X043594Y023137D02*
X043884Y023137D01*
X043851Y023059D02*
X043626Y023059D01*
X043644Y022980D02*
X043834Y022980D01*
X043834Y022902D02*
X043644Y022902D01*
X043630Y022823D02*
X043847Y022823D01*
X043880Y022745D02*
X043598Y022745D01*
X043541Y022666D02*
X043936Y022666D01*
X044022Y022588D02*
X043455Y022588D01*
X043474Y022273D02*
X044003Y022273D01*
X044009Y022280D02*
X043895Y022166D01*
X043834Y022017D01*
X043834Y021856D01*
X043895Y021707D01*
X044009Y021593D01*
X044158Y021531D01*
X044319Y021531D01*
X044468Y021593D01*
X044582Y021707D01*
X044644Y021856D01*
X044644Y022017D01*
X044582Y022166D01*
X044468Y022280D01*
X044319Y022341D01*
X044158Y022341D01*
X044009Y022280D01*
X043924Y022195D02*
X043553Y022195D01*
X043603Y022116D02*
X043875Y022116D01*
X043842Y022038D02*
X043635Y022038D01*
X043644Y021959D02*
X043834Y021959D01*
X043834Y021881D02*
X043644Y021881D01*
X043621Y021802D02*
X043856Y021802D01*
X043888Y021724D02*
X043589Y021724D01*
X043520Y021645D02*
X043957Y021645D01*
X044073Y021566D02*
X043404Y021566D01*
X043345Y021331D02*
X044133Y021331D01*
X043982Y021252D02*
X043496Y021252D01*
X043574Y021174D02*
X043903Y021174D01*
X043866Y021095D02*
X043611Y021095D01*
X043644Y021017D02*
X043834Y021017D01*
X043834Y020938D02*
X043644Y020938D01*
X043644Y020860D02*
X043834Y020860D01*
X043865Y020781D02*
X043613Y020781D01*
X043578Y020703D02*
X043900Y020703D01*
X043978Y020624D02*
X043499Y020624D01*
X043082Y020310D02*
X024360Y020310D01*
X024414Y020388D02*
X045999Y020388D01*
X045999Y020310D02*
X044395Y020310D01*
X044517Y020231D02*
X045999Y020231D01*
X045999Y020153D02*
X044587Y020153D01*
X044620Y020074D02*
X045999Y020074D01*
X045999Y019996D02*
X044644Y019996D01*
X044644Y019917D02*
X045999Y019917D01*
X045999Y019839D02*
X044637Y019839D01*
X044604Y019760D02*
X045999Y019760D01*
X045999Y019681D02*
X044557Y019681D01*
X044478Y019603D02*
X045999Y019603D01*
X045999Y019524D02*
X022214Y019524D01*
X022214Y019464D02*
X022111Y019361D01*
X021966Y019361D01*
X021864Y019464D01*
X021864Y019609D01*
X021966Y019711D01*
X022111Y019711D01*
X022214Y019609D01*
X022214Y019464D01*
X022196Y019446D02*
X045999Y019446D01*
X045999Y019367D02*
X022117Y019367D01*
X021960Y019367D02*
X016144Y019367D01*
X016144Y019446D02*
X021882Y019446D01*
X021864Y019524D02*
X020474Y019524D01*
X020514Y019603D02*
X021864Y019603D01*
X021936Y019681D02*
X020514Y019681D01*
X020463Y019760D02*
X042873Y019760D01*
X042921Y019681D02*
X022141Y019681D01*
X022214Y019603D02*
X042999Y019603D01*
X043031Y019289D02*
X022534Y019289D01*
X022344Y019289D02*
X021034Y019289D01*
X021011Y019311D02*
X020866Y019311D01*
X020764Y019209D01*
X020764Y019064D01*
X020866Y018961D01*
X021011Y018961D01*
X021114Y019064D01*
X021114Y019209D01*
X021011Y019311D01*
X021112Y019210D02*
X022265Y019210D01*
X022264Y019132D02*
X021114Y019132D01*
X021103Y019053D02*
X022274Y019053D01*
X022353Y018975D02*
X021024Y018975D01*
X020853Y018975D02*
X006479Y018975D01*
X006479Y018896D02*
X022464Y018896D01*
X022510Y018817D02*
X006479Y018817D01*
X006479Y015754D02*
X007333Y015754D01*
X007270Y015676D02*
X006479Y015676D01*
X006479Y015597D02*
X007233Y015597D01*
X007211Y015519D02*
X006479Y015519D01*
X006479Y014969D02*
X023424Y014969D01*
X023364Y014890D02*
X022932Y014890D01*
X023011Y014812D02*
X023364Y014812D01*
X023394Y014733D02*
X023014Y014733D01*
X023005Y014655D02*
X042948Y014655D01*
X042884Y014733D02*
X023683Y014733D01*
X023714Y014812D02*
X042852Y014812D01*
X042834Y014890D02*
X023714Y014890D01*
X023654Y014969D02*
X042834Y014969D01*
X043460Y015283D02*
X044017Y015283D01*
X043934Y015204D02*
X043543Y015204D01*
X043599Y015126D02*
X043879Y015126D01*
X043846Y015047D02*
X043631Y015047D01*
X043644Y014969D02*
X043834Y014969D01*
X043834Y014890D02*
X043644Y014890D01*
X043625Y014812D02*
X043852Y014812D01*
X043884Y014733D02*
X043593Y014733D01*
X043530Y014655D02*
X043948Y014655D01*
X044050Y014576D02*
X043427Y014576D01*
X043321Y014341D02*
X044156Y014341D01*
X044158Y014341D02*
X044009Y014280D01*
X043895Y014166D01*
X043834Y014017D01*
X043834Y013856D01*
X043895Y013707D01*
X044009Y013593D01*
X044158Y013531D01*
X044319Y013531D01*
X044468Y013593D01*
X044582Y013707D01*
X044644Y013856D01*
X044644Y014017D01*
X044582Y014166D01*
X044468Y014280D01*
X044319Y014341D01*
X044158Y014341D01*
X044321Y014341D02*
X045999Y014341D01*
X045999Y014419D02*
X009614Y014419D01*
X009590Y014341D02*
X043156Y014341D01*
X043158Y014341D02*
X043009Y014280D01*
X042895Y014166D01*
X042834Y014017D01*
X042834Y013856D01*
X042895Y013707D01*
X043009Y013593D01*
X043158Y013531D01*
X043319Y013531D01*
X043468Y013593D01*
X043582Y013707D01*
X043644Y013856D01*
X043644Y014017D01*
X043582Y014166D01*
X043468Y014280D01*
X043319Y014341D01*
X043158Y014341D01*
X042992Y014262D02*
X021261Y014262D01*
X021211Y014311D02*
X021066Y014311D01*
X020964Y014209D01*
X020964Y014064D01*
X021066Y013961D01*
X021211Y013961D01*
X021314Y014064D01*
X021314Y014209D01*
X021211Y014311D01*
X021314Y014183D02*
X042913Y014183D01*
X042870Y014105D02*
X021314Y014105D01*
X021276Y014026D02*
X042838Y014026D01*
X042834Y013948D02*
X027475Y013948D01*
X027514Y013909D02*
X027411Y014011D01*
X027266Y014011D01*
X027164Y013909D01*
X027164Y013764D01*
X027266Y013661D01*
X027411Y013661D01*
X027514Y013764D01*
X027514Y013909D01*
X027514Y013869D02*
X042834Y013869D01*
X042861Y013791D02*
X027514Y013791D01*
X027462Y013712D02*
X042893Y013712D01*
X042969Y013634D02*
X025614Y013634D01*
X025614Y013564D02*
X025614Y013709D01*
X025511Y013811D01*
X025366Y013811D01*
X025264Y013709D01*
X025264Y013564D01*
X025366Y013461D01*
X025511Y013461D01*
X025614Y013564D01*
X025605Y013555D02*
X043101Y013555D01*
X043105Y013319D02*
X021503Y013319D01*
X021514Y013309D02*
X021411Y013411D01*
X021266Y013411D01*
X021164Y013309D01*
X021164Y013164D01*
X021266Y013061D01*
X021411Y013061D01*
X021514Y013164D01*
X021514Y013309D01*
X021514Y013241D02*
X042971Y013241D01*
X042894Y013162D02*
X021512Y013162D01*
X021434Y013084D02*
X042861Y013084D01*
X042834Y013005D02*
X006479Y013005D01*
X006479Y012927D02*
X042834Y012927D01*
X042837Y012848D02*
X006479Y012848D01*
X006479Y011984D02*
X010644Y011984D01*
X010694Y011906D02*
X006479Y011906D01*
X006479Y011827D02*
X014054Y011827D01*
X014044Y011749D02*
X006479Y011749D01*
X006479Y011670D02*
X014044Y011670D01*
X014108Y011591D02*
X006479Y011591D01*
X008200Y012298D02*
X010701Y012298D01*
X010644Y012377D02*
X008224Y012377D01*
X008224Y012455D02*
X010644Y012455D01*
X010661Y012534D02*
X008217Y012534D01*
X008184Y012613D02*
X010739Y012613D01*
X010938Y012613D02*
X011139Y012613D01*
X011061Y012534D02*
X011017Y012534D01*
X011034Y012455D02*
X011044Y012455D01*
X011034Y012377D02*
X011044Y012377D01*
X011338Y012613D02*
X042990Y012613D01*
X042911Y012691D02*
X008137Y012691D01*
X008058Y012770D02*
X042869Y012770D01*
X043488Y012613D02*
X043990Y012613D01*
X043911Y012691D02*
X043566Y012691D01*
X043608Y012770D02*
X043869Y012770D01*
X043837Y012848D02*
X043641Y012848D01*
X043644Y012927D02*
X043834Y012927D01*
X043834Y013005D02*
X043644Y013005D01*
X043616Y013084D02*
X043861Y013084D01*
X043894Y013162D02*
X043584Y013162D01*
X043507Y013241D02*
X043971Y013241D01*
X044105Y013319D02*
X043372Y013319D01*
X043376Y013555D02*
X044101Y013555D01*
X043969Y013634D02*
X043509Y013634D01*
X043584Y013712D02*
X043893Y013712D01*
X043861Y013791D02*
X043617Y013791D01*
X043644Y013869D02*
X043834Y013869D01*
X043834Y013948D02*
X043644Y013948D01*
X043640Y014026D02*
X043838Y014026D01*
X043870Y014105D02*
X043607Y014105D01*
X043564Y014183D02*
X043913Y014183D01*
X043992Y014262D02*
X043486Y014262D01*
X043050Y014576D02*
X022926Y014576D01*
X022745Y014890D02*
X006479Y014890D01*
X006479Y014026D02*
X011564Y014026D01*
X011564Y013964D02*
X011666Y013861D01*
X011811Y013861D01*
X011914Y013964D01*
X011914Y014109D01*
X011811Y014211D01*
X011666Y014211D01*
X011564Y014109D01*
X011564Y013964D01*
X011580Y013948D02*
X006479Y013948D01*
X006479Y013869D02*
X011658Y013869D01*
X011819Y013869D02*
X020664Y013869D01*
X020664Y013909D02*
X020664Y013764D01*
X020766Y013661D01*
X020816Y013661D01*
X020764Y013609D01*
X020764Y013464D01*
X020866Y013361D01*
X021011Y013361D01*
X021114Y013464D01*
X021114Y013609D01*
X021011Y013711D01*
X020961Y013711D01*
X021014Y013764D01*
X021014Y013909D01*
X020911Y014011D01*
X020766Y014011D01*
X020664Y013909D01*
X020703Y013948D02*
X011898Y013948D01*
X011914Y014026D02*
X021001Y014026D01*
X020975Y013948D02*
X026803Y013948D01*
X026764Y013909D02*
X026764Y013764D01*
X026866Y013661D01*
X027011Y013661D01*
X027114Y013764D01*
X027114Y013909D01*
X027011Y014011D01*
X026866Y014011D01*
X026764Y013909D01*
X026764Y013869D02*
X021014Y013869D01*
X021014Y013791D02*
X023946Y013791D01*
X023966Y013811D02*
X023864Y013709D01*
X023864Y013564D01*
X023966Y013461D01*
X024111Y013461D01*
X024214Y013564D01*
X024214Y013709D01*
X024111Y013811D01*
X023966Y013811D01*
X023867Y013712D02*
X020962Y013712D01*
X021089Y013634D02*
X023864Y013634D01*
X023873Y013555D02*
X021114Y013555D01*
X021114Y013477D02*
X023951Y013477D01*
X024126Y013477D02*
X025351Y013477D01*
X025273Y013555D02*
X024205Y013555D01*
X024214Y013634D02*
X025264Y013634D01*
X025267Y013712D02*
X024210Y013712D01*
X024132Y013791D02*
X025346Y013791D01*
X025532Y013791D02*
X026764Y013791D01*
X026815Y013712D02*
X025610Y013712D01*
X025526Y013477D02*
X045999Y013477D01*
X045999Y013555D02*
X044376Y013555D01*
X044509Y013634D02*
X045999Y013634D01*
X045999Y013712D02*
X044584Y013712D01*
X044617Y013791D02*
X045999Y013791D01*
X045999Y013869D02*
X044644Y013869D01*
X044644Y013948D02*
X045999Y013948D01*
X045999Y014026D02*
X044640Y014026D01*
X044607Y014105D02*
X045999Y014105D01*
X045999Y014183D02*
X044564Y014183D01*
X044486Y014262D02*
X045999Y014262D01*
X045999Y013398D02*
X021425Y013398D01*
X021253Y013398D02*
X021048Y013398D01*
X021174Y013319D02*
X009569Y013319D01*
X009614Y013364D02*
X009511Y013261D01*
X009366Y013261D01*
X009264Y013364D01*
X009264Y013509D01*
X009366Y013611D01*
X009511Y013611D01*
X009614Y013509D01*
X009614Y013364D01*
X009614Y013398D02*
X020830Y013398D01*
X020764Y013477D02*
X009614Y013477D01*
X009567Y013555D02*
X020764Y013555D01*
X020789Y013634D02*
X008015Y013634D01*
X008048Y013555D02*
X009310Y013555D01*
X009264Y013477D02*
X008064Y013477D01*
X008064Y013398D02*
X009264Y013398D01*
X009308Y013319D02*
X008049Y013319D01*
X008016Y013241D02*
X021164Y013241D01*
X021165Y013162D02*
X007957Y013162D01*
X007866Y013084D02*
X021244Y013084D01*
X020715Y013712D02*
X007956Y013712D01*
X007862Y013791D02*
X020664Y013791D01*
X020964Y014105D02*
X011914Y014105D01*
X011839Y014183D02*
X020964Y014183D01*
X021017Y014262D02*
X009512Y014262D01*
X009366Y014262D02*
X008185Y014262D01*
X008217Y014341D02*
X009287Y014341D01*
X009264Y014419D02*
X008224Y014419D01*
X008224Y014498D02*
X009264Y014498D01*
X009331Y014576D02*
X008199Y014576D01*
X008139Y014183D02*
X011638Y014183D01*
X011564Y014105D02*
X008060Y014105D01*
X014354Y015204D02*
X023364Y015204D01*
X023438Y015283D02*
X014414Y015283D01*
X014414Y015362D02*
X023564Y015362D01*
X023595Y015440D02*
X014382Y015440D01*
X018282Y016932D02*
X019095Y016932D01*
X019064Y017011D02*
X018314Y017011D01*
X018314Y017090D02*
X019064Y017090D01*
X019123Y017168D02*
X018254Y017168D01*
X019290Y015833D02*
X021988Y015833D01*
X021964Y015754D02*
X019314Y015754D01*
X019314Y015676D02*
X021964Y015676D01*
X022030Y015597D02*
X019247Y015597D01*
X022247Y015597D02*
X024452Y015597D01*
X024625Y015597D02*
X025630Y015597D01*
X025564Y015676D02*
X022314Y015676D01*
X022747Y016697D02*
X027331Y016697D01*
X027366Y016661D02*
X027511Y016661D01*
X027366Y016661D02*
X027264Y016764D01*
X027264Y016909D01*
X027366Y017011D01*
X027287Y016932D02*
X022790Y016932D01*
X022814Y016854D02*
X027264Y016854D01*
X027264Y016775D02*
X022814Y016775D01*
X024861Y015362D02*
X030316Y015362D01*
X030264Y015283D02*
X024914Y015283D01*
X024914Y015204D02*
X030264Y015204D01*
X030302Y015126D02*
X024876Y015126D01*
X025847Y015597D02*
X026030Y015597D01*
X026066Y015561D02*
X026211Y015561D01*
X026314Y015664D01*
X026314Y015809D01*
X026211Y015911D01*
X026066Y015911D01*
X025964Y015809D01*
X025964Y015664D01*
X026066Y015561D01*
X025964Y015676D02*
X025914Y015676D01*
X025914Y015754D02*
X025964Y015754D01*
X025988Y015833D02*
X025890Y015833D01*
X026290Y015833D02*
X027388Y015833D01*
X027364Y015754D02*
X026314Y015754D01*
X026314Y015676D02*
X027364Y015676D01*
X027430Y015597D02*
X026247Y015597D01*
X025924Y016304D02*
X025754Y016304D01*
X025814Y016383D02*
X025864Y016383D01*
X025864Y016461D02*
X025814Y016461D01*
X025783Y016540D02*
X025895Y016540D01*
X025975Y018425D02*
X045999Y018425D01*
X045999Y018503D02*
X026014Y018503D01*
X027025Y020703D02*
X018614Y020703D01*
X018541Y020781D02*
X026964Y020781D01*
X027252Y020703D02*
X042900Y020703D01*
X042865Y020781D02*
X027314Y020781D01*
X027014Y021095D02*
X035364Y021095D01*
X035429Y021174D02*
X026949Y021174D01*
X028416Y022666D02*
X028464Y022666D01*
X028494Y022745D02*
X028500Y022745D01*
X028514Y022823D02*
X029604Y022823D01*
X029564Y022902D02*
X028514Y022902D01*
X028442Y022980D02*
X029447Y022980D01*
X030256Y022666D02*
X033361Y022666D01*
X033516Y022666D02*
X036821Y022666D01*
X036866Y022711D02*
X036764Y022609D01*
X036764Y022464D01*
X036866Y022361D01*
X037011Y022361D01*
X037114Y022464D01*
X037114Y022609D01*
X037011Y022711D01*
X036866Y022711D01*
X036764Y022588D02*
X030314Y022588D01*
X030314Y022509D02*
X036764Y022509D01*
X036797Y022430D02*
X030280Y022430D01*
X028235Y022980D02*
X006479Y022980D01*
X006479Y022902D02*
X028164Y022902D01*
X028164Y022823D02*
X015863Y022823D01*
X015614Y022823D02*
X006479Y022823D01*
X006479Y022745D02*
X015474Y022745D01*
X015396Y022666D02*
X006479Y022666D01*
X007321Y023766D02*
X007401Y023766D01*
X007401Y023844D02*
X007321Y023844D01*
X007321Y023923D02*
X007401Y023923D01*
X007401Y024001D02*
X007321Y024001D01*
X007321Y024237D02*
X007401Y024237D01*
X007401Y024316D02*
X007321Y024316D01*
X007321Y024394D02*
X007401Y024394D01*
X007401Y024473D02*
X007321Y024473D01*
X007321Y024551D02*
X007401Y024551D01*
X007574Y024551D02*
X009707Y024551D01*
X009600Y024473D02*
X007681Y024473D01*
X007745Y024394D02*
X009536Y024394D01*
X009496Y024316D02*
X007785Y024316D01*
X007807Y024237D02*
X009473Y024237D01*
X009470Y024080D02*
X007810Y024080D01*
X007791Y024001D02*
X009489Y024001D01*
X009524Y023923D02*
X007756Y023923D01*
X007699Y023844D02*
X009581Y023844D01*
X009673Y023766D02*
X007607Y023766D01*
X006479Y024787D02*
X014441Y024787D01*
X014364Y024865D02*
X006479Y024865D01*
X006479Y024944D02*
X014364Y024944D01*
X014377Y025022D02*
X010872Y025022D01*
X010914Y025064D02*
X010811Y024961D01*
X010666Y024961D01*
X010564Y025064D01*
X010564Y025209D01*
X010666Y025311D01*
X010811Y025311D01*
X010914Y025209D01*
X010914Y025064D01*
X010914Y025101D02*
X011982Y025101D01*
X011793Y025179D02*
X010914Y025179D01*
X010865Y025258D02*
X011687Y025258D01*
X011608Y025337D02*
X006479Y025337D01*
X006479Y025415D02*
X011530Y025415D01*
X011480Y025494D02*
X006479Y025494D01*
X006479Y025572D02*
X007144Y025572D01*
X007131Y025577D02*
X007280Y025516D01*
X007441Y025516D01*
X007590Y025577D01*
X007704Y025691D01*
X007766Y025840D01*
X007766Y026001D01*
X007704Y026150D01*
X007590Y026264D01*
X007441Y026326D01*
X007280Y026326D01*
X007131Y026264D01*
X007017Y026150D01*
X006956Y026001D01*
X006956Y025840D01*
X007017Y025691D01*
X007131Y025577D01*
X007058Y025651D02*
X006479Y025651D01*
X006479Y025729D02*
X007002Y025729D01*
X006969Y025808D02*
X006479Y025808D01*
X006479Y025886D02*
X006956Y025886D01*
X006956Y025965D02*
X006479Y025965D01*
X006479Y026043D02*
X006973Y026043D01*
X007006Y026122D02*
X006479Y026122D01*
X006479Y026201D02*
X007068Y026201D01*
X007168Y026279D02*
X006479Y026279D01*
X006479Y026358D02*
X011472Y026358D01*
X011439Y026279D02*
X010113Y026279D01*
X010149Y026264D02*
X010000Y026326D01*
X009839Y026326D01*
X009690Y026264D01*
X009576Y026150D01*
X009515Y026001D01*
X009515Y025840D01*
X009576Y025691D01*
X009690Y025577D01*
X009839Y025516D01*
X010000Y025516D01*
X010149Y025577D01*
X010263Y025691D01*
X010325Y025840D01*
X010325Y026001D01*
X010263Y026150D01*
X010149Y026264D01*
X010213Y026201D02*
X011406Y026201D01*
X011374Y026122D02*
X010275Y026122D01*
X010307Y026043D02*
X011369Y026043D01*
X011369Y025965D02*
X010325Y025965D01*
X010325Y025886D02*
X011369Y025886D01*
X011369Y025808D02*
X010311Y025808D01*
X010279Y025729D02*
X011383Y025729D01*
X011415Y025651D02*
X010223Y025651D01*
X010137Y025572D02*
X011448Y025572D01*
X010613Y025258D02*
X006479Y025258D01*
X006479Y025179D02*
X010564Y025179D01*
X010564Y025101D02*
X006479Y025101D01*
X006479Y025022D02*
X010605Y025022D01*
X009960Y024551D02*
X009880Y024551D01*
X009880Y024473D02*
X009960Y024473D01*
X009960Y024394D02*
X009880Y024394D01*
X009880Y024316D02*
X009960Y024316D01*
X009960Y024237D02*
X009880Y024237D01*
X009880Y024001D02*
X009960Y024001D01*
X009960Y023923D02*
X009880Y023923D01*
X009880Y023844D02*
X009960Y023844D01*
X009960Y023766D02*
X009880Y023766D01*
X012948Y025415D02*
X014412Y025415D01*
X014364Y025494D02*
X012997Y025494D01*
X013030Y025572D02*
X014364Y025572D01*
X014406Y025651D02*
X013062Y025651D01*
X013095Y025729D02*
X015286Y025729D01*
X015254Y025808D02*
X013109Y025808D01*
X013109Y025886D02*
X015234Y025886D01*
X015234Y025965D02*
X014615Y025965D01*
X014611Y025961D02*
X014714Y026064D01*
X014714Y026209D01*
X014611Y026311D01*
X014466Y026311D01*
X014364Y026209D01*
X014364Y026064D01*
X014466Y025961D01*
X014611Y025961D01*
X014693Y026043D02*
X015245Y026043D01*
X015277Y026122D02*
X014714Y026122D01*
X014714Y026201D02*
X015330Y026201D01*
X015409Y026279D02*
X014643Y026279D01*
X014434Y026279D02*
X013038Y026279D01*
X013006Y026358D02*
X016463Y026358D01*
X015460Y025572D02*
X014714Y025572D01*
X014672Y025651D02*
X015352Y025651D01*
X014463Y025965D02*
X013109Y025965D01*
X013109Y026043D02*
X014384Y026043D01*
X014364Y026122D02*
X013104Y026122D01*
X013071Y026201D02*
X014364Y026201D01*
X012969Y026436D02*
X041008Y026436D01*
X041087Y026515D02*
X012891Y026515D01*
X012812Y026593D02*
X041165Y026593D01*
X041244Y026672D02*
X012734Y026672D01*
X011744Y026672D02*
X006479Y026672D01*
X006479Y026593D02*
X011665Y026593D01*
X011587Y026515D02*
X006479Y026515D01*
X006479Y026436D02*
X011508Y026436D01*
X009727Y026279D02*
X007554Y026279D01*
X007654Y026201D02*
X009627Y026201D01*
X009565Y026122D02*
X007716Y026122D01*
X007748Y026043D02*
X009532Y026043D01*
X009515Y025965D02*
X007766Y025965D01*
X007766Y025886D02*
X009515Y025886D01*
X009528Y025808D02*
X007752Y025808D01*
X007720Y025729D02*
X009561Y025729D01*
X009617Y025651D02*
X007664Y025651D01*
X007578Y025572D02*
X009703Y025572D01*
X014420Y021802D02*
X015564Y021802D01*
X015453Y021724D02*
X014499Y021724D01*
X014514Y021645D02*
X015387Y021645D01*
X015354Y021566D02*
X014514Y021566D01*
X015914Y021802D02*
X017664Y021802D01*
X017664Y021724D02*
X016024Y021724D01*
X016091Y021645D02*
X017683Y021645D01*
X017761Y021566D02*
X016123Y021566D01*
X017913Y021409D02*
X045999Y021409D01*
X045999Y021331D02*
X044345Y021331D01*
X044496Y021252D02*
X045999Y021252D01*
X045999Y021174D02*
X044574Y021174D01*
X044611Y021095D02*
X045999Y021095D01*
X045999Y021017D02*
X044644Y021017D01*
X044644Y020938D02*
X045999Y020938D01*
X045999Y020860D02*
X044644Y020860D01*
X044613Y020781D02*
X045999Y020781D01*
X045999Y020703D02*
X044578Y020703D01*
X044499Y020624D02*
X045999Y020624D01*
X045999Y021488D02*
X036838Y021488D01*
X036914Y021566D02*
X043073Y021566D01*
X042957Y021645D02*
X036914Y021645D01*
X036899Y021724D02*
X042888Y021724D01*
X043133Y021331D02*
X017992Y021331D01*
X018014Y021252D02*
X021407Y021252D01*
X021364Y021174D02*
X018014Y021174D01*
X019670Y020153D02*
X020208Y020153D01*
X020164Y020074D02*
X019714Y020074D01*
X019827Y019996D02*
X020164Y019996D01*
X020211Y019917D02*
X019905Y019917D01*
X020164Y019603D02*
X016108Y019603D01*
X016141Y019524D02*
X020203Y019524D01*
X020765Y019210D02*
X016083Y019210D01*
X016116Y019289D02*
X020844Y019289D01*
X020764Y019132D02*
X016007Y019132D01*
X015872Y019053D02*
X020774Y019053D01*
X026214Y023766D02*
X042871Y023766D01*
X042839Y023844D02*
X026178Y023844D01*
X033542Y022980D02*
X037135Y022980D01*
X037166Y023011D02*
X037064Y022909D01*
X037064Y022764D01*
X037166Y022661D01*
X037311Y022661D01*
X037414Y022764D01*
X037414Y022909D01*
X037311Y023011D01*
X037166Y023011D01*
X037064Y022902D02*
X033614Y022902D01*
X033614Y022823D02*
X037064Y022823D01*
X037083Y022745D02*
X033594Y022745D01*
X037056Y022666D02*
X037161Y022666D01*
X037114Y022588D02*
X041664Y022588D01*
X041664Y022509D02*
X037114Y022509D01*
X037080Y022430D02*
X041697Y022430D01*
X041721Y022666D02*
X041516Y022666D01*
X041361Y022666D02*
X037316Y022666D01*
X037394Y022745D02*
X041283Y022745D01*
X041264Y022823D02*
X037414Y022823D01*
X037414Y022902D02*
X041264Y022902D01*
X041335Y022980D02*
X037342Y022980D01*
X037319Y025531D02*
X037468Y025593D01*
X037582Y025707D01*
X037644Y025856D01*
X037644Y026017D01*
X037582Y026166D01*
X037468Y026280D01*
X037319Y026341D01*
X037158Y026341D01*
X037009Y026280D01*
X036895Y026166D01*
X036834Y026017D01*
X036834Y025856D01*
X036895Y025707D01*
X037009Y025593D01*
X037158Y025531D01*
X037319Y025531D01*
X037418Y025572D02*
X038060Y025572D01*
X038009Y025593D02*
X038158Y025531D01*
X038319Y025531D01*
X038468Y025593D01*
X038582Y025707D01*
X038644Y025856D01*
X038644Y026017D01*
X038582Y026166D01*
X038468Y026280D01*
X038319Y026341D01*
X038158Y026341D01*
X038009Y026280D01*
X037895Y026166D01*
X037834Y026017D01*
X037834Y025856D01*
X037895Y025707D01*
X038009Y025593D01*
X037952Y025651D02*
X037526Y025651D01*
X037591Y025729D02*
X037886Y025729D01*
X037854Y025808D02*
X037624Y025808D01*
X037644Y025886D02*
X037834Y025886D01*
X037834Y025965D02*
X037644Y025965D01*
X037633Y026043D02*
X037845Y026043D01*
X037877Y026122D02*
X037600Y026122D01*
X037547Y026201D02*
X037930Y026201D01*
X038009Y026279D02*
X037469Y026279D01*
X037009Y026279D02*
X036469Y026279D01*
X036468Y026280D02*
X036319Y026341D01*
X036158Y026341D01*
X036009Y026280D01*
X035895Y026166D01*
X035834Y026017D01*
X035834Y025856D01*
X035895Y025707D01*
X036009Y025593D01*
X036158Y025531D01*
X036319Y025531D01*
X036468Y025593D01*
X036582Y025707D01*
X036644Y025856D01*
X036644Y026017D01*
X036582Y026166D01*
X036468Y026280D01*
X036547Y026201D02*
X036930Y026201D01*
X036877Y026122D02*
X036600Y026122D01*
X036633Y026043D02*
X036845Y026043D01*
X036834Y025965D02*
X036644Y025965D01*
X036644Y025886D02*
X036834Y025886D01*
X036854Y025808D02*
X036624Y025808D01*
X036591Y025729D02*
X036886Y025729D01*
X036952Y025651D02*
X036526Y025651D01*
X036418Y025572D02*
X037060Y025572D01*
X036060Y025572D02*
X035418Y025572D01*
X035468Y025593D02*
X035582Y025707D01*
X035644Y025856D01*
X035644Y026017D01*
X035582Y026166D01*
X035468Y026280D01*
X035319Y026341D01*
X035158Y026341D01*
X035009Y026280D01*
X034895Y026166D01*
X034834Y026017D01*
X034834Y025856D01*
X034895Y025707D01*
X035009Y025593D01*
X035158Y025531D01*
X035319Y025531D01*
X035468Y025593D01*
X035526Y025651D02*
X035952Y025651D01*
X035886Y025729D02*
X035591Y025729D01*
X035624Y025808D02*
X035854Y025808D01*
X035834Y025886D02*
X035644Y025886D01*
X035644Y025965D02*
X035834Y025965D01*
X035845Y026043D02*
X035633Y026043D01*
X035600Y026122D02*
X035877Y026122D01*
X035930Y026201D02*
X035547Y026201D01*
X035469Y026279D02*
X036009Y026279D01*
X035009Y026279D02*
X034469Y026279D01*
X034468Y026280D02*
X034319Y026341D01*
X034158Y026341D01*
X034009Y026280D01*
X033895Y026166D01*
X033834Y026017D01*
X033834Y025856D01*
X033895Y025707D01*
X034009Y025593D01*
X034158Y025531D01*
X034319Y025531D01*
X034468Y025593D01*
X034582Y025707D01*
X034644Y025856D01*
X034644Y026017D01*
X034582Y026166D01*
X034468Y026280D01*
X034547Y026201D02*
X034930Y026201D01*
X034877Y026122D02*
X034600Y026122D01*
X034633Y026043D02*
X034845Y026043D01*
X034834Y025965D02*
X034644Y025965D01*
X034644Y025886D02*
X034834Y025886D01*
X034854Y025808D02*
X034624Y025808D01*
X034591Y025729D02*
X034886Y025729D01*
X034952Y025651D02*
X034526Y025651D01*
X034418Y025572D02*
X035060Y025572D01*
X034060Y025572D02*
X033418Y025572D01*
X033526Y025651D02*
X033952Y025651D01*
X033886Y025729D02*
X033591Y025729D01*
X033624Y025808D02*
X033854Y025808D01*
X033834Y025886D02*
X033644Y025886D01*
X033644Y025965D02*
X033834Y025965D01*
X033845Y026043D02*
X033633Y026043D01*
X033600Y026122D02*
X033877Y026122D01*
X033930Y026201D02*
X033547Y026201D01*
X033469Y026279D02*
X034009Y026279D01*
X038469Y026279D02*
X039009Y026279D01*
X039009Y026280D02*
X038895Y026166D01*
X038834Y026017D01*
X038834Y025856D01*
X038895Y025707D01*
X039009Y025593D01*
X039158Y025531D01*
X039319Y025531D01*
X039468Y025593D01*
X039582Y025707D01*
X039644Y025856D01*
X039644Y026017D01*
X039582Y026166D01*
X039468Y026280D01*
X039319Y026341D01*
X039158Y026341D01*
X039009Y026280D01*
X038930Y026201D02*
X038547Y026201D01*
X038600Y026122D02*
X038877Y026122D01*
X038845Y026043D02*
X038633Y026043D01*
X038644Y025965D02*
X038834Y025965D01*
X038834Y025886D02*
X038644Y025886D01*
X038624Y025808D02*
X038854Y025808D01*
X038886Y025729D02*
X038591Y025729D01*
X038526Y025651D02*
X038952Y025651D01*
X039060Y025572D02*
X038418Y025572D01*
X039418Y025572D02*
X040060Y025572D01*
X039952Y025651D02*
X039526Y025651D01*
X039591Y025729D02*
X039886Y025729D01*
X039854Y025808D02*
X039624Y025808D01*
X039644Y025886D02*
X039834Y025886D01*
X039834Y025965D02*
X039644Y025965D01*
X039633Y026043D02*
X039845Y026043D01*
X039877Y026122D02*
X039600Y026122D01*
X039547Y026201D02*
X039930Y026201D01*
X040009Y026279D02*
X039469Y026279D01*
X044474Y022273D02*
X045999Y022273D01*
X045999Y022195D02*
X044553Y022195D01*
X044603Y022116D02*
X045999Y022116D01*
X045999Y022038D02*
X044635Y022038D01*
X044644Y021959D02*
X045999Y021959D01*
X045999Y021881D02*
X044644Y021881D01*
X044621Y021802D02*
X045999Y021802D01*
X045999Y021724D02*
X044589Y021724D01*
X044520Y021645D02*
X045999Y021645D01*
X045999Y021566D02*
X044404Y021566D01*
X044446Y019289D02*
X045999Y019289D01*
X045999Y019210D02*
X044538Y019210D01*
X044596Y019132D02*
X045999Y019132D01*
X045999Y019053D02*
X044629Y019053D01*
X044644Y018975D02*
X045999Y018975D01*
X045999Y018896D02*
X044644Y018896D01*
X044628Y018817D02*
X045999Y018817D01*
X045999Y018739D02*
X044595Y018739D01*
X044536Y018660D02*
X045999Y018660D01*
X045999Y018582D02*
X044441Y018582D01*
X043997Y018268D02*
X043480Y018268D01*
X043468Y018280D02*
X043319Y018341D01*
X043158Y018341D01*
X043009Y018280D01*
X042895Y018166D01*
X042834Y018017D01*
X042834Y017856D01*
X042895Y017707D01*
X043009Y017593D01*
X043158Y017531D01*
X043319Y017531D01*
X043468Y017593D01*
X043582Y017707D01*
X043644Y017856D01*
X043644Y018017D01*
X043582Y018166D01*
X043468Y018280D01*
X043559Y018189D02*
X043919Y018189D01*
X043873Y018111D02*
X043605Y018111D01*
X043637Y018032D02*
X043840Y018032D01*
X043834Y017954D02*
X043644Y017954D01*
X043644Y017875D02*
X043834Y017875D01*
X043858Y017796D02*
X043619Y017796D01*
X043587Y017718D02*
X043891Y017718D01*
X043963Y017639D02*
X043514Y017639D01*
X043390Y017561D02*
X044087Y017561D01*
X044119Y017325D02*
X043358Y017325D01*
X043501Y017247D02*
X043976Y017247D01*
X043898Y017168D02*
X043580Y017168D01*
X043614Y017090D02*
X043864Y017090D01*
X043834Y017011D02*
X043644Y017011D01*
X043644Y016932D02*
X043834Y016932D01*
X043834Y016854D02*
X043643Y016854D01*
X043610Y016775D02*
X043867Y016775D01*
X043906Y016697D02*
X043572Y016697D01*
X043493Y016618D02*
X043984Y016618D01*
X044068Y016304D02*
X043409Y016304D01*
X043522Y016226D02*
X043955Y016226D01*
X044009Y016280D02*
X043895Y016166D01*
X043834Y016017D01*
X043834Y015856D01*
X043895Y015707D01*
X044009Y015593D01*
X044158Y015531D01*
X044319Y015531D01*
X044468Y015593D01*
X044582Y015707D01*
X044644Y015856D01*
X044644Y016017D01*
X044582Y016166D01*
X044468Y016280D01*
X044319Y016341D01*
X044158Y016341D01*
X044009Y016280D01*
X043888Y016147D02*
X043590Y016147D01*
X043622Y016068D02*
X043855Y016068D01*
X043834Y015990D02*
X043644Y015990D01*
X043644Y015911D02*
X043834Y015911D01*
X043843Y015833D02*
X043634Y015833D01*
X043602Y015754D02*
X043876Y015754D01*
X043927Y015676D02*
X043551Y015676D01*
X043472Y015597D02*
X044005Y015597D01*
X044472Y015597D02*
X045999Y015597D01*
X045999Y015676D02*
X044551Y015676D01*
X044602Y015754D02*
X045999Y015754D01*
X045999Y015833D02*
X044634Y015833D01*
X044644Y015911D02*
X045999Y015911D01*
X045999Y015990D02*
X044644Y015990D01*
X044622Y016068D02*
X045999Y016068D01*
X045999Y016147D02*
X044590Y016147D01*
X044522Y016226D02*
X045999Y016226D01*
X045999Y016304D02*
X044409Y016304D01*
X042984Y016618D02*
X036493Y016618D01*
X036572Y016697D02*
X042906Y016697D01*
X042867Y016775D02*
X036610Y016775D01*
X036643Y016854D02*
X042834Y016854D01*
X042834Y016932D02*
X036644Y016932D01*
X036644Y017011D02*
X042834Y017011D01*
X043087Y017561D02*
X036390Y017561D01*
X036514Y017639D02*
X042963Y017639D01*
X042891Y017718D02*
X036587Y017718D01*
X036619Y017796D02*
X042858Y017796D01*
X042834Y017875D02*
X036644Y017875D01*
X036644Y017954D02*
X042834Y017954D01*
X042840Y018032D02*
X036637Y018032D01*
X036605Y018111D02*
X042873Y018111D01*
X042919Y018189D02*
X036559Y018189D01*
X036480Y018268D02*
X042997Y018268D01*
X039180Y017325D02*
X036358Y017325D01*
X036501Y017247D02*
X039164Y017247D01*
X039164Y017168D02*
X036580Y017168D01*
X036614Y017090D02*
X039238Y017090D01*
X044372Y013319D02*
X045999Y013319D01*
X045999Y013241D02*
X044507Y013241D01*
X044584Y013162D02*
X045999Y013162D01*
X045999Y013084D02*
X044616Y013084D01*
X044644Y013005D02*
X045999Y013005D01*
X045999Y012927D02*
X044644Y012927D01*
X044641Y012848D02*
X045999Y012848D01*
X045999Y012770D02*
X044608Y012770D01*
X044566Y012691D02*
X045999Y012691D01*
X045999Y012613D02*
X044488Y012613D01*
X044054Y012298D02*
X043423Y012298D01*
X043528Y012220D02*
X043949Y012220D01*
X043885Y012141D02*
X043592Y012141D01*
X043625Y012063D02*
X043853Y012063D01*
X043834Y011984D02*
X043644Y011984D01*
X043644Y011906D02*
X043834Y011906D01*
X043846Y011827D02*
X043632Y011827D01*
X043599Y011749D02*
X043878Y011749D01*
X043932Y011670D02*
X043545Y011670D01*
X043464Y011591D02*
X044013Y011591D01*
X044158Y011341D02*
X044009Y011280D01*
X043895Y011166D01*
X043834Y011017D01*
X043834Y010856D01*
X043895Y010707D01*
X044009Y010593D01*
X044158Y010531D01*
X044319Y010531D01*
X044468Y010593D01*
X044582Y010707D01*
X044644Y010856D01*
X044644Y011017D01*
X044582Y011166D01*
X044468Y011280D01*
X044319Y011341D01*
X044158Y011341D01*
X044007Y011277D02*
X043471Y011277D01*
X043549Y011199D02*
X043928Y011199D01*
X043877Y011120D02*
X043601Y011120D01*
X043633Y011042D02*
X043844Y011042D01*
X043834Y010963D02*
X043644Y010963D01*
X043644Y010885D02*
X043834Y010885D01*
X043854Y010806D02*
X043623Y010806D01*
X043591Y010728D02*
X043887Y010728D01*
X043953Y010649D02*
X043524Y010649D01*
X043414Y010570D02*
X044064Y010570D01*
X044414Y010570D02*
X045999Y010570D01*
X045999Y010649D02*
X044524Y010649D01*
X044591Y010728D02*
X045999Y010728D01*
X045999Y010806D02*
X044623Y010806D01*
X044644Y010885D02*
X045999Y010885D01*
X045999Y010963D02*
X044644Y010963D01*
X044633Y011042D02*
X045999Y011042D01*
X045999Y011120D02*
X044601Y011120D01*
X044549Y011199D02*
X045999Y011199D01*
X045999Y011277D02*
X044471Y011277D01*
X044279Y009391D02*
X044279Y008977D01*
X044199Y008977D01*
X044199Y009391D01*
X044132Y009380D01*
X044064Y009358D01*
X044000Y009326D01*
X043942Y009283D01*
X043892Y009233D01*
X043850Y009175D01*
X043817Y009111D01*
X043795Y009043D01*
X043784Y008976D01*
X044199Y008976D01*
X044199Y008896D01*
X044279Y008896D01*
X044279Y008976D01*
X044693Y008976D01*
X044682Y009043D01*
X044660Y009111D01*
X044628Y009175D01*
X044586Y009233D01*
X044535Y009283D01*
X044477Y009326D01*
X044413Y009358D01*
X044345Y009380D01*
X044279Y009391D01*
X044279Y009314D02*
X044199Y009314D01*
X044199Y009235D02*
X044279Y009235D01*
X044279Y009157D02*
X044199Y009157D01*
X044199Y009078D02*
X044279Y009078D01*
X044279Y009000D02*
X044199Y009000D01*
X044199Y008921D02*
X043279Y008921D01*
X043279Y008896D02*
X043693Y008896D01*
X043682Y008830D01*
X043660Y008762D01*
X043628Y008698D01*
X043586Y008640D01*
X043535Y008589D01*
X043477Y008547D01*
X043413Y008515D01*
X043345Y008493D01*
X043279Y008482D01*
X043279Y008896D01*
X043279Y008842D02*
X043199Y008842D01*
X043199Y008896D02*
X043199Y008482D01*
X043132Y008493D01*
X043064Y008515D01*
X043000Y008547D01*
X042942Y008589D01*
X042892Y008640D01*
X042850Y008698D01*
X042817Y008762D01*
X042795Y008830D01*
X042784Y008896D01*
X043199Y008896D01*
X043199Y008764D02*
X043279Y008764D01*
X043279Y008685D02*
X043199Y008685D01*
X043199Y008607D02*
X043279Y008607D01*
X043279Y008528D02*
X043199Y008528D01*
X043037Y008528D02*
X038378Y008528D01*
X038414Y008607D02*
X042925Y008607D01*
X042859Y008685D02*
X038414Y008685D01*
X038359Y008764D02*
X039164Y008764D01*
X039314Y008764D02*
X042816Y008764D01*
X042793Y008842D02*
X039392Y008842D01*
X039344Y009078D02*
X039849Y009078D01*
X040028Y009078D02*
X040649Y009078D01*
X040666Y009061D02*
X040811Y009061D01*
X040914Y009164D01*
X040914Y009309D01*
X040811Y009411D01*
X040666Y009411D01*
X040564Y009309D01*
X040564Y009164D01*
X040666Y009061D01*
X040571Y009157D02*
X040106Y009157D01*
X040114Y009235D02*
X040564Y009235D01*
X040569Y009314D02*
X040109Y009314D01*
X040030Y009392D02*
X040647Y009392D01*
X040830Y009392D02*
X041347Y009392D01*
X041366Y009411D02*
X041264Y009309D01*
X041264Y009164D01*
X041366Y009061D01*
X041511Y009061D01*
X041614Y009164D01*
X041614Y009309D01*
X041511Y009411D01*
X041366Y009411D01*
X041269Y009314D02*
X040909Y009314D01*
X040914Y009235D02*
X041264Y009235D01*
X041271Y009157D02*
X040906Y009157D01*
X040828Y009078D02*
X041349Y009078D01*
X041528Y009078D02*
X042149Y009078D01*
X042071Y009157D02*
X041606Y009157D01*
X041614Y009235D02*
X042064Y009235D01*
X042069Y009314D02*
X041609Y009314D01*
X041530Y009392D02*
X042147Y009392D01*
X042330Y009392D02*
X045999Y009392D01*
X045999Y009314D02*
X044493Y009314D01*
X044583Y009235D02*
X045999Y009235D01*
X045999Y009157D02*
X044637Y009157D01*
X044671Y009078D02*
X045999Y009078D01*
X045999Y009000D02*
X044689Y009000D01*
X044693Y008896D02*
X044279Y008896D01*
X044279Y008482D01*
X044345Y008493D01*
X044413Y008515D01*
X044477Y008547D01*
X044535Y008589D01*
X044586Y008640D01*
X044628Y008698D01*
X044660Y008762D01*
X044682Y008830D01*
X044693Y008896D01*
X044684Y008842D02*
X045999Y008842D01*
X045999Y008764D02*
X044661Y008764D01*
X044619Y008685D02*
X045999Y008685D01*
X045999Y008607D02*
X044553Y008607D01*
X044440Y008528D02*
X045999Y008528D01*
X045999Y008450D02*
X040373Y008450D01*
X040414Y008409D02*
X040311Y008511D01*
X040166Y008511D01*
X040064Y008409D01*
X040064Y008264D01*
X040166Y008161D01*
X040311Y008161D01*
X040414Y008264D01*
X040414Y008409D01*
X040414Y008371D02*
X045999Y008371D01*
X045999Y008293D02*
X040414Y008293D01*
X040364Y008214D02*
X045999Y008214D01*
X045999Y008136D02*
X011439Y008136D01*
X011439Y008214D02*
X026113Y008214D01*
X026364Y008214D02*
X027113Y008214D01*
X027064Y008264D02*
X027166Y008161D01*
X027311Y008161D01*
X027414Y008264D01*
X027414Y008409D01*
X027311Y008511D01*
X027166Y008511D01*
X027064Y008409D01*
X027064Y008264D01*
X027064Y008293D02*
X026414Y008293D01*
X026414Y008371D02*
X027064Y008371D01*
X027105Y008450D02*
X026373Y008450D01*
X027364Y008214D02*
X028113Y008214D01*
X028064Y008264D02*
X028166Y008161D01*
X028311Y008161D01*
X028414Y008264D01*
X028414Y008409D01*
X028311Y008511D01*
X028166Y008511D01*
X028064Y008409D01*
X028064Y008264D01*
X028064Y008293D02*
X027414Y008293D01*
X027414Y008371D02*
X028064Y008371D01*
X028105Y008450D02*
X027373Y008450D01*
X027878Y008528D02*
X038099Y008528D01*
X038064Y008607D02*
X027914Y008607D01*
X028373Y008450D02*
X029105Y008450D01*
X029064Y008409D02*
X029166Y008511D01*
X029311Y008511D01*
X029414Y008409D01*
X029414Y008264D01*
X029311Y008161D01*
X029166Y008161D01*
X029064Y008264D01*
X029064Y008409D01*
X029064Y008371D02*
X028414Y008371D01*
X028414Y008293D02*
X029064Y008293D01*
X029113Y008214D02*
X028364Y008214D01*
X029364Y008214D02*
X030113Y008214D01*
X030064Y008264D02*
X030166Y008161D01*
X030311Y008161D01*
X030414Y008264D01*
X030414Y008409D01*
X030311Y008511D01*
X030166Y008511D01*
X030064Y008409D01*
X030064Y008264D01*
X030064Y008293D02*
X029414Y008293D01*
X029414Y008371D02*
X030064Y008371D01*
X030105Y008450D02*
X029373Y008450D01*
X030373Y008450D02*
X040105Y008450D01*
X040064Y008371D02*
X030414Y008371D01*
X030414Y008293D02*
X040064Y008293D01*
X040113Y008214D02*
X030364Y008214D01*
X030319Y007341D02*
X030158Y007341D01*
X030009Y007280D01*
X029895Y007166D01*
X029834Y007017D01*
X029834Y006856D01*
X029895Y006707D01*
X030009Y006593D01*
X030158Y006531D01*
X030319Y006531D01*
X030468Y006593D01*
X030582Y006707D01*
X030644Y006856D01*
X030644Y007017D01*
X030582Y007166D01*
X030468Y007280D01*
X030319Y007341D01*
X030476Y007272D02*
X031001Y007272D01*
X031009Y007280D02*
X030895Y007166D01*
X030834Y007017D01*
X030834Y006856D01*
X030895Y006707D01*
X031009Y006593D01*
X031158Y006531D01*
X031319Y006531D01*
X031468Y006593D01*
X031582Y006707D01*
X031644Y006856D01*
X031644Y007017D01*
X031582Y007166D01*
X031468Y007280D01*
X031319Y007341D01*
X031158Y007341D01*
X031009Y007280D01*
X030923Y007193D02*
X030555Y007193D01*
X030603Y007115D02*
X030874Y007115D01*
X030842Y007036D02*
X030636Y007036D01*
X030644Y006957D02*
X030834Y006957D01*
X030834Y006879D02*
X030644Y006879D01*
X030621Y006800D02*
X030857Y006800D01*
X030889Y006722D02*
X030588Y006722D01*
X030518Y006643D02*
X030959Y006643D01*
X031078Y006565D02*
X030400Y006565D01*
X030078Y006565D02*
X029400Y006565D01*
X029468Y006593D02*
X029582Y006707D01*
X029644Y006856D01*
X029644Y007017D01*
X029582Y007166D01*
X029468Y007280D01*
X029319Y007341D01*
X029158Y007341D01*
X029009Y007280D01*
X028895Y007166D01*
X028834Y007017D01*
X028834Y006856D01*
X028895Y006707D01*
X029009Y006593D01*
X029158Y006531D01*
X029319Y006531D01*
X029468Y006593D01*
X029518Y006643D02*
X029959Y006643D01*
X029889Y006722D02*
X029588Y006722D01*
X029621Y006800D02*
X029857Y006800D01*
X029834Y006879D02*
X029644Y006879D01*
X029644Y006957D02*
X029834Y006957D01*
X029842Y007036D02*
X029636Y007036D01*
X029603Y007115D02*
X029874Y007115D01*
X029923Y007193D02*
X029555Y007193D01*
X029476Y007272D02*
X030001Y007272D01*
X029001Y007272D02*
X028476Y007272D01*
X028468Y007280D02*
X028319Y007341D01*
X028158Y007341D01*
X028009Y007280D01*
X027895Y007166D01*
X027834Y007017D01*
X027834Y006856D01*
X027895Y006707D01*
X028009Y006593D01*
X028158Y006531D01*
X028319Y006531D01*
X028468Y006593D01*
X028582Y006707D01*
X028644Y006856D01*
X028644Y007017D01*
X028582Y007166D01*
X028468Y007280D01*
X028555Y007193D02*
X028923Y007193D01*
X028874Y007115D02*
X028603Y007115D01*
X028636Y007036D02*
X028842Y007036D01*
X028834Y006957D02*
X028644Y006957D01*
X028644Y006879D02*
X028834Y006879D01*
X028857Y006800D02*
X028621Y006800D01*
X028588Y006722D02*
X028889Y006722D01*
X028959Y006643D02*
X028518Y006643D01*
X028400Y006565D02*
X029078Y006565D01*
X028078Y006565D02*
X027400Y006565D01*
X027468Y006593D02*
X027582Y006707D01*
X027644Y006856D01*
X027644Y007017D01*
X027582Y007166D01*
X027468Y007280D01*
X027319Y007341D01*
X027158Y007341D01*
X027009Y007280D01*
X026895Y007166D01*
X026834Y007017D01*
X026834Y006856D01*
X026895Y006707D01*
X027009Y006593D01*
X027158Y006531D01*
X027319Y006531D01*
X027468Y006593D01*
X027518Y006643D02*
X027959Y006643D01*
X027889Y006722D02*
X027588Y006722D01*
X027621Y006800D02*
X027857Y006800D01*
X027834Y006879D02*
X027644Y006879D01*
X027644Y006957D02*
X027834Y006957D01*
X027842Y007036D02*
X027636Y007036D01*
X027603Y007115D02*
X027874Y007115D01*
X027923Y007193D02*
X027555Y007193D01*
X027476Y007272D02*
X028001Y007272D01*
X027001Y007272D02*
X026476Y007272D01*
X026555Y007193D02*
X026923Y007193D01*
X026874Y007115D02*
X026603Y007115D01*
X026636Y007036D02*
X026842Y007036D01*
X026834Y006957D02*
X026644Y006957D01*
X026644Y006879D02*
X026834Y006879D01*
X026857Y006800D02*
X026621Y006800D01*
X026588Y006722D02*
X026889Y006722D01*
X026959Y006643D02*
X026518Y006643D01*
X026400Y006565D02*
X027078Y006565D01*
X031400Y006565D02*
X032078Y006565D01*
X032009Y006593D02*
X032158Y006531D01*
X032319Y006531D01*
X032468Y006593D01*
X032582Y006707D01*
X032644Y006856D01*
X032644Y007017D01*
X032582Y007166D01*
X032468Y007280D01*
X032319Y007341D01*
X032158Y007341D01*
X032009Y007280D01*
X031895Y007166D01*
X031834Y007017D01*
X031834Y006856D01*
X031895Y006707D01*
X032009Y006593D01*
X031959Y006643D02*
X031518Y006643D01*
X031588Y006722D02*
X031889Y006722D01*
X031857Y006800D02*
X031621Y006800D01*
X031644Y006879D02*
X031834Y006879D01*
X031834Y006957D02*
X031644Y006957D01*
X031636Y007036D02*
X031842Y007036D01*
X031874Y007115D02*
X031603Y007115D01*
X031555Y007193D02*
X031923Y007193D01*
X032001Y007272D02*
X031476Y007272D01*
X032400Y006565D02*
X033078Y006565D01*
X033009Y006593D02*
X033158Y006531D01*
X033319Y006531D01*
X033468Y006593D01*
X033582Y006707D01*
X033644Y006856D01*
X033644Y007017D01*
X033582Y007166D01*
X033468Y007280D01*
X033319Y007341D01*
X033158Y007341D01*
X033009Y007280D01*
X032895Y007166D01*
X032834Y007017D01*
X032834Y006856D01*
X032895Y006707D01*
X033009Y006593D01*
X032959Y006643D02*
X032518Y006643D01*
X032588Y006722D02*
X032889Y006722D01*
X032857Y006800D02*
X032621Y006800D01*
X032644Y006879D02*
X032834Y006879D01*
X032834Y006957D02*
X032644Y006957D01*
X032636Y007036D02*
X032842Y007036D01*
X032874Y007115D02*
X032603Y007115D01*
X032555Y007193D02*
X032923Y007193D01*
X033001Y007272D02*
X032476Y007272D01*
X033476Y007272D02*
X035001Y007272D01*
X035009Y007280D02*
X034895Y007166D01*
X034834Y007017D01*
X034834Y006856D01*
X034895Y006707D01*
X035009Y006593D01*
X035158Y006531D01*
X035319Y006531D01*
X035468Y006593D01*
X035582Y006707D01*
X035644Y006856D01*
X035644Y007017D01*
X035582Y007166D01*
X035468Y007280D01*
X035319Y007341D01*
X035158Y007341D01*
X035009Y007280D01*
X034923Y007193D02*
X033555Y007193D01*
X033603Y007115D02*
X034874Y007115D01*
X034842Y007036D02*
X033636Y007036D01*
X033644Y006957D02*
X034834Y006957D01*
X034834Y006879D02*
X033644Y006879D01*
X033621Y006800D02*
X034857Y006800D01*
X034889Y006722D02*
X033588Y006722D01*
X033518Y006643D02*
X034959Y006643D01*
X035078Y006565D02*
X033400Y006565D01*
X035400Y006565D02*
X036078Y006565D01*
X036009Y006593D02*
X036158Y006531D01*
X036319Y006531D01*
X036468Y006593D01*
X036582Y006707D01*
X036644Y006856D01*
X036644Y007017D01*
X036582Y007166D01*
X036468Y007280D01*
X036319Y007341D01*
X036158Y007341D01*
X036009Y007280D01*
X035895Y007166D01*
X035834Y007017D01*
X035834Y006856D01*
X035895Y006707D01*
X036009Y006593D01*
X035959Y006643D02*
X035518Y006643D01*
X035588Y006722D02*
X035889Y006722D01*
X035857Y006800D02*
X035621Y006800D01*
X035644Y006879D02*
X035834Y006879D01*
X035834Y006957D02*
X035644Y006957D01*
X035636Y007036D02*
X035842Y007036D01*
X035874Y007115D02*
X035603Y007115D01*
X035555Y007193D02*
X035923Y007193D01*
X036001Y007272D02*
X035476Y007272D01*
X036476Y007272D02*
X037001Y007272D01*
X037009Y007280D02*
X036895Y007166D01*
X036834Y007017D01*
X036834Y006856D01*
X036895Y006707D01*
X037009Y006593D01*
X037158Y006531D01*
X037319Y006531D01*
X037468Y006593D01*
X037582Y006707D01*
X037644Y006856D01*
X037644Y007017D01*
X037582Y007166D01*
X037468Y007280D01*
X037319Y007341D01*
X037158Y007341D01*
X037009Y007280D01*
X036923Y007193D02*
X036555Y007193D01*
X036603Y007115D02*
X036874Y007115D01*
X036842Y007036D02*
X036636Y007036D01*
X036644Y006957D02*
X036834Y006957D01*
X036834Y006879D02*
X036644Y006879D01*
X036621Y006800D02*
X036857Y006800D01*
X036889Y006722D02*
X036588Y006722D01*
X036518Y006643D02*
X036959Y006643D01*
X037078Y006565D02*
X036400Y006565D01*
X037400Y006565D02*
X038078Y006565D01*
X038009Y006593D02*
X038158Y006531D01*
X038319Y006531D01*
X038468Y006593D01*
X038582Y006707D01*
X038644Y006856D01*
X038644Y007017D01*
X038582Y007166D01*
X038468Y007280D01*
X038319Y007341D01*
X038158Y007341D01*
X038009Y007280D01*
X037895Y007166D01*
X037834Y007017D01*
X037834Y006856D01*
X037895Y006707D01*
X038009Y006593D01*
X037959Y006643D02*
X037518Y006643D01*
X037588Y006722D02*
X037889Y006722D01*
X037857Y006800D02*
X037621Y006800D01*
X037644Y006879D02*
X037834Y006879D01*
X037834Y006957D02*
X037644Y006957D01*
X037636Y007036D02*
X037842Y007036D01*
X037874Y007115D02*
X037603Y007115D01*
X037555Y007193D02*
X037923Y007193D01*
X038001Y007272D02*
X037476Y007272D01*
X038476Y007272D02*
X039001Y007272D01*
X039009Y007280D02*
X038895Y007166D01*
X038834Y007017D01*
X038834Y006856D01*
X038895Y006707D01*
X039009Y006593D01*
X039158Y006531D01*
X039319Y006531D01*
X039468Y006593D01*
X039582Y006707D01*
X039644Y006856D01*
X039644Y007017D01*
X039582Y007166D01*
X039468Y007280D01*
X039319Y007341D01*
X039158Y007341D01*
X039009Y007280D01*
X038923Y007193D02*
X038555Y007193D01*
X038603Y007115D02*
X038874Y007115D01*
X038842Y007036D02*
X038636Y007036D01*
X038644Y006957D02*
X038834Y006957D01*
X038834Y006879D02*
X038644Y006879D01*
X038621Y006800D02*
X038857Y006800D01*
X038889Y006722D02*
X038588Y006722D01*
X038518Y006643D02*
X038959Y006643D01*
X039078Y006565D02*
X038400Y006565D01*
X039400Y006565D02*
X040078Y006565D01*
X040009Y006593D02*
X040158Y006531D01*
X040319Y006531D01*
X040468Y006593D01*
X040582Y006707D01*
X040644Y006856D01*
X040644Y007017D01*
X040582Y007166D01*
X040468Y007280D01*
X040319Y007341D01*
X040158Y007341D01*
X040009Y007280D01*
X039895Y007166D01*
X039834Y007017D01*
X039834Y006856D01*
X039895Y006707D01*
X040009Y006593D01*
X039959Y006643D02*
X039518Y006643D01*
X039588Y006722D02*
X039889Y006722D01*
X039857Y006800D02*
X039621Y006800D01*
X039644Y006879D02*
X039834Y006879D01*
X039834Y006957D02*
X039644Y006957D01*
X039636Y007036D02*
X039842Y007036D01*
X039874Y007115D02*
X039603Y007115D01*
X039555Y007193D02*
X039923Y007193D01*
X040001Y007272D02*
X039476Y007272D01*
X040476Y007272D02*
X041001Y007272D01*
X041009Y007280D02*
X040895Y007166D01*
X040834Y007017D01*
X040834Y006856D01*
X040895Y006707D01*
X041009Y006593D01*
X041158Y006531D01*
X041319Y006531D01*
X041468Y006593D01*
X041582Y006707D01*
X041644Y006856D01*
X041644Y007017D01*
X041582Y007166D01*
X041468Y007280D01*
X041319Y007341D01*
X041158Y007341D01*
X041009Y007280D01*
X040923Y007193D02*
X040555Y007193D01*
X040603Y007115D02*
X040874Y007115D01*
X040842Y007036D02*
X040636Y007036D01*
X040644Y006957D02*
X040834Y006957D01*
X040834Y006879D02*
X040644Y006879D01*
X040621Y006800D02*
X040857Y006800D01*
X040889Y006722D02*
X040588Y006722D01*
X040518Y006643D02*
X040959Y006643D01*
X041078Y006565D02*
X040400Y006565D01*
X041400Y006565D02*
X042078Y006565D01*
X041959Y006643D02*
X041518Y006643D01*
X041588Y006722D02*
X041889Y006722D01*
X041857Y006800D02*
X041621Y006800D01*
X041644Y006879D02*
X041834Y006879D01*
X041834Y006957D02*
X041644Y006957D01*
X041636Y007036D02*
X041842Y007036D01*
X041874Y007115D02*
X041603Y007115D01*
X041555Y007193D02*
X041923Y007193D01*
X042001Y007272D02*
X041476Y007272D01*
X043501Y007429D02*
X012976Y007429D01*
X013009Y007350D02*
X022049Y007350D01*
X021001Y007272D02*
X020476Y007272D01*
X020468Y007280D02*
X020319Y007341D01*
X020158Y007341D01*
X020009Y007280D01*
X019895Y007166D01*
X019834Y007017D01*
X019834Y006856D01*
X019895Y006707D01*
X020009Y006593D01*
X020158Y006531D01*
X020319Y006531D01*
X020468Y006593D01*
X020582Y006707D01*
X020644Y006856D01*
X020644Y007017D01*
X020582Y007166D01*
X020468Y007280D01*
X020555Y007193D02*
X020923Y007193D01*
X020874Y007115D02*
X020603Y007115D01*
X020636Y007036D02*
X020842Y007036D01*
X020834Y006957D02*
X020644Y006957D01*
X020644Y006879D02*
X020834Y006879D01*
X020857Y006800D02*
X020621Y006800D01*
X020588Y006722D02*
X020889Y006722D01*
X020959Y006643D02*
X020518Y006643D01*
X020400Y006565D02*
X021078Y006565D01*
X020078Y006565D02*
X019400Y006565D01*
X019468Y006593D02*
X019582Y006707D01*
X019644Y006856D01*
X019644Y007017D01*
X019582Y007166D01*
X019468Y007280D01*
X019319Y007341D01*
X019158Y007341D01*
X019009Y007280D01*
X018895Y007166D01*
X018834Y007017D01*
X018834Y006856D01*
X018895Y006707D01*
X019009Y006593D01*
X019158Y006531D01*
X019319Y006531D01*
X019468Y006593D01*
X019518Y006643D02*
X019959Y006643D01*
X019889Y006722D02*
X019588Y006722D01*
X019621Y006800D02*
X019857Y006800D01*
X019834Y006879D02*
X019644Y006879D01*
X019644Y006957D02*
X019834Y006957D01*
X019842Y007036D02*
X019636Y007036D01*
X019603Y007115D02*
X019874Y007115D01*
X019923Y007193D02*
X019555Y007193D01*
X019476Y007272D02*
X020001Y007272D01*
X019078Y006565D02*
X016200Y006565D01*
X016268Y006593D02*
X016119Y006531D01*
X015958Y006531D01*
X015809Y006593D01*
X015695Y006707D01*
X015634Y006856D01*
X015634Y007017D01*
X015695Y007166D01*
X015809Y007280D01*
X015958Y007341D01*
X016119Y007341D01*
X016268Y007280D01*
X016382Y007166D01*
X016444Y007017D01*
X016444Y006856D01*
X016382Y006707D01*
X016268Y006593D01*
X016318Y006643D02*
X018959Y006643D01*
X018889Y006722D02*
X016388Y006722D01*
X016421Y006800D02*
X018857Y006800D01*
X018834Y006879D02*
X016444Y006879D01*
X016444Y006957D02*
X018834Y006957D01*
X018842Y007036D02*
X016436Y007036D01*
X016403Y007115D02*
X018874Y007115D01*
X018923Y007193D02*
X016355Y007193D01*
X016276Y007272D02*
X019001Y007272D01*
X015801Y007272D02*
X015276Y007272D01*
X015268Y007280D02*
X015119Y007341D01*
X014958Y007341D01*
X014809Y007280D01*
X014695Y007166D01*
X014634Y007017D01*
X014634Y006856D01*
X014695Y006707D01*
X014809Y006593D01*
X014958Y006531D01*
X015119Y006531D01*
X015268Y006593D01*
X015382Y006707D01*
X015444Y006856D01*
X015444Y007017D01*
X015382Y007166D01*
X015268Y007280D01*
X015355Y007193D02*
X015723Y007193D01*
X015674Y007115D02*
X015403Y007115D01*
X015436Y007036D02*
X015642Y007036D01*
X015634Y006957D02*
X015444Y006957D01*
X015444Y006879D02*
X015634Y006879D01*
X015657Y006800D02*
X015421Y006800D01*
X015388Y006722D02*
X015689Y006722D01*
X015759Y006643D02*
X015318Y006643D01*
X015200Y006565D02*
X015878Y006565D01*
X014878Y006565D02*
X014200Y006565D01*
X014268Y006593D02*
X014382Y006707D01*
X014444Y006856D01*
X014444Y007017D01*
X014382Y007166D01*
X014268Y007280D01*
X014119Y007341D01*
X013958Y007341D01*
X013809Y007280D01*
X013695Y007166D01*
X013634Y007017D01*
X013634Y006856D01*
X013695Y006707D01*
X013809Y006593D01*
X013958Y006531D01*
X014119Y006531D01*
X014268Y006593D01*
X014318Y006643D02*
X014759Y006643D01*
X014689Y006722D02*
X014388Y006722D01*
X014421Y006800D02*
X014657Y006800D01*
X014634Y006879D02*
X014444Y006879D01*
X014444Y006957D02*
X014634Y006957D01*
X014642Y007036D02*
X014436Y007036D01*
X014403Y007115D02*
X014674Y007115D01*
X014723Y007193D02*
X014355Y007193D01*
X014276Y007272D02*
X014801Y007272D01*
X013801Y007272D02*
X013042Y007272D01*
X013074Y007193D02*
X013723Y007193D01*
X013674Y007115D02*
X013107Y007115D01*
X013109Y007036D02*
X013642Y007036D01*
X013634Y006957D02*
X013109Y006957D01*
X013109Y006879D02*
X013634Y006879D01*
X013657Y006800D02*
X013109Y006800D01*
X013091Y006722D02*
X013689Y006722D01*
X013759Y006643D02*
X013059Y006643D01*
X013026Y006565D02*
X013878Y006565D01*
X012898Y007507D02*
X043579Y007507D01*
X043658Y007586D02*
X012820Y007586D01*
X012741Y007664D02*
X043736Y007664D01*
X043912Y007743D02*
X012565Y007743D01*
X011439Y007900D02*
X045999Y007900D01*
X045999Y007979D02*
X011439Y007979D01*
X011439Y008057D02*
X045999Y008057D01*
X045999Y008921D02*
X044279Y008921D01*
X044279Y008842D02*
X044199Y008842D01*
X044199Y008896D02*
X044199Y008482D01*
X044132Y008493D01*
X044064Y008515D01*
X044000Y008547D01*
X043942Y008589D01*
X043892Y008640D01*
X043850Y008698D01*
X043817Y008762D01*
X043795Y008830D01*
X043784Y008896D01*
X044199Y008896D01*
X044199Y008764D02*
X044279Y008764D01*
X044279Y008685D02*
X044199Y008685D01*
X044199Y008607D02*
X044279Y008607D01*
X044279Y008528D02*
X044199Y008528D01*
X044037Y008528D02*
X043440Y008528D01*
X043553Y008607D02*
X043925Y008607D01*
X043859Y008685D02*
X043619Y008685D01*
X043661Y008764D02*
X043816Y008764D01*
X043793Y008842D02*
X043684Y008842D01*
X043689Y009000D02*
X043788Y009000D01*
X043806Y009078D02*
X043671Y009078D01*
X043637Y009157D02*
X043840Y009157D01*
X043894Y009235D02*
X043583Y009235D01*
X043493Y009314D02*
X043984Y009314D01*
X035928Y009000D02*
X035349Y009000D01*
X035414Y009078D02*
X035864Y009078D01*
X035864Y009157D02*
X035414Y009157D01*
X035387Y009235D02*
X035890Y009235D01*
X035128Y009000D02*
X033214Y009000D01*
X033144Y009078D02*
X035064Y009078D01*
X029121Y009706D02*
X011439Y009706D01*
X011439Y009785D02*
X029064Y009785D01*
X027150Y010178D02*
X011439Y010178D01*
X011439Y010256D02*
X027071Y010256D01*
X027062Y013712D02*
X027215Y013712D01*
X027164Y013791D02*
X027114Y013791D01*
X027114Y013869D02*
X027164Y013869D01*
X027203Y013948D02*
X027075Y013948D01*
X031472Y015597D02*
X031552Y015597D01*
X031551Y015676D02*
X031866Y015676D01*
X031821Y015754D02*
X031602Y015754D01*
X031725Y015597D02*
X031934Y015597D01*
X032056Y015519D02*
X031804Y015519D01*
D13*
X031639Y015436D03*
X030439Y015236D03*
X028339Y015736D03*
X027539Y015736D03*
X026139Y015736D03*
X025739Y015736D03*
X024739Y015236D03*
X024539Y015436D03*
X023739Y015336D03*
X023539Y015136D03*
X023539Y014836D03*
X023939Y014736D03*
X023139Y014736D03*
X022839Y014736D03*
X022139Y015736D03*
X022439Y015936D03*
X022839Y016136D03*
X022039Y016536D03*
X022639Y016836D03*
X022539Y017836D03*
X022939Y018136D03*
X023239Y018536D03*
X023539Y018736D03*
X023239Y019036D03*
X022639Y018936D03*
X022439Y019136D03*
X022039Y019536D03*
X020939Y019136D03*
X020539Y019136D03*
X020339Y019636D03*
X020339Y020036D03*
X019739Y019836D03*
X019539Y020036D03*
X019339Y020236D03*
X019139Y020436D03*
X018439Y020636D03*
X018139Y020936D03*
X017839Y021236D03*
X017839Y021736D03*
X016539Y023236D03*
X014539Y024336D03*
X014539Y024936D03*
X014539Y025536D03*
X014539Y026136D03*
X010739Y025136D03*
X010739Y023836D03*
X012339Y022336D03*
X012739Y022336D03*
X011639Y022136D03*
X011939Y021436D03*
X011139Y021436D03*
X011139Y020636D03*
X011939Y020636D03*
X012639Y020536D03*
X012339Y019936D03*
X012439Y019636D03*
X012639Y019436D03*
X011839Y018936D03*
X011939Y018336D03*
X010939Y018936D03*
X010639Y020036D03*
X010339Y020936D03*
X009839Y020936D03*
X013539Y021036D03*
X014339Y021636D03*
X017039Y017936D03*
X018139Y017336D03*
X018139Y017036D03*
X019239Y017036D03*
X019939Y016836D03*
X019939Y017236D03*
X020539Y016736D03*
X020939Y016736D03*
X019139Y015736D03*
X017039Y015736D03*
X014239Y015336D03*
X011739Y014036D03*
X011339Y014436D03*
X011339Y015136D03*
X009839Y014436D03*
X009439Y014436D03*
X009439Y013436D03*
X010539Y012936D03*
X009039Y017036D03*
X017739Y011136D03*
X021339Y013236D03*
X020939Y013536D03*
X020839Y013836D03*
X021139Y014136D03*
X022639Y012836D03*
X023039Y012836D03*
X024039Y012836D03*
X024039Y013636D03*
X025439Y013636D03*
X025439Y012836D03*
X026939Y013836D03*
X027339Y013836D03*
X025339Y014736D03*
X025639Y016436D03*
X026039Y016436D03*
X025839Y017136D03*
X025839Y017436D03*
X024739Y018436D03*
X025839Y018536D03*
X025939Y018836D03*
X026439Y018736D03*
X027839Y018736D03*
X027339Y017136D03*
X027439Y016836D03*
X028239Y016836D03*
X029239Y017236D03*
X031739Y017236D03*
X032639Y017636D03*
X032639Y016236D03*
X034939Y015336D03*
X035439Y015336D03*
X037439Y015436D03*
X039239Y016536D03*
X039339Y017236D03*
X040339Y017236D03*
X035539Y021036D03*
X036739Y021636D03*
X036939Y022536D03*
X037239Y022836D03*
X040139Y023236D03*
X040339Y023436D03*
X041439Y022836D03*
X041839Y022536D03*
X033439Y022836D03*
X030139Y022536D03*
X029739Y022936D03*
X029539Y023136D03*
X028639Y022636D03*
X028339Y022836D03*
X026739Y022536D03*
X026039Y023736D03*
X028039Y024236D03*
X028539Y025436D03*
X023939Y023636D03*
X023039Y023736D03*
X022039Y024236D03*
X021539Y021136D03*
X024239Y020436D03*
X024439Y021036D03*
X024739Y021036D03*
X026839Y021036D03*
X027139Y020836D03*
X022139Y018536D03*
X026239Y010536D03*
X027239Y010336D03*
X028239Y010036D03*
X029239Y009836D03*
X030239Y009636D03*
X031739Y009236D03*
X032439Y008936D03*
X033039Y008936D03*
X035239Y009136D03*
X036039Y009136D03*
X036739Y009236D03*
X037439Y008936D03*
X038239Y008636D03*
X039239Y008936D03*
X039939Y009236D03*
X040739Y009236D03*
X041439Y009236D03*
X042239Y009236D03*
X040239Y008336D03*
X030239Y008336D03*
X029239Y008336D03*
X028239Y008336D03*
X027739Y008636D03*
X027239Y008336D03*
X026239Y008336D03*
X008839Y006436D03*
X006639Y006436D03*
D14*
X013139Y009536D03*
X013539Y009536D03*
X013539Y009836D03*
X016639Y011436D03*
X015739Y011736D03*
X015239Y011736D03*
X014739Y011736D03*
X014239Y011736D03*
X012439Y012136D03*
X012039Y012136D03*
X011239Y012036D03*
X010839Y012036D03*
X010839Y012436D03*
X011239Y012436D03*
X012039Y012936D03*
X012439Y012936D03*
X013539Y013036D03*
X015339Y014036D03*
X011139Y016836D03*
X011139Y017136D03*
X011539Y017436D03*
X010339Y018036D03*
X010139Y019536D03*
X009539Y020036D03*
X009239Y020036D03*
X008939Y020036D03*
X008939Y021836D03*
X009239Y021836D03*
X009539Y021836D03*
X022039Y012336D03*
X021439Y008936D03*
X021039Y008936D03*
X020639Y008936D03*
X020239Y008936D03*
X010239Y011036D03*
X009839Y012136D03*
D15*
X010339Y009936D02*
X010539Y009936D01*
X010739Y009736D01*
X010739Y008136D01*
X010539Y007936D01*
X010339Y007936D01*
X010139Y008136D01*
X010139Y009736D01*
X010339Y009936D01*
X010251Y009848D02*
X010627Y009848D01*
X010739Y009730D02*
X010139Y009730D01*
X010139Y009611D02*
X010739Y009611D01*
X010739Y009493D02*
X010139Y009493D01*
X010139Y009374D02*
X010739Y009374D01*
X010739Y009256D02*
X010139Y009256D01*
X010139Y009137D02*
X010739Y009137D01*
X010739Y009019D02*
X010139Y009019D01*
X010139Y008900D02*
X010739Y008900D01*
X010739Y008781D02*
X010139Y008781D01*
X010139Y008663D02*
X010739Y008663D01*
X010739Y008544D02*
X010139Y008544D01*
X010139Y008426D02*
X010739Y008426D01*
X010739Y008307D02*
X010139Y008307D01*
X010139Y008189D02*
X010739Y008189D01*
X010673Y008070D02*
X010205Y008070D01*
X010324Y007952D02*
X010554Y007952D01*
X010016Y007359D02*
X008261Y007359D01*
X008339Y007436D02*
X009939Y007436D01*
X010139Y007236D01*
X010139Y007036D01*
X009939Y006836D01*
X008339Y006836D01*
X008139Y007036D01*
X008139Y007236D01*
X008339Y007436D01*
X008143Y007240D02*
X010135Y007240D01*
X010139Y007122D02*
X008139Y007122D01*
X008172Y007003D02*
X010106Y007003D01*
X009987Y006885D02*
X008290Y006885D01*
X008039Y007936D02*
X007839Y007936D01*
X007639Y008136D01*
X007639Y009736D01*
X007839Y009936D01*
X008039Y009936D01*
X008239Y009736D01*
X008239Y008136D01*
X008039Y007936D01*
X008054Y007952D02*
X007824Y007952D01*
X007705Y008070D02*
X008173Y008070D01*
X008239Y008189D02*
X007639Y008189D01*
X007639Y008307D02*
X008239Y008307D01*
X008239Y008426D02*
X007639Y008426D01*
X007639Y008544D02*
X008239Y008544D01*
X008239Y008663D02*
X007639Y008663D01*
X007639Y008781D02*
X008239Y008781D01*
X008239Y008900D02*
X007639Y008900D01*
X007639Y009019D02*
X008239Y009019D01*
X008239Y009137D02*
X007639Y009137D01*
X007639Y009256D02*
X008239Y009256D01*
X008239Y009374D02*
X007639Y009374D01*
X007639Y009493D02*
X008239Y009493D01*
X008239Y009611D02*
X007639Y009611D01*
X007639Y009730D02*
X008239Y009730D01*
X008127Y009848D02*
X007751Y009848D01*
D16*
X007939Y008936D02*
X007939Y007636D01*
X008489Y007086D01*
X009120Y007086D01*
X007939Y008936D02*
X007939Y011236D01*
M02*
