G75*
G70*
%OFA0B0*%
%FSLAX24Y24*%
%IPPOS*%
%LPD*%
%AMOC8*
5,1,8,0,0,1.08239X$1,22.5*
%
%ADD10C,0.1340*%
%ADD11C,0.0198*%
%ADD12R,0.1200X0.1200*%
%ADD13R,0.0277X0.0277*%
%ADD14C,0.0470*%
%ADD15R,0.0671X0.0159*%
%ADD16R,0.0159X0.0671*%
%ADD17R,0.0513X0.0474*%
%ADD18R,0.0395X0.0356*%
%ADD19R,0.0710X0.0710*%
%ADD20C,0.0710*%
%ADD21R,0.0474X0.0277*%
%ADD22R,0.0474X0.0513*%
%ADD23R,0.0375X0.0198*%
%ADD24R,0.0769X0.0651*%
%ADD25R,0.0356X0.0395*%
%ADD26R,0.0474X0.0671*%
%ADD27R,0.1379X0.0671*%
%ADD28R,0.0552X0.0474*%
%ADD29R,0.0789X0.0710*%
%ADD30R,0.0380X0.0580*%
%ADD31R,0.0867X0.0867*%
%ADD32R,0.0513X0.0316*%
%ADD33R,0.0356X0.0434*%
%ADD34R,0.0380X0.0237*%
%ADD35R,0.0237X0.0380*%
%ADD36R,0.0749X0.0907*%
%ADD37R,0.0277X0.0474*%
%ADD38R,0.0710X0.0789*%
%ADD39R,0.1064X0.0867*%
%ADD40R,0.0986X0.0277*%
%ADD41R,0.0237X0.0316*%
D10*
X012239Y006936D03*
X044239Y006936D03*
X041739Y025936D03*
X012239Y025936D03*
D11*
X012228Y021981D02*
X012228Y021863D01*
X012031Y021863D02*
X012031Y021981D01*
X011834Y021981D02*
X011834Y021863D01*
X011637Y021863D02*
X011637Y021981D01*
X011440Y021981D02*
X011440Y021863D01*
X011243Y021863D02*
X011243Y021981D01*
X011047Y021981D02*
X011047Y021863D01*
X010850Y021863D02*
X010850Y021981D01*
X010712Y021725D02*
X010594Y021725D01*
X010594Y021529D02*
X010712Y021529D01*
X010712Y021332D02*
X010594Y021332D01*
X010594Y021135D02*
X010712Y021135D01*
X010712Y020938D02*
X010594Y020938D01*
X010594Y020741D02*
X010712Y020741D01*
X010712Y020544D02*
X010594Y020544D01*
X010594Y020347D02*
X010712Y020347D01*
X010850Y020210D02*
X010850Y020092D01*
X011047Y020092D02*
X011047Y020210D01*
X011243Y020210D02*
X011243Y020092D01*
X011440Y020092D02*
X011440Y020210D01*
X011637Y020210D02*
X011637Y020092D01*
X011834Y020092D02*
X011834Y020210D01*
X012031Y020210D02*
X012031Y020092D01*
X012228Y020092D02*
X012228Y020210D01*
X012366Y020347D02*
X012484Y020347D01*
X012484Y020544D02*
X012366Y020544D01*
X012366Y020741D02*
X012484Y020741D01*
X012484Y020938D02*
X012366Y020938D01*
X012366Y021135D02*
X012484Y021135D01*
X012484Y021332D02*
X012366Y021332D01*
X012366Y021529D02*
X012484Y021529D01*
X012484Y021725D02*
X012366Y021725D01*
D12*
X011539Y021036D03*
D13*
X012942Y021036D03*
X013336Y021036D03*
X013336Y021536D03*
X012942Y021536D03*
X012942Y022036D03*
X013336Y022036D03*
X012736Y022536D03*
X012342Y022536D03*
X012342Y023036D03*
X012736Y023036D03*
X010739Y024140D03*
X010739Y024533D03*
X010739Y025740D03*
X010739Y026133D03*
X013942Y025536D03*
X014336Y025536D03*
X014336Y024336D03*
X013942Y024336D03*
X015239Y023933D03*
X015239Y023540D03*
X015839Y023540D03*
X015839Y023933D03*
X010939Y019533D03*
X010939Y019140D03*
X011442Y019136D03*
X011836Y019136D03*
X010339Y019140D03*
X010339Y019533D03*
X010339Y018633D03*
X010339Y018240D03*
X010436Y014436D03*
X010042Y014436D03*
X009136Y014436D03*
X008742Y014436D03*
X010042Y013736D03*
X010436Y013736D03*
X010742Y012936D03*
X011136Y012936D03*
X009136Y013436D03*
X008742Y013436D03*
X013139Y011333D03*
X013139Y010940D03*
X013139Y010333D03*
X013139Y009940D03*
X008636Y006436D03*
X008242Y006436D03*
X022639Y013040D03*
X022639Y013433D03*
X023039Y013433D03*
X023039Y013040D03*
X024039Y013040D03*
X024039Y013433D03*
X025439Y013433D03*
X025439Y013040D03*
X027742Y015736D03*
X028136Y015736D03*
X028036Y016836D03*
X027642Y016836D03*
X024239Y020640D03*
X024239Y021033D03*
X020936Y018936D03*
X020542Y018936D03*
X017936Y017336D03*
X017542Y017336D03*
X017039Y017340D03*
X017039Y017733D03*
X017039Y016333D03*
X017039Y015940D03*
X018342Y015736D03*
X018736Y015736D03*
X020542Y016536D03*
X020936Y016536D03*
X026539Y023740D03*
X026539Y024133D03*
X026939Y024133D03*
X026939Y023740D03*
X039542Y017236D03*
X039936Y017236D03*
X040542Y015836D03*
X040936Y015836D03*
X041239Y008133D03*
X041239Y007740D03*
X040239Y007740D03*
X040239Y008133D03*
X039239Y008133D03*
X039239Y007740D03*
X038239Y007740D03*
X038239Y008133D03*
X037239Y008133D03*
X037239Y007740D03*
X036239Y007740D03*
X036239Y008133D03*
X035239Y008133D03*
X035239Y007740D03*
X033239Y007740D03*
X033239Y008133D03*
X032239Y008133D03*
X032239Y007740D03*
X031239Y007740D03*
X031239Y008133D03*
X030239Y008133D03*
X030239Y007740D03*
X029239Y007740D03*
X029239Y008133D03*
X028239Y008133D03*
X028239Y007740D03*
X027239Y007740D03*
X027239Y008133D03*
X026239Y008133D03*
X026239Y007740D03*
X042239Y007740D03*
X042239Y008133D03*
D14*
X010380Y008936D03*
X007939Y008936D03*
X009120Y007086D03*
D15*
X021601Y015047D03*
X021601Y015204D03*
X021601Y015362D03*
X021601Y015519D03*
X021601Y015677D03*
X021601Y015834D03*
X021601Y015991D03*
X021601Y016149D03*
X021601Y016306D03*
X021601Y016464D03*
X021601Y016621D03*
X021601Y016779D03*
X021601Y016936D03*
X021601Y017094D03*
X021601Y017251D03*
X021601Y017409D03*
X021601Y017566D03*
X021601Y017724D03*
X021601Y017881D03*
X021601Y018039D03*
X021601Y018196D03*
X021601Y018354D03*
X021601Y018511D03*
X021601Y018669D03*
X021601Y018826D03*
X026877Y018826D03*
X026877Y018669D03*
X026877Y018511D03*
X026877Y018354D03*
X026877Y018196D03*
X026877Y018039D03*
X026877Y017881D03*
X026877Y017724D03*
X026877Y017566D03*
X026877Y017409D03*
X026877Y017251D03*
X026877Y017094D03*
X026877Y016936D03*
X026877Y016779D03*
X026877Y016621D03*
X026877Y016464D03*
X026877Y016306D03*
X026877Y016149D03*
X026877Y015991D03*
X026877Y015834D03*
X026877Y015677D03*
X026877Y015519D03*
X026877Y015362D03*
X026877Y015204D03*
X026877Y015047D03*
D16*
X026129Y014299D03*
X025971Y014299D03*
X025814Y014299D03*
X025656Y014299D03*
X025499Y014299D03*
X025341Y014299D03*
X025184Y014299D03*
X025026Y014299D03*
X024869Y014299D03*
X024711Y014299D03*
X024554Y014299D03*
X024396Y014299D03*
X024239Y014299D03*
X024081Y014299D03*
X023924Y014299D03*
X023766Y014299D03*
X023609Y014299D03*
X023451Y014299D03*
X023294Y014299D03*
X023136Y014299D03*
X022979Y014299D03*
X022821Y014299D03*
X022664Y014299D03*
X022506Y014299D03*
X022349Y014299D03*
X022349Y019574D03*
X022506Y019574D03*
X022664Y019574D03*
X022821Y019574D03*
X022979Y019574D03*
X023136Y019574D03*
X023294Y019574D03*
X023451Y019574D03*
X023609Y019574D03*
X023766Y019574D03*
X023924Y019574D03*
X024081Y019574D03*
X024239Y019574D03*
X024396Y019574D03*
X024554Y019574D03*
X024711Y019574D03*
X024869Y019574D03*
X025026Y019574D03*
X025184Y019574D03*
X025341Y019574D03*
X025499Y019574D03*
X025656Y019574D03*
X025814Y019574D03*
X025971Y019574D03*
X026129Y019574D03*
D17*
X022039Y013371D03*
X022039Y012702D03*
X040739Y016602D03*
X040739Y017271D03*
D18*
X024739Y020641D03*
X024739Y021232D03*
X013739Y013632D03*
X013739Y013041D03*
D19*
X007659Y017436D03*
X014239Y020436D03*
X015739Y022436D03*
X009920Y024149D03*
X007361Y024149D03*
X022639Y025936D03*
X031239Y025936D03*
X040239Y025936D03*
X043239Y025936D03*
X044239Y017936D03*
X036239Y017936D03*
X035239Y017936D03*
X031239Y017936D03*
X044239Y009936D03*
X043239Y008936D03*
X035239Y006936D03*
X026239Y006936D03*
X019239Y006936D03*
X014039Y006936D03*
D20*
X015039Y006936D03*
X016039Y006936D03*
X020239Y006936D03*
X021239Y006936D03*
X022239Y006936D03*
X023239Y006936D03*
X024239Y006936D03*
X027239Y006936D03*
X028239Y006936D03*
X029239Y006936D03*
X030239Y006936D03*
X031239Y006936D03*
X032239Y006936D03*
X033239Y006936D03*
X036239Y006936D03*
X037239Y006936D03*
X038239Y006936D03*
X039239Y006936D03*
X040239Y006936D03*
X041239Y006936D03*
X042239Y006936D03*
X044239Y008936D03*
X043239Y009936D03*
X043239Y010936D03*
X044239Y010936D03*
X044239Y011936D03*
X043239Y011936D03*
X043239Y012936D03*
X044239Y012936D03*
X044239Y013936D03*
X043239Y013936D03*
X043239Y014936D03*
X044239Y014936D03*
X044239Y015936D03*
X043239Y015936D03*
X043239Y016936D03*
X044239Y016936D03*
X043239Y017936D03*
X043239Y018936D03*
X044239Y018936D03*
X044239Y019936D03*
X043239Y019936D03*
X043239Y020936D03*
X044239Y020936D03*
X044239Y021936D03*
X043239Y021936D03*
X043239Y022936D03*
X044239Y022936D03*
X044239Y023936D03*
X043239Y023936D03*
X043239Y024936D03*
X044239Y024936D03*
X044239Y025936D03*
X039239Y025936D03*
X038239Y025936D03*
X037239Y025936D03*
X036239Y025936D03*
X035239Y025936D03*
X034239Y025936D03*
X033239Y025936D03*
X031239Y024936D03*
X030239Y024936D03*
X029239Y024936D03*
X028239Y024936D03*
X027239Y024936D03*
X026239Y024936D03*
X025239Y024936D03*
X024239Y024936D03*
X024239Y025936D03*
X025239Y025936D03*
X026239Y025936D03*
X027239Y025936D03*
X028239Y025936D03*
X029239Y025936D03*
X030239Y025936D03*
X022639Y024936D03*
X021639Y024936D03*
X020639Y024936D03*
X019639Y024936D03*
X018639Y024936D03*
X017639Y024936D03*
X016639Y024936D03*
X015639Y024936D03*
X015639Y025936D03*
X016639Y025936D03*
X017639Y025936D03*
X018639Y025936D03*
X019639Y025936D03*
X020639Y025936D03*
X021639Y025936D03*
X015739Y021436D03*
X015739Y020436D03*
X015739Y019436D03*
X014239Y019436D03*
X008239Y020070D03*
X008239Y021803D03*
X007361Y025921D03*
X009920Y025921D03*
X007819Y016436D03*
X007659Y015436D03*
X007819Y014436D03*
X007659Y013436D03*
X007819Y012436D03*
X031239Y015936D03*
X032239Y015936D03*
X032239Y016936D03*
X031239Y016936D03*
X032239Y017936D03*
X035239Y016936D03*
X036239Y016936D03*
X036239Y015936D03*
X035239Y015936D03*
D21*
X020293Y017036D03*
X019584Y016780D03*
X019584Y017292D03*
D22*
X007004Y006436D03*
X007673Y006436D03*
X013604Y024936D03*
X014273Y024936D03*
X014273Y026136D03*
X013604Y026136D03*
D23*
X012810Y012832D03*
X012810Y012635D03*
X012810Y012438D03*
X012810Y012241D03*
X011668Y012241D03*
X011668Y012438D03*
X011668Y012635D03*
X011668Y012832D03*
D24*
X012239Y012536D03*
D25*
X010434Y012336D03*
X009843Y012336D03*
X011443Y018536D03*
X012034Y018536D03*
D26*
X014133Y010636D03*
X015039Y010636D03*
X015944Y010636D03*
D27*
X015039Y013117D03*
D28*
X018039Y011230D03*
X018039Y010443D03*
D29*
X015590Y014436D03*
X014488Y014436D03*
X011090Y011436D03*
X009988Y011436D03*
D30*
X011164Y016086D03*
X011914Y016086D03*
X011539Y016986D03*
D31*
X017739Y008924D03*
X017739Y007349D03*
D32*
X012090Y014062D03*
X012090Y014810D03*
X010988Y014810D03*
X010988Y014436D03*
X010988Y014062D03*
D33*
X011283Y015436D03*
X011795Y015436D03*
D34*
X027364Y009186D03*
X027364Y008936D03*
X027364Y008686D03*
X028114Y008686D03*
X028114Y008936D03*
X028114Y009186D03*
X031364Y009186D03*
X031364Y008936D03*
X031364Y008686D03*
X032114Y008686D03*
X032114Y008936D03*
X032114Y009186D03*
X036364Y009186D03*
X036364Y008936D03*
X036364Y008686D03*
X037114Y008686D03*
X037114Y008936D03*
X037114Y009186D03*
X040364Y009186D03*
X040364Y008936D03*
X040364Y008686D03*
X041114Y008686D03*
X041114Y008936D03*
X041114Y009186D03*
D35*
X027289Y022061D03*
X027039Y022061D03*
X026789Y022061D03*
X026789Y022811D03*
X027039Y022811D03*
X027289Y022811D03*
D36*
X016270Y018098D03*
X015207Y018098D03*
X015207Y015775D03*
X016270Y015775D03*
D37*
X039483Y016591D03*
X039995Y016591D03*
X039739Y015882D03*
D38*
X017039Y011688D03*
X017039Y010585D03*
D39*
X009223Y019184D03*
X007058Y019184D03*
X007058Y022688D03*
X009223Y022688D03*
D40*
X009262Y021566D03*
X009262Y021251D03*
X009262Y020936D03*
X009262Y020621D03*
X009262Y020306D03*
D41*
X009295Y016791D03*
X009039Y016791D03*
X008783Y016791D03*
X008783Y016082D03*
X009295Y016082D03*
M02*
