%
M48
M72
T01C0.0090
T02C0.0130
T03C0.0260
T04C0.0420
T05C0.1260
%
T01
X6639Y6436
X8839Y6436
X17739Y11136
X21339Y13236
X20939Y13536
X20839Y13836
X21139Y14136
X22839Y14736
X23139Y14736
X23539Y14836
X23539Y15136
X23739Y15336
X24539Y15436
X24739Y15236
X25339Y14736
X25739Y15736
X26139Y15736
X26039Y16436
X25639Y16436
X25839Y17136
X25839Y17436
X24739Y18436
X25839Y18536
X25939Y18836
X26439Y18736
X27839Y18736
X27339Y17136
X27439Y16836
X28239Y16836
X29239Y17236
X31739Y17236
X32639Y17636
X32639Y16236
X31639Y15436
X30439Y15236
X28339Y15736
X27539Y15736
X27339Y13836
X26939Y13836
X25439Y13636
X25439Y12836
X24039Y12836
X23039Y12836
X22639Y12836
X24039Y13636
X23939Y14736
X22439Y15936
X22139Y15736
X22839Y16136
X22039Y16536
X22639Y16836
X22539Y17836
X22939Y18136
X23239Y18536
X23539Y18736
X23239Y19036
X22639Y18936
X22439Y19136
X22039Y19536
X20939Y19136
X20539Y19136
X20339Y19636
X20339Y20036
X19739Y19836
X19539Y20036
X19339Y20236
X19139Y20436
X18439Y20636
X18139Y20936
X17839Y21236
X17839Y21736
X16539Y23236
X14539Y24336
X14539Y24936
X14539Y25536
X14539Y26136
X10739Y25136
X10739Y23836
X12339Y22336
X12739Y22336
X11639Y22136
X11939Y21436
X11139Y21436
X11139Y20636
X11939Y20636
X12639Y20536
X12339Y19936
X12439Y19636
X12639Y19436
X11839Y18936
X11939Y18336
X10939Y18936
X10639Y20036
X10339Y20936
X9839Y20936
X13539Y21036
X14339Y21636
X17039Y17936
X18139Y17336
X18139Y17036
X19239Y17036
X19939Y16836
X19939Y17236
X20539Y16736
X20939Y16736
X19139Y15736
X17039Y15736
X14239Y15336
X11739Y14036
X11339Y14436
X11339Y15136
X9839Y14436
X9439Y14436
X9439Y13436
X10539Y12936
X9039Y17036
X21539Y21136
X24239Y20436
X24439Y21036
X24739Y21036
X26839Y21036
X27139Y20836
X26739Y22536
X26039Y23736
X28039Y24236
X28539Y25436
X29539Y23136
X29739Y22936
X30139Y22536
X28639Y22636
X28339Y22836
X23939Y23636
X23039Y23736
X22039Y24236
X22139Y18536
X33439Y22836
X35539Y21036
X36739Y21636
X36939Y22536
X37239Y22836
X40139Y23236
X40339Y23436
X41439Y22836
X41839Y22536
X40339Y17236
X39339Y17236
X39239Y16536
X37439Y15436
X35439Y15336
X34939Y15336
X27239Y10336
X26239Y10536
X28239Y10036
X29239Y9836
X30239Y9636
X31739Y9236
X32439Y8936
X33039Y8936
X35239Y9136
X36039Y9136
X36739Y9236
X37439Y8936
X38239Y8636
X39239Y8936
X39939Y9236
X40739Y9236
X41439Y9236
X42239Y9236
X40239Y8336
X30239Y8336
X29239Y8336
X28239Y8336
X27739Y8636
X27239Y8336
X26239Y8336
T02
X21439Y8936
X21039Y8936
X20639Y8936
X20239Y8936
X16639Y11436
X15739Y11736
X15239Y11736
X14739Y11736
X14239Y11736
X12439Y12136
X12039Y12136
X11239Y12036
X10839Y12036
X10839Y12436
X11239Y12436
X12039Y12936
X12439Y12936
X13539Y13036
X15339Y14036
X11139Y16836
X11139Y17136
X11539Y17436
X10339Y18036
X10139Y19536
X9539Y20036
X9239Y20036
X8939Y20036
X8939Y21836
X9239Y21836
X9539Y21836
X22039Y12336
X13539Y9836
X13539Y9536
X13139Y9536
X10239Y11036
X9839Y12136
T03
X10380Y8936
X7939Y8936
X9120Y7086
T04
X14039Y6936
X15039Y6936
X16039Y6936
X19239Y6936
X20239Y6936
X21239Y6936
X22239Y6936
X23239Y6936
X24239Y6936
X26239Y6936
X27239Y6936
X28239Y6936
X29239Y6936
X30239Y6936
X31239Y6936
X32239Y6936
X33239Y6936
X35239Y6936
X36239Y6936
X37239Y6936
X38239Y6936
X39239Y6936
X40239Y6936
X41239Y6936
X42239Y6936
X43239Y8936
X44239Y8936
X44239Y9936
X43239Y9936
X43239Y10936
X44239Y10936
X44239Y11936
X43239Y11936
X43239Y12936
X44239Y12936
X44239Y13936
X43239Y13936
X43239Y14936
X44239Y14936
X44239Y15936
X43239Y15936
X43239Y16936
X44239Y16936
X44239Y17936
X43239Y17936
X43239Y18936
X44239Y18936
X44239Y19936
X43239Y19936
X43239Y20936
X44239Y20936
X44239Y21936
X43239Y21936
X43239Y22936
X44239Y22936
X44239Y23936
X43239Y23936
X43239Y24936
X44239Y24936
X44239Y25936
X43239Y25936
X40239Y25936
X39239Y25936
X38239Y25936
X37239Y25936
X36239Y25936
X35239Y25936
X34239Y25936
X33239Y25936
X31239Y25936
X30239Y25936
X29239Y25936
X28239Y25936
X27239Y25936
X26239Y25936
X25239Y25936
X24239Y25936
X24239Y24936
X25239Y24936
X26239Y24936
X27239Y24936
X28239Y24936
X29239Y24936
X30239Y24936
X31239Y24936
X22639Y24936
X21639Y24936
X20639Y24936
X19639Y24936
X18639Y24936
X17639Y24936
X16639Y24936
X15639Y24936
X15639Y25936
X16639Y25936
X17639Y25936
X18639Y25936
X19639Y25936
X20639Y25936
X21639Y25936
X22639Y25936
X15739Y22436
X15739Y21436
X15739Y20436
X14239Y20436
X14239Y19436
X15739Y19436
X8239Y20070
X8239Y21803
X7361Y24149
X9920Y24149
X9920Y25921
X7361Y25921
X7659Y17436
X7819Y16436
X7659Y15436
X7819Y14436
X7659Y13436
X7819Y12436
X31239Y15936
X32239Y15936
X32239Y16936
X31239Y16936
X31239Y17936
X32239Y17936
X35239Y17936
X36239Y17936
X36239Y16936
X35239Y16936
X35239Y15936
X36239Y15936
T05
X44239Y6936
X12239Y6936
X12239Y25936
X41739Y25936
M30
