G75*
G70*
%OFA0B0*%
%FSLAX24Y24*%
%IPPOS*%
%LPD*%
%AMOC8*
5,1,8,0,0,1.08239X$1,22.5*
%
%ADD10C,0.0000*%
%ADD11C,0.0030*%
%ADD12C,0.0060*%
%ADD13C,0.0260*%
D10*
X006239Y000236D02*
X006239Y000736D01*
X006839Y001036D01*
X006839Y000436D01*
X006239Y000736D01*
X024639Y000736D01*
X028139Y000736D02*
X046239Y000736D01*
X045839Y000536D01*
X045839Y000936D01*
X046239Y000736D01*
X046239Y000536D01*
X046239Y000736D02*
X046239Y005636D01*
X046239Y005936D02*
X006239Y005936D01*
X006239Y026936D01*
X046239Y026936D01*
X046239Y005936D01*
X044239Y006736D02*
X044239Y003036D01*
X043639Y002736D01*
X043639Y003336D01*
X044239Y003036D01*
X025039Y003036D01*
X022339Y003036D02*
X006239Y003036D01*
X006839Y003336D01*
X006839Y002736D01*
X006239Y003036D01*
X006239Y000736D01*
X006239Y003036D02*
X006239Y005036D01*
X006839Y005336D01*
X006839Y004736D01*
X006239Y005036D01*
X008239Y005036D01*
X006239Y005036D02*
X006239Y005336D01*
X005639Y005936D02*
X004439Y005936D01*
X004739Y006236D01*
X004139Y006236D01*
X004439Y005936D01*
X004439Y006936D01*
X004739Y006636D01*
X004139Y006636D01*
X004439Y006936D01*
X012239Y006936D01*
X011609Y006936D02*
X011611Y006986D01*
X011617Y007036D01*
X011627Y007085D01*
X011641Y007133D01*
X011658Y007180D01*
X011679Y007225D01*
X011704Y007269D01*
X011732Y007310D01*
X011764Y007349D01*
X011798Y007386D01*
X011835Y007420D01*
X011875Y007450D01*
X011917Y007477D01*
X011961Y007501D01*
X012007Y007522D01*
X012054Y007538D01*
X012102Y007551D01*
X012152Y007560D01*
X012201Y007565D01*
X012252Y007566D01*
X012302Y007563D01*
X012351Y007556D01*
X012400Y007545D01*
X012448Y007530D01*
X012494Y007512D01*
X012539Y007490D01*
X012582Y007464D01*
X012623Y007435D01*
X012662Y007403D01*
X012698Y007368D01*
X012730Y007330D01*
X012760Y007290D01*
X012787Y007247D01*
X012810Y007203D01*
X012829Y007157D01*
X012845Y007109D01*
X012857Y007060D01*
X012865Y007011D01*
X012869Y006961D01*
X012869Y006911D01*
X012865Y006861D01*
X012857Y006812D01*
X012845Y006763D01*
X012829Y006715D01*
X012810Y006669D01*
X012787Y006625D01*
X012760Y006582D01*
X012730Y006542D01*
X012698Y006504D01*
X012662Y006469D01*
X012623Y006437D01*
X012582Y006408D01*
X012539Y006382D01*
X012494Y006360D01*
X012448Y006342D01*
X012400Y006327D01*
X012351Y006316D01*
X012302Y006309D01*
X012252Y006306D01*
X012201Y006307D01*
X012152Y006312D01*
X012102Y006321D01*
X012054Y006334D01*
X012007Y006350D01*
X011961Y006371D01*
X011917Y006395D01*
X011875Y006422D01*
X011835Y006452D01*
X011798Y006486D01*
X011764Y006523D01*
X011732Y006562D01*
X011704Y006603D01*
X011679Y006647D01*
X011658Y006692D01*
X011641Y006739D01*
X011627Y006787D01*
X011617Y006836D01*
X011611Y006886D01*
X011609Y006936D01*
X012239Y006936D02*
X012239Y005036D01*
X011639Y004736D01*
X011639Y005336D01*
X012239Y005036D01*
X010339Y005036D01*
X012239Y005036D02*
X012239Y004836D01*
X008274Y007097D02*
X004574Y007097D01*
X004569Y007096D02*
X003579Y007096D01*
X003579Y009396D01*
X003574Y009497D02*
X003574Y009097D01*
X007674Y009097D01*
X006874Y008997D01*
X006874Y009197D01*
X007674Y009097D01*
X009274Y009397D02*
X010074Y009497D01*
X003574Y009497D01*
X003574Y010097D01*
X007474Y007197D02*
X007474Y006997D01*
X008274Y007097D01*
X007474Y007197D01*
X004439Y006936D02*
X003639Y006936D01*
X003239Y006536D02*
X002639Y006536D01*
X002939Y005936D01*
X003239Y006536D01*
X002939Y005936D02*
X002939Y015536D01*
X002939Y016936D02*
X002939Y025936D01*
X003239Y025336D01*
X002639Y025336D01*
X002939Y025936D01*
X002439Y025936D01*
X002939Y025936D02*
X012039Y025936D01*
X011609Y025936D02*
X011611Y025986D01*
X011617Y026036D01*
X011627Y026085D01*
X011641Y026133D01*
X011658Y026180D01*
X011679Y026225D01*
X011704Y026269D01*
X011732Y026310D01*
X011764Y026349D01*
X011798Y026386D01*
X011835Y026420D01*
X011875Y026450D01*
X011917Y026477D01*
X011961Y026501D01*
X012007Y026522D01*
X012054Y026538D01*
X012102Y026551D01*
X012152Y026560D01*
X012201Y026565D01*
X012252Y026566D01*
X012302Y026563D01*
X012351Y026556D01*
X012400Y026545D01*
X012448Y026530D01*
X012494Y026512D01*
X012539Y026490D01*
X012582Y026464D01*
X012623Y026435D01*
X012662Y026403D01*
X012698Y026368D01*
X012730Y026330D01*
X012760Y026290D01*
X012787Y026247D01*
X012810Y026203D01*
X012829Y026157D01*
X012845Y026109D01*
X012857Y026060D01*
X012865Y026011D01*
X012869Y025961D01*
X012869Y025911D01*
X012865Y025861D01*
X012857Y025812D01*
X012845Y025763D01*
X012829Y025715D01*
X012810Y025669D01*
X012787Y025625D01*
X012760Y025582D01*
X012730Y025542D01*
X012698Y025504D01*
X012662Y025469D01*
X012623Y025437D01*
X012582Y025408D01*
X012539Y025382D01*
X012494Y025360D01*
X012448Y025342D01*
X012400Y025327D01*
X012351Y025316D01*
X012302Y025309D01*
X012252Y025306D01*
X012201Y025307D01*
X012152Y025312D01*
X012102Y025321D01*
X012054Y025334D01*
X012007Y025350D01*
X011961Y025371D01*
X011917Y025395D01*
X011875Y025422D01*
X011835Y025452D01*
X011798Y025486D01*
X011764Y025523D01*
X011732Y025562D01*
X011704Y025603D01*
X011679Y025647D01*
X011658Y025692D01*
X011641Y025739D01*
X011627Y025787D01*
X011617Y025836D01*
X011611Y025886D01*
X011609Y025936D01*
X005739Y026936D02*
X001139Y026936D01*
X001439Y026336D01*
X000839Y026336D01*
X001139Y026936D01*
X001139Y018836D01*
X001139Y017636D02*
X001139Y005936D01*
X001439Y006436D01*
X000839Y006436D01*
X001139Y005936D01*
X000539Y005936D01*
X001139Y005936D02*
X002939Y005936D01*
X004439Y005936D01*
X009274Y009397D02*
X009274Y009597D01*
X010074Y009497D01*
X001139Y026936D02*
X000639Y026936D01*
X041109Y025936D02*
X041111Y025986D01*
X041117Y026036D01*
X041127Y026085D01*
X041141Y026133D01*
X041158Y026180D01*
X041179Y026225D01*
X041204Y026269D01*
X041232Y026310D01*
X041264Y026349D01*
X041298Y026386D01*
X041335Y026420D01*
X041375Y026450D01*
X041417Y026477D01*
X041461Y026501D01*
X041507Y026522D01*
X041554Y026538D01*
X041602Y026551D01*
X041652Y026560D01*
X041701Y026565D01*
X041752Y026566D01*
X041802Y026563D01*
X041851Y026556D01*
X041900Y026545D01*
X041948Y026530D01*
X041994Y026512D01*
X042039Y026490D01*
X042082Y026464D01*
X042123Y026435D01*
X042162Y026403D01*
X042198Y026368D01*
X042230Y026330D01*
X042260Y026290D01*
X042287Y026247D01*
X042310Y026203D01*
X042329Y026157D01*
X042345Y026109D01*
X042357Y026060D01*
X042365Y026011D01*
X042369Y025961D01*
X042369Y025911D01*
X042365Y025861D01*
X042357Y025812D01*
X042345Y025763D01*
X042329Y025715D01*
X042310Y025669D01*
X042287Y025625D01*
X042260Y025582D01*
X042230Y025542D01*
X042198Y025504D01*
X042162Y025469D01*
X042123Y025437D01*
X042082Y025408D01*
X042039Y025382D01*
X041994Y025360D01*
X041948Y025342D01*
X041900Y025327D01*
X041851Y025316D01*
X041802Y025309D01*
X041752Y025306D01*
X041701Y025307D01*
X041652Y025312D01*
X041602Y025321D01*
X041554Y025334D01*
X041507Y025350D01*
X041461Y025371D01*
X041417Y025395D01*
X041375Y025422D01*
X041335Y025452D01*
X041298Y025486D01*
X041264Y025523D01*
X041232Y025562D01*
X041204Y025603D01*
X041179Y025647D01*
X041158Y025692D01*
X041141Y025739D01*
X041127Y025787D01*
X041117Y025836D01*
X041111Y025886D01*
X041109Y025936D01*
X043609Y006936D02*
X043611Y006986D01*
X043617Y007036D01*
X043627Y007085D01*
X043641Y007133D01*
X043658Y007180D01*
X043679Y007225D01*
X043704Y007269D01*
X043732Y007310D01*
X043764Y007349D01*
X043798Y007386D01*
X043835Y007420D01*
X043875Y007450D01*
X043917Y007477D01*
X043961Y007501D01*
X044007Y007522D01*
X044054Y007538D01*
X044102Y007551D01*
X044152Y007560D01*
X044201Y007565D01*
X044252Y007566D01*
X044302Y007563D01*
X044351Y007556D01*
X044400Y007545D01*
X044448Y007530D01*
X044494Y007512D01*
X044539Y007490D01*
X044582Y007464D01*
X044623Y007435D01*
X044662Y007403D01*
X044698Y007368D01*
X044730Y007330D01*
X044760Y007290D01*
X044787Y007247D01*
X044810Y007203D01*
X044829Y007157D01*
X044845Y007109D01*
X044857Y007060D01*
X044865Y007011D01*
X044869Y006961D01*
X044869Y006911D01*
X044865Y006861D01*
X044857Y006812D01*
X044845Y006763D01*
X044829Y006715D01*
X044810Y006669D01*
X044787Y006625D01*
X044760Y006582D01*
X044730Y006542D01*
X044698Y006504D01*
X044662Y006469D01*
X044623Y006437D01*
X044582Y006408D01*
X044539Y006382D01*
X044494Y006360D01*
X044448Y006342D01*
X044400Y006327D01*
X044351Y006316D01*
X044302Y006309D01*
X044252Y006306D01*
X044201Y006307D01*
X044152Y006312D01*
X044102Y006321D01*
X044054Y006334D01*
X044007Y006350D01*
X043961Y006371D01*
X043917Y006395D01*
X043875Y006422D01*
X043835Y006452D01*
X043798Y006486D01*
X043764Y006523D01*
X043732Y006562D01*
X043704Y006603D01*
X043679Y006647D01*
X043658Y006692D01*
X043641Y006739D01*
X043627Y006787D01*
X043617Y006836D01*
X043611Y006886D01*
X043609Y006936D01*
X044239Y003036D02*
X044239Y002736D01*
D11*
X004459Y010274D02*
X004397Y010212D01*
X004151Y010459D01*
X004397Y010459D01*
X004459Y010397D01*
X004459Y010274D01*
X004397Y010212D02*
X004151Y010212D01*
X004089Y010274D01*
X004089Y010397D01*
X004151Y010459D01*
X004397Y010580D02*
X004397Y010642D01*
X004459Y010642D01*
X004459Y010580D01*
X004397Y010580D01*
X004397Y010764D02*
X004151Y010764D01*
X004089Y010826D01*
X004089Y010950D01*
X004151Y011011D01*
X004397Y010764D01*
X004459Y010826D01*
X004459Y010950D01*
X004397Y011011D01*
X004151Y011011D01*
X004151Y011133D02*
X004089Y011194D01*
X004089Y011318D01*
X004151Y011380D01*
X004212Y011380D01*
X004459Y011133D01*
X004459Y011380D01*
X004397Y011501D02*
X004459Y011563D01*
X004459Y011686D01*
X004397Y011748D01*
X004336Y011748D01*
X004274Y011686D01*
X004274Y011501D01*
X004397Y011501D01*
X004274Y011501D02*
X004151Y011624D01*
X004089Y011748D01*
X003759Y011808D02*
X003759Y011993D01*
X003697Y012055D01*
X003451Y012055D01*
X003389Y011993D01*
X003389Y011808D01*
X003759Y011808D01*
X003759Y012176D02*
X003512Y012176D01*
X003636Y012176D02*
X003512Y012300D01*
X003512Y012361D01*
X003512Y012483D02*
X003512Y012545D01*
X003759Y012545D01*
X003759Y012483D02*
X003759Y012607D01*
X003759Y012729D02*
X003759Y012852D01*
X003759Y012790D02*
X003389Y012790D01*
X003389Y012729D01*
X003389Y012545D02*
X003327Y012545D01*
X003389Y012974D02*
X003389Y013036D01*
X003759Y013036D01*
X003759Y012974D02*
X003759Y013098D01*
X003759Y013220D02*
X003759Y013405D01*
X003697Y013467D01*
X003636Y013405D01*
X003636Y013281D01*
X003574Y013220D01*
X003512Y013281D01*
X003512Y013467D01*
X004089Y013650D02*
X004459Y013650D01*
X004459Y013527D02*
X004459Y013774D01*
X004459Y013895D02*
X004212Y014142D01*
X004151Y014142D01*
X004089Y014080D01*
X004089Y013957D01*
X004151Y013895D01*
X004089Y013650D02*
X004212Y013527D01*
X004397Y013404D02*
X004459Y013404D01*
X004459Y013343D01*
X004397Y013343D01*
X004397Y013404D01*
X004397Y013221D02*
X004151Y013221D01*
X004397Y012974D01*
X004459Y013036D01*
X004459Y013159D01*
X004397Y013221D01*
X004151Y013221D02*
X004089Y013159D01*
X004089Y013036D01*
X004151Y012974D01*
X004397Y012974D01*
X004459Y012485D02*
X004212Y012238D01*
X004459Y012238D02*
X004212Y012485D01*
X003759Y011318D02*
X003697Y011256D01*
X003451Y011256D01*
X003512Y011194D02*
X003512Y011318D01*
X003574Y011073D02*
X003512Y011011D01*
X003512Y010888D01*
X003574Y010826D01*
X003697Y010826D01*
X003759Y010888D01*
X003759Y011011D01*
X003697Y011073D01*
X003574Y011073D01*
X003759Y010704D02*
X003759Y010580D01*
X003759Y010642D02*
X003389Y010642D01*
X003389Y010580D01*
X003451Y010459D02*
X003389Y010397D01*
X003389Y010274D01*
X003451Y010212D01*
X003512Y010212D01*
X003574Y010274D01*
X003574Y010397D01*
X003636Y010459D01*
X003697Y010459D01*
X003759Y010397D01*
X003759Y010274D01*
X003697Y010212D01*
X004459Y013895D02*
X004459Y014142D01*
X004397Y014263D02*
X004459Y014325D01*
X004459Y014449D01*
X004397Y014510D01*
X004274Y014510D01*
X004212Y014449D01*
X004212Y014387D01*
X004274Y014263D01*
X004089Y014263D01*
X004089Y014510D01*
X004212Y014632D02*
X004151Y014693D01*
X004027Y014693D01*
X004027Y014817D02*
X004151Y014817D01*
X004212Y014755D01*
D12*
X003556Y015966D02*
X003342Y015966D01*
X003236Y016073D01*
X003663Y016500D01*
X003663Y016073D01*
X003556Y015966D01*
X003236Y016073D02*
X003236Y016500D01*
X003342Y016607D01*
X003556Y016607D01*
X003663Y016500D01*
X003880Y016393D02*
X003987Y016500D01*
X003987Y016714D01*
X004200Y016714D02*
X004200Y016500D01*
X004094Y016393D01*
X003020Y016073D02*
X003020Y015966D01*
X002913Y015966D01*
X002913Y016073D01*
X003020Y016073D01*
X002696Y015966D02*
X002269Y015966D01*
X002696Y016393D01*
X002696Y016500D01*
X002589Y016607D01*
X002375Y016607D01*
X002269Y016500D01*
X001763Y017966D02*
X001336Y017966D01*
X001549Y017966D02*
X001549Y018607D01*
X001336Y018393D01*
X001120Y018073D02*
X001120Y017966D01*
X001013Y017966D01*
X001013Y018073D01*
X001120Y018073D01*
X000796Y017966D02*
X000369Y017966D01*
X000796Y018393D01*
X000796Y018500D01*
X000689Y018607D01*
X000475Y018607D01*
X000369Y018500D01*
X001980Y018393D02*
X002087Y018500D01*
X002087Y018714D01*
X002300Y018714D02*
X002300Y018500D01*
X002194Y018393D01*
X003875Y005707D02*
X004089Y005707D01*
X004196Y005600D01*
X003769Y005173D01*
X003875Y005066D01*
X004089Y005066D01*
X004196Y005173D01*
X004196Y005600D01*
X003875Y005707D02*
X003769Y005600D01*
X003769Y005173D01*
X004413Y005173D02*
X004413Y005066D01*
X004520Y005066D01*
X004520Y005173D01*
X004413Y005173D01*
X004736Y005066D02*
X005163Y005066D01*
X004949Y005066D02*
X004949Y005707D01*
X004736Y005493D01*
X005380Y005493D02*
X005487Y005600D01*
X005487Y005814D01*
X005700Y005814D02*
X005700Y005600D01*
X005594Y005493D01*
X008469Y005300D02*
X008469Y004873D01*
X008896Y005300D01*
X008896Y004873D01*
X008789Y004766D01*
X008575Y004766D01*
X008469Y004873D01*
X009113Y004873D02*
X009220Y004873D01*
X009220Y004766D01*
X009113Y004766D01*
X009113Y004873D01*
X009436Y004873D02*
X009436Y005087D01*
X009756Y005087D01*
X009863Y004980D01*
X009863Y004873D01*
X009756Y004766D01*
X009542Y004766D01*
X009436Y004873D01*
X009436Y005087D02*
X009649Y005300D01*
X009863Y005407D01*
X010080Y005193D02*
X010187Y005300D01*
X010187Y005514D01*
X010400Y005514D02*
X010400Y005300D01*
X010294Y005193D01*
X008896Y005300D02*
X008789Y005407D01*
X008575Y005407D01*
X008469Y005300D01*
X022769Y003300D02*
X022875Y003407D01*
X023089Y003407D01*
X023196Y003300D01*
X023196Y003193D01*
X023089Y003087D01*
X023196Y002980D01*
X023196Y002873D01*
X023089Y002766D01*
X022875Y002766D01*
X022769Y002873D01*
X022982Y003087D02*
X023089Y003087D01*
X023413Y002873D02*
X023520Y002873D01*
X023520Y002766D01*
X023413Y002766D01*
X023413Y002873D01*
X023736Y002873D02*
X023736Y002980D01*
X023842Y003087D01*
X024056Y003087D01*
X024163Y002980D01*
X024163Y002873D01*
X024056Y002766D01*
X023842Y002766D01*
X023736Y002873D01*
X023842Y003087D02*
X023736Y003193D01*
X023736Y003300D01*
X023842Y003407D01*
X024056Y003407D01*
X024163Y003300D01*
X024163Y003193D01*
X024056Y003087D01*
X024380Y003193D02*
X024487Y003300D01*
X024487Y003514D01*
X024700Y003514D02*
X024700Y003300D01*
X024594Y003193D01*
X027287Y001114D02*
X027287Y000900D01*
X027180Y000793D01*
X027394Y000793D02*
X027500Y000900D01*
X027500Y001114D01*
X026963Y000900D02*
X026536Y000473D01*
X026642Y000366D01*
X026856Y000366D01*
X026963Y000473D01*
X026963Y000900D01*
X026856Y001007D01*
X026642Y001007D01*
X026536Y000900D01*
X026536Y000473D01*
X026320Y000473D02*
X026320Y000366D01*
X026213Y000366D01*
X026213Y000473D01*
X026320Y000473D01*
X025996Y000687D02*
X025569Y000687D01*
X025889Y001007D01*
X025889Y000366D01*
D13*
X010380Y008311D02*
X010380Y009561D01*
X007939Y009561D02*
X007939Y008311D01*
X008495Y007086D02*
X009745Y007086D01*
M02*
