  0
SECTION
  2
HEADER
  9
$ACADVER
  1
AC1009
  9
$FILLMODE
 70
1
  9
$EXTMIN
 10
-0.2032
 20
0.0508
 30
0.0000
  9
$EXTMAX
 10
44.6532
 20
42.6212
 30
0.0000
  0
ENDSEC
  0
SECTION
  2
TABLES
  0
TABLE
  2
LTYPE
 70
1
  0
LTYPE
  2
CONTINUOUS
 70
64
  3
Solid line
 72
65
 73
0
 40
0
  0
ENDTAB
  0
TABLE
  2
LAYER
 70
255
  0
LAYER
  2
17
 70
64
 62
82
  6
CONTINUOUS
  0
LAYER
  2
20
 70
64
 62
7
  6
CONTINUOUS
  0
LAYER
  2
21
 70
64
 62
253
  6
CONTINUOUS
  0
LAYER
  2
41
 70
64
 62
22
  6
CONTINUOUS
  0
LAYER
  2
42
 70
64
 62
175
  6
CONTINUOUS
  0
LAYER
  2
43
 70
64
 62
82
  6
CONTINUOUS
  0
LAYER
  2
45
 70
64
 62
253
  6
CONTINUOUS
  0
LAYER
  2
128
 70
64
 62
253
  6
CONTINUOUS
  0
LAYER
  2
130
 70
64
 62
253
  6
CONTINUOUS
  0
LAYER
  2
201
 70
64
 62
253
  6
CONTINUOUS
  0
LAYER
  2
206
 70
64
 62
253
  6
CONTINUOUS
  0
LAYER
  2
207
 70
64
 62
253
  6
CONTINUOUS
  0
LAYER
  2
208
 70
64
 62
253
  6
CONTINUOUS
  0
LAYER
  2
209
 70
64
 62
253
  6
CONTINUOUS
  0
LAYER
  2
210
 70
64
 62
253
  6
CONTINUOUS
  0
LAYER
  2
211
 70
64
 62
253
  6
CONTINUOUS
  0
LAYER
  2
212
 70
64
 62
253
  6
CONTINUOUS
  0
LAYER
  2
213
 70
64
 62
253
  6
CONTINUOUS
  0
LAYER
  2
214
 70
64
 62
253
  6
CONTINUOUS
  0
LAYER
  2
215
 70
64
 62
253
  6
CONTINUOUS
  0
LAYER
  2
250
 70
64
 62
253
  6
CONTINUOUS
  0
ENDTAB
  0
ENDSEC
  0
SECTION
  2
BLOCKS
  0
BLOCK
  8
0
  2
RECT
 70
64
 10
0.0000
 20
0.0000
 30
0.0000
  3
RECT
  0
SOLID
  8
0
 10
-0.5000
 20
-0.5000
 30
0.0000
 11
0.5000
 21
-0.5000
 31
0.0000
 12
-0.5000
 22
0.5000
 32
0.0000
 13
0.5000
 23
0.5000
 33
0.0000
  0
ENDBLK
  8
0
  0
BLOCK
  8
0
  2
PIE
 70
64
 10
0.0000
 20
0.0000
 30
0.0000
  3
PIE
  0
POLYLINE
  8
0
 66
1
 10
0.0000
 20
0.0000
 30
0.0000
 40
0.5000
 41
0.5000
 70
0
  0
VERTEX
  8
0
 10
0.0000
 20
-0.2500
 30
0.0000
 42
1.0000
  0
VERTEX
  8
0
 10
0.0000
 20
0.2500
 30
0.0000
 42
1.0000
  0
VERTEX
  8
0
 10
0.0000
 20
-0.2500
 30
0.0000
  0
SEQEND
  8
0
  0
ENDBLK
  8
0
  0
BLOCK
  8
0
  2
OCTAGONP
 70
64
 10
0.0000
 20
0.0000
 30
0.0000
  3
OCTAGONP
  0
POLYLINE
  8
0
 66
1
 10
0.0000
 20
0.0000
 30
0.0000
 40
0.5000
 41
0.5000
 70
0
  0
VERTEX
  8
0
 10
-0.2500
 20
-0.1036
 30
0.0000
  0
VERTEX
  8
0
 10
-0.2500
 20
0.1036
 30
0.0000
  0
VERTEX
  8
0
 10
-0.1036
 20
0.2500
 30
0.0000
  0
VERTEX
  8
0
 10
0.1036
 20
0.2500
 30
0.0000
  0
VERTEX
  8
0
 10
0.2500
 20
0.1036
 30
0.0000
  0
VERTEX
  8
0
 10
0.2500
 20
-0.1036
 30
0.0000
  0
VERTEX
  8
0
 10
0.1036
 20
-0.2500
 30
0.0000
  0
VERTEX
  8
0
 10
-0.1036
 20
-0.2500
 30
0.0000
  0
VERTEX
  8
0
 10
-0.2500
 20
-0.1036
 30
0.0000
  0
VERTEX
  8
0
 10
-0.2500
 20
0.1036
 30
0.0000
  0
SEQEND
  8
0
  0
ENDBLK
  8
0
  0
BLOCK
  8
0
  2
SQUAREP
 70
64
 10
0.0000
 20
0.0000
 30
0.0000
  3
SQUAREP
  0
SOLID
  8
0
 10
-0.5000
 20
-0.5000
 30
0.0000
 11
0.5000
 21
-0.5000
 31
0.0000
 12
-0.5000
 22
0.5000
 32
0.0000
 13
0.5000
 23
0.5000
 33
0.0000
  0
ENDBLK
  8
0
  0
BLOCK
  8
0
  2
ROUNDP
 70
64
 10
0.0000
 20
0.0000
 30
0.0000
  3
ROUNDP
  0
POLYLINE
  8
0
 66
1
 10
0.0000
 20
0.0000
 30
0.0000
 40
0.5000
 41
0.5000
 70
0
  0
VERTEX
  8
0
 10
0.0000
 20
-0.2500
 30
0.0000
 42
1.0000
  0
VERTEX
  8
0
 10
0.0000
 20
0.2500
 30
0.0000
 42
1.0000
  0
VERTEX
  8
0
 10
0.0000
 20
-0.2500
 30
0.0000
  0
SEQEND
  8
0
  0
ENDBLK
  8
0
  0
BLOCK
  8
0
  2
ANNULUSP
 70
64
 10
0.0000
 20
0.0000
 30
0.0000
  3
ANNULUSP
  0
POLYLINE
  8
0
 66
1
 10
0.0000
 20
0.0000
 30
0.0000
 40
0.5000
 41
0.5000
 70
0
  0
VERTEX
  8
0
 10
0.0000
 20
-0.2500
 30
0.0000
 42
1.0000
  0
VERTEX
  8
0
 10
0.0000
 20
0.2500
 30
0.0000
 42
1.0000
  0
VERTEX
  8
0
 10
0.0000
 20
-0.2500
 30
0.0000
  0
SEQEND
  8
0
  0
ENDBLK
  8
0
  0
BLOCK
  8
0
  2
THERMALP
 70
64
 10
0.0000
 20
0.0000
 30
0.0000
  3
THERMALP
  0
POLYLINE
  8
0
 66
1
 10
0.0000
 20
0.0000
 30
0.0000
 40
0.1000
 41
0.1000
 70
0
  0
VERTEX
  8
0
 10
-0.2379
 20
0.4500
 30
0.0000
  0
VERTEX
  8
0
 10
0.2379
 20
0.4500
 30
0.0000
  0
SEQEND
  8
0
  0
POLYLINE
  8
0
 66
1
 10
0.0000
 20
0.0000
 30
0.0000
 40
0.0500
 41
0.0500
 70
0
  0
VERTEX
  8
0
 10
0.2379
 20
0.4250
 30
0.0000
 42
1.0000
  0
VERTEX
  8
0
 10
0.2379
 20
0.4750
 30
0.0000
  0
SEQEND
  8
0
  0
POLYLINE
  8
0
 66
1
 10
0.0000
 20
0.0000
 30
0.0000
 40
0.0500
 41
0.0500
 70
0
  0
VERTEX
  8
0
 10
-0.2379
 20
0.4750
 30
0.0000
 42
1.0000
  0
VERTEX
  8
0
 10
-0.2379
 20
0.4250
 30
0.0000
  0
SEQEND
  8
0
  0
POLYLINE
  8
0
 66
1
 10
0.0000
 20
0.0000
 30
0.0000
 40
0.1000
 41
0.1000
 70
0
  0
VERTEX
  8
0
 10
0.4500
 20
0.2379
 30
0.0000
  0
VERTEX
  8
0
 10
0.4500
 20
-0.2379
 30
0.0000
  0
SEQEND
  8
0
  0
POLYLINE
  8
0
 66
1
 10
0.0000
 20
0.0000
 30
0.0000
 40
0.0500
 41
0.0500
 70
0
  0
VERTEX
  8
0
 10
0.4250
 20
-0.2379
 30
0.0000
 42
1.0000
  0
VERTEX
  8
0
 10
0.4750
 20
-0.2379
 30
0.0000
  0
SEQEND
  8
0
  0
POLYLINE
  8
0
 66
1
 10
0.0000
 20
0.0000
 30
0.0000
 40
0.0500
 41
0.0500
 70
0
  0
VERTEX
  8
0
 10
0.4750
 20
0.2379
 30
0.0000
 42
1.0000
  0
VERTEX
  8
0
 10
0.4250
 20
0.2379
 30
0.0000
  0
SEQEND
  8
0
  0
POLYLINE
  8
0
 66
1
 10
0.0000
 20
0.0000
 30
0.0000
 40
0.1000
 41
0.1000
 70
0
  0
VERTEX
  8
0
 10
0.2379
 20
-0.4500
 30
0.0000
  0
VERTEX
  8
0
 10
-0.2379
 20
-0.4500
 30
0.0000
  0
SEQEND
  8
0
  0
POLYLINE
  8
0
 66
1
 10
0.0000
 20
0.0000
 30
0.0000
 40
0.0500
 41
0.0500
 70
0
  0
VERTEX
  8
0
 10
-0.2379
 20
-0.4250
 30
0.0000
 42
1.0000
  0
VERTEX
  8
0
 10
-0.2379
 20
-0.4750
 30
0.0000
  0
SEQEND
  8
0
  0
POLYLINE
  8
0
 66
1
 10
0.0000
 20
0.0000
 30
0.0000
 40
0.0500
 41
0.0500
 70
0
  0
VERTEX
  8
0
 10
0.2379
 20
-0.4750
 30
0.0000
 42
1.0000
  0
VERTEX
  8
0
 10
0.2379
 20
-0.4250
 30
0.0000
  0
SEQEND
  8
0
  0
POLYLINE
  8
0
 66
1
 10
0.0000
 20
0.0000
 30
0.0000
 40
0.1000
 41
0.1000
 70
0
  0
VERTEX
  8
0
 10
-0.4500
 20
-0.2379
 30
0.0000
  0
VERTEX
  8
0
 10
-0.4500
 20
0.2379
 30
0.0000
  0
SEQEND
  8
0
  0
POLYLINE
  8
0
 66
1
 10
0.0000
 20
0.0000
 30
0.0000
 40
0.0500
 41
0.0500
 70
0
  0
VERTEX
  8
0
 10
-0.4250
 20
0.2379
 30
0.0000
 42
1.0000
  0
VERTEX
  8
0
 10
-0.4750
 20
0.2379
 30
0.0000
  0
SEQEND
  8
0
  0
POLYLINE
  8
0
 66
1
 10
0.0000
 20
0.0000
 30
0.0000
 40
0.0500
 41
0.0500
 70
0
  0
VERTEX
  8
0
 10
-0.4750
 20
-0.2379
 30
0.0000
 42
1.0000
  0
VERTEX
  8
0
 10
-0.4250
 20
-0.2379
 30
0.0000
  0
SEQEND
  8
0
  0
ENDBLK
  8
0
  0
BLOCK
  8
0
  2
OCTAGONV
 70
64
 10
0.0000
 20
0.0000
 30
0.0000
  3
OCTAGONV
  0
POLYLINE
  8
0
 66
1
 10
0.0000
 20
0.0000
 30
0.0000
 40
0.5000
 41
0.5000
 70
0
  0
VERTEX
  8
0
 10
-0.2500
 20
-0.1036
 30
0.0000
  0
VERTEX
  8
0
 10
-0.2500
 20
0.1036
 30
0.0000
  0
VERTEX
  8
0
 10
-0.1036
 20
0.2500
 30
0.0000
  0
VERTEX
  8
0
 10
0.1036
 20
0.2500
 30
0.0000
  0
VERTEX
  8
0
 10
0.2500
 20
0.1036
 30
0.0000
  0
VERTEX
  8
0
 10
0.2500
 20
-0.1036
 30
0.0000
  0
VERTEX
  8
0
 10
0.1036
 20
-0.2500
 30
0.0000
  0
VERTEX
  8
0
 10
-0.1036
 20
-0.2500
 30
0.0000
  0
VERTEX
  8
0
 10
-0.2500
 20
-0.1036
 30
0.0000
  0
VERTEX
  8
0
 10
-0.2500
 20
0.1036
 30
0.0000
  0
SEQEND
  8
0
  0
ENDBLK
  8
0
  0
BLOCK
  8
0
  2
SQUAREV
 70
64
 10
0.0000
 20
0.0000
 30
0.0000
  3
SQUAREV
  0
SOLID
  8
0
 10
-0.5000
 20
-0.5000
 30
0.0000
 11
0.5000
 21
-0.5000
 31
0.0000
 12
-0.5000
 22
0.5000
 32
0.0000
 13
0.5000
 23
0.5000
 33
0.0000
  0
ENDBLK
  8
0
  0
BLOCK
  8
0
  2
ROUNDV
 70
64
 10
0.0000
 20
0.0000
 30
0.0000
  3
ROUNDV
  0
POLYLINE
  8
0
 66
1
 10
0.0000
 20
0.0000
 30
0.0000
 40
0.5000
 41
0.5000
 70
0
  0
VERTEX
  8
0
 10
0.0000
 20
-0.2500
 30
0.0000
 42
1.0000
  0
VERTEX
  8
0
 10
0.0000
 20
0.2500
 30
0.0000
 42
1.0000
  0
VERTEX
  8
0
 10
0.0000
 20
-0.2500
 30
0.0000
  0
SEQEND
  8
0
  0
ENDBLK
  8
0
  0
BLOCK
  8
0
  2
ANNULUSV
 70
64
 10
0.0000
 20
0.0000
 30
0.0000
  3
ANNULUSV
  0
POLYLINE
  8
0
 66
1
 10
0.0000
 20
0.0000
 30
0.0000
 40
0.5000
 41
0.5000
 70
0
  0
VERTEX
  8
0
 10
0.0000
 20
-0.2500
 30
0.0000
 42
1.0000
  0
VERTEX
  8
0
 10
0.0000
 20
0.2500
 30
0.0000
 42
1.0000
  0
VERTEX
  8
0
 10
0.0000
 20
-0.2500
 30
0.0000
  0
SEQEND
  8
0
  0
ENDBLK
  8
0
  0
BLOCK
  8
0
  2
THERMALV
 70
64
 10
0.0000
 20
0.0000
 30
0.0000
  3
THERMALV
  0
POLYLINE
  8
0
 66
1
 10
0.0000
 20
0.0000
 30
0.0000
 40
0.1000
 41
0.1000
 70
0
  0
VERTEX
  8
0
 10
-0.2379
 20
0.4500
 30
0.0000
  0
VERTEX
  8
0
 10
0.2379
 20
0.4500
 30
0.0000
  0
SEQEND
  8
0
  0
POLYLINE
  8
0
 66
1
 10
0.0000
 20
0.0000
 30
0.0000
 40
0.0500
 41
0.0500
 70
0
  0
VERTEX
  8
0
 10
0.2379
 20
0.4250
 30
0.0000
 42
1.0000
  0
VERTEX
  8
0
 10
0.2379
 20
0.4750
 30
0.0000
  0
SEQEND
  8
0
  0
POLYLINE
  8
0
 66
1
 10
0.0000
 20
0.0000
 30
0.0000
 40
0.0500
 41
0.0500
 70
0
  0
VERTEX
  8
0
 10
-0.2379
 20
0.4750
 30
0.0000
 42
1.0000
  0
VERTEX
  8
0
 10
-0.2379
 20
0.4250
 30
0.0000
  0
SEQEND
  8
0
  0
POLYLINE
  8
0
 66
1
 10
0.0000
 20
0.0000
 30
0.0000
 40
0.1000
 41
0.1000
 70
0
  0
VERTEX
  8
0
 10
0.4500
 20
0.2379
 30
0.0000
  0
VERTEX
  8
0
 10
0.4500
 20
-0.2379
 30
0.0000
  0
SEQEND
  8
0
  0
POLYLINE
  8
0
 66
1
 10
0.0000
 20
0.0000
 30
0.0000
 40
0.0500
 41
0.0500
 70
0
  0
VERTEX
  8
0
 10
0.4250
 20
-0.2379
 30
0.0000
 42
1.0000
  0
VERTEX
  8
0
 10
0.4750
 20
-0.2379
 30
0.0000
  0
SEQEND
  8
0
  0
POLYLINE
  8
0
 66
1
 10
0.0000
 20
0.0000
 30
0.0000
 40
0.0500
 41
0.0500
 70
0
  0
VERTEX
  8
0
 10
0.4750
 20
0.2379
 30
0.0000
 42
1.0000
  0
VERTEX
  8
0
 10
0.4250
 20
0.2379
 30
0.0000
  0
SEQEND
  8
0
  0
POLYLINE
  8
0
 66
1
 10
0.0000
 20
0.0000
 30
0.0000
 40
0.1000
 41
0.1000
 70
0
  0
VERTEX
  8
0
 10
0.2379
 20
-0.4500
 30
0.0000
  0
VERTEX
  8
0
 10
-0.2379
 20
-0.4500
 30
0.0000
  0
SEQEND
  8
0
  0
POLYLINE
  8
0
 66
1
 10
0.0000
 20
0.0000
 30
0.0000
 40
0.0500
 41
0.0500
 70
0
  0
VERTEX
  8
0
 10
-0.2379
 20
-0.4250
 30
0.0000
 42
1.0000
  0
VERTEX
  8
0
 10
-0.2379
 20
-0.4750
 30
0.0000
  0
SEQEND
  8
0
  0
POLYLINE
  8
0
 66
1
 10
0.0000
 20
0.0000
 30
0.0000
 40
0.0500
 41
0.0500
 70
0
  0
VERTEX
  8
0
 10
0.2379
 20
-0.4750
 30
0.0000
 42
1.0000
  0
VERTEX
  8
0
 10
0.2379
 20
-0.4250
 30
0.0000
  0
SEQEND
  8
0
  0
POLYLINE
  8
0
 66
1
 10
0.0000
 20
0.0000
 30
0.0000
 40
0.1000
 41
0.1000
 70
0
  0
VERTEX
  8
0
 10
-0.4500
 20
-0.2379
 30
0.0000
  0
VERTEX
  8
0
 10
-0.4500
 20
0.2379
 30
0.0000
  0
SEQEND
  8
0
  0
POLYLINE
  8
0
 66
1
 10
0.0000
 20
0.0000
 30
0.0000
 40
0.0500
 41
0.0500
 70
0
  0
VERTEX
  8
0
 10
-0.4250
 20
0.2379
 30
0.0000
 42
1.0000
  0
VERTEX
  8
0
 10
-0.4750
 20
0.2379
 30
0.0000
  0
SEQEND
  8
0
  0
POLYLINE
  8
0
 66
1
 10
0.0000
 20
0.0000
 30
0.0000
 40
0.0500
 41
0.0500
 70
0
  0
VERTEX
  8
0
 10
-0.4750
 20
-0.2379
 30
0.0000
 42
1.0000
  0
VERTEX
  8
0
 10
-0.4250
 20
-0.2379
 30
0.0000
  0
SEQEND
  8
0
  0
ENDBLK
  8
0
  0
BLOCK
  8
0
  2
LONGP100
 70
64
 10
0.0000
 20
0.0000
 30
0.0000
  3
LONGP100
  0
POLYLINE
  8
0
 66
1
 10
0.0000
 20
0.0000
 30
0.0000
 40
1.0000
 41
1.0000
 70
0
  0
VERTEX
  8
0
 10
-0.5000
 20
0.0000
 30
0.0000
  0
VERTEX
  8
0
 10
0.5000
 20
0.0000
 30
0.0000
  0
SEQEND
  8
0
  0
POLYLINE
  8
0
 66
1
 10
0.0000
 20
0.0000
 30
0.0000
 40
0.5000
 41
0.5000
 70
0
  0
VERTEX
  8
0
 10
0.5000
 20
-0.2500
 30
0.0000
 42
1.0000
  0
VERTEX
  8
0
 10
0.5000
 20
0.2500
 30
0.0000
  0
SEQEND
  8
0
  0
POLYLINE
  8
0
 66
1
 10
0.0000
 20
0.0000
 30
0.0000
 40
0.5000
 41
0.5000
 70
0
  0
VERTEX
  8
0
 10
-0.5000
 20
0.2500
 30
0.0000
 42
1.0000
  0
VERTEX
  8
0
 10
-0.5000
 20
-0.2500
 30
0.0000
  0
SEQEND
  8
0
  0
ENDBLK
  8
0
  0
ENDSEC
  0
SECTION
  2
ENTITIES
  0
POLYLINE
  8
20
 66
1
 10
0.0000
 20
0.0000
 30
0.0000
 40
0.4064
 41
0.4064
 70
0
  0
VERTEX
  8
20
 10
0.0000
 20
42.4180
 30
0.0000
  0
VERTEX
  8
20
 10
44.4500
 20
42.4180
 30
0.0000
  0
SEQEND
  8
0
  0
POLYLINE
  8
20
 66
1
 10
0.0000
 20
0.0000
 30
0.0000
 40
0.2032
 41
0.2032
 70
0
  0
VERTEX
  8
20
 10
44.4500
 20
42.3164
 30
0.0000
 42
1.0000
  0
VERTEX
  8
20
 10
44.4500
 20
42.5196
 30
0.0000
  0
SEQEND
  8
0
  0
POLYLINE
  8
20
 66
1
 10
0.0000
 20
0.0000
 30
0.0000
 40
0.2032
 41
0.2032
 70
0
  0
VERTEX
  8
20
 10
0.0000
 20
42.5196
 30
0.0000
 42
1.0000
  0
VERTEX
  8
20
 10
0.0000
 20
42.3164
 30
0.0000
  0
SEQEND
  8
0
  0
POLYLINE
  8
20
 66
1
 10
0.0000
 20
0.0000
 30
0.0000
 40
0.4064
 41
0.4064
 70
0
  0
VERTEX
  8
20
 10
44.4500
 20
42.4180
 30
0.0000
  0
VERTEX
  8
20
 10
44.4500
 20
0.2540
 30
0.0000
  0
SEQEND
  8
0
  0
POLYLINE
  8
20
 66
1
 10
0.0000
 20
0.0000
 30
0.0000
 40
0.2032
 41
0.2032
 70
0
  0
VERTEX
  8
20
 10
44.3484
 20
0.2540
 30
0.0000
 42
1.0000
  0
VERTEX
  8
20
 10
44.5516
 20
0.2540
 30
0.0000
  0
SEQEND
  8
0
  0
POLYLINE
  8
20
 66
1
 10
0.0000
 20
0.0000
 30
0.0000
 40
0.2032
 41
0.2032
 70
0
  0
VERTEX
  8
20
 10
44.5516
 20
42.4180
 30
0.0000
 42
1.0000
  0
VERTEX
  8
20
 10
44.3484
 20
42.4180
 30
0.0000
  0
SEQEND
  8
0
  0
POLYLINE
  8
20
 66
1
 10
0.0000
 20
0.0000
 30
0.0000
 40
0.4064
 41
0.4064
 70
0
  0
VERTEX
  8
20
 10
0.0000
 20
42.4180
 30
0.0000
  0
VERTEX
  8
20
 10
0.0000
 20
0.2540
 30
0.0000
  0
SEQEND
  8
0
  0
POLYLINE
  8
20
 66
1
 10
0.0000
 20
0.0000
 30
0.0000
 40
0.2032
 41
0.2032
 70
0
  0
VERTEX
  8
20
 10
-0.1016
 20
0.2540
 30
0.0000
 42
1.0000
  0
VERTEX
  8
20
 10
0.1016
 20
0.2540
 30
0.0000
  0
SEQEND
  8
0
  0
POLYLINE
  8
20
 66
1
 10
0.0000
 20
0.0000
 30
0.0000
 40
0.2032
 41
0.2032
 70
0
  0
VERTEX
  8
20
 10
0.1016
 20
42.4180
 30
0.0000
 42
1.0000
  0
VERTEX
  8
20
 10
-0.1016
 20
42.4180
 30
0.0000
  0
SEQEND
  8
0
  0
POLYLINE
  8
20
 66
1
 10
0.0000
 20
0.0000
 30
0.0000
 40
0.4064
 41
0.4064
 70
0
  0
VERTEX
  8
20
 10
0.0000
 20
0.2540
 30
0.0000
  0
VERTEX
  8
20
 10
44.4500
 20
0.2540
 30
0.0000
  0
SEQEND
  8
0
  0
POLYLINE
  8
20
 66
1
 10
0.0000
 20
0.0000
 30
0.0000
 40
0.2032
 41
0.2032
 70
0
  0
VERTEX
  8
20
 10
44.4500
 20
0.1524
 30
0.0000
 42
1.0000
  0
VERTEX
  8
20
 10
44.4500
 20
0.3556
 30
0.0000
  0
SEQEND
  8
0
  0
POLYLINE
  8
20
 66
1
 10
0.0000
 20
0.0000
 30
0.0000
 40
0.2032
 41
0.2032
 70
0
  0
VERTEX
  8
20
 10
0.0000
 20
0.3556
 30
0.0000
 42
1.0000
  0
VERTEX
  8
20
 10
0.0000
 20
0.1524
 30
0.0000
  0
SEQEND
  8
0
  0
INSERT
  8
42
  2
RECT
 10
4.5720
 20
37.8460
 30
0.0000
 41
8.6360
 42
8.6360
 43
1.0000
 50
0.0000
  0
INSERT
  8
42
  2
RECT
 10
39.8780
 20
37.8460
 30
0.0000
 41
8.6360
 42
8.6360
 43
1.0000
 50
0.0000
  0
INSERT
  8
42
  2
RECT
 10
4.5720
 20
4.8260
 30
0.0000
 41
8.6360
 42
8.6360
 43
1.0000
 50
0.0000
  0
INSERT
  8
42
  2
RECT
 10
39.8780
 20
4.8260
 30
0.0000
 41
8.6360
 42
8.6360
 43
1.0000
 50
0.0000
  0
INSERT
  8
41
  2
RECT
 10
4.5720
 20
37.8460
 30
0.0000
 41
8.6360
 42
8.6360
 43
1.0000
 50
0.0000
  0
INSERT
  8
41
  2
RECT
 10
4.5720
 20
4.8260
 30
0.0000
 41
8.6360
 42
8.6360
 43
1.0000
 50
0.0000
  0
INSERT
  8
41
  2
RECT
 10
39.8780
 20
4.8260
 30
0.0000
 41
8.6360
 42
8.6360
 43
1.0000
 50
0.0000
  0
INSERT
  8
41
  2
RECT
 10
39.8780
 20
37.8460
 30
0.0000
 41
8.6360
 42
8.6360
 43
1.0000
 50
0.0000
  0
CIRCLE
  8
20
 10
4.5720
 20
37.8460
 30
0.0000
 40
2.1590
  0
CIRCLE
  8
20
 10
4.5720
 20
4.8260
 30
0.0000
 40
2.1590
  0
CIRCLE
  8
20
 10
39.8780
 20
4.8260
 30
0.0000
 40
2.1590
  0
CIRCLE
  8
20
 10
39.8780
 20
37.8460
 30
0.0000
 40
2.1590
  0
POLYLINE
  8
21
 66
1
 10
0.0000
 20
0.0000
 30
0.0000
 40
0.1270
 41
0.1270
 70
0
  0
VERTEX
  8
21
 10
4.0640
 20
31.4960
 30
0.0000
  0
VERTEX
  8
21
 10
10.6680
 20
31.4960
 30
0.0000
  0
SEQEND
  8
0
  0
POLYLINE
  8
21
 66
1
 10
0.0000
 20
0.0000
 30
0.0000
 40
0.0635
 41
0.0635
 70
0
  0
VERTEX
  8
21
 10
10.6680
 20
31.4643
 30
0.0000
 42
1.0000
  0
VERTEX
  8
21
 10
10.6680
 20
31.5278
 30
0.0000
  0
SEQEND
  8
0
  0
POLYLINE
  8
21
 66
1
 10
0.0000
 20
0.0000
 30
0.0000
 40
0.0635
 41
0.0635
 70
0
  0
VERTEX
  8
21
 10
4.0640
 20
31.5278
 30
0.0000
 42
1.0000
  0
VERTEX
  8
21
 10
4.0640
 20
31.4643
 30
0.0000
  0
SEQEND
  8
0
  0
POLYLINE
  8
21
 66
1
 10
0.0000
 20
0.0000
 30
0.0000
 40
0.1270
 41
0.1270
 70
0
  0
VERTEX
  8
21
 10
10.6680
 20
31.4960
 30
0.0000
  0
VERTEX
  8
21
 10
10.6680
 20
11.1760
 30
0.0000
  0
SEQEND
  8
0
  0
POLYLINE
  8
21
 66
1
 10
0.0000
 20
0.0000
 30
0.0000
 40
0.0635
 41
0.0635
 70
0
  0
VERTEX
  8
21
 10
10.6363
 20
11.1760
 30
0.0000
 42
1.0000
  0
VERTEX
  8
21
 10
10.6998
 20
11.1760
 30
0.0000
  0
SEQEND
  8
0
  0
POLYLINE
  8
21
 66
1
 10
0.0000
 20
0.0000
 30
0.0000
 40
0.0635
 41
0.0635
 70
0
  0
VERTEX
  8
21
 10
10.6998
 20
31.4960
 30
0.0000
 42
1.0000
  0
VERTEX
  8
21
 10
10.6363
 20
31.4960
 30
0.0000
  0
SEQEND
  8
0
  0
POLYLINE
  8
21
 66
1
 10
0.0000
 20
0.0000
 30
0.0000
 40
0.1270
 41
0.1270
 70
0
  0
VERTEX
  8
21
 10
10.6680
 20
11.1760
 30
0.0000
  0
VERTEX
  8
21
 10
4.0640
 20
11.1760
 30
0.0000
  0
SEQEND
  8
0
  0
POLYLINE
  8
21
 66
1
 10
0.0000
 20
0.0000
 30
0.0000
 40
0.0635
 41
0.0635
 70
0
  0
VERTEX
  8
21
 10
4.0640
 20
11.2078
 30
0.0000
 42
1.0000
  0
VERTEX
  8
21
 10
4.0640
 20
11.1442
 30
0.0000
  0
SEQEND
  8
0
  0
POLYLINE
  8
21
 66
1
 10
0.0000
 20
0.0000
 30
0.0000
 40
0.0635
 41
0.0635
 70
0
  0
VERTEX
  8
21
 10
10.6680
 20
11.1442
 30
0.0000
 42
1.0000
  0
VERTEX
  8
21
 10
10.6680
 20
11.2078
 30
0.0000
  0
SEQEND
  8
0
  0
POLYLINE
  8
21
 66
1
 10
0.0000
 20
0.0000
 30
0.0000
 40
0.1270
 41
0.1270
 70
0
  0
VERTEX
  8
21
 10
4.0640
 20
11.1760
 30
0.0000
  0
VERTEX
  8
21
 10
4.0640
 20
31.4960
 30
0.0000
  0
SEQEND
  8
0
  0
POLYLINE
  8
21
 66
1
 10
0.0000
 20
0.0000
 30
0.0000
 40
0.0635
 41
0.0635
 70
0
  0
VERTEX
  8
21
 10
4.0957
 20
31.4960
 30
0.0000
 42
1.0000
  0
VERTEX
  8
21
 10
4.0323
 20
31.4960
 30
0.0000
  0
SEQEND
  8
0
  0
POLYLINE
  8
21
 66
1
 10
0.0000
 20
0.0000
 30
0.0000
 40
0.0635
 41
0.0635
 70
0
  0
VERTEX
  8
21
 10
4.0323
 20
11.1760
 30
0.0000
 42
1.0000
  0
VERTEX
  8
21
 10
4.0957
 20
11.1760
 30
0.0000
  0
SEQEND
  8
0
  0
INSERT
  8
17
  2
SQUAREP
 10
6.0960
 20
26.4160
 30
0.0000
 41
1.4986
 42
1.4986
 43
1.0000
 50
0.0000
  0
INSERT
  8
17
  2
SQUAREP
 10
6.0960
 20
26.4160
 30
0.0000
 41
1.4986
 42
1.4986
 43
1.0000
 50
0.0000
  0
INSERT
  8
17
  2
OCTAGONP
 10
8.6360
 20
26.4160
 30
0.0000
 41
1.4986
 42
1.4986
 43
1.0000
 50
0.0000
  0
INSERT
  8
17
  2
OCTAGONP
 10
8.6360
 20
26.4160
 30
0.0000
 41
1.4986
 42
1.4986
 43
1.0000
 50
0.0000
  0
INSERT
  8
17
  2
OCTAGONP
 10
6.0960
 20
23.8760
 30
0.0000
 41
1.4986
 42
1.4986
 43
1.0000
 50
0.0000
  0
INSERT
  8
17
  2
OCTAGONP
 10
6.0960
 20
23.8760
 30
0.0000
 41
1.4986
 42
1.4986
 43
1.0000
 50
0.0000
  0
INSERT
  8
17
  2
OCTAGONP
 10
8.6360
 20
23.8760
 30
0.0000
 41
1.4986
 42
1.4986
 43
1.0000
 50
0.0000
  0
INSERT
  8
17
  2
OCTAGONP
 10
8.6360
 20
23.8760
 30
0.0000
 41
1.4986
 42
1.4986
 43
1.0000
 50
0.0000
  0
INSERT
  8
17
  2
OCTAGONP
 10
6.0960
 20
21.3360
 30
0.0000
 41
1.4986
 42
1.4986
 43
1.0000
 50
0.0000
  0
INSERT
  8
17
  2
OCTAGONP
 10
6.0960
 20
21.3360
 30
0.0000
 41
1.4986
 42
1.4986
 43
1.0000
 50
0.0000
  0
INSERT
  8
17
  2
OCTAGONP
 10
8.6360
 20
21.3360
 30
0.0000
 41
1.4986
 42
1.4986
 43
1.0000
 50
0.0000
  0
INSERT
  8
17
  2
OCTAGONP
 10
8.6360
 20
21.3360
 30
0.0000
 41
1.4986
 42
1.4986
 43
1.0000
 50
0.0000
  0
INSERT
  8
17
  2
OCTAGONP
 10
6.0960
 20
18.7960
 30
0.0000
 41
1.4986
 42
1.4986
 43
1.0000
 50
0.0000
  0
INSERT
  8
17
  2
OCTAGONP
 10
6.0960
 20
18.7960
 30
0.0000
 41
1.4986
 42
1.4986
 43
1.0000
 50
0.0000
  0
INSERT
  8
17
  2
OCTAGONP
 10
8.6360
 20
18.7960
 30
0.0000
 41
1.4986
 42
1.4986
 43
1.0000
 50
0.0000
  0
INSERT
  8
17
  2
OCTAGONP
 10
8.6360
 20
18.7960
 30
0.0000
 41
1.4986
 42
1.4986
 43
1.0000
 50
0.0000
  0
INSERT
  8
17
  2
OCTAGONP
 10
6.0960
 20
16.2560
 30
0.0000
 41
1.4986
 42
1.4986
 43
1.0000
 50
0.0000
  0
INSERT
  8
17
  2
OCTAGONP
 10
6.0960
 20
16.2560
 30
0.0000
 41
1.4986
 42
1.4986
 43
1.0000
 50
0.0000
  0
INSERT
  8
17
  2
OCTAGONP
 10
8.6360
 20
16.2560
 30
0.0000
 41
1.4986
 42
1.4986
 43
1.0000
 50
0.0000
  0
INSERT
  8
17
  2
OCTAGONP
 10
8.6360
 20
16.2560
 30
0.0000
 41
1.4986
 42
1.4986
 43
1.0000
 50
0.0000
  0
POLYLINE
  8
21
 66
1
 10
0.0000
 20
0.0000
 30
0.0000
 40
0.2540
 41
0.2540
 70
0
  0
VERTEX
  8
21
 10
15.8720
 20
34.8720
 30
0.0000
  0
VERTEX
  8
21
 10
26.2920
 20
34.8720
 30
0.0000
  0
SEQEND
  8
0
  0
POLYLINE
  8
21
 66
1
 10
0.0000
 20
0.0000
 30
0.0000
 40
0.1270
 41
0.1270
 70
0
  0
VERTEX
  8
21
 10
26.2920
 20
34.8085
 30
0.0000
 42
1.0000
  0
VERTEX
  8
21
 10
26.2920
 20
34.9355
 30
0.0000
  0
SEQEND
  8
0
  0
POLYLINE
  8
21
 66
1
 10
0.0000
 20
0.0000
 30
0.0000
 40
0.1270
 41
0.1270
 70
0
  0
VERTEX
  8
21
 10
15.8720
 20
34.9355
 30
0.0000
 42
1.0000
  0
VERTEX
  8
21
 10
15.8720
 20
34.8085
 30
0.0000
  0
SEQEND
  8
0
  0
POLYLINE
  8
21
 66
1
 10
0.0000
 20
0.0000
 30
0.0000
 40
0.2540
 41
0.2540
 70
0
  0
VERTEX
  8
21
 10
26.2920
 20
34.8720
 30
0.0000
  0
VERTEX
  8
21
 10
26.2920
 20
37.7720
 30
0.0000
  0
SEQEND
  8
0
  0
POLYLINE
  8
21
 66
1
 10
0.0000
 20
0.0000
 30
0.0000
 40
0.1270
 41
0.1270
 70
0
  0
VERTEX
  8
21
 10
26.3555
 20
37.7720
 30
0.0000
 42
1.0000
  0
VERTEX
  8
21
 10
26.2285
 20
37.7720
 30
0.0000
  0
SEQEND
  8
0
  0
POLYLINE
  8
21
 66
1
 10
0.0000
 20
0.0000
 30
0.0000
 40
0.1270
 41
0.1270
 70
0
  0
VERTEX
  8
21
 10
26.2285
 20
34.8720
 30
0.0000
 42
1.0000
  0
VERTEX
  8
21
 10
26.3555
 20
34.8720
 30
0.0000
  0
SEQEND
  8
0
  0
POLYLINE
  8
21
 66
1
 10
0.0000
 20
0.0000
 30
0.0000
 40
0.2540
 41
0.2540
 70
0
  0
VERTEX
  8
21
 10
26.2920
 20
37.7720
 30
0.0000
  0
VERTEX
  8
21
 10
15.8720
 20
37.7720
 30
0.0000
  0
SEQEND
  8
0
  0
POLYLINE
  8
21
 66
1
 10
0.0000
 20
0.0000
 30
0.0000
 40
0.1270
 41
0.1270
 70
0
  0
VERTEX
  8
21
 10
15.8720
 20
37.8355
 30
0.0000
 42
1.0000
  0
VERTEX
  8
21
 10
15.8720
 20
37.7085
 30
0.0000
  0
SEQEND
  8
0
  0
POLYLINE
  8
21
 66
1
 10
0.0000
 20
0.0000
 30
0.0000
 40
0.1270
 41
0.1270
 70
0
  0
VERTEX
  8
21
 10
26.2920
 20
37.7085
 30
0.0000
 42
1.0000
  0
VERTEX
  8
21
 10
26.2920
 20
37.8355
 30
0.0000
  0
SEQEND
  8
0
  0
POLYLINE
  8
21
 66
1
 10
0.0000
 20
0.0000
 30
0.0000
 40
0.2540
 41
0.2540
 70
0
  0
VERTEX
  8
21
 10
15.8720
 20
37.7720
 30
0.0000
  0
VERTEX
  8
21
 10
15.8720
 20
34.8720
 30
0.0000
  0
SEQEND
  8
0
  0
POLYLINE
  8
21
 66
1
 10
0.0000
 20
0.0000
 30
0.0000
 40
0.1270
 41
0.1270
 70
0
  0
VERTEX
  8
21
 10
15.8085
 20
34.8720
 30
0.0000
 42
1.0000
  0
VERTEX
  8
21
 10
15.9355
 20
34.8720
 30
0.0000
  0
SEQEND
  8
0
  0
POLYLINE
  8
21
 66
1
 10
0.0000
 20
0.0000
 30
0.0000
 40
0.1270
 41
0.1270
 70
0
  0
VERTEX
  8
21
 10
15.9355
 20
37.7720
 30
0.0000
 42
1.0000
  0
VERTEX
  8
21
 10
15.8085
 20
37.7720
 30
0.0000
  0
SEQEND
  8
0
  0
POLYLINE
  8
21
 66
1
 10
0.0000
 20
0.0000
 30
0.0000
 40
0.1524
 41
0.1524
 70
0
  0
VERTEX
  8
21
 10
15.9820
 20
37.4220
 30
0.0000
  0
VERTEX
  8
21
 10
26.1820
 20
37.4220
 30
0.0000
  0
SEQEND
  8
0
  0
POLYLINE
  8
21
 66
1
 10
0.0000
 20
0.0000
 30
0.0000
 40
0.0762
 41
0.0762
 70
0
  0
VERTEX
  8
21
 10
26.1820
 20
37.3839
 30
0.0000
 42
1.0000
  0
VERTEX
  8
21
 10
26.1820
 20
37.4601
 30
0.0000
  0
SEQEND
  8
0
  0
POLYLINE
  8
21
 66
1
 10
0.0000
 20
0.0000
 30
0.0000
 40
0.0762
 41
0.0762
 70
0
  0
VERTEX
  8
21
 10
15.9820
 20
37.4601
 30
0.0000
 42
1.0000
  0
VERTEX
  8
21
 10
15.9820
 20
37.3839
 30
0.0000
  0
SEQEND
  8
0
  0
INSERT
  8
17
  2
LONGP100
 10
17.2720
 20
36.3220
 30
0.0000
 41
2.1000
 42
2.1000
 43
1.0000
 50
90.0000
  0
INSERT
  8
17
  2
LONGP100
 10
17.2720
 20
36.3220
 30
0.0000
 41
2.1000
 42
2.1000
 43
1.0000
 50
90.0000
  0
INSERT
  8
17
  2
LONGP100
 10
19.8120
 20
36.3220
 30
0.0000
 41
2.1000
 42
2.1000
 43
1.0000
 50
90.0000
  0
INSERT
  8
17
  2
LONGP100
 10
19.8120
 20
36.3220
 30
0.0000
 41
2.1000
 42
2.1000
 43
1.0000
 50
90.0000
  0
INSERT
  8
17
  2
LONGP100
 10
22.3520
 20
36.3220
 30
0.0000
 41
2.1000
 42
2.1000
 43
1.0000
 50
90.0000
  0
INSERT
  8
17
  2
LONGP100
 10
22.3520
 20
36.3220
 30
0.0000
 41
2.1000
 42
2.1000
 43
1.0000
 50
90.0000
  0
INSERT
  8
17
  2
LONGP100
 10
24.8920
 20
36.3220
 30
0.0000
 41
2.1000
 42
2.1000
 43
1.0000
 50
90.0000
  0
INSERT
  8
17
  2
LONGP100
 10
24.8920
 20
36.3220
 30
0.0000
 41
2.1000
 42
2.1000
 43
1.0000
 50
90.0000
  0
POLYLINE
  8
21
 66
1
 10
0.0000
 20
0.0000
 30
0.0000
 40
0.1270
 41
0.1270
 70
0
  0
VERTEX
  8
21
 10
29.3370
 20
16.2560
 30
0.0000
  0
VERTEX
  8
21
 10
39.7510
 20
16.2560
 30
0.0000
  0
SEQEND
  8
0
  0
POLYLINE
  8
21
 66
1
 10
0.0000
 20
0.0000
 30
0.0000
 40
0.0635
 41
0.0635
 70
0
  0
VERTEX
  8
21
 10
39.7510
 20
16.2243
 30
0.0000
 42
1.0000
  0
VERTEX
  8
21
 10
39.7510
 20
16.2877
 30
0.0000
  0
SEQEND
  8
0
  0
POLYLINE
  8
21
 66
1
 10
0.0000
 20
0.0000
 30
0.0000
 40
0.0635
 41
0.0635
 70
0
  0
VERTEX
  8
21
 10
29.3370
 20
16.2877
 30
0.0000
 42
1.0000
  0
VERTEX
  8
21
 10
29.3370
 20
16.2243
 30
0.0000
  0
SEQEND
  8
0
  0
POLYLINE
  8
21
 66
1
 10
0.0000
 20
0.0000
 30
0.0000
 40
0.1270
 41
0.1270
 70
0
  0
VERTEX
  8
21
 10
39.7510
 20
32.1310
 30
0.0000
  0
VERTEX
  8
21
 10
29.3370
 20
32.1310
 30
0.0000
  0
SEQEND
  8
0
  0
POLYLINE
  8
21
 66
1
 10
0.0000
 20
0.0000
 30
0.0000
 40
0.0635
 41
0.0635
 70
0
  0
VERTEX
  8
21
 10
29.3370
 20
32.1628
 30
0.0000
 42
1.0000
  0
VERTEX
  8
21
 10
29.3370
 20
32.0992
 30
0.0000
  0
SEQEND
  8
0
  0
POLYLINE
  8
21
 66
1
 10
0.0000
 20
0.0000
 30
0.0000
 40
0.0635
 41
0.0635
 70
0
  0
VERTEX
  8
21
 10
39.7510
 20
32.0992
 30
0.0000
 42
1.0000
  0
VERTEX
  8
21
 10
39.7510
 20
32.1628
 30
0.0000
  0
SEQEND
  8
0
  0
POLYLINE
  8
21
 66
1
 10
0.0000
 20
0.0000
 30
0.0000
 40
0.1270
 41
0.1270
 70
0
  0
VERTEX
  8
21
 10
39.7510
 20
16.2560
 30
0.0000
  0
VERTEX
  8
21
 10
39.7510
 20
28.7020
 30
0.0000
  0
SEQEND
  8
0
  0
POLYLINE
  8
21
 66
1
 10
0.0000
 20
0.0000
 30
0.0000
 40
0.0635
 41
0.0635
 70
0
  0
VERTEX
  8
21
 10
39.7828
 20
28.7020
 30
0.0000
 42
1.0000
  0
VERTEX
  8
21
 10
39.7193
 20
28.7020
 30
0.0000
  0
SEQEND
  8
0
  0
POLYLINE
  8
21
 66
1
 10
0.0000
 20
0.0000
 30
0.0000
 40
0.0635
 41
0.0635
 70
0
  0
VERTEX
  8
21
 10
39.7193
 20
16.2560
 30
0.0000
 42
1.0000
  0
VERTEX
  8
21
 10
39.7828
 20
16.2560
 30
0.0000
  0
SEQEND
  8
0
  0
POLYLINE
  8
21
 66
1
 10
0.0000
 20
0.0000
 30
0.0000
 40
0.1270
 41
0.1270
 70
0
  0
VERTEX
  8
21
 10
39.7510
 20
28.7020
 30
0.0000
  0
VERTEX
  8
21
 10
38.8620
 20
28.7020
 30
0.0000
  0
SEQEND
  8
0
  0
POLYLINE
  8
21
 66
1
 10
0.0000
 20
0.0000
 30
0.0000
 40
0.0635
 41
0.0635
 70
0
  0
VERTEX
  8
21
 10
38.8620
 20
28.7338
 30
0.0000
 42
1.0000
  0
VERTEX
  8
21
 10
38.8620
 20
28.6703
 30
0.0000
  0
SEQEND
  8
0
  0
POLYLINE
  8
21
 66
1
 10
0.0000
 20
0.0000
 30
0.0000
 40
0.0635
 41
0.0635
 70
0
  0
VERTEX
  8
21
 10
39.7510
 20
28.6703
 30
0.0000
 42
1.0000
  0
VERTEX
  8
21
 10
39.7510
 20
28.7338
 30
0.0000
  0
SEQEND
  8
0
  0
POLYLINE
  8
21
 66
1
 10
0.0000
 20
0.0000
 30
0.0000
 40
0.1270
 41
0.1270
 70
0
  0
VERTEX
  8
21
 10
38.8620
 20
28.7020
 30
0.0000
  0
VERTEX
  8
21
 10
38.8620
 20
30.2260
 30
0.0000
  0
SEQEND
  8
0
  0
POLYLINE
  8
21
 66
1
 10
0.0000
 20
0.0000
 30
0.0000
 40
0.0635
 41
0.0635
 70
0
  0
VERTEX
  8
21
 10
38.8938
 20
30.2260
 30
0.0000
 42
1.0000
  0
VERTEX
  8
21
 10
38.8302
 20
30.2260
 30
0.0000
  0
SEQEND
  8
0
  0
POLYLINE
  8
21
 66
1
 10
0.0000
 20
0.0000
 30
0.0000
 40
0.0635
 41
0.0635
 70
0
  0
VERTEX
  8
21
 10
38.8302
 20
28.7020
 30
0.0000
 42
1.0000
  0
VERTEX
  8
21
 10
38.8938
 20
28.7020
 30
0.0000
  0
SEQEND
  8
0
  0
POLYLINE
  8
21
 66
1
 10
0.0000
 20
0.0000
 30
0.0000
 40
0.1270
 41
0.1270
 70
0
  0
VERTEX
  8
21
 10
38.8620
 20
30.2260
 30
0.0000
  0
VERTEX
  8
21
 10
39.7510
 20
30.2260
 30
0.0000
  0
SEQEND
  8
0
  0
POLYLINE
  8
21
 66
1
 10
0.0000
 20
0.0000
 30
0.0000
 40
0.0635
 41
0.0635
 70
0
  0
VERTEX
  8
21
 10
39.7510
 20
30.1943
 30
0.0000
 42
1.0000
  0
VERTEX
  8
21
 10
39.7510
 20
30.2578
 30
0.0000
  0
SEQEND
  8
0
  0
POLYLINE
  8
21
 66
1
 10
0.0000
 20
0.0000
 30
0.0000
 40
0.0635
 41
0.0635
 70
0
  0
VERTEX
  8
21
 10
38.8620
 20
30.2578
 30
0.0000
 42
1.0000
  0
VERTEX
  8
21
 10
38.8620
 20
30.1943
 30
0.0000
  0
SEQEND
  8
0
  0
POLYLINE
  8
21
 66
1
 10
0.0000
 20
0.0000
 30
0.0000
 40
0.1270
 41
0.1270
 70
0
  0
VERTEX
  8
21
 10
39.7510
 20
30.2260
 30
0.0000
  0
VERTEX
  8
21
 10
39.7510
 20
32.1310
 30
0.0000
  0
SEQEND
  8
0
  0
POLYLINE
  8
21
 66
1
 10
0.0000
 20
0.0000
 30
0.0000
 40
0.0635
 41
0.0635
 70
0
  0
VERTEX
  8
21
 10
39.7828
 20
32.1310
 30
0.0000
 42
1.0000
  0
VERTEX
  8
21
 10
39.7193
 20
32.1310
 30
0.0000
  0
SEQEND
  8
0
  0
POLYLINE
  8
21
 66
1
 10
0.0000
 20
0.0000
 30
0.0000
 40
0.0635
 41
0.0635
 70
0
  0
VERTEX
  8
21
 10
39.7193
 20
30.2260
 30
0.0000
 42
1.0000
  0
VERTEX
  8
21
 10
39.7828
 20
30.2260
 30
0.0000
  0
SEQEND
  8
0
  0
POLYLINE
  8
21
 66
1
 10
0.0000
 20
0.0000
 30
0.0000
 40
0.1270
 41
0.1270
 70
0
  0
VERTEX
  8
21
 10
29.3370
 20
16.2560
 30
0.0000
  0
VERTEX
  8
21
 10
29.3370
 20
28.7020
 30
0.0000
  0
SEQEND
  8
0
  0
POLYLINE
  8
21
 66
1
 10
0.0000
 20
0.0000
 30
0.0000
 40
0.0635
 41
0.0635
 70
0
  0
VERTEX
  8
21
 10
29.3687
 20
28.7020
 30
0.0000
 42
1.0000
  0
VERTEX
  8
21
 10
29.3053
 20
28.7020
 30
0.0000
  0
SEQEND
  8
0
  0
POLYLINE
  8
21
 66
1
 10
0.0000
 20
0.0000
 30
0.0000
 40
0.0635
 41
0.0635
 70
0
  0
VERTEX
  8
21
 10
29.3053
 20
16.2560
 30
0.0000
 42
1.0000
  0
VERTEX
  8
21
 10
29.3687
 20
16.2560
 30
0.0000
  0
SEQEND
  8
0
  0
POLYLINE
  8
21
 66
1
 10
0.0000
 20
0.0000
 30
0.0000
 40
0.1270
 41
0.1270
 70
0
  0
VERTEX
  8
21
 10
29.3370
 20
28.7020
 30
0.0000
  0
VERTEX
  8
21
 10
30.2260
 20
28.7020
 30
0.0000
  0
SEQEND
  8
0
  0
POLYLINE
  8
21
 66
1
 10
0.0000
 20
0.0000
 30
0.0000
 40
0.0635
 41
0.0635
 70
0
  0
VERTEX
  8
21
 10
30.2260
 20
28.6703
 30
0.0000
 42
1.0000
  0
VERTEX
  8
21
 10
30.2260
 20
28.7338
 30
0.0000
  0
SEQEND
  8
0
  0
POLYLINE
  8
21
 66
1
 10
0.0000
 20
0.0000
 30
0.0000
 40
0.0635
 41
0.0635
 70
0
  0
VERTEX
  8
21
 10
29.3370
 20
28.7338
 30
0.0000
 42
1.0000
  0
VERTEX
  8
21
 10
29.3370
 20
28.6703
 30
0.0000
  0
SEQEND
  8
0
  0
POLYLINE
  8
21
 66
1
 10
0.0000
 20
0.0000
 30
0.0000
 40
0.1270
 41
0.1270
 70
0
  0
VERTEX
  8
21
 10
30.2260
 20
28.7020
 30
0.0000
  0
VERTEX
  8
21
 10
30.2260
 20
30.2260
 30
0.0000
  0
SEQEND
  8
0
  0
POLYLINE
  8
21
 66
1
 10
0.0000
 20
0.0000
 30
0.0000
 40
0.0635
 41
0.0635
 70
0
  0
VERTEX
  8
21
 10
30.2578
 20
30.2260
 30
0.0000
 42
1.0000
  0
VERTEX
  8
21
 10
30.1943
 20
30.2260
 30
0.0000
  0
SEQEND
  8
0
  0
POLYLINE
  8
21
 66
1
 10
0.0000
 20
0.0000
 30
0.0000
 40
0.0635
 41
0.0635
 70
0
  0
VERTEX
  8
21
 10
30.1943
 20
28.7020
 30
0.0000
 42
1.0000
  0
VERTEX
  8
21
 10
30.2578
 20
28.7020
 30
0.0000
  0
SEQEND
  8
0
  0
POLYLINE
  8
21
 66
1
 10
0.0000
 20
0.0000
 30
0.0000
 40
0.1270
 41
0.1270
 70
0
  0
VERTEX
  8
21
 10
30.2260
 20
30.2260
 30
0.0000
  0
VERTEX
  8
21
 10
29.3370
 20
30.2260
 30
0.0000
  0
SEQEND
  8
0
  0
POLYLINE
  8
21
 66
1
 10
0.0000
 20
0.0000
 30
0.0000
 40
0.0635
 41
0.0635
 70
0
  0
VERTEX
  8
21
 10
29.3370
 20
30.2578
 30
0.0000
 42
1.0000
  0
VERTEX
  8
21
 10
29.3370
 20
30.1943
 30
0.0000
  0
SEQEND
  8
0
  0
POLYLINE
  8
21
 66
1
 10
0.0000
 20
0.0000
 30
0.0000
 40
0.0635
 41
0.0635
 70
0
  0
VERTEX
  8
21
 10
30.2260
 20
30.1943
 30
0.0000
 42
1.0000
  0
VERTEX
  8
21
 10
30.2260
 20
30.2578
 30
0.0000
  0
SEQEND
  8
0
  0
POLYLINE
  8
21
 66
1
 10
0.0000
 20
0.0000
 30
0.0000
 40
0.1270
 41
0.1270
 70
0
  0
VERTEX
  8
21
 10
29.3370
 20
30.2260
 30
0.0000
  0
VERTEX
  8
21
 10
29.3370
 20
32.1310
 30
0.0000
  0
SEQEND
  8
0
  0
POLYLINE
  8
21
 66
1
 10
0.0000
 20
0.0000
 30
0.0000
 40
0.0635
 41
0.0635
 70
0
  0
VERTEX
  8
21
 10
29.3687
 20
32.1310
 30
0.0000
 42
1.0000
  0
VERTEX
  8
21
 10
29.3053
 20
32.1310
 30
0.0000
  0
SEQEND
  8
0
  0
POLYLINE
  8
21
 66
1
 10
0.0000
 20
0.0000
 30
0.0000
 40
0.0635
 41
0.0635
 70
0
  0
VERTEX
  8
21
 10
29.3053
 20
30.2260
 30
0.0000
 42
1.0000
  0
VERTEX
  8
21
 10
29.3687
 20
30.2260
 30
0.0000
  0
SEQEND
  8
0
  0
POLYLINE
  8
21
 66
1
 10
0.0000
 20
0.0000
 30
0.0000
 40
0.0508
 41
0.0508
 70
0
  0
VERTEX
  8
21
 10
29.9720
 20
16.8910
 30
0.0000
  0
VERTEX
  8
21
 10
39.1160
 20
16.8910
 30
0.0000
  0
SEQEND
  8
0
  0
POLYLINE
  8
21
 66
1
 10
0.0000
 20
0.0000
 30
0.0000
 40
0.0254
 41
0.0254
 70
0
  0
VERTEX
  8
21
 10
39.1160
 20
16.8783
 30
0.0000
 42
1.0000
  0
VERTEX
  8
21
 10
39.1160
 20
16.9037
 30
0.0000
  0
SEQEND
  8
0
  0
POLYLINE
  8
21
 66
1
 10
0.0000
 20
0.0000
 30
0.0000
 40
0.0254
 41
0.0254
 70
0
  0
VERTEX
  8
21
 10
29.9720
 20
16.9037
 30
0.0000
 42
1.0000
  0
VERTEX
  8
21
 10
29.9720
 20
16.8783
 30
0.0000
  0
SEQEND
  8
0
  0
POLYLINE
  8
21
 66
1
 10
0.0000
 20
0.0000
 30
0.0000
 40
0.0508
 41
0.0508
 70
0
  0
VERTEX
  8
21
 10
39.1160
 20
25.1460
 30
0.0000
  0
VERTEX
  8
21
 10
39.1160
 20
16.8910
 30
0.0000
  0
SEQEND
  8
0
  0
POLYLINE
  8
21
 66
1
 10
0.0000
 20
0.0000
 30
0.0000
 40
0.0254
 41
0.0254
 70
0
  0
VERTEX
  8
21
 10
39.1033
 20
16.8910
 30
0.0000
 42
1.0000
  0
VERTEX
  8
21
 10
39.1287
 20
16.8910
 30
0.0000
  0
SEQEND
  8
0
  0
POLYLINE
  8
21
 66
1
 10
0.0000
 20
0.0000
 30
0.0000
 40
0.0254
 41
0.0254
 70
0
  0
VERTEX
  8
21
 10
39.1287
 20
25.1460
 30
0.0000
 42
1.0000
  0
VERTEX
  8
21
 10
39.1033
 20
25.1460
 30
0.0000
  0
SEQEND
  8
0
  0
POLYLINE
  8
21
 66
1
 10
0.0000
 20
0.0000
 30
0.0000
 40
0.0508
 41
0.0508
 70
0
  0
VERTEX
  8
21
 10
39.1160
 20
25.1460
 30
0.0000
  0
VERTEX
  8
21
 10
29.9720
 20
25.1460
 30
0.0000
  0
SEQEND
  8
0
  0
POLYLINE
  8
21
 66
1
 10
0.0000
 20
0.0000
 30
0.0000
 40
0.0254
 41
0.0254
 70
0
  0
VERTEX
  8
21
 10
29.9720
 20
25.1587
 30
0.0000
 42
1.0000
  0
VERTEX
  8
21
 10
29.9720
 20
25.1333
 30
0.0000
  0
SEQEND
  8
0
  0
POLYLINE
  8
21
 66
1
 10
0.0000
 20
0.0000
 30
0.0000
 40
0.0254
 41
0.0254
 70
0
  0
VERTEX
  8
21
 10
39.1160
 20
25.1333
 30
0.0000
 42
1.0000
  0
VERTEX
  8
21
 10
39.1160
 20
25.1587
 30
0.0000
  0
SEQEND
  8
0
  0
POLYLINE
  8
21
 66
1
 10
0.0000
 20
0.0000
 30
0.0000
 40
0.0508
 41
0.0508
 70
0
  0
VERTEX
  8
21
 10
29.9720
 20
16.8910
 30
0.0000
  0
VERTEX
  8
21
 10
29.9720
 20
25.1460
 30
0.0000
  0
SEQEND
  8
0
  0
POLYLINE
  8
21
 66
1
 10
0.0000
 20
0.0000
 30
0.0000
 40
0.0254
 41
0.0254
 70
0
  0
VERTEX
  8
21
 10
29.9847
 20
25.1460
 30
0.0000
 42
1.0000
  0
VERTEX
  8
21
 10
29.9593
 20
25.1460
 30
0.0000
  0
SEQEND
  8
0
  0
POLYLINE
  8
21
 66
1
 10
0.0000
 20
0.0000
 30
0.0000
 40
0.0254
 41
0.0254
 70
0
  0
VERTEX
  8
21
 10
29.9593
 20
16.8910
 30
0.0000
 42
1.0000
  0
VERTEX
  8
21
 10
29.9847
 20
16.8910
 30
0.0000
  0
SEQEND
  8
0
  0
POLYLINE
  8
21
 66
1
 10
0.0000
 20
0.0000
 30
0.0000
 40
0.1270
 41
0.1270
 70
0
  0
VERTEX
  8
21
 10
30.1625
 20
25.4635
 30
0.0000
  0
VERTEX
  8
21
 10
30.1625
 20
26.0397
 30
0.0000
  0
SEQEND
  8
0
  0
POLYLINE
  8
21
 66
1
 10
0.0000
 20
0.0000
 30
0.0000
 40
0.0635
 41
0.0635
 70
0
  0
VERTEX
  8
21
 10
30.1943
 20
26.0397
 30
0.0000
 42
1.0000
  0
VERTEX
  8
21
 10
30.1308
 20
26.0397
 30
0.0000
  0
SEQEND
  8
0
  0
POLYLINE
  8
21
 66
1
 10
0.0000
 20
0.0000
 30
0.0000
 40
0.0635
 41
0.0635
 70
0
  0
VERTEX
  8
21
 10
30.1308
 20
25.4635
 30
0.0000
 42
1.0000
  0
VERTEX
  8
21
 10
30.1943
 20
25.4635
 30
0.0000
  0
SEQEND
  8
0
  0
POLYLINE
  8
21
 66
1
 10
0.0000
 20
0.0000
 30
0.0000
 40
0.1270
 41
0.1270
 70
0
  0
VERTEX
  8
21
 10
30.1625
 20
26.0397
 30
0.0000
  0
VERTEX
  8
21
 10
30.4506
 20
26.3278
 30
0.0000
  0
SEQEND
  8
0
  0
POLYLINE
  8
21
 66
1
 10
0.0000
 20
0.0000
 30
0.0000
 40
0.0635
 41
0.0635
 70
0
  0
VERTEX
  8
21
 10
30.4731
 20
26.3054
 30
0.0000
 42
1.0000
  0
VERTEX
  8
21
 10
30.4282
 20
26.3503
 30
0.0000
  0
SEQEND
  8
0
  0
POLYLINE
  8
21
 66
1
 10
0.0000
 20
0.0000
 30
0.0000
 40
0.0635
 41
0.0635
 70
0
  0
VERTEX
  8
21
 10
30.1400
 20
26.0622
 30
0.0000
 42
1.0000
  0
VERTEX
  8
21
 10
30.1850
 20
26.0173
 30
0.0000
  0
SEQEND
  8
0
  0
POLYLINE
  8
21
 66
1
 10
0.0000
 20
0.0000
 30
0.0000
 40
0.1270
 41
0.1270
 70
0
  0
VERTEX
  8
21
 10
30.4506
 20
26.3278
 30
0.0000
  0
VERTEX
  8
21
 10
30.7387
 20
26.0397
 30
0.0000
  0
SEQEND
  8
0
  0
POLYLINE
  8
21
 66
1
 10
0.0000
 20
0.0000
 30
0.0000
 40
0.0635
 41
0.0635
 70
0
  0
VERTEX
  8
21
 10
30.7163
 20
26.0173
 30
0.0000
 42
1.0000
  0
VERTEX
  8
21
 10
30.7612
 20
26.0622
 30
0.0000
  0
SEQEND
  8
0
  0
POLYLINE
  8
21
 66
1
 10
0.0000
 20
0.0000
 30
0.0000
 40
0.0635
 41
0.0635
 70
0
  0
VERTEX
  8
21
 10
30.4731
 20
26.3503
 30
0.0000
 42
1.0000
  0
VERTEX
  8
21
 10
30.4282
 20
26.3054
 30
0.0000
  0
SEQEND
  8
0
  0
POLYLINE
  8
21
 66
1
 10
0.0000
 20
0.0000
 30
0.0000
 40
0.1270
 41
0.1270
 70
0
  0
VERTEX
  8
21
 10
30.7387
 20
26.0397
 30
0.0000
  0
VERTEX
  8
21
 10
30.7387
 20
25.4635
 30
0.0000
  0
SEQEND
  8
0
  0
POLYLINE
  8
21
 66
1
 10
0.0000
 20
0.0000
 30
0.0000
 40
0.0635
 41
0.0635
 70
0
  0
VERTEX
  8
21
 10
30.7070
 20
25.4635
 30
0.0000
 42
1.0000
  0
VERTEX
  8
21
 10
30.7705
 20
25.4635
 30
0.0000
  0
SEQEND
  8
0
  0
POLYLINE
  8
21
 66
1
 10
0.0000
 20
0.0000
 30
0.0000
 40
0.0635
 41
0.0635
 70
0
  0
VERTEX
  8
21
 10
30.7705
 20
26.0397
 30
0.0000
 42
1.0000
  0
VERTEX
  8
21
 10
30.7070
 20
26.0397
 30
0.0000
  0
SEQEND
  8
0
  0
POLYLINE
  8
21
 66
1
 10
0.0000
 20
0.0000
 30
0.0000
 40
0.1270
 41
0.1270
 70
0
  0
VERTEX
  8
21
 10
30.1625
 20
25.8957
 30
0.0000
  0
VERTEX
  8
21
 10
30.7387
 20
25.8957
 30
0.0000
  0
SEQEND
  8
0
  0
POLYLINE
  8
21
 66
1
 10
0.0000
 20
0.0000
 30
0.0000
 40
0.0635
 41
0.0635
 70
0
  0
VERTEX
  8
21
 10
30.7387
 20
25.8639
 30
0.0000
 42
1.0000
  0
VERTEX
  8
21
 10
30.7387
 20
25.9274
 30
0.0000
  0
SEQEND
  8
0
  0
POLYLINE
  8
21
 66
1
 10
0.0000
 20
0.0000
 30
0.0000
 40
0.0635
 41
0.0635
 70
0
  0
VERTEX
  8
21
 10
30.1625
 20
25.9274
 30
0.0000
 42
1.0000
  0
VERTEX
  8
21
 10
30.1625
 20
25.8639
 30
0.0000
  0
SEQEND
  8
0
  0
POLYLINE
  8
21
 66
1
 10
0.0000
 20
0.0000
 30
0.0000
 40
0.1270
 41
0.1270
 70
0
  0
VERTEX
  8
21
 10
31.0746
 20
26.0397
 30
0.0000
  0
VERTEX
  8
21
 10
31.3627
 20
26.3278
 30
0.0000
  0
SEQEND
  8
0
  0
POLYLINE
  8
21
 66
1
 10
0.0000
 20
0.0000
 30
0.0000
 40
0.0635
 41
0.0635
 70
0
  0
VERTEX
  8
21
 10
31.3852
 20
26.3054
 30
0.0000
 42
1.0000
  0
VERTEX
  8
21
 10
31.3403
 20
26.3503
 30
0.0000
  0
SEQEND
  8
0
  0
POLYLINE
  8
21
 66
1
 10
0.0000
 20
0.0000
 30
0.0000
 40
0.0635
 41
0.0635
 70
0
  0
VERTEX
  8
21
 10
31.0522
 20
26.0622
 30
0.0000
 42
1.0000
  0
VERTEX
  8
21
 10
31.0971
 20
26.0173
 30
0.0000
  0
SEQEND
  8
0
  0
POLYLINE
  8
21
 66
1
 10
0.0000
 20
0.0000
 30
0.0000
 40
0.1270
 41
0.1270
 70
0
  0
VERTEX
  8
21
 10
31.3627
 20
26.3278
 30
0.0000
  0
VERTEX
  8
21
 10
31.3627
 20
25.4635
 30
0.0000
  0
SEQEND
  8
0
  0
POLYLINE
  8
21
 66
1
 10
0.0000
 20
0.0000
 30
0.0000
 40
0.0635
 41
0.0635
 70
0
  0
VERTEX
  8
21
 10
31.3310
 20
25.4635
 30
0.0000
 42
1.0000
  0
VERTEX
  8
21
 10
31.3945
 20
25.4635
 30
0.0000
  0
SEQEND
  8
0
  0
POLYLINE
  8
21
 66
1
 10
0.0000
 20
0.0000
 30
0.0000
 40
0.0635
 41
0.0635
 70
0
  0
VERTEX
  8
21
 10
31.3945
 20
26.3278
 30
0.0000
 42
1.0000
  0
VERTEX
  8
21
 10
31.3310
 20
26.3278
 30
0.0000
  0
SEQEND
  8
0
  0
POLYLINE
  8
21
 66
1
 10
0.0000
 20
0.0000
 30
0.0000
 40
0.1270
 41
0.1270
 70
0
  0
VERTEX
  8
21
 10
31.0746
 20
25.4635
 30
0.0000
  0
VERTEX
  8
21
 10
31.6509
 20
25.4635
 30
0.0000
  0
SEQEND
  8
0
  0
POLYLINE
  8
21
 66
1
 10
0.0000
 20
0.0000
 30
0.0000
 40
0.0635
 41
0.0635
 70
0
  0
VERTEX
  8
21
 10
31.6509
 20
25.4318
 30
0.0000
 42
1.0000
  0
VERTEX
  8
21
 10
31.6509
 20
25.4952
 30
0.0000
  0
SEQEND
  8
0
  0
POLYLINE
  8
21
 66
1
 10
0.0000
 20
0.0000
 30
0.0000
 40
0.0635
 41
0.0635
 70
0
  0
VERTEX
  8
21
 10
31.0746
 20
25.4952
 30
0.0000
 42
1.0000
  0
VERTEX
  8
21
 10
31.0746
 20
25.4318
 30
0.0000
  0
SEQEND
  8
0
  0
POLYLINE
  8
21
 66
1
 10
0.0000
 20
0.0000
 30
0.0000
 40
0.1270
 41
0.1270
 70
0
  0
VERTEX
  8
21
 10
31.9868
 20
26.3278
 30
0.0000
  0
VERTEX
  8
21
 10
32.5630
 20
26.3278
 30
0.0000
  0
SEQEND
  8
0
  0
POLYLINE
  8
21
 66
1
 10
0.0000
 20
0.0000
 30
0.0000
 40
0.0635
 41
0.0635
 70
0
  0
VERTEX
  8
21
 10
32.5630
 20
26.2961
 30
0.0000
 42
1.0000
  0
VERTEX
  8
21
 10
32.5630
 20
26.3596
 30
0.0000
  0
SEQEND
  8
0
  0
POLYLINE
  8
21
 66
1
 10
0.0000
 20
0.0000
 30
0.0000
 40
0.0635
 41
0.0635
 70
0
  0
VERTEX
  8
21
 10
31.9868
 20
26.3596
 30
0.0000
 42
1.0000
  0
VERTEX
  8
21
 10
31.9868
 20
26.2961
 30
0.0000
  0
SEQEND
  8
0
  0
POLYLINE
  8
21
 66
1
 10
0.0000
 20
0.0000
 30
0.0000
 40
0.1270
 41
0.1270
 70
0
  0
VERTEX
  8
21
 10
32.5630
 20
26.3278
 30
0.0000
  0
VERTEX
  8
21
 10
32.5630
 20
26.1838
 30
0.0000
  0
SEQEND
  8
0
  0
POLYLINE
  8
21
 66
1
 10
0.0000
 20
0.0000
 30
0.0000
 40
0.0635
 41
0.0635
 70
0
  0
VERTEX
  8
21
 10
32.5312
 20
26.1838
 30
0.0000
 42
1.0000
  0
VERTEX
  8
21
 10
32.5947
 20
26.1838
 30
0.0000
  0
SEQEND
  8
0
  0
POLYLINE
  8
21
 66
1
 10
0.0000
 20
0.0000
 30
0.0000
 40
0.0635
 41
0.0635
 70
0
  0
VERTEX
  8
21
 10
32.5947
 20
26.3278
 30
0.0000
 42
1.0000
  0
VERTEX
  8
21
 10
32.5312
 20
26.3278
 30
0.0000
  0
SEQEND
  8
0
  0
POLYLINE
  8
21
 66
1
 10
0.0000
 20
0.0000
 30
0.0000
 40
0.1270
 41
0.1270
 70
0
  0
VERTEX
  8
21
 10
32.5630
 20
26.1838
 30
0.0000
  0
VERTEX
  8
21
 10
31.9868
 20
25.6076
 30
0.0000
  0
SEQEND
  8
0
  0
POLYLINE
  8
21
 66
1
 10
0.0000
 20
0.0000
 30
0.0000
 40
0.0635
 41
0.0635
 70
0
  0
VERTEX
  8
21
 10
31.9643
 20
25.6300
 30
0.0000
 42
1.0000
  0
VERTEX
  8
21
 10
32.0092
 20
25.5851
 30
0.0000
  0
SEQEND
  8
0
  0
POLYLINE
  8
21
 66
1
 10
0.0000
 20
0.0000
 30
0.0000
 40
0.0635
 41
0.0635
 70
0
  0
VERTEX
  8
21
 10
32.5854
 20
26.1613
 30
0.0000
 42
1.0000
  0
VERTEX
  8
21
 10
32.5405
 20
26.2062
 30
0.0000
  0
SEQEND
  8
0
  0
POLYLINE
  8
21
 66
1
 10
0.0000
 20
0.0000
 30
0.0000
 40
0.1270
 41
0.1270
 70
0
  0
VERTEX
  8
21
 10
31.9868
 20
25.6076
 30
0.0000
  0
VERTEX
  8
21
 10
31.9868
 20
25.4635
 30
0.0000
  0
SEQEND
  8
0
  0
POLYLINE
  8
21
 66
1
 10
0.0000
 20
0.0000
 30
0.0000
 40
0.0635
 41
0.0635
 70
0
  0
VERTEX
  8
21
 10
31.9550
 20
25.4635
 30
0.0000
 42
1.0000
  0
VERTEX
  8
21
 10
32.0185
 20
25.4635
 30
0.0000
  0
SEQEND
  8
0
  0
POLYLINE
  8
21
 66
1
 10
0.0000
 20
0.0000
 30
0.0000
 40
0.0635
 41
0.0635
 70
0
  0
VERTEX
  8
21
 10
32.0185
 20
25.6076
 30
0.0000
 42
1.0000
  0
VERTEX
  8
21
 10
31.9550
 20
25.6076
 30
0.0000
  0
SEQEND
  8
0
  0
POLYLINE
  8
21
 66
1
 10
0.0000
 20
0.0000
 30
0.0000
 40
0.1270
 41
0.1270
 70
0
  0
VERTEX
  8
21
 10
32.8989
 20
25.1754
 30
0.0000
  0
VERTEX
  8
21
 10
33.1870
 20
25.4635
 30
0.0000
  0
SEQEND
  8
0
  0
POLYLINE
  8
21
 66
1
 10
0.0000
 20
0.0000
 30
0.0000
 40
0.0635
 41
0.0635
 70
0
  0
VERTEX
  8
21
 10
33.2095
 20
25.4410
 30
0.0000
 42
1.0000
  0
VERTEX
  8
21
 10
33.1646
 20
25.4860
 30
0.0000
  0
SEQEND
  8
0
  0
POLYLINE
  8
21
 66
1
 10
0.0000
 20
0.0000
 30
0.0000
 40
0.0635
 41
0.0635
 70
0
  0
VERTEX
  8
21
 10
32.8764
 20
25.1978
 30
0.0000
 42
1.0000
  0
VERTEX
  8
21
 10
32.9213
 20
25.1529
 30
0.0000
  0
SEQEND
  8
0
  0
POLYLINE
  8
21
 66
1
 10
0.0000
 20
0.0000
 30
0.0000
 40
0.1270
 41
0.1270
 70
0
  0
VERTEX
  8
21
 10
33.1870
 20
25.4635
 30
0.0000
  0
VERTEX
  8
21
 10
33.1870
 20
25.6076
 30
0.0000
  0
SEQEND
  8
0
  0
POLYLINE
  8
21
 66
1
 10
0.0000
 20
0.0000
 30
0.0000
 40
0.0635
 41
0.0635
 70
0
  0
VERTEX
  8
21
 10
33.2188
 20
25.6076
 30
0.0000
 42
1.0000
  0
VERTEX
  8
21
 10
33.1553
 20
25.6076
 30
0.0000
  0
SEQEND
  8
0
  0
POLYLINE
  8
21
 66
1
 10
0.0000
 20
0.0000
 30
0.0000
 40
0.0635
 41
0.0635
 70
0
  0
VERTEX
  8
21
 10
33.1553
 20
25.4635
 30
0.0000
 42
1.0000
  0
VERTEX
  8
21
 10
33.2188
 20
25.4635
 30
0.0000
  0
SEQEND
  8
0
  0
POLYLINE
  8
21
 66
1
 10
0.0000
 20
0.0000
 30
0.0000
 40
0.1270
 41
0.1270
 70
0
  0
VERTEX
  8
21
 10
33.1870
 20
25.6076
 30
0.0000
  0
VERTEX
  8
21
 10
33.0430
 20
25.6076
 30
0.0000
  0
SEQEND
  8
0
  0
POLYLINE
  8
21
 66
1
 10
0.0000
 20
0.0000
 30
0.0000
 40
0.0635
 41
0.0635
 70
0
  0
VERTEX
  8
21
 10
33.0430
 20
25.6393
 30
0.0000
 42
1.0000
  0
VERTEX
  8
21
 10
33.0430
 20
25.5758
 30
0.0000
  0
SEQEND
  8
0
  0
POLYLINE
  8
21
 66
1
 10
0.0000
 20
0.0000
 30
0.0000
 40
0.0635
 41
0.0635
 70
0
  0
VERTEX
  8
21
 10
33.1870
 20
25.5758
 30
0.0000
 42
1.0000
  0
VERTEX
  8
21
 10
33.1870
 20
25.6393
 30
0.0000
  0
SEQEND
  8
0
  0
POLYLINE
  8
21
 66
1
 10
0.0000
 20
0.0000
 30
0.0000
 40
0.1270
 41
0.1270
 70
0
  0
VERTEX
  8
21
 10
33.0430
 20
25.6076
 30
0.0000
  0
VERTEX
  8
21
 10
33.0430
 20
25.4635
 30
0.0000
  0
SEQEND
  8
0
  0
POLYLINE
  8
21
 66
1
 10
0.0000
 20
0.0000
 30
0.0000
 40
0.0635
 41
0.0635
 70
0
  0
VERTEX
  8
21
 10
33.0112
 20
25.4635
 30
0.0000
 42
1.0000
  0
VERTEX
  8
21
 10
33.0747
 20
25.4635
 30
0.0000
  0
SEQEND
  8
0
  0
POLYLINE
  8
21
 66
1
 10
0.0000
 20
0.0000
 30
0.0000
 40
0.0635
 41
0.0635
 70
0
  0
VERTEX
  8
21
 10
33.0747
 20
25.6076
 30
0.0000
 42
1.0000
  0
VERTEX
  8
21
 10
33.0112
 20
25.6076
 30
0.0000
  0
SEQEND
  8
0
  0
POLYLINE
  8
21
 66
1
 10
0.0000
 20
0.0000
 30
0.0000
 40
0.1270
 41
0.1270
 70
0
  0
VERTEX
  8
21
 10
33.0430
 20
25.4635
 30
0.0000
  0
VERTEX
  8
21
 10
33.1870
 20
25.4635
 30
0.0000
  0
SEQEND
  8
0
  0
POLYLINE
  8
21
 66
1
 10
0.0000
 20
0.0000
 30
0.0000
 40
0.0635
 41
0.0635
 70
0
  0
VERTEX
  8
21
 10
33.1870
 20
25.4318
 30
0.0000
 42
1.0000
  0
VERTEX
  8
21
 10
33.1870
 20
25.4952
 30
0.0000
  0
SEQEND
  8
0
  0
POLYLINE
  8
21
 66
1
 10
0.0000
 20
0.0000
 30
0.0000
 40
0.0635
 41
0.0635
 70
0
  0
VERTEX
  8
21
 10
33.0430
 20
25.4952
 30
0.0000
 42
1.0000
  0
VERTEX
  8
21
 10
33.0430
 20
25.4318
 30
0.0000
  0
SEQEND
  8
0
  0
POLYLINE
  8
21
 66
1
 10
0.0000
 20
0.0000
 30
0.0000
 40
0.1270
 41
0.1270
 70
0
  0
VERTEX
  8
21
 10
34.0832
 20
26.3278
 30
0.0000
  0
VERTEX
  8
21
 10
33.5070
 20
26.3278
 30
0.0000
  0
SEQEND
  8
0
  0
POLYLINE
  8
21
 66
1
 10
0.0000
 20
0.0000
 30
0.0000
 40
0.0635
 41
0.0635
 70
0
  0
VERTEX
  8
21
 10
33.5070
 20
26.3596
 30
0.0000
 42
1.0000
  0
VERTEX
  8
21
 10
33.5070
 20
26.2961
 30
0.0000
  0
SEQEND
  8
0
  0
POLYLINE
  8
21
 66
1
 10
0.0000
 20
0.0000
 30
0.0000
 40
0.0635
 41
0.0635
 70
0
  0
VERTEX
  8
21
 10
34.0832
 20
26.2961
 30
0.0000
 42
1.0000
  0
VERTEX
  8
21
 10
34.0832
 20
26.3596
 30
0.0000
  0
SEQEND
  8
0
  0
POLYLINE
  8
21
 66
1
 10
0.0000
 20
0.0000
 30
0.0000
 40
0.1270
 41
0.1270
 70
0
  0
VERTEX
  8
21
 10
33.5070
 20
26.3278
 30
0.0000
  0
VERTEX
  8
21
 10
33.5070
 20
25.8957
 30
0.0000
  0
SEQEND
  8
0
  0
POLYLINE
  8
21
 66
1
 10
0.0000
 20
0.0000
 30
0.0000
 40
0.0635
 41
0.0635
 70
0
  0
VERTEX
  8
21
 10
33.4752
 20
25.8957
 30
0.0000
 42
1.0000
  0
VERTEX
  8
21
 10
33.5387
 20
25.8957
 30
0.0000
  0
SEQEND
  8
0
  0
POLYLINE
  8
21
 66
1
 10
0.0000
 20
0.0000
 30
0.0000
 40
0.0635
 41
0.0635
 70
0
  0
VERTEX
  8
21
 10
33.5387
 20
26.3278
 30
0.0000
 42
1.0000
  0
VERTEX
  8
21
 10
33.4752
 20
26.3278
 30
0.0000
  0
SEQEND
  8
0
  0
POLYLINE
  8
21
 66
1
 10
0.0000
 20
0.0000
 30
0.0000
 40
0.1270
 41
0.1270
 70
0
  0
VERTEX
  8
21
 10
33.5070
 20
25.8957
 30
0.0000
  0
VERTEX
  8
21
 10
33.7951
 20
26.0397
 30
0.0000
  0
SEQEND
  8
0
  0
POLYLINE
  8
21
 66
1
 10
0.0000
 20
0.0000
 30
0.0000
 40
0.0635
 41
0.0635
 70
0
  0
VERTEX
  8
21
 10
33.8093
 20
26.0113
 30
0.0000
 42
1.0000
  0
VERTEX
  8
21
 10
33.7809
 20
26.0681
 30
0.0000
  0
SEQEND
  8
0
  0
POLYLINE
  8
21
 66
1
 10
0.0000
 20
0.0000
 30
0.0000
 40
0.0635
 41
0.0635
 70
0
  0
VERTEX
  8
21
 10
33.4928
 20
25.9241
 30
0.0000
 42
1.0000
  0
VERTEX
  8
21
 10
33.5212
 20
25.8673
 30
0.0000
  0
SEQEND
  8
0
  0
POLYLINE
  8
21
 66
1
 10
0.0000
 20
0.0000
 30
0.0000
 40
0.1270
 41
0.1270
 70
0
  0
VERTEX
  8
21
 10
33.7951
 20
26.0397
 30
0.0000
  0
VERTEX
  8
21
 10
33.9392
 20
26.0397
 30
0.0000
  0
SEQEND
  8
0
  0
POLYLINE
  8
21
 66
1
 10
0.0000
 20
0.0000
 30
0.0000
 40
0.0635
 41
0.0635
 70
0
  0
VERTEX
  8
21
 10
33.9392
 20
26.0080
 30
0.0000
 42
1.0000
  0
VERTEX
  8
21
 10
33.9392
 20
26.0715
 30
0.0000
  0
SEQEND
  8
0
  0
POLYLINE
  8
21
 66
1
 10
0.0000
 20
0.0000
 30
0.0000
 40
0.0635
 41
0.0635
 70
0
  0
VERTEX
  8
21
 10
33.7951
 20
26.0715
 30
0.0000
 42
1.0000
  0
VERTEX
  8
21
 10
33.7951
 20
26.0080
 30
0.0000
  0
SEQEND
  8
0
  0
POLYLINE
  8
21
 66
1
 10
0.0000
 20
0.0000
 30
0.0000
 40
0.1270
 41
0.1270
 70
0
  0
VERTEX
  8
21
 10
33.9392
 20
26.0397
 30
0.0000
  0
VERTEX
  8
21
 10
34.0832
 20
25.8957
 30
0.0000
  0
SEQEND
  8
0
  0
POLYLINE
  8
21
 66
1
 10
0.0000
 20
0.0000
 30
0.0000
 40
0.0635
 41
0.0635
 70
0
  0
VERTEX
  8
21
 10
34.0608
 20
25.8732
 30
0.0000
 42
1.0000
  0
VERTEX
  8
21
 10
34.1057
 20
25.9181
 30
0.0000
  0
SEQEND
  8
0
  0
POLYLINE
  8
21
 66
1
 10
0.0000
 20
0.0000
 30
0.0000
 40
0.0635
 41
0.0635
 70
0
  0
VERTEX
  8
21
 10
33.9616
 20
26.0622
 30
0.0000
 42
1.0000
  0
VERTEX
  8
21
 10
33.9167
 20
26.0173
 30
0.0000
  0
SEQEND
  8
0
  0
POLYLINE
  8
21
 66
1
 10
0.0000
 20
0.0000
 30
0.0000
 40
0.1270
 41
0.1270
 70
0
  0
VERTEX
  8
21
 10
34.0832
 20
25.8957
 30
0.0000
  0
VERTEX
  8
21
 10
34.0832
 20
25.6076
 30
0.0000
  0
SEQEND
  8
0
  0
POLYLINE
  8
21
 66
1
 10
0.0000
 20
0.0000
 30
0.0000
 40
0.0635
 41
0.0635
 70
0
  0
VERTEX
  8
21
 10
34.0515
 20
25.6076
 30
0.0000
 42
1.0000
  0
VERTEX
  8
21
 10
34.1150
 20
25.6076
 30
0.0000
  0
SEQEND
  8
0
  0
POLYLINE
  8
21
 66
1
 10
0.0000
 20
0.0000
 30
0.0000
 40
0.0635
 41
0.0635
 70
0
  0
VERTEX
  8
21
 10
34.1150
 20
25.8957
 30
0.0000
 42
1.0000
  0
VERTEX
  8
21
 10
34.0515
 20
25.8957
 30
0.0000
  0
SEQEND
  8
0
  0
POLYLINE
  8
21
 66
1
 10
0.0000
 20
0.0000
 30
0.0000
 40
0.1270
 41
0.1270
 70
0
  0
VERTEX
  8
21
 10
34.0832
 20
25.6076
 30
0.0000
  0
VERTEX
  8
21
 10
33.9392
 20
25.4635
 30
0.0000
  0
SEQEND
  8
0
  0
POLYLINE
  8
21
 66
1
 10
0.0000
 20
0.0000
 30
0.0000
 40
0.0635
 41
0.0635
 70
0
  0
VERTEX
  8
21
 10
33.9167
 20
25.4860
 30
0.0000
 42
1.0000
  0
VERTEX
  8
21
 10
33.9616
 20
25.4410
 30
0.0000
  0
SEQEND
  8
0
  0
POLYLINE
  8
21
 66
1
 10
0.0000
 20
0.0000
 30
0.0000
 40
0.0635
 41
0.0635
 70
0
  0
VERTEX
  8
21
 10
34.1057
 20
25.5851
 30
0.0000
 42
1.0000
  0
VERTEX
  8
21
 10
34.0608
 20
25.6300
 30
0.0000
  0
SEQEND
  8
0
  0
POLYLINE
  8
21
 66
1
 10
0.0000
 20
0.0000
 30
0.0000
 40
0.1270
 41
0.1270
 70
0
  0
VERTEX
  8
21
 10
33.9392
 20
25.4635
 30
0.0000
  0
VERTEX
  8
21
 10
33.6510
 20
25.4635
 30
0.0000
  0
SEQEND
  8
0
  0
POLYLINE
  8
21
 66
1
 10
0.0000
 20
0.0000
 30
0.0000
 40
0.0635
 41
0.0635
 70
0
  0
VERTEX
  8
21
 10
33.6510
 20
25.4952
 30
0.0000
 42
1.0000
  0
VERTEX
  8
21
 10
33.6510
 20
25.4318
 30
0.0000
  0
SEQEND
  8
0
  0
POLYLINE
  8
21
 66
1
 10
0.0000
 20
0.0000
 30
0.0000
 40
0.0635
 41
0.0635
 70
0
  0
VERTEX
  8
21
 10
33.9392
 20
25.4318
 30
0.0000
 42
1.0000
  0
VERTEX
  8
21
 10
33.9392
 20
25.4952
 30
0.0000
  0
SEQEND
  8
0
  0
POLYLINE
  8
21
 66
1
 10
0.0000
 20
0.0000
 30
0.0000
 40
0.1270
 41
0.1270
 70
0
  0
VERTEX
  8
21
 10
33.6510
 20
25.4635
 30
0.0000
  0
VERTEX
  8
21
 10
33.5070
 20
25.6076
 30
0.0000
  0
SEQEND
  8
0
  0
POLYLINE
  8
21
 66
1
 10
0.0000
 20
0.0000
 30
0.0000
 40
0.0635
 41
0.0635
 70
0
  0
VERTEX
  8
21
 10
33.5294
 20
25.6300
 30
0.0000
 42
1.0000
  0
VERTEX
  8
21
 10
33.4845
 20
25.5851
 30
0.0000
  0
SEQEND
  8
0
  0
POLYLINE
  8
21
 66
1
 10
0.0000
 20
0.0000
 30
0.0000
 40
0.0635
 41
0.0635
 70
0
  0
VERTEX
  8
21
 10
33.6286
 20
25.4410
 30
0.0000
 42
1.0000
  0
VERTEX
  8
21
 10
33.6735
 20
25.4860
 30
0.0000
  0
SEQEND
  8
0
  0
POLYLINE
  8
21
 66
1
 10
0.0000
 20
0.0000
 30
0.0000
 40
0.1270
 41
0.1270
 70
0
  0
VERTEX
  8
21
 10
34.4191
 20
25.4635
 30
0.0000
  0
VERTEX
  8
21
 10
34.4191
 20
26.0397
 30
0.0000
  0
SEQEND
  8
0
  0
POLYLINE
  8
21
 66
1
 10
0.0000
 20
0.0000
 30
0.0000
 40
0.0635
 41
0.0635
 70
0
  0
VERTEX
  8
21
 10
34.4509
 20
26.0397
 30
0.0000
 42
1.0000
  0
VERTEX
  8
21
 10
34.3874
 20
26.0397
 30
0.0000
  0
SEQEND
  8
0
  0
POLYLINE
  8
21
 66
1
 10
0.0000
 20
0.0000
 30
0.0000
 40
0.0635
 41
0.0635
 70
0
  0
VERTEX
  8
21
 10
34.3874
 20
25.4635
 30
0.0000
 42
1.0000
  0
VERTEX
  8
21
 10
34.4509
 20
25.4635
 30
0.0000
  0
SEQEND
  8
0
  0
POLYLINE
  8
21
 66
1
 10
0.0000
 20
0.0000
 30
0.0000
 40
0.1270
 41
0.1270
 70
0
  0
VERTEX
  8
21
 10
34.4191
 20
26.0397
 30
0.0000
  0
VERTEX
  8
21
 10
34.5632
 20
26.0397
 30
0.0000
  0
SEQEND
  8
0
  0
POLYLINE
  8
21
 66
1
 10
0.0000
 20
0.0000
 30
0.0000
 40
0.0635
 41
0.0635
 70
0
  0
VERTEX
  8
21
 10
34.5632
 20
26.0080
 30
0.0000
 42
1.0000
  0
VERTEX
  8
21
 10
34.5632
 20
26.0715
 30
0.0000
  0
SEQEND
  8
0
  0
POLYLINE
  8
21
 66
1
 10
0.0000
 20
0.0000
 30
0.0000
 40
0.0635
 41
0.0635
 70
0
  0
VERTEX
  8
21
 10
34.4191
 20
26.0715
 30
0.0000
 42
1.0000
  0
VERTEX
  8
21
 10
34.4191
 20
26.0080
 30
0.0000
  0
SEQEND
  8
0
  0
POLYLINE
  8
21
 66
1
 10
0.0000
 20
0.0000
 30
0.0000
 40
0.1270
 41
0.1270
 70
0
  0
VERTEX
  8
21
 10
34.5632
 20
26.0397
 30
0.0000
  0
VERTEX
  8
21
 10
34.7072
 20
25.8957
 30
0.0000
  0
SEQEND
  8
0
  0
POLYLINE
  8
21
 66
1
 10
0.0000
 20
0.0000
 30
0.0000
 40
0.0635
 41
0.0635
 70
0
  0
VERTEX
  8
21
 10
34.6848
 20
25.8732
 30
0.0000
 42
1.0000
  0
VERTEX
  8
21
 10
34.7297
 20
25.9181
 30
0.0000
  0
SEQEND
  8
0
  0
POLYLINE
  8
21
 66
1
 10
0.0000
 20
0.0000
 30
0.0000
 40
0.0635
 41
0.0635
 70
0
  0
VERTEX
  8
21
 10
34.5856
 20
26.0622
 30
0.0000
 42
1.0000
  0
VERTEX
  8
21
 10
34.5407
 20
26.0173
 30
0.0000
  0
SEQEND
  8
0
  0
POLYLINE
  8
21
 66
1
 10
0.0000
 20
0.0000
 30
0.0000
 40
0.1270
 41
0.1270
 70
0
  0
VERTEX
  8
21
 10
34.7072
 20
25.8957
 30
0.0000
  0
VERTEX
  8
21
 10
34.7072
 20
25.4635
 30
0.0000
  0
SEQEND
  8
0
  0
POLYLINE
  8
21
 66
1
 10
0.0000
 20
0.0000
 30
0.0000
 40
0.0635
 41
0.0635
 70
0
  0
VERTEX
  8
21
 10
34.6755
 20
25.4635
 30
0.0000
 42
1.0000
  0
VERTEX
  8
21
 10
34.7390
 20
25.4635
 30
0.0000
  0
SEQEND
  8
0
  0
POLYLINE
  8
21
 66
1
 10
0.0000
 20
0.0000
 30
0.0000
 40
0.0635
 41
0.0635
 70
0
  0
VERTEX
  8
21
 10
34.7390
 20
25.8957
 30
0.0000
 42
1.0000
  0
VERTEX
  8
21
 10
34.6755
 20
25.8957
 30
0.0000
  0
SEQEND
  8
0
  0
POLYLINE
  8
21
 66
1
 10
0.0000
 20
0.0000
 30
0.0000
 40
0.1270
 41
0.1270
 70
0
  0
VERTEX
  8
21
 10
34.7072
 20
25.8957
 30
0.0000
  0
VERTEX
  8
21
 10
34.8513
 20
26.0397
 30
0.0000
  0
SEQEND
  8
0
  0
POLYLINE
  8
21
 66
1
 10
0.0000
 20
0.0000
 30
0.0000
 40
0.0635
 41
0.0635
 70
0
  0
VERTEX
  8
21
 10
34.8737
 20
26.0173
 30
0.0000
 42
1.0000
  0
VERTEX
  8
21
 10
34.8288
 20
26.0622
 30
0.0000
  0
SEQEND
  8
0
  0
POLYLINE
  8
21
 66
1
 10
0.0000
 20
0.0000
 30
0.0000
 40
0.0635
 41
0.0635
 70
0
  0
VERTEX
  8
21
 10
34.6848
 20
25.9181
 30
0.0000
 42
1.0000
  0
VERTEX
  8
21
 10
34.7297
 20
25.8732
 30
0.0000
  0
SEQEND
  8
0
  0
POLYLINE
  8
21
 66
1
 10
0.0000
 20
0.0000
 30
0.0000
 40
0.1270
 41
0.1270
 70
0
  0
VERTEX
  8
21
 10
34.8513
 20
26.0397
 30
0.0000
  0
VERTEX
  8
21
 10
34.9953
 20
25.8957
 30
0.0000
  0
SEQEND
  8
0
  0
POLYLINE
  8
21
 66
1
 10
0.0000
 20
0.0000
 30
0.0000
 40
0.0635
 41
0.0635
 70
0
  0
VERTEX
  8
21
 10
34.9729
 20
25.8732
 30
0.0000
 42
1.0000
  0
VERTEX
  8
21
 10
35.0178
 20
25.9181
 30
0.0000
  0
SEQEND
  8
0
  0
POLYLINE
  8
21
 66
1
 10
0.0000
 20
0.0000
 30
0.0000
 40
0.0635
 41
0.0635
 70
0
  0
VERTEX
  8
21
 10
34.8737
 20
26.0622
 30
0.0000
 42
1.0000
  0
VERTEX
  8
21
 10
34.8288
 20
26.0173
 30
0.0000
  0
SEQEND
  8
0
  0
POLYLINE
  8
21
 66
1
 10
0.0000
 20
0.0000
 30
0.0000
 40
0.1270
 41
0.1270
 70
0
  0
VERTEX
  8
21
 10
34.9953
 20
25.8957
 30
0.0000
  0
VERTEX
  8
21
 10
34.9953
 20
25.4635
 30
0.0000
  0
SEQEND
  8
0
  0
POLYLINE
  8
21
 66
1
 10
0.0000
 20
0.0000
 30
0.0000
 40
0.0635
 41
0.0635
 70
0
  0
VERTEX
  8
21
 10
34.9636
 20
25.4635
 30
0.0000
 42
1.0000
  0
VERTEX
  8
21
 10
35.0271
 20
25.4635
 30
0.0000
  0
SEQEND
  8
0
  0
POLYLINE
  8
21
 66
1
 10
0.0000
 20
0.0000
 30
0.0000
 40
0.0635
 41
0.0635
 70
0
  0
VERTEX
  8
21
 10
35.0271
 20
25.8957
 30
0.0000
 42
1.0000
  0
VERTEX
  8
21
 10
34.9636
 20
25.8957
 30
0.0000
  0
SEQEND
  8
0
  0
POLYLINE
  8
21
 66
1
 10
0.0000
 20
0.0000
 30
0.0000
 40
0.1270
 41
0.1270
 70
0
  0
VERTEX
  8
21
 10
35.3312
 20
25.4635
 30
0.0000
  0
VERTEX
  8
21
 10
35.3312
 20
26.0397
 30
0.0000
  0
SEQEND
  8
0
  0
POLYLINE
  8
21
 66
1
 10
0.0000
 20
0.0000
 30
0.0000
 40
0.0635
 41
0.0635
 70
0
  0
VERTEX
  8
21
 10
35.3630
 20
26.0397
 30
0.0000
 42
1.0000
  0
VERTEX
  8
21
 10
35.2995
 20
26.0397
 30
0.0000
  0
SEQEND
  8
0
  0
POLYLINE
  8
21
 66
1
 10
0.0000
 20
0.0000
 30
0.0000
 40
0.0635
 41
0.0635
 70
0
  0
VERTEX
  8
21
 10
35.2995
 20
25.4635
 30
0.0000
 42
1.0000
  0
VERTEX
  8
21
 10
35.3630
 20
25.4635
 30
0.0000
  0
SEQEND
  8
0
  0
POLYLINE
  8
21
 66
1
 10
0.0000
 20
0.0000
 30
0.0000
 40
0.1270
 41
0.1270
 70
0
  0
VERTEX
  8
21
 10
35.3312
 20
26.0397
 30
0.0000
  0
VERTEX
  8
21
 10
35.4753
 20
26.0397
 30
0.0000
  0
SEQEND
  8
0
  0
POLYLINE
  8
21
 66
1
 10
0.0000
 20
0.0000
 30
0.0000
 40
0.0635
 41
0.0635
 70
0
  0
VERTEX
  8
21
 10
35.4753
 20
26.0080
 30
0.0000
 42
1.0000
  0
VERTEX
  8
21
 10
35.4753
 20
26.0715
 30
0.0000
  0
SEQEND
  8
0
  0
POLYLINE
  8
21
 66
1
 10
0.0000
 20
0.0000
 30
0.0000
 40
0.0635
 41
0.0635
 70
0
  0
VERTEX
  8
21
 10
35.3312
 20
26.0715
 30
0.0000
 42
1.0000
  0
VERTEX
  8
21
 10
35.3312
 20
26.0080
 30
0.0000
  0
SEQEND
  8
0
  0
POLYLINE
  8
21
 66
1
 10
0.0000
 20
0.0000
 30
0.0000
 40
0.1270
 41
0.1270
 70
0
  0
VERTEX
  8
21
 10
35.4753
 20
26.0397
 30
0.0000
  0
VERTEX
  8
21
 10
35.6194
 20
25.8957
 30
0.0000
  0
SEQEND
  8
0
  0
POLYLINE
  8
21
 66
1
 10
0.0000
 20
0.0000
 30
0.0000
 40
0.0635
 41
0.0635
 70
0
  0
VERTEX
  8
21
 10
35.5969
 20
25.8732
 30
0.0000
 42
1.0000
  0
VERTEX
  8
21
 10
35.6418
 20
25.9181
 30
0.0000
  0
SEQEND
  8
0
  0
POLYLINE
  8
21
 66
1
 10
0.0000
 20
0.0000
 30
0.0000
 40
0.0635
 41
0.0635
 70
0
  0
VERTEX
  8
21
 10
35.4978
 20
26.0622
 30
0.0000
 42
1.0000
  0
VERTEX
  8
21
 10
35.4528
 20
26.0173
 30
0.0000
  0
SEQEND
  8
0
  0
POLYLINE
  8
21
 66
1
 10
0.0000
 20
0.0000
 30
0.0000
 40
0.1270
 41
0.1270
 70
0
  0
VERTEX
  8
21
 10
35.6194
 20
25.8957
 30
0.0000
  0
VERTEX
  8
21
 10
35.6194
 20
25.4635
 30
0.0000
  0
SEQEND
  8
0
  0
POLYLINE
  8
21
 66
1
 10
0.0000
 20
0.0000
 30
0.0000
 40
0.0635
 41
0.0635
 70
0
  0
VERTEX
  8
21
 10
35.5876
 20
25.4635
 30
0.0000
 42
1.0000
  0
VERTEX
  8
21
 10
35.6511
 20
25.4635
 30
0.0000
  0
SEQEND
  8
0
  0
POLYLINE
  8
21
 66
1
 10
0.0000
 20
0.0000
 30
0.0000
 40
0.0635
 41
0.0635
 70
0
  0
VERTEX
  8
21
 10
35.6511
 20
25.8957
 30
0.0000
 42
1.0000
  0
VERTEX
  8
21
 10
35.5876
 20
25.8957
 30
0.0000
  0
SEQEND
  8
0
  0
POLYLINE
  8
21
 66
1
 10
0.0000
 20
0.0000
 30
0.0000
 40
0.1270
 41
0.1270
 70
0
  0
VERTEX
  8
21
 10
35.6194
 20
25.8957
 30
0.0000
  0
VERTEX
  8
21
 10
35.7634
 20
26.0397
 30
0.0000
  0
SEQEND
  8
0
  0
POLYLINE
  8
21
 66
1
 10
0.0000
 20
0.0000
 30
0.0000
 40
0.0635
 41
0.0635
 70
0
  0
VERTEX
  8
21
 10
35.7859
 20
26.0173
 30
0.0000
 42
1.0000
  0
VERTEX
  8
21
 10
35.7410
 20
26.0622
 30
0.0000
  0
SEQEND
  8
0
  0
POLYLINE
  8
21
 66
1
 10
0.0000
 20
0.0000
 30
0.0000
 40
0.0635
 41
0.0635
 70
0
  0
VERTEX
  8
21
 10
35.5969
 20
25.9181
 30
0.0000
 42
1.0000
  0
VERTEX
  8
21
 10
35.6418
 20
25.8732
 30
0.0000
  0
SEQEND
  8
0
  0
POLYLINE
  8
21
 66
1
 10
0.0000
 20
0.0000
 30
0.0000
 40
0.1270
 41
0.1270
 70
0
  0
VERTEX
  8
21
 10
35.7634
 20
26.0397
 30
0.0000
  0
VERTEX
  8
21
 10
35.9075
 20
25.8957
 30
0.0000
  0
SEQEND
  8
0
  0
POLYLINE
  8
21
 66
1
 10
0.0000
 20
0.0000
 30
0.0000
 40
0.0635
 41
0.0635
 70
0
  0
VERTEX
  8
21
 10
35.8850
 20
25.8732
 30
0.0000
 42
1.0000
  0
VERTEX
  8
21
 10
35.9299
 20
25.9181
 30
0.0000
  0
SEQEND
  8
0
  0
POLYLINE
  8
21
 66
1
 10
0.0000
 20
0.0000
 30
0.0000
 40
0.0635
 41
0.0635
 70
0
  0
VERTEX
  8
21
 10
35.7859
 20
26.0622
 30
0.0000
 42
1.0000
  0
VERTEX
  8
21
 10
35.7410
 20
26.0173
 30
0.0000
  0
SEQEND
  8
0
  0
POLYLINE
  8
21
 66
1
 10
0.0000
 20
0.0000
 30
0.0000
 40
0.1270
 41
0.1270
 70
0
  0
VERTEX
  8
21
 10
35.9075
 20
25.8957
 30
0.0000
  0
VERTEX
  8
21
 10
35.9075
 20
25.4635
 30
0.0000
  0
SEQEND
  8
0
  0
POLYLINE
  8
21
 66
1
 10
0.0000
 20
0.0000
 30
0.0000
 40
0.0635
 41
0.0635
 70
0
  0
VERTEX
  8
21
 10
35.8757
 20
25.4635
 30
0.0000
 42
1.0000
  0
VERTEX
  8
21
 10
35.9392
 20
25.4635
 30
0.0000
  0
SEQEND
  8
0
  0
POLYLINE
  8
21
 66
1
 10
0.0000
 20
0.0000
 30
0.0000
 40
0.0635
 41
0.0635
 70
0
  0
VERTEX
  8
21
 10
35.9392
 20
25.8957
 30
0.0000
 42
1.0000
  0
VERTEX
  8
21
 10
35.8757
 20
25.8957
 30
0.0000
  0
SEQEND
  8
0
  0
POLYLINE
  8
21
 66
1
 10
0.0000
 20
0.0000
 30
0.0000
 40
0.1270
 41
0.1270
 70
0
  0
VERTEX
  8
21
 10
34.5440
 20
26.8986
 30
0.0000
 42
1.0000
  0
VERTEX
  8
21
 10
34.5440
 20
30.5054
 30
0.0000
 42
1.0000
  0
VERTEX
  8
21
 10
34.5440
 20
26.8986
 30
0.0000
  0
SEQEND
  8
0
  0
POLYLINE
  8
42
 66
1
 10
0.0000
 20
0.0000
 30
0.0000
 40
4.1910
 41
4.1910
 70
0
  0
VERTEX
  8
42
 10
34.5440
 20
26.6065
 30
0.0000
 42
1.0000
  0
VERTEX
  8
42
 10
34.5440
 20
30.7975
 30
0.0000
 42
1.0000
  0
VERTEX
  8
42
 10
34.5440
 20
26.6065
 30
0.0000
  0
SEQEND
  8
0
  0
POLYLINE
  8
43
 66
1
 10
0.0000
 20
0.0000
 30
0.0000
 40
4.1910
 41
4.1910
 70
0
  0
VERTEX
  8
43
 10
34.5440
 20
26.6065
 30
0.0000
 42
1.0000
  0
VERTEX
  8
43
 10
34.5440
 20
30.7975
 30
0.0000
 42
1.0000
  0
VERTEX
  8
43
 10
34.5440
 20
26.6065
 30
0.0000
  0
SEQEND
  8
0
  0
INSERT
  8
21
  2
RECT
 10
37.0840
 20
13.1445
 30
0.0000
 41
0.7620
 42
0.6350
 43
1.0000
 50
0.0000
  0
INSERT
  8
21
  2
RECT
 10
34.5440
 20
13.1445
 30
0.0000
 41
0.7620
 42
0.6350
 43
1.0000
 50
0.0000
  0
INSERT
  8
21
  2
RECT
 10
32.0040
 20
13.1445
 30
0.0000
 41
0.7620
 42
0.6350
 43
1.0000
 50
0.0000
  0
INSERT
  8
21
  2
RECT
 10
32.0040
 20
14.8590
 30
0.0000
 41
1.2700
 42
2.7940
 43
1.0000
 50
0.0000
  0
INSERT
  8
21
  2
RECT
 10
34.5440
 20
14.8590
 30
0.0000
 41
1.2700
 42
2.7940
 43
1.0000
 50
0.0000
  0
INSERT
  8
21
  2
RECT
 10
37.0840
 20
14.8590
 30
0.0000
 41
1.2700
 42
2.7940
 43
1.0000
 50
0.0000
  0
CIRCLE
  8
20
 10
34.5440
 20
28.7020
 30
0.0000
 40
1.6510
  0
INSERT
  8
17
  2
LONGP100
 10
32.0040
 20
11.1760
 30
0.0000
 41
1.6764
 42
1.6764
 43
1.0000
 50
90.0000
  0
INSERT
  8
17
  2
LONGP100
 10
32.0040
 20
11.1760
 30
0.0000
 41
1.6764
 42
1.6764
 43
1.0000
 50
90.0000
  0
INSERT
  8
17
  2
LONGP100
 10
34.5440
 20
11.1760
 30
0.0000
 41
1.6764
 42
1.6764
 43
1.0000
 50
90.0000
  0
INSERT
  8
17
  2
LONGP100
 10
34.5440
 20
11.1760
 30
0.0000
 41
1.6764
 42
1.6764
 43
1.0000
 50
90.0000
  0
INSERT
  8
17
  2
LONGP100
 10
37.0840
 20
11.1760
 30
0.0000
 41
1.6764
 42
1.6764
 43
1.0000
 50
90.0000
  0
INSERT
  8
17
  2
LONGP100
 10
37.0840
 20
11.1760
 30
0.0000
 41
1.6764
 42
1.6764
 43
1.0000
 50
90.0000
  0
ENDSEC
  0
EOF
