solid Workspace
facet normal  0.000000E+0  0.000000E+0  1.000000E+0
 outer loop
  vertex  0.600000E+2  1.200000E+2  0.600000E+2
  vertex -6.000000E+1  1.200000E+2  0.600000E+2
  vertex  0.600000E+2 0.000000E+0  0.600000E+2
 endloop
endfacet
facet normal  0.000000E+0  0.000000E+0  1.000000E+0
 outer loop
  vertex -6.000000E+1 0.000000E+0  0.600000E+2
  vertex  0.600000E+2 0.000000E+0  0.600000E+2
  vertex -6.000000E+1  1.200000E+2  0.600000E+2
 endloop
endfacet
facet normal  0.000000E+0  0.000000E+0  1.000000E+0
 outer loop
  vertex  0.600000E+2  1.200000E+2 -6.000000E+1
  vertex -6.000000E+1  1.200000E+2 -6.000000E+1
  vertex  0.600000E+2 0.000000E+0 -6.000000E+1
 endloop
endfacet
facet normal  0.000000E+0  0.000000E+0  1.000000E+0
 outer loop
  vertex -6.000000E+1 0.000000E+0 -6.000000E+1
  vertex  0.600000E+2 0.000000E+0 -6.000000E+1
  vertex -6.000000E+1  1.200000E+2 -6.000000E+1
 endloop
endfacet
facet normal  0.000000E+0 -1.000000E+0  0.000000E+0
 outer loop
  vertex  0.600000E+2  1.200000E+2  0.600000E+2
  vertex -6.000000E+1  1.200000E+2  0.600000E+2
  vertex  0.600000E+2  1.200000E+2 -6.000000E+1
 endloop
endfacet
facet normal  -0.000000E+0 -1.000000E+0  -0.000000E+0
 outer loop
  vertex -6.000000E+1  1.200000E+2 -6.000000E+1
  vertex  0.600000E+2  1.200000E+2 -6.000000E+1
  vertex -6.000000E+1  1.200000E+2  0.600000E+2
 endloop
endfacet
facet normal  0.000000E+0 -1.000000E+0  0.000000E+0
 outer loop
  vertex  0.600000E+2 0.000000E+0  0.600000E+2
  vertex -6.000000E+1 0.000000E+0  0.600000E+2
  vertex  0.600000E+2 0.000000E+0 -6.000000E+1
 endloop
endfacet
facet normal  -0.000000E+0 -1.000000E+0  -0.000000E+0
 outer loop
  vertex -6.000000E+1 0.000000E+0 -6.000000E+1
  vertex  0.600000E+2 0.000000E+0 -6.000000E+1
  vertex -6.000000E+1 0.000000E+0  0.600000E+2
 endloop
endfacet
facet normal  1.000000E+0  0.000000E+0  0.000000E+0
 outer loop
  vertex  0.600000E+2  1.200000E+2  0.600000E+2
  vertex  0.600000E+2 0.000000E+0  0.600000E+2
  vertex  0.600000E+2  1.200000E+2 -6.000000E+1
 endloop
endfacet
facet normal  1.000000E+0  0.000000E+0  0.000000E+0
 outer loop
  vertex  0.600000E+2 0.000000E+0 -6.000000E+1
  vertex  0.600000E+2  1.200000E+2 -6.000000E+1
  vertex  0.600000E+2 0.000000E+0  0.600000E+2
 endloop
endfacet
facet normal  1.000000E+0  0.000000E+0  0.000000E+0
 outer loop
  vertex -6.000000E+1  1.200000E+2  0.600000E+2
  vertex -6.000000E+1 0.000000E+0  0.600000E+2
  vertex -6.000000E+1  1.200000E+2 -6.000000E+1
 endloop
endfacet
facet normal  1.000000E+0  0.000000E+0  0.000000E+0
 outer loop
  vertex -6.000000E+1 0.000000E+0 -6.000000E+1
  vertex -6.000000E+1  1.200000E+2 -6.000000E+1
  vertex -6.000000E+1 0.000000E+0  0.600000E+2
 endloop
endfacet
endsolid Workspace