solid Default
  facet normal -1.000000e+00 0.000000e+00 0.000000e+00
    outer loop
      vertex -7.086578e+00 -2.362329e+00 3.472000e+00
      vertex -7.086578e+00 -2.362329e+00 5.456000e+00
      vertex -7.086578e+00 2.362057e+00 3.472000e+00
    endloop
  endfacet
  facet normal -1.000000e+00 0.000000e+00 0.000000e+00
    outer loop
      vertex -7.086578e+00 2.362057e+00 3.472000e+00
      vertex -7.086578e+00 -2.362329e+00 5.456000e+00
      vertex -7.086578e+00 2.362057e+00 5.456000e+00
    endloop
  endfacet
  facet normal 1.000000e+00 0.000000e+00 0.000000e+00
    outer loop
      vertex 7.086580e+00 2.362057e+00 3.472000e+00
      vertex 7.086580e+00 2.362057e+00 5.456000e+00
      vertex 7.086580e+00 -2.362329e+00 3.472000e+00
    endloop
  endfacet
  facet normal 1.000000e+00 0.000000e+00 0.000000e+00
    outer loop
      vertex 7.086580e+00 -2.362329e+00 3.472000e+00
      vertex 7.086580e+00 2.362057e+00 5.456000e+00
      vertex 7.086580e+00 -2.362329e+00 5.456000e+00
    endloop
  endfacet
  facet normal 0.000000e+00 6.123234e-17 1.000000e+00
    outer loop
      vertex 2.362195e+00 -1.653549e+01 5.456000e+00
      vertex 2.362195e+00 -2.125987e+01 5.456000e+00
      vertex 1.181097e+01 -1.653549e+01 5.456000e+00
    endloop
  endfacet
  facet normal 0.000000e+00 6.123234e-17 1.000000e+00
    outer loop
      vertex 1.181097e+01 -1.653549e+01 5.456000e+00
      vertex 2.362195e+00 -2.125987e+01 5.456000e+00
      vertex 1.653535e+01 -2.125987e+01 5.456000e+00
    endloop
  endfacet
  facet normal 0.000000e+00 6.123234e-17 1.000000e+00
    outer loop
      vertex 1.181097e+01 -1.653549e+01 5.456000e+00
      vertex 1.653535e+01 -2.125987e+01 5.456000e+00
      vertex 1.181097e+01 -1.181110e+01 5.456000e+00
    endloop
  endfacet
  facet normal 0.000000e+00 6.123234e-17 1.000000e+00
    outer loop
      vertex 1.181097e+01 -1.181110e+01 5.456000e+00
      vertex 1.653535e+01 -2.125987e+01 5.456000e+00
      vertex 1.653535e+01 -1.653549e+01 5.456000e+00
    endloop
  endfacet
  facet normal 0.000000e+00 6.123234e-17 1.000000e+00
    outer loop
      vertex -7.086578e+00 -2.362329e+00 5.456000e+00
      vertex 7.086580e+00 -2.362329e+00 5.456000e+00
      vertex -7.086578e+00 2.362057e+00 5.456000e+00
    endloop
  endfacet
  facet normal 0.000000e+00 6.123234e-17 1.000000e+00
    outer loop
      vertex -7.086578e+00 2.362057e+00 5.456000e+00
      vertex 7.086580e+00 -2.362329e+00 5.456000e+00
      vertex 7.086580e+00 2.362057e+00 5.456000e+00
    endloop
  endfacet
  facet normal 0.000000e+00 6.123234e-17 1.000000e+00
    outer loop
      vertex 7.086580e+00 7.086444e+00 5.456000e+00
      vertex 1.181097e+01 7.086444e+00 5.456000e+00
      vertex 7.086580e+00 1.653549e+01 5.456000e+00
    endloop
  endfacet
  facet normal 0.000000e+00 6.123234e-17 1.000000e+00
    outer loop
      vertex 7.086580e+00 1.653549e+01 5.456000e+00
      vertex 1.181097e+01 7.086444e+00 5.456000e+00
      vertex 1.181097e+01 1.181110e+01 5.456000e+00
    endloop
  endfacet
  facet normal 0.000000e+00 6.123234e-17 1.000000e+00
    outer loop
      vertex 7.086580e+00 1.653549e+01 5.456000e+00
      vertex 1.181097e+01 1.181110e+01 5.456000e+00
      vertex 1.417316e+01 1.653549e+01 5.456000e+00
    endloop
  endfacet
  facet normal 0.000000e+00 6.123234e-17 1.000000e+00
    outer loop
      vertex 1.417316e+01 1.653549e+01 5.456000e+00
      vertex 1.181097e+01 1.181110e+01 5.456000e+00
      vertex 1.653535e+01 1.181110e+01 5.456000e+00
    endloop
  endfacet
  facet normal 0.000000e+00 6.123234e-17 1.000000e+00
    outer loop
      vertex 1.417316e+01 1.653549e+01 5.456000e+00
      vertex 1.653535e+01 1.181110e+01 5.456000e+00
      vertex 1.417316e+01 2.125987e+01 5.456000e+00
    endloop
  endfacet
  facet normal 0.000000e+00 6.123234e-17 1.000000e+00
    outer loop
      vertex 1.417316e+01 2.125987e+01 5.456000e+00
      vertex 1.653535e+01 1.181110e+01 5.456000e+00
      vertex 1.653535e+01 1.653549e+01 5.456000e+00
    endloop
  endfacet
  facet normal 0.000000e+00 6.123234e-17 1.000000e+00
    outer loop
      vertex 1.417316e+01 2.125987e+01 5.456000e+00
      vertex 1.653535e+01 1.653549e+01 5.456000e+00
      vertex 2.125974e+01 2.125987e+01 5.456000e+00
    endloop
  endfacet
  facet normal 0.000000e+00 6.123234e-17 1.000000e+00
    outer loop
      vertex 2.125974e+01 2.125987e+01 5.456000e+00
      vertex 1.653535e+01 1.653549e+01 5.456000e+00
      vertex 2.125974e+01 1.653549e+01 5.456000e+00
    endloop
  endfacet
  facet normal 0.000000e+00 6.123234e-17 1.000000e+00
    outer loop
      vertex 2.598412e+01 2.362057e+00 5.456000e+00
      vertex 2.125974e+01 2.362057e+00 5.456000e+00
      vertex 2.598412e+01 -2.362329e+00 5.456000e+00
    endloop
  endfacet
  facet normal 0.000000e+00 6.123234e-17 1.000000e+00
    outer loop
      vertex 2.598412e+01 -2.362329e+00 5.456000e+00
      vertex 2.125974e+01 2.362057e+00 5.456000e+00
      vertex 2.125974e+01 -7.086715e+00 5.456000e+00
    endloop
  endfacet
  facet normal 0.000000e+00 6.123234e-17 1.000000e+00
    outer loop
      vertex 2.598412e+01 -2.362329e+00 5.456000e+00
      vertex 2.125974e+01 -7.086715e+00 5.456000e+00
      vertex 3.070851e+01 -2.362329e+00 5.456000e+00
    endloop
  endfacet
  facet normal 0.000000e+00 6.123234e-17 1.000000e+00
    outer loop
      vertex 3.070851e+01 -2.362329e+00 5.456000e+00
      vertex 2.125974e+01 -7.086715e+00 5.456000e+00
      vertex 2.598412e+01 -7.086715e+00 5.456000e+00
    endloop
  endfacet
  facet normal 0.000000e+00 6.123234e-17 1.000000e+00
    outer loop
      vertex 3.070851e+01 -2.362329e+00 5.456000e+00
      vertex 2.598412e+01 -7.086715e+00 5.456000e+00
      vertex 3.070851e+01 -1.653549e+01 5.456000e+00
    endloop
  endfacet
  facet normal 0.000000e+00 6.123234e-17 1.000000e+00
    outer loop
      vertex 3.070851e+01 -1.653549e+01 5.456000e+00
      vertex 2.598412e+01 -7.086715e+00 5.456000e+00
      vertex 2.598412e+01 -1.653549e+01 5.456000e+00
    endloop
  endfacet
  facet normal 0.000000e+00 6.123234e-17 1.000000e+00
    outer loop
      vertex 1.653535e+01 -1.653549e+01 5.456000e+00
      vertex 2.125974e+01 -1.653549e+01 5.456000e+00
      vertex 1.181097e+01 -1.181110e+01 5.456000e+00
    endloop
  endfacet
  facet normal 0.000000e+00 6.123234e-17 1.000000e+00
    outer loop
      vertex 1.181097e+01 -1.181110e+01 5.456000e+00
      vertex 2.125974e+01 -1.653549e+01 5.456000e+00
      vertex 2.125974e+01 -7.086715e+00 5.456000e+00
    endloop
  endfacet
  facet normal 0.000000e+00 6.123234e-17 1.000000e+00
    outer loop
      vertex 1.181097e+01 -1.181110e+01 5.456000e+00
      vertex 2.125974e+01 -7.086715e+00 5.456000e+00
      vertex 1.181097e+01 -2.362329e+00 5.456000e+00
    endloop
  endfacet
  facet normal 0.000000e+00 6.123234e-17 1.000000e+00
    outer loop
      vertex 1.181097e+01 -2.362329e+00 5.456000e+00
      vertex 2.125974e+01 -7.086715e+00 5.456000e+00
      vertex 2.125974e+01 2.362057e+00 5.456000e+00
    endloop
  endfacet
  facet normal 0.000000e+00 6.123234e-17 1.000000e+00
    outer loop
      vertex 1.181097e+01 -2.362329e+00 5.456000e+00
      vertex 2.125974e+01 2.362057e+00 5.456000e+00
      vertex 1.181097e+01 2.362057e+00 5.456000e+00
    endloop
  endfacet
  facet normal 0.000000e+00 6.123234e-17 1.000000e+00
    outer loop
      vertex 1.181097e+01 2.362057e+00 5.456000e+00
      vertex 2.125974e+01 2.362057e+00 5.456000e+00
      vertex 2.125974e+01 7.086444e+00 5.456000e+00
    endloop
  endfacet
  facet normal 0.000000e+00 6.123234e-17 1.000000e+00
    outer loop
      vertex 2.125974e+01 7.086444e+00 5.456000e+00
      vertex 1.181097e+01 7.086444e+00 5.456000e+00
      vertex 1.181097e+01 2.362057e+00 5.456000e+00
    endloop
  endfacet
  facet normal 0.000000e+00 6.123234e-17 1.000000e+00
    outer loop
      vertex 1.181097e+01 2.362057e+00 5.456000e+00
      vertex 1.181097e+01 7.086444e+00 5.456000e+00
      vertex 7.086580e+00 7.086444e+00 5.456000e+00
    endloop
  endfacet
  facet normal 0.000000e+00 6.123234e-17 1.000000e+00
    outer loop
      vertex 1.181097e+01 2.362057e+00 5.456000e+00
      vertex 7.086580e+00 7.086444e+00 5.456000e+00
      vertex 7.086580e+00 2.362057e+00 5.456000e+00
    endloop
  endfacet
  facet normal 0.000000e+00 6.123234e-17 1.000000e+00
    outer loop
      vertex 7.086580e+00 2.362057e+00 5.456000e+00
      vertex 7.086580e+00 7.086444e+00 5.456000e+00
      vertex -7.086578e+00 7.086444e+00 5.456000e+00
    endloop
  endfacet
  facet normal 0.000000e+00 6.123234e-17 1.000000e+00
    outer loop
      vertex 7.086580e+00 2.362057e+00 5.456000e+00
      vertex -7.086578e+00 7.086444e+00 5.456000e+00
      vertex -7.086578e+00 2.362057e+00 5.456000e+00
    endloop
  endfacet
  facet normal 0.000000e+00 6.123234e-17 1.000000e+00
    outer loop
      vertex -1.653535e+01 1.653549e+01 5.456000e+00
      vertex -1.653535e+01 1.181110e+01 5.456000e+00
      vertex -1.181097e+01 1.181110e+01 5.456000e+00
    endloop
  endfacet
  facet normal 0.000000e+00 6.123234e-17 1.000000e+00
    outer loop
      vertex -2.125974e+01 2.125987e+01 5.456000e+00
      vertex -2.125974e+01 1.653549e+01 5.456000e+00
      vertex -1.417316e+01 2.125987e+01 5.456000e+00
    endloop
  endfacet
  facet normal 0.000000e+00 6.123234e-17 1.000000e+00
    outer loop
      vertex -1.417316e+01 2.125987e+01 5.456000e+00
      vertex -2.125974e+01 1.653549e+01 5.456000e+00
      vertex -1.653535e+01 1.653549e+01 5.456000e+00
    endloop
  endfacet
  facet normal 0.000000e+00 6.123234e-17 1.000000e+00
    outer loop
      vertex -1.417316e+01 2.125987e+01 5.456000e+00
      vertex -1.653535e+01 1.653549e+01 5.456000e+00
      vertex -1.417316e+01 1.653549e+01 5.456000e+00
    endloop
  endfacet
  facet normal 0.000000e+00 6.123234e-17 1.000000e+00
    outer loop
      vertex -1.417316e+01 1.653549e+01 5.456000e+00
      vertex -1.653535e+01 1.653549e+01 5.456000e+00
      vertex -1.181097e+01 1.181110e+01 5.456000e+00
    endloop
  endfacet
  facet normal 0.000000e+00 6.123234e-17 1.000000e+00
    outer loop
      vertex -1.417316e+01 1.653549e+01 5.456000e+00
      vertex -1.181097e+01 1.181110e+01 5.456000e+00
      vertex -7.086578e+00 1.653549e+01 5.456000e+00
    endloop
  endfacet
  facet normal 0.000000e+00 6.123234e-17 1.000000e+00
    outer loop
      vertex -7.086578e+00 1.653549e+01 5.456000e+00
      vertex -1.181097e+01 1.181110e+01 5.456000e+00
      vertex -1.181097e+01 7.086444e+00 5.456000e+00
    endloop
  endfacet
  facet normal 0.000000e+00 6.123234e-17 1.000000e+00
    outer loop
      vertex -7.086578e+00 1.653549e+01 5.456000e+00
      vertex -1.181097e+01 7.086444e+00 5.456000e+00
      vertex -7.086578e+00 7.086444e+00 5.456000e+00
    endloop
  endfacet
  facet normal 0.000000e+00 6.123234e-17 1.000000e+00
    outer loop
      vertex -7.086578e+00 7.086444e+00 5.456000e+00
      vertex -1.181097e+01 7.086444e+00 5.456000e+00
      vertex -1.181097e+01 2.362057e+00 5.456000e+00
    endloop
  endfacet
  facet normal 0.000000e+00 6.123234e-17 1.000000e+00
    outer loop
      vertex -7.086578e+00 7.086444e+00 5.456000e+00
      vertex -1.181097e+01 2.362057e+00 5.456000e+00
      vertex -7.086578e+00 2.362057e+00 5.456000e+00
    endloop
  endfacet
  facet normal 0.000000e+00 6.123234e-17 1.000000e+00
    outer loop
      vertex -1.653535e+01 -1.653549e+01 5.456000e+00
      vertex -1.653535e+01 -2.125987e+01 5.456000e+00
      vertex -1.181097e+01 -1.653549e+01 5.456000e+00
    endloop
  endfacet
  facet normal 0.000000e+00 6.123234e-17 1.000000e+00
    outer loop
      vertex -1.181097e+01 -1.653549e+01 5.456000e+00
      vertex -1.653535e+01 -2.125987e+01 5.456000e+00
      vertex -2.362193e+00 -2.125987e+01 5.456000e+00
    endloop
  endfacet
  facet normal 0.000000e+00 6.123234e-17 1.000000e+00
    outer loop
      vertex -1.181097e+01 -1.653549e+01 5.456000e+00
      vertex -2.362193e+00 -2.125987e+01 5.456000e+00
      vertex -2.362193e+00 -1.653549e+01 5.456000e+00
    endloop
  endfacet
  facet normal 0.000000e+00 6.123234e-17 1.000000e+00
    outer loop
      vertex -3.070851e+01 -1.653549e+01 5.456000e+00
      vertex -2.598412e+01 -1.653549e+01 5.456000e+00
      vertex -3.070851e+01 -2.362329e+00 5.456000e+00
    endloop
  endfacet
  facet normal 0.000000e+00 6.123234e-17 1.000000e+00
    outer loop
      vertex -3.070851e+01 -2.362329e+00 5.456000e+00
      vertex -2.598412e+01 -1.653549e+01 5.456000e+00
      vertex -2.598412e+01 -7.086715e+00 5.456000e+00
    endloop
  endfacet
  facet normal 0.000000e+00 6.123234e-17 1.000000e+00
    outer loop
      vertex -3.070851e+01 -2.362329e+00 5.456000e+00
      vertex -2.598412e+01 -7.086715e+00 5.456000e+00
      vertex -2.598412e+01 -2.362329e+00 5.456000e+00
    endloop
  endfacet
  facet normal 0.000000e+00 6.123234e-17 1.000000e+00
    outer loop
      vertex -2.598412e+01 -2.362329e+00 5.456000e+00
      vertex -2.598412e+01 -7.086715e+00 5.456000e+00
      vertex -2.125974e+01 -7.086715e+00 5.456000e+00
    endloop
  endfacet
  facet normal 0.000000e+00 6.123234e-17 1.000000e+00
    outer loop
      vertex -2.598412e+01 -2.362329e+00 5.456000e+00
      vertex -2.125974e+01 -7.086715e+00 5.456000e+00
      vertex -2.598412e+01 2.362057e+00 5.456000e+00
    endloop
  endfacet
  facet normal 0.000000e+00 6.123234e-17 1.000000e+00
    outer loop
      vertex -2.598412e+01 2.362057e+00 5.456000e+00
      vertex -2.125974e+01 -7.086715e+00 5.456000e+00
      vertex -2.125974e+01 2.362057e+00 5.456000e+00
    endloop
  endfacet
  facet normal 0.000000e+00 6.123234e-17 1.000000e+00
    outer loop
      vertex -2.125974e+01 -1.653549e+01 5.456000e+00
      vertex -1.653535e+01 -1.653549e+01 5.456000e+00
      vertex -2.125974e+01 -7.086715e+00 5.456000e+00
    endloop
  endfacet
  facet normal 0.000000e+00 6.123234e-17 1.000000e+00
    outer loop
      vertex -2.125974e+01 -7.086715e+00 5.456000e+00
      vertex -1.653535e+01 -1.653549e+01 5.456000e+00
      vertex -1.181097e+01 -1.653549e+01 5.456000e+00
    endloop
  endfacet
  facet normal 0.000000e+00 6.123234e-17 1.000000e+00
    outer loop
      vertex -2.125974e+01 -7.086715e+00 5.456000e+00
      vertex -1.181097e+01 -1.653549e+01 5.456000e+00
      vertex -2.125974e+01 2.362057e+00 5.456000e+00
    endloop
  endfacet
  facet normal 0.000000e+00 6.123234e-17 1.000000e+00
    outer loop
      vertex -2.125974e+01 2.362057e+00 5.456000e+00
      vertex -1.181097e+01 -1.653549e+01 5.456000e+00
      vertex -1.181097e+01 -1.181110e+01 5.456000e+00
    endloop
  endfacet
  facet normal 0.000000e+00 6.123234e-17 1.000000e+00
    outer loop
      vertex -1.181097e+01 7.086444e+00 5.456000e+00
      vertex -2.125974e+01 7.086444e+00 5.456000e+00
      vertex -1.181097e+01 2.362057e+00 5.456000e+00
    endloop
  endfacet
  facet normal 0.000000e+00 6.123234e-17 1.000000e+00
    outer loop
      vertex -1.181097e+01 2.362057e+00 5.456000e+00
      vertex -2.125974e+01 7.086444e+00 5.456000e+00
      vertex -2.125974e+01 2.362057e+00 5.456000e+00
    endloop
  endfacet
  facet normal 0.000000e+00 6.123234e-17 1.000000e+00
    outer loop
      vertex -1.181097e+01 2.362057e+00 5.456000e+00
      vertex -2.125974e+01 2.362057e+00 5.456000e+00
      vertex -1.181097e+01 -2.362329e+00 5.456000e+00
    endloop
  endfacet
  facet normal 0.000000e+00 6.123234e-17 1.000000e+00
    outer loop
      vertex -1.181097e+01 -2.362329e+00 5.456000e+00
      vertex -2.125974e+01 2.362057e+00 5.456000e+00
      vertex -1.181097e+01 -1.181110e+01 5.456000e+00
    endloop
  endfacet
  facet normal 0.000000e+00 6.123234e-17 1.000000e+00
    outer loop
      vertex -1.181097e+01 -2.362329e+00 5.456000e+00
      vertex -1.181097e+01 -1.181110e+01 5.456000e+00
      vertex -7.086578e+00 -2.362329e+00 5.456000e+00
    endloop
  endfacet
  facet normal 0.000000e+00 6.123234e-17 1.000000e+00
    outer loop
      vertex -7.086578e+00 -2.362329e+00 5.456000e+00
      vertex -1.181097e+01 -1.181110e+01 5.456000e+00
      vertex 1.181097e+01 -1.181110e+01 5.456000e+00
    endloop
  endfacet
  facet normal 0.000000e+00 6.123234e-17 1.000000e+00
    outer loop
      vertex -7.086578e+00 -2.362329e+00 5.456000e+00
      vertex 1.181097e+01 -1.181110e+01 5.456000e+00
      vertex 7.086580e+00 -2.362329e+00 5.456000e+00
    endloop
  endfacet
  facet normal 0.000000e+00 6.123234e-17 1.000000e+00
    outer loop
      vertex 7.086580e+00 -2.362329e+00 5.456000e+00
      vertex 1.181097e+01 -1.181110e+01 5.456000e+00
      vertex 1.181097e+01 -2.362329e+00 5.456000e+00
    endloop
  endfacet
  facet normal 0.000000e+00 -6.123234e-17 -1.000000e+00
    outer loop
      vertex 7.866333e+00 2.362057e+00 1.157158e-15
      vertex 6.943716e+00 3.636320e+00 1.079131e-15
      vertex 7.086580e+00 7.086444e+00 8.678722e-16
    endloop
  endfacet
  facet normal 0.000000e+00 -6.123234e-17 -1.000000e+00
    outer loop
      vertex 6.943716e+00 3.636320e+00 1.079131e-15
      vertex 5.816999e+00 4.734257e+00 1.011902e-15
      vertex 7.086580e+00 7.086444e+00 8.678722e-16
    endloop
  endfacet
  facet normal 0.000000e+00 -6.123234e-17 -1.000000e+00
    outer loop
      vertex 7.086580e+00 7.086444e+00 8.678722e-16
      vertex 5.816999e+00 4.734257e+00 1.011902e-15
      vertex 4.519291e+00 5.623595e+00 9.574459e-16
    endloop
  endfacet
  facet normal 0.000000e+00 -6.123234e-17 -1.000000e+00
    outer loop
      vertex 7.086580e+00 7.086444e+00 8.678722e-16
      vertex 4.519291e+00 5.623595e+00 9.574459e-16
      vertex 3.088746e+00 6.278193e+00 9.173633e-16
    endloop
  endfacet
  facet normal 0.000000e+00 -6.123234e-17 -1.000000e+00
    outer loop
      vertex 1.653535e+01 1.653549e+01 2.892853e-16
      vertex 1.653535e+01 1.181110e+01 5.785704e-16
      vertex 1.181097e+01 1.181110e+01 5.785704e-16
    endloop
  endfacet
  facet normal 0.000000e+00 -6.123234e-17 -1.000000e+00
    outer loop
      vertex 9.050850e+00 -3.872648e+00 1.538923e-15
      vertex 9.176000e+00 -2.362329e+00 1.446443e-15
      vertex 1.181097e+01 -2.362329e+00 1.446443e-15
    endloop
  endfacet
  facet normal 0.000000e+00 -6.123234e-17 -1.000000e+00
    outer loop
      vertex -2.362193e+00 -1.653549e+01 2.314298e-15
      vertex -2.362193e+00 -2.125987e+01 2.603584e-15
      vertex -1.181097e+01 -1.653549e+01 2.314298e-15
    endloop
  endfacet
  facet normal 0.000000e+00 -6.123234e-17 -1.000000e+00
    outer loop
      vertex -1.181097e+01 -1.653549e+01 2.314298e-15
      vertex -2.362193e+00 -2.125987e+01 2.603584e-15
      vertex -1.653535e+01 -2.125987e+01 2.603584e-15
    endloop
  endfacet
  facet normal 0.000000e+00 -6.123234e-17 -1.000000e+00
    outer loop
      vertex -1.181097e+01 -1.653549e+01 2.314298e-15
      vertex -1.653535e+01 -2.125987e+01 2.603584e-15
      vertex -1.181097e+01 -1.181110e+01 2.025013e-15
    endloop
  endfacet
  facet normal 0.000000e+00 -6.123234e-17 -1.000000e+00
    outer loop
      vertex 1.181097e+01 7.086444e+00 8.678722e-16
      vertex 2.125974e+01 7.086444e+00 8.678722e-16
      vertex 2.125974e+01 2.362057e+00 1.157158e-15
    endloop
  endfacet
  facet normal 0.000000e+00 -6.123234e-17 -1.000000e+00
    outer loop
      vertex 2.125974e+01 2.125987e+01 0.000000e+00
      vertex 2.125974e+01 1.653549e+01 2.892853e-16
      vertex 1.417316e+01 2.125987e+01 0.000000e+00
    endloop
  endfacet
  facet normal 0.000000e+00 -6.123234e-17 -1.000000e+00
    outer loop
      vertex 1.417316e+01 2.125987e+01 0.000000e+00
      vertex 2.125974e+01 1.653549e+01 2.892853e-16
      vertex 1.653535e+01 1.653549e+01 2.892853e-16
    endloop
  endfacet
  facet normal 0.000000e+00 -6.123234e-17 -1.000000e+00
    outer loop
      vertex 1.417316e+01 2.125987e+01 0.000000e+00
      vertex 1.653535e+01 1.653549e+01 2.892853e-16
      vertex 1.417316e+01 1.653549e+01 2.892853e-16
    endloop
  endfacet
  facet normal 0.000000e+00 -6.123234e-17 -1.000000e+00
    outer loop
      vertex 1.417316e+01 1.653549e+01 2.892853e-16
      vertex 1.653535e+01 1.653549e+01 2.892853e-16
      vertex 1.181097e+01 1.181110e+01 5.785704e-16
    endloop
  endfacet
  facet normal 0.000000e+00 -6.123234e-17 -1.000000e+00
    outer loop
      vertex 1.417316e+01 1.653549e+01 2.892853e-16
      vertex 1.181097e+01 1.181110e+01 5.785704e-16
      vertex 7.086580e+00 1.653549e+01 2.892853e-16
    endloop
  endfacet
  facet normal 0.000000e+00 -6.123234e-17 -1.000000e+00
    outer loop
      vertex 7.086580e+00 1.653549e+01 2.892853e-16
      vertex 1.181097e+01 1.181110e+01 5.785704e-16
      vertex 1.181097e+01 7.086444e+00 8.678722e-16
    endloop
  endfacet
  facet normal 0.000000e+00 -6.123234e-17 -1.000000e+00
    outer loop
      vertex 7.086580e+00 1.653549e+01 2.892853e-16
      vertex 1.181097e+01 7.086444e+00 8.678722e-16
      vertex 7.086580e+00 7.086444e+00 8.678722e-16
    endloop
  endfacet
  facet normal 0.000000e+00 -6.123234e-17 -1.000000e+00
    outer loop
      vertex 7.086580e+00 7.086444e+00 8.678722e-16
      vertex 1.181097e+01 7.086444e+00 8.678722e-16
      vertex 1.181097e+01 2.362057e+00 1.157158e-15
    endloop
  endfacet
  facet normal 0.000000e+00 -6.123234e-17 -1.000000e+00
    outer loop
      vertex 7.086580e+00 7.086444e+00 8.678722e-16
      vertex 1.181097e+01 2.362057e+00 1.157158e-15
      vertex 7.866333e+00 2.362057e+00 1.157158e-15
    endloop
  endfacet
  facet normal 0.000000e+00 -6.123234e-17 -1.000000e+00
    outer loop
      vertex 1.181097e+01 7.086444e+00 8.678722e-16
      vertex 2.125974e+01 2.362057e+00 1.157158e-15
      vertex 1.181097e+01 2.362057e+00 1.157158e-15
    endloop
  endfacet
  facet normal 0.000000e+00 -6.123234e-17 -1.000000e+00
    outer loop
      vertex 1.181097e+01 2.362057e+00 1.157158e-15
      vertex 2.125974e+01 2.362057e+00 1.157158e-15
      vertex 2.125974e+01 -7.086715e+00 1.735728e-15
    endloop
  endfacet
  facet normal 0.000000e+00 -6.123234e-17 -1.000000e+00
    outer loop
      vertex 1.181097e+01 2.362057e+00 1.157158e-15
      vertex 2.125974e+01 -7.086715e+00 1.735728e-15
      vertex 1.181097e+01 -2.362329e+00 1.446443e-15
    endloop
  endfacet
  facet normal 0.000000e+00 -6.123234e-17 -1.000000e+00
    outer loop
      vertex 1.181097e+01 -2.362329e+00 1.446443e-15
      vertex 2.125974e+01 -7.086715e+00 1.735728e-15
      vertex 2.125974e+01 -1.653549e+01 2.314298e-15
    endloop
  endfacet
  facet normal 0.000000e+00 -6.123234e-17 -1.000000e+00
    outer loop
      vertex 1.181097e+01 -2.362329e+00 1.446443e-15
      vertex 2.125974e+01 -1.653549e+01 2.314298e-15
      vertex 1.653535e+01 -1.653549e+01 2.314298e-15
    endloop
  endfacet
  facet normal 0.000000e+00 -6.123234e-17 -1.000000e+00
    outer loop
      vertex 3.070851e+01 -1.653549e+01 2.314298e-15
      vertex 2.598412e+01 -1.653549e+01 2.314298e-15
      vertex 3.070851e+01 -2.362329e+00 1.446443e-15
    endloop
  endfacet
  facet normal 0.000000e+00 -6.123234e-17 -1.000000e+00
    outer loop
      vertex 3.070851e+01 -2.362329e+00 1.446443e-15
      vertex 2.598412e+01 -1.653549e+01 2.314298e-15
      vertex 2.598412e+01 -7.086715e+00 1.735728e-15
    endloop
  endfacet
  facet normal 0.000000e+00 -6.123234e-17 -1.000000e+00
    outer loop
      vertex 3.070851e+01 -2.362329e+00 1.446443e-15
      vertex 2.598412e+01 -7.086715e+00 1.735728e-15
      vertex 2.598412e+01 -2.362329e+00 1.446443e-15
    endloop
  endfacet
  facet normal 0.000000e+00 -6.123234e-17 -1.000000e+00
    outer loop
      vertex 2.598412e+01 -2.362329e+00 1.446443e-15
      vertex 2.598412e+01 -7.086715e+00 1.735728e-15
      vertex 2.125974e+01 -7.086715e+00 1.735728e-15
    endloop
  endfacet
  facet normal 0.000000e+00 -6.123234e-17 -1.000000e+00
    outer loop
      vertex 2.598412e+01 -2.362329e+00 1.446443e-15
      vertex 2.125974e+01 -7.086715e+00 1.735728e-15
      vertex 2.598412e+01 2.362057e+00 1.157158e-15
    endloop
  endfacet
  facet normal 0.000000e+00 -6.123234e-17 -1.000000e+00
    outer loop
      vertex 2.598412e+01 2.362057e+00 1.157158e-15
      vertex 2.125974e+01 -7.086715e+00 1.735728e-15
      vertex 2.125974e+01 2.362057e+00 1.157158e-15
    endloop
  endfacet
  facet normal 0.000000e+00 -6.123234e-17 -1.000000e+00
    outer loop
      vertex -1.653535e+01 -2.125987e+01 2.603584e-15
      vertex -1.653535e+01 -1.653549e+01 2.314298e-15
      vertex -1.181097e+01 -1.181110e+01 2.025013e-15
    endloop
  endfacet
  facet normal 0.000000e+00 -6.123234e-17 -1.000000e+00
    outer loop
      vertex -1.181097e+01 -1.181110e+01 2.025013e-15
      vertex -1.653535e+01 -1.653549e+01 2.314298e-15
      vertex -2.125974e+01 -1.653549e+01 2.314298e-15
    endloop
  endfacet
  facet normal 0.000000e+00 -6.123234e-17 -1.000000e+00
    outer loop
      vertex -1.181097e+01 -1.181110e+01 2.025013e-15
      vertex -2.125974e+01 -1.653549e+01 2.314298e-15
      vertex -2.125974e+01 -7.086715e+00 1.735728e-15
    endloop
  endfacet
  facet normal 0.000000e+00 -6.123234e-17 -1.000000e+00
    outer loop
      vertex -1.181097e+01 -2.362329e+00 1.446443e-15
      vertex -2.125974e+01 2.362057e+00 1.157158e-15
      vertex -1.181097e+01 2.362057e+00 1.157158e-15
    endloop
  endfacet
  facet normal 0.000000e+00 -6.123234e-17 -1.000000e+00
    outer loop
      vertex -1.181097e+01 2.362057e+00 1.157158e-15
      vertex -2.125974e+01 2.362057e+00 1.157158e-15
      vertex -2.125974e+01 7.086444e+00 8.678722e-16
    endloop
  endfacet
  facet normal 0.000000e+00 -6.123234e-17 -1.000000e+00
    outer loop
      vertex -1.181097e+01 2.362057e+00 1.157158e-15
      vertex -2.125974e+01 7.086444e+00 8.678722e-16
      vertex -7.866329e+00 2.362057e+00 1.157158e-15
    endloop
  endfacet
  facet normal 0.000000e+00 -6.123234e-17 -1.000000e+00
    outer loop
      vertex -7.086578e+00 7.086444e+00 8.678722e-16
      vertex -1.181097e+01 7.086444e+00 8.678722e-16
      vertex -1.181097e+01 1.181110e+01 5.785704e-16
    endloop
  endfacet
  facet normal 0.000000e+00 -6.123234e-17 -1.000000e+00
    outer loop
      vertex 3.088746e+00 6.278193e+00 9.173633e-16
      vertex 1.567411e+00 6.678811e+00 8.928326e-16
      vertex 7.086580e+00 7.086444e+00 8.678722e-16
    endloop
  endfacet
  facet normal 0.000000e+00 -6.123234e-17 -1.000000e+00
    outer loop
      vertex 7.086580e+00 7.086444e+00 8.678722e-16
      vertex 1.567411e+00 6.678811e+00 8.928326e-16
      vertex 0.000000e+00 6.813671e+00 8.845748e-16
    endloop
  endfacet
  facet normal 0.000000e+00 -6.123234e-17 -1.000000e+00
    outer loop
      vertex 7.086580e+00 7.086444e+00 8.678722e-16
      vertex 0.000000e+00 6.813671e+00 8.845748e-16
      vertex -7.086578e+00 7.086444e+00 8.678722e-16
    endloop
  endfacet
  facet normal 0.000000e+00 -6.123234e-17 -1.000000e+00
    outer loop
      vertex -7.086578e+00 7.086444e+00 8.678722e-16
      vertex 0.000000e+00 6.813671e+00 8.845748e-16
      vertex -1.567409e+00 6.678811e+00 8.928326e-16
    endloop
  endfacet
  facet normal 0.000000e+00 -6.123234e-17 -1.000000e+00
    outer loop
      vertex 1.181097e+01 -1.181110e+01 2.025013e-15
      vertex 8.070051e+00 -6.729622e+00 1.713862e-15
      vertex 8.678819e+00 -5.341771e+00 1.628881e-15
    endloop
  endfacet
  facet normal 0.000000e+00 -6.123234e-17 -1.000000e+00
    outer loop
      vertex -2.125974e+01 1.653549e+01 2.892853e-16
      vertex -2.125974e+01 2.125987e+01 0.000000e+00
      vertex -1.653535e+01 1.653549e+01 2.892853e-16
    endloop
  endfacet
  facet normal 0.000000e+00 -6.123234e-17 -1.000000e+00
    outer loop
      vertex -1.653535e+01 1.653549e+01 2.892853e-16
      vertex -2.125974e+01 2.125987e+01 0.000000e+00
      vertex -1.417316e+01 2.125987e+01 0.000000e+00
    endloop
  endfacet
  facet normal 0.000000e+00 -6.123234e-17 -1.000000e+00
    outer loop
      vertex -1.653535e+01 1.653549e+01 2.892853e-16
      vertex -1.417316e+01 2.125987e+01 0.000000e+00
      vertex -1.653535e+01 1.181110e+01 5.785704e-16
    endloop
  endfacet
  facet normal 0.000000e+00 -6.123234e-17 -1.000000e+00
    outer loop
      vertex -1.653535e+01 1.181110e+01 5.785704e-16
      vertex -1.417316e+01 2.125987e+01 0.000000e+00
      vertex -1.417316e+01 1.653549e+01 2.892853e-16
    endloop
  endfacet
  facet normal 0.000000e+00 -6.123234e-17 -1.000000e+00
    outer loop
      vertex -1.653535e+01 1.181110e+01 5.785704e-16
      vertex -1.417316e+01 1.653549e+01 2.892853e-16
      vertex -1.181097e+01 1.181110e+01 5.785704e-16
    endloop
  endfacet
  facet normal 0.000000e+00 -6.123234e-17 -1.000000e+00
    outer loop
      vertex -1.181097e+01 1.181110e+01 5.785704e-16
      vertex -1.417316e+01 1.653549e+01 2.892853e-16
      vertex -7.086578e+00 1.653549e+01 2.892853e-16
    endloop
  endfacet
  facet normal 0.000000e+00 -6.123234e-17 -1.000000e+00
    outer loop
      vertex -1.181097e+01 1.181110e+01 5.785704e-16
      vertex -7.086578e+00 1.653549e+01 2.892853e-16
      vertex -7.086578e+00 7.086444e+00 8.678722e-16
    endloop
  endfacet
  facet normal 0.000000e+00 -6.123234e-17 -1.000000e+00
    outer loop
      vertex -2.598412e+01 -1.653549e+01 2.314298e-15
      vertex -3.070851e+01 -1.653549e+01 2.314298e-15
      vertex -2.598412e+01 -7.086715e+00 1.735728e-15
    endloop
  endfacet
  facet normal 0.000000e+00 -6.123234e-17 -1.000000e+00
    outer loop
      vertex -2.598412e+01 -7.086715e+00 1.735728e-15
      vertex -3.070851e+01 -1.653549e+01 2.314298e-15
      vertex -3.070851e+01 -2.362329e+00 1.446443e-15
    endloop
  endfacet
  facet normal 0.000000e+00 -6.123234e-17 -1.000000e+00
    outer loop
      vertex -2.598412e+01 -7.086715e+00 1.735728e-15
      vertex -3.070851e+01 -2.362329e+00 1.446443e-15
      vertex -2.125974e+01 -7.086715e+00 1.735728e-15
    endloop
  endfacet
  facet normal 0.000000e+00 -6.123234e-17 -1.000000e+00
    outer loop
      vertex -2.125974e+01 -7.086715e+00 1.735728e-15
      vertex -3.070851e+01 -2.362329e+00 1.446443e-15
      vertex -2.598412e+01 -2.362329e+00 1.446443e-15
    endloop
  endfacet
  facet normal 0.000000e+00 -6.123234e-17 -1.000000e+00
    outer loop
      vertex -2.125974e+01 -7.086715e+00 1.735728e-15
      vertex -2.598412e+01 -2.362329e+00 1.446443e-15
      vertex -1.181097e+01 -1.181110e+01 2.025013e-15
    endloop
  endfacet
  facet normal 0.000000e+00 -6.123234e-17 -1.000000e+00
    outer loop
      vertex -5.018795e+00 -1.004417e+01 1.916820e-15
      vertex -3.685958e+00 -1.076547e+01 1.960986e-15
      vertex -1.181097e+01 -1.181110e+01 2.025013e-15
    endloop
  endfacet
  facet normal 0.000000e+00 -6.123234e-17 -1.000000e+00
    outer loop
      vertex 2.362195e+00 -2.125987e+01 2.603584e-15
      vertex 2.362195e+00 -1.653549e+01 2.314298e-15
      vertex 1.653535e+01 -2.125987e+01 2.603584e-15
    endloop
  endfacet
  facet normal 0.000000e+00 -6.123234e-17 -1.000000e+00
    outer loop
      vertex 1.653535e+01 -2.125987e+01 2.603584e-15
      vertex 2.362195e+00 -1.653549e+01 2.314298e-15
      vertex 1.181097e+01 -1.653549e+01 2.314298e-15
    endloop
  endfacet
  facet normal 0.000000e+00 -6.123234e-17 -1.000000e+00
    outer loop
      vertex 1.653535e+01 -2.125987e+01 2.603584e-15
      vertex 1.181097e+01 -1.653549e+01 2.314298e-15
      vertex 1.653535e+01 -1.653549e+01 2.314298e-15
    endloop
  endfacet
  facet normal 0.000000e+00 -6.123234e-17 -1.000000e+00
    outer loop
      vertex 1.653535e+01 -1.653549e+01 2.314298e-15
      vertex 1.181097e+01 -1.653549e+01 2.314298e-15
      vertex 1.181097e+01 -1.181110e+01 2.025013e-15
    endloop
  endfacet
  facet normal 0.000000e+00 -6.123234e-17 -1.000000e+00
    outer loop
      vertex 1.653535e+01 -1.653549e+01 2.314298e-15
      vertex 1.181097e+01 -1.181110e+01 2.025013e-15
      vertex 1.181097e+01 -2.362329e+00 1.446443e-15
    endloop
  endfacet
  facet normal 0.000000e+00 -6.123234e-17 -1.000000e+00
    outer loop
      vertex 1.181097e+01 -2.362329e+00 1.446443e-15
      vertex 1.181097e+01 -1.181110e+01 2.025013e-15
      vertex 8.678819e+00 -5.341771e+00 1.628881e-15
    endloop
  endfacet
  facet normal 0.000000e+00 -6.123234e-17 -1.000000e+00
    outer loop
      vertex 1.181097e+01 -2.362329e+00 1.446443e-15
      vertex 8.678819e+00 -5.341771e+00 1.628881e-15
      vertex 9.050850e+00 -3.872648e+00 1.538923e-15
    endloop
  endfacet
  facet normal 0.000000e+00 -6.123234e-17 -1.000000e+00
    outer loop
      vertex -9.176000e+00 -2.362329e+00 1.446443e-15
      vertex -9.050850e+00 -3.872648e+00 1.538923e-15
      vertex -1.181097e+01 -2.362329e+00 1.446443e-15
    endloop
  endfacet
  facet normal 0.000000e+00 -6.123234e-17 -1.000000e+00
    outer loop
      vertex -1.181097e+01 -2.362329e+00 1.446443e-15
      vertex -9.050850e+00 -3.872648e+00 1.538923e-15
      vertex -8.678817e+00 -5.341771e+00 1.628881e-15
    endloop
  endfacet
  facet normal 0.000000e+00 -6.123234e-17 -1.000000e+00
    outer loop
      vertex -6.214736e+00 -9.113332e+00 1.859822e-15
      vertex -2.125974e+01 2.362057e+00 1.157158e-15
      vertex -7.241153e+00 -7.998344e+00 1.791549e-15
    endloop
  endfacet
  facet normal 0.000000e+00 -6.123234e-17 -1.000000e+00
    outer loop
      vertex -7.241153e+00 -7.998344e+00 1.791549e-15
      vertex -2.125974e+01 2.362057e+00 1.157158e-15
      vertex -1.181097e+01 -2.362329e+00 1.446443e-15
    endloop
  endfacet
  facet normal 0.000000e+00 -6.123234e-17 -1.000000e+00
    outer loop
      vertex -7.241153e+00 -7.998344e+00 1.791549e-15
      vertex -1.181097e+01 -2.362329e+00 1.446443e-15
      vertex -8.070051e+00 -6.729622e+00 1.713862e-15
    endloop
  endfacet
  facet normal 0.000000e+00 -6.123234e-17 -1.000000e+00
    outer loop
      vertex -8.070051e+00 -6.729622e+00 1.713862e-15
      vertex -1.181097e+01 -2.362329e+00 1.446443e-15
      vertex -8.678817e+00 -5.341771e+00 1.628881e-15
    endloop
  endfacet
  facet normal 0.000000e+00 -6.123234e-17 -1.000000e+00
    outer loop
      vertex -2.125974e+01 7.086444e+00 8.678722e-16
      vertex -1.181097e+01 7.086444e+00 8.678722e-16
      vertex -7.866329e+00 2.362057e+00 1.157158e-15
    endloop
  endfacet
  facet normal 0.000000e+00 -6.123234e-17 -1.000000e+00
    outer loop
      vertex -7.866329e+00 2.362057e+00 1.157158e-15
      vertex -1.181097e+01 7.086444e+00 8.678722e-16
      vertex -7.086578e+00 7.086444e+00 8.678722e-16
    endloop
  endfacet
  facet normal 0.000000e+00 -6.123234e-17 -1.000000e+00
    outer loop
      vertex -7.866329e+00 2.362057e+00 1.157158e-15
      vertex -7.086578e+00 7.086444e+00 8.678722e-16
      vertex -6.943716e+00 3.636320e+00 1.079131e-15
    endloop
  endfacet
  facet normal 0.000000e+00 -6.123234e-17 -1.000000e+00
    outer loop
      vertex -6.943716e+00 3.636320e+00 1.079131e-15
      vertex -7.086578e+00 7.086444e+00 8.678722e-16
      vertex -5.816997e+00 4.734257e+00 1.011902e-15
    endloop
  endfacet
  facet normal 0.000000e+00 -6.123234e-17 -1.000000e+00
    outer loop
      vertex 2.252575e+00 -1.125754e+01 1.991118e-15
      vertex 3.685961e+00 -1.076547e+01 1.960986e-15
      vertex 1.181097e+01 -1.181110e+01 2.025013e-15
    endloop
  endfacet
  facet normal 0.000000e+00 -6.123234e-17 -1.000000e+00
    outer loop
      vertex 1.181097e+01 -1.181110e+01 2.025013e-15
      vertex 3.685961e+00 -1.076547e+01 1.960986e-15
      vertex 5.018799e+00 -1.004417e+01 1.916820e-15
    endloop
  endfacet
  facet normal 0.000000e+00 -6.123234e-17 -1.000000e+00
    outer loop
      vertex -1.567409e+00 6.678811e+00 8.928326e-16
      vertex -3.088746e+00 6.278193e+00 9.173633e-16
      vertex -7.086578e+00 7.086444e+00 8.678722e-16
    endloop
  endfacet
  facet normal 0.000000e+00 -6.123234e-17 -1.000000e+00
    outer loop
      vertex -7.086578e+00 7.086444e+00 8.678722e-16
      vertex -3.088746e+00 6.278193e+00 9.173633e-16
      vertex -4.519291e+00 5.623595e+00 9.574459e-16
    endloop
  endfacet
  facet normal 0.000000e+00 -6.123234e-17 -1.000000e+00
    outer loop
      vertex -7.086578e+00 7.086444e+00 8.678722e-16
      vertex -4.519291e+00 5.623595e+00 9.574459e-16
      vertex -5.816997e+00 4.734257e+00 1.011902e-15
    endloop
  endfacet
  facet normal 0.000000e+00 -6.123234e-17 -1.000000e+00
    outer loop
      vertex -6.214736e+00 -9.113332e+00 1.859822e-15
      vertex -5.018795e+00 -1.004417e+01 1.916820e-15
      vertex -2.125974e+01 2.362057e+00 1.157158e-15
    endloop
  endfacet
  facet normal 0.000000e+00 -6.123234e-17 -1.000000e+00
    outer loop
      vertex -2.125974e+01 2.362057e+00 1.157158e-15
      vertex -5.018795e+00 -1.004417e+01 1.916820e-15
      vertex -1.181097e+01 -1.181110e+01 2.025013e-15
    endloop
  endfacet
  facet normal 0.000000e+00 -6.123234e-17 -1.000000e+00
    outer loop
      vertex -2.125974e+01 2.362057e+00 1.157158e-15
      vertex -1.181097e+01 -1.181110e+01 2.025013e-15
      vertex -2.598412e+01 2.362057e+00 1.157158e-15
    endloop
  endfacet
  facet normal 0.000000e+00 -6.123234e-17 -1.000000e+00
    outer loop
      vertex -2.598412e+01 2.362057e+00 1.157158e-15
      vertex -1.181097e+01 -1.181110e+01 2.025013e-15
      vertex -2.598412e+01 -2.362329e+00 1.446443e-15
    endloop
  endfacet
  facet normal 0.000000e+00 -6.123234e-17 -1.000000e+00
    outer loop
      vertex -3.685958e+00 -1.076547e+01 1.960986e-15
      vertex -2.252575e+00 -1.125754e+01 1.991118e-15
      vertex -1.181097e+01 -1.181110e+01 2.025013e-15
    endloop
  endfacet
  facet normal 0.000000e+00 -6.123234e-17 -1.000000e+00
    outer loop
      vertex -1.181097e+01 -1.181110e+01 2.025013e-15
      vertex -2.252575e+00 -1.125754e+01 1.991118e-15
      vertex -7.577479e-01 -1.150699e+01 2.006392e-15
    endloop
  endfacet
  facet normal 0.000000e+00 -6.123234e-17 -1.000000e+00
    outer loop
      vertex -1.181097e+01 -1.181110e+01 2.025013e-15
      vertex -7.577479e-01 -1.150699e+01 2.006392e-15
      vertex 1.181097e+01 -1.181110e+01 2.025013e-15
    endloop
  endfacet
  facet normal 0.000000e+00 -6.123234e-17 -1.000000e+00
    outer loop
      vertex 1.181097e+01 -1.181110e+01 2.025013e-15
      vertex -7.577479e-01 -1.150699e+01 2.006392e-15
      vertex 7.577479e-01 -1.150699e+01 2.006392e-15
    endloop
  endfacet
  facet normal 0.000000e+00 -6.123234e-17 -1.000000e+00
    outer loop
      vertex 1.181097e+01 -1.181110e+01 2.025013e-15
      vertex 7.577479e-01 -1.150699e+01 2.006392e-15
      vertex 2.252575e+00 -1.125754e+01 1.991118e-15
    endloop
  endfacet
  facet normal 0.000000e+00 -6.123234e-17 -1.000000e+00
    outer loop
      vertex 5.018799e+00 -1.004417e+01 1.916820e-15
      vertex 6.214739e+00 -9.113332e+00 1.859822e-15
      vertex 1.181097e+01 -1.181110e+01 2.025013e-15
    endloop
  endfacet
  facet normal 0.000000e+00 -6.123234e-17 -1.000000e+00
    outer loop
      vertex 1.181097e+01 -1.181110e+01 2.025013e-15
      vertex 6.214739e+00 -9.113332e+00 1.859822e-15
      vertex 7.241153e+00 -7.998344e+00 1.791549e-15
    endloop
  endfacet
  facet normal 0.000000e+00 -6.123234e-17 -1.000000e+00
    outer loop
      vertex 1.181097e+01 -1.181110e+01 2.025013e-15
      vertex 7.241153e+00 -7.998344e+00 1.791549e-15
      vertex 8.070051e+00 -6.729622e+00 1.713862e-15
    endloop
  endfacet
  facet normal 0.000000e+00 1.000000e+00 -6.123234e-17
    outer loop
      vertex 2.598412e+01 -2.362329e+00 5.456000e+00
      vertex 3.070851e+01 -2.362329e+00 5.456000e+00
      vertex 2.598412e+01 -2.362329e+00 1.446443e-15
    endloop
  endfacet
  facet normal 0.000000e+00 1.000000e+00 -6.123234e-17
    outer loop
      vertex 2.598412e+01 -2.362329e+00 1.446443e-15
      vertex 3.070851e+01 -2.362329e+00 5.456000e+00
      vertex 3.070851e+01 -2.362329e+00 1.446443e-15
    endloop
  endfacet
  facet normal 1.000000e+00 0.000000e+00 0.000000e+00
    outer loop
      vertex 2.598412e+01 2.362057e+00 5.456000e+00
      vertex 2.598412e+01 -2.362329e+00 5.456000e+00
      vertex 2.598412e+01 2.362057e+00 1.157158e-15
    endloop
  endfacet
  facet normal 1.000000e+00 0.000000e+00 0.000000e+00
    outer loop
      vertex 2.598412e+01 2.362057e+00 1.157158e-15
      vertex 2.598412e+01 -2.362329e+00 5.456000e+00
      vertex 2.598412e+01 -2.362329e+00 1.446443e-15
    endloop
  endfacet
  facet normal 0.000000e+00 1.000000e+00 -6.123234e-17
    outer loop
      vertex 2.125974e+01 2.362057e+00 5.456000e+00
      vertex 2.598412e+01 2.362057e+00 5.456000e+00
      vertex 2.125974e+01 2.362057e+00 1.157158e-15
    endloop
  endfacet
  facet normal 0.000000e+00 1.000000e+00 -6.123234e-17
    outer loop
      vertex 2.125974e+01 2.362057e+00 1.157158e-15
      vertex 2.598412e+01 2.362057e+00 5.456000e+00
      vertex 2.598412e+01 2.362057e+00 1.157158e-15
    endloop
  endfacet
  facet normal 1.000000e+00 0.000000e+00 0.000000e+00
    outer loop
      vertex 2.125974e+01 7.086444e+00 5.456000e+00
      vertex 2.125974e+01 2.362057e+00 5.456000e+00
      vertex 2.125974e+01 7.086444e+00 8.678722e-16
    endloop
  endfacet
  facet normal 1.000000e+00 0.000000e+00 0.000000e+00
    outer loop
      vertex 2.125974e+01 7.086444e+00 8.678722e-16
      vertex 2.125974e+01 2.362057e+00 5.456000e+00
      vertex 2.125974e+01 2.362057e+00 1.157158e-15
    endloop
  endfacet
  facet normal 0.000000e+00 1.000000e+00 -6.123234e-17
    outer loop
      vertex 1.181097e+01 7.086444e+00 5.456000e+00
      vertex 2.125974e+01 7.086444e+00 5.456000e+00
      vertex 1.181097e+01 7.086444e+00 8.678722e-16
    endloop
  endfacet
  facet normal 0.000000e+00 1.000000e+00 -6.123234e-17
    outer loop
      vertex 1.181097e+01 7.086444e+00 8.678722e-16
      vertex 2.125974e+01 7.086444e+00 5.456000e+00
      vertex 2.125974e+01 7.086444e+00 8.678722e-16
    endloop
  endfacet
  facet normal 1.000000e+00 0.000000e+00 0.000000e+00
    outer loop
      vertex 1.181097e+01 1.181110e+01 5.456000e+00
      vertex 1.181097e+01 7.086444e+00 5.456000e+00
      vertex 1.181097e+01 1.181110e+01 5.785704e-16
    endloop
  endfacet
  facet normal 1.000000e+00 0.000000e+00 0.000000e+00
    outer loop
      vertex 1.181097e+01 1.181110e+01 5.785704e-16
      vertex 1.181097e+01 7.086444e+00 5.456000e+00
      vertex 1.181097e+01 7.086444e+00 8.678722e-16
    endloop
  endfacet
  facet normal 0.000000e+00 -1.000000e+00 6.123234e-17
    outer loop
      vertex 1.653535e+01 1.181110e+01 5.456000e+00
      vertex 1.181097e+01 1.181110e+01 5.456000e+00
      vertex 1.653535e+01 1.181110e+01 5.785704e-16
    endloop
  endfacet
  facet normal 0.000000e+00 -1.000000e+00 6.123234e-17
    outer loop
      vertex 1.653535e+01 1.181110e+01 5.785704e-16
      vertex 1.181097e+01 1.181110e+01 5.456000e+00
      vertex 1.181097e+01 1.181110e+01 5.785704e-16
    endloop
  endfacet
  facet normal 1.000000e+00 0.000000e+00 0.000000e+00
    outer loop
      vertex 1.653535e+01 1.653549e+01 5.456000e+00
      vertex 1.653535e+01 1.181110e+01 5.456000e+00
      vertex 1.653535e+01 1.653549e+01 2.892853e-16
    endloop
  endfacet
  facet normal 1.000000e+00 0.000000e+00 0.000000e+00
    outer loop
      vertex 1.653535e+01 1.653549e+01 2.892853e-16
      vertex 1.653535e+01 1.181110e+01 5.456000e+00
      vertex 1.653535e+01 1.181110e+01 5.785704e-16
    endloop
  endfacet
  facet normal 0.000000e+00 -1.000000e+00 6.123234e-17
    outer loop
      vertex 2.125974e+01 1.653549e+01 5.456000e+00
      vertex 1.653535e+01 1.653549e+01 5.456000e+00
      vertex 2.125974e+01 1.653549e+01 2.892853e-16
    endloop
  endfacet
  facet normal 0.000000e+00 -1.000000e+00 6.123234e-17
    outer loop
      vertex 2.125974e+01 1.653549e+01 2.892853e-16
      vertex 1.653535e+01 1.653549e+01 5.456000e+00
      vertex 1.653535e+01 1.653549e+01 2.892853e-16
    endloop
  endfacet
  facet normal 1.000000e+00 0.000000e+00 0.000000e+00
    outer loop
      vertex 2.125974e+01 2.125987e+01 5.456000e+00
      vertex 2.125974e+01 1.653549e+01 5.456000e+00
      vertex 2.125974e+01 2.125987e+01 0.000000e+00
    endloop
  endfacet
  facet normal 1.000000e+00 0.000000e+00 0.000000e+00
    outer loop
      vertex 2.125974e+01 2.125987e+01 0.000000e+00
      vertex 2.125974e+01 1.653549e+01 5.456000e+00
      vertex 2.125974e+01 1.653549e+01 2.892853e-16
    endloop
  endfacet
  facet normal 0.000000e+00 1.000000e+00 -6.123234e-17
    outer loop
      vertex 1.417316e+01 2.125987e+01 5.456000e+00
      vertex 2.125974e+01 2.125987e+01 5.456000e+00
      vertex 1.417316e+01 2.125987e+01 0.000000e+00
    endloop
  endfacet
  facet normal 0.000000e+00 1.000000e+00 -6.123234e-17
    outer loop
      vertex 1.417316e+01 2.125987e+01 0.000000e+00
      vertex 2.125974e+01 2.125987e+01 5.456000e+00
      vertex 2.125974e+01 2.125987e+01 0.000000e+00
    endloop
  endfacet
  facet normal -1.000000e+00 0.000000e+00 0.000000e+00
    outer loop
      vertex 1.417316e+01 1.653549e+01 5.456000e+00
      vertex 1.417316e+01 2.125987e+01 5.456000e+00
      vertex 1.417316e+01 1.653549e+01 2.892853e-16
    endloop
  endfacet
  facet normal -1.000000e+00 0.000000e+00 0.000000e+00
    outer loop
      vertex 1.417316e+01 1.653549e+01 2.892853e-16
      vertex 1.417316e+01 2.125987e+01 5.456000e+00
      vertex 1.417316e+01 2.125987e+01 0.000000e+00
    endloop
  endfacet
  facet normal 0.000000e+00 1.000000e+00 -6.123234e-17
    outer loop
      vertex 7.086580e+00 1.653549e+01 5.456000e+00
      vertex 1.417316e+01 1.653549e+01 5.456000e+00
      vertex 7.086580e+00 1.653549e+01 2.892853e-16
    endloop
  endfacet
  facet normal 0.000000e+00 1.000000e+00 -6.123234e-17
    outer loop
      vertex 7.086580e+00 1.653549e+01 2.892853e-16
      vertex 1.417316e+01 1.653549e+01 5.456000e+00
      vertex 1.417316e+01 1.653549e+01 2.892853e-16
    endloop
  endfacet
  facet normal -1.000000e+00 0.000000e+00 0.000000e+00
    outer loop
      vertex 7.086580e+00 7.086444e+00 5.456000e+00
      vertex 7.086580e+00 1.653549e+01 5.456000e+00
      vertex 7.086580e+00 7.086444e+00 8.678722e-16
    endloop
  endfacet
  facet normal -1.000000e+00 0.000000e+00 0.000000e+00
    outer loop
      vertex 7.086580e+00 7.086444e+00 8.678722e-16
      vertex 7.086580e+00 1.653549e+01 5.456000e+00
      vertex 7.086580e+00 1.653549e+01 2.892853e-16
    endloop
  endfacet
  facet normal 0.000000e+00 1.000000e+00 -6.123234e-17
    outer loop
      vertex -7.086578e+00 7.086444e+00 5.456000e+00
      vertex 7.086580e+00 7.086444e+00 5.456000e+00
      vertex -7.086578e+00 7.086444e+00 8.678722e-16
    endloop
  endfacet
  facet normal 0.000000e+00 1.000000e+00 -6.123234e-17
    outer loop
      vertex -7.086578e+00 7.086444e+00 8.678722e-16
      vertex 7.086580e+00 7.086444e+00 5.456000e+00
      vertex 7.086580e+00 7.086444e+00 8.678722e-16
    endloop
  endfacet
  facet normal 1.000000e+00 0.000000e+00 0.000000e+00
    outer loop
      vertex -7.086578e+00 1.653549e+01 5.456000e+00
      vertex -7.086578e+00 7.086444e+00 5.456000e+00
      vertex -7.086578e+00 1.653549e+01 2.892853e-16
    endloop
  endfacet
  facet normal 1.000000e+00 0.000000e+00 0.000000e+00
    outer loop
      vertex -7.086578e+00 1.653549e+01 2.892853e-16
      vertex -7.086578e+00 7.086444e+00 5.456000e+00
      vertex -7.086578e+00 7.086444e+00 8.678722e-16
    endloop
  endfacet
  facet normal 0.000000e+00 1.000000e+00 -6.123234e-17
    outer loop
      vertex -1.417316e+01 1.653549e+01 5.456000e+00
      vertex -7.086578e+00 1.653549e+01 5.456000e+00
      vertex -1.417316e+01 1.653549e+01 2.892853e-16
    endloop
  endfacet
  facet normal 0.000000e+00 1.000000e+00 -6.123234e-17
    outer loop
      vertex -1.417316e+01 1.653549e+01 2.892853e-16
      vertex -7.086578e+00 1.653549e+01 5.456000e+00
      vertex -7.086578e+00 1.653549e+01 2.892853e-16
    endloop
  endfacet
  facet normal 1.000000e+00 0.000000e+00 0.000000e+00
    outer loop
      vertex -1.417316e+01 2.125987e+01 5.456000e+00
      vertex -1.417316e+01 1.653549e+01 5.456000e+00
      vertex -1.417316e+01 2.125987e+01 0.000000e+00
    endloop
  endfacet
  facet normal 1.000000e+00 0.000000e+00 0.000000e+00
    outer loop
      vertex -1.417316e+01 2.125987e+01 0.000000e+00
      vertex -1.417316e+01 1.653549e+01 5.456000e+00
      vertex -1.417316e+01 1.653549e+01 2.892853e-16
    endloop
  endfacet
  facet normal 0.000000e+00 1.000000e+00 -6.123234e-17
    outer loop
      vertex -2.125974e+01 2.125987e+01 5.456000e+00
      vertex -1.417316e+01 2.125987e+01 5.456000e+00
      vertex -2.125974e+01 2.125987e+01 0.000000e+00
    endloop
  endfacet
  facet normal 0.000000e+00 1.000000e+00 -6.123234e-17
    outer loop
      vertex -2.125974e+01 2.125987e+01 0.000000e+00
      vertex -1.417316e+01 2.125987e+01 5.456000e+00
      vertex -1.417316e+01 2.125987e+01 0.000000e+00
    endloop
  endfacet
  facet normal -1.000000e+00 0.000000e+00 0.000000e+00
    outer loop
      vertex -2.125974e+01 1.653549e+01 5.456000e+00
      vertex -2.125974e+01 2.125987e+01 5.456000e+00
      vertex -2.125974e+01 1.653549e+01 2.892853e-16
    endloop
  endfacet
  facet normal -1.000000e+00 0.000000e+00 0.000000e+00
    outer loop
      vertex -2.125974e+01 1.653549e+01 2.892853e-16
      vertex -2.125974e+01 2.125987e+01 5.456000e+00
      vertex -2.125974e+01 2.125987e+01 0.000000e+00
    endloop
  endfacet
  facet normal 0.000000e+00 -1.000000e+00 6.123234e-17
    outer loop
      vertex -1.653535e+01 1.653549e+01 5.456000e+00
      vertex -2.125974e+01 1.653549e+01 5.456000e+00
      vertex -1.653535e+01 1.653549e+01 2.892853e-16
    endloop
  endfacet
  facet normal 0.000000e+00 -1.000000e+00 6.123234e-17
    outer loop
      vertex -1.653535e+01 1.653549e+01 2.892853e-16
      vertex -2.125974e+01 1.653549e+01 5.456000e+00
      vertex -2.125974e+01 1.653549e+01 2.892853e-16
    endloop
  endfacet
  facet normal -1.000000e+00 0.000000e+00 0.000000e+00
    outer loop
      vertex -1.653535e+01 1.181110e+01 5.456000e+00
      vertex -1.653535e+01 1.653549e+01 5.456000e+00
      vertex -1.653535e+01 1.181110e+01 5.785704e-16
    endloop
  endfacet
  facet normal -1.000000e+00 0.000000e+00 0.000000e+00
    outer loop
      vertex -1.653535e+01 1.181110e+01 5.785704e-16
      vertex -1.653535e+01 1.653549e+01 5.456000e+00
      vertex -1.653535e+01 1.653549e+01 2.892853e-16
    endloop
  endfacet
  facet normal 0.000000e+00 -1.000000e+00 6.123234e-17
    outer loop
      vertex -1.181097e+01 1.181110e+01 5.456000e+00
      vertex -1.653535e+01 1.181110e+01 5.456000e+00
      vertex -1.181097e+01 1.181110e+01 5.785704e-16
    endloop
  endfacet
  facet normal 0.000000e+00 -1.000000e+00 6.123234e-17
    outer loop
      vertex -1.181097e+01 1.181110e+01 5.785704e-16
      vertex -1.653535e+01 1.181110e+01 5.456000e+00
      vertex -1.653535e+01 1.181110e+01 5.785704e-16
    endloop
  endfacet
  facet normal -1.000000e+00 0.000000e+00 0.000000e+00
    outer loop
      vertex -1.181097e+01 7.086444e+00 5.456000e+00
      vertex -1.181097e+01 1.181110e+01 5.456000e+00
      vertex -1.181097e+01 7.086444e+00 8.678722e-16
    endloop
  endfacet
  facet normal -1.000000e+00 0.000000e+00 0.000000e+00
    outer loop
      vertex -1.181097e+01 7.086444e+00 8.678722e-16
      vertex -1.181097e+01 1.181110e+01 5.456000e+00
      vertex -1.181097e+01 1.181110e+01 5.785704e-16
    endloop
  endfacet
  facet normal 0.000000e+00 1.000000e+00 -6.123234e-17
    outer loop
      vertex -2.125974e+01 7.086444e+00 5.456000e+00
      vertex -1.181097e+01 7.086444e+00 5.456000e+00
      vertex -2.125974e+01 7.086444e+00 8.678722e-16
    endloop
  endfacet
  facet normal 0.000000e+00 1.000000e+00 -6.123234e-17
    outer loop
      vertex -2.125974e+01 7.086444e+00 8.678722e-16
      vertex -1.181097e+01 7.086444e+00 5.456000e+00
      vertex -1.181097e+01 7.086444e+00 8.678722e-16
    endloop
  endfacet
  facet normal -1.000000e+00 0.000000e+00 0.000000e+00
    outer loop
      vertex -2.125974e+01 2.362057e+00 5.456000e+00
      vertex -2.125974e+01 7.086444e+00 5.456000e+00
      vertex -2.125974e+01 2.362057e+00 1.157158e-15
    endloop
  endfacet
  facet normal -1.000000e+00 0.000000e+00 0.000000e+00
    outer loop
      vertex -2.125974e+01 2.362057e+00 1.157158e-15
      vertex -2.125974e+01 7.086444e+00 5.456000e+00
      vertex -2.125974e+01 7.086444e+00 8.678722e-16
    endloop
  endfacet
  facet normal 0.000000e+00 1.000000e+00 -6.123234e-17
    outer loop
      vertex -2.598412e+01 2.362057e+00 5.456000e+00
      vertex -2.125974e+01 2.362057e+00 5.456000e+00
      vertex -2.598412e+01 2.362057e+00 1.157158e-15
    endloop
  endfacet
  facet normal 0.000000e+00 1.000000e+00 -6.123234e-17
    outer loop
      vertex -2.598412e+01 2.362057e+00 1.157158e-15
      vertex -2.125974e+01 2.362057e+00 5.456000e+00
      vertex -2.125974e+01 2.362057e+00 1.157158e-15
    endloop
  endfacet
  facet normal -1.000000e+00 0.000000e+00 0.000000e+00
    outer loop
      vertex -2.598412e+01 -2.362329e+00 5.456000e+00
      vertex -2.598412e+01 2.362057e+00 5.456000e+00
      vertex -2.598412e+01 -2.362329e+00 1.446443e-15
    endloop
  endfacet
  facet normal -1.000000e+00 0.000000e+00 0.000000e+00
    outer loop
      vertex -2.598412e+01 -2.362329e+00 1.446443e-15
      vertex -2.598412e+01 2.362057e+00 5.456000e+00
      vertex -2.598412e+01 2.362057e+00 1.157158e-15
    endloop
  endfacet
  facet normal 0.000000e+00 1.000000e+00 -6.123234e-17
    outer loop
      vertex -3.070851e+01 -2.362329e+00 5.456000e+00
      vertex -2.598412e+01 -2.362329e+00 5.456000e+00
      vertex -3.070851e+01 -2.362329e+00 1.446443e-15
    endloop
  endfacet
  facet normal 0.000000e+00 1.000000e+00 -6.123234e-17
    outer loop
      vertex -3.070851e+01 -2.362329e+00 1.446443e-15
      vertex -2.598412e+01 -2.362329e+00 5.456000e+00
      vertex -2.598412e+01 -2.362329e+00 1.446443e-15
    endloop
  endfacet
  facet normal -1.000000e+00 0.000000e+00 0.000000e+00
    outer loop
      vertex -3.070851e+01 -1.653549e+01 5.456000e+00
      vertex -3.070851e+01 -2.362329e+00 5.456000e+00
      vertex -3.070851e+01 -1.653549e+01 2.314298e-15
    endloop
  endfacet
  facet normal -1.000000e+00 0.000000e+00 0.000000e+00
    outer loop
      vertex -3.070851e+01 -1.653549e+01 2.314298e-15
      vertex -3.070851e+01 -2.362329e+00 5.456000e+00
      vertex -3.070851e+01 -2.362329e+00 1.446443e-15
    endloop
  endfacet
  facet normal 0.000000e+00 -1.000000e+00 6.123234e-17
    outer loop
      vertex -2.598412e+01 -1.653549e+01 5.456000e+00
      vertex -3.070851e+01 -1.653549e+01 5.456000e+00
      vertex -2.598412e+01 -1.653549e+01 2.314298e-15
    endloop
  endfacet
  facet normal 0.000000e+00 -1.000000e+00 6.123234e-17
    outer loop
      vertex -2.598412e+01 -1.653549e+01 2.314298e-15
      vertex -3.070851e+01 -1.653549e+01 5.456000e+00
      vertex -3.070851e+01 -1.653549e+01 2.314298e-15
    endloop
  endfacet
  facet normal 1.000000e+00 0.000000e+00 0.000000e+00
    outer loop
      vertex -2.598412e+01 -7.086715e+00 5.456000e+00
      vertex -2.598412e+01 -1.653549e+01 5.456000e+00
      vertex -2.598412e+01 -7.086715e+00 1.735728e-15
    endloop
  endfacet
  facet normal 1.000000e+00 0.000000e+00 0.000000e+00
    outer loop
      vertex -2.598412e+01 -7.086715e+00 1.735728e-15
      vertex -2.598412e+01 -1.653549e+01 5.456000e+00
      vertex -2.598412e+01 -1.653549e+01 2.314298e-15
    endloop
  endfacet
  facet normal 0.000000e+00 -1.000000e+00 6.123234e-17
    outer loop
      vertex -2.125974e+01 -7.086715e+00 5.456000e+00
      vertex -2.598412e+01 -7.086715e+00 5.456000e+00
      vertex -2.125974e+01 -7.086715e+00 1.735728e-15
    endloop
  endfacet
  facet normal 0.000000e+00 -1.000000e+00 6.123234e-17
    outer loop
      vertex -2.125974e+01 -7.086715e+00 1.735728e-15
      vertex -2.598412e+01 -7.086715e+00 5.456000e+00
      vertex -2.598412e+01 -7.086715e+00 1.735728e-15
    endloop
  endfacet
  facet normal -1.000000e+00 0.000000e+00 0.000000e+00
    outer loop
      vertex -2.125974e+01 -1.653549e+01 5.456000e+00
      vertex -2.125974e+01 -7.086715e+00 5.456000e+00
      vertex -2.125974e+01 -1.653549e+01 2.314298e-15
    endloop
  endfacet
  facet normal -1.000000e+00 0.000000e+00 0.000000e+00
    outer loop
      vertex -2.125974e+01 -1.653549e+01 2.314298e-15
      vertex -2.125974e+01 -7.086715e+00 5.456000e+00
      vertex -2.125974e+01 -7.086715e+00 1.735728e-15
    endloop
  endfacet
  facet normal 0.000000e+00 -1.000000e+00 6.123234e-17
    outer loop
      vertex -1.653535e+01 -1.653549e+01 5.456000e+00
      vertex -2.125974e+01 -1.653549e+01 5.456000e+00
      vertex -1.653535e+01 -1.653549e+01 2.314298e-15
    endloop
  endfacet
  facet normal 0.000000e+00 -1.000000e+00 6.123234e-17
    outer loop
      vertex -1.653535e+01 -1.653549e+01 2.314298e-15
      vertex -2.125974e+01 -1.653549e+01 5.456000e+00
      vertex -2.125974e+01 -1.653549e+01 2.314298e-15
    endloop
  endfacet
  facet normal -1.000000e+00 0.000000e+00 0.000000e+00
    outer loop
      vertex -1.653535e+01 -2.125987e+01 5.456000e+00
      vertex -1.653535e+01 -1.653549e+01 5.456000e+00
      vertex -1.653535e+01 -2.125987e+01 2.603584e-15
    endloop
  endfacet
  facet normal -1.000000e+00 0.000000e+00 0.000000e+00
    outer loop
      vertex -1.653535e+01 -2.125987e+01 2.603584e-15
      vertex -1.653535e+01 -1.653549e+01 5.456000e+00
      vertex -1.653535e+01 -1.653549e+01 2.314298e-15
    endloop
  endfacet
  facet normal 0.000000e+00 -1.000000e+00 6.123234e-17
    outer loop
      vertex -2.362193e+00 -2.125987e+01 5.456000e+00
      vertex -1.653535e+01 -2.125987e+01 5.456000e+00
      vertex -2.362193e+00 -2.125987e+01 2.603584e-15
    endloop
  endfacet
  facet normal 0.000000e+00 -1.000000e+00 6.123234e-17
    outer loop
      vertex -2.362193e+00 -2.125987e+01 2.603584e-15
      vertex -1.653535e+01 -2.125987e+01 5.456000e+00
      vertex -1.653535e+01 -2.125987e+01 2.603584e-15
    endloop
  endfacet
  facet normal 1.000000e+00 0.000000e+00 0.000000e+00
    outer loop
      vertex -2.362193e+00 -1.653549e+01 5.456000e+00
      vertex -2.362193e+00 -2.125987e+01 5.456000e+00
      vertex -2.362193e+00 -1.653549e+01 2.314298e-15
    endloop
  endfacet
  facet normal 1.000000e+00 0.000000e+00 0.000000e+00
    outer loop
      vertex -2.362193e+00 -1.653549e+01 2.314298e-15
      vertex -2.362193e+00 -2.125987e+01 5.456000e+00
      vertex -2.362193e+00 -2.125987e+01 2.603584e-15
    endloop
  endfacet
  facet normal 0.000000e+00 1.000000e+00 -6.123234e-17
    outer loop
      vertex -1.181097e+01 -1.653549e+01 5.456000e+00
      vertex -2.362193e+00 -1.653549e+01 5.456000e+00
      vertex -1.181097e+01 -1.653549e+01 2.314298e-15
    endloop
  endfacet
  facet normal 0.000000e+00 1.000000e+00 -6.123234e-17
    outer loop
      vertex -1.181097e+01 -1.653549e+01 2.314298e-15
      vertex -2.362193e+00 -1.653549e+01 5.456000e+00
      vertex -2.362193e+00 -1.653549e+01 2.314298e-15
    endloop
  endfacet
  facet normal 1.000000e+00 0.000000e+00 0.000000e+00
    outer loop
      vertex -1.181097e+01 -1.181110e+01 5.456000e+00
      vertex -1.181097e+01 -1.653549e+01 5.456000e+00
      vertex -1.181097e+01 -1.181110e+01 2.025013e-15
    endloop
  endfacet
  facet normal 1.000000e+00 0.000000e+00 0.000000e+00
    outer loop
      vertex -1.181097e+01 -1.181110e+01 2.025013e-15
      vertex -1.181097e+01 -1.653549e+01 5.456000e+00
      vertex -1.181097e+01 -1.653549e+01 2.314298e-15
    endloop
  endfacet
  facet normal 0.000000e+00 -1.000000e+00 6.123234e-17
    outer loop
      vertex 1.181097e+01 -1.181110e+01 5.456000e+00
      vertex -1.181097e+01 -1.181110e+01 5.456000e+00
      vertex 1.181097e+01 -1.181110e+01 2.025013e-15
    endloop
  endfacet
  facet normal 0.000000e+00 -1.000000e+00 6.123234e-17
    outer loop
      vertex 1.181097e+01 -1.181110e+01 2.025013e-15
      vertex -1.181097e+01 -1.181110e+01 5.456000e+00
      vertex -1.181097e+01 -1.181110e+01 2.025013e-15
    endloop
  endfacet
  facet normal -1.000000e+00 0.000000e+00 0.000000e+00
    outer loop
      vertex 1.181097e+01 -1.653549e+01 5.456000e+00
      vertex 1.181097e+01 -1.181110e+01 5.456000e+00
      vertex 1.181097e+01 -1.653549e+01 2.314298e-15
    endloop
  endfacet
  facet normal -1.000000e+00 0.000000e+00 0.000000e+00
    outer loop
      vertex 1.181097e+01 -1.653549e+01 2.314298e-15
      vertex 1.181097e+01 -1.181110e+01 5.456000e+00
      vertex 1.181097e+01 -1.181110e+01 2.025013e-15
    endloop
  endfacet
  facet normal 0.000000e+00 1.000000e+00 -6.123234e-17
    outer loop
      vertex 2.362195e+00 -1.653549e+01 5.456000e+00
      vertex 1.181097e+01 -1.653549e+01 5.456000e+00
      vertex 2.362195e+00 -1.653549e+01 2.314298e-15
    endloop
  endfacet
  facet normal 0.000000e+00 1.000000e+00 -6.123234e-17
    outer loop
      vertex 2.362195e+00 -1.653549e+01 2.314298e-15
      vertex 1.181097e+01 -1.653549e+01 5.456000e+00
      vertex 1.181097e+01 -1.653549e+01 2.314298e-15
    endloop
  endfacet
  facet normal -1.000000e+00 0.000000e+00 0.000000e+00
    outer loop
      vertex 2.362195e+00 -2.125987e+01 5.456000e+00
      vertex 2.362195e+00 -1.653549e+01 5.456000e+00
      vertex 2.362195e+00 -2.125987e+01 2.603584e-15
    endloop
  endfacet
  facet normal -1.000000e+00 0.000000e+00 0.000000e+00
    outer loop
      vertex 2.362195e+00 -2.125987e+01 2.603584e-15
      vertex 2.362195e+00 -1.653549e+01 5.456000e+00
      vertex 2.362195e+00 -1.653549e+01 2.314298e-15
    endloop
  endfacet
  facet normal 0.000000e+00 -1.000000e+00 6.123234e-17
    outer loop
      vertex 1.653535e+01 -2.125987e+01 5.456000e+00
      vertex 2.362195e+00 -2.125987e+01 5.456000e+00
      vertex 1.653535e+01 -2.125987e+01 2.603584e-15
    endloop
  endfacet
  facet normal 0.000000e+00 -1.000000e+00 6.123234e-17
    outer loop
      vertex 1.653535e+01 -2.125987e+01 2.603584e-15
      vertex 2.362195e+00 -2.125987e+01 5.456000e+00
      vertex 2.362195e+00 -2.125987e+01 2.603584e-15
    endloop
  endfacet
  facet normal 1.000000e+00 0.000000e+00 0.000000e+00
    outer loop
      vertex 1.653535e+01 -1.653549e+01 5.456000e+00
      vertex 1.653535e+01 -2.125987e+01 5.456000e+00
      vertex 1.653535e+01 -1.653549e+01 2.314298e-15
    endloop
  endfacet
  facet normal 1.000000e+00 0.000000e+00 0.000000e+00
    outer loop
      vertex 1.653535e+01 -1.653549e+01 2.314298e-15
      vertex 1.653535e+01 -2.125987e+01 5.456000e+00
      vertex 1.653535e+01 -2.125987e+01 2.603584e-15
    endloop
  endfacet
  facet normal 0.000000e+00 -1.000000e+00 6.123234e-17
    outer loop
      vertex 2.125974e+01 -1.653549e+01 5.456000e+00
      vertex 1.653535e+01 -1.653549e+01 5.456000e+00
      vertex 2.125974e+01 -1.653549e+01 2.314298e-15
    endloop
  endfacet
  facet normal 0.000000e+00 -1.000000e+00 6.123234e-17
    outer loop
      vertex 2.125974e+01 -1.653549e+01 2.314298e-15
      vertex 1.653535e+01 -1.653549e+01 5.456000e+00
      vertex 1.653535e+01 -1.653549e+01 2.314298e-15
    endloop
  endfacet
  facet normal 1.000000e+00 0.000000e+00 0.000000e+00
    outer loop
      vertex 2.125974e+01 -7.086715e+00 5.456000e+00
      vertex 2.125974e+01 -1.653549e+01 5.456000e+00
      vertex 2.125974e+01 -7.086715e+00 1.735728e-15
    endloop
  endfacet
  facet normal 1.000000e+00 0.000000e+00 0.000000e+00
    outer loop
      vertex 2.125974e+01 -7.086715e+00 1.735728e-15
      vertex 2.125974e+01 -1.653549e+01 5.456000e+00
      vertex 2.125974e+01 -1.653549e+01 2.314298e-15
    endloop
  endfacet
  facet normal 0.000000e+00 -1.000000e+00 6.123234e-17
    outer loop
      vertex 2.598412e+01 -7.086715e+00 5.456000e+00
      vertex 2.125974e+01 -7.086715e+00 5.456000e+00
      vertex 2.598412e+01 -7.086715e+00 1.735728e-15
    endloop
  endfacet
  facet normal 0.000000e+00 -1.000000e+00 6.123234e-17
    outer loop
      vertex 2.598412e+01 -7.086715e+00 1.735728e-15
      vertex 2.125974e+01 -7.086715e+00 5.456000e+00
      vertex 2.125974e+01 -7.086715e+00 1.735728e-15
    endloop
  endfacet
  facet normal -1.000000e+00 0.000000e+00 0.000000e+00
    outer loop
      vertex 2.598412e+01 -1.653549e+01 5.456000e+00
      vertex 2.598412e+01 -7.086715e+00 5.456000e+00
      vertex 2.598412e+01 -1.653549e+01 2.314298e-15
    endloop
  endfacet
  facet normal -1.000000e+00 0.000000e+00 0.000000e+00
    outer loop
      vertex 2.598412e+01 -1.653549e+01 2.314298e-15
      vertex 2.598412e+01 -7.086715e+00 5.456000e+00
      vertex 2.598412e+01 -7.086715e+00 1.735728e-15
    endloop
  endfacet
  facet normal 0.000000e+00 -1.000000e+00 6.123234e-17
    outer loop
      vertex 3.070851e+01 -1.653549e+01 5.456000e+00
      vertex 2.598412e+01 -1.653549e+01 5.456000e+00
      vertex 3.070851e+01 -1.653549e+01 2.314298e-15
    endloop
  endfacet
  facet normal 0.000000e+00 -1.000000e+00 6.123234e-17
    outer loop
      vertex 3.070851e+01 -1.653549e+01 2.314298e-15
      vertex 2.598412e+01 -1.653549e+01 5.456000e+00
      vertex 2.598412e+01 -1.653549e+01 2.314298e-15
    endloop
  endfacet
  facet normal 1.000000e+00 0.000000e+00 0.000000e+00
    outer loop
      vertex 3.070851e+01 -2.362329e+00 5.456000e+00
      vertex 3.070851e+01 -1.653549e+01 5.456000e+00
      vertex 3.070851e+01 -2.362329e+00 1.446443e-15
    endloop
  endfacet
  facet normal 1.000000e+00 0.000000e+00 0.000000e+00
    outer loop
      vertex 3.070851e+01 -2.362329e+00 1.446443e-15
      vertex 3.070851e+01 -1.653549e+01 5.456000e+00
      vertex 3.070851e+01 -1.653549e+01 2.314298e-15
    endloop
  endfacet
  facet normal 0.000000e+00 -1.000000e+00 6.123234e-17
    outer loop
      vertex -7.086578e+00 2.362057e+00 3.472000e+00
      vertex -7.086578e+00 2.362057e+00 5.456000e+00
      vertex -7.866329e+00 2.362057e+00 3.472000e+00
    endloop
  endfacet
  facet normal 0.000000e+00 -1.000000e+00 6.123234e-17
    outer loop
      vertex -7.866329e+00 2.362057e+00 3.472000e+00
      vertex -7.086578e+00 2.362057e+00 5.456000e+00
      vertex -1.181097e+01 2.362057e+00 5.456000e+00
    endloop
  endfacet
  facet normal 0.000000e+00 -1.000000e+00 6.123234e-17
    outer loop
      vertex -7.866329e+00 2.362057e+00 3.472000e+00
      vertex -1.181097e+01 2.362057e+00 5.456000e+00
      vertex -7.866329e+00 2.362057e+00 1.157158e-15
    endloop
  endfacet
  facet normal 0.000000e+00 -1.000000e+00 6.123234e-17
    outer loop
      vertex -7.866329e+00 2.362057e+00 1.157158e-15
      vertex -1.181097e+01 2.362057e+00 5.456000e+00
      vertex -1.181097e+01 2.362057e+00 1.157158e-15
    endloop
  endfacet
  facet normal 1.000000e+00 0.000000e+00 0.000000e+00
    outer loop
      vertex -1.181097e+01 2.362057e+00 5.456000e+00
      vertex -1.181097e+01 -2.362329e+00 5.456000e+00
      vertex -1.181097e+01 2.362057e+00 1.157158e-15
    endloop
  endfacet
  facet normal 1.000000e+00 0.000000e+00 0.000000e+00
    outer loop
      vertex -1.181097e+01 2.362057e+00 1.157158e-15
      vertex -1.181097e+01 -2.362329e+00 5.456000e+00
      vertex -1.181097e+01 -2.362329e+00 1.446443e-15
    endloop
  endfacet
  facet normal 0.000000e+00 1.000000e+00 -6.123234e-17
    outer loop
      vertex -9.176000e+00 -2.362329e+00 1.446443e-15
      vertex -1.181097e+01 -2.362329e+00 1.446443e-15
      vertex -9.176000e+00 -2.362329e+00 3.472000e+00
    endloop
  endfacet
  facet normal 0.000000e+00 1.000000e+00 -6.123234e-17
    outer loop
      vertex -9.176000e+00 -2.362329e+00 3.472000e+00
      vertex -1.181097e+01 -2.362329e+00 1.446443e-15
      vertex -1.181097e+01 -2.362329e+00 5.456000e+00
    endloop
  endfacet
  facet normal 0.000000e+00 1.000000e+00 -6.123234e-17
    outer loop
      vertex -9.176000e+00 -2.362329e+00 3.472000e+00
      vertex -1.181097e+01 -2.362329e+00 5.456000e+00
      vertex -7.086578e+00 -2.362329e+00 3.472000e+00
    endloop
  endfacet
  facet normal 0.000000e+00 1.000000e+00 -6.123234e-17
    outer loop
      vertex -7.086578e+00 -2.362329e+00 3.472000e+00
      vertex -1.181097e+01 -2.362329e+00 5.456000e+00
      vertex -7.086578e+00 -2.362329e+00 5.456000e+00
    endloop
  endfacet
  facet normal -1.000000e+00 0.000000e+00 0.000000e+00
    outer loop
      vertex 1.181097e+01 -2.362329e+00 5.456000e+00
      vertex 1.181097e+01 2.362057e+00 5.456000e+00
      vertex 1.181097e+01 -2.362329e+00 1.446443e-15
    endloop
  endfacet
  facet normal -1.000000e+00 0.000000e+00 0.000000e+00
    outer loop
      vertex 1.181097e+01 -2.362329e+00 1.446443e-15
      vertex 1.181097e+01 2.362057e+00 5.456000e+00
      vertex 1.181097e+01 2.362057e+00 1.157158e-15
    endloop
  endfacet
  facet normal 0.000000e+00 -1.000000e+00 6.123234e-17
    outer loop
      vertex 7.866333e+00 2.362057e+00 1.157158e-15
      vertex 1.181097e+01 2.362057e+00 1.157158e-15
      vertex 7.866333e+00 2.362057e+00 3.472000e+00
    endloop
  endfacet
  facet normal 0.000000e+00 -1.000000e+00 6.123234e-17
    outer loop
      vertex 7.866333e+00 2.362057e+00 3.472000e+00
      vertex 1.181097e+01 2.362057e+00 1.157158e-15
      vertex 1.181097e+01 2.362057e+00 5.456000e+00
    endloop
  endfacet
  facet normal 0.000000e+00 -1.000000e+00 6.123234e-17
    outer loop
      vertex 7.866333e+00 2.362057e+00 3.472000e+00
      vertex 1.181097e+01 2.362057e+00 5.456000e+00
      vertex 7.086580e+00 2.362057e+00 3.472000e+00
    endloop
  endfacet
  facet normal 0.000000e+00 -1.000000e+00 6.123234e-17
    outer loop
      vertex 7.086580e+00 2.362057e+00 3.472000e+00
      vertex 1.181097e+01 2.362057e+00 5.456000e+00
      vertex 7.086580e+00 2.362057e+00 5.456000e+00
    endloop
  endfacet
  facet normal 0.000000e+00 1.000000e+00 -6.123234e-17
    outer loop
      vertex 7.086580e+00 -2.362329e+00 3.472000e+00
      vertex 7.086580e+00 -2.362329e+00 5.456000e+00
      vertex 9.176000e+00 -2.362329e+00 3.472000e+00
    endloop
  endfacet
  facet normal 0.000000e+00 1.000000e+00 -6.123234e-17
    outer loop
      vertex 9.176000e+00 -2.362329e+00 3.472000e+00
      vertex 7.086580e+00 -2.362329e+00 5.456000e+00
      vertex 1.181097e+01 -2.362329e+00 5.456000e+00
    endloop
  endfacet
  facet normal 0.000000e+00 1.000000e+00 -6.123234e-17
    outer loop
      vertex 9.176000e+00 -2.362329e+00 3.472000e+00
      vertex 1.181097e+01 -2.362329e+00 5.456000e+00
      vertex 9.176000e+00 -2.362329e+00 1.446443e-15
    endloop
  endfacet
  facet normal 0.000000e+00 1.000000e+00 -6.123234e-17
    outer loop
      vertex 9.176000e+00 -2.362329e+00 1.446443e-15
      vertex 1.181097e+01 -2.362329e+00 5.456000e+00
      vertex 1.181097e+01 -2.362329e+00 1.446443e-15
    endloop
  endfacet
  facet normal 8.264604e-01 -5.629948e-01 3.447349e-17
    outer loop
      vertex -7.866329e+00 2.362057e+00 3.472000e+00
      vertex -7.866329e+00 2.362057e+00 1.157158e-15
      vertex -6.943716e+00 3.636320e+00 1.079131e-15
    endloop
  endfacet
  facet normal 7.928349e-01 -6.094364e-01 3.731721e-17
    outer loop
      vertex -7.866329e+00 2.362057e+00 3.472000e+00
      vertex -6.943716e+00 3.636320e+00 1.079131e-15
      vertex -6.943716e+00 3.636320e+00 3.472000e+00
    endloop
  endfacet
  facet normal 7.181453e-01 -6.958932e-01 4.261117e-17
    outer loop
      vertex -6.943716e+00 3.636320e+00 3.472000e+00
      vertex -6.943716e+00 3.636320e+00 1.079131e-15
      vertex -5.816997e+00 4.734257e+00 1.011902e-15
    endloop
  endfacet
  facet normal 6.770810e-01 -7.359086e-01 4.506141e-17
    outer loop
      vertex -6.943716e+00 3.636320e+00 3.472000e+00
      vertex -5.816997e+00 4.734257e+00 1.011902e-15
      vertex -5.816997e+00 4.734257e+00 3.472000e+00
    endloop
  endfacet
  facet normal 5.887207e-01 -8.083366e-01 4.949634e-17
    outer loop
      vertex -5.816997e+00 4.734257e+00 3.472000e+00
      vertex -5.816997e+00 4.734257e+00 1.011902e-15
      vertex -4.519291e+00 5.623595e+00 9.574459e-16
    endloop
  endfacet
  facet normal 5.414247e-01 -8.407493e-01 5.148104e-17
    outer loop
      vertex -5.816997e+00 4.734257e+00 3.472000e+00
      vertex -4.519291e+00 5.623595e+00 9.574459e-16
      vertex -4.519291e+00 5.623595e+00 3.472000e+00
    endloop
  endfacet
  facet normal 4.419912e-01 -8.970194e-01 5.492660e-17
    outer loop
      vertex -4.519291e+00 5.623595e+00 3.472000e+00
      vertex -4.519291e+00 5.623595e+00 9.574459e-16
      vertex -3.088746e+00 6.278193e+00 9.173633e-16
    endloop
  endfacet
  facet normal 3.898538e-01 -9.208769e-01 5.638744e-17
    outer loop
      vertex -4.519291e+00 5.623595e+00 3.472000e+00
      vertex -3.088746e+00 6.278193e+00 9.173633e-16
      vertex -3.088746e+00 6.278193e+00 3.472000e+00
    endloop
  endfacet
  facet normal 2.822698e-01 -9.593350e-01 5.874233e-17
    outer loop
      vertex -3.088746e+00 6.278193e+00 3.472000e+00
      vertex -3.088746e+00 6.278193e+00 9.173633e-16
      vertex -1.567409e+00 6.678811e+00 8.928326e-16
    endloop
  endfacet
  facet normal 2.268233e-01 -9.739359e-01 5.963637e-17
    outer loop
      vertex -3.088746e+00 6.278193e+00 3.472000e+00
      vertex -1.567409e+00 6.678811e+00 8.928326e-16
      vertex -1.567409e+00 6.678811e+00 3.472000e+00
    endloop
  endfacet
  facet normal 1.142512e-01 -9.934519e-01 6.083139e-17
    outer loop
      vertex -1.567409e+00 6.678811e+00 3.472000e+00
      vertex -1.567409e+00 6.678811e+00 8.928326e-16
      vertex 0.000000e+00 6.813671e+00 8.845748e-16
    endloop
  endfacet
  facet normal 5.712563e-02 -9.983670e-01 6.113235e-17
    outer loop
      vertex -1.567409e+00 6.678811e+00 3.472000e+00
      vertex 0.000000e+00 6.813671e+00 8.845748e-16
      vertex 0.000000e+00 6.813671e+00 3.472000e+00
    endloop
  endfacet
  facet normal -5.712563e-02 -9.983670e-01 6.113235e-17
    outer loop
      vertex 0.000000e+00 6.813671e+00 3.472000e+00
      vertex 0.000000e+00 6.813671e+00 8.845748e-16
      vertex 1.567411e+00 6.678811e+00 8.928326e-16
    endloop
  endfacet
  facet normal -1.142512e-01 -9.934519e-01 6.083139e-17
    outer loop
      vertex 0.000000e+00 6.813671e+00 3.472000e+00
      vertex 1.567411e+00 6.678811e+00 8.928326e-16
      vertex 1.567411e+00 6.678811e+00 3.472000e+00
    endloop
  endfacet
  facet normal -2.268233e-01 -9.739359e-01 5.963637e-17
    outer loop
      vertex 1.567411e+00 6.678811e+00 3.472000e+00
      vertex 1.567411e+00 6.678811e+00 8.928326e-16
      vertex 3.088746e+00 6.278193e+00 9.173633e-16
    endloop
  endfacet
  facet normal -2.822698e-01 -9.593350e-01 5.874233e-17
    outer loop
      vertex 1.567411e+00 6.678811e+00 3.472000e+00
      vertex 3.088746e+00 6.278193e+00 9.173633e-16
      vertex 3.088746e+00 6.278193e+00 3.472000e+00
    endloop
  endfacet
  facet normal -3.898537e-01 -9.208769e-01 5.638744e-17
    outer loop
      vertex 3.088746e+00 6.278193e+00 3.472000e+00
      vertex 3.088746e+00 6.278193e+00 9.173633e-16
      vertex 4.519291e+00 5.623595e+00 9.574459e-16
    endloop
  endfacet
  facet normal -4.419912e-01 -8.970194e-01 5.492660e-17
    outer loop
      vertex 3.088746e+00 6.278193e+00 3.472000e+00
      vertex 4.519291e+00 5.623595e+00 9.574459e-16
      vertex 4.519291e+00 5.623595e+00 3.472000e+00
    endloop
  endfacet
  facet normal -5.414248e-01 -8.407493e-01 5.148104e-17
    outer loop
      vertex 4.519291e+00 5.623595e+00 3.472000e+00
      vertex 4.519291e+00 5.623595e+00 9.574459e-16
      vertex 5.816999e+00 4.734257e+00 1.011902e-15
    endloop
  endfacet
  facet normal -5.887207e-01 -8.083366e-01 4.949634e-17
    outer loop
      vertex 4.519291e+00 5.623595e+00 3.472000e+00
      vertex 5.816999e+00 4.734257e+00 1.011902e-15
      vertex 5.816999e+00 4.734257e+00 3.472000e+00
    endloop
  endfacet
  facet normal -6.770810e-01 -7.359086e-01 4.506141e-17
    outer loop
      vertex 5.816999e+00 4.734257e+00 3.472000e+00
      vertex 5.816999e+00 4.734257e+00 1.011902e-15
      vertex 6.943716e+00 3.636320e+00 1.079131e-15
    endloop
  endfacet
  facet normal -7.181453e-01 -6.958932e-01 4.261117e-17
    outer loop
      vertex 5.816999e+00 4.734257e+00 3.472000e+00
      vertex 6.943716e+00 3.636320e+00 1.079131e-15
      vertex 6.943716e+00 3.636320e+00 3.472000e+00
    endloop
  endfacet
  facet normal -7.928349e-01 -6.094364e-01 3.731721e-17
    outer loop
      vertex 6.943716e+00 3.636320e+00 3.472000e+00
      vertex 6.943716e+00 3.636320e+00 1.079131e-15
      vertex 7.866333e+00 2.362057e+00 1.157158e-15
    endloop
  endfacet
  facet normal -8.264605e-01 -5.629948e-01 3.447349e-17
    outer loop
      vertex 6.943716e+00 3.636320e+00 3.472000e+00
      vertex 7.866333e+00 2.362057e+00 1.157158e-15
      vertex 7.866333e+00 2.362057e+00 3.472000e+00
    endloop
  endfacet
  facet normal -9.984846e-01 5.503191e-02 -3.369733e-18
    outer loop
      vertex 9.176000e+00 -2.362329e+00 3.472000e+00
      vertex 9.176000e+00 -2.362329e+00 1.446443e-15
      vertex 9.050850e+00 -3.872648e+00 1.538923e-15
    endloop
  endfacet
  facet normal -9.939246e-01 1.100638e-01 -6.739466e-18
    outer loop
      vertex 9.176000e+00 -2.362329e+00 3.472000e+00
      vertex 9.050850e+00 -3.872648e+00 1.538923e-15
      vertex 9.050850e+00 -3.872648e+00 3.472000e+00
    endloop
  endfacet
  facet normal -9.758086e-01 2.186265e-01 -1.338701e-17
    outer loop
      vertex 9.050850e+00 -3.872648e+00 3.472000e+00
      vertex 9.050850e+00 -3.872648e+00 1.538923e-15
      vertex 8.678819e+00 -5.341771e+00 1.628881e-15
    endloop
  endfacet
  facet normal -9.622528e-01 2.721573e-01 -1.666483e-17
    outer loop
      vertex 9.050850e+00 -3.872648e+00 3.472000e+00
      vertex 8.678819e+00 -5.341771e+00 1.628881e-15
      vertex 8.678819e+00 -5.341771e+00 3.472000e+00
    endloop
  endfacet
  facet normal -9.265151e-01 3.762575e-01 -2.303913e-17
    outer loop
      vertex 8.678819e+00 -5.341771e+00 3.472000e+00
      vertex 8.678819e+00 -5.341771e+00 1.628881e-15
      vertex 8.070051e+00 -6.729622e+00 1.713862e-15
    endloop
  endfacet
  facet normal -9.043332e-01 4.268270e-01 -2.613562e-17
    outer loop
      vertex 8.678819e+00 -5.341771e+00 3.472000e+00
      vertex 8.070051e+00 -6.729622e+00 1.713862e-15
      vertex 8.070051e+00 -6.729622e+00 3.472000e+00
    endloop
  endfacet
  facet normal -8.519487e-01 5.236253e-01 -3.206280e-17
    outer loop
      vertex 8.070051e+00 -6.729622e+00 3.472000e+00
      vertex 8.070051e+00 -6.729622e+00 1.713862e-15
      vertex 7.241153e+00 -7.998344e+00 1.791549e-15
    endloop
  endfacet
  facet normal -8.217459e-01 5.698540e-01 -3.489350e-17
    outer loop
      vertex 8.070051e+00 -6.729622e+00 3.472000e+00
      vertex 7.241153e+00 -7.998344e+00 1.791549e-15
      vertex 7.241153e+00 -7.998344e+00 3.472000e+00
    endloop
  endfacet
  facet normal -7.541434e-01 6.567098e-01 -4.021188e-17
    outer loop
      vertex 7.241153e+00 -7.998344e+00 3.472000e+00
      vertex 7.241153e+00 -7.998344e+00 1.791549e-15
      vertex 6.214739e+00 -9.113332e+00 1.859822e-15
    endloop
  endfacet
  facet normal -7.167435e-01 6.973369e-01 -4.269957e-17
    outer loop
      vertex 7.241153e+00 -7.998344e+00 3.472000e+00
      vertex 6.214739e+00 -9.113332e+00 1.859822e-15
      vertex 6.214739e+00 -9.113332e+00 3.472000e+00
    endloop
  endfacet
  facet normal -6.357669e-01 7.718811e-01 -4.726408e-17
    outer loop
      vertex 6.214739e+00 -9.113332e+00 3.472000e+00
      vertex 6.214739e+00 -9.113332e+00 1.859822e-15
      vertex 5.018799e+00 -1.004417e+01 1.916820e-15
    endloop
  endfacet
  facet normal -5.921901e-01 8.057982e-01 -4.934091e-17
    outer loop
      vertex 6.214739e+00 -9.113332e+00 3.472000e+00
      vertex 5.018799e+00 -1.004417e+01 1.916820e-15
      vertex 5.018799e+00 -1.004417e+01 3.472000e+00
    endloop
  endfacet
  facet normal -5.000484e-01 8.659974e-01 -5.302705e-17
    outer loop
      vertex 5.018799e+00 -1.004417e+01 3.472000e+00
      vertex 5.018799e+00 -1.004417e+01 1.916820e-15
      vertex 3.685961e+00 -1.076547e+01 1.960986e-15
    endloop
  endfacet
  facet normal -4.514834e-01 8.922795e-01 -5.463636e-17
    outer loop
      vertex 5.018799e+00 -1.004417e+01 3.472000e+00
      vertex 3.685961e+00 -1.076547e+01 1.960986e-15
      vertex 3.685961e+00 -1.076547e+01 3.472000e+00
    endloop
  endfacet
  facet normal -3.506899e-01 9.364916e-01 -5.734357e-17
    outer loop
      vertex 3.685961e+00 -1.076547e+01 3.472000e+00
      vertex 3.685961e+00 -1.076547e+01 1.960986e-15
      vertex 2.252575e+00 -1.125754e+01 1.991118e-15
    endloop
  endfacet
  facet normal -2.984614e-01 9.544217e-01 -5.844147e-17
    outer loop
      vertex 3.685961e+00 -1.076547e+01 3.472000e+00
      vertex 2.252575e+00 -1.125754e+01 1.991118e-15
      vertex 2.252575e+00 -1.125754e+01 3.472000e+00
    endloop
  endfacet
  facet normal -1.917655e-01 9.814408e-01 -6.009592e-17
    outer loop
      vertex 2.252575e+00 -1.125754e+01 3.472000e+00
      vertex 2.252575e+00 -1.125754e+01 1.991118e-15
      vertex 7.577479e-01 -1.150699e+01 2.006392e-15
    endloop
  endfacet
  facet normal -1.372982e-01 9.905298e-01 -6.065246e-17
    outer loop
      vertex 2.252575e+00 -1.125754e+01 3.472000e+00
      vertex 7.577479e-01 -1.150699e+01 2.006392e-15
      vertex 7.577479e-01 -1.150699e+01 3.472000e+00
    endloop
  endfacet
  facet normal -2.761026e-02 9.996187e-01 -6.120900e-17
    outer loop
      vertex 7.577479e-01 -1.150699e+01 3.472000e+00
      vertex 7.577479e-01 -1.150699e+01 2.006392e-15
      vertex -7.577479e-01 -1.150699e+01 2.006392e-15
    endloop
  endfacet
  facet normal 2.761026e-02 9.996187e-01 -6.120900e-17
    outer loop
      vertex 7.577479e-01 -1.150699e+01 3.472000e+00
      vertex -7.577479e-01 -1.150699e+01 2.006392e-15
      vertex -7.577479e-01 -1.150699e+01 3.472000e+00
    endloop
  endfacet
  facet normal 1.372982e-01 9.905298e-01 -6.065246e-17
    outer loop
      vertex -7.577479e-01 -1.150699e+01 3.472000e+00
      vertex -7.577479e-01 -1.150699e+01 2.006392e-15
      vertex -2.252575e+00 -1.125754e+01 1.991118e-15
    endloop
  endfacet
  facet normal 1.917655e-01 9.814408e-01 -6.009592e-17
    outer loop
      vertex -7.577479e-01 -1.150699e+01 3.472000e+00
      vertex -2.252575e+00 -1.125754e+01 1.991118e-15
      vertex -2.252575e+00 -1.125754e+01 3.472000e+00
    endloop
  endfacet
  facet normal 2.984614e-01 9.544217e-01 -5.844147e-17
    outer loop
      vertex -2.252575e+00 -1.125754e+01 3.472000e+00
      vertex -2.252575e+00 -1.125754e+01 1.991118e-15
      vertex -3.685958e+00 -1.076547e+01 1.960986e-15
    endloop
  endfacet
  facet normal 3.506899e-01 9.364916e-01 -5.734357e-17
    outer loop
      vertex -2.252575e+00 -1.125754e+01 3.472000e+00
      vertex -3.685958e+00 -1.076547e+01 1.960986e-15
      vertex -3.685958e+00 -1.076547e+01 3.472000e+00
    endloop
  endfacet
  facet normal 4.514834e-01 8.922795e-01 -5.463636e-17
    outer loop
      vertex -3.685958e+00 -1.076547e+01 3.472000e+00
      vertex -3.685958e+00 -1.076547e+01 1.960986e-15
      vertex -5.018795e+00 -1.004417e+01 1.916820e-15
    endloop
  endfacet
  facet normal 5.000484e-01 8.659974e-01 -5.302705e-17
    outer loop
      vertex -3.685958e+00 -1.076547e+01 3.472000e+00
      vertex -5.018795e+00 -1.004417e+01 1.916820e-15
      vertex -5.018795e+00 -1.004417e+01 3.472000e+00
    endloop
  endfacet
  facet normal 5.921901e-01 8.057982e-01 -4.934091e-17
    outer loop
      vertex -5.018795e+00 -1.004417e+01 3.472000e+00
      vertex -5.018795e+00 -1.004417e+01 1.916820e-15
      vertex -6.214736e+00 -9.113332e+00 1.859822e-15
    endloop
  endfacet
  facet normal 6.357669e-01 7.718811e-01 -4.726408e-17
    outer loop
      vertex -5.018795e+00 -1.004417e+01 3.472000e+00
      vertex -6.214736e+00 -9.113332e+00 1.859822e-15
      vertex -6.214736e+00 -9.113332e+00 3.472000e+00
    endloop
  endfacet
  facet normal 7.167435e-01 6.973369e-01 -4.269957e-17
    outer loop
      vertex -6.214736e+00 -9.113332e+00 3.472000e+00
      vertex -6.214736e+00 -9.113332e+00 1.859822e-15
      vertex -7.241153e+00 -7.998344e+00 1.791549e-15
    endloop
  endfacet
  facet normal 7.541434e-01 6.567098e-01 -4.021188e-17
    outer loop
      vertex -6.214736e+00 -9.113332e+00 3.472000e+00
      vertex -7.241153e+00 -7.998344e+00 1.791549e-15
      vertex -7.241153e+00 -7.998344e+00 3.472000e+00
    endloop
  endfacet
  facet normal 8.217460e-01 5.698540e-01 -3.489349e-17
    outer loop
      vertex -7.241153e+00 -7.998344e+00 3.472000e+00
      vertex -7.241153e+00 -7.998344e+00 1.791549e-15
      vertex -8.070051e+00 -6.729622e+00 1.713862e-15
    endloop
  endfacet
  facet normal 8.519487e-01 5.236253e-01 -3.206280e-17
    outer loop
      vertex -7.241153e+00 -7.998344e+00 3.472000e+00
      vertex -8.070051e+00 -6.729622e+00 1.713862e-15
      vertex -8.070051e+00 -6.729622e+00 3.472000e+00
    endloop
  endfacet
  facet normal 9.043332e-01 4.268270e-01 -2.613562e-17
    outer loop
      vertex -8.070051e+00 -6.729622e+00 3.472000e+00
      vertex -8.070051e+00 -6.729622e+00 1.713862e-15
      vertex -8.678817e+00 -5.341771e+00 1.628881e-15
    endloop
  endfacet
  facet normal 9.265151e-01 3.762575e-01 -2.303913e-17
    outer loop
      vertex -8.070051e+00 -6.729622e+00 3.472000e+00
      vertex -8.678817e+00 -5.341771e+00 1.628881e-15
      vertex -8.678817e+00 -5.341771e+00 3.472000e+00
    endloop
  endfacet
  facet normal 9.622528e-01 2.721573e-01 -1.666483e-17
    outer loop
      vertex -8.678817e+00 -5.341771e+00 3.472000e+00
      vertex -8.678817e+00 -5.341771e+00 1.628881e-15
      vertex -9.050850e+00 -3.872648e+00 1.538923e-15
    endloop
  endfacet
  facet normal 9.758086e-01 2.186265e-01 -1.338701e-17
    outer loop
      vertex -8.678817e+00 -5.341771e+00 3.472000e+00
      vertex -9.050850e+00 -3.872648e+00 1.538923e-15
      vertex -9.050850e+00 -3.872648e+00 3.472000e+00
    endloop
  endfacet
  facet normal 9.939246e-01 1.100638e-01 -6.739466e-18
    outer loop
      vertex -9.050850e+00 -3.872648e+00 3.472000e+00
      vertex -9.050850e+00 -3.872648e+00 1.538923e-15
      vertex -9.176000e+00 -2.362329e+00 1.446443e-15
    endloop
  endfacet
  facet normal 9.984846e-01 5.503191e-02 -3.369733e-18
    outer loop
      vertex -9.050850e+00 -3.872648e+00 3.472000e+00
      vertex -9.176000e+00 -2.362329e+00 1.446443e-15
      vertex -9.176000e+00 -2.362329e+00 3.472000e+00
    endloop
  endfacet
  facet normal 0.000000e+00 -6.123234e-17 -1.000000e+00
    outer loop
      vertex 6.943716e+00 3.636320e+00 3.472000e+00
      vertex 7.866333e+00 2.362057e+00 3.472000e+00
      vertex 7.086580e+00 2.362057e+00 3.472000e+00
    endloop
  endfacet
  facet normal 0.000000e+00 -6.123234e-17 -1.000000e+00
    outer loop
      vertex -9.050850e+00 -3.872648e+00 3.472000e+00
      vertex -9.176000e+00 -2.362329e+00 3.472000e+00
      vertex -7.086578e+00 -2.362329e+00 3.472000e+00
    endloop
  endfacet
  facet normal 0.000000e+00 -6.123234e-17 -1.000000e+00
    outer loop
      vertex 5.816999e+00 4.734257e+00 3.472000e+00
      vertex 6.943716e+00 3.636320e+00 3.472000e+00
      vertex 4.519291e+00 5.623595e+00 3.472000e+00
    endloop
  endfacet
  facet normal 0.000000e+00 -6.123234e-17 -1.000000e+00
    outer loop
      vertex 4.519291e+00 5.623595e+00 3.472000e+00
      vertex 6.943716e+00 3.636320e+00 3.472000e+00
      vertex 7.086580e+00 2.362057e+00 3.472000e+00
    endloop
  endfacet
  facet normal 0.000000e+00 -6.123234e-17 -1.000000e+00
    outer loop
      vertex 4.519291e+00 5.623595e+00 3.472000e+00
      vertex 7.086580e+00 2.362057e+00 3.472000e+00
      vertex 3.088746e+00 6.278193e+00 3.472000e+00
    endloop
  endfacet
  facet normal 0.000000e+00 -6.123234e-17 -1.000000e+00
    outer loop
      vertex 3.088746e+00 6.278193e+00 3.472000e+00
      vertex 7.086580e+00 2.362057e+00 3.472000e+00
      vertex 7.086580e+00 -2.362329e+00 3.472000e+00
    endloop
  endfacet
  facet normal 0.000000e+00 -6.123234e-17 -1.000000e+00
    outer loop
      vertex 9.176000e+00 -2.362329e+00 3.472000e+00
      vertex 9.050850e+00 -3.872648e+00 3.472000e+00
      vertex 7.086580e+00 -2.362329e+00 3.472000e+00
    endloop
  endfacet
  facet normal 0.000000e+00 -6.123234e-17 -1.000000e+00
    outer loop
      vertex 7.086580e+00 -2.362329e+00 3.472000e+00
      vertex 9.050850e+00 -3.872648e+00 3.472000e+00
      vertex 8.678819e+00 -5.341771e+00 3.472000e+00
    endloop
  endfacet
  facet normal 0.000000e+00 -6.123234e-17 -1.000000e+00
    outer loop
      vertex -2.252575e+00 -1.125754e+01 3.472000e+00
      vertex -3.685958e+00 -1.076547e+01 3.472000e+00
      vertex -7.086578e+00 -2.362329e+00 3.472000e+00
    endloop
  endfacet
  facet normal 0.000000e+00 -6.123234e-17 -1.000000e+00
    outer loop
      vertex -7.086578e+00 -2.362329e+00 3.472000e+00
      vertex -3.685958e+00 -1.076547e+01 3.472000e+00
      vertex -5.018795e+00 -1.004417e+01 3.472000e+00
    endloop
  endfacet
  facet normal 0.000000e+00 -6.123234e-17 -1.000000e+00
    outer loop
      vertex -7.086578e+00 -2.362329e+00 3.472000e+00
      vertex -5.018795e+00 -1.004417e+01 3.472000e+00
      vertex -6.214736e+00 -9.113332e+00 3.472000e+00
    endloop
  endfacet
  facet normal 0.000000e+00 -6.123234e-17 -1.000000e+00
    outer loop
      vertex -7.866329e+00 2.362057e+00 3.472000e+00
      vertex -6.943716e+00 3.636320e+00 3.472000e+00
      vertex -7.086578e+00 2.362057e+00 3.472000e+00
    endloop
  endfacet
  facet normal 0.000000e+00 -6.123234e-17 -1.000000e+00
    outer loop
      vertex -7.086578e+00 2.362057e+00 3.472000e+00
      vertex -6.943716e+00 3.636320e+00 3.472000e+00
      vertex -5.816997e+00 4.734257e+00 3.472000e+00
    endloop
  endfacet
  facet normal 0.000000e+00 -6.123234e-17 -1.000000e+00
    outer loop
      vertex -8.678817e+00 -5.341771e+00 3.472000e+00
      vertex -9.050850e+00 -3.872648e+00 3.472000e+00
      vertex -8.070051e+00 -6.729622e+00 3.472000e+00
    endloop
  endfacet
  facet normal 0.000000e+00 -6.123234e-17 -1.000000e+00
    outer loop
      vertex -8.070051e+00 -6.729622e+00 3.472000e+00
      vertex -9.050850e+00 -3.872648e+00 3.472000e+00
      vertex -7.086578e+00 -2.362329e+00 3.472000e+00
    endloop
  endfacet
  facet normal 0.000000e+00 -6.123234e-17 -1.000000e+00
    outer loop
      vertex -8.070051e+00 -6.729622e+00 3.472000e+00
      vertex -7.086578e+00 -2.362329e+00 3.472000e+00
      vertex -7.241153e+00 -7.998344e+00 3.472000e+00
    endloop
  endfacet
  facet normal 0.000000e+00 -6.123234e-17 -1.000000e+00
    outer loop
      vertex -7.241153e+00 -7.998344e+00 3.472000e+00
      vertex -7.086578e+00 -2.362329e+00 3.472000e+00
      vertex -6.214736e+00 -9.113332e+00 3.472000e+00
    endloop
  endfacet
  facet normal 0.000000e+00 -6.123234e-17 -1.000000e+00
    outer loop
      vertex 1.567411e+00 6.678811e+00 3.472000e+00
      vertex 3.088746e+00 6.278193e+00 3.472000e+00
      vertex -2.252575e+00 -1.125754e+01 3.472000e+00
    endloop
  endfacet
  facet normal 0.000000e+00 -6.123234e-17 -1.000000e+00
    outer loop
      vertex -2.252575e+00 -1.125754e+01 3.472000e+00
      vertex 3.088746e+00 6.278193e+00 3.472000e+00
      vertex 7.086580e+00 -2.362329e+00 3.472000e+00
    endloop
  endfacet
  facet normal 0.000000e+00 -6.123234e-17 -1.000000e+00
    outer loop
      vertex -2.252575e+00 -1.125754e+01 3.472000e+00
      vertex 7.086580e+00 -2.362329e+00 3.472000e+00
      vertex -7.577479e-01 -1.150699e+01 3.472000e+00
    endloop
  endfacet
  facet normal 0.000000e+00 -6.123234e-17 -1.000000e+00
    outer loop
      vertex -7.577479e-01 -1.150699e+01 3.472000e+00
      vertex 7.086580e+00 -2.362329e+00 3.472000e+00
      vertex 8.678819e+00 -5.341771e+00 3.472000e+00
    endloop
  endfacet
  facet normal 0.000000e+00 -6.123234e-17 -1.000000e+00
    outer loop
      vertex -7.577479e-01 -1.150699e+01 3.472000e+00
      vertex 8.678819e+00 -5.341771e+00 3.472000e+00
      vertex 7.577479e-01 -1.150699e+01 3.472000e+00
    endloop
  endfacet
  facet normal 0.000000e+00 -6.123234e-17 -1.000000e+00
    outer loop
      vertex 7.577479e-01 -1.150699e+01 3.472000e+00
      vertex 8.678819e+00 -5.341771e+00 3.472000e+00
      vertex 8.070051e+00 -6.729622e+00 3.472000e+00
    endloop
  endfacet
  facet normal 0.000000e+00 -6.123234e-17 -1.000000e+00
    outer loop
      vertex 7.577479e-01 -1.150699e+01 3.472000e+00
      vertex 8.070051e+00 -6.729622e+00 3.472000e+00
      vertex 2.252575e+00 -1.125754e+01 3.472000e+00
    endloop
  endfacet
  facet normal 0.000000e+00 -6.123234e-17 -1.000000e+00
    outer loop
      vertex 2.252575e+00 -1.125754e+01 3.472000e+00
      vertex 8.070051e+00 -6.729622e+00 3.472000e+00
      vertex 7.241153e+00 -7.998344e+00 3.472000e+00
    endloop
  endfacet
  facet normal 0.000000e+00 -6.123234e-17 -1.000000e+00
    outer loop
      vertex 2.252575e+00 -1.125754e+01 3.472000e+00
      vertex 7.241153e+00 -7.998344e+00 3.472000e+00
      vertex 3.685961e+00 -1.076547e+01 3.472000e+00
    endloop
  endfacet
  facet normal 0.000000e+00 -6.123234e-17 -1.000000e+00
    outer loop
      vertex 3.685961e+00 -1.076547e+01 3.472000e+00
      vertex 7.241153e+00 -7.998344e+00 3.472000e+00
      vertex 6.214739e+00 -9.113332e+00 3.472000e+00
    endloop
  endfacet
  facet normal 0.000000e+00 -6.123234e-17 -1.000000e+00
    outer loop
      vertex 3.685961e+00 -1.076547e+01 3.472000e+00
      vertex 6.214739e+00 -9.113332e+00 3.472000e+00
      vertex 5.018799e+00 -1.004417e+01 3.472000e+00
    endloop
  endfacet
  facet normal 0.000000e+00 -6.123234e-17 -1.000000e+00
    outer loop
      vertex 1.567411e+00 6.678811e+00 3.472000e+00
      vertex -2.252575e+00 -1.125754e+01 3.472000e+00
      vertex 0.000000e+00 6.813671e+00 3.472000e+00
    endloop
  endfacet
  facet normal 0.000000e+00 -6.123234e-17 -1.000000e+00
    outer loop
      vertex 0.000000e+00 6.813671e+00 3.472000e+00
      vertex -2.252575e+00 -1.125754e+01 3.472000e+00
      vertex -7.086578e+00 -2.362329e+00 3.472000e+00
    endloop
  endfacet
  facet normal 0.000000e+00 -6.123234e-17 -1.000000e+00
    outer loop
      vertex 0.000000e+00 6.813671e+00 3.472000e+00
      vertex -7.086578e+00 -2.362329e+00 3.472000e+00
      vertex -1.567409e+00 6.678811e+00 3.472000e+00
    endloop
  endfacet
  facet normal 0.000000e+00 -6.123234e-17 -1.000000e+00
    outer loop
      vertex -1.567409e+00 6.678811e+00 3.472000e+00
      vertex -7.086578e+00 -2.362329e+00 3.472000e+00
      vertex -7.086578e+00 2.362057e+00 3.472000e+00
    endloop
  endfacet
  facet normal 0.000000e+00 -6.123234e-17 -1.000000e+00
    outer loop
      vertex -1.567409e+00 6.678811e+00 3.472000e+00
      vertex -7.086578e+00 2.362057e+00 3.472000e+00
      vertex -3.088746e+00 6.278193e+00 3.472000e+00
    endloop
  endfacet
  facet normal 0.000000e+00 -6.123234e-17 -1.000000e+00
    outer loop
      vertex -3.088746e+00 6.278193e+00 3.472000e+00
      vertex -7.086578e+00 2.362057e+00 3.472000e+00
      vertex -5.816997e+00 4.734257e+00 3.472000e+00
    endloop
  endfacet
  facet normal 0.000000e+00 -6.123234e-17 -1.000000e+00
    outer loop
      vertex -3.088746e+00 6.278193e+00 3.472000e+00
      vertex -5.816997e+00 4.734257e+00 3.472000e+00
      vertex -4.519291e+00 5.623595e+00 3.472000e+00
    endloop
  endfacet
endsolid Default