solid DefaultTransformed
facet normal -0.582646E+1  0.000000E+0  0.734227E+1
 outer loop
  vertex -0.168538E+1 -1.984259E+1  0.770934E+1
  vertex -0.013126E+1 -1.984259E+1  0.894261E+1
  vertex -0.168538E+1 -1.511820E+1  0.770934E+1
 endloop
endfacet
facet normal -0.582646E+1  0.000000E+0  0.734227E+1
 outer loop
  vertex -0.168538E+1 -1.511820E+1  0.770934E+1
  vertex -0.013126E+1 -1.984259E+1  0.894261E+1
  vertex -0.013126E+1 -1.511820E+1  0.894261E+1
 endloop
endfacet
facet normal  0.582646E+1  0.000000E+0 -0.734226E+1
 outer loop
  vertex  0.712480E+1 -1.511820E+1 -0.339288E+1
  vertex  0.867892E+1 -1.511820E+1 -0.215960E+1
  vertex  0.712480E+1 -1.984259E+1 -0.339288E+1
 endloop
endfacet
facet normal  0.582646E+1  0.000000E+0 -0.734226E+1
 outer loop
  vertex  0.712480E+1 -1.984259E+1 -0.339288E+1
  vertex  0.867892E+1 -1.511820E+1 -0.215960E+1
  vertex  0.867892E+1 -1.984259E+1 -0.215960E+1
 endloop
endfacet
facet normal  0.349674E+2  -0.000000E+0  0.277484E+2
 outer loop
  vertex  0.574220E+1 -3.401575E+1  0.154113E+1
  vertex  0.574220E+1 -3.874013E+1  0.154113E+1
  vertex  0.116156E+2 -3.401575E+1 -0.586035E+1
 endloop
endfacet
facet normal  0.524511E+2  1.907349E-6  0.416226E+2
 outer loop
  vertex  0.116156E+2 -3.401575E+1 -0.586035E+1
  vertex  0.574220E+1 -3.874013E+1  0.154113E+1
  vertex  0.145524E+2 -3.874013E+1 -0.956108E+1
 endloop
endfacet
facet normal  0.174837E+2  0.000000E+0  0.138742E+2
 outer loop
  vertex  0.116156E+2 -3.401575E+1 -0.586035E+1
  vertex  0.145524E+2 -3.874013E+1 -0.956108E+1
  vertex  0.116156E+2 -2.929136E+1 -0.586035E+1
 endloop
endfacet
facet normal  0.174837E+2  0.000000E+0  0.138742E+2
 outer loop
  vertex  0.116156E+2 -2.929136E+1 -0.586035E+1
  vertex  0.145524E+2 -3.874013E+1 -0.956108E+1
  vertex  0.145524E+2 -3.401575E+1 -0.956108E+1
 endloop
endfacet
facet normal  0.524512E+2  0.000000E+0  0.416227E+2
 outer loop
  vertex -0.013126E+1 -1.984259E+1  0.894261E+1
  vertex  0.867892E+1 -1.984259E+1 -0.215960E+1
  vertex -0.013126E+1 -1.511820E+1  0.894261E+1
 endloop
endfacet
facet normal  0.524512E+2  0.000000E+0  0.416227E+2
 outer loop
  vertex -0.013126E+1 -1.511820E+1  0.894261E+1
  vertex  0.867892E+1 -1.984259E+1 -0.215960E+1
  vertex  0.867892E+1 -1.511820E+1 -0.215960E+1
 endloop
endfacet
facet normal  0.349685E+2  0.000000E+0  0.277493E+2
 outer loop
  vertex  0.867892E+1 -1.039382E+1 -0.215960E+1
  vertex  0.116156E+2 -1.039382E+1 -0.586035E+1
  vertex  0.867892E+1 -0.094477E+1 -0.215960E+1
 endloop
endfacet
facet normal  0.174847E+2  0.000000E+0  0.138750E+2
 outer loop
  vertex  0.867892E+1 -0.094477E+1 -0.215960E+1
  vertex  0.116156E+2 -1.039382E+1 -0.586035E+1
  vertex  0.116156E+2 -0.566916E+1 -0.586035E+1
 endloop
endfacet
facet normal  0.262256E+2 -0.000000E+1  0.208114E+2
 outer loop
  vertex  0.867892E+1 -0.094477E+1 -0.215960E+1
  vertex  0.116156E+2 -0.566916E+1 -0.586035E+1
  vertex  0.130840E+2 -0.094477E+1 -0.771071E+1
 endloop
endfacet
facet normal  0.174837E+2 -0.000000E+1  0.138742E+2
 outer loop
  vertex  0.130840E+2 -0.094477E+1 -0.771071E+1
  vertex  0.116156E+2 -0.566916E+1 -0.586035E+1
  vertex  0.145524E+2 -0.566916E+1 -0.956108E+1
 endloop
endfacet
facet normal  0.874184E+1  0.000000E+0  0.693710E+1
 outer loop
  vertex  0.130840E+2 -0.094477E+1 -0.771071E+1
  vertex  0.145524E+2 -0.566916E+1 -0.956108E+1
  vertex  0.130840E+2  0.377961E+1 -0.771071E+1
 endloop
endfacet
facet normal  0.874186E+1  0.000000E+0  0.693711E+1
 outer loop
  vertex  0.130840E+2  0.377961E+1 -0.771071E+1
  vertex  0.145524E+2 -0.566916E+1 -0.956108E+1
  vertex  0.145524E+2 -0.094477E+1 -0.956108E+1
 endloop
endfacet
facet normal  0.262255E+2 -0.000000E+1  0.208113E+2
 outer loop
  vertex  0.130840E+2  0.377961E+1 -0.771071E+1
  vertex  0.145524E+2 -0.094477E+1 -0.956108E+1
  vertex  0.174891E+2  0.377961E+1 -1.326182E+1
 endloop
endfacet
facet normal  0.174837E+2  -0.000000E+0  0.138742E+2
 outer loop
  vertex  0.174891E+2  0.377961E+1 -1.326182E+1
  vertex  0.145524E+2 -0.094477E+1 -0.956108E+1
  vertex  0.174891E+2 -0.094477E+1 -1.326182E+1
 endloop
endfacet
facet normal  0.174837E+2  -0.000000E+0  0.138742E+2
 outer loop
  vertex  0.204258E+2 -1.511820E+1 -1.696256E+1
  vertex  0.174891E+2 -1.511820E+1 -1.326182E+1
  vertex  0.204258E+2 -1.984259E+1 -1.696256E+1
 endloop
endfacet
facet normal  0.349674E+2  0.000000E+0  0.277484E+2
 outer loop
  vertex  0.204258E+2 -1.984259E+1 -1.696256E+1
  vertex  0.174891E+2 -1.511820E+1 -1.326182E+1
  vertex  0.174891E+2 -2.456697E+1 -1.326182E+1
 endloop
endfacet
facet normal  0.174837E+2  5.722046E-6  0.138742E+2
 outer loop
  vertex  0.204258E+2 -1.984259E+1 -1.696256E+1
  vertex  0.174891E+2 -2.456697E+1 -1.326182E+1
  vertex  0.233625E+2 -1.984259E+1 -2.066330E+1
 endloop
endfacet
facet normal  0.174837E+2 -0.000001E+1  0.138742E+2
 outer loop
  vertex  0.233625E+2 -1.984259E+1 -2.066330E+1
  vertex  0.174891E+2 -2.456697E+1 -1.326182E+1
  vertex  0.204258E+2 -2.456697E+1 -1.696256E+1
 endloop
endfacet
facet normal  0.524512E+2  -0.000000E+0  0.416227E+2
 outer loop
  vertex  0.233625E+2 -1.984259E+1 -2.066330E+1
  vertex  0.204258E+2 -2.456697E+1 -1.696256E+1
  vertex  0.233625E+2 -3.401575E+1 -2.066330E+1
 endloop
endfacet
facet normal  0.349675E+2  0.000000E+0  0.277485E+2
 outer loop
  vertex  0.233625E+2 -3.401575E+1 -2.066330E+1
  vertex  0.204258E+2 -2.456697E+1 -1.696256E+1
  vertex  0.204258E+2 -3.401575E+1 -1.696256E+1
 endloop
endfacet
facet normal  0.174837E+2 -0.000000E+1  0.138742E+2
 outer loop
  vertex  0.145524E+2 -3.401575E+1 -0.956108E+1
  vertex  0.174891E+2 -3.401575E+1 -1.326182E+1
  vertex  0.116156E+2 -2.929136E+1 -0.586035E+1
 endloop
endfacet
facet normal  0.699349E+2  0.000000E+0  0.554969E+2
 outer loop
  vertex  0.116156E+2 -2.929136E+1 -0.586035E+1
  vertex  0.174891E+2 -3.401575E+1 -1.326182E+1
  vertex  0.174891E+2 -2.456697E+1 -1.326182E+1
 endloop
endfacet
facet normal  0.699348E+2  0.000000E+0  0.554969E+2
 outer loop
  vertex  0.116156E+2 -2.929136E+1 -0.586035E+1
  vertex  0.174891E+2 -2.456697E+1 -1.326182E+1
  vertex  0.116156E+2 -1.984259E+1 -0.586035E+1
 endloop
endfacet
facet normal  0.699349E+2  0.000000E+0  0.554969E+2
 outer loop
  vertex  0.116156E+2 -1.984259E+1 -0.586035E+1
  vertex  0.174891E+2 -2.456697E+1 -1.326182E+1
  vertex  0.174891E+2 -1.511820E+1 -1.326182E+1
 endloop
endfacet
facet normal  0.349674E+2  0.000000E+0  0.277484E+2
 outer loop
  vertex  0.116156E+2 -1.984259E+1 -0.586035E+1
  vertex  0.174891E+2 -1.511820E+1 -1.326182E+1
  vertex  0.116156E+2 -1.511820E+1 -0.586035E+1
 endloop
endfacet
facet normal  0.349674E+2  0.000000E+0  0.277485E+2
 outer loop
  vertex  0.116156E+2 -1.511820E+1 -0.586035E+1
  vertex  0.174891E+2 -1.511820E+1 -1.326182E+1
  vertex  0.174891E+2 -1.039382E+1 -1.326182E+1
 endloop
endfacet
facet normal  0.349674E+2  0.000000E+0  0.277485E+2
 outer loop
  vertex  0.174891E+2 -1.039382E+1 -1.326182E+1
  vertex  0.116156E+2 -1.039382E+1 -0.586035E+1
  vertex  0.116156E+2 -1.511820E+1 -0.586035E+1
 endloop
endfacet
facet normal  0.174837E+2  0.000000E+0  0.138742E+2
 outer loop
  vertex  0.116156E+2 -1.511820E+1 -0.586035E+1
  vertex  0.116156E+2 -1.039382E+1 -0.586035E+1
  vertex  0.867892E+1 -1.039382E+1 -0.215960E+1
 endloop
endfacet
facet normal  0.174837E+2  0.000000E+0  0.138742E+2
 outer loop
  vertex  0.116156E+2 -1.511820E+1 -0.586035E+1
  vertex  0.867892E+1 -1.039382E+1 -0.215960E+1
  vertex  0.867892E+1 -1.511820E+1 -0.215960E+1
 endloop
endfacet
facet normal  0.524512E+2  0.000000E+0  0.416227E+2
 outer loop
  vertex  0.867892E+1 -1.511820E+1 -0.215960E+1
  vertex  0.867892E+1 -1.039382E+1 -0.215960E+1
  vertex -0.013126E+1 -1.039382E+1  0.894261E+1
 endloop
endfacet
facet normal  0.524512E+2  0.000000E+0  0.416227E+2
 outer loop
  vertex  0.867892E+1 -1.511820E+1 -0.215960E+1
  vertex -0.013126E+1 -1.039382E+1  0.894261E+1
  vertex -0.013126E+1 -1.511820E+1  0.894261E+1
 endloop
endfacet
facet normal  0.174837E+2  -0.000000E+0  0.138742E+2
 outer loop
  vertex -0.600471E+1 -0.094477E+1  0.163441E+2
  vertex -0.600471E+1 -0.566916E+1  0.163441E+2
  vertex -0.306799E+1 -0.566916E+1  0.126434E+2
 endloop
endfacet
facet normal  0.262256E+2  -0.000000E+0  0.208113E+2
 outer loop
  vertex -0.894143E+1  0.377961E+1  0.200448E+2
  vertex -0.894143E+1 -0.094477E+1  0.200448E+2
  vertex -0.453635E+1  0.377961E+1  0.144937E+2
 endloop
endfacet
facet normal  0.174837E+2  1.907349E-6  0.138742E+2
 outer loop
  vertex -0.453635E+1  0.377961E+1  0.144937E+2
  vertex -0.894143E+1 -0.094477E+1  0.200448E+2
  vertex -0.600471E+1 -0.094477E+1  0.163441E+2
 endloop
endfacet
facet normal  0.874184E+1  -0.000000E+0  0.693710E+1
 outer loop
  vertex -0.453635E+1  0.377961E+1  0.144937E+2
  vertex -0.600471E+1 -0.094477E+1  0.163441E+2
  vertex -0.453635E+1 -0.094477E+1  0.144937E+2
 endloop
endfacet
facet normal  0.874186E+1  1.430511E-6  0.693711E+1
 outer loop
  vertex -0.453635E+1 -0.094477E+1  0.144937E+2
  vertex -0.600471E+1 -0.094477E+1  0.163441E+2
  vertex -0.306799E+1 -0.566916E+1  0.126434E+2
 endloop
endfacet
facet normal  0.262256E+2  0.000000E+0  0.208114E+2
 outer loop
  vertex -0.453635E+1 -0.094477E+1  0.144937E+2
  vertex -0.306799E+1 -0.566916E+1  0.126434E+2
  vertex -0.013126E+1 -0.094477E+1  0.894261E+1
 endloop
endfacet
facet normal  0.174847E+2  0.000000E+0  0.138750E+2
 outer loop
  vertex -0.013126E+1 -0.094477E+1  0.894261E+1
  vertex -0.306799E+1 -0.566916E+1  0.126434E+2
  vertex -0.306799E+1 -1.039382E+1  0.126434E+2
 endloop
endfacet
facet normal  0.349685E+2  -0.000000E+0  0.277493E+2
 outer loop
  vertex -0.013126E+1 -0.094477E+1  0.894261E+1
  vertex -0.306799E+1 -1.039382E+1  0.126434E+2
  vertex -0.013126E+1 -1.039382E+1  0.894261E+1
 endloop
endfacet
facet normal  0.174837E+2  0.000000E+0  0.138742E+2
 outer loop
  vertex -0.013126E+1 -1.039382E+1  0.894261E+1
  vertex -0.306799E+1 -1.039382E+1  0.126434E+2
  vertex -0.306799E+1 -1.511820E+1  0.126434E+2
 endloop
endfacet
facet normal  0.174837E+2  -0.000000E+0  0.138742E+2
 outer loop
  vertex -0.013126E+1 -1.039382E+1  0.894261E+1
  vertex -0.306799E+1 -1.511820E+1  0.126434E+2
  vertex -0.013126E+1 -1.511820E+1  0.894261E+1
 endloop
endfacet
facet normal  0.174837E+2  -0.000000E+0  0.138742E+2
 outer loop
  vertex -0.600471E+1 -3.401575E+1  0.163441E+2
  vertex -0.600471E+1 -3.874013E+1  0.163441E+2
  vertex -0.306799E+1 -3.401575E+1  0.126434E+2
 endloop
endfacet
facet normal  0.524511E+2  3.814697E-6  0.416226E+2
 outer loop
  vertex -0.306799E+1 -3.401575E+1  0.126434E+2
  vertex -0.600471E+1 -3.874013E+1  0.163441E+2
  vertex  0.280547E+1 -3.874013E+1  0.524187E+1
 endloop
endfacet
facet normal  0.349674E+2  0.000000E+0  0.277484E+2
 outer loop
  vertex -0.306799E+1 -3.401575E+1  0.126434E+2
  vertex  0.280547E+1 -3.874013E+1  0.524187E+1
  vertex  0.280547E+1 -3.401575E+1  0.524187E+1
 endloop
endfacet
facet normal  0.524512E+2  0.000000E+0  0.416227E+2
 outer loop
  vertex -1.481488E+1 -3.401575E+1  0.274463E+2
  vertex -1.187816E+1 -3.401575E+1  0.237456E+2
  vertex -1.481488E+1 -1.984259E+1  0.274463E+2
 endloop
endfacet
facet normal  0.349675E+2  0.000000E+0  0.277485E+2
 outer loop
  vertex -1.481488E+1 -1.984259E+1  0.274463E+2
  vertex -1.187816E+1 -3.401575E+1  0.237456E+2
  vertex -1.187816E+1 -2.456697E+1  0.237456E+2
 endloop
endfacet
facet normal  0.174837E+2  0.000000E+0  0.138742E+2
 outer loop
  vertex -1.481488E+1 -1.984259E+1  0.274463E+2
  vertex -1.187816E+1 -2.456697E+1  0.237456E+2
  vertex -1.187816E+1 -1.984259E+1  0.237456E+2
 endloop
endfacet
facet normal  0.174837E+2  -0.000000E+0  0.138742E+2
 outer loop
  vertex -1.187816E+1 -1.984259E+1  0.237456E+2
  vertex -1.187816E+1 -2.456697E+1  0.237456E+2
  vertex -0.894143E+1 -2.456697E+1  0.200448E+2
 endloop
endfacet
facet normal  0.174837E+2  0.000000E+0  0.138742E+2
 outer loop
  vertex -1.187816E+1 -1.984259E+1  0.237456E+2
  vertex -0.894143E+1 -2.456697E+1  0.200448E+2
  vertex -1.187816E+1 -1.511820E+1  0.237456E+2
 endloop
endfacet
facet normal  0.349674E+2  0.000000E+0  0.277484E+2
 outer loop
  vertex -1.187816E+1 -1.511820E+1  0.237456E+2
  vertex -0.894143E+1 -2.456697E+1  0.200448E+2
  vertex -0.894143E+1 -1.511820E+1  0.200448E+2
 endloop
endfacet
facet normal  0.349675E+2  0.000000E+0  0.277485E+2
 outer loop
  vertex -0.894143E+1 -3.401575E+1  0.200448E+2
  vertex -0.600471E+1 -3.401575E+1  0.163441E+2
  vertex -0.894143E+1 -2.456697E+1  0.200448E+2
 endloop
endfacet
facet normal  0.349674E+2  0.000000E+0  0.277484E+2
 outer loop
  vertex -0.894143E+1 -2.456697E+1  0.200448E+2
  vertex -0.600471E+1 -3.401575E+1  0.163441E+2
  vertex -0.306799E+1 -3.401575E+1  0.126434E+2
 endloop
endfacet
facet normal  0.699349E+2  0.000000E+0  0.554969E+2
 outer loop
  vertex -0.894143E+1 -2.456697E+1  0.200448E+2
  vertex -0.306799E+1 -3.401575E+1  0.126434E+2
  vertex -0.894143E+1 -1.511820E+1  0.200448E+2
 endloop
endfacet
facet normal  0.349674E+2  0.000000E+0  0.277484E+2
 outer loop
  vertex -0.894143E+1 -1.511820E+1  0.200448E+2
  vertex -0.306799E+1 -3.401575E+1  0.126434E+2
  vertex -0.306799E+1 -2.929136E+1  0.126434E+2
 endloop
endfacet
facet normal  0.349674E+2  -0.000000E+0  0.277484E+2
 outer loop
  vertex -0.306799E+1 -1.039382E+1  0.126434E+2
  vertex -0.894143E+1 -1.039382E+1  0.200448E+2
  vertex -0.306799E+1 -1.511820E+1  0.126434E+2
 endloop
endfacet
facet normal  0.349674E+2  0.000000E+0  0.277484E+2
 outer loop
  vertex -0.306799E+1 -1.511820E+1  0.126434E+2
  vertex -0.894143E+1 -1.039382E+1  0.200448E+2
  vertex -0.894143E+1 -1.511820E+1  0.200448E+2
 endloop
endfacet
facet normal  0.349674E+2  -0.000000E+0  0.277484E+2
 outer loop
  vertex -0.306799E+1 -1.511820E+1  0.126434E+2
  vertex -0.894143E+1 -1.511820E+1  0.200448E+2
  vertex -0.306799E+1 -1.984259E+1  0.126434E+2
 endloop
endfacet
facet normal  0.699348E+2  -0.000000E+0  0.554969E+2
 outer loop
  vertex -0.306799E+1 -1.984259E+1  0.126434E+2
  vertex -0.894143E+1 -1.511820E+1  0.200448E+2
  vertex -0.306799E+1 -2.929136E+1  0.126434E+2
 endloop
endfacet
facet normal  0.349675E+2  -0.000000E+0  0.277485E+2
 outer loop
  vertex -0.306799E+1 -1.984259E+1  0.126434E+2
  vertex -0.306799E+1 -2.929136E+1  0.126434E+2
  vertex -0.013126E+1 -1.984259E+1  0.894261E+1
 endloop
endfacet
facet normal  0.174837E+3  0.000000E+0  0.138742E+3
 outer loop
  vertex -0.013126E+1 -1.984259E+1  0.894261E+1
  vertex -0.306799E+1 -2.929136E+1  0.126434E+2
  vertex  0.116156E+2 -2.929136E+1 -0.586035E+1
 endloop
endfacet
facet normal  0.104902E+3  1.525879E-5  0.832453E+2
 outer loop
  vertex -0.013126E+1 -1.984259E+1  0.894261E+1
  vertex  0.116156E+2 -2.929136E+1 -0.586035E+1
  vertex  0.867892E+1 -1.984259E+1 -0.215960E+1
 endloop
endfacet
facet normal  0.349675E+2  0.000000E+0  0.277485E+2
 outer loop
  vertex  0.867892E+1 -1.984259E+1 -0.215960E+1
  vertex  0.116156E+2 -2.929136E+1 -0.586035E+1
  vertex  0.116156E+2 -1.984259E+1 -0.586035E+1
 endloop
endfacet
facet normal -0.263604E+1 -0.000000E+1 -0.209183E+1
 outer loop
  vertex  0.488979E+1 -1.511820E+1 -0.616191E+1
  vertex  0.431628E+1 -1.384394E+1 -0.543920E+1
  vertex  0.440509E+1 -1.039382E+1 -0.555111E+1
 endloop
endfacet
facet normal -0.316791E+1 -0.000000E+1 -0.251390E+1
 outer loop
  vertex  0.431628E+1 -1.384394E+1 -0.543920E+1
  vertex  0.361590E+1 -1.274600E+1 -0.455661E+1
  vertex  0.440509E+1 -1.039382E+1 -0.555111E+1
 endloop
endfacet
facet normal -0.327551E+1 -0.000000E+1 -0.259929E+1
 outer loop
  vertex  0.440509E+1 -1.039382E+1 -0.555111E+1
  vertex  0.361590E+1 -1.274600E+1 -0.455661E+1
  vertex  0.280924E+1 -1.185666E+1 -0.354008E+1
 endloop
endfacet
facet normal -0.295566E+1 -0.000000E+1 -0.234547E+1
 outer loop
  vertex  0.440509E+1 -1.039382E+1 -0.555111E+1
  vertex  0.280924E+1 -1.185666E+1 -0.354008E+1
  vertex  0.192000E+1 -1.120207E+1 -0.241950E+1
 endloop
endfacet
facet normal -1.748371E+1  0.000000E+0 -1.387422E+1
 outer loop
  vertex  0.102785E+2 -0.094477E+1 -1.295259E+1
  vertex  0.102785E+2 -0.566916E+1 -1.295259E+1
  vertex  0.734182E+1 -0.566916E+1 -0.925185E+1
 endloop
endfacet
facet normal -0.311736E+1 -0.000000E+1 -0.247379E+1
 outer loop
  vertex  0.562610E+1 -2.135291E+1 -0.708977E+1
  vertex  0.570389E+1 -1.984259E+1 -0.718781E+1
  vertex  0.734182E+1 -1.984259E+1 -0.925185E+1
 endloop
endfacet
facet normal -3.496742E+1  0.000000E+0 -2.774843E+1
 outer loop
  vertex -0.146836E+1 -3.401575E+1  0.185037E+1
  vertex -0.146836E+1 -3.874013E+1  0.185037E+1
  vertex -0.734182E+1 -3.401575E+1  0.925185E+1
 endloop
endfacet
facet normal -5.245109E+1  0.000000E+0 -4.162262E+1
 outer loop
  vertex -0.734182E+1 -3.401575E+1  0.925185E+1
  vertex -0.146836E+1 -3.874013E+1  0.185037E+1
  vertex -1.027854E+1 -3.874013E+1  0.129526E+2
 endloop
endfacet
facet normal -1.748370E+1  -0.000000E+0 -1.387421E+1
 outer loop
  vertex -0.734182E+1 -3.401575E+1  0.925185E+1
  vertex -1.027854E+1 -3.874013E+1  0.129526E+2
  vertex -0.734182E+1 -2.929136E+1  0.925185E+1
 endloop
endfacet
facet normal -3.496743E+1  0.000000E+0 -2.774844E+1
 outer loop
  vertex  0.734182E+1 -1.039382E+1 -0.925185E+1
  vertex  0.132153E+2 -1.039382E+1 -1.665333E+1
  vertex  0.132153E+2 -1.511820E+1 -1.665333E+1
 endloop
endfacet
facet normal -2.622555E+1  0.000000E+0 -2.081131E+1
 outer loop
  vertex  0.132153E+2  0.377961E+1 -1.665333E+1
  vertex  0.132153E+2 -0.094477E+1 -1.665333E+1
  vertex  0.881018E+1  0.377961E+1 -1.110222E+1
 endloop
endfacet
facet normal -1.748371E+1 -0.000000E+1 -1.387421E+1
 outer loop
  vertex  0.881018E+1  0.377961E+1 -1.110222E+1
  vertex  0.132153E+2 -0.094477E+1 -1.665333E+1
  vertex  0.102785E+2 -0.094477E+1 -1.295259E+1
 endloop
endfacet
facet normal -0.874184E+1  0.000000E+0 -0.693710E+1
 outer loop
  vertex  0.881018E+1  0.377961E+1 -1.110222E+1
  vertex  0.102785E+2 -0.094477E+1 -1.295259E+1
  vertex  0.881018E+1 -0.094477E+1 -1.110222E+1
 endloop
endfacet
facet normal -0.874186E+1 -0.000000E+1 -0.693711E+1
 outer loop
  vertex  0.881018E+1 -0.094477E+1 -1.110222E+1
  vertex  0.102785E+2 -0.094477E+1 -1.295259E+1
  vertex  0.734182E+1 -0.566916E+1 -0.925185E+1
 endloop
endfacet
facet normal -2.622560E+1 -0.000000E+1 -2.081136E+1
 outer loop
  vertex  0.881018E+1 -0.094477E+1 -1.110222E+1
  vertex  0.734182E+1 -0.566916E+1 -0.925185E+1
  vertex  0.440509E+1 -0.094477E+1 -0.555111E+1
 endloop
endfacet
facet normal -1.748473E+1  0.000000E+0 -1.387503E+1
 outer loop
  vertex  0.440509E+1 -0.094477E+1 -0.555111E+1
  vertex  0.734182E+1 -0.566916E+1 -0.925185E+1
  vertex  0.734182E+1 -1.039382E+1 -0.925185E+1
 endloop
endfacet
facet normal -3.496848E+1  0.000000E+0 -2.774928E+1
 outer loop
  vertex  0.440509E+1 -0.094477E+1 -0.555111E+1
  vertex  0.734182E+1 -1.039382E+1 -0.925185E+1
  vertex  0.440509E+1 -1.039382E+1 -0.555111E+1
 endloop
endfacet
facet normal -1.748374E+1  0.000000E+0 -1.387424E+1
 outer loop
  vertex  0.440509E+1 -1.039382E+1 -0.555111E+1
  vertex  0.734182E+1 -1.039382E+1 -0.925185E+1
  vertex  0.734182E+1 -1.511820E+1 -0.925185E+1
 endloop
endfacet
facet normal -1.459808E+1 -0.000000E+1 -1.158432E+1
 outer loop
  vertex  0.440509E+1 -1.039382E+1 -0.555111E+1
  vertex  0.734182E+1 -1.511820E+1 -0.925185E+1
  vertex  0.488979E+1 -1.511820E+1 -0.616191E+1
 endloop
endfacet
facet normal -3.496743E+1  0.000000E+0 -2.774844E+1
 outer loop
  vertex  0.734182E+1 -1.039382E+1 -0.925185E+1
  vertex  0.132153E+2 -1.511820E+1 -1.665333E+1
  vertex  0.734182E+1 -1.511820E+1 -0.925185E+1
 endloop
endfacet
facet normal -6.993485E+1  0.000000E+0 -5.549687E+1
 outer loop
  vertex  0.734182E+1 -1.511820E+1 -0.925185E+1
  vertex  0.132153E+2 -1.511820E+1 -1.665333E+1
  vertex  0.132153E+2 -2.456697E+1 -1.665333E+1
 endloop
endfacet
facet normal -3.496743E+1  0.000000E+0 -2.774844E+1
 outer loop
  vertex  0.734182E+1 -1.511820E+1 -0.925185E+1
  vertex  0.132153E+2 -2.456697E+1 -1.665333E+1
  vertex  0.734182E+1 -1.984259E+1 -0.925185E+1
 endloop
endfacet
facet normal -6.993484E+1  0.000000E+0 -5.549688E+1
 outer loop
  vertex  0.734182E+1 -1.984259E+1 -0.925185E+1
  vertex  0.132153E+2 -2.456697E+1 -1.665333E+1
  vertex  0.132153E+2 -3.401575E+1 -1.665333E+1
 endloop
endfacet
facet normal -5.245118E+1 -0.000000E+1 -4.162269E+1
 outer loop
  vertex  0.734182E+1 -1.984259E+1 -0.925185E+1
  vertex  0.132153E+2 -3.401575E+1 -1.665333E+1
  vertex  0.102785E+2 -3.401575E+1 -1.295259E+1
 endloop
endfacet
facet normal -5.245124E+1  -0.000000E+0 -4.162273E+1
 outer loop
  vertex  0.190887E+2 -3.401575E+1 -2.405480E+1
  vertex  0.161520E+2 -3.401575E+1 -2.035406E+1
  vertex  0.190887E+2 -1.984259E+1 -2.405480E+1
 endloop
endfacet
facet normal -3.496749E+1  0.000000E+0 -2.774848E+1
 outer loop
  vertex  0.190887E+2 -1.984259E+1 -2.405480E+1
  vertex  0.161520E+2 -3.401575E+1 -2.035406E+1
  vertex  0.161520E+2 -2.456697E+1 -2.035406E+1
 endloop
endfacet
facet normal -1.748375E+1  0.000000E+0 -1.387424E+1
 outer loop
  vertex  0.190887E+2 -1.984259E+1 -2.405480E+1
  vertex  0.161520E+2 -2.456697E+1 -2.035406E+1
  vertex  0.161520E+2 -1.984259E+1 -2.035406E+1
 endloop
endfacet
facet normal -1.748369E+1  0.000000E+0 -1.387421E+1
 outer loop
  vertex  0.161520E+2 -1.984259E+1 -2.035406E+1
  vertex  0.161520E+2 -2.456697E+1 -2.035406E+1
  vertex  0.132153E+2 -2.456697E+1 -1.665333E+1
 endloop
endfacet
facet normal -1.748369E+1  -0.000000E+0 -1.387421E+1
 outer loop
  vertex  0.161520E+2 -1.984259E+1 -2.035406E+1
  vertex  0.132153E+2 -2.456697E+1 -1.665333E+1
  vertex  0.161520E+2 -1.511820E+1 -2.035406E+1
 endloop
endfacet
facet normal -3.496738E+1  0.000000E+0 -2.774842E+1
 outer loop
  vertex  0.161520E+2 -1.511820E+1 -2.035406E+1
  vertex  0.132153E+2 -2.456697E+1 -1.665333E+1
  vertex  0.132153E+2 -1.511820E+1 -1.665333E+1
 endloop
endfacet
facet normal -1.748368E+1  -0.000000E+0 -1.387419E+1
 outer loop
  vertex -1.027854E+1 -3.874013E+1  0.129526E+2
  vertex -1.027854E+1 -3.401575E+1  0.129526E+2
  vertex -0.734182E+1 -2.929136E+1  0.925185E+1
 endloop
endfacet
facet normal -1.748374E+1  1.907349E-6 -1.387424E+1
 outer loop
  vertex -0.734182E+1 -2.929136E+1  0.925185E+1
  vertex -1.027854E+1 -3.401575E+1  0.129526E+2
  vertex -1.321527E+1 -3.401575E+1  0.166533E+2
 endloop
endfacet
facet normal -6.993485E+1  0.000000E+0 -5.549687E+1
 outer loop
  vertex -0.734182E+1 -2.929136E+1  0.925185E+1
  vertex -1.321527E+1 -3.401575E+1  0.166533E+2
  vertex -1.321527E+1 -2.456697E+1  0.166533E+2
 endloop
endfacet
facet normal -3.496743E+1  -0.000000E+0 -2.774844E+1
 outer loop
  vertex -0.734182E+1 -1.984259E+1  0.925185E+1
  vertex -1.321527E+1 -1.511820E+1  0.166533E+2
  vertex -0.734182E+1 -1.511820E+1  0.925185E+1
 endloop
endfacet
facet normal -3.496743E+1  0.000000E+0 -2.774844E+1
 outer loop
  vertex -0.734182E+1 -1.511820E+1  0.925185E+1
  vertex -1.321527E+1 -1.511820E+1  0.166533E+2
  vertex -1.321527E+1 -1.039382E+1  0.166533E+2
 endloop
endfacet
facet normal -1.459809E+1  0.000000E+0 -1.158433E+1
 outer loop
  vertex -0.734182E+1 -1.511820E+1  0.925185E+1
  vertex -1.321527E+1 -1.039382E+1  0.166533E+2
  vertex -0.488979E+1 -1.511820E+1  0.616191E+1
 endloop
endfacet
facet normal -1.748474E+1  0.000000E+0 -1.387504E+1
 outer loop
  vertex -0.440509E+1 -1.039382E+1  0.555111E+1
  vertex -0.734182E+1 -1.039382E+1  0.925185E+1
  vertex -0.734182E+1 -0.566916E+1  0.925185E+1
 endloop
endfacet
facet normal -0.221778E+1  0.000000E+0 -0.175992E+1
 outer loop
  vertex  0.192000E+1 -1.120207E+1 -0.241950E+1
  vertex  0.097432E+1 -1.080145E+1 -0.122780E+1
  vertex  0.440509E+1 -1.039382E+1 -0.555111E+1
 endloop
endfacet
facet normal -0.108353E+1  0.000000E+0 -0.085984E+1
 outer loop
  vertex  0.440509E+1 -1.039382E+1 -0.555111E+1
  vertex  0.097432E+1 -1.080145E+1 -0.122780E+1
  vertex  6.929113E-16 -1.066659E+1  5.498605E-16
 endloop
endfacet
facet normal -0.302838E+1 -0.000000E+1 -0.240318E+1
 outer loop
  vertex  0.440509E+1 -1.039382E+1 -0.555111E+1
  vertex  6.929113E-16 -1.066659E+1  5.498605E-16
  vertex -0.440509E+1 -1.039382E+1  0.555111E+1
 endloop
endfacet
facet normal -0.108353E+1  0.000000E+0 -0.085984E+1
 outer loop
  vertex -0.440509E+1 -1.039382E+1  0.555111E+1
  vertex  6.929113E-16 -1.066659E+1  5.498605E-16
  vertex -0.097432E+1 -1.080145E+1  0.122779E+1
 endloop
endfacet
facet normal -0.649008E+1  4.768372E-7 -0.515021E+1
 outer loop
  vertex  0.734182E+1 -2.929136E+1 -0.925185E+1
  vertex  0.501642E+1 -2.420988E+1 -0.632149E+1
  vertex  0.539484E+1 -2.282203E+1 -0.679835E+1
 endloop
endfacet
facet normal -1.748371E+1  -0.000000E+0 -1.387421E+1
 outer loop
  vertex -1.321527E+1 -0.094477E+1  0.166533E+2
  vertex -1.321527E+1  0.377961E+1  0.166533E+2
  vertex -1.027854E+1 -0.094477E+1  0.129526E+2
 endloop
endfacet
facet normal -2.622555E+1  3.337860E-6 -2.081131E+1
 outer loop
  vertex -1.027854E+1 -0.094477E+1  0.129526E+2
  vertex -1.321527E+1  0.377961E+1  0.166533E+2
  vertex -0.881018E+1  0.377961E+1  0.111022E+2
 endloop
endfacet
facet normal -0.874186E+1  0.000000E+0 -0.693711E+1
 outer loop
  vertex -1.027854E+1 -0.094477E+1  0.129526E+2
  vertex -0.881018E+1  0.377961E+1  0.111022E+2
  vertex -1.027854E+1 -0.566916E+1  0.129526E+2
 endloop
endfacet
facet normal -0.874184E+1  0.000000E+0 -0.693710E+1
 outer loop
  vertex -1.027854E+1 -0.566916E+1  0.129526E+2
  vertex -0.881018E+1  0.377961E+1  0.111022E+2
  vertex -0.881018E+1 -0.094477E+1  0.111022E+2
 endloop
endfacet
facet normal -1.748371E+1  1.907349E-6 -1.387422E+1
 outer loop
  vertex -1.027854E+1 -0.566916E+1  0.129526E+2
  vertex -0.881018E+1 -0.094477E+1  0.111022E+2
  vertex -0.734182E+1 -0.566916E+1  0.925185E+1
 endloop
endfacet
facet normal -2.622561E+1  1.907349E-6 -2.081136E+1
 outer loop
  vertex -0.734182E+1 -0.566916E+1  0.925185E+1
  vertex -0.881018E+1 -0.094477E+1  0.111022E+2
  vertex -0.440509E+1 -0.094477E+1  0.555111E+1
 endloop
endfacet
facet normal -3.496850E+1  0.000000E+0 -2.774929E+1
 outer loop
  vertex -0.734182E+1 -0.566916E+1  0.925185E+1
  vertex -0.440509E+1 -0.094477E+1  0.555111E+1
  vertex -0.440509E+1 -1.039382E+1  0.555111E+1
 endloop
endfacet
facet normal -3.496749E+1  -0.000000E+0 -2.774849E+1
 outer loop
  vertex -1.615199E+1 -3.401575E+1  0.203541E+2
  vertex -1.908872E+1 -3.401575E+1  0.240548E+2
  vertex -1.615199E+1 -2.456697E+1  0.203541E+2
 endloop
endfacet
facet normal -5.245124E+1  0.000000E+0 -4.162273E+1
 outer loop
  vertex -1.615199E+1 -2.456697E+1  0.203541E+2
  vertex -1.908872E+1 -3.401575E+1  0.240548E+2
  vertex -1.908872E+1 -1.984259E+1  0.240548E+2
 endloop
endfacet
facet normal -1.748369E+1  4.768372E-6 -1.387421E+1
 outer loop
  vertex -1.615199E+1 -2.456697E+1  0.203541E+2
  vertex -1.908872E+1 -1.984259E+1  0.240548E+2
  vertex -1.321527E+1 -2.456697E+1  0.166533E+2
 endloop
endfacet
facet normal -1.748375E+1 -0.000001E+1 -1.387424E+1
 outer loop
  vertex -1.321527E+1 -2.456697E+1  0.166533E+2
  vertex -1.908872E+1 -1.984259E+1  0.240548E+2
  vertex -1.615199E+1 -1.984259E+1  0.203541E+2
 endloop
endfacet
facet normal -1.748374E+1 -0.000001E+1 -1.387424E+1
 outer loop
  vertex -1.321527E+1 -2.456697E+1  0.166533E+2
  vertex -1.615199E+1 -1.984259E+1  0.203541E+2
  vertex -0.734182E+1 -2.929136E+1  0.925185E+1
 endloop
endfacet
facet normal -0.568244E+1  4.768372E-7 -0.450931E+1
 outer loop
  vertex -0.311973E+1 -2.752443E+1  0.393136E+1
  vertex -0.229123E+1 -2.824573E+1  0.288731E+1
  vertex -0.734182E+1 -2.929136E+1  0.925185E+1
 endloop
endfacet
facet normal -5.245109E+1  -0.000000E+0 -4.162262E+1
 outer loop
  vertex  0.146836E+1 -3.874013E+1 -0.185037E+1
  vertex  0.146836E+1 -3.401575E+1 -0.185037E+1
  vertex  0.102785E+2 -3.874013E+1 -1.295259E+1
 endloop
endfacet
facet normal -3.496741E+1  0.000000E+0 -2.774843E+1
 outer loop
  vertex  0.102785E+2 -3.874013E+1 -1.295259E+1
  vertex  0.146836E+1 -3.401575E+1 -0.185037E+1
  vertex  0.734182E+1 -3.401575E+1 -0.925185E+1
 endloop
endfacet
facet normal -1.748368E+1  -0.000000E+0 -1.387419E+1
 outer loop
  vertex  0.102785E+2 -3.874013E+1 -1.295259E+1
  vertex  0.734182E+1 -3.401575E+1 -0.925185E+1
  vertex  0.102785E+2 -3.401575E+1 -1.295259E+1
 endloop
endfacet
facet normal -1.748370E+1  0.000000E+0 -1.387421E+1
 outer loop
  vertex  0.102785E+2 -3.401575E+1 -1.295259E+1
  vertex  0.734182E+1 -3.401575E+1 -0.925185E+1
  vertex  0.734182E+1 -2.929136E+1 -0.925185E+1
 endloop
endfacet
facet normal -3.496739E+1  0.000000E+0 -2.774841E+1
 outer loop
  vertex  0.102785E+2 -3.401575E+1 -1.295259E+1
  vertex  0.734182E+1 -2.929136E+1 -0.925185E+1
  vertex  0.734182E+1 -1.984259E+1 -0.925185E+1
 endloop
endfacet
facet normal -2.318255E+1  0.000000E+0 -1.839654E+1
 outer loop
  vertex  0.734182E+1 -1.984259E+1 -0.925185E+1
  vertex  0.734182E+1 -2.929136E+1 -0.925185E+1
  vertex  0.539484E+1 -2.282203E+1 -0.679835E+1
 endloop
endfacet
facet normal -0.273621E+1  4.768372E-7 -0.217133E+1
 outer loop
  vertex  0.734182E+1 -1.984259E+1 -0.925185E+1
  vertex  0.539484E+1 -2.282203E+1 -0.679835E+1
  vertex  0.562610E+1 -2.135291E+1 -0.708977E+1
 endloop
endfacet
facet normal -0.311736E+1  9.685755E-7 -0.247379E+1
 outer loop
  vertex -0.570389E+1 -1.984259E+1  0.718781E+1
  vertex -0.562610E+1 -2.135291E+1  0.708977E+1
  vertex -0.734182E+1 -1.984259E+1  0.925185E+1
 endloop
endfacet
facet normal -0.273621E+1 -0.000000E+1 -0.217132E+1
 outer loop
  vertex -0.734182E+1 -1.984259E+1  0.925185E+1
  vertex -0.562610E+1 -2.135291E+1  0.708977E+1
  vertex -0.539484E+1 -2.282203E+1  0.679835E+1
 endloop
endfacet
facet normal -0.391387E+1  9.536743E-7 -0.310586E+1
 outer loop
  vertex -0.386314E+1 -2.659359E+1  0.486817E+1
  vertex -1.321527E+1 -1.511820E+1  0.166533E+2
  vertex -0.450117E+1 -2.547860E+1  0.567219E+1
 endloop
endfacet
facet normal -2.480312E+1 -0.000000E+1 -1.968254E+1
 outer loop
  vertex -0.450117E+1 -2.547860E+1  0.567219E+1
  vertex -1.321527E+1 -1.511820E+1  0.166533E+2
  vertex -0.734182E+1 -1.984259E+1  0.925185E+1
 endloop
endfacet
facet normal -0.088214E+1  2.384186E-7 -0.070002E+1
 outer loop
  vertex -0.450117E+1 -2.547860E+1  0.567219E+1
  vertex -0.734182E+1 -1.984259E+1  0.925185E+1
  vertex -0.501642E+1 -2.420988E+1  0.632149E+1
 endloop
endfacet
facet normal -0.198431E+1  3.576279E-7 -0.157465E+1
 outer loop
  vertex -0.501642E+1 -2.420988E+1  0.632149E+1
  vertex -0.734182E+1 -1.984259E+1  0.925185E+1
  vertex -0.539484E+1 -2.282203E+1  0.679835E+1
 endloop
endfacet
facet normal -3.496743E+1  0.000000E+0 -2.774844E+1
 outer loop
  vertex -1.321527E+1 -1.039382E+1  0.166533E+2
  vertex -0.734182E+1 -1.039382E+1  0.925185E+1
  vertex -0.488979E+1 -1.511820E+1  0.616191E+1
 endloop
endfacet
facet normal -1.748375E+1 -0.000000E+1 -1.387425E+1
 outer loop
  vertex -0.488979E+1 -1.511820E+1  0.616191E+1
  vertex -0.734182E+1 -1.039382E+1  0.925185E+1
  vertex -0.440509E+1 -1.039382E+1  0.555111E+1
 endloop
endfacet
facet normal -0.263603E+1  2.980232E-8 -0.209182E+1
 outer loop
  vertex -0.488979E+1 -1.511820E+1  0.616191E+1
  vertex -0.440509E+1 -1.039382E+1  0.555111E+1
  vertex -0.431628E+1 -1.384394E+1  0.543920E+1
 endloop
endfacet
facet normal -0.316791E+1  6.705523E-8 -0.251390E+1
 outer loop
  vertex -0.431628E+1 -1.384394E+1  0.543920E+1
  vertex -0.440509E+1 -1.039382E+1  0.555111E+1
  vertex -0.361590E+1 -1.274600E+1  0.455661E+1
 endloop
endfacet
facet normal -0.430584E+1  4.768372E-7 -0.341690E+1
 outer loop
  vertex  0.140022E+1 -2.873780E+1 -0.176450E+1
  vertex  0.229123E+1 -2.824573E+1 -0.288731E+1
  vertex  0.734182E+1 -2.929136E+1 -0.925185E+1
 endloop
endfacet
facet normal -0.568244E+1  1.907349E-6 -0.450931E+1
 outer loop
  vertex  0.734182E+1 -2.929136E+1 -0.925185E+1
  vertex  0.229123E+1 -2.824573E+1 -0.288731E+1
  vertex  0.311974E+1 -2.752443E+1 -0.393136E+1
 endloop
endfacet
facet normal -0.221778E+1 -0.000000E+1 -0.175992E+1
 outer loop
  vertex -0.097432E+1 -1.080145E+1  0.122779E+1
  vertex -0.192000E+1 -1.120207E+1  0.241950E+1
  vertex -0.440509E+1 -1.039382E+1  0.555111E+1
 endloop
endfacet
facet normal -0.295566E+1  0.000000E+0 -0.234546E+1
 outer loop
  vertex -0.440509E+1 -1.039382E+1  0.555111E+1
  vertex -0.192000E+1 -1.120207E+1  0.241950E+1
  vertex -0.280924E+1 -1.185666E+1  0.354008E+1
 endloop
endfacet
facet normal -0.327551E+1  2.384186E-7 -0.259928E+1
 outer loop
  vertex -0.440509E+1 -1.039382E+1  0.555111E+1
  vertex -0.280924E+1 -1.185666E+1  0.354008E+1
  vertex -0.361590E+1 -1.274600E+1  0.455661E+1
 endloop
endfacet
facet normal -0.021975E+1  0.000000E+0 -0.017439E+1
 outer loop
  vertex -0.386314E+1 -2.659359E+1  0.486817E+1
  vertex -0.311973E+1 -2.752443E+1  0.393136E+1
  vertex -1.321527E+1 -1.511820E+1  0.166533E+2
 endloop
endfacet
facet normal -8.848609E+1  7.629395E-6 -7.021823E+1
 outer loop
  vertex -1.321527E+1 -1.511820E+1  0.166533E+2
  vertex -0.311973E+1 -2.752443E+1  0.393136E+1
  vertex -0.734182E+1 -2.929136E+1  0.925185E+1
 endloop
endfacet
facet normal -5.245107E+1  7.629395E-6 -4.162262E+1
 outer loop
  vertex -1.321527E+1 -1.511820E+1  0.166533E+2
  vertex -0.734182E+1 -2.929136E+1  0.925185E+1
  vertex -1.615199E+1 -1.511820E+1  0.203541E+2
 endloop
endfacet
facet normal -5.245112E+1  0.000000E+0 -4.162265E+1
 outer loop
  vertex -1.615199E+1 -1.511820E+1  0.203541E+2
  vertex -0.734182E+1 -2.929136E+1  0.925185E+1
  vertex -1.615199E+1 -1.984259E+1  0.203541E+2
 endloop
endfacet
facet normal -0.430584E+1 -0.000000E+1 -0.341690E+1
 outer loop
  vertex -0.229123E+1 -2.824573E+1  0.288731E+1
  vertex -0.140022E+1 -2.873780E+1  0.176450E+1
  vertex -0.734182E+1 -2.929136E+1  0.925185E+1
 endloop
endfacet
facet normal -0.251591E+1  3.814697E-6 -0.199650E+1
 outer loop
  vertex -0.734182E+1 -2.929136E+1  0.925185E+1
  vertex -0.140022E+1 -2.873780E+1  0.176450E+1
  vertex -0.047102E+1 -2.898725E+1  0.059356E+1
 endloop
endfacet
facet normal -0.562715E+1  0.000000E+0 -0.446543E+1
 outer loop
  vertex -0.734182E+1 -2.929136E+1  0.925185E+1
  vertex -0.047102E+1 -2.898725E+1  0.059356E+1
  vertex  0.734182E+1 -2.929136E+1 -0.925185E+1
 endloop
endfacet
facet normal -0.036102E+1  0.000000E+0 -0.028649E+1
 outer loop
  vertex  0.734182E+1 -2.929136E+1 -0.925185E+1
  vertex -0.047102E+1 -2.898725E+1  0.059356E+1
  vertex  0.047102E+1 -2.898725E+1 -0.059356E+1
 endloop
endfacet
facet normal -0.251591E+1 -0.000000E+1 -0.199650E+1
 outer loop
  vertex  0.734182E+1 -2.929136E+1 -0.925185E+1
  vertex  0.047102E+1 -2.898725E+1 -0.059356E+1
  vertex  0.140022E+1 -2.873780E+1 -0.176450E+1
 endloop
endfacet
facet normal -0.660779E+1  4.768372E-7 -0.524361E+1
 outer loop
  vertex  0.311974E+1 -2.752443E+1 -0.393136E+1
  vertex  0.386314E+1 -2.659359E+1 -0.486817E+1
  vertex  0.734182E+1 -2.929136E+1 -0.925185E+1
 endloop
endfacet
facet normal -0.705680E+1 -0.000000E+1 -0.559993E+1
 outer loop
  vertex  0.734182E+1 -2.929136E+1 -0.925185E+1
  vertex  0.386314E+1 -2.659359E+1 -0.486817E+1
  vertex  0.450117E+1 -2.547860E+1 -0.567219E+1
 endloop
endfacet
facet normal -0.701721E+1  0.000000E+0 -0.556852E+1
 outer loop
  vertex  0.734182E+1 -2.929136E+1 -0.925185E+1
  vertex  0.450117E+1 -2.547860E+1 -0.567219E+1
  vertex  0.501642E+1 -2.420988E+1 -0.632149E+1
 endloop
endfacet
facet normal  0.000000E+0  0.257763E+2  -0.000000E+0
 outer loop
  vertex  0.204258E+2 -1.984259E+1 -1.696256E+1
  vertex  0.233625E+2 -1.984259E+1 -2.066330E+1
  vertex  0.161520E+2 -1.984259E+1 -2.035406E+1
 endloop
endfacet
facet normal  0.000000E+0  0.257763E+2  0.000000E+0
 outer loop
  vertex  0.161520E+2 -1.984259E+1 -2.035406E+1
  vertex  0.233625E+2 -1.984259E+1 -2.066330E+1
  vertex  0.190887E+2 -1.984259E+1 -2.405480E+1
 endloop
endfacet
facet normal  0.160228E+2  0.000000E+0 -2.019124E+1
 outer loop
  vertex  0.204258E+2 -1.511820E+1 -1.696256E+1
  vertex  0.204258E+2 -1.984259E+1 -1.696256E+1
  vertex  0.161520E+2 -1.511820E+1 -2.035406E+1
 endloop
endfacet
facet normal  0.160228E+2  0.000000E+0 -2.019124E+1
 outer loop
  vertex  0.161520E+2 -1.511820E+1 -2.035406E+1
  vertex  0.204258E+2 -1.984259E+1 -1.696256E+1
  vertex  0.161520E+2 -1.984259E+1 -2.035406E+1
 endloop
endfacet
facet normal  0.000000E+0  0.257762E+2  -0.000000E+0
 outer loop
  vertex  0.174891E+2 -1.511820E+1 -1.326182E+1
  vertex  0.204258E+2 -1.511820E+1 -1.696256E+1
  vertex  0.132153E+2 -1.511820E+1 -1.665333E+1
 endloop
endfacet
facet normal  0.000000E+0  0.257762E+2  0.000000E+0
 outer loop
  vertex  0.132153E+2 -1.511820E+1 -1.665333E+1
  vertex  0.204258E+2 -1.511820E+1 -1.696256E+1
  vertex  0.161520E+2 -1.511820E+1 -2.035406E+1
 endloop
endfacet
facet normal  0.160228E+2  0.000000E+0 -2.019124E+1
 outer loop
  vertex  0.174891E+2 -1.039382E+1 -1.326182E+1
  vertex  0.174891E+2 -1.511820E+1 -1.326182E+1
  vertex  0.132153E+2 -1.039382E+1 -1.665333E+1
 endloop
endfacet
facet normal  0.160228E+2  0.000000E+0 -2.019124E+1
 outer loop
  vertex  0.132153E+2 -1.039382E+1 -1.665333E+1
  vertex  0.174891E+2 -1.511820E+1 -1.326182E+1
  vertex  0.132153E+2 -1.511820E+1 -1.665333E+1
 endloop
endfacet
facet normal  0.000000E+0  0.515525E+2  -0.000000E+0
 outer loop
  vertex  0.116156E+2 -1.039382E+1 -0.586035E+1
  vertex  0.174891E+2 -1.039382E+1 -1.326182E+1
  vertex  0.734182E+1 -1.039382E+1 -0.925185E+1
 endloop
endfacet
facet normal  0.000000E+0  0.515525E+2  0.000000E+0
 outer loop
  vertex  0.734182E+1 -1.039382E+1 -0.925185E+1
  vertex  0.174891E+2 -1.039382E+1 -1.326182E+1
  vertex  0.132153E+2 -1.039382E+1 -1.665333E+1
 endloop
endfacet
facet normal  0.160237E+2  0.000000E+0 -2.019238E+1
 outer loop
  vertex  0.116156E+2 -0.566916E+1 -0.586035E+1
  vertex  0.116156E+2 -1.039382E+1 -0.586035E+1
  vertex  0.734182E+1 -0.566916E+1 -0.925185E+1
 endloop
endfacet
facet normal  0.160237E+2  0.000000E+0 -2.019238E+1
 outer loop
  vertex  0.734182E+1 -0.566916E+1 -0.925185E+1
  vertex  0.116156E+2 -1.039382E+1 -0.586035E+1
  vertex  0.734182E+1 -1.039382E+1 -0.925185E+1
 endloop
endfacet
facet normal  0.000000E+0 -2.577622E+1  0.000000E+0
 outer loop
  vertex  0.145524E+2 -0.566916E+1 -0.956108E+1
  vertex  0.116156E+2 -0.566916E+1 -0.586035E+1
  vertex  0.102785E+2 -0.566916E+1 -1.295259E+1
 endloop
endfacet
facet normal  0.000000E+0 -2.577622E+1  -0.000000E+0
 outer loop
  vertex  0.102785E+2 -0.566916E+1 -1.295259E+1
  vertex  0.116156E+2 -0.566916E+1 -0.586035E+1
  vertex  0.734182E+1 -0.566916E+1 -0.925185E+1
 endloop
endfacet
facet normal  0.160228E+2  0.000000E+0 -2.019125E+1
 outer loop
  vertex  0.145524E+2 -0.094477E+1 -0.956108E+1
  vertex  0.145524E+2 -0.566916E+1 -0.956108E+1
  vertex  0.102785E+2 -0.094477E+1 -1.295259E+1
 endloop
endfacet
facet normal  0.160228E+2  0.000000E+0 -2.019125E+1
 outer loop
  vertex  0.102785E+2 -0.094477E+1 -1.295259E+1
  vertex  0.145524E+2 -0.566916E+1 -0.956108E+1
  vertex  0.102785E+2 -0.566916E+1 -1.295259E+1
 endloop
endfacet
facet normal  0.000000E+0 -2.577627E+1  0.000000E+0
 outer loop
  vertex  0.174891E+2 -0.094477E+1 -1.326182E+1
  vertex  0.145524E+2 -0.094477E+1 -0.956108E+1
  vertex  0.132153E+2 -0.094477E+1 -1.665333E+1
 endloop
endfacet
facet normal  0.000000E+0 -2.577626E+1  -0.000000E+0
 outer loop
  vertex  0.132153E+2 -0.094477E+1 -1.665333E+1
  vertex  0.145524E+2 -0.094477E+1 -0.956108E+1
  vertex  0.102785E+2 -0.094477E+1 -1.295259E+1
 endloop
endfacet
facet normal  0.160228E+2  0.000000E+0 -2.019121E+1
 outer loop
  vertex  0.174891E+2  0.377961E+1 -1.326182E+1
  vertex  0.174891E+2 -0.094477E+1 -1.326182E+1
  vertex  0.132153E+2  0.377961E+1 -1.665333E+1
 endloop
endfacet
facet normal  0.160228E+2  0.000000E+0 -2.019121E+1
 outer loop
  vertex  0.132153E+2  0.377961E+1 -1.665333E+1
  vertex  0.174891E+2 -0.094477E+1 -1.326182E+1
  vertex  0.132153E+2 -0.094477E+1 -1.665333E+1
 endloop
endfacet
facet normal  0.000000E+0  0.386644E+2  -0.000000E+0
 outer loop
  vertex  0.130840E+2  0.377961E+1 -0.771071E+1
  vertex  0.174891E+2  0.377961E+1 -1.326182E+1
  vertex  0.881018E+1  0.377961E+1 -1.110222E+1
 endloop
endfacet
facet normal  0.000000E+0  0.386644E+2  0.000000E+0
 outer loop
  vertex  0.881018E+1  0.377961E+1 -1.110222E+1
  vertex  0.174891E+2  0.377961E+1 -1.326182E+1
  vertex  0.132153E+2  0.377961E+1 -1.665333E+1
 endloop
endfacet
facet normal -1.602276E+1  0.000000E+0  0.201912E+2
 outer loop
  vertex  0.130840E+2 -0.094477E+1 -0.771071E+1
  vertex  0.130840E+2  0.377961E+1 -0.771071E+1
  vertex  0.881018E+1 -0.094477E+1 -1.110222E+1
 endloop
endfacet
facet normal -1.602276E+1  0.000000E+0  0.201912E+2
 outer loop
  vertex  0.881018E+1 -0.094477E+1 -1.110222E+1
  vertex  0.130840E+2  0.377961E+1 -0.771071E+1
  vertex  0.881018E+1  0.377961E+1 -1.110222E+1
 endloop
endfacet
facet normal  0.000000E+0  0.386644E+2  -0.000000E+0
 outer loop
  vertex  0.867892E+1 -0.094477E+1 -0.215960E+1
  vertex  0.130840E+2 -0.094477E+1 -0.771071E+1
  vertex  0.440509E+1 -0.094477E+1 -0.555111E+1
 endloop
endfacet
facet normal  0.000000E+0  0.386644E+2  0.000000E+0
 outer loop
  vertex  0.440509E+1 -0.094477E+1 -0.555111E+1
  vertex  0.130840E+2 -0.094477E+1 -0.771071E+1
  vertex  0.881018E+1 -0.094477E+1 -1.110222E+1
 endloop
endfacet
facet normal -3.204648E+1  0.000000E+0  0.403836E+2
 outer loop
  vertex  0.867892E+1 -1.039382E+1 -0.215960E+1
  vertex  0.867892E+1 -0.094477E+1 -0.215960E+1
  vertex  0.440509E+1 -1.039382E+1 -0.555111E+1
 endloop
endfacet
facet normal -3.204648E+1  0.000000E+0  0.403836E+2
 outer loop
  vertex  0.440509E+1 -1.039382E+1 -0.555111E+1
  vertex  0.867892E+1 -0.094477E+1 -0.215960E+1
  vertex  0.440509E+1 -0.094477E+1 -0.555111E+1
 endloop
endfacet
facet normal  0.000000E+0  0.773287E+2  -0.000000E+0
 outer loop
  vertex -0.013126E+1 -1.039382E+1  0.894261E+1
  vertex  0.867892E+1 -1.039382E+1 -0.215960E+1
  vertex -0.440509E+1 -1.039382E+1  0.555111E+1
 endloop
endfacet
facet normal  0.000000E+0  0.773288E+2  0.000000E+0
 outer loop
  vertex -0.440509E+1 -1.039382E+1  0.555111E+1
  vertex  0.867892E+1 -1.039382E+1 -0.215960E+1
  vertex  0.440509E+1 -1.039382E+1 -0.555111E+1
 endloop
endfacet
facet normal  0.320465E+2  0.000000E+0 -4.038363E+1
 outer loop
  vertex -0.013126E+1 -0.094477E+1  0.894261E+1
  vertex -0.013126E+1 -1.039382E+1  0.894261E+1
  vertex -0.440509E+1 -0.094477E+1  0.555111E+1
 endloop
endfacet
facet normal  0.320465E+2  0.000000E+0 -4.038363E+1
 outer loop
  vertex -0.440509E+1 -0.094477E+1  0.555111E+1
  vertex -0.013126E+1 -1.039382E+1  0.894261E+1
  vertex -0.440509E+1 -1.039382E+1  0.555111E+1
 endloop
endfacet
facet normal  0.000000E+0  0.386644E+2  -0.000000E+0
 outer loop
  vertex -0.453635E+1 -0.094477E+1  0.144937E+2
  vertex -0.013126E+1 -0.094477E+1  0.894261E+1
  vertex -0.881018E+1 -0.094477E+1  0.111022E+2
 endloop
endfacet
facet normal  0.000000E+0  0.386644E+2  0.000000E+0
 outer loop
  vertex -0.881018E+1 -0.094477E+1  0.111022E+2
  vertex -0.013126E+1 -0.094477E+1  0.894261E+1
  vertex -0.440509E+1 -0.094477E+1  0.555111E+1
 endloop
endfacet
facet normal  0.160228E+2  0.000000E+0 -2.019120E+1
 outer loop
  vertex -0.453635E+1  0.377961E+1  0.144937E+2
  vertex -0.453635E+1 -0.094477E+1  0.144937E+2
  vertex -0.881018E+1  0.377961E+1  0.111022E+2
 endloop
endfacet
facet normal  0.160228E+2  0.000000E+0 -2.019120E+1
 outer loop
  vertex -0.881018E+1  0.377961E+1  0.111022E+2
  vertex -0.453635E+1 -0.094477E+1  0.144937E+2
  vertex -0.881018E+1 -0.094477E+1  0.111022E+2
 endloop
endfacet
facet normal  0.000000E+0  0.386644E+2  -0.000000E+0
 outer loop
  vertex -0.894143E+1  0.377961E+1  0.200448E+2
  vertex -0.453635E+1  0.377961E+1  0.144937E+2
  vertex -1.321527E+1  0.377961E+1  0.166533E+2
 endloop
endfacet
facet normal  0.000000E+0  0.386644E+2  0.000000E+0
 outer loop
  vertex -1.321527E+1  0.377961E+1  0.166533E+2
  vertex -0.453635E+1  0.377961E+1  0.144937E+2
  vertex -0.881018E+1  0.377961E+1  0.111022E+2
 endloop
endfacet
facet normal -1.602276E+1  0.000000E+0  0.201912E+2
 outer loop
  vertex -0.894143E+1 -0.094477E+1  0.200448E+2
  vertex -0.894143E+1  0.377961E+1  0.200448E+2
  vertex -1.321527E+1 -0.094477E+1  0.166533E+2
 endloop
endfacet
facet normal -1.602276E+1  0.000000E+0  0.201912E+2
 outer loop
  vertex -1.321527E+1 -0.094477E+1  0.166533E+2
  vertex -0.894143E+1  0.377961E+1  0.200448E+2
  vertex -1.321527E+1  0.377961E+1  0.166533E+2
 endloop
endfacet
facet normal  0.000000E+0 -2.577626E+1  0.000000E+0
 outer loop
  vertex -0.600471E+1 -0.094477E+1  0.163441E+2
  vertex -0.894143E+1 -0.094477E+1  0.200448E+2
  vertex -1.027854E+1 -0.094477E+1  0.129526E+2
 endloop
endfacet
facet normal  0.000000E+0 -2.577626E+1  -0.000000E+0
 outer loop
  vertex -1.027854E+1 -0.094477E+1  0.129526E+2
  vertex -0.894143E+1 -0.094477E+1  0.200448E+2
  vertex -1.321527E+1 -0.094477E+1  0.166533E+2
 endloop
endfacet
facet normal -1.602279E+1  0.000000E+0  0.201912E+2
 outer loop
  vertex -0.600471E+1 -0.566916E+1  0.163441E+2
  vertex -0.600471E+1 -0.094477E+1  0.163441E+2
  vertex -1.027854E+1 -0.566916E+1  0.129526E+2
 endloop
endfacet
facet normal -1.602279E+1  0.000000E+0  0.201912E+2
 outer loop
  vertex -1.027854E+1 -0.566916E+1  0.129526E+2
  vertex -0.600471E+1 -0.094477E+1  0.163441E+2
  vertex -1.027854E+1 -0.094477E+1  0.129526E+2
 endloop
endfacet
facet normal  0.000000E+0 -2.577622E+1  0.000000E+0
 outer loop
  vertex -0.306799E+1 -0.566916E+1  0.126434E+2
  vertex -0.600471E+1 -0.566916E+1  0.163441E+2
  vertex -0.734182E+1 -0.566916E+1  0.925185E+1
 endloop
endfacet
facet normal  0.000000E+0 -2.577622E+1  -0.000000E+0
 outer loop
  vertex -0.734182E+1 -0.566916E+1  0.925185E+1
  vertex -0.600471E+1 -0.566916E+1  0.163441E+2
  vertex -1.027854E+1 -0.566916E+1  0.129526E+2
 endloop
endfacet
facet normal -1.602369E+1  0.000000E+0  0.201924E+2
 outer loop
  vertex -0.306799E+1 -1.039382E+1  0.126434E+2
  vertex -0.306799E+1 -0.566916E+1  0.126434E+2
  vertex -0.734182E+1 -1.039382E+1  0.925185E+1
 endloop
endfacet
facet normal -1.602369E+1  0.000000E+0  0.201924E+2
 outer loop
  vertex -0.734182E+1 -1.039382E+1  0.925185E+1
  vertex -0.306799E+1 -0.566916E+1  0.126434E+2
  vertex -0.734182E+1 -0.566916E+1  0.925185E+1
 endloop
endfacet
facet normal  0.000000E+0  0.515525E+2  -0.000000E+0
 outer loop
  vertex -0.894143E+1 -1.039382E+1  0.200448E+2
  vertex -0.306799E+1 -1.039382E+1  0.126434E+2
  vertex -1.321527E+1 -1.039382E+1  0.166533E+2
 endloop
endfacet
facet normal  0.000000E+0  0.515525E+2  0.000000E+0
 outer loop
  vertex -1.321527E+1 -1.039382E+1  0.166533E+2
  vertex -0.306799E+1 -1.039382E+1  0.126434E+2
  vertex -0.734182E+1 -1.039382E+1  0.925185E+1
 endloop
endfacet
facet normal -1.602278E+1  0.000000E+0  0.201912E+2
 outer loop
  vertex -0.894143E+1 -1.511820E+1  0.200448E+2
  vertex -0.894143E+1 -1.039382E+1  0.200448E+2
  vertex -1.321527E+1 -1.511820E+1  0.166533E+2
 endloop
endfacet
facet normal -1.602278E+1  0.000000E+0  0.201912E+2
 outer loop
  vertex -1.321527E+1 -1.511820E+1  0.166533E+2
  vertex -0.894143E+1 -1.039382E+1  0.200448E+2
  vertex -1.321527E+1 -1.039382E+1  0.166533E+2
 endloop
endfacet
facet normal  0.000000E+0  0.257762E+2  -0.000000E+0
 outer loop
  vertex -1.187816E+1 -1.511820E+1  0.237456E+2
  vertex -0.894143E+1 -1.511820E+1  0.200448E+2
  vertex -1.615199E+1 -1.511820E+1  0.203541E+2
 endloop
endfacet
facet normal  0.000000E+0  0.257762E+2  0.000000E+0
 outer loop
  vertex -1.615199E+1 -1.511820E+1  0.203541E+2
  vertex -0.894143E+1 -1.511820E+1  0.200448E+2
  vertex -1.321527E+1 -1.511820E+1  0.166533E+2
 endloop
endfacet
facet normal -1.602278E+1  0.000000E+0  0.201912E+2
 outer loop
  vertex -1.187816E+1 -1.984259E+1  0.237456E+2
  vertex -1.187816E+1 -1.511820E+1  0.237456E+2
  vertex -1.615199E+1 -1.984259E+1  0.203541E+2
 endloop
endfacet
facet normal -1.602278E+1  0.000000E+0  0.201912E+2
 outer loop
  vertex -1.615199E+1 -1.984259E+1  0.203541E+2
  vertex -1.187816E+1 -1.511820E+1  0.237456E+2
  vertex -1.615199E+1 -1.511820E+1  0.203541E+2
 endloop
endfacet
facet normal  0.000000E+0  0.257763E+2  -0.000000E+0
 outer loop
  vertex -1.481488E+1 -1.984259E+1  0.274463E+2
  vertex -1.187816E+1 -1.984259E+1  0.237456E+2
  vertex -1.908872E+1 -1.984259E+1  0.240548E+2
 endloop
endfacet
facet normal  0.000000E+0  0.257763E+2  0.000000E+0
 outer loop
  vertex -1.908872E+1 -1.984259E+1  0.240548E+2
  vertex -1.187816E+1 -1.984259E+1  0.237456E+2
  vertex -1.615199E+1 -1.984259E+1  0.203541E+2
 endloop
endfacet
facet normal -4.806833E+1  0.000000E+0  0.605737E+2
 outer loop
  vertex -1.481488E+1 -3.401575E+1  0.274463E+2
  vertex -1.481488E+1 -1.984259E+1  0.274463E+2
  vertex -1.908872E+1 -3.401575E+1  0.240548E+2
 endloop
endfacet
facet normal -4.806833E+1  0.000000E+0  0.605737E+2
 outer loop
  vertex -1.908872E+1 -3.401575E+1  0.240548E+2
  vertex -1.481488E+1 -1.984259E+1  0.274463E+2
  vertex -1.908872E+1 -1.984259E+1  0.240548E+2
 endloop
endfacet
facet normal  0.000000E+0 -2.577629E+1  0.000000E+0
 outer loop
  vertex -1.187816E+1 -3.401575E+1  0.237456E+2
  vertex -1.481488E+1 -3.401575E+1  0.274463E+2
  vertex -1.615199E+1 -3.401575E+1  0.203541E+2
 endloop
endfacet
facet normal  0.000000E+0 -2.577629E+1  -0.000000E+0
 outer loop
  vertex -1.615199E+1 -3.401575E+1  0.203541E+2
  vertex -1.481488E+1 -3.401575E+1  0.274463E+2
  vertex -1.908872E+1 -3.401575E+1  0.240548E+2
 endloop
endfacet
facet normal  0.320456E+2  0.000000E+0 -4.038246E+1
 outer loop
  vertex -1.187816E+1 -2.456697E+1  0.237456E+2
  vertex -1.187816E+1 -3.401575E+1  0.237456E+2
  vertex -1.615199E+1 -2.456697E+1  0.203541E+2
 endloop
endfacet
facet normal  0.320456E+2  0.000000E+0 -4.038246E+1
 outer loop
  vertex -1.615199E+1 -2.456697E+1  0.203541E+2
  vertex -1.187816E+1 -3.401575E+1  0.237456E+2
  vertex -1.615199E+1 -3.401575E+1  0.203541E+2
 endloop
endfacet
facet normal  0.000000E+0 -2.577621E+1  0.000000E+0
 outer loop
  vertex -0.894143E+1 -2.456697E+1  0.200448E+2
  vertex -1.187816E+1 -2.456697E+1  0.237456E+2
  vertex -1.321527E+1 -2.456697E+1  0.166533E+2
 endloop
endfacet
facet normal  0.000000E+0 -2.577621E+1  -0.000000E+0
 outer loop
  vertex -1.321527E+1 -2.456697E+1  0.166533E+2
  vertex -1.187816E+1 -2.456697E+1  0.237456E+2
  vertex -1.615199E+1 -2.456697E+1  0.203541E+2
 endloop
endfacet
facet normal -3.204555E+1  0.000000E+0  0.403825E+2
 outer loop
  vertex -0.894143E+1 -3.401575E+1  0.200448E+2
  vertex -0.894143E+1 -2.456697E+1  0.200448E+2
  vertex -1.321527E+1 -3.401575E+1  0.166533E+2
 endloop
endfacet
facet normal -3.204555E+1  0.000000E+0  0.403825E+2
 outer loop
  vertex -1.321527E+1 -3.401575E+1  0.166533E+2
  vertex -0.894143E+1 -2.456697E+1  0.200448E+2
  vertex -1.321527E+1 -2.456697E+1  0.166533E+2
 endloop
endfacet
facet normal  0.000000E+0 -2.577626E+1  0.000000E+0
 outer loop
  vertex -0.600471E+1 -3.401575E+1  0.163441E+2
  vertex -0.894143E+1 -3.401575E+1  0.200448E+2
  vertex -1.027854E+1 -3.401575E+1  0.129526E+2
 endloop
endfacet
facet normal  0.000000E+0 -2.577626E+1  -0.000000E+0
 outer loop
  vertex -1.027854E+1 -3.401575E+1  0.129526E+2
  vertex -0.894143E+1 -3.401575E+1  0.200448E+2
  vertex -1.321527E+1 -3.401575E+1  0.166533E+2
 endloop
endfacet
facet normal -1.602276E+1  0.000000E+0  0.201912E+2
 outer loop
  vertex -0.600471E+1 -3.874013E+1  0.163441E+2
  vertex -0.600471E+1 -3.401575E+1  0.163441E+2
  vertex -1.027854E+1 -3.874013E+1  0.129526E+2
 endloop
endfacet
facet normal -1.602276E+1  0.000000E+0  0.201912E+2
 outer loop
  vertex -1.027854E+1 -3.874013E+1  0.129526E+2
  vertex -0.600471E+1 -3.401575E+1  0.163441E+2
  vertex -1.027854E+1 -3.401575E+1  0.129526E+2
 endloop
endfacet
facet normal  0.000000E+0 -7.732875E+1  0.000000E+0
 outer loop
  vertex  0.280547E+1 -3.874013E+1  0.524187E+1
  vertex -0.600471E+1 -3.874013E+1  0.163441E+2
  vertex -0.146836E+1 -3.874013E+1  0.185037E+1
 endloop
endfacet
facet normal  0.000000E+0 -7.732875E+1  0.000000E+0
 outer loop
  vertex -0.146836E+1 -3.874013E+1  0.185037E+1
  vertex -0.600471E+1 -3.874013E+1  0.163441E+2
  vertex -1.027854E+1 -3.874013E+1  0.129526E+2
 endloop
endfacet
facet normal  0.160228E+2  0.000000E+0 -2.019121E+1
 outer loop
  vertex  0.280547E+1 -3.401575E+1  0.524187E+1
  vertex  0.280547E+1 -3.874013E+1  0.524187E+1
  vertex -0.146836E+1 -3.401575E+1  0.185037E+1
 endloop
endfacet
facet normal  0.160228E+2  0.000000E+0 -2.019121E+1
 outer loop
  vertex -0.146836E+1 -3.401575E+1  0.185037E+1
  vertex  0.280547E+1 -3.874013E+1  0.524187E+1
  vertex -0.146836E+1 -3.874013E+1  0.185037E+1
 endloop
endfacet
facet normal  0.000000E+0  0.515525E+2  -0.000000E+0
 outer loop
  vertex -0.306799E+1 -3.401575E+1  0.126434E+2
  vertex  0.280547E+1 -3.401575E+1  0.524187E+1
  vertex -0.734182E+1 -3.401575E+1  0.925185E+1
 endloop
endfacet
facet normal  0.000000E+0  0.515525E+2  0.000000E+0
 outer loop
  vertex -0.734182E+1 -3.401575E+1  0.925185E+1
  vertex  0.280547E+1 -3.401575E+1  0.524187E+1
  vertex -0.146836E+1 -3.401575E+1  0.185037E+1
 endloop
endfacet
facet normal  0.160228E+2  0.000000E+0 -2.019124E+1
 outer loop
  vertex -0.306799E+1 -2.929136E+1  0.126434E+2
  vertex -0.306799E+1 -3.401575E+1  0.126434E+2
  vertex -0.734182E+1 -2.929136E+1  0.925185E+1
 endloop
endfacet
facet normal  0.160228E+2  0.000000E+0 -2.019124E+1
 outer loop
  vertex -0.734182E+1 -2.929136E+1  0.925185E+1
  vertex -0.306799E+1 -3.401575E+1  0.126434E+2
  vertex -0.734182E+1 -3.401575E+1  0.925185E+1
 endloop
endfacet
facet normal  0.000000E+0 -12.888130E+1  0.000000E+0
 outer loop
  vertex  0.116156E+2 -2.929136E+1 -0.586035E+1
  vertex -0.306799E+1 -2.929136E+1  0.126434E+2
  vertex  0.734182E+1 -2.929136E+1 -0.925185E+1
 endloop
endfacet
facet normal  0.000000E+0 -12.888130E+1  0.000000E+0
 outer loop
  vertex  0.734182E+1 -2.929136E+1 -0.925185E+1
  vertex -0.306799E+1 -2.929136E+1  0.126434E+2
  vertex -0.734182E+1 -2.929136E+1  0.925185E+1
 endloop
endfacet
facet normal -1.602278E+1  0.000000E+0  0.201912E+2
 outer loop
  vertex  0.116156E+2 -3.401575E+1 -0.586035E+1
  vertex  0.116156E+2 -2.929136E+1 -0.586035E+1
  vertex  0.734182E+1 -3.401575E+1 -0.925185E+1
 endloop
endfacet
facet normal -1.602278E+1  0.000000E+0  0.201912E+2
 outer loop
  vertex  0.734182E+1 -3.401575E+1 -0.925185E+1
  vertex  0.116156E+2 -2.929136E+1 -0.586035E+1
  vertex  0.734182E+1 -2.929136E+1 -0.925185E+1
 endloop
endfacet
facet normal  0.000000E+0  0.515525E+2  -0.000000E+0
 outer loop
  vertex  0.574220E+1 -3.401575E+1  0.154113E+1
  vertex  0.116156E+2 -3.401575E+1 -0.586035E+1
  vertex  0.146836E+1 -3.401575E+1 -0.185037E+1
 endloop
endfacet
facet normal  0.000000E+0  0.515525E+2  0.000000E+0
 outer loop
  vertex  0.146836E+1 -3.401575E+1 -0.185037E+1
  vertex  0.116156E+2 -3.401575E+1 -0.586035E+1
  vertex  0.734182E+1 -3.401575E+1 -0.925185E+1
 endloop
endfacet
facet normal -1.602275E+1  0.000000E+0  0.201912E+2
 outer loop
  vertex  0.574220E+1 -3.874013E+1  0.154113E+1
  vertex  0.574220E+1 -3.401575E+1  0.154113E+1
  vertex  0.146836E+1 -3.874013E+1 -0.185037E+1
 endloop
endfacet
facet normal -1.602275E+1  0.000000E+0  0.201912E+2
 outer loop
  vertex  0.146836E+1 -3.874013E+1 -0.185037E+1
  vertex  0.574220E+1 -3.401575E+1  0.154113E+1
  vertex  0.146836E+1 -3.401575E+1 -0.185037E+1
 endloop
endfacet
facet normal  0.000000E+0 -7.732873E+1  0.000000E+0
 outer loop
  vertex  0.145524E+2 -3.874013E+1 -0.956108E+1
  vertex  0.574220E+1 -3.874013E+1  0.154113E+1
  vertex  0.102785E+2 -3.874013E+1 -1.295259E+1
 endloop
endfacet
facet normal  0.000000E+0 -7.732873E+1  0.000000E+0
 outer loop
  vertex  0.102785E+2 -3.874013E+1 -1.295259E+1
  vertex  0.574220E+1 -3.874013E+1  0.154113E+1
  vertex  0.146836E+1 -3.874013E+1 -0.185037E+1
 endloop
endfacet
facet normal  0.160228E+2  0.000000E+0 -2.019121E+1
 outer loop
  vertex  0.145524E+2 -3.401575E+1 -0.956108E+1
  vertex  0.145524E+2 -3.874013E+1 -0.956108E+1
  vertex  0.102785E+2 -3.401575E+1 -1.295259E+1
 endloop
endfacet
facet normal  0.160228E+2  0.000000E+0 -2.019121E+1
 outer loop
  vertex  0.102785E+2 -3.401575E+1 -1.295259E+1
  vertex  0.145524E+2 -3.874013E+1 -0.956108E+1
  vertex  0.102785E+2 -3.874013E+1 -1.295259E+1
 endloop
endfacet
facet normal  0.000000E+0 -2.577627E+1  0.000000E+0
 outer loop
  vertex  0.174891E+2 -3.401575E+1 -1.326182E+1
  vertex  0.145524E+2 -3.401575E+1 -0.956108E+1
  vertex  0.132153E+2 -3.401575E+1 -1.665333E+1
 endloop
endfacet
facet normal  0.000000E+0 -2.577626E+1  -0.000000E+0
 outer loop
  vertex  0.132153E+2 -3.401575E+1 -1.665333E+1
  vertex  0.145524E+2 -3.401575E+1 -0.956108E+1
  vertex  0.102785E+2 -3.401575E+1 -1.295259E+1
 endloop
endfacet
facet normal  0.320456E+2  0.000000E+0 -4.038247E+1
 outer loop
  vertex  0.174891E+2 -2.456697E+1 -1.326182E+1
  vertex  0.174891E+2 -3.401575E+1 -1.326182E+1
  vertex  0.132153E+2 -2.456697E+1 -1.665333E+1
 endloop
endfacet
facet normal  0.320456E+2  0.000000E+0 -4.038247E+1
 outer loop
  vertex  0.132153E+2 -2.456697E+1 -1.665333E+1
  vertex  0.174891E+2 -3.401575E+1 -1.326182E+1
  vertex  0.132153E+2 -3.401575E+1 -1.665333E+1
 endloop
endfacet
facet normal  0.000000E+0 -2.577622E+1  0.000000E+0
 outer loop
  vertex  0.204258E+2 -2.456697E+1 -1.696256E+1
  vertex  0.174891E+2 -2.456697E+1 -1.326182E+1
  vertex  0.161520E+2 -2.456697E+1 -2.035406E+1
 endloop
endfacet
facet normal  0.000000E+0 -2.577622E+1  -0.000000E+0
 outer loop
  vertex  0.161520E+2 -2.456697E+1 -2.035406E+1
  vertex  0.174891E+2 -2.456697E+1 -1.326182E+1
  vertex  0.132153E+2 -2.456697E+1 -1.665333E+1
 endloop
endfacet
facet normal -3.204554E+1  0.000000E+0  0.403825E+2
 outer loop
  vertex  0.204258E+2 -3.401575E+1 -1.696256E+1
  vertex  0.204258E+2 -2.456697E+1 -1.696256E+1
  vertex  0.161520E+2 -3.401575E+1 -2.035406E+1
 endloop
endfacet
facet normal -3.204554E+1  0.000000E+0  0.403825E+2
 outer loop
  vertex  0.161520E+2 -3.401575E+1 -2.035406E+1
  vertex  0.204258E+2 -2.456697E+1 -1.696256E+1
  vertex  0.161520E+2 -2.456697E+1 -2.035406E+1
 endloop
endfacet
facet normal  0.000000E+0 -2.577628E+1  0.000000E+0
 outer loop
  vertex  0.233625E+2 -3.401575E+1 -2.066330E+1
  vertex  0.204258E+2 -3.401575E+1 -1.696256E+1
  vertex  0.190887E+2 -3.401575E+1 -2.405480E+1
 endloop
endfacet
facet normal  0.000000E+0 -2.577629E+1  -0.000000E+0
 outer loop
  vertex  0.190887E+2 -3.401575E+1 -2.405480E+1
  vertex  0.204258E+2 -3.401575E+1 -1.696256E+1
  vertex  0.161520E+2 -3.401575E+1 -2.035406E+1
 endloop
endfacet
facet normal  0.480683E+2  0.000000E+0 -6.057370E+1
 outer loop
  vertex  0.233625E+2 -1.984259E+1 -2.066330E+1
  vertex  0.233625E+2 -3.401575E+1 -2.066330E+1
  vertex  0.190887E+2 -1.984259E+1 -2.405480E+1
 endloop
endfacet
facet normal  0.480683E+2  0.000000E+0 -6.057370E+1
 outer loop
  vertex  0.190887E+2 -1.984259E+1 -2.405480E+1
  vertex  0.233625E+2 -3.401575E+1 -2.066330E+1
  vertex  0.190887E+2 -3.401575E+1 -2.405480E+1
 endloop
endfacet
facet normal  0.000000E+0 -0.154703E+1  -0.000000E+0
 outer loop
  vertex -0.168538E+1 -1.511820E+1  0.770934E+1
  vertex -0.013126E+1 -1.511820E+1  0.894261E+1
  vertex -0.217008E+1 -1.511820E+1  0.832014E+1
 endloop
endfacet
facet normal  0.000000E+0 -0.937319E+1  -0.000000E+0
 outer loop
  vertex -0.217008E+1 -1.511820E+1  0.832014E+1
  vertex -0.013126E+1 -1.511820E+1  0.894261E+1
  vertex -0.306799E+1 -1.511820E+1  0.126434E+2
 endloop
endfacet
facet normal  0.000000E+0 -1.369579E+1  0.000000E+0
 outer loop
  vertex -0.217008E+1 -1.511820E+1  0.832014E+1
  vertex -0.306799E+1 -1.511820E+1  0.126434E+2
  vertex -0.488979E+1 -1.511820E+1  0.616191E+1
 endloop
endfacet
facet normal  0.000000E+0 -2.152196E+1  -0.000000E+0
 outer loop
  vertex -0.488979E+1 -1.511820E+1  0.616191E+1
  vertex -0.306799E+1 -1.511820E+1  0.126434E+2
  vertex -0.734182E+1 -1.511820E+1  0.925185E+1
 endloop
endfacet
facet normal  0.160228E+2  0.000000E+0 -2.019123E+1
 outer loop
  vertex -0.306799E+1 -1.511820E+1  0.126434E+2
  vertex -0.306799E+1 -1.984259E+1  0.126434E+2
  vertex -0.734182E+1 -1.511820E+1  0.925185E+1
 endloop
endfacet
facet normal  0.160228E+2  0.000000E+0 -2.019123E+1
 outer loop
  vertex -0.734182E+1 -1.511820E+1  0.925185E+1
  vertex -0.306799E+1 -1.984259E+1  0.126434E+2
  vertex -0.734182E+1 -1.984259E+1  0.925185E+1
 endloop
endfacet
facet normal  0.000000E+0  0.914862E+1  0.000000E+0
 outer loop
  vertex -0.570389E+1 -1.984259E+1  0.718781E+1
  vertex -0.734182E+1 -1.984259E+1  0.925185E+1
  vertex -0.298418E+1 -1.984259E+1  0.934604E+1
 endloop
endfacet
facet normal  -0.000000E+0  0.143764E+2  0.000000E+0
 outer loop
  vertex -0.298418E+1 -1.984259E+1  0.934604E+1
  vertex -0.734182E+1 -1.984259E+1  0.925185E+1
  vertex -0.306799E+1 -1.984259E+1  0.126434E+2
 endloop
endfacet
facet normal  0.000000E+0  0.414541E+1  0.000000E+0
 outer loop
  vertex -0.298418E+1 -1.984259E+1  0.934604E+1
  vertex -0.306799E+1 -1.984259E+1  0.126434E+2
  vertex -0.168538E+1 -1.984259E+1  0.770934E+1
 endloop
endfacet
facet normal  0.000000E+0  0.937319E+1  0.000000E+0
 outer loop
  vertex -0.168538E+1 -1.984259E+1  0.770934E+1
  vertex -0.306799E+1 -1.984259E+1  0.126434E+2
  vertex -0.013126E+1 -1.984259E+1  0.894261E+1
 endloop
endfacet
facet normal -1.602278E+1  0.000000E+0  0.201912E+2
 outer loop
  vertex  0.116156E+2 -1.984259E+1 -0.586035E+1
  vertex  0.116156E+2 -1.511820E+1 -0.586035E+1
  vertex  0.734182E+1 -1.984259E+1 -0.925185E+1
 endloop
endfacet
facet normal -1.602278E+1  0.000000E+0  0.201912E+2
 outer loop
  vertex  0.734182E+1 -1.984259E+1 -0.925185E+1
  vertex  0.116156E+2 -1.511820E+1 -0.586035E+1
  vertex  0.734182E+1 -1.511820E+1 -0.925185E+1
 endloop
endfacet
facet normal  -0.000000E+0 -1.369578E+1  0.000000E+0
 outer loop
  vertex  0.488979E+1 -1.511820E+1 -0.616191E+1
  vertex  0.734182E+1 -1.511820E+1 -0.925185E+1
  vertex  0.760950E+1 -1.511820E+1 -0.400368E+1
 endloop
endfacet
facet normal  0.000000E+0 -2.152194E+1  0.000000E+0
 outer loop
  vertex  0.760950E+1 -1.511820E+1 -0.400368E+1
  vertex  0.734182E+1 -1.511820E+1 -0.925185E+1
  vertex  0.116156E+2 -1.511820E+1 -0.586035E+1
 endloop
endfacet
facet normal  -0.000000E+0 -0.154703E+1  -0.000000E+0
 outer loop
  vertex  0.760950E+1 -1.511820E+1 -0.400368E+1
  vertex  0.116156E+2 -1.511820E+1 -0.586035E+1
  vertex  0.712480E+1 -1.511820E+1 -0.339288E+1
 endloop
endfacet
facet normal  -0.000000E+0 -0.937319E+1  0.000000E+0
 outer loop
  vertex  0.712480E+1 -1.511820E+1 -0.339288E+1
  vertex  0.116156E+2 -1.511820E+1 -0.586035E+1
  vertex  0.867892E+1 -1.511820E+1 -0.215960E+1
 endloop
endfacet
facet normal  0.000000E+0  0.414541E+1  0.000000E+0
 outer loop
  vertex  0.712480E+1 -1.984259E+1 -0.339288E+1
  vertex  0.867892E+1 -1.984259E+1 -0.215960E+1
  vertex  0.842360E+1 -1.984259E+1 -0.502958E+1
 endloop
endfacet
facet normal  0.000000E+0  0.937319E+1  0.000000E+0
 outer loop
  vertex  0.842360E+1 -1.984259E+1 -0.502958E+1
  vertex  0.867892E+1 -1.984259E+1 -0.215960E+1
  vertex  0.116156E+2 -1.984259E+1 -0.586035E+1
 endloop
endfacet
facet normal  0.000000E+0  0.914862E+1  -0.000000E+0
 outer loop
  vertex  0.842360E+1 -1.984259E+1 -0.502958E+1
  vertex  0.116156E+2 -1.984259E+1 -0.586035E+1
  vertex  0.570389E+1 -1.984259E+1 -0.718781E+1
 endloop
endfacet
facet normal  0.000000E+0  0.143764E+2  0.000000E+0
 outer loop
  vertex  0.570389E+1 -1.984259E+1 -0.718781E+1
  vertex  0.116156E+2 -1.984259E+1 -0.586035E+1
  vertex  0.734182E+1 -1.984259E+1 -0.925185E+1
 endloop
endfacet
facet normal  0.275015E+1 -0.320331E+1 -0.346563E+1
 outer loop
  vertex -0.217008E+1 -1.511820E+1  0.832014E+1
  vertex -0.488979E+1 -1.511820E+1  0.616191E+1
  vertex -0.431628E+1 -1.384394E+1  0.543920E+1
 endloop
endfacet
facet normal  0.275015E+1 -0.320331E+1 -0.346563E+1
 outer loop
  vertex -0.217008E+1 -1.511820E+1  0.832014E+1
  vertex -0.431628E+1 -1.384394E+1  0.543920E+1
  vertex -0.159657E+1 -1.384394E+1  0.759743E+1
 endloop
endfacet
facet normal  0.236960E+1 -0.391197E+1 -0.298607E+1
 outer loop
  vertex -0.159657E+1 -1.384394E+1  0.759743E+1
  vertex -0.431628E+1 -1.384394E+1  0.543920E+1
  vertex -0.361590E+1 -1.274600E+1  0.455661E+1
 endloop
endfacet
facet normal  0.236960E+1 -0.391197E+1 -0.298607E+1
 outer loop
  vertex -0.159657E+1 -1.384394E+1  0.759743E+1
  vertex -0.361590E+1 -1.274600E+1  0.455661E+1
  vertex -0.089619E+1 -1.274600E+1  0.671484E+1
 endloop
endfacet
facet normal  0.191940E+1 -0.450563E+1 -0.241874E+1
 outer loop
  vertex -0.089619E+1 -1.274600E+1  0.671484E+1
  vertex -0.361590E+1 -1.274600E+1  0.455661E+1
  vertex -0.280924E+1 -1.185666E+1  0.354008E+1
 endloop
endfacet
facet normal  0.191940E+1 -0.450564E+1 -0.241874E+1
 outer loop
  vertex -0.089619E+1 -1.274600E+1  0.671484E+1
  vertex -0.280924E+1 -1.185666E+1  0.354008E+1
  vertex -0.008953E+1 -1.185666E+1  0.569831E+1
 endloop
endfacet
facet normal  0.141277E+1 -0.496685E+1 -0.178032E+1
 outer loop
  vertex -0.008953E+1 -1.185666E+1  0.569831E+1
  vertex -0.280924E+1 -1.185666E+1  0.354008E+1
  vertex -0.192000E+1 -1.120207E+1  0.241950E+1
 endloop
endfacet
facet normal  0.141277E+1 -0.496685E+1 -0.178032E+1
 outer loop
  vertex -0.008953E+1 -1.185666E+1  0.569831E+1
  vertex -0.192000E+1 -1.120207E+1  0.241950E+1
  vertex  0.079972E+1 -1.120207E+1  0.457773E+1
 endloop
endfacet
facet normal  0.086463E+1 -0.528208E+1 -0.108957E+1
 outer loop
  vertex  0.079972E+1 -1.120207E+1  0.457773E+1
  vertex -0.192000E+1 -1.120207E+1  0.241950E+1
  vertex -0.097432E+1 -1.080145E+1  0.122779E+1
 endloop
endfacet
facet normal  0.086463E+1 -0.528208E+1 -0.108957E+1
 outer loop
  vertex  0.079972E+1 -1.120207E+1  0.457773E+1
  vertex -0.097432E+1 -1.080145E+1  0.122779E+1
  vertex  0.174539E+1 -1.080145E+1  0.338602E+1
 endloop
endfacet
facet normal  0.029106E+1 -0.544204E+1 -0.036678E+1
 outer loop
  vertex  0.174539E+1 -1.080145E+1  0.338602E+1
  vertex -0.097432E+1 -1.080145E+1  0.122779E+1
  vertex  6.929113E-16 -1.066659E+1  5.498605E-16
 endloop
endfacet
facet normal  0.029106E+1 -0.544204E+1 -0.036678E+1
 outer loop
  vertex  0.174539E+1 -1.080145E+1  0.338602E+1
  vertex  6.929113E-16 -1.066659E+1  5.498605E-16
  vertex  0.271971E+1 -1.066659E+1  0.215823E+1
 endloop
endfacet
facet normal -0.029106E+1 -0.544205E+1  0.036678E+1
 outer loop
  vertex  0.271971E+1 -1.066659E+1  0.215823E+1
  vertex  6.929113E-16 -1.066659E+1  5.498605E-16
  vertex  0.097432E+1 -1.080145E+1 -0.122780E+1
 endloop
endfacet
facet normal -0.029106E+1 -0.544205E+1  0.036678E+1
 outer loop
  vertex  0.271971E+1 -1.066659E+1  0.215823E+1
  vertex  0.097432E+1 -1.080145E+1 -0.122780E+1
  vertex  0.369403E+1 -1.080145E+1  0.093043E+1
 endloop
endfacet
facet normal -0.086463E+1 -0.528208E+1  0.108957E+1
 outer loop
  vertex  0.369403E+1 -1.080145E+1  0.093043E+1
  vertex  0.097432E+1 -1.080145E+1 -0.122780E+1
  vertex  0.192000E+1 -1.120207E+1 -0.241950E+1
 endloop
endfacet
facet normal -0.086463E+1 -0.528208E+1  0.108957E+1
 outer loop
  vertex  0.369403E+1 -1.080145E+1  0.093043E+1
  vertex  0.192000E+1 -1.120207E+1 -0.241950E+1
  vertex  0.463971E+1 -1.120207E+1 -0.026127E+1
 endloop
endfacet
facet normal -0.141277E+1 -0.496685E+1  0.178032E+1
 outer loop
  vertex  0.463971E+1 -1.120207E+1 -0.026127E+1
  vertex  0.192000E+1 -1.120207E+1 -0.241950E+1
  vertex  0.280924E+1 -1.185666E+1 -0.354008E+1
 endloop
endfacet
facet normal -0.141277E+1 -0.496685E+1  0.178032E+1
 outer loop
  vertex  0.463971E+1 -1.120207E+1 -0.026127E+1
  vertex  0.280924E+1 -1.185666E+1 -0.354008E+1
  vertex  0.552895E+1 -1.185666E+1 -0.138185E+1
 endloop
endfacet
facet normal -0.191940E+1 -0.450564E+1  0.241874E+1
 outer loop
  vertex  0.552895E+1 -1.185666E+1 -0.138185E+1
  vertex  0.280924E+1 -1.185666E+1 -0.354008E+1
  vertex  0.361590E+1 -1.274600E+1 -0.455661E+1
 endloop
endfacet
facet normal -0.191940E+1 -0.450564E+1  0.241874E+1
 outer loop
  vertex  0.552895E+1 -1.185666E+1 -0.138185E+1
  vertex  0.361590E+1 -1.274600E+1 -0.455661E+1
  vertex  0.633562E+1 -1.274600E+1 -0.239838E+1
 endloop
endfacet
facet normal -0.236960E+1 -0.391196E+1  0.298607E+1
 outer loop
  vertex  0.633562E+1 -1.274600E+1 -0.239838E+1
  vertex  0.361590E+1 -1.274600E+1 -0.455661E+1
  vertex  0.431628E+1 -1.384394E+1 -0.543920E+1
 endloop
endfacet
facet normal -0.236960E+1 -0.391196E+1  0.298607E+1
 outer loop
  vertex  0.633562E+1 -1.274600E+1 -0.239838E+1
  vertex  0.431628E+1 -1.384394E+1 -0.543920E+1
  vertex  0.703599E+1 -1.384394E+1 -0.328097E+1
 endloop
endfacet
facet normal -0.275015E+1 -0.320333E+1  0.346563E+1
 outer loop
  vertex  0.703599E+1 -1.384394E+1 -0.328097E+1
  vertex  0.431628E+1 -1.384394E+1 -0.543920E+1
  vertex  0.488979E+1 -1.511820E+1 -0.616191E+1
 endloop
endfacet
facet normal -0.275015E+1 -0.320333E+1  0.346563E+1
 outer loop
  vertex  0.703599E+1 -1.384394E+1 -0.328097E+1
  vertex  0.488979E+1 -1.511820E+1 -0.616191E+1
  vertex  0.760950E+1 -1.511820E+1 -0.400368E+1
 endloop
endfacet
facet normal -0.325962E+1  0.043452E+1  0.410763E+1
 outer loop
  vertex  0.842360E+1 -1.984259E+1 -0.502958E+1
  vertex  0.570389E+1 -1.984259E+1 -0.718781E+1
  vertex  0.562610E+1 -2.135291E+1 -0.708977E+1
 endloop
endfacet
facet normal -0.325961E+1  0.043452E+1  0.410763E+1
 outer loop
  vertex  0.842360E+1 -1.984259E+1 -0.502958E+1
  vertex  0.562610E+1 -2.135291E+1 -0.708977E+1
  vertex  0.834581E+1 -2.135291E+1 -0.493154E+1
 endloop
endfacet
facet normal -0.317070E+1  0.129169E+1  0.399559E+1
 outer loop
  vertex  0.834581E+1 -2.135291E+1 -0.493154E+1
  vertex  0.562610E+1 -2.135291E+1 -0.708977E+1
  vertex  0.539484E+1 -2.282203E+1 -0.679835E+1
 endloop
endfacet
facet normal -0.317070E+1  0.129169E+1  0.399559E+1
 outer loop
  vertex  0.834581E+1 -2.135291E+1 -0.493154E+1
  vertex  0.539484E+1 -2.282203E+1 -0.679835E+1
  vertex  0.811455E+1 -2.282203E+1 -0.464012E+1
 endloop
endfacet
facet normal -0.299530E+1  0.211364E+1  0.377456E+1
 outer loop
  vertex  0.811455E+1 -2.282203E+1 -0.464012E+1
  vertex  0.539484E+1 -2.282203E+1 -0.679835E+1
  vertex  0.501642E+1 -2.420988E+1 -0.632149E+1
 endloop
endfacet
facet normal -0.299530E+1  0.211364E+1  0.377456E+1
 outer loop
  vertex  0.811455E+1 -2.282203E+1 -0.464012E+1
  vertex  0.501642E+1 -2.420988E+1 -0.632149E+1
  vertex  0.773614E+1 -2.420988E+1 -0.416326E+1
 endloop
endfacet
facet normal -0.273819E+1  0.287794E+1  0.345056E+1
 outer loop
  vertex  0.773614E+1 -2.420988E+1 -0.416326E+1
  vertex  0.501642E+1 -2.420988E+1 -0.632149E+1
  vertex  0.450117E+1 -2.547860E+1 -0.567219E+1
 endloop
endfacet
facet normal -0.273819E+1  0.287793E+1  0.345056E+1
 outer loop
  vertex  0.773614E+1 -2.420988E+1 -0.416326E+1
  vertex  0.450117E+1 -2.547860E+1 -0.567219E+1
  vertex  0.722088E+1 -2.547860E+1 -0.351396E+1
 endloop
endfacet
facet normal -0.240640E+1  0.356371E+1  0.303245E+1
 outer loop
  vertex  0.722088E+1 -2.547860E+1 -0.351396E+1
  vertex  0.450117E+1 -2.547860E+1 -0.567219E+1
  vertex  0.386314E+1 -2.659359E+1 -0.486817E+1
 endloop
endfacet
facet normal -0.240640E+1  0.356371E+1  0.303245E+1
 outer loop
  vertex  0.722088E+1 -2.547860E+1 -0.351396E+1
  vertex  0.386314E+1 -2.659359E+1 -0.486817E+1
  vertex  0.658285E+1 -2.659359E+1 -0.270994E+1
 endloop
endfacet
facet normal -0.200896E+1  0.415230E+1  0.253160E+1
 outer loop
  vertex  0.658285E+1 -2.659359E+1 -0.270994E+1
  vertex  0.386314E+1 -2.659359E+1 -0.486817E+1
  vertex  0.311974E+1 -2.752443E+1 -0.393136E+1
 endloop
endfacet
facet normal -0.200896E+1  0.415230E+1  0.253160E+1
 outer loop
  vertex  0.658285E+1 -2.659359E+1 -0.270994E+1
  vertex  0.311974E+1 -2.752443E+1 -0.393136E+1
  vertex  0.583945E+1 -2.752443E+1 -0.177313E+1
 endloop
endfacet
facet normal -0.155674E+1  0.462761E+1  0.196173E+1
 outer loop
  vertex  0.583945E+1 -2.752443E+1 -0.177313E+1
  vertex  0.311974E+1 -2.752443E+1 -0.393136E+1
  vertex  0.229123E+1 -2.824573E+1 -0.288731E+1
 endloop
endfacet
facet normal -0.155674E+1  0.462761E+1  0.196173E+1
 outer loop
  vertex  0.583945E+1 -2.752443E+1 -0.177313E+1
  vertex  0.229123E+1 -2.824573E+1 -0.288731E+1
  vertex  0.501094E+1 -2.824573E+1 -0.072908E+1
 endloop
endfacet
facet normal -0.106200E+1  0.497672E+1  0.133829E+1
 outer loop
  vertex  0.501094E+1 -2.824573E+1 -0.072908E+1
  vertex  0.229123E+1 -2.824573E+1 -0.288731E+1
  vertex  0.140022E+1 -2.873780E+1 -0.176450E+1
 endloop
endfacet
facet normal -0.106200E+1  0.497672E+1  0.133829E+1
 outer loop
  vertex  0.501094E+1 -2.824573E+1 -0.072908E+1
  vertex  0.140022E+1 -2.873780E+1 -0.176450E+1
  vertex  0.411993E+1 -2.873780E+1  0.039373E+1
 endloop
endfacet
facet normal -0.053837E+1  0.519004E+1  0.067843E+1
 outer loop
  vertex  0.411993E+1 -2.873780E+1  0.039373E+1
  vertex  0.140022E+1 -2.873780E+1 -0.176450E+1
  vertex  0.047102E+1 -2.898725E+1 -0.059356E+1
 endloop
endfacet
facet normal -0.053837E+1  0.519004E+1  0.067843E+1
 outer loop
  vertex  0.411993E+1 -2.873780E+1  0.039373E+1
  vertex  0.047102E+1 -2.898725E+1 -0.059356E+1
  vertex  0.319073E+1 -2.898725E+1  0.156467E+1
 endloop
endfacet
facet normal  0.000000E+0  0.526180E+1  0.000000E+0
 outer loop
  vertex  0.319073E+1 -2.898725E+1  0.156467E+1
  vertex  0.047102E+1 -2.898725E+1 -0.059356E+1
  vertex -0.047102E+1 -2.898725E+1  0.059356E+1
 endloop
endfacet
facet normal  -0.000000E+0  0.526180E+1  0.000000E+0
 outer loop
  vertex  0.319073E+1 -2.898725E+1  0.156467E+1
  vertex -0.047102E+1 -2.898725E+1  0.059356E+1
  vertex  0.224869E+1 -2.898725E+1  0.275179E+1
 endloop
endfacet
facet normal  0.053837E+1  0.519004E+1 -0.067843E+1
 outer loop
  vertex  0.224869E+1 -2.898725E+1  0.275179E+1
  vertex -0.047102E+1 -2.898725E+1  0.059356E+1
  vertex -0.140022E+1 -2.873780E+1  0.176450E+1
 endloop
endfacet
facet normal  0.053837E+1  0.519004E+1 -0.067843E+1
 outer loop
  vertex  0.224869E+1 -2.898725E+1  0.275179E+1
  vertex -0.140022E+1 -2.873780E+1  0.176450E+1
  vertex  0.131949E+1 -2.873780E+1  0.392273E+1
 endloop
endfacet
facet normal  0.106200E+1  0.497671E+1 -0.133829E+1
 outer loop
  vertex  0.131949E+1 -2.873780E+1  0.392273E+1
  vertex -0.140022E+1 -2.873780E+1  0.176450E+1
  vertex -0.229123E+1 -2.824573E+1  0.288731E+1
 endloop
endfacet
facet normal  0.106200E+1  0.497671E+1 -0.133829E+1
 outer loop
  vertex  0.131949E+1 -2.873780E+1  0.392273E+1
  vertex -0.229123E+1 -2.824573E+1  0.288731E+1
  vertex  0.042848E+1 -2.824573E+1  0.504554E+1
 endloop
endfacet
facet normal  0.155674E+1  0.462761E+1 -0.196173E+1
 outer loop
  vertex  0.042848E+1 -2.824573E+1  0.504554E+1
  vertex -0.229123E+1 -2.824573E+1  0.288731E+1
  vertex -0.311973E+1 -2.752443E+1  0.393136E+1
 endloop
endfacet
facet normal  0.155674E+1  0.462761E+1 -0.196173E+1
 outer loop
  vertex  0.042848E+1 -2.824573E+1  0.504554E+1
  vertex -0.311973E+1 -2.752443E+1  0.393136E+1
  vertex -0.040002E+1 -2.752443E+1  0.608959E+1
 endloop
endfacet
facet normal  0.200896E+1  0.415231E+1 -0.253160E+1
 outer loop
  vertex -0.040002E+1 -2.752443E+1  0.608959E+1
  vertex -0.311973E+1 -2.752443E+1  0.393136E+1
  vertex -0.386314E+1 -2.659359E+1  0.486817E+1
 endloop
endfacet
facet normal  0.200896E+1  0.415231E+1 -0.253160E+1
 outer loop
  vertex -0.040002E+1 -2.752443E+1  0.608959E+1
  vertex -0.386314E+1 -2.659359E+1  0.486817E+1
  vertex -0.114343E+1 -2.659359E+1  0.702640E+1
 endloop
endfacet
facet normal  0.240640E+1  0.356372E+1 -0.303245E+1
 outer loop
  vertex -0.114343E+1 -2.659359E+1  0.702640E+1
  vertex -0.386314E+1 -2.659359E+1  0.486817E+1
  vertex -0.450117E+1 -2.547860E+1  0.567219E+1
 endloop
endfacet
facet normal  0.240640E+1  0.356372E+1 -0.303245E+1
 outer loop
  vertex -0.114343E+1 -2.659359E+1  0.702640E+1
  vertex -0.450117E+1 -2.547860E+1  0.567219E+1
  vertex -0.178146E+1 -2.547860E+1  0.783042E+1
 endloop
endfacet
facet normal  0.273819E+1  0.287794E+1 -0.345056E+1
 outer loop
  vertex -0.178146E+1 -2.547860E+1  0.783042E+1
  vertex -0.450117E+1 -2.547860E+1  0.567219E+1
  vertex -0.501642E+1 -2.420988E+1  0.632149E+1
 endloop
endfacet
facet normal  0.273820E+1  0.287794E+1 -0.345056E+1
 outer loop
  vertex -0.178146E+1 -2.547860E+1  0.783042E+1
  vertex -0.501642E+1 -2.420988E+1  0.632149E+1
  vertex -0.229671E+1 -2.420988E+1  0.847972E+1
 endloop
endfacet
facet normal  0.299530E+1  0.211363E+1 -0.377456E+1
 outer loop
  vertex -0.229671E+1 -2.420988E+1  0.847972E+1
  vertex -0.501642E+1 -2.420988E+1  0.632149E+1
  vertex -0.539484E+1 -2.282203E+1  0.679835E+1
 endloop
endfacet
facet normal  0.299530E+1  0.211363E+1 -0.377456E+1
 outer loop
  vertex -0.229671E+1 -2.420988E+1  0.847972E+1
  vertex -0.539484E+1 -2.282203E+1  0.679835E+1
  vertex -0.267513E+1 -2.282203E+1  0.895658E+1
 endloop
endfacet
facet normal  0.317070E+1  0.129170E+1 -0.399559E+1
 outer loop
  vertex -0.267513E+1 -2.282203E+1  0.895658E+1
  vertex -0.539484E+1 -2.282203E+1  0.679835E+1
  vertex -0.562610E+1 -2.135291E+1  0.708977E+1
 endloop
endfacet
facet normal  0.317070E+1  0.129170E+1 -0.399559E+1
 outer loop
  vertex -0.267513E+1 -2.282203E+1  0.895658E+1
  vertex -0.562610E+1 -2.135291E+1  0.708977E+1
  vertex -0.290639E+1 -2.135291E+1  0.924800E+1
 endloop
endfacet
facet normal  0.325962E+1  0.043452E+1 -0.410763E+1
 outer loop
  vertex -0.290639E+1 -2.135291E+1  0.924800E+1
  vertex -0.562610E+1 -2.135291E+1  0.708977E+1
  vertex -0.570389E+1 -1.984259E+1  0.718781E+1
 endloop
endfacet
facet normal  0.325961E+1  0.043452E+1 -0.410763E+1
 outer loop
  vertex -0.290639E+1 -2.135291E+1  0.924800E+1
  vertex -0.570389E+1 -1.984259E+1  0.718781E+1
  vertex -0.298418E+1 -1.984259E+1  0.934604E+1
 endloop
endfacet
facet normal -0.077832E+1 -0.000000E+1 -0.061764E+1
 outer loop
  vertex  0.703599E+1 -1.384394E+1 -0.328097E+1
  vertex  0.760950E+1 -1.511820E+1 -0.400368E+1
  vertex  0.712480E+1 -1.511820E+1 -0.339288E+1
 endloop
endfacet
facet normal -0.247194E+1 -0.000000E+1 -0.196161E+1
 outer loop
  vertex -0.290639E+1 -2.135291E+1  0.924800E+1
  vertex -0.298418E+1 -1.984259E+1  0.934604E+1
  vertex -0.168538E+1 -1.984259E+1  0.770934E+1
 endloop
endfacet
facet normal -0.033117E+1  5.960464E-8 -0.026280E+1
 outer loop
  vertex  0.633562E+1 -1.274600E+1 -0.239838E+1
  vertex  0.703599E+1 -1.384394E+1 -0.328097E+1
  vertex  0.552895E+1 -1.185666E+1 -0.138185E+1
 endloop
endfacet
facet normal -0.219758E+1 -0.000000E+1 -0.174389E+1
 outer loop
  vertex  0.552895E+1 -1.185666E+1 -0.138185E+1
  vertex  0.703599E+1 -1.384394E+1 -0.328097E+1
  vertex  0.712480E+1 -1.511820E+1 -0.339288E+1
 endloop
endfacet
facet normal -0.233842E+1  2.384186E-7 -0.185565E+1
 outer loop
  vertex  0.552895E+1 -1.185666E+1 -0.138185E+1
  vertex  0.712480E+1 -1.511820E+1 -0.339288E+1
  vertex  0.463971E+1 -1.120207E+1 -0.026127E+1
 endloop
endfacet
facet normal -1.479494E+1  0.000000E+0 -1.174054E+1
 outer loop
  vertex  0.463971E+1 -1.120207E+1 -0.026127E+1
  vertex  0.712480E+1 -1.511820E+1 -0.339288E+1
  vertex  0.712480E+1 -1.984259E+1 -0.339288E+1
 endloop
endfacet
facet normal -0.247194E+1 -0.000000E+1 -0.196161E+1
 outer loop
  vertex  0.842360E+1 -1.984259E+1 -0.502958E+1
  vertex  0.834581E+1 -2.135291E+1 -0.493154E+1
  vertex  0.712480E+1 -1.984259E+1 -0.339288E+1
 endloop
endfacet
facet normal -0.270063E+1 -0.000000E+1 -0.214309E+1
 outer loop
  vertex  0.712480E+1 -1.984259E+1 -0.339288E+1
  vertex  0.834581E+1 -2.135291E+1 -0.493154E+1
  vertex  0.811455E+1 -2.282203E+1 -0.464012E+1
 endloop
endfacet
facet normal -0.812434E+1 -0.000000E+1 -0.644708E+1
 outer loop
  vertex  0.131949E+1 -2.873780E+1  0.392273E+1
  vertex  0.042848E+1 -2.824573E+1  0.504554E+1
  vertex -0.168538E+1 -1.984259E+1  0.770934E+1
 endloop
endfacet
facet normal -0.685187E+1  2.384186E-7 -0.543731E+1
 outer loop
  vertex -0.168538E+1 -1.984259E+1  0.770934E+1
  vertex  0.042848E+1 -2.824573E+1  0.504554E+1
  vertex -0.040002E+1 -2.752443E+1  0.608959E+1
 endloop
endfacet
facet normal -0.568872E+1 -0.000000E+1 -0.451429E+1
 outer loop
  vertex -0.168538E+1 -1.984259E+1  0.770934E+1
  vertex -0.040002E+1 -2.752443E+1  0.608959E+1
  vertex -0.114343E+1 -2.659359E+1  0.702640E+1
 endloop
endfacet
facet normal -0.077832E+1  2.980232E-8 -0.061764E+1
 outer loop
  vertex -0.217008E+1 -1.511820E+1  0.832014E+1
  vertex -0.159657E+1 -1.384394E+1  0.759743E+1
  vertex -0.168538E+1 -1.511820E+1  0.770934E+1
 endloop
endfacet
facet normal -0.100178E+1  5.215406E-8 -0.079497E+1
 outer loop
  vertex -0.168538E+1 -1.511820E+1  0.770934E+1
  vertex -0.159657E+1 -1.384394E+1  0.759743E+1
  vertex -0.089619E+1 -1.274600E+1  0.671484E+1
 endloop
endfacet
facet normal -0.029612E+1  1.341105E-7 -0.023498E+1
 outer loop
  vertex -0.267513E+1 -2.282203E+1  0.895658E+1
  vertex -0.290639E+1 -2.135291E+1  0.924800E+1
  vertex -0.229671E+1 -2.420988E+1  0.847972E+1
 endloop
endfacet
facet normal -0.555629E+1 -0.000000E+1 -0.440920E+1
 outer loop
  vertex -0.229671E+1 -2.420988E+1  0.847972E+1
  vertex -0.290639E+1 -2.135291E+1  0.924800E+1
  vertex -0.168538E+1 -1.984259E+1  0.770934E+1
 endloop
endfacet
facet normal -0.381308E+1  0.000000E+0 -0.302587E+1
 outer loop
  vertex -0.229671E+1 -2.420988E+1  0.847972E+1
  vertex -0.168538E+1 -1.984259E+1  0.770934E+1
  vertex -0.178146E+1 -2.547860E+1  0.783042E+1
 endloop
endfacet
facet normal -0.466647E+1 -0.000000E+1 -0.370309E+1
 outer loop
  vertex -0.178146E+1 -2.547860E+1  0.783042E+1
  vertex -0.168538E+1 -1.984259E+1  0.770934E+1
  vertex -0.114343E+1 -2.659359E+1  0.702640E+1
 endloop
endfacet
facet normal -2.257357E+1  0.000000E+0 -1.791328E+1
 outer loop
  vertex  0.369403E+1 -1.080145E+1  0.093043E+1
  vertex  0.463971E+1 -1.120207E+1 -0.026127E+1
  vertex  0.131949E+1 -2.873780E+1  0.392273E+1
 endloop
endfacet
facet normal -9.106705E+1 -0.000000E+1 -7.226636E+1
 outer loop
  vertex  0.131949E+1 -2.873780E+1  0.392273E+1
  vertex  0.463971E+1 -1.120207E+1 -0.026127E+1
  vertex  0.712480E+1 -1.984259E+1 -0.339288E+1
 endloop
endfacet
facet normal -1.224063E+1  0.000000E+0 -0.971356E+1
 outer loop
  vertex  0.131949E+1 -2.873780E+1  0.392273E+1
  vertex  0.712480E+1 -1.984259E+1 -0.339288E+1
  vertex  0.224869E+1 -2.898725E+1  0.275179E+1
 endloop
endfacet
facet normal -2.971330E+1 -0.000000E+1 -2.357903E+1
 outer loop
  vertex  0.224869E+1 -2.898725E+1  0.275179E+1
  vertex  0.712480E+1 -1.984259E+1 -0.339288E+1
  vertex  0.811455E+1 -2.282203E+1 -0.464012E+1
 endloop
endfacet
facet normal -0.731891E+1  4.768372E-7 -0.580793E+1
 outer loop
  vertex  0.224869E+1 -2.898725E+1  0.275179E+1
  vertex  0.811455E+1 -2.282203E+1 -0.464012E+1
  vertex  0.319073E+1 -2.898725E+1  0.156467E+1
 endloop
endfacet
facet normal -0.567135E+1  1.907349E-6 -0.450051E+1
 outer loop
  vertex  0.319073E+1 -2.898725E+1  0.156467E+1
  vertex  0.811455E+1 -2.282203E+1 -0.464012E+1
  vertex  0.773614E+1 -2.420988E+1 -0.416326E+1
 endloop
endfacet
facet normal -0.416517E+1 -0.000000E+1 -0.330527E+1
 outer loop
  vertex  0.319073E+1 -2.898725E+1  0.156467E+1
  vertex  0.773614E+1 -2.420988E+1 -0.416326E+1
  vertex  0.411993E+1 -2.873780E+1  0.039373E+1
 endloop
endfacet
facet normal -0.284158E+1 -0.000000E+1 -0.225494E+1
 outer loop
  vertex  0.411993E+1 -2.873780E+1  0.039373E+1
  vertex  0.773614E+1 -2.420988E+1 -0.416326E+1
  vertex  0.722088E+1 -2.547860E+1 -0.351396E+1
 endloop
endfacet
facet normal -0.173660E+1  4.768372E-7 -0.137808E+1
 outer loop
  vertex  0.411993E+1 -2.873780E+1  0.039373E+1
  vertex  0.722088E+1 -2.547860E+1 -0.351396E+1
  vertex  0.501094E+1 -2.824573E+1 -0.072908E+1
 endloop
endfacet
facet normal -0.088029E+1 -0.000000E+1 -0.069855E+1
 outer loop
  vertex  0.501094E+1 -2.824573E+1 -0.072908E+1
  vertex  0.722088E+1 -2.547860E+1 -0.351396E+1
  vertex  0.658285E+1 -2.659359E+1 -0.270994E+1
 endloop
endfacet
facet normal -0.029611E+1 -0.000000E+1 -0.023498E+1
 outer loop
  vertex  0.501094E+1 -2.824573E+1 -0.072908E+1
  vertex  0.658285E+1 -2.659359E+1 -0.270994E+1
  vertex  0.583945E+1 -2.752443E+1 -0.177313E+1
 endloop
endfacet
facet normal -2.242571E+1  2.384186E-7 -1.779595E+1
 outer loop
  vertex  0.369403E+1 -1.080145E+1  0.093043E+1
  vertex  0.131949E+1 -2.873780E+1  0.392273E+1
  vertex  0.271971E+1 -1.066659E+1  0.215823E+1
 endloop
endfacet
facet normal -8.412415E+1 -0.000000E+1 -6.675682E+1
 outer loop
  vertex  0.271971E+1 -1.066659E+1  0.215823E+1
  vertex  0.131949E+1 -2.873780E+1  0.392273E+1
  vertex -0.168538E+1 -1.984259E+1  0.770934E+1
 endloop
endfacet
facet normal -1.051761E+1  1.430511E-6 -0.834626E+1
 outer loop
  vertex  0.271971E+1 -1.066659E+1  0.215823E+1
  vertex -0.168538E+1 -1.984259E+1  0.770934E+1
  vertex  0.174539E+1 -1.080145E+1  0.338602E+1
 endloop
endfacet
facet normal -2.042500E+1  0.000000E+0 -1.620828E+1
 outer loop
  vertex  0.174539E+1 -1.080145E+1  0.338602E+1
  vertex -0.168538E+1 -1.984259E+1  0.770934E+1
  vertex -0.168538E+1 -1.511820E+1  0.770934E+1
 endloop
endfacet
facet normal -0.341230E+1  4.768372E-7 -0.270783E+1
 outer loop
  vertex  0.174539E+1 -1.080145E+1  0.338602E+1
  vertex -0.168538E+1 -1.511820E+1  0.770934E+1
  vertex  0.079972E+1 -1.120207E+1  0.457773E+1
 endloop
endfacet
facet normal -0.353422E+1  0.000000E+0 -0.280458E+1
 outer loop
  vertex  0.079972E+1 -1.120207E+1  0.457773E+1
  vertex -0.168538E+1 -1.511820E+1  0.770934E+1
  vertex -0.089619E+1 -1.274600E+1  0.671484E+1
 endloop
endfacet
facet normal -0.033116E+1 -0.000000E+1 -0.026279E+1
 outer loop
  vertex  0.079972E+1 -1.120207E+1  0.457773E+1
  vertex -0.089619E+1 -1.274600E+1  0.671484E+1
  vertex -0.008953E+1 -1.185666E+1  0.569831E+1
 endloop
endfacet
endsolid DefaultTransformed