  0
SECTION
  2
HEADER
  9
$ACADVER
  1
AC1009
  9
$FILLMODE
 70
1
  9
$EXTMIN
 10
-0.2032
 20
-0.2383
 30
0.0000
  9
$EXTMAX
 10
59.1396
 20
44.6532
 30
0.0000
  0
ENDSEC
  0
SECTION
  2
TABLES
  0
TABLE
  2
LTYPE
 70
1
  0
LTYPE
  2
CONTINUOUS
 70
64
  3
Solid line
 72
65
 73
0
 40
0
  0
ENDTAB
  0
TABLE
  2
LAYER
 70
255
  0
LAYER
  2
17
 70
64
 62
82
  6
CONTINUOUS
  0
LAYER
  2
20
 70
64
 62
7
  6
CONTINUOUS
  0
LAYER
  2
21
 70
64
 62
253
  6
CONTINUOUS
  0
LAYER
  2
22
 70
64
 62
253
  6
CONTINUOUS
  0
LAYER
  2
41
 70
64
 62
22
  6
CONTINUOUS
  0
LAYER
  2
42
 70
64
 62
175
  6
CONTINUOUS
  0
LAYER
  2
45
 70
64
 62
253
  6
CONTINUOUS
  0
ENDTAB
  0
ENDSEC
  0
SECTION
  2
BLOCKS
  0
BLOCK
  8
0
  2
RECT
 70
64
 10
0.0000
 20
0.0000
 30
0.0000
  3
RECT
  0
SOLID
  8
0
 10
-0.5000
 20
-0.5000
 30
0.0000
 11
0.5000
 21
-0.5000
 31
0.0000
 12
-0.5000
 22
0.5000
 32
0.0000
 13
0.5000
 23
0.5000
 33
0.0000
  0
ENDBLK
  8
0
  0
BLOCK
  8
0
  2
PIE
 70
64
 10
0.0000
 20
0.0000
 30
0.0000
  3
PIE
  0
POLYLINE
  8
0
 66
1
 10
0.0000
 20
0.0000
 30
0.0000
 40
0.5000
 41
0.5000
 70
0
  0
VERTEX
  8
0
 10
0.0000
 20
-0.2500
 30
0.0000
 42
1.0000
  0
VERTEX
  8
0
 10
0.0000
 20
0.2500
 30
0.0000
 42
1.0000
  0
VERTEX
  8
0
 10
0.0000
 20
-0.2500
 30
0.0000
  0
SEQEND
  8
0
  0
ENDBLK
  8
0
  0
BLOCK
  8
0
  2
OCTAGONP
 70
64
 10
0.0000
 20
0.0000
 30
0.0000
  3
OCTAGONP
  0
POLYLINE
  8
0
 66
1
 10
0.0000
 20
0.0000
 30
0.0000
 40
0.5000
 41
0.5000
 70
0
  0
VERTEX
  8
0
 10
-0.2500
 20
-0.1036
 30
0.0000
  0
VERTEX
  8
0
 10
-0.2500
 20
0.1036
 30
0.0000
  0
VERTEX
  8
0
 10
-0.1036
 20
0.2500
 30
0.0000
  0
VERTEX
  8
0
 10
0.1036
 20
0.2500
 30
0.0000
  0
VERTEX
  8
0
 10
0.2500
 20
0.1036
 30
0.0000
  0
VERTEX
  8
0
 10
0.2500
 20
-0.1036
 30
0.0000
  0
VERTEX
  8
0
 10
0.1036
 20
-0.2500
 30
0.0000
  0
VERTEX
  8
0
 10
-0.1036
 20
-0.2500
 30
0.0000
  0
VERTEX
  8
0
 10
-0.2500
 20
-0.1036
 30
0.0000
  0
VERTEX
  8
0
 10
-0.2500
 20
0.1036
 30
0.0000
  0
SEQEND
  8
0
  0
ENDBLK
  8
0
  0
BLOCK
  8
0
  2
SQUAREP
 70
64
 10
0.0000
 20
0.0000
 30
0.0000
  3
SQUAREP
  0
SOLID
  8
0
 10
-0.5000
 20
-0.5000
 30
0.0000
 11
0.5000
 21
-0.5000
 31
0.0000
 12
-0.5000
 22
0.5000
 32
0.0000
 13
0.5000
 23
0.5000
 33
0.0000
  0
ENDBLK
  8
0
  0
BLOCK
  8
0
  2
ROUNDP
 70
64
 10
0.0000
 20
0.0000
 30
0.0000
  3
ROUNDP
  0
POLYLINE
  8
0
 66
1
 10
0.0000
 20
0.0000
 30
0.0000
 40
0.5000
 41
0.5000
 70
0
  0
VERTEX
  8
0
 10
0.0000
 20
-0.2500
 30
0.0000
 42
1.0000
  0
VERTEX
  8
0
 10
0.0000
 20
0.2500
 30
0.0000
 42
1.0000
  0
VERTEX
  8
0
 10
0.0000
 20
-0.2500
 30
0.0000
  0
SEQEND
  8
0
  0
ENDBLK
  8
0
  0
BLOCK
  8
0
  2
ANNULUSP
 70
64
 10
0.0000
 20
0.0000
 30
0.0000
  3
ANNULUSP
  0
POLYLINE
  8
0
 66
1
 10
0.0000
 20
0.0000
 30
0.0000
 40
0.5000
 41
0.5000
 70
0
  0
VERTEX
  8
0
 10
0.0000
 20
-0.2500
 30
0.0000
 42
1.0000
  0
VERTEX
  8
0
 10
0.0000
 20
0.2500
 30
0.0000
 42
1.0000
  0
VERTEX
  8
0
 10
0.0000
 20
-0.2500
 30
0.0000
  0
SEQEND
  8
0
  0
ENDBLK
  8
0
  0
BLOCK
  8
0
  2
THERMALP
 70
64
 10
0.0000
 20
0.0000
 30
0.0000
  3
THERMALP
  0
POLYLINE
  8
0
 66
1
 10
0.0000
 20
0.0000
 30
0.0000
 40
0.1000
 41
0.1000
 70
0
  0
VERTEX
  8
0
 10
-0.2379
 20
0.4500
 30
0.0000
  0
VERTEX
  8
0
 10
0.2379
 20
0.4500
 30
0.0000
  0
SEQEND
  8
0
  0
POLYLINE
  8
0
 66
1
 10
0.0000
 20
0.0000
 30
0.0000
 40
0.0500
 41
0.0500
 70
0
  0
VERTEX
  8
0
 10
0.2379
 20
0.4250
 30
0.0000
 42
1.0000
  0
VERTEX
  8
0
 10
0.2379
 20
0.4750
 30
0.0000
  0
SEQEND
  8
0
  0
POLYLINE
  8
0
 66
1
 10
0.0000
 20
0.0000
 30
0.0000
 40
0.0500
 41
0.0500
 70
0
  0
VERTEX
  8
0
 10
-0.2379
 20
0.4750
 30
0.0000
 42
1.0000
  0
VERTEX
  8
0
 10
-0.2379
 20
0.4250
 30
0.0000
  0
SEQEND
  8
0
  0
POLYLINE
  8
0
 66
1
 10
0.0000
 20
0.0000
 30
0.0000
 40
0.1000
 41
0.1000
 70
0
  0
VERTEX
  8
0
 10
0.4500
 20
0.2379
 30
0.0000
  0
VERTEX
  8
0
 10
0.4500
 20
-0.2379
 30
0.0000
  0
SEQEND
  8
0
  0
POLYLINE
  8
0
 66
1
 10
0.0000
 20
0.0000
 30
0.0000
 40
0.0500
 41
0.0500
 70
0
  0
VERTEX
  8
0
 10
0.4250
 20
-0.2379
 30
0.0000
 42
1.0000
  0
VERTEX
  8
0
 10
0.4750
 20
-0.2379
 30
0.0000
  0
SEQEND
  8
0
  0
POLYLINE
  8
0
 66
1
 10
0.0000
 20
0.0000
 30
0.0000
 40
0.0500
 41
0.0500
 70
0
  0
VERTEX
  8
0
 10
0.4750
 20
0.2379
 30
0.0000
 42
1.0000
  0
VERTEX
  8
0
 10
0.4250
 20
0.2379
 30
0.0000
  0
SEQEND
  8
0
  0
POLYLINE
  8
0
 66
1
 10
0.0000
 20
0.0000
 30
0.0000
 40
0.1000
 41
0.1000
 70
0
  0
VERTEX
  8
0
 10
0.2379
 20
-0.4500
 30
0.0000
  0
VERTEX
  8
0
 10
-0.2379
 20
-0.4500
 30
0.0000
  0
SEQEND
  8
0
  0
POLYLINE
  8
0
 66
1
 10
0.0000
 20
0.0000
 30
0.0000
 40
0.0500
 41
0.0500
 70
0
  0
VERTEX
  8
0
 10
-0.2379
 20
-0.4250
 30
0.0000
 42
1.0000
  0
VERTEX
  8
0
 10
-0.2379
 20
-0.4750
 30
0.0000
  0
SEQEND
  8
0
  0
POLYLINE
  8
0
 66
1
 10
0.0000
 20
0.0000
 30
0.0000
 40
0.0500
 41
0.0500
 70
0
  0
VERTEX
  8
0
 10
0.2379
 20
-0.4750
 30
0.0000
 42
1.0000
  0
VERTEX
  8
0
 10
0.2379
 20
-0.4250
 30
0.0000
  0
SEQEND
  8
0
  0
POLYLINE
  8
0
 66
1
 10
0.0000
 20
0.0000
 30
0.0000
 40
0.1000
 41
0.1000
 70
0
  0
VERTEX
  8
0
 10
-0.4500
 20
-0.2379
 30
0.0000
  0
VERTEX
  8
0
 10
-0.4500
 20
0.2379
 30
0.0000
  0
SEQEND
  8
0
  0
POLYLINE
  8
0
 66
1
 10
0.0000
 20
0.0000
 30
0.0000
 40
0.0500
 41
0.0500
 70
0
  0
VERTEX
  8
0
 10
-0.4250
 20
0.2379
 30
0.0000
 42
1.0000
  0
VERTEX
  8
0
 10
-0.4750
 20
0.2379
 30
0.0000
  0
SEQEND
  8
0
  0
POLYLINE
  8
0
 66
1
 10
0.0000
 20
0.0000
 30
0.0000
 40
0.0500
 41
0.0500
 70
0
  0
VERTEX
  8
0
 10
-0.4750
 20
-0.2379
 30
0.0000
 42
1.0000
  0
VERTEX
  8
0
 10
-0.4250
 20
-0.2379
 30
0.0000
  0
SEQEND
  8
0
  0
ENDBLK
  8
0
  0
BLOCK
  8
0
  2
OCTAGONV
 70
64
 10
0.0000
 20
0.0000
 30
0.0000
  3
OCTAGONV
  0
POLYLINE
  8
0
 66
1
 10
0.0000
 20
0.0000
 30
0.0000
 40
0.5000
 41
0.5000
 70
0
  0
VERTEX
  8
0
 10
-0.2500
 20
-0.1036
 30
0.0000
  0
VERTEX
  8
0
 10
-0.2500
 20
0.1036
 30
0.0000
  0
VERTEX
  8
0
 10
-0.1036
 20
0.2500
 30
0.0000
  0
VERTEX
  8
0
 10
0.1036
 20
0.2500
 30
0.0000
  0
VERTEX
  8
0
 10
0.2500
 20
0.1036
 30
0.0000
  0
VERTEX
  8
0
 10
0.2500
 20
-0.1036
 30
0.0000
  0
VERTEX
  8
0
 10
0.1036
 20
-0.2500
 30
0.0000
  0
VERTEX
  8
0
 10
-0.1036
 20
-0.2500
 30
0.0000
  0
VERTEX
  8
0
 10
-0.2500
 20
-0.1036
 30
0.0000
  0
VERTEX
  8
0
 10
-0.2500
 20
0.1036
 30
0.0000
  0
SEQEND
  8
0
  0
ENDBLK
  8
0
  0
BLOCK
  8
0
  2
SQUAREV
 70
64
 10
0.0000
 20
0.0000
 30
0.0000
  3
SQUAREV
  0
SOLID
  8
0
 10
-0.5000
 20
-0.5000
 30
0.0000
 11
0.5000
 21
-0.5000
 31
0.0000
 12
-0.5000
 22
0.5000
 32
0.0000
 13
0.5000
 23
0.5000
 33
0.0000
  0
ENDBLK
  8
0
  0
BLOCK
  8
0
  2
ROUNDV
 70
64
 10
0.0000
 20
0.0000
 30
0.0000
  3
ROUNDV
  0
POLYLINE
  8
0
 66
1
 10
0.0000
 20
0.0000
 30
0.0000
 40
0.5000
 41
0.5000
 70
0
  0
VERTEX
  8
0
 10
0.0000
 20
-0.2500
 30
0.0000
 42
1.0000
  0
VERTEX
  8
0
 10
0.0000
 20
0.2500
 30
0.0000
 42
1.0000
  0
VERTEX
  8
0
 10
0.0000
 20
-0.2500
 30
0.0000
  0
SEQEND
  8
0
  0
ENDBLK
  8
0
  0
BLOCK
  8
0
  2
ANNULUSV
 70
64
 10
0.0000
 20
0.0000
 30
0.0000
  3
ANNULUSV
  0
POLYLINE
  8
0
 66
1
 10
0.0000
 20
0.0000
 30
0.0000
 40
0.5000
 41
0.5000
 70
0
  0
VERTEX
  8
0
 10
0.0000
 20
-0.2500
 30
0.0000
 42
1.0000
  0
VERTEX
  8
0
 10
0.0000
 20
0.2500
 30
0.0000
 42
1.0000
  0
VERTEX
  8
0
 10
0.0000
 20
-0.2500
 30
0.0000
  0
SEQEND
  8
0
  0
ENDBLK
  8
0
  0
BLOCK
  8
0
  2
THERMALV
 70
64
 10
0.0000
 20
0.0000
 30
0.0000
  3
THERMALV
  0
POLYLINE
  8
0
 66
1
 10
0.0000
 20
0.0000
 30
0.0000
 40
0.1000
 41
0.1000
 70
0
  0
VERTEX
  8
0
 10
-0.2379
 20
0.4500
 30
0.0000
  0
VERTEX
  8
0
 10
0.2379
 20
0.4500
 30
0.0000
  0
SEQEND
  8
0
  0
POLYLINE
  8
0
 66
1
 10
0.0000
 20
0.0000
 30
0.0000
 40
0.0500
 41
0.0500
 70
0
  0
VERTEX
  8
0
 10
0.2379
 20
0.4250
 30
0.0000
 42
1.0000
  0
VERTEX
  8
0
 10
0.2379
 20
0.4750
 30
0.0000
  0
SEQEND
  8
0
  0
POLYLINE
  8
0
 66
1
 10
0.0000
 20
0.0000
 30
0.0000
 40
0.0500
 41
0.0500
 70
0
  0
VERTEX
  8
0
 10
-0.2379
 20
0.4750
 30
0.0000
 42
1.0000
  0
VERTEX
  8
0
 10
-0.2379
 20
0.4250
 30
0.0000
  0
SEQEND
  8
0
  0
POLYLINE
  8
0
 66
1
 10
0.0000
 20
0.0000
 30
0.0000
 40
0.1000
 41
0.1000
 70
0
  0
VERTEX
  8
0
 10
0.4500
 20
0.2379
 30
0.0000
  0
VERTEX
  8
0
 10
0.4500
 20
-0.2379
 30
0.0000
  0
SEQEND
  8
0
  0
POLYLINE
  8
0
 66
1
 10
0.0000
 20
0.0000
 30
0.0000
 40
0.0500
 41
0.0500
 70
0
  0
VERTEX
  8
0
 10
0.4250
 20
-0.2379
 30
0.0000
 42
1.0000
  0
VERTEX
  8
0
 10
0.4750
 20
-0.2379
 30
0.0000
  0
SEQEND
  8
0
  0
POLYLINE
  8
0
 66
1
 10
0.0000
 20
0.0000
 30
0.0000
 40
0.0500
 41
0.0500
 70
0
  0
VERTEX
  8
0
 10
0.4750
 20
0.2379
 30
0.0000
 42
1.0000
  0
VERTEX
  8
0
 10
0.4250
 20
0.2379
 30
0.0000
  0
SEQEND
  8
0
  0
POLYLINE
  8
0
 66
1
 10
0.0000
 20
0.0000
 30
0.0000
 40
0.1000
 41
0.1000
 70
0
  0
VERTEX
  8
0
 10
0.2379
 20
-0.4500
 30
0.0000
  0
VERTEX
  8
0
 10
-0.2379
 20
-0.4500
 30
0.0000
  0
SEQEND
  8
0
  0
POLYLINE
  8
0
 66
1
 10
0.0000
 20
0.0000
 30
0.0000
 40
0.0500
 41
0.0500
 70
0
  0
VERTEX
  8
0
 10
-0.2379
 20
-0.4250
 30
0.0000
 42
1.0000
  0
VERTEX
  8
0
 10
-0.2379
 20
-0.4750
 30
0.0000
  0
SEQEND
  8
0
  0
POLYLINE
  8
0
 66
1
 10
0.0000
 20
0.0000
 30
0.0000
 40
0.0500
 41
0.0500
 70
0
  0
VERTEX
  8
0
 10
0.2379
 20
-0.4750
 30
0.0000
 42
1.0000
  0
VERTEX
  8
0
 10
0.2379
 20
-0.4250
 30
0.0000
  0
SEQEND
  8
0
  0
POLYLINE
  8
0
 66
1
 10
0.0000
 20
0.0000
 30
0.0000
 40
0.1000
 41
0.1000
 70
0
  0
VERTEX
  8
0
 10
-0.4500
 20
-0.2379
 30
0.0000
  0
VERTEX
  8
0
 10
-0.4500
 20
0.2379
 30
0.0000
  0
SEQEND
  8
0
  0
POLYLINE
  8
0
 66
1
 10
0.0000
 20
0.0000
 30
0.0000
 40
0.0500
 41
0.0500
 70
0
  0
VERTEX
  8
0
 10
-0.4250
 20
0.2379
 30
0.0000
 42
1.0000
  0
VERTEX
  8
0
 10
-0.4750
 20
0.2379
 30
0.0000
  0
SEQEND
  8
0
  0
POLYLINE
  8
0
 66
1
 10
0.0000
 20
0.0000
 30
0.0000
 40
0.0500
 41
0.0500
 70
0
  0
VERTEX
  8
0
 10
-0.4750
 20
-0.2379
 30
0.0000
 42
1.0000
  0
VERTEX
  8
0
 10
-0.4250
 20
-0.2379
 30
0.0000
  0
SEQEND
  8
0
  0
ENDBLK
  8
0
  0
BLOCK
  8
0
  2
LONGP100
 70
64
 10
0.0000
 20
0.0000
 30
0.0000
  3
LONGP100
  0
POLYLINE
  8
0
 66
1
 10
0.0000
 20
0.0000
 30
0.0000
 40
1.0000
 41
1.0000
 70
0
  0
VERTEX
  8
0
 10
-0.5000
 20
0.0000
 30
0.0000
  0
VERTEX
  8
0
 10
0.5000
 20
0.0000
 30
0.0000
  0
SEQEND
  8
0
  0
POLYLINE
  8
0
 66
1
 10
0.0000
 20
0.0000
 30
0.0000
 40
0.5000
 41
0.5000
 70
0
  0
VERTEX
  8
0
 10
0.5000
 20
-0.2500
 30
0.0000
 42
1.0000
  0
VERTEX
  8
0
 10
0.5000
 20
0.2500
 30
0.0000
  0
SEQEND
  8
0
  0
POLYLINE
  8
0
 66
1
 10
0.0000
 20
0.0000
 30
0.0000
 40
0.5000
 41
0.5000
 70
0
  0
VERTEX
  8
0
 10
-0.5000
 20
0.2500
 30
0.0000
 42
1.0000
  0
VERTEX
  8
0
 10
-0.5000
 20
-0.2500
 30
0.0000
  0
SEQEND
  8
0
  0
ENDBLK
  8
0
  0
ENDSEC
  0
SECTION
  2
ENTITIES
  0
POLYLINE
  8
20
 66
1
 10
0.0000
 20
0.0000
 30
0.0000
 40
0.4064
 41
0.4064
 70
0
  0
VERTEX
  8
20
 10
0.0000
 20
0.0000
 30
0.0000
  0
VERTEX
  8
20
 10
44.4500
 20
0.0000
 30
0.0000
  0
SEQEND
  8
0
  0
POLYLINE
  8
20
 66
1
 10
0.0000
 20
0.0000
 30
0.0000
 40
0.2032
 41
0.2032
 70
0
  0
VERTEX
  8
20
 10
44.4500
 20
-0.1016
 30
0.0000
 42
1.0000
  0
VERTEX
  8
20
 10
44.4500
 20
0.1016
 30
0.0000
  0
SEQEND
  8
0
  0
POLYLINE
  8
20
 66
1
 10
0.0000
 20
0.0000
 30
0.0000
 40
0.2032
 41
0.2032
 70
0
  0
VERTEX
  8
20
 10
0.0000
 20
0.1016
 30
0.0000
 42
1.0000
  0
VERTEX
  8
20
 10
0.0000
 20
-0.1016
 30
0.0000
  0
SEQEND
  8
0
  0
POLYLINE
  8
20
 66
1
 10
0.0000
 20
0.0000
 30
0.0000
 40
0.4064
 41
0.4064
 70
0
  0
VERTEX
  8
20
 10
44.4500
 20
0.0000
 30
0.0000
  0
VERTEX
  8
20
 10
44.4500
 20
44.4500
 30
0.0000
  0
SEQEND
  8
0
  0
POLYLINE
  8
20
 66
1
 10
0.0000
 20
0.0000
 30
0.0000
 40
0.2032
 41
0.2032
 70
0
  0
VERTEX
  8
20
 10
44.5516
 20
44.4500
 30
0.0000
 42
1.0000
  0
VERTEX
  8
20
 10
44.3484
 20
44.4500
 30
0.0000
  0
SEQEND
  8
0
  0
POLYLINE
  8
20
 66
1
 10
0.0000
 20
0.0000
 30
0.0000
 40
0.2032
 41
0.2032
 70
0
  0
VERTEX
  8
20
 10
44.3484
 20
0.0000
 30
0.0000
 42
1.0000
  0
VERTEX
  8
20
 10
44.5516
 20
0.0000
 30
0.0000
  0
SEQEND
  8
0
  0
POLYLINE
  8
20
 66
1
 10
0.0000
 20
0.0000
 30
0.0000
 40
0.4064
 41
0.4064
 70
0
  0
VERTEX
  8
20
 10
44.4500
 20
44.4500
 30
0.0000
  0
VERTEX
  8
20
 10
0.0000
 20
44.4500
 30
0.0000
  0
SEQEND
  8
0
  0
POLYLINE
  8
20
 66
1
 10
0.0000
 20
0.0000
 30
0.0000
 40
0.2032
 41
0.2032
 70
0
  0
VERTEX
  8
20
 10
0.0000
 20
44.5516
 30
0.0000
 42
1.0000
  0
VERTEX
  8
20
 10
0.0000
 20
44.3484
 30
0.0000
  0
SEQEND
  8
0
  0
POLYLINE
  8
20
 66
1
 10
0.0000
 20
0.0000
 30
0.0000
 40
0.2032
 41
0.2032
 70
0
  0
VERTEX
  8
20
 10
44.4500
 20
44.3484
 30
0.0000
 42
1.0000
  0
VERTEX
  8
20
 10
44.4500
 20
44.5516
 30
0.0000
  0
SEQEND
  8
0
  0
POLYLINE
  8
20
 66
1
 10
0.0000
 20
0.0000
 30
0.0000
 40
0.4064
 41
0.4064
 70
0
  0
VERTEX
  8
20
 10
0.0000
 20
44.4500
 30
0.0000
  0
VERTEX
  8
20
 10
0.0000
 20
0.0000
 30
0.0000
  0
SEQEND
  8
0
  0
POLYLINE
  8
20
 66
1
 10
0.0000
 20
0.0000
 30
0.0000
 40
0.2032
 41
0.2032
 70
0
  0
VERTEX
  8
20
 10
-0.1016
 20
0.0000
 30
0.0000
 42
1.0000
  0
VERTEX
  8
20
 10
0.1016
 20
0.0000
 30
0.0000
  0
SEQEND
  8
0
  0
POLYLINE
  8
20
 66
1
 10
0.0000
 20
0.0000
 30
0.0000
 40
0.2032
 41
0.2032
 70
0
  0
VERTEX
  8
20
 10
0.1016
 20
44.4500
 30
0.0000
 42
1.0000
  0
VERTEX
  8
20
 10
-0.1016
 20
44.4500
 30
0.0000
  0
SEQEND
  8
0
  0
INSERT
  8
41
  2
RECT
 10
4.6355
 20
4.4450
 30
0.0000
 41
8.7630
 42
8.6360
 43
1.0000
 50
0.0000
  0
INSERT
  8
41
  2
RECT
 10
39.8145
 20
4.4450
 30
0.0000
 41
8.7630
 42
8.6360
 43
1.0000
 50
0.0000
  0
INSERT
  8
41
  2
RECT
 10
39.8145
 20
39.8780
 30
0.0000
 41
8.7630
 42
8.6360
 43
1.0000
 50
0.0000
  0
INSERT
  8
41
  2
RECT
 10
4.6355
 20
39.8780
 30
0.0000
 41
8.7630
 42
8.6360
 43
1.0000
 50
0.0000
  0
INSERT
  8
42
  2
RECT
 10
4.6355
 20
4.4450
 30
0.0000
 41
8.7630
 42
8.6360
 43
1.0000
 50
0.0000
  0
INSERT
  8
42
  2
RECT
 10
4.6355
 20
39.8780
 30
0.0000
 41
8.7630
 42
8.6360
 43
1.0000
 50
0.0000
  0
INSERT
  8
42
  2
RECT
 10
39.8145
 20
39.8780
 30
0.0000
 41
8.7630
 42
8.6360
 43
1.0000
 50
0.0000
  0
INSERT
  8
42
  2
RECT
 10
39.8145
 20
4.4450
 30
0.0000
 41
8.7630
 42
8.6360
 43
1.0000
 50
0.0000
  0
CIRCLE
  8
20
 10
4.5720
 20
39.8780
 30
0.0000
 40
2.1971
  0
CIRCLE
  8
20
 10
39.7510
 20
40.0050
 30
0.0000
 40
2.1971
  0
CIRCLE
  8
20
 10
39.9519
 20
4.3519
 30
0.0000
 40
2.1971
  0
CIRCLE
  8
20
 10
4.7201
 20
4.3489
 30
0.0000
 40
2.1971
  0
POLYLINE
  8
22
 66
1
 10
0.0000
 20
0.0000
 30
0.0000
 40
0.1270
 41
0.1270
 70
0
  0
VERTEX
  8
22
 10
14.4780
 20
29.7180
 30
0.0000
  0
VERTEX
  8
22
 10
14.4780
 20
30.9880
 30
0.0000
  0
SEQEND
  8
0
  0
POLYLINE
  8
22
 66
1
 10
0.0000
 20
0.0000
 30
0.0000
 40
0.0635
 41
0.0635
 70
0
  0
VERTEX
  8
22
 10
14.5098
 20
30.9880
 30
0.0000
 42
1.0000
  0
VERTEX
  8
22
 10
14.4463
 20
30.9880
 30
0.0000
  0
SEQEND
  8
0
  0
POLYLINE
  8
22
 66
1
 10
0.0000
 20
0.0000
 30
0.0000
 40
0.0635
 41
0.0635
 70
0
  0
VERTEX
  8
22
 10
14.4463
 20
29.7180
 30
0.0000
 42
1.0000
  0
VERTEX
  8
22
 10
14.5098
 20
29.7180
 30
0.0000
  0
SEQEND
  8
0
  0
POLYLINE
  8
22
 66
1
 10
0.0000
 20
0.0000
 30
0.0000
 40
0.1270
 41
0.1270
 70
0
  0
VERTEX
  8
22
 10
14.4780
 20
30.9880
 30
0.0000
  0
VERTEX
  8
22
 10
14.4780
 20
34.7980
 30
0.0000
  0
SEQEND
  8
0
  0
POLYLINE
  8
22
 66
1
 10
0.0000
 20
0.0000
 30
0.0000
 40
0.0635
 41
0.0635
 70
0
  0
VERTEX
  8
22
 10
14.5098
 20
34.7980
 30
0.0000
 42
1.0000
  0
VERTEX
  8
22
 10
14.4463
 20
34.7980
 30
0.0000
  0
SEQEND
  8
0
  0
POLYLINE
  8
22
 66
1
 10
0.0000
 20
0.0000
 30
0.0000
 40
0.0635
 41
0.0635
 70
0
  0
VERTEX
  8
22
 10
14.4463
 20
30.9880
 30
0.0000
 42
1.0000
  0
VERTEX
  8
22
 10
14.5098
 20
30.9880
 30
0.0000
  0
SEQEND
  8
0
  0
POLYLINE
  8
22
 66
1
 10
0.0000
 20
0.0000
 30
0.0000
 40
0.1270
 41
0.1270
 70
0
  0
VERTEX
  8
22
 10
14.4780
 20
34.7980
 30
0.0000
  0
VERTEX
  8
22
 10
7.8740
 20
34.7980
 30
0.0000
  0
SEQEND
  8
0
  0
POLYLINE
  8
22
 66
1
 10
0.0000
 20
0.0000
 30
0.0000
 40
0.0635
 41
0.0635
 70
0
  0
VERTEX
  8
22
 10
7.8740
 20
34.8298
 30
0.0000
 42
1.0000
  0
VERTEX
  8
22
 10
7.8740
 20
34.7662
 30
0.0000
  0
SEQEND
  8
0
  0
POLYLINE
  8
22
 66
1
 10
0.0000
 20
0.0000
 30
0.0000
 40
0.0635
 41
0.0635
 70
0
  0
VERTEX
  8
22
 10
14.4780
 20
34.7662
 30
0.0000
 42
1.0000
  0
VERTEX
  8
22
 10
14.4780
 20
34.8298
 30
0.0000
  0
SEQEND
  8
0
  0
POLYLINE
  8
22
 66
1
 10
0.0000
 20
0.0000
 30
0.0000
 40
0.1270
 41
0.1270
 70
0
  0
VERTEX
  8
22
 10
7.8740
 20
34.7980
 30
0.0000
  0
VERTEX
  8
22
 10
7.8740
 20
9.3980
 30
0.0000
  0
SEQEND
  8
0
  0
POLYLINE
  8
22
 66
1
 10
0.0000
 20
0.0000
 30
0.0000
 40
0.0635
 41
0.0635
 70
0
  0
VERTEX
  8
22
 10
7.8423
 20
9.3980
 30
0.0000
 42
1.0000
  0
VERTEX
  8
22
 10
7.9058
 20
9.3980
 30
0.0000
  0
SEQEND
  8
0
  0
POLYLINE
  8
22
 66
1
 10
0.0000
 20
0.0000
 30
0.0000
 40
0.0635
 41
0.0635
 70
0
  0
VERTEX
  8
22
 10
7.9058
 20
34.7980
 30
0.0000
 42
1.0000
  0
VERTEX
  8
22
 10
7.8423
 20
34.7980
 30
0.0000
  0
SEQEND
  8
0
  0
POLYLINE
  8
22
 66
1
 10
0.0000
 20
0.0000
 30
0.0000
 40
0.1270
 41
0.1270
 70
0
  0
VERTEX
  8
22
 10
7.8740
 20
9.3980
 30
0.0000
  0
VERTEX
  8
22
 10
14.4780
 20
9.3980
 30
0.0000
  0
SEQEND
  8
0
  0
POLYLINE
  8
22
 66
1
 10
0.0000
 20
0.0000
 30
0.0000
 40
0.0635
 41
0.0635
 70
0
  0
VERTEX
  8
22
 10
14.4780
 20
9.3662
 30
0.0000
 42
1.0000
  0
VERTEX
  8
22
 10
14.4780
 20
9.4298
 30
0.0000
  0
SEQEND
  8
0
  0
POLYLINE
  8
22
 66
1
 10
0.0000
 20
0.0000
 30
0.0000
 40
0.0635
 41
0.0635
 70
0
  0
VERTEX
  8
22
 10
7.8740
 20
9.4298
 30
0.0000
 42
1.0000
  0
VERTEX
  8
22
 10
7.8740
 20
9.3662
 30
0.0000
  0
SEQEND
  8
0
  0
POLYLINE
  8
22
 66
1
 10
0.0000
 20
0.0000
 30
0.0000
 40
0.1270
 41
0.1270
 70
0
  0
VERTEX
  8
22
 10
14.4780
 20
9.3980
 30
0.0000
  0
VERTEX
  8
22
 10
14.4780
 20
29.7180
 30
0.0000
  0
SEQEND
  8
0
  0
POLYLINE
  8
22
 66
1
 10
0.0000
 20
0.0000
 30
0.0000
 40
0.0635
 41
0.0635
 70
0
  0
VERTEX
  8
22
 10
14.5098
 20
29.7180
 30
0.0000
 42
1.0000
  0
VERTEX
  8
22
 10
14.4463
 20
29.7180
 30
0.0000
  0
SEQEND
  8
0
  0
POLYLINE
  8
22
 66
1
 10
0.0000
 20
0.0000
 30
0.0000
 40
0.0635
 41
0.0635
 70
0
  0
VERTEX
  8
22
 10
14.4463
 20
9.3980
 30
0.0000
 42
1.0000
  0
VERTEX
  8
22
 10
14.5098
 20
9.3980
 30
0.0000
  0
SEQEND
  8
0
  0
INSERT
  8
17
  2
SQUAREP
 10
12.4460
 20
29.7180
 30
0.0000
 41
1.4986
 42
1.4986
 43
1.0000
 50
180.0000
  0
INSERT
  8
17
  2
SQUAREP
 10
12.4460
 20
29.7180
 30
0.0000
 41
1.4986
 42
1.4986
 43
1.0000
 50
180.0000
  0
INSERT
  8
17
  2
OCTAGONP
 10
9.9060
 20
29.7180
 30
0.0000
 41
1.4986
 42
1.4986
 43
1.0000
 50
180.0000
  0
INSERT
  8
17
  2
OCTAGONP
 10
9.9060
 20
29.7180
 30
0.0000
 41
1.4986
 42
1.4986
 43
1.0000
 50
180.0000
  0
INSERT
  8
17
  2
OCTAGONP
 10
12.4460
 20
27.1780
 30
0.0000
 41
1.4986
 42
1.4986
 43
1.0000
 50
180.0000
  0
INSERT
  8
17
  2
OCTAGONP
 10
12.4460
 20
27.1780
 30
0.0000
 41
1.4986
 42
1.4986
 43
1.0000
 50
180.0000
  0
INSERT
  8
17
  2
OCTAGONP
 10
9.9060
 20
27.1780
 30
0.0000
 41
1.4986
 42
1.4986
 43
1.0000
 50
180.0000
  0
INSERT
  8
17
  2
OCTAGONP
 10
9.9060
 20
27.1780
 30
0.0000
 41
1.4986
 42
1.4986
 43
1.0000
 50
180.0000
  0
INSERT
  8
17
  2
OCTAGONP
 10
12.4460
 20
24.6380
 30
0.0000
 41
1.4986
 42
1.4986
 43
1.0000
 50
180.0000
  0
INSERT
  8
17
  2
OCTAGONP
 10
12.4460
 20
24.6380
 30
0.0000
 41
1.4986
 42
1.4986
 43
1.0000
 50
180.0000
  0
INSERT
  8
17
  2
OCTAGONP
 10
9.9060
 20
24.6380
 30
0.0000
 41
1.4986
 42
1.4986
 43
1.0000
 50
180.0000
  0
INSERT
  8
17
  2
OCTAGONP
 10
9.9060
 20
24.6380
 30
0.0000
 41
1.4986
 42
1.4986
 43
1.0000
 50
180.0000
  0
INSERT
  8
17
  2
OCTAGONP
 10
12.4460
 20
22.0980
 30
0.0000
 41
1.4986
 42
1.4986
 43
1.0000
 50
180.0000
  0
INSERT
  8
17
  2
OCTAGONP
 10
12.4460
 20
22.0980
 30
0.0000
 41
1.4986
 42
1.4986
 43
1.0000
 50
180.0000
  0
INSERT
  8
17
  2
OCTAGONP
 10
9.9060
 20
22.0980
 30
0.0000
 41
1.4986
 42
1.4986
 43
1.0000
 50
180.0000
  0
INSERT
  8
17
  2
OCTAGONP
 10
9.9060
 20
22.0980
 30
0.0000
 41
1.4986
 42
1.4986
 43
1.0000
 50
180.0000
  0
INSERT
  8
17
  2
OCTAGONP
 10
12.4460
 20
19.5580
 30
0.0000
 41
1.4986
 42
1.4986
 43
1.0000
 50
180.0000
  0
INSERT
  8
17
  2
OCTAGONP
 10
12.4460
 20
19.5580
 30
0.0000
 41
1.4986
 42
1.4986
 43
1.0000
 50
180.0000
  0
INSERT
  8
17
  2
OCTAGONP
 10
9.9060
 20
19.5580
 30
0.0000
 41
1.4986
 42
1.4986
 43
1.0000
 50
180.0000
  0
INSERT
  8
17
  2
OCTAGONP
 10
9.9060
 20
19.5580
 30
0.0000
 41
1.4986
 42
1.4986
 43
1.0000
 50
180.0000
  0
INSERT
  8
17
  2
OCTAGONP
 10
12.4460
 20
17.0180
 30
0.0000
 41
1.4986
 42
1.4986
 43
1.0000
 50
180.0000
  0
INSERT
  8
17
  2
OCTAGONP
 10
12.4460
 20
17.0180
 30
0.0000
 41
1.4986
 42
1.4986
 43
1.0000
 50
180.0000
  0
INSERT
  8
17
  2
OCTAGONP
 10
9.9060
 20
17.0180
 30
0.0000
 41
1.4986
 42
1.4986
 43
1.0000
 50
180.0000
  0
INSERT
  8
17
  2
OCTAGONP
 10
9.9060
 20
17.0180
 30
0.0000
 41
1.4986
 42
1.4986
 43
1.0000
 50
180.0000
  0
INSERT
  8
17
  2
OCTAGONP
 10
12.4460
 20
14.4780
 30
0.0000
 41
1.4986
 42
1.4986
 43
1.0000
 50
180.0000
  0
INSERT
  8
17
  2
OCTAGONP
 10
12.4460
 20
14.4780
 30
0.0000
 41
1.4986
 42
1.4986
 43
1.0000
 50
180.0000
  0
INSERT
  8
17
  2
OCTAGONP
 10
9.9060
 20
14.4780
 30
0.0000
 41
1.4986
 42
1.4986
 43
1.0000
 50
180.0000
  0
INSERT
  8
17
  2
OCTAGONP
 10
9.9060
 20
14.4780
 30
0.0000
 41
1.4986
 42
1.4986
 43
1.0000
 50
180.0000
  0
POLYLINE
  8
22
 66
1
 10
0.0000
 20
0.0000
 30
0.0000
 40
0.0508
 41
0.0508
 70
0
  0
VERTEX
  8
22
 10
42.8308
 20
25.7492
 30
0.0000
  0
VERTEX
  8
22
 10
40.9259
 20
26.2256
 30
0.0000
  0
SEQEND
  8
0
  0
POLYLINE
  8
22
 66
1
 10
0.0000
 20
0.0000
 30
0.0000
 40
0.0254
 41
0.0254
 70
0
  0
VERTEX
  8
22
 10
40.9290
 20
26.2379
 30
0.0000
 42
1.0000
  0
VERTEX
  8
22
 10
40.9228
 20
26.2133
 30
0.0000
  0
SEQEND
  8
0
  0
POLYLINE
  8
22
 66
1
 10
0.0000
 20
0.0000
 30
0.0000
 40
0.0254
 41
0.0254
 70
0
  0
VERTEX
  8
22
 10
42.8277
 20
25.7369
 30
0.0000
 42
1.0000
  0
VERTEX
  8
22
 10
42.8339
 20
25.7615
 30
0.0000
  0
SEQEND
  8
0
  0
POLYLINE
  8
22
 66
1
 10
0.0000
 20
0.0000
 30
0.0000
 40
0.0508
 41
0.0508
 70
0
  0
VERTEX
  8
22
 10
40.9259
 20
26.2256
 30
0.0000
  0
VERTEX
  8
22
 10
42.8308
 20
26.7017
 30
0.0000
  0
SEQEND
  8
0
  0
POLYLINE
  8
22
 66
1
 10
0.0000
 20
0.0000
 30
0.0000
 40
0.0254
 41
0.0254
 70
0
  0
VERTEX
  8
22
 10
42.8339
 20
26.6894
 30
0.0000
 42
1.0000
  0
VERTEX
  8
22
 10
42.8277
 20
26.7140
 30
0.0000
  0
SEQEND
  8
0
  0
POLYLINE
  8
22
 66
1
 10
0.0000
 20
0.0000
 30
0.0000
 40
0.0254
 41
0.0254
 70
0
  0
VERTEX
  8
22
 10
40.9228
 20
26.2379
 30
0.0000
 42
1.0000
  0
VERTEX
  8
22
 10
40.9290
 20
26.2133
 30
0.0000
  0
SEQEND
  8
0
  0
POLYLINE
  8
22
 66
1
 10
0.0000
 20
0.0000
 30
0.0000
 40
0.0508
 41
0.0508
 70
0
  0
VERTEX
  8
22
 10
42.8308
 20
26.7017
 30
0.0000
  0
VERTEX
  8
22
 10
42.8308
 20
25.7492
 30
0.0000
  0
SEQEND
  8
0
  0
POLYLINE
  8
22
 66
1
 10
0.0000
 20
0.0000
 30
0.0000
 40
0.0254
 41
0.0254
 70
0
  0
VERTEX
  8
22
 10
42.8181
 20
25.7492
 30
0.0000
 42
1.0000
  0
VERTEX
  8
22
 10
42.8435
 20
25.7492
 30
0.0000
  0
SEQEND
  8
0
  0
POLYLINE
  8
22
 66
1
 10
0.0000
 20
0.0000
 30
0.0000
 40
0.0254
 41
0.0254
 70
0
  0
VERTEX
  8
22
 10
42.8435
 20
26.7017
 30
0.0000
 42
1.0000
  0
VERTEX
  8
22
 10
42.8181
 20
26.7017
 30
0.0000
  0
SEQEND
  8
0
  0
POLYLINE
  8
22
 66
1
 10
0.0000
 20
0.0000
 30
0.0000
 40
0.0508
 41
0.0508
 70
0
  0
VERTEX
  8
22
 10
40.9702
 20
26.2145
 30
0.0000
  0
VERTEX
  8
22
 10
40.9702
 20
26.2367
 30
0.0000
  0
SEQEND
  8
0
  0
POLYLINE
  8
22
 66
1
 10
0.0000
 20
0.0000
 30
0.0000
 40
0.0254
 41
0.0254
 70
0
  0
VERTEX
  8
22
 10
40.9829
 20
26.2367
 30
0.0000
 42
1.0000
  0
VERTEX
  8
22
 10
40.9575
 20
26.2367
 30
0.0000
  0
SEQEND
  8
0
  0
POLYLINE
  8
22
 66
1
 10
0.0000
 20
0.0000
 30
0.0000
 40
0.0254
 41
0.0254
 70
0
  0
VERTEX
  8
22
 10
40.9575
 20
26.2145
 30
0.0000
 42
1.0000
  0
VERTEX
  8
22
 10
40.9829
 20
26.2145
 30
0.0000
  0
SEQEND
  8
0
  0
POLYLINE
  8
22
 66
1
 10
0.0000
 20
0.0000
 30
0.0000
 40
0.0508
 41
0.0508
 70
0
  0
VERTEX
  8
22
 10
41.0210
 20
26.2018
 30
0.0000
  0
VERTEX
  8
22
 10
41.0210
 20
26.2494
 30
0.0000
  0
SEQEND
  8
0
  0
POLYLINE
  8
22
 66
1
 10
0.0000
 20
0.0000
 30
0.0000
 40
0.0254
 41
0.0254
 70
0
  0
VERTEX
  8
22
 10
41.0337
 20
26.2494
 30
0.0000
 42
1.0000
  0
VERTEX
  8
22
 10
41.0083
 20
26.2494
 30
0.0000
  0
SEQEND
  8
0
  0
POLYLINE
  8
22
 66
1
 10
0.0000
 20
0.0000
 30
0.0000
 40
0.0254
 41
0.0254
 70
0
  0
VERTEX
  8
22
 10
41.0083
 20
26.2018
 30
0.0000
 42
1.0000
  0
VERTEX
  8
22
 10
41.0337
 20
26.2018
 30
0.0000
  0
SEQEND
  8
0
  0
POLYLINE
  8
22
 66
1
 10
0.0000
 20
0.0000
 30
0.0000
 40
0.0508
 41
0.0508
 70
0
  0
VERTEX
  8
22
 10
41.0718
 20
26.1891
 30
0.0000
  0
VERTEX
  8
22
 10
41.0718
 20
26.2621
 30
0.0000
  0
SEQEND
  8
0
  0
POLYLINE
  8
22
 66
1
 10
0.0000
 20
0.0000
 30
0.0000
 40
0.0254
 41
0.0254
 70
0
  0
VERTEX
  8
22
 10
41.0845
 20
26.2621
 30
0.0000
 42
1.0000
  0
VERTEX
  8
22
 10
41.0591
 20
26.2621
 30
0.0000
  0
SEQEND
  8
0
  0
POLYLINE
  8
22
 66
1
 10
0.0000
 20
0.0000
 30
0.0000
 40
0.0254
 41
0.0254
 70
0
  0
VERTEX
  8
22
 10
41.0591
 20
26.1891
 30
0.0000
 42
1.0000
  0
VERTEX
  8
22
 10
41.0845
 20
26.1891
 30
0.0000
  0
SEQEND
  8
0
  0
POLYLINE
  8
22
 66
1
 10
0.0000
 20
0.0000
 30
0.0000
 40
0.0508
 41
0.0508
 70
0
  0
VERTEX
  8
22
 10
41.1226
 20
26.1764
 30
0.0000
  0
VERTEX
  8
22
 10
41.1226
 20
26.2748
 30
0.0000
  0
SEQEND
  8
0
  0
POLYLINE
  8
22
 66
1
 10
0.0000
 20
0.0000
 30
0.0000
 40
0.0254
 41
0.0254
 70
0
  0
VERTEX
  8
22
 10
41.1353
 20
26.2748
 30
0.0000
 42
1.0000
  0
VERTEX
  8
22
 10
41.1099
 20
26.2748
 30
0.0000
  0
SEQEND
  8
0
  0
POLYLINE
  8
22
 66
1
 10
0.0000
 20
0.0000
 30
0.0000
 40
0.0254
 41
0.0254
 70
0
  0
VERTEX
  8
22
 10
41.1099
 20
26.1764
 30
0.0000
 42
1.0000
  0
VERTEX
  8
22
 10
41.1353
 20
26.1764
 30
0.0000
  0
SEQEND
  8
0
  0
POLYLINE
  8
22
 66
1
 10
0.0000
 20
0.0000
 30
0.0000
 40
0.0508
 41
0.0508
 70
0
  0
VERTEX
  8
22
 10
41.1734
 20
26.1637
 30
0.0000
  0
VERTEX
  8
22
 10
41.1734
 20
26.2875
 30
0.0000
  0
SEQEND
  8
0
  0
POLYLINE
  8
22
 66
1
 10
0.0000
 20
0.0000
 30
0.0000
 40
0.0254
 41
0.0254
 70
0
  0
VERTEX
  8
22
 10
41.1861
 20
26.2875
 30
0.0000
 42
1.0000
  0
VERTEX
  8
22
 10
41.1607
 20
26.2875
 30
0.0000
  0
SEQEND
  8
0
  0
POLYLINE
  8
22
 66
1
 10
0.0000
 20
0.0000
 30
0.0000
 40
0.0254
 41
0.0254
 70
0
  0
VERTEX
  8
22
 10
41.1607
 20
26.1637
 30
0.0000
 42
1.0000
  0
VERTEX
  8
22
 10
41.1861
 20
26.1637
 30
0.0000
  0
SEQEND
  8
0
  0
POLYLINE
  8
22
 66
1
 10
0.0000
 20
0.0000
 30
0.0000
 40
0.0508
 41
0.0508
 70
0
  0
VERTEX
  8
22
 10
41.2242
 20
26.1510
 30
0.0000
  0
VERTEX
  8
22
 10
41.2242
 20
26.3002
 30
0.0000
  0
SEQEND
  8
0
  0
POLYLINE
  8
22
 66
1
 10
0.0000
 20
0.0000
 30
0.0000
 40
0.0254
 41
0.0254
 70
0
  0
VERTEX
  8
22
 10
41.2369
 20
26.3002
 30
0.0000
 42
1.0000
  0
VERTEX
  8
22
 10
41.2115
 20
26.3002
 30
0.0000
  0
SEQEND
  8
0
  0
POLYLINE
  8
22
 66
1
 10
0.0000
 20
0.0000
 30
0.0000
 40
0.0254
 41
0.0254
 70
0
  0
VERTEX
  8
22
 10
41.2115
 20
26.1510
 30
0.0000
 42
1.0000
  0
VERTEX
  8
22
 10
41.2369
 20
26.1510
 30
0.0000
  0
SEQEND
  8
0
  0
POLYLINE
  8
22
 66
1
 10
0.0000
 20
0.0000
 30
0.0000
 40
0.0508
 41
0.0508
 70
0
  0
VERTEX
  8
22
 10
41.2750
 20
26.1383
 30
0.0000
  0
VERTEX
  8
22
 10
41.2750
 20
26.3129
 30
0.0000
  0
SEQEND
  8
0
  0
POLYLINE
  8
22
 66
1
 10
0.0000
 20
0.0000
 30
0.0000
 40
0.0254
 41
0.0254
 70
0
  0
VERTEX
  8
22
 10
41.2877
 20
26.3129
 30
0.0000
 42
1.0000
  0
VERTEX
  8
22
 10
41.2623
 20
26.3129
 30
0.0000
  0
SEQEND
  8
0
  0
POLYLINE
  8
22
 66
1
 10
0.0000
 20
0.0000
 30
0.0000
 40
0.0254
 41
0.0254
 70
0
  0
VERTEX
  8
22
 10
41.2623
 20
26.1383
 30
0.0000
 42
1.0000
  0
VERTEX
  8
22
 10
41.2877
 20
26.1383
 30
0.0000
  0
SEQEND
  8
0
  0
POLYLINE
  8
22
 66
1
 10
0.0000
 20
0.0000
 30
0.0000
 40
0.0508
 41
0.0508
 70
0
  0
VERTEX
  8
22
 10
41.3258
 20
26.1256
 30
0.0000
  0
VERTEX
  8
22
 10
41.3258
 20
26.3255
 30
0.0000
  0
SEQEND
  8
0
  0
POLYLINE
  8
22
 66
1
 10
0.0000
 20
0.0000
 30
0.0000
 40
0.0254
 41
0.0254
 70
0
  0
VERTEX
  8
22
 10
41.3385
 20
26.3255
 30
0.0000
 42
1.0000
  0
VERTEX
  8
22
 10
41.3131
 20
26.3255
 30
0.0000
  0
SEQEND
  8
0
  0
POLYLINE
  8
22
 66
1
 10
0.0000
 20
0.0000
 30
0.0000
 40
0.0254
 41
0.0254
 70
0
  0
VERTEX
  8
22
 10
41.3131
 20
26.1256
 30
0.0000
 42
1.0000
  0
VERTEX
  8
22
 10
41.3385
 20
26.1256
 30
0.0000
  0
SEQEND
  8
0
  0
POLYLINE
  8
22
 66
1
 10
0.0000
 20
0.0000
 30
0.0000
 40
0.0508
 41
0.0508
 70
0
  0
VERTEX
  8
22
 10
41.3766
 20
26.1129
 30
0.0000
  0
VERTEX
  8
22
 10
41.3766
 20
26.3382
 30
0.0000
  0
SEQEND
  8
0
  0
POLYLINE
  8
22
 66
1
 10
0.0000
 20
0.0000
 30
0.0000
 40
0.0254
 41
0.0254
 70
0
  0
VERTEX
  8
22
 10
41.3893
 20
26.3382
 30
0.0000
 42
1.0000
  0
VERTEX
  8
22
 10
41.3639
 20
26.3382
 30
0.0000
  0
SEQEND
  8
0
  0
POLYLINE
  8
22
 66
1
 10
0.0000
 20
0.0000
 30
0.0000
 40
0.0254
 41
0.0254
 70
0
  0
VERTEX
  8
22
 10
41.3639
 20
26.1129
 30
0.0000
 42
1.0000
  0
VERTEX
  8
22
 10
41.3893
 20
26.1129
 30
0.0000
  0
SEQEND
  8
0
  0
POLYLINE
  8
22
 66
1
 10
0.0000
 20
0.0000
 30
0.0000
 40
0.0508
 41
0.0508
 70
0
  0
VERTEX
  8
22
 10
41.4274
 20
26.1002
 30
0.0000
  0
VERTEX
  8
22
 10
41.4274
 20
26.3509
 30
0.0000
  0
SEQEND
  8
0
  0
POLYLINE
  8
22
 66
1
 10
0.0000
 20
0.0000
 30
0.0000
 40
0.0254
 41
0.0254
 70
0
  0
VERTEX
  8
22
 10
41.4401
 20
26.3509
 30
0.0000
 42
1.0000
  0
VERTEX
  8
22
 10
41.4147
 20
26.3509
 30
0.0000
  0
SEQEND
  8
0
  0
POLYLINE
  8
22
 66
1
 10
0.0000
 20
0.0000
 30
0.0000
 40
0.0254
 41
0.0254
 70
0
  0
VERTEX
  8
22
 10
41.4147
 20
26.1002
 30
0.0000
 42
1.0000
  0
VERTEX
  8
22
 10
41.4401
 20
26.1002
 30
0.0000
  0
SEQEND
  8
0
  0
POLYLINE
  8
22
 66
1
 10
0.0000
 20
0.0000
 30
0.0000
 40
0.0508
 41
0.0508
 70
0
  0
VERTEX
  8
22
 10
41.4782
 20
26.0875
 30
0.0000
  0
VERTEX
  8
22
 10
41.4782
 20
26.3636
 30
0.0000
  0
SEQEND
  8
0
  0
POLYLINE
  8
22
 66
1
 10
0.0000
 20
0.0000
 30
0.0000
 40
0.0254
 41
0.0254
 70
0
  0
VERTEX
  8
22
 10
41.4909
 20
26.3636
 30
0.0000
 42
1.0000
  0
VERTEX
  8
22
 10
41.4655
 20
26.3636
 30
0.0000
  0
SEQEND
  8
0
  0
POLYLINE
  8
22
 66
1
 10
0.0000
 20
0.0000
 30
0.0000
 40
0.0254
 41
0.0254
 70
0
  0
VERTEX
  8
22
 10
41.4655
 20
26.0875
 30
0.0000
 42
1.0000
  0
VERTEX
  8
22
 10
41.4909
 20
26.0875
 30
0.0000
  0
SEQEND
  8
0
  0
POLYLINE
  8
22
 66
1
 10
0.0000
 20
0.0000
 30
0.0000
 40
0.0508
 41
0.0508
 70
0
  0
VERTEX
  8
22
 10
41.5290
 20
26.0748
 30
0.0000
  0
VERTEX
  8
22
 10
41.5290
 20
26.3763
 30
0.0000
  0
SEQEND
  8
0
  0
POLYLINE
  8
22
 66
1
 10
0.0000
 20
0.0000
 30
0.0000
 40
0.0254
 41
0.0254
 70
0
  0
VERTEX
  8
22
 10
41.5417
 20
26.3763
 30
0.0000
 42
1.0000
  0
VERTEX
  8
22
 10
41.5163
 20
26.3763
 30
0.0000
  0
SEQEND
  8
0
  0
POLYLINE
  8
22
 66
1
 10
0.0000
 20
0.0000
 30
0.0000
 40
0.0254
 41
0.0254
 70
0
  0
VERTEX
  8
22
 10
41.5163
 20
26.0748
 30
0.0000
 42
1.0000
  0
VERTEX
  8
22
 10
41.5417
 20
26.0748
 30
0.0000
  0
SEQEND
  8
0
  0
POLYLINE
  8
22
 66
1
 10
0.0000
 20
0.0000
 30
0.0000
 40
0.0508
 41
0.0508
 70
0
  0
VERTEX
  8
22
 10
41.5798
 20
26.0621
 30
0.0000
  0
VERTEX
  8
22
 10
41.5798
 20
26.3890
 30
0.0000
  0
SEQEND
  8
0
  0
POLYLINE
  8
22
 66
1
 10
0.0000
 20
0.0000
 30
0.0000
 40
0.0254
 41
0.0254
 70
0
  0
VERTEX
  8
22
 10
41.5925
 20
26.3890
 30
0.0000
 42
1.0000
  0
VERTEX
  8
22
 10
41.5671
 20
26.3890
 30
0.0000
  0
SEQEND
  8
0
  0
POLYLINE
  8
22
 66
1
 10
0.0000
 20
0.0000
 30
0.0000
 40
0.0254
 41
0.0254
 70
0
  0
VERTEX
  8
22
 10
41.5671
 20
26.0621
 30
0.0000
 42
1.0000
  0
VERTEX
  8
22
 10
41.5925
 20
26.0621
 30
0.0000
  0
SEQEND
  8
0
  0
POLYLINE
  8
22
 66
1
 10
0.0000
 20
0.0000
 30
0.0000
 40
0.0508
 41
0.0508
 70
0
  0
VERTEX
  8
22
 10
41.6306
 20
26.0494
 30
0.0000
  0
VERTEX
  8
22
 10
41.6306
 20
26.4017
 30
0.0000
  0
SEQEND
  8
0
  0
POLYLINE
  8
22
 66
1
 10
0.0000
 20
0.0000
 30
0.0000
 40
0.0254
 41
0.0254
 70
0
  0
VERTEX
  8
22
 10
41.6433
 20
26.4017
 30
0.0000
 42
1.0000
  0
VERTEX
  8
22
 10
41.6179
 20
26.4017
 30
0.0000
  0
SEQEND
  8
0
  0
POLYLINE
  8
22
 66
1
 10
0.0000
 20
0.0000
 30
0.0000
 40
0.0254
 41
0.0254
 70
0
  0
VERTEX
  8
22
 10
41.6179
 20
26.0494
 30
0.0000
 42
1.0000
  0
VERTEX
  8
22
 10
41.6433
 20
26.0494
 30
0.0000
  0
SEQEND
  8
0
  0
POLYLINE
  8
22
 66
1
 10
0.0000
 20
0.0000
 30
0.0000
 40
0.0508
 41
0.0508
 70
0
  0
VERTEX
  8
22
 10
41.6814
 20
26.0367
 30
0.0000
  0
VERTEX
  8
22
 10
41.6814
 20
26.4144
 30
0.0000
  0
SEQEND
  8
0
  0
POLYLINE
  8
22
 66
1
 10
0.0000
 20
0.0000
 30
0.0000
 40
0.0254
 41
0.0254
 70
0
  0
VERTEX
  8
22
 10
41.6941
 20
26.4144
 30
0.0000
 42
1.0000
  0
VERTEX
  8
22
 10
41.6687
 20
26.4144
 30
0.0000
  0
SEQEND
  8
0
  0
POLYLINE
  8
22
 66
1
 10
0.0000
 20
0.0000
 30
0.0000
 40
0.0254
 41
0.0254
 70
0
  0
VERTEX
  8
22
 10
41.6687
 20
26.0367
 30
0.0000
 42
1.0000
  0
VERTEX
  8
22
 10
41.6941
 20
26.0367
 30
0.0000
  0
SEQEND
  8
0
  0
POLYLINE
  8
22
 66
1
 10
0.0000
 20
0.0000
 30
0.0000
 40
0.0508
 41
0.0508
 70
0
  0
VERTEX
  8
22
 10
41.7322
 20
26.0240
 30
0.0000
  0
VERTEX
  8
22
 10
41.7322
 20
26.4271
 30
0.0000
  0
SEQEND
  8
0
  0
POLYLINE
  8
22
 66
1
 10
0.0000
 20
0.0000
 30
0.0000
 40
0.0254
 41
0.0254
 70
0
  0
VERTEX
  8
22
 10
41.7449
 20
26.4271
 30
0.0000
 42
1.0000
  0
VERTEX
  8
22
 10
41.7195
 20
26.4271
 30
0.0000
  0
SEQEND
  8
0
  0
POLYLINE
  8
22
 66
1
 10
0.0000
 20
0.0000
 30
0.0000
 40
0.0254
 41
0.0254
 70
0
  0
VERTEX
  8
22
 10
41.7195
 20
26.0240
 30
0.0000
 42
1.0000
  0
VERTEX
  8
22
 10
41.7449
 20
26.0240
 30
0.0000
  0
SEQEND
  8
0
  0
POLYLINE
  8
22
 66
1
 10
0.0000
 20
0.0000
 30
0.0000
 40
0.0508
 41
0.0508
 70
0
  0
VERTEX
  8
22
 10
41.7830
 20
26.0112
 30
0.0000
  0
VERTEX
  8
22
 10
41.7830
 20
26.4398
 30
0.0000
  0
SEQEND
  8
0
  0
POLYLINE
  8
22
 66
1
 10
0.0000
 20
0.0000
 30
0.0000
 40
0.0254
 41
0.0254
 70
0
  0
VERTEX
  8
22
 10
41.7957
 20
26.4398
 30
0.0000
 42
1.0000
  0
VERTEX
  8
22
 10
41.7703
 20
26.4398
 30
0.0000
  0
SEQEND
  8
0
  0
POLYLINE
  8
22
 66
1
 10
0.0000
 20
0.0000
 30
0.0000
 40
0.0254
 41
0.0254
 70
0
  0
VERTEX
  8
22
 10
41.7703
 20
26.0112
 30
0.0000
 42
1.0000
  0
VERTEX
  8
22
 10
41.7957
 20
26.0112
 30
0.0000
  0
SEQEND
  8
0
  0
POLYLINE
  8
22
 66
1
 10
0.0000
 20
0.0000
 30
0.0000
 40
0.0508
 41
0.0508
 70
0
  0
VERTEX
  8
22
 10
41.8338
 20
25.9985
 30
0.0000
  0
VERTEX
  8
22
 10
41.8338
 20
26.4525
 30
0.0000
  0
SEQEND
  8
0
  0
POLYLINE
  8
22
 66
1
 10
0.0000
 20
0.0000
 30
0.0000
 40
0.0254
 41
0.0254
 70
0
  0
VERTEX
  8
22
 10
41.8465
 20
26.4525
 30
0.0000
 42
1.0000
  0
VERTEX
  8
22
 10
41.8211
 20
26.4525
 30
0.0000
  0
SEQEND
  8
0
  0
POLYLINE
  8
22
 66
1
 10
0.0000
 20
0.0000
 30
0.0000
 40
0.0254
 41
0.0254
 70
0
  0
VERTEX
  8
22
 10
41.8211
 20
25.9985
 30
0.0000
 42
1.0000
  0
VERTEX
  8
22
 10
41.8465
 20
25.9985
 30
0.0000
  0
SEQEND
  8
0
  0
POLYLINE
  8
22
 66
1
 10
0.0000
 20
0.0000
 30
0.0000
 40
0.0508
 41
0.0508
 70
0
  0
VERTEX
  8
22
 10
41.8846
 20
25.9858
 30
0.0000
  0
VERTEX
  8
22
 10
41.8846
 20
26.4652
 30
0.0000
  0
SEQEND
  8
0
  0
POLYLINE
  8
22
 66
1
 10
0.0000
 20
0.0000
 30
0.0000
 40
0.0254
 41
0.0254
 70
0
  0
VERTEX
  8
22
 10
41.8973
 20
26.4652
 30
0.0000
 42
1.0000
  0
VERTEX
  8
22
 10
41.8719
 20
26.4652
 30
0.0000
  0
SEQEND
  8
0
  0
POLYLINE
  8
22
 66
1
 10
0.0000
 20
0.0000
 30
0.0000
 40
0.0254
 41
0.0254
 70
0
  0
VERTEX
  8
22
 10
41.8719
 20
25.9858
 30
0.0000
 42
1.0000
  0
VERTEX
  8
22
 10
41.8973
 20
25.9858
 30
0.0000
  0
SEQEND
  8
0
  0
POLYLINE
  8
22
 66
1
 10
0.0000
 20
0.0000
 30
0.0000
 40
0.0508
 41
0.0508
 70
0
  0
VERTEX
  8
22
 10
41.9354
 20
25.9731
 30
0.0000
  0
VERTEX
  8
22
 10
41.9354
 20
26.4779
 30
0.0000
  0
SEQEND
  8
0
  0
POLYLINE
  8
22
 66
1
 10
0.0000
 20
0.0000
 30
0.0000
 40
0.0254
 41
0.0254
 70
0
  0
VERTEX
  8
22
 10
41.9481
 20
26.4779
 30
0.0000
 42
1.0000
  0
VERTEX
  8
22
 10
41.9227
 20
26.4779
 30
0.0000
  0
SEQEND
  8
0
  0
POLYLINE
  8
22
 66
1
 10
0.0000
 20
0.0000
 30
0.0000
 40
0.0254
 41
0.0254
 70
0
  0
VERTEX
  8
22
 10
41.9227
 20
25.9731
 30
0.0000
 42
1.0000
  0
VERTEX
  8
22
 10
41.9481
 20
25.9731
 30
0.0000
  0
SEQEND
  8
0
  0
POLYLINE
  8
22
 66
1
 10
0.0000
 20
0.0000
 30
0.0000
 40
0.0508
 41
0.0508
 70
0
  0
VERTEX
  8
22
 10
41.9862
 20
25.9604
 30
0.0000
  0
VERTEX
  8
22
 10
41.9862
 20
26.4906
 30
0.0000
  0
SEQEND
  8
0
  0
POLYLINE
  8
22
 66
1
 10
0.0000
 20
0.0000
 30
0.0000
 40
0.0254
 41
0.0254
 70
0
  0
VERTEX
  8
22
 10
41.9989
 20
26.4906
 30
0.0000
 42
1.0000
  0
VERTEX
  8
22
 10
41.9735
 20
26.4906
 30
0.0000
  0
SEQEND
  8
0
  0
POLYLINE
  8
22
 66
1
 10
0.0000
 20
0.0000
 30
0.0000
 40
0.0254
 41
0.0254
 70
0
  0
VERTEX
  8
22
 10
41.9735
 20
25.9604
 30
0.0000
 42
1.0000
  0
VERTEX
  8
22
 10
41.9989
 20
25.9604
 30
0.0000
  0
SEQEND
  8
0
  0
POLYLINE
  8
22
 66
1
 10
0.0000
 20
0.0000
 30
0.0000
 40
0.0508
 41
0.0508
 70
0
  0
VERTEX
  8
22
 10
42.0370
 20
25.9477
 30
0.0000
  0
VERTEX
  8
22
 10
42.0370
 20
26.5033
 30
0.0000
  0
SEQEND
  8
0
  0
POLYLINE
  8
22
 66
1
 10
0.0000
 20
0.0000
 30
0.0000
 40
0.0254
 41
0.0254
 70
0
  0
VERTEX
  8
22
 10
42.0497
 20
26.5033
 30
0.0000
 42
1.0000
  0
VERTEX
  8
22
 10
42.0243
 20
26.5033
 30
0.0000
  0
SEQEND
  8
0
  0
POLYLINE
  8
22
 66
1
 10
0.0000
 20
0.0000
 30
0.0000
 40
0.0254
 41
0.0254
 70
0
  0
VERTEX
  8
22
 10
42.0243
 20
25.9477
 30
0.0000
 42
1.0000
  0
VERTEX
  8
22
 10
42.0497
 20
25.9477
 30
0.0000
  0
SEQEND
  8
0
  0
POLYLINE
  8
22
 66
1
 10
0.0000
 20
0.0000
 30
0.0000
 40
0.0508
 41
0.0508
 70
0
  0
VERTEX
  8
22
 10
42.0878
 20
25.9350
 30
0.0000
  0
VERTEX
  8
22
 10
42.0878
 20
26.5160
 30
0.0000
  0
SEQEND
  8
0
  0
POLYLINE
  8
22
 66
1
 10
0.0000
 20
0.0000
 30
0.0000
 40
0.0254
 41
0.0254
 70
0
  0
VERTEX
  8
22
 10
42.1005
 20
26.5160
 30
0.0000
 42
1.0000
  0
VERTEX
  8
22
 10
42.0751
 20
26.5160
 30
0.0000
  0
SEQEND
  8
0
  0
POLYLINE
  8
22
 66
1
 10
0.0000
 20
0.0000
 30
0.0000
 40
0.0254
 41
0.0254
 70
0
  0
VERTEX
  8
22
 10
42.0751
 20
25.9350
 30
0.0000
 42
1.0000
  0
VERTEX
  8
22
 10
42.1005
 20
25.9350
 30
0.0000
  0
SEQEND
  8
0
  0
POLYLINE
  8
22
 66
1
 10
0.0000
 20
0.0000
 30
0.0000
 40
0.0508
 41
0.0508
 70
0
  0
VERTEX
  8
22
 10
42.1386
 20
25.9223
 30
0.0000
  0
VERTEX
  8
22
 10
42.1386
 20
26.5287
 30
0.0000
  0
SEQEND
  8
0
  0
POLYLINE
  8
22
 66
1
 10
0.0000
 20
0.0000
 30
0.0000
 40
0.0254
 41
0.0254
 70
0
  0
VERTEX
  8
22
 10
42.1513
 20
26.5287
 30
0.0000
 42
1.0000
  0
VERTEX
  8
22
 10
42.1259
 20
26.5287
 30
0.0000
  0
SEQEND
  8
0
  0
POLYLINE
  8
22
 66
1
 10
0.0000
 20
0.0000
 30
0.0000
 40
0.0254
 41
0.0254
 70
0
  0
VERTEX
  8
22
 10
42.1259
 20
25.9223
 30
0.0000
 42
1.0000
  0
VERTEX
  8
22
 10
42.1513
 20
25.9223
 30
0.0000
  0
SEQEND
  8
0
  0
POLYLINE
  8
22
 66
1
 10
0.0000
 20
0.0000
 30
0.0000
 40
0.0508
 41
0.0508
 70
0
  0
VERTEX
  8
22
 10
42.1894
 20
25.9096
 30
0.0000
  0
VERTEX
  8
22
 10
42.1894
 20
26.5414
 30
0.0000
  0
SEQEND
  8
0
  0
POLYLINE
  8
22
 66
1
 10
0.0000
 20
0.0000
 30
0.0000
 40
0.0254
 41
0.0254
 70
0
  0
VERTEX
  8
22
 10
42.2021
 20
26.5414
 30
0.0000
 42
1.0000
  0
VERTEX
  8
22
 10
42.1767
 20
26.5414
 30
0.0000
  0
SEQEND
  8
0
  0
POLYLINE
  8
22
 66
1
 10
0.0000
 20
0.0000
 30
0.0000
 40
0.0254
 41
0.0254
 70
0
  0
VERTEX
  8
22
 10
42.1767
 20
25.9096
 30
0.0000
 42
1.0000
  0
VERTEX
  8
22
 10
42.2021
 20
25.9096
 30
0.0000
  0
SEQEND
  8
0
  0
POLYLINE
  8
22
 66
1
 10
0.0000
 20
0.0000
 30
0.0000
 40
0.0508
 41
0.0508
 70
0
  0
VERTEX
  8
22
 10
42.2402
 20
25.8969
 30
0.0000
  0
VERTEX
  8
22
 10
42.2402
 20
26.5541
 30
0.0000
  0
SEQEND
  8
0
  0
POLYLINE
  8
22
 66
1
 10
0.0000
 20
0.0000
 30
0.0000
 40
0.0254
 41
0.0254
 70
0
  0
VERTEX
  8
22
 10
42.2529
 20
26.5541
 30
0.0000
 42
1.0000
  0
VERTEX
  8
22
 10
42.2275
 20
26.5541
 30
0.0000
  0
SEQEND
  8
0
  0
POLYLINE
  8
22
 66
1
 10
0.0000
 20
0.0000
 30
0.0000
 40
0.0254
 41
0.0254
 70
0
  0
VERTEX
  8
22
 10
42.2275
 20
25.8969
 30
0.0000
 42
1.0000
  0
VERTEX
  8
22
 10
42.2529
 20
25.8969
 30
0.0000
  0
SEQEND
  8
0
  0
POLYLINE
  8
22
 66
1
 10
0.0000
 20
0.0000
 30
0.0000
 40
0.0508
 41
0.0508
 70
0
  0
VERTEX
  8
22
 10
42.2910
 20
25.8842
 30
0.0000
  0
VERTEX
  8
22
 10
42.2910
 20
26.5668
 30
0.0000
  0
SEQEND
  8
0
  0
POLYLINE
  8
22
 66
1
 10
0.0000
 20
0.0000
 30
0.0000
 40
0.0254
 41
0.0254
 70
0
  0
VERTEX
  8
22
 10
42.3037
 20
26.5668
 30
0.0000
 42
1.0000
  0
VERTEX
  8
22
 10
42.2783
 20
26.5668
 30
0.0000
  0
SEQEND
  8
0
  0
POLYLINE
  8
22
 66
1
 10
0.0000
 20
0.0000
 30
0.0000
 40
0.0254
 41
0.0254
 70
0
  0
VERTEX
  8
22
 10
42.2783
 20
25.8842
 30
0.0000
 42
1.0000
  0
VERTEX
  8
22
 10
42.3037
 20
25.8842
 30
0.0000
  0
SEQEND
  8
0
  0
POLYLINE
  8
22
 66
1
 10
0.0000
 20
0.0000
 30
0.0000
 40
0.0508
 41
0.0508
 70
0
  0
VERTEX
  8
22
 10
42.3418
 20
25.8715
 30
0.0000
  0
VERTEX
  8
22
 10
42.3418
 20
26.5795
 30
0.0000
  0
SEQEND
  8
0
  0
POLYLINE
  8
22
 66
1
 10
0.0000
 20
0.0000
 30
0.0000
 40
0.0254
 41
0.0254
 70
0
  0
VERTEX
  8
22
 10
42.3545
 20
26.5795
 30
0.0000
 42
1.0000
  0
VERTEX
  8
22
 10
42.3291
 20
26.5795
 30
0.0000
  0
SEQEND
  8
0
  0
POLYLINE
  8
22
 66
1
 10
0.0000
 20
0.0000
 30
0.0000
 40
0.0254
 41
0.0254
 70
0
  0
VERTEX
  8
22
 10
42.3291
 20
25.8715
 30
0.0000
 42
1.0000
  0
VERTEX
  8
22
 10
42.3545
 20
25.8715
 30
0.0000
  0
SEQEND
  8
0
  0
POLYLINE
  8
22
 66
1
 10
0.0000
 20
0.0000
 30
0.0000
 40
0.0508
 41
0.0508
 70
0
  0
VERTEX
  8
22
 10
42.3926
 20
25.8588
 30
0.0000
  0
VERTEX
  8
22
 10
42.3926
 20
26.5922
 30
0.0000
  0
SEQEND
  8
0
  0
POLYLINE
  8
22
 66
1
 10
0.0000
 20
0.0000
 30
0.0000
 40
0.0254
 41
0.0254
 70
0
  0
VERTEX
  8
22
 10
42.4053
 20
26.5922
 30
0.0000
 42
1.0000
  0
VERTEX
  8
22
 10
42.3799
 20
26.5922
 30
0.0000
  0
SEQEND
  8
0
  0
POLYLINE
  8
22
 66
1
 10
0.0000
 20
0.0000
 30
0.0000
 40
0.0254
 41
0.0254
 70
0
  0
VERTEX
  8
22
 10
42.3799
 20
25.8588
 30
0.0000
 42
1.0000
  0
VERTEX
  8
22
 10
42.4053
 20
25.8588
 30
0.0000
  0
SEQEND
  8
0
  0
POLYLINE
  8
22
 66
1
 10
0.0000
 20
0.0000
 30
0.0000
 40
0.0508
 41
0.0508
 70
0
  0
VERTEX
  8
22
 10
42.4434
 20
25.8461
 30
0.0000
  0
VERTEX
  8
22
 10
42.4434
 20
26.6049
 30
0.0000
  0
SEQEND
  8
0
  0
POLYLINE
  8
22
 66
1
 10
0.0000
 20
0.0000
 30
0.0000
 40
0.0254
 41
0.0254
 70
0
  0
VERTEX
  8
22
 10
42.4561
 20
26.6049
 30
0.0000
 42
1.0000
  0
VERTEX
  8
22
 10
42.4307
 20
26.6049
 30
0.0000
  0
SEQEND
  8
0
  0
POLYLINE
  8
22
 66
1
 10
0.0000
 20
0.0000
 30
0.0000
 40
0.0254
 41
0.0254
 70
0
  0
VERTEX
  8
22
 10
42.4307
 20
25.8461
 30
0.0000
 42
1.0000
  0
VERTEX
  8
22
 10
42.4561
 20
25.8461
 30
0.0000
  0
SEQEND
  8
0
  0
POLYLINE
  8
22
 66
1
 10
0.0000
 20
0.0000
 30
0.0000
 40
0.0508
 41
0.0508
 70
0
  0
VERTEX
  8
22
 10
42.4942
 20
25.8334
 30
0.0000
  0
VERTEX
  8
22
 10
42.4942
 20
26.6176
 30
0.0000
  0
SEQEND
  8
0
  0
POLYLINE
  8
22
 66
1
 10
0.0000
 20
0.0000
 30
0.0000
 40
0.0254
 41
0.0254
 70
0
  0
VERTEX
  8
22
 10
42.5069
 20
26.6176
 30
0.0000
 42
1.0000
  0
VERTEX
  8
22
 10
42.4815
 20
26.6176
 30
0.0000
  0
SEQEND
  8
0
  0
POLYLINE
  8
22
 66
1
 10
0.0000
 20
0.0000
 30
0.0000
 40
0.0254
 41
0.0254
 70
0
  0
VERTEX
  8
22
 10
42.4815
 20
25.8334
 30
0.0000
 42
1.0000
  0
VERTEX
  8
22
 10
42.5069
 20
25.8334
 30
0.0000
  0
SEQEND
  8
0
  0
POLYLINE
  8
22
 66
1
 10
0.0000
 20
0.0000
 30
0.0000
 40
0.0508
 41
0.0508
 70
0
  0
VERTEX
  8
22
 10
42.5450
 20
25.8207
 30
0.0000
  0
VERTEX
  8
22
 10
42.5450
 20
26.6303
 30
0.0000
  0
SEQEND
  8
0
  0
POLYLINE
  8
22
 66
1
 10
0.0000
 20
0.0000
 30
0.0000
 40
0.0254
 41
0.0254
 70
0
  0
VERTEX
  8
22
 10
42.5577
 20
26.6303
 30
0.0000
 42
1.0000
  0
VERTEX
  8
22
 10
42.5323
 20
26.6303
 30
0.0000
  0
SEQEND
  8
0
  0
POLYLINE
  8
22
 66
1
 10
0.0000
 20
0.0000
 30
0.0000
 40
0.0254
 41
0.0254
 70
0
  0
VERTEX
  8
22
 10
42.5323
 20
25.8207
 30
0.0000
 42
1.0000
  0
VERTEX
  8
22
 10
42.5577
 20
25.8207
 30
0.0000
  0
SEQEND
  8
0
  0
POLYLINE
  8
22
 66
1
 10
0.0000
 20
0.0000
 30
0.0000
 40
0.0508
 41
0.0508
 70
0
  0
VERTEX
  8
22
 10
42.5958
 20
25.8080
 30
0.0000
  0
VERTEX
  8
22
 10
42.5958
 20
26.6430
 30
0.0000
  0
SEQEND
  8
0
  0
POLYLINE
  8
22
 66
1
 10
0.0000
 20
0.0000
 30
0.0000
 40
0.0254
 41
0.0254
 70
0
  0
VERTEX
  8
22
 10
42.6085
 20
26.6430
 30
0.0000
 42
1.0000
  0
VERTEX
  8
22
 10
42.5831
 20
26.6430
 30
0.0000
  0
SEQEND
  8
0
  0
POLYLINE
  8
22
 66
1
 10
0.0000
 20
0.0000
 30
0.0000
 40
0.0254
 41
0.0254
 70
0
  0
VERTEX
  8
22
 10
42.5831
 20
25.8080
 30
0.0000
 42
1.0000
  0
VERTEX
  8
22
 10
42.6085
 20
25.8080
 30
0.0000
  0
SEQEND
  8
0
  0
POLYLINE
  8
22
 66
1
 10
0.0000
 20
0.0000
 30
0.0000
 40
0.0508
 41
0.0508
 70
0
  0
VERTEX
  8
22
 10
42.6466
 20
25.7953
 30
0.0000
  0
VERTEX
  8
22
 10
42.6466
 20
26.6557
 30
0.0000
  0
SEQEND
  8
0
  0
POLYLINE
  8
22
 66
1
 10
0.0000
 20
0.0000
 30
0.0000
 40
0.0254
 41
0.0254
 70
0
  0
VERTEX
  8
22
 10
42.6593
 20
26.6557
 30
0.0000
 42
1.0000
  0
VERTEX
  8
22
 10
42.6339
 20
26.6557
 30
0.0000
  0
SEQEND
  8
0
  0
POLYLINE
  8
22
 66
1
 10
0.0000
 20
0.0000
 30
0.0000
 40
0.0254
 41
0.0254
 70
0
  0
VERTEX
  8
22
 10
42.6339
 20
25.7953
 30
0.0000
 42
1.0000
  0
VERTEX
  8
22
 10
42.6593
 20
25.7953
 30
0.0000
  0
SEQEND
  8
0
  0
POLYLINE
  8
22
 66
1
 10
0.0000
 20
0.0000
 30
0.0000
 40
0.0508
 41
0.0508
 70
0
  0
VERTEX
  8
22
 10
42.6974
 20
25.7826
 30
0.0000
  0
VERTEX
  8
22
 10
42.6974
 20
26.6684
 30
0.0000
  0
SEQEND
  8
0
  0
POLYLINE
  8
22
 66
1
 10
0.0000
 20
0.0000
 30
0.0000
 40
0.0254
 41
0.0254
 70
0
  0
VERTEX
  8
22
 10
42.7101
 20
26.6684
 30
0.0000
 42
1.0000
  0
VERTEX
  8
22
 10
42.6847
 20
26.6684
 30
0.0000
  0
SEQEND
  8
0
  0
POLYLINE
  8
22
 66
1
 10
0.0000
 20
0.0000
 30
0.0000
 40
0.0254
 41
0.0254
 70
0
  0
VERTEX
  8
22
 10
42.6847
 20
25.7826
 30
0.0000
 42
1.0000
  0
VERTEX
  8
22
 10
42.7101
 20
25.7826
 30
0.0000
  0
SEQEND
  8
0
  0
POLYLINE
  8
22
 66
1
 10
0.0000
 20
0.0000
 30
0.0000
 40
0.0508
 41
0.0508
 70
0
  0
VERTEX
  8
22
 10
42.7482
 20
25.7699
 30
0.0000
  0
VERTEX
  8
22
 10
42.7482
 20
26.6811
 30
0.0000
  0
SEQEND
  8
0
  0
POLYLINE
  8
22
 66
1
 10
0.0000
 20
0.0000
 30
0.0000
 40
0.0254
 41
0.0254
 70
0
  0
VERTEX
  8
22
 10
42.7609
 20
26.6811
 30
0.0000
 42
1.0000
  0
VERTEX
  8
22
 10
42.7355
 20
26.6811
 30
0.0000
  0
SEQEND
  8
0
  0
POLYLINE
  8
22
 66
1
 10
0.0000
 20
0.0000
 30
0.0000
 40
0.0254
 41
0.0254
 70
0
  0
VERTEX
  8
22
 10
42.7355
 20
25.7699
 30
0.0000
 42
1.0000
  0
VERTEX
  8
22
 10
42.7609
 20
25.7699
 30
0.0000
  0
SEQEND
  8
0
  0
POLYLINE
  8
22
 66
1
 10
0.0000
 20
0.0000
 30
0.0000
 40
0.0508
 41
0.0508
 70
0
  0
VERTEX
  8
22
 10
42.7990
 20
25.7572
 30
0.0000
  0
VERTEX
  8
22
 10
42.7990
 20
26.6938
 30
0.0000
  0
SEQEND
  8
0
  0
POLYLINE
  8
22
 66
1
 10
0.0000
 20
0.0000
 30
0.0000
 40
0.0254
 41
0.0254
 70
0
  0
VERTEX
  8
22
 10
42.8117
 20
26.6938
 30
0.0000
 42
1.0000
  0
VERTEX
  8
22
 10
42.7863
 20
26.6938
 30
0.0000
  0
SEQEND
  8
0
  0
POLYLINE
  8
22
 66
1
 10
0.0000
 20
0.0000
 30
0.0000
 40
0.0254
 41
0.0254
 70
0
  0
VERTEX
  8
22
 10
42.7863
 20
25.7572
 30
0.0000
 42
1.0000
  0
VERTEX
  8
22
 10
42.8117
 20
25.7572
 30
0.0000
  0
SEQEND
  8
0
  0
POLYLINE
  8
22
 66
1
 10
0.0000
 20
0.0000
 30
0.0000
 40
0.2540
 41
0.2540
 70
0
  0
VERTEX
  8
22
 10
42.8308
 20
34.9568
 30
0.0000
  0
VERTEX
  8
22
 10
42.8308
 20
33.8455
 30
0.0000
  0
SEQEND
  8
0
  0
POLYLINE
  8
22
 66
1
 10
0.0000
 20
0.0000
 30
0.0000
 40
0.1270
 41
0.1270
 70
0
  0
VERTEX
  8
22
 10
42.7673
 20
33.8455
 30
0.0000
 42
1.0000
  0
VERTEX
  8
22
 10
42.8943
 20
33.8455
 30
0.0000
  0
SEQEND
  8
0
  0
POLYLINE
  8
22
 66
1
 10
0.0000
 20
0.0000
 30
0.0000
 40
0.1270
 41
0.1270
 70
0
  0
VERTEX
  8
22
 10
42.8943
 20
34.9568
 30
0.0000
 42
1.0000
  0
VERTEX
  8
22
 10
42.7673
 20
34.9568
 30
0.0000
  0
SEQEND
  8
0
  0
POLYLINE
  8
22
 66
1
 10
0.0000
 20
0.0000
 30
0.0000
 40
0.2540
 41
0.2540
 70
0
  0
VERTEX
  8
22
 10
42.8308
 20
33.8455
 30
0.0000
  0
VERTEX
  8
22
 10
42.8308
 20
24.4793
 30
0.0000
  0
SEQEND
  8
0
  0
POLYLINE
  8
22
 66
1
 10
0.0000
 20
0.0000
 30
0.0000
 40
0.1270
 41
0.1270
 70
0
  0
VERTEX
  8
22
 10
42.7673
 20
24.4793
 30
0.0000
 42
1.0000
  0
VERTEX
  8
22
 10
42.8943
 20
24.4793
 30
0.0000
  0
SEQEND
  8
0
  0
POLYLINE
  8
22
 66
1
 10
0.0000
 20
0.0000
 30
0.0000
 40
0.1270
 41
0.1270
 70
0
  0
VERTEX
  8
22
 10
42.8943
 20
33.8455
 30
0.0000
 42
1.0000
  0
VERTEX
  8
22
 10
42.7673
 20
33.8455
 30
0.0000
  0
SEQEND
  8
0
  0
POLYLINE
  8
22
 66
1
 10
0.0000
 20
0.0000
 30
0.0000
 40
0.2540
 41
0.2540
 70
0
  0
VERTEX
  8
22
 10
42.8308
 20
24.4793
 30
0.0000
  0
VERTEX
  8
22
 10
31.2420
 20
24.4792
 30
0.0000
  0
SEQEND
  8
0
  0
POLYLINE
  8
22
 66
1
 10
0.0000
 20
0.0000
 30
0.0000
 40
0.1270
 41
0.1270
 70
0
  0
VERTEX
  8
22
 10
31.2420
 20
24.5427
 30
0.0000
 42
1.0000
  0
VERTEX
  8
22
 10
31.2420
 20
24.4157
 30
0.0000
  0
SEQEND
  8
0
  0
POLYLINE
  8
22
 66
1
 10
0.0000
 20
0.0000
 30
0.0000
 40
0.1270
 41
0.1270
 70
0
  0
VERTEX
  8
22
 10
42.8308
 20
24.4158
 30
0.0000
 42
1.0000
  0
VERTEX
  8
22
 10
42.8308
 20
24.5428
 30
0.0000
  0
SEQEND
  8
0
  0
POLYLINE
  8
22
 66
1
 10
0.0000
 20
0.0000
 30
0.0000
 40
0.2540
 41
0.2540
 70
0
  0
VERTEX
  8
22
 10
39.4970
 20
28.4480
 30
0.0000
  0
VERTEX
  8
22
 10
33.7820
 20
28.4480
 30
0.0000
  0
SEQEND
  8
0
  0
POLYLINE
  8
22
 66
1
 10
0.0000
 20
0.0000
 30
0.0000
 40
0.1270
 41
0.1270
 70
0
  0
VERTEX
  8
22
 10
33.7820
 20
28.5115
 30
0.0000
 42
1.0000
  0
VERTEX
  8
22
 10
33.7820
 20
28.3845
 30
0.0000
  0
SEQEND
  8
0
  0
POLYLINE
  8
22
 66
1
 10
0.0000
 20
0.0000
 30
0.0000
 40
0.1270
 41
0.1270
 70
0
  0
VERTEX
  8
22
 10
39.4970
 20
28.3845
 30
0.0000
 42
1.0000
  0
VERTEX
  8
22
 10
39.4970
 20
28.5115
 30
0.0000
  0
SEQEND
  8
0
  0
POLYLINE
  8
22
 66
1
 10
0.0000
 20
0.0000
 30
0.0000
 40
0.2540
 41
0.2540
 70
0
  0
VERTEX
  8
22
 10
33.7820
 20
28.4480
 30
0.0000
  0
VERTEX
  8
22
 10
33.7820
 20
30.9880
 30
0.0000
  0
SEQEND
  8
0
  0
POLYLINE
  8
22
 66
1
 10
0.0000
 20
0.0000
 30
0.0000
 40
0.1270
 41
0.1270
 70
0
  0
VERTEX
  8
22
 10
33.8455
 20
30.9880
 30
0.0000
 42
1.0000
  0
VERTEX
  8
22
 10
33.7185
 20
30.9880
 30
0.0000
  0
SEQEND
  8
0
  0
POLYLINE
  8
22
 66
1
 10
0.0000
 20
0.0000
 30
0.0000
 40
0.1270
 41
0.1270
 70
0
  0
VERTEX
  8
22
 10
33.7185
 20
28.4480
 30
0.0000
 42
1.0000
  0
VERTEX
  8
22
 10
33.8455
 20
28.4480
 30
0.0000
  0
SEQEND
  8
0
  0
POLYLINE
  8
22
 66
1
 10
0.0000
 20
0.0000
 30
0.0000
 40
0.2540
 41
0.2540
 70
0
  0
VERTEX
  8
22
 10
33.7820
 20
30.9880
 30
0.0000
  0
VERTEX
  8
22
 10
39.4970
 20
30.9880
 30
0.0000
  0
SEQEND
  8
0
  0
POLYLINE
  8
22
 66
1
 10
0.0000
 20
0.0000
 30
0.0000
 40
0.1270
 41
0.1270
 70
0
  0
VERTEX
  8
22
 10
39.4970
 20
30.9245
 30
0.0000
 42
1.0000
  0
VERTEX
  8
22
 10
39.4970
 20
31.0515
 30
0.0000
  0
SEQEND
  8
0
  0
POLYLINE
  8
22
 66
1
 10
0.0000
 20
0.0000
 30
0.0000
 40
0.1270
 41
0.1270
 70
0
  0
VERTEX
  8
22
 10
33.7820
 20
31.0515
 30
0.0000
 42
1.0000
  0
VERTEX
  8
22
 10
33.7820
 20
30.9245
 30
0.0000
  0
SEQEND
  8
0
  0
POLYLINE
  8
22
 66
1
 10
0.0000
 20
0.0000
 30
0.0000
 40
0.2540
 41
0.2540
 70
0
  0
VERTEX
  8
22
 10
42.8307
 20
25.5905
 30
0.0000
  0
VERTEX
  8
22
 10
39.4970
 20
25.5905
 30
0.0000
  0
SEQEND
  8
0
  0
POLYLINE
  8
22
 66
1
 10
0.0000
 20
0.0000
 30
0.0000
 40
0.1270
 41
0.1270
 70
0
  0
VERTEX
  8
22
 10
39.4970
 20
25.6540
 30
0.0000
 42
1.0000
  0
VERTEX
  8
22
 10
39.4970
 20
25.5270
 30
0.0000
  0
SEQEND
  8
0
  0
POLYLINE
  8
22
 66
1
 10
0.0000
 20
0.0000
 30
0.0000
 40
0.1270
 41
0.1270
 70
0
  0
VERTEX
  8
22
 10
42.8307
 20
25.5270
 30
0.0000
 42
1.0000
  0
VERTEX
  8
22
 10
42.8307
 20
25.6540
 30
0.0000
  0
SEQEND
  8
0
  0
POLYLINE
  8
22
 66
1
 10
0.0000
 20
0.0000
 30
0.0000
 40
0.2540
 41
0.2540
 70
0
  0
VERTEX
  8
22
 10
39.4970
 20
25.5905
 30
0.0000
  0
VERTEX
  8
22
 10
39.4970
 20
26.5430
 30
0.0000
  0
SEQEND
  8
0
  0
POLYLINE
  8
22
 66
1
 10
0.0000
 20
0.0000
 30
0.0000
 40
0.1270
 41
0.1270
 70
0
  0
VERTEX
  8
22
 10
39.5605
 20
26.5430
 30
0.0000
 42
1.0000
  0
VERTEX
  8
22
 10
39.4335
 20
26.5430
 30
0.0000
  0
SEQEND
  8
0
  0
POLYLINE
  8
22
 66
1
 10
0.0000
 20
0.0000
 30
0.0000
 40
0.1270
 41
0.1270
 70
0
  0
VERTEX
  8
22
 10
39.4335
 20
25.5905
 30
0.0000
 42
1.0000
  0
VERTEX
  8
22
 10
39.5605
 20
25.5905
 30
0.0000
  0
SEQEND
  8
0
  0
POLYLINE
  8
22
 66
1
 10
0.0000
 20
0.0000
 30
0.0000
 40
0.2540
 41
0.2540
 70
0
  0
VERTEX
  8
22
 10
39.4970
 20
26.5430
 30
0.0000
  0
VERTEX
  8
22
 10
39.4970
 20
28.4480
 30
0.0000
  0
SEQEND
  8
0
  0
POLYLINE
  8
22
 66
1
 10
0.0000
 20
0.0000
 30
0.0000
 40
0.1270
 41
0.1270
 70
0
  0
VERTEX
  8
22
 10
39.5605
 20
28.4480
 30
0.0000
 42
1.0000
  0
VERTEX
  8
22
 10
39.4335
 20
28.4480
 30
0.0000
  0
SEQEND
  8
0
  0
POLYLINE
  8
22
 66
1
 10
0.0000
 20
0.0000
 30
0.0000
 40
0.1270
 41
0.1270
 70
0
  0
VERTEX
  8
22
 10
39.4335
 20
26.5430
 30
0.0000
 42
1.0000
  0
VERTEX
  8
22
 10
39.5605
 20
26.5430
 30
0.0000
  0
SEQEND
  8
0
  0
POLYLINE
  8
22
 66
1
 10
0.0000
 20
0.0000
 30
0.0000
 40
0.2540
 41
0.2540
 70
0
  0
VERTEX
  8
22
 10
39.4970
 20
30.9880
 30
0.0000
  0
VERTEX
  8
22
 10
39.4970
 20
32.8930
 30
0.0000
  0
SEQEND
  8
0
  0
POLYLINE
  8
22
 66
1
 10
0.0000
 20
0.0000
 30
0.0000
 40
0.1270
 41
0.1270
 70
0
  0
VERTEX
  8
22
 10
39.5605
 20
32.8930
 30
0.0000
 42
1.0000
  0
VERTEX
  8
22
 10
39.4335
 20
32.8930
 30
0.0000
  0
SEQEND
  8
0
  0
POLYLINE
  8
22
 66
1
 10
0.0000
 20
0.0000
 30
0.0000
 40
0.1270
 41
0.1270
 70
0
  0
VERTEX
  8
22
 10
39.4335
 20
30.9880
 30
0.0000
 42
1.0000
  0
VERTEX
  8
22
 10
39.5605
 20
30.9880
 30
0.0000
  0
SEQEND
  8
0
  0
POLYLINE
  8
22
 66
1
 10
0.0000
 20
0.0000
 30
0.0000
 40
0.2540
 41
0.2540
 70
0
  0
VERTEX
  8
22
 10
39.4970
 20
32.8930
 30
0.0000
  0
VERTEX
  8
22
 10
39.4970
 20
33.8455
 30
0.0000
  0
SEQEND
  8
0
  0
POLYLINE
  8
22
 66
1
 10
0.0000
 20
0.0000
 30
0.0000
 40
0.1270
 41
0.1270
 70
0
  0
VERTEX
  8
22
 10
39.5605
 20
33.8455
 30
0.0000
 42
1.0000
  0
VERTEX
  8
22
 10
39.4335
 20
33.8455
 30
0.0000
  0
SEQEND
  8
0
  0
POLYLINE
  8
22
 66
1
 10
0.0000
 20
0.0000
 30
0.0000
 40
0.1270
 41
0.1270
 70
0
  0
VERTEX
  8
22
 10
39.4335
 20
32.8930
 30
0.0000
 42
1.0000
  0
VERTEX
  8
22
 10
39.5605
 20
32.8930
 30
0.0000
  0
SEQEND
  8
0
  0
POLYLINE
  8
22
 66
1
 10
0.0000
 20
0.0000
 30
0.0000
 40
0.2540
 41
0.2540
 70
0
  0
VERTEX
  8
22
 10
39.4970
 20
33.8455
 30
0.0000
  0
VERTEX
  8
22
 10
42.8308
 20
33.8455
 30
0.0000
  0
SEQEND
  8
0
  0
POLYLINE
  8
22
 66
1
 10
0.0000
 20
0.0000
 30
0.0000
 40
0.1270
 41
0.1270
 70
0
  0
VERTEX
  8
22
 10
42.8308
 20
33.7820
 30
0.0000
 42
1.0000
  0
VERTEX
  8
22
 10
42.8308
 20
33.9090
 30
0.0000
  0
SEQEND
  8
0
  0
POLYLINE
  8
22
 66
1
 10
0.0000
 20
0.0000
 30
0.0000
 40
0.1270
 41
0.1270
 70
0
  0
VERTEX
  8
22
 10
39.4970
 20
33.9090
 30
0.0000
 42
1.0000
  0
VERTEX
  8
22
 10
39.4970
 20
33.7820
 30
0.0000
  0
SEQEND
  8
0
  0
POLYLINE
  8
22
 66
1
 10
0.0000
 20
0.0000
 30
0.0000
 40
0.2540
 41
0.2540
 70
0
  0
VERTEX
  8
22
 10
39.4970
 20
26.5430
 30
0.0000
  0
VERTEX
  8
22
 10
40.1320
 20
26.5430
 30
0.0000
  0
SEQEND
  8
0
  0
POLYLINE
  8
22
 66
1
 10
0.0000
 20
0.0000
 30
0.0000
 40
0.1270
 41
0.1270
 70
0
  0
VERTEX
  8
22
 10
40.1320
 20
26.4795
 30
0.0000
 42
1.0000
  0
VERTEX
  8
22
 10
40.1320
 20
26.6065
 30
0.0000
  0
SEQEND
  8
0
  0
POLYLINE
  8
22
 66
1
 10
0.0000
 20
0.0000
 30
0.0000
 40
0.1270
 41
0.1270
 70
0
  0
VERTEX
  8
22
 10
39.4970
 20
26.6065
 30
0.0000
 42
1.0000
  0
VERTEX
  8
22
 10
39.4970
 20
26.4795
 30
0.0000
  0
SEQEND
  8
0
  0
POLYLINE
  8
22
 66
1
 10
0.0000
 20
0.0000
 30
0.0000
 40
0.2540
 41
0.2540
 70
0
  0
VERTEX
  8
22
 10
40.1320
 20
26.5430
 30
0.0000
 42
0.4142
  0
VERTEX
  8
22
 10
41.4020
 20
27.8130
 30
0.0000
  0
SEQEND
  8
0
  0
POLYLINE
  8
22
 66
1
 10
0.0000
 20
0.0000
 30
0.0000
 40
0.1270
 41
0.1270
 70
0
  0
VERTEX
  8
22
 10
40.1320
 20
26.6065
 30
0.0000
 42
1.0000
  0
VERTEX
  8
22
 10
40.1320
 20
26.4795
 30
0.0000
  0
SEQEND
  8
0
  0
POLYLINE
  8
22
 66
1
 10
0.0000
 20
0.0000
 30
0.0000
 40
0.1270
 41
0.1270
 70
0
  0
VERTEX
  8
22
 10
41.4655
 20
27.8130
 30
0.0000
 42
1.0000
  0
VERTEX
  8
22
 10
41.3385
 20
27.8130
 30
0.0000
  0
SEQEND
  8
0
  0
POLYLINE
  8
22
 66
1
 10
0.0000
 20
0.0000
 30
0.0000
 40
0.2540
 41
0.2540
 70
0
  0
VERTEX
  8
22
 10
41.4020
 20
27.8130
 30
0.0000
  0
VERTEX
  8
22
 10
41.4020
 20
31.6230
 30
0.0000
  0
SEQEND
  8
0
  0
POLYLINE
  8
22
 66
1
 10
0.0000
 20
0.0000
 30
0.0000
 40
0.1270
 41
0.1270
 70
0
  0
VERTEX
  8
22
 10
41.4655
 20
31.6230
 30
0.0000
 42
1.0000
  0
VERTEX
  8
22
 10
41.3385
 20
31.6230
 30
0.0000
  0
SEQEND
  8
0
  0
POLYLINE
  8
22
 66
1
 10
0.0000
 20
0.0000
 30
0.0000
 40
0.1270
 41
0.1270
 70
0
  0
VERTEX
  8
22
 10
41.3385
 20
27.8130
 30
0.0000
 42
1.0000
  0
VERTEX
  8
22
 10
41.4655
 20
27.8130
 30
0.0000
  0
SEQEND
  8
0
  0
POLYLINE
  8
22
 66
1
 10
0.0000
 20
0.0000
 30
0.0000
 40
0.2540
 41
0.2540
 70
0
  0
VERTEX
  8
22
 10
41.4020
 20
31.6230
 30
0.0000
 42
0.4142
  0
VERTEX
  8
22
 10
40.1320
 20
32.8930
 30
0.0000
  0
SEQEND
  8
0
  0
POLYLINE
  8
22
 66
1
 10
0.0000
 20
0.0000
 30
0.0000
 40
0.1270
 41
0.1270
 70
0
  0
VERTEX
  8
22
 10
41.3385
 20
31.6230
 30
0.0000
 42
1.0000
  0
VERTEX
  8
22
 10
41.4655
 20
31.6230
 30
0.0000
  0
SEQEND
  8
0
  0
POLYLINE
  8
22
 66
1
 10
0.0000
 20
0.0000
 30
0.0000
 40
0.1270
 41
0.1270
 70
0
  0
VERTEX
  8
22
 10
40.1320
 20
32.9565
 30
0.0000
 42
1.0000
  0
VERTEX
  8
22
 10
40.1320
 20
32.8295
 30
0.0000
  0
SEQEND
  8
0
  0
POLYLINE
  8
22
 66
1
 10
0.0000
 20
0.0000
 30
0.0000
 40
0.2540
 41
0.2540
 70
0
  0
VERTEX
  8
22
 10
40.1320
 20
32.8930
 30
0.0000
  0
VERTEX
  8
22
 10
39.4970
 20
32.8930
 30
0.0000
  0
SEQEND
  8
0
  0
POLYLINE
  8
22
 66
1
 10
0.0000
 20
0.0000
 30
0.0000
 40
0.1270
 41
0.1270
 70
0
  0
VERTEX
  8
22
 10
39.4970
 20
32.9565
 30
0.0000
 42
1.0000
  0
VERTEX
  8
22
 10
39.4970
 20
32.8295
 30
0.0000
  0
SEQEND
  8
0
  0
POLYLINE
  8
22
 66
1
 10
0.0000
 20
0.0000
 30
0.0000
 40
0.1270
 41
0.1270
 70
0
  0
VERTEX
  8
22
 10
40.1320
 20
32.8295
 30
0.0000
 42
1.0000
  0
VERTEX
  8
22
 10
40.1320
 20
32.9565
 30
0.0000
  0
SEQEND
  8
0
  0
POLYLINE
  8
22
 66
1
 10
0.0000
 20
0.0000
 30
0.0000
 40
0.2540
 41
0.2540
 70
0
  0
VERTEX
  8
22
 10
31.2420
 20
24.4792
 30
0.0000
  0
VERTEX
  8
22
 10
31.2420
 20
34.9568
 30
0.0000
  0
SEQEND
  8
0
  0
POLYLINE
  8
22
 66
1
 10
0.0000
 20
0.0000
 30
0.0000
 40
0.1270
 41
0.1270
 70
0
  0
VERTEX
  8
22
 10
31.3055
 20
34.9568
 30
0.0000
 42
1.0000
  0
VERTEX
  8
22
 10
31.1785
 20
34.9568
 30
0.0000
  0
SEQEND
  8
0
  0
POLYLINE
  8
22
 66
1
 10
0.0000
 20
0.0000
 30
0.0000
 40
0.1270
 41
0.1270
 70
0
  0
VERTEX
  8
22
 10
31.1785
 20
24.4792
 30
0.0000
 42
1.0000
  0
VERTEX
  8
22
 10
31.3055
 20
24.4792
 30
0.0000
  0
SEQEND
  8
0
  0
POLYLINE
  8
22
 66
1
 10
0.0000
 20
0.0000
 30
0.0000
 40
0.2540
 41
0.2540
 70
0
  0
VERTEX
  8
22
 10
31.2420
 20
34.9568
 30
0.0000
  0
VERTEX
  8
22
 10
42.8308
 20
34.9568
 30
0.0000
  0
SEQEND
  8
0
  0
POLYLINE
  8
22
 66
1
 10
0.0000
 20
0.0000
 30
0.0000
 40
0.1270
 41
0.1270
 70
0
  0
VERTEX
  8
22
 10
42.8308
 20
34.8933
 30
0.0000
 42
1.0000
  0
VERTEX
  8
22
 10
42.8308
 20
35.0203
 30
0.0000
  0
SEQEND
  8
0
  0
POLYLINE
  8
22
 66
1
 10
0.0000
 20
0.0000
 30
0.0000
 40
0.1270
 41
0.1270
 70
0
  0
VERTEX
  8
22
 10
31.2420
 20
35.0203
 30
0.0000
 42
1.0000
  0
VERTEX
  8
22
 10
31.2420
 20
34.8933
 30
0.0000
  0
SEQEND
  8
0
  0
INSERT
  8
17
  2
LONGP100
 10
29.3370
 20
27.1780
 30
0.0000
 41
1.6383
 42
1.6383
 43
1.0000
 50
0.0000
  0
INSERT
  8
17
  2
LONGP100
 10
29.3370
 20
27.1780
 30
0.0000
 41
1.6383
 42
1.6383
 43
1.0000
 50
0.0000
  0
INSERT
  8
17
  2
LONGP100
 10
29.3370
 20
29.7180
 30
0.0000
 41
1.6383
 42
1.6383
 43
1.0000
 50
0.0000
  0
INSERT
  8
17
  2
LONGP100
 10
29.3370
 20
29.7180
 30
0.0000
 41
1.6383
 42
1.6383
 43
1.0000
 50
0.0000
  0
INSERT
  8
17
  2
LONGP100
 10
29.3370
 20
32.2580
 30
0.0000
 41
1.6383
 42
1.6383
 43
1.0000
 50
0.0000
  0
INSERT
  8
17
  2
LONGP100
 10
29.3370
 20
32.2580
 30
0.0000
 41
1.6383
 42
1.6383
 43
1.0000
 50
0.0000
  0
INSERT
  8
21
  2
RECT
 10
16.9545
 20
5.7420
 30
0.0000
 41
0.2000
 42
0.2000
 43
1.0000
 50
180.0000
  0
POLYLINE
  8
21
 66
1
 10
0.0000
 20
0.0000
 30
0.0000
 40
0.1524
 41
0.1524
 70
0
  0
VERTEX
  8
21
 10
16.5985
 20
10.7825
 30
0.0000
  0
VERTEX
  8
21
 10
16.5985
 20
9.9185
 30
0.0000
  0
SEQEND
  8
0
  0
POLYLINE
  8
21
 66
1
 10
0.0000
 20
0.0000
 30
0.0000
 40
0.0762
 41
0.0762
 70
0
  0
VERTEX
  8
21
 10
16.5604
 20
9.9185
 30
0.0000
 42
1.0000
  0
VERTEX
  8
21
 10
16.6366
 20
9.9185
 30
0.0000
  0
SEQEND
  8
0
  0
POLYLINE
  8
21
 66
1
 10
0.0000
 20
0.0000
 30
0.0000
 40
0.0762
 41
0.0762
 70
0
  0
VERTEX
  8
21
 10
16.6366
 20
10.7825
 30
0.0000
 42
1.0000
  0
VERTEX
  8
21
 10
16.5604
 20
10.7825
 30
0.0000
  0
SEQEND
  8
0
  0
POLYLINE
  8
21
 66
1
 10
0.0000
 20
0.0000
 30
0.0000
 40
0.1524
 41
0.1524
 70
0
  0
VERTEX
  8
21
 10
17.3105
 20
9.9185
 30
0.0000
  0
VERTEX
  8
21
 10
17.3105
 20
10.7825
 30
0.0000
  0
SEQEND
  8
0
  0
POLYLINE
  8
21
 66
1
 10
0.0000
 20
0.0000
 30
0.0000
 40
0.0762
 41
0.0762
 70
0
  0
VERTEX
  8
21
 10
17.3486
 20
10.7825
 30
0.0000
 42
1.0000
  0
VERTEX
  8
21
 10
17.2724
 20
10.7825
 30
0.0000
  0
SEQEND
  8
0
  0
POLYLINE
  8
21
 66
1
 10
0.0000
 20
0.0000
 30
0.0000
 40
0.0762
 41
0.0762
 70
0
  0
VERTEX
  8
21
 10
17.2724
 20
9.9185
 30
0.0000
 42
1.0000
  0
VERTEX
  8
21
 10
17.3486
 20
9.9185
 30
0.0000
  0
SEQEND
  8
0
  0
INSERT
  8
21
  2
RECT
 10
16.9545
 20
9.7155
 30
0.0000
 41
0.4064
 42
0.8636
 43
1.0000
 50
270.0000
  0
INSERT
  8
21
  2
RECT
 10
16.9545
 20
10.9855
 30
0.0000
 41
0.4064
 42
0.8636
 43
1.0000
 50
270.0000
  0
POLYLINE
  8
21
 66
1
 10
0.0000
 20
0.0000
 30
0.0000
 40
0.1524
 41
0.1524
 70
0
  0
VERTEX
  8
21
 10
27.5080
 20
22.7580
 30
0.0000
  0
VERTEX
  8
21
 10
28.3720
 20
22.7580
 30
0.0000
  0
SEQEND
  8
0
  0
POLYLINE
  8
21
 66
1
 10
0.0000
 20
0.0000
 30
0.0000
 40
0.0762
 41
0.0762
 70
0
  0
VERTEX
  8
21
 10
28.3720
 20
22.7199
 30
0.0000
 42
1.0000
  0
VERTEX
  8
21
 10
28.3720
 20
22.7961
 30
0.0000
  0
SEQEND
  8
0
  0
POLYLINE
  8
21
 66
1
 10
0.0000
 20
0.0000
 30
0.0000
 40
0.0762
 41
0.0762
 70
0
  0
VERTEX
  8
21
 10
27.5080
 20
22.7961
 30
0.0000
 42
1.0000
  0
VERTEX
  8
21
 10
27.5080
 20
22.7199
 30
0.0000
  0
SEQEND
  8
0
  0
POLYLINE
  8
21
 66
1
 10
0.0000
 20
0.0000
 30
0.0000
 40
0.1524
 41
0.1524
 70
0
  0
VERTEX
  8
21
 10
28.3720
 20
23.4700
 30
0.0000
  0
VERTEX
  8
21
 10
27.5080
 20
23.4700
 30
0.0000
  0
SEQEND
  8
0
  0
POLYLINE
  8
21
 66
1
 10
0.0000
 20
0.0000
 30
0.0000
 40
0.0762
 41
0.0762
 70
0
  0
VERTEX
  8
21
 10
27.5080
 20
23.5081
 30
0.0000
 42
1.0000
  0
VERTEX
  8
21
 10
27.5080
 20
23.4319
 30
0.0000
  0
SEQEND
  8
0
  0
POLYLINE
  8
21
 66
1
 10
0.0000
 20
0.0000
 30
0.0000
 40
0.0762
 41
0.0762
 70
0
  0
VERTEX
  8
21
 10
28.3720
 20
23.4319
 30
0.0000
 42
1.0000
  0
VERTEX
  8
21
 10
28.3720
 20
23.5081
 30
0.0000
  0
SEQEND
  8
0
  0
INSERT
  8
21
  2
RECT
 10
28.5750
 20
23.1140
 30
0.0000
 41
0.4064
 42
0.8636
 43
1.0000
 50
0.0000
  0
INSERT
  8
21
  2
RECT
 10
27.3050
 20
23.1140
 30
0.0000
 41
0.4064
 42
0.8636
 43
1.0000
 50
0.0000
  0
POLYLINE
  8
22
 66
1
 10
0.0000
 20
0.0000
 30
0.0000
 40
0.1524
 41
0.1524
 70
0
  0
VERTEX
  8
22
 10
22.1740
 20
15.7230
 30
0.0000
  0
VERTEX
  8
22
 10
23.0380
 20
15.7230
 30
0.0000
  0
SEQEND
  8
0
  0
POLYLINE
  8
22
 66
1
 10
0.0000
 20
0.0000
 30
0.0000
 40
0.0762
 41
0.0762
 70
0
  0
VERTEX
  8
22
 10
23.0380
 20
15.6849
 30
0.0000
 42
1.0000
  0
VERTEX
  8
22
 10
23.0380
 20
15.7611
 30
0.0000
  0
SEQEND
  8
0
  0
POLYLINE
  8
22
 66
1
 10
0.0000
 20
0.0000
 30
0.0000
 40
0.0762
 41
0.0762
 70
0
  0
VERTEX
  8
22
 10
22.1740
 20
15.7611
 30
0.0000
 42
1.0000
  0
VERTEX
  8
22
 10
22.1740
 20
15.6849
 30
0.0000
  0
SEQEND
  8
0
  0
POLYLINE
  8
22
 66
1
 10
0.0000
 20
0.0000
 30
0.0000
 40
0.1524
 41
0.1524
 70
0
  0
VERTEX
  8
22
 10
23.0380
 20
15.0110
 30
0.0000
  0
VERTEX
  8
22
 10
22.1740
 20
15.0110
 30
0.0000
  0
SEQEND
  8
0
  0
POLYLINE
  8
22
 66
1
 10
0.0000
 20
0.0000
 30
0.0000
 40
0.0762
 41
0.0762
 70
0
  0
VERTEX
  8
22
 10
22.1740
 20
15.0491
 30
0.0000
 42
1.0000
  0
VERTEX
  8
22
 10
22.1740
 20
14.9729
 30
0.0000
  0
SEQEND
  8
0
  0
POLYLINE
  8
22
 66
1
 10
0.0000
 20
0.0000
 30
0.0000
 40
0.0762
 41
0.0762
 70
0
  0
VERTEX
  8
22
 10
23.0380
 20
14.9729
 30
0.0000
 42
1.0000
  0
VERTEX
  8
22
 10
23.0380
 20
15.0491
 30
0.0000
  0
SEQEND
  8
0
  0
INSERT
  8
22
  2
RECT
 10
23.2410
 20
15.3670
 30
0.0000
 41
0.4064
 42
0.8636
 43
1.0000
 50
0.0000
  0
INSERT
  8
22
  2
RECT
 10
21.9710
 20
15.3670
 30
0.0000
 41
0.4064
 42
0.8636
 43
1.0000
 50
0.0000
  0
ENDSEC
  0
EOF
