solid DefaultTransformed
facet normal -0.773602E+1  0.000000E+0  0.529250E+1
 outer loop
  vertex -0.388837E+1 -1.110246E+1  0.686695E+1
  vertex -0.276812E+1 -1.110246E+1  0.850441E+1
  vertex -0.388837E+1 -0.637807E+1  0.686695E+1
 endloop
endfacet
facet normal -0.773602E+1  0.000000E+0  0.529250E+1
 outer loop
  vertex -0.388837E+1 -0.637807E+1  0.686695E+1
  vertex -0.276812E+1 -1.110246E+1  0.850441E+1
  vertex -0.276812E+1 -0.637807E+1  0.850441E+1
 endloop
endfacet
facet normal  0.773602E+1  0.000000E+0 -0.529250E+1
 outer loop
  vertex  0.780924E+1 -0.637807E+1 -0.113582E+1
  vertex  0.892950E+1 -0.637807E+1  0.050165E+1
  vertex  0.780924E+1 -1.110246E+1 -0.113582E+1
 endloop
endfacet
facet normal  0.773602E+1  0.000000E+0 -0.529250E+1
 outer loop
  vertex  0.780924E+1 -1.110246E+1 -0.113582E+1
  vertex  0.892950E+1 -0.637807E+1  0.050165E+1
  vertex  0.892950E+1 -1.110246E+1  0.050165E+1
 endloop
endfacet
facet normal  0.252054E+2  -0.000000E+0  0.368427E+2
 outer loop
  vertex  0.503029E+1 -2.527562E+1  0.316924E+1
  vertex  0.503029E+1 -3.000000E+1  0.316924E+1
  vertex  0.128287E+2 -2.527562E+1 -0.216594E+1
 endloop
endfacet
facet normal  0.378081E+2  1.907349E-6  0.552640E+2
 outer loop
  vertex  0.128287E+2 -2.527562E+1 -0.216594E+1
  vertex  0.503029E+1 -3.000000E+1  0.316924E+1
  vertex  0.167279E+2 -3.000000E+1 -0.483353E+1
 endloop
endfacet
facet normal  0.126027E+2  0.000000E+0  0.184213E+2
 outer loop
  vertex  0.128287E+2 -2.527562E+1 -0.216594E+1
  vertex  0.167279E+2 -3.000000E+1 -0.483353E+1
  vertex  0.128287E+2 -2.055123E+1 -0.216594E+1
 endloop
endfacet
facet normal  0.126027E+2  0.000000E+0  0.184213E+2
 outer loop
  vertex  0.128287E+2 -2.055123E+1 -0.216594E+1
  vertex  0.167279E+2 -3.000000E+1 -0.483353E+1
  vertex  0.167279E+2 -2.527562E+1 -0.483353E+1
 endloop
endfacet
facet normal  0.378082E+2  0.000000E+0  0.552640E+2
 outer loop
  vertex -0.276812E+1 -1.110246E+1  0.850441E+1
  vertex  0.892950E+1 -1.110246E+1  0.050165E+1
  vertex -0.276812E+1 -0.637807E+1  0.850441E+1
 endloop
endfacet
facet normal  0.378082E+2  0.000000E+0  0.552640E+2
 outer loop
  vertex -0.276812E+1 -0.637807E+1  0.850441E+1
  vertex  0.892950E+1 -1.110246E+1  0.050165E+1
  vertex  0.892950E+1 -0.637807E+1  0.050165E+1
 endloop
endfacet
facet normal  0.252062E+2  0.000000E+0  0.368438E+2
 outer loop
  vertex  0.892950E+1 -0.165369E+1  0.050165E+1
  vertex  0.128287E+2 -0.165369E+1 -0.216594E+1
  vertex  0.892950E+1  0.779536E+1  0.050165E+1
 endloop
endfacet
facet normal  0.126035E+2  0.000000E+0  0.184224E+2
 outer loop
  vertex  0.892950E+1  0.779536E+1  0.050165E+1
  vertex  0.128287E+2 -0.165369E+1 -0.216594E+1
  vertex  0.128287E+2  0.307097E+1 -0.216594E+1
 endloop
endfacet
facet normal  0.189041E+2  1.907349E-6  0.276320E+2
 outer loop
  vertex  0.892950E+1  0.779536E+1  0.050165E+1
  vertex  0.128287E+2  0.307097E+1 -0.216594E+1
  vertex  0.147783E+2  0.779536E+1 -0.349974E+1
 endloop
endfacet
facet normal  0.126027E+2  9.536743E-7  0.184213E+2
 outer loop
  vertex  0.147783E+2  0.779536E+1 -0.349974E+1
  vertex  0.128287E+2  0.307097E+1 -0.216594E+1
  vertex  0.167279E+2  0.307097E+1 -0.483353E+1
 endloop
endfacet
facet normal  0.630135E+1  0.000000E+0  0.921066E+1
 outer loop
  vertex  0.147783E+2  0.779536E+1 -0.349974E+1
  vertex  0.167279E+2  0.307097E+1 -0.483353E+1
  vertex  0.147783E+2  0.125197E+2 -0.349974E+1
 endloop
endfacet
facet normal  0.630136E+1  0.000000E+0  0.921068E+1
 outer loop
  vertex  0.147783E+2  0.125197E+2 -0.349974E+1
  vertex  0.167279E+2  0.307097E+1 -0.483353E+1
  vertex  0.167279E+2  0.779536E+1 -0.483353E+1
 endloop
endfacet
facet normal  0.189041E+2  4.768372E-7  0.276320E+2
 outer loop
  vertex  0.147783E+2  0.125197E+2 -0.349974E+1
  vertex  0.167279E+2  0.779536E+1 -0.483353E+1
  vertex  0.206271E+2  0.125197E+2 -0.750112E+1
 endloop
endfacet
facet normal  0.126027E+2  -0.000000E+0  0.184213E+2
 outer loop
  vertex  0.206271E+2  0.125197E+2 -0.750112E+1
  vertex  0.167279E+2  0.779536E+1 -0.483353E+1
  vertex  0.206271E+2  0.779536E+1 -0.750112E+1
 endloop
endfacet
facet normal  0.126027E+2  -0.000000E+0  0.184213E+2
 outer loop
  vertex  0.245263E+2 -0.637807E+1 -1.016871E+1
  vertex  0.206271E+2 -0.637807E+1 -0.750112E+1
  vertex  0.245263E+2 -1.110246E+1 -1.016871E+1
 endloop
endfacet
facet normal  0.252054E+2  0.000000E+0  0.368426E+2
 outer loop
  vertex  0.245263E+2 -1.110246E+1 -1.016871E+1
  vertex  0.206271E+2 -0.637807E+1 -0.750112E+1
  vertex  0.206271E+2 -1.582685E+1 -0.750112E+1
 endloop
endfacet
facet normal  0.126027E+2  7.629395E-6  0.184214E+2
 outer loop
  vertex  0.245263E+2 -1.110246E+1 -1.016871E+1
  vertex  0.206271E+2 -1.582685E+1 -0.750112E+1
  vertex  0.284255E+2 -1.110246E+1 -1.283630E+1
 endloop
endfacet
facet normal  0.126027E+2 -0.000001E+1  0.184213E+2
 outer loop
  vertex  0.284255E+2 -1.110246E+1 -1.283630E+1
  vertex  0.206271E+2 -1.582685E+1 -0.750112E+1
  vertex  0.245263E+2 -1.582685E+1 -1.016871E+1
 endloop
endfacet
facet normal  0.378082E+2  -0.000000E+0  0.552641E+2
 outer loop
  vertex  0.284255E+2 -1.110246E+1 -1.283630E+1
  vertex  0.245263E+2 -1.582685E+1 -1.016871E+1
  vertex  0.284255E+2 -2.527562E+1 -1.283630E+1
 endloop
endfacet
facet normal  0.252055E+2  0.000000E+0  0.368428E+2
 outer loop
  vertex  0.284255E+2 -2.527562E+1 -1.283630E+1
  vertex  0.245263E+2 -1.582685E+1 -1.016871E+1
  vertex  0.245263E+2 -2.527562E+1 -1.016871E+1
 endloop
endfacet
facet normal  0.126027E+2 -0.000000E+1  0.184214E+2
 outer loop
  vertex  0.167279E+2 -2.527562E+1 -0.483353E+1
  vertex  0.206271E+2 -2.527562E+1 -0.750112E+1
  vertex  0.128287E+2 -2.055123E+1 -0.216594E+1
 endloop
endfacet
facet normal  0.504109E+2  0.000000E+0  0.736854E+2
 outer loop
  vertex  0.128287E+2 -2.055123E+1 -0.216594E+1
  vertex  0.206271E+2 -2.527562E+1 -0.750112E+1
  vertex  0.206271E+2 -1.582685E+1 -0.750112E+1
 endloop
endfacet
facet normal  0.504109E+2  0.000000E+0  0.736853E+2
 outer loop
  vertex  0.128287E+2 -2.055123E+1 -0.216594E+1
  vertex  0.206271E+2 -1.582685E+1 -0.750112E+1
  vertex  0.128287E+2 -1.110246E+1 -0.216594E+1
 endloop
endfacet
facet normal  0.504109E+2  0.000000E+0  0.736854E+2
 outer loop
  vertex  0.128287E+2 -1.110246E+1 -0.216594E+1
  vertex  0.206271E+2 -1.582685E+1 -0.750112E+1
  vertex  0.206271E+2 -0.637807E+1 -0.750112E+1
 endloop
endfacet
facet normal  0.252054E+2  0.000000E+0  0.368427E+2
 outer loop
  vertex  0.128287E+2 -1.110246E+1 -0.216594E+1
  vertex  0.206271E+2 -0.637807E+1 -0.750112E+1
  vertex  0.128287E+2 -0.637807E+1 -0.216594E+1
 endloop
endfacet
facet normal  0.252054E+2  0.000000E+0  0.368427E+2
 outer loop
  vertex  0.128287E+2 -0.637807E+1 -0.216594E+1
  vertex  0.206271E+2 -0.637807E+1 -0.750112E+1
  vertex  0.206271E+2 -0.165369E+1 -0.750112E+1
 endloop
endfacet
facet normal  0.252054E+2  0.000000E+0  0.368427E+2
 outer loop
  vertex  0.206271E+2 -0.165369E+1 -0.750112E+1
  vertex  0.128287E+2 -0.165369E+1 -0.216594E+1
  vertex  0.128287E+2 -0.637807E+1 -0.216594E+1
 endloop
endfacet
facet normal  0.126027E+2  0.000000E+0  0.184214E+2
 outer loop
  vertex  0.128287E+2 -0.637807E+1 -0.216594E+1
  vertex  0.128287E+2 -0.165369E+1 -0.216594E+1
  vertex  0.892950E+1 -0.165369E+1  0.050165E+1
 endloop
endfacet
facet normal  0.126027E+2  0.000000E+0  0.184214E+2
 outer loop
  vertex  0.128287E+2 -0.637807E+1 -0.216594E+1
  vertex  0.892950E+1 -0.165369E+1  0.050165E+1
  vertex  0.892950E+1 -0.637807E+1  0.050165E+1
 endloop
endfacet
facet normal  0.378082E+2  0.000000E+0  0.552640E+2
 outer loop
  vertex  0.892950E+1 -0.637807E+1  0.050165E+1
  vertex  0.892950E+1 -0.165369E+1  0.050165E+1
  vertex -0.276812E+1 -0.165369E+1  0.850441E+1
 endloop
endfacet
facet normal  0.378082E+2  0.000000E+0  0.552640E+2
 outer loop
  vertex  0.892950E+1 -0.637807E+1  0.050165E+1
  vertex -0.276812E+1 -0.165369E+1  0.850441E+1
  vertex -0.276812E+1 -0.637807E+1  0.850441E+1
 endloop
endfacet
facet normal  0.126027E+2  -0.000000E+0  0.184213E+2
 outer loop
  vertex -1.056652E+1  0.779536E+1  0.138396E+2
  vertex -1.056652E+1  0.307097E+1  0.138396E+2
  vertex -0.666732E+1  0.307097E+1  0.111720E+2
 endloop
endfacet
facet normal  0.189041E+2  -0.000000E+0  0.276320E+2
 outer loop
  vertex -1.446573E+1  0.125197E+2  0.165072E+2
  vertex -1.446573E+1  0.779536E+1  0.165072E+2
  vertex -0.861692E+1  0.125197E+2  0.125058E+2
 endloop
endfacet
facet normal  0.126027E+2 -0.000000E+1  0.184213E+2
 outer loop
  vertex -0.861692E+1  0.125197E+2  0.125058E+2
  vertex -1.446573E+1  0.779536E+1  0.165072E+2
  vertex -1.056652E+1  0.779536E+1  0.138396E+2
 endloop
endfacet
facet normal  0.630134E+1  -0.000000E+0  0.921065E+1
 outer loop
  vertex -0.861692E+1  0.125197E+2  0.125058E+2
  vertex -1.056652E+1  0.779536E+1  0.138396E+2
  vertex -0.861692E+1  0.779536E+1  0.125058E+2
 endloop
endfacet
facet normal  0.630136E+1 -0.000000E+1  0.921067E+1
 outer loop
  vertex -0.861692E+1  0.779536E+1  0.125058E+2
  vertex -1.056652E+1  0.779536E+1  0.138396E+2
  vertex -0.666732E+1  0.307097E+1  0.111720E+2
 endloop
endfacet
facet normal  0.189041E+2  9.536743E-7  0.276321E+2
 outer loop
  vertex -0.861692E+1  0.779536E+1  0.125058E+2
  vertex -0.666732E+1  0.307097E+1  0.111720E+2
  vertex -0.276812E+1  0.779536E+1  0.850441E+1
 endloop
endfacet
facet normal  0.126035E+2  0.000000E+0  0.184224E+2
 outer loop
  vertex -0.276812E+1  0.779536E+1  0.850441E+1
  vertex -0.666732E+1  0.307097E+1  0.111720E+2
  vertex -0.666732E+1 -0.165369E+1  0.111720E+2
 endloop
endfacet
facet normal  0.252062E+2  -0.000000E+0  0.368438E+2
 outer loop
  vertex -0.276812E+1  0.779536E+1  0.850441E+1
  vertex -0.666732E+1 -0.165369E+1  0.111720E+2
  vertex -0.276812E+1 -0.165369E+1  0.850441E+1
 endloop
endfacet
facet normal  0.126027E+2  0.000000E+0  0.184214E+2
 outer loop
  vertex -0.276812E+1 -0.165369E+1  0.850441E+1
  vertex -0.666732E+1 -0.165369E+1  0.111720E+2
  vertex -0.666732E+1 -0.637807E+1  0.111720E+2
 endloop
endfacet
facet normal  0.126027E+2  -0.000000E+0  0.184214E+2
 outer loop
  vertex -0.276812E+1 -0.165369E+1  0.850441E+1
  vertex -0.666732E+1 -0.637807E+1  0.111720E+2
  vertex -0.276812E+1 -0.637807E+1  0.850441E+1
 endloop
endfacet
facet normal  0.126027E+2  -0.000000E+0  0.184213E+2
 outer loop
  vertex -1.056652E+1 -2.527562E+1  0.138396E+2
  vertex -1.056652E+1 -3.000000E+1  0.138396E+2
  vertex -0.666732E+1 -2.527562E+1  0.111720E+2
 endloop
endfacet
facet normal  0.378081E+2 -0.000001E+1  0.552640E+2
 outer loop
  vertex -0.666732E+1 -2.527562E+1  0.111720E+2
  vertex -1.056652E+1 -3.000000E+1  0.138396E+2
  vertex  0.113109E+1 -3.000000E+1  0.583683E+1
 endloop
endfacet
facet normal  0.252054E+2  0.000000E+0  0.368427E+2
 outer loop
  vertex -0.666732E+1 -2.527562E+1  0.111720E+2
  vertex  0.113109E+1 -3.000000E+1  0.583683E+1
  vertex  0.113109E+1 -2.527562E+1  0.583683E+1
 endloop
endfacet
facet normal  0.378082E+2  0.000000E+0  0.552641E+2
 outer loop
  vertex -2.226414E+1 -2.527562E+1  0.218424E+2
  vertex -1.836493E+1 -2.527562E+1  0.191748E+2
  vertex -2.226414E+1 -1.110246E+1  0.218424E+2
 endloop
endfacet
facet normal  0.252055E+2  0.000000E+0  0.368428E+2
 outer loop
  vertex -2.226414E+1 -1.110246E+1  0.218424E+2
  vertex -1.836493E+1 -2.527562E+1  0.191748E+2
  vertex -1.836493E+1 -1.582685E+1  0.191748E+2
 endloop
endfacet
facet normal  0.126027E+2  0.000000E+0  0.184214E+2
 outer loop
  vertex -2.226414E+1 -1.110246E+1  0.218424E+2
  vertex -1.836493E+1 -1.582685E+1  0.191748E+2
  vertex -1.836493E+1 -1.110246E+1  0.191748E+2
 endloop
endfacet
facet normal  0.126027E+2  -0.000000E+0  0.184213E+2
 outer loop
  vertex -1.836493E+1 -1.110246E+1  0.191748E+2
  vertex -1.836493E+1 -1.582685E+1  0.191748E+2
  vertex -1.446573E+1 -1.582685E+1  0.165072E+2
 endloop
endfacet
facet normal  0.126027E+2  0.000000E+0  0.184213E+2
 outer loop
  vertex -1.836493E+1 -1.110246E+1  0.191748E+2
  vertex -1.446573E+1 -1.582685E+1  0.165072E+2
  vertex -1.836493E+1 -0.637807E+1  0.191748E+2
 endloop
endfacet
facet normal  0.252054E+2  0.000000E+0  0.368426E+2
 outer loop
  vertex -1.836493E+1 -0.637807E+1  0.191748E+2
  vertex -1.446573E+1 -1.582685E+1  0.165072E+2
  vertex -1.446573E+1 -0.637807E+1  0.165072E+2
 endloop
endfacet
facet normal  0.252055E+2  0.000000E+0  0.368427E+2
 outer loop
  vertex -1.446573E+1 -2.527562E+1  0.165072E+2
  vertex -1.056652E+1 -2.527562E+1  0.138396E+2
  vertex -1.446573E+1 -1.582685E+1  0.165072E+2
 endloop
endfacet
facet normal  0.252054E+2 -0.000000E+1  0.368427E+2
 outer loop
  vertex -1.446573E+1 -1.582685E+1  0.165072E+2
  vertex -1.056652E+1 -2.527562E+1  0.138396E+2
  vertex -0.666732E+1 -2.527562E+1  0.111720E+2
 endloop
endfacet
facet normal  0.504109E+2  0.000000E+0  0.736854E+2
 outer loop
  vertex -1.446573E+1 -1.582685E+1  0.165072E+2
  vertex -0.666732E+1 -2.527562E+1  0.111720E+2
  vertex -1.446573E+1 -0.637807E+1  0.165072E+2
 endloop
endfacet
facet normal  0.252055E+2  0.000000E+0  0.368427E+2
 outer loop
  vertex -1.446573E+1 -0.637807E+1  0.165072E+2
  vertex -0.666732E+1 -2.527562E+1  0.111720E+2
  vertex -0.666732E+1 -2.055123E+1  0.111720E+2
 endloop
endfacet
facet normal  0.252054E+2  -0.000000E+0  0.368427E+2
 outer loop
  vertex -0.666732E+1 -0.165369E+1  0.111720E+2
  vertex -1.446573E+1 -0.165369E+1  0.165072E+2
  vertex -0.666732E+1 -0.637807E+1  0.111720E+2
 endloop
endfacet
facet normal  0.252054E+2  0.000000E+0  0.368427E+2
 outer loop
  vertex -0.666732E+1 -0.637807E+1  0.111720E+2
  vertex -1.446573E+1 -0.165369E+1  0.165072E+2
  vertex -1.446573E+1 -0.637807E+1  0.165072E+2
 endloop
endfacet
facet normal  0.252054E+2  -0.000000E+0  0.368427E+2
 outer loop
  vertex -0.666732E+1 -0.637807E+1  0.111720E+2
  vertex -1.446573E+1 -0.637807E+1  0.165072E+2
  vertex -0.666732E+1 -1.110246E+1  0.111720E+2
 endloop
endfacet
facet normal  0.504109E+2  -0.000000E+0  0.736853E+2
 outer loop
  vertex -0.666732E+1 -1.110246E+1  0.111720E+2
  vertex -1.446573E+1 -0.637807E+1  0.165072E+2
  vertex -0.666732E+1 -2.055123E+1  0.111720E+2
 endloop
endfacet
facet normal  0.252055E+2  -0.000000E+0  0.368427E+2
 outer loop
  vertex -0.666732E+1 -1.110246E+1  0.111720E+2
  vertex -0.666732E+1 -2.055123E+1  0.111720E+2
  vertex -0.276812E+1 -1.110246E+1  0.850441E+1
 endloop
endfacet
facet normal  0.126027E+3  7.629395E-6  0.184214E+3
 outer loop
  vertex -0.276812E+1 -1.110246E+1  0.850441E+1
  vertex -0.666732E+1 -2.055123E+1  0.111720E+2
  vertex  0.128287E+2 -2.055123E+1 -0.216594E+1
 endloop
endfacet
facet normal  0.756163E+2  0.000000E+0  0.110528E+3
 outer loop
  vertex -0.276812E+1 -1.110246E+1  0.850441E+1
  vertex  0.128287E+2 -2.055123E+1 -0.216594E+1
  vertex  0.892950E+1 -1.110246E+1  0.050165E+1
 endloop
endfacet
facet normal  0.252055E+2  0.000000E+0  0.368427E+2
 outer loop
  vertex  0.892950E+1 -1.110246E+1  0.050165E+1
  vertex  0.128287E+2 -2.055123E+1 -0.216594E+1
  vertex  0.128287E+2 -1.110246E+1 -0.216594E+1
 endloop
endfacet
facet normal -0.190013E+1  2.682209E-7 -0.277741E+1
 outer loop
  vertex  0.649237E+1 -0.637807E+1 -0.444167E+1
  vertex  0.573090E+1 -0.510381E+1 -0.392072E+1
  vertex  0.584881E+1 -0.165369E+1 -0.400138E+1
 endloop
endfacet
facet normal -0.228351E+1  3.576279E-7 -0.333780E+1
 outer loop
  vertex  0.573090E+1 -0.510381E+1 -0.392072E+1
  vertex  0.480098E+1 -0.400587E+1 -0.328452E+1
  vertex  0.584881E+1 -0.165369E+1 -0.400138E+1
 endloop
endfacet
facet normal -0.236107E+1  5.960464E-7 -0.345117E+1
 outer loop
  vertex  0.584881E+1 -0.165369E+1 -0.400138E+1
  vertex  0.480098E+1 -0.400587E+1 -0.328452E+1
  vertex  0.372993E+1 -0.311653E+1 -0.255178E+1
 endloop
endfacet
facet normal -0.213052E+1  0.000000E+0 -0.311417E+1
 outer loop
  vertex  0.584881E+1 -0.165369E+1 -0.400138E+1
  vertex  0.372993E+1 -0.311653E+1 -0.255178E+1
  vertex  0.254925E+1 -0.246194E+1 -0.174404E+1
 endloop
endfacet
facet normal -1.260272E+1  0.000000E+0 -1.842134E+1
 outer loop
  vertex  0.136472E+2  0.779536E+1 -0.933656E+1
  vertex  0.136472E+2  0.307097E+1 -0.933656E+1
  vertex  0.974801E+1  0.307097E+1 -0.666898E+1
 endloop
endfacet
facet normal -0.224708E+1 -0.000000E+1 -0.328454E+1
 outer loop
  vertex  0.746999E+1 -1.261278E+1 -0.511049E+1
  vertex  0.757328E+1 -1.110246E+1 -0.518116E+1
  vertex  0.974801E+1 -1.110246E+1 -0.666898E+1
 endloop
endfacet
facet normal -2.520542E+1  0.000000E+0 -3.684267E+1
 outer loop
  vertex -0.194960E+1 -2.527562E+1  0.133379E+1
  vertex -0.194960E+1 -3.000000E+1  0.133379E+1
  vertex -0.974801E+1 -2.527562E+1  0.666898E+1
 endloop
endfacet
facet normal -3.780811E+1  0.000000E+0 -5.526397E+1
 outer loop
  vertex -0.974801E+1 -2.527562E+1  0.666898E+1
  vertex -0.194960E+1 -3.000000E+1  0.133379E+1
  vertex -1.364721E+1 -3.000000E+1  0.933656E+1
 endloop
endfacet
facet normal -1.260272E+1  -0.000000E+0 -1.842134E+1
 outer loop
  vertex -0.974801E+1 -2.527562E+1  0.666898E+1
  vertex -1.364721E+1 -3.000000E+1  0.933656E+1
  vertex -0.974801E+1 -2.055123E+1  0.666898E+1
 endloop
endfacet
facet normal -2.520544E+1  0.000000E+0 -3.684268E+1
 outer loop
  vertex  0.974801E+1 -0.165369E+1 -0.666898E+1
  vertex  0.175464E+2 -0.165369E+1 -1.200415E+1
  vertex  0.175464E+2 -0.637807E+1 -1.200415E+1
 endloop
endfacet
facet normal -1.890406E+1  0.000000E+0 -2.763198E+1
 outer loop
  vertex  0.175464E+2  0.125197E+2 -1.200415E+1
  vertex  0.175464E+2  0.779536E+1 -1.200415E+1
  vertex  0.116976E+2  0.125197E+2 -0.800277E+1
 endloop
endfacet
facet normal -1.260271E+1  4.768372E-7 -1.842133E+1
 outer loop
  vertex  0.116976E+2  0.125197E+2 -0.800277E+1
  vertex  0.175464E+2  0.779536E+1 -1.200415E+1
  vertex  0.136472E+2  0.779536E+1 -0.933656E+1
 endloop
endfacet
facet normal -0.630135E+1  0.000000E+0 -0.921065E+1
 outer loop
  vertex  0.116976E+2  0.125197E+2 -0.800277E+1
  vertex  0.136472E+2  0.779536E+1 -0.933656E+1
  vertex  0.116976E+2  0.779536E+1 -0.800277E+1
 endloop
endfacet
facet normal -0.630136E+1  1.430511E-6 -0.921067E+1
 outer loop
  vertex  0.116976E+2  0.779536E+1 -0.800277E+1
  vertex  0.136472E+2  0.779536E+1 -0.933656E+1
  vertex  0.974801E+1  0.307097E+1 -0.666898E+1
 endloop
endfacet
facet normal -1.890410E+1  1.907349E-6 -2.763205E+1
 outer loop
  vertex  0.116976E+2  0.779536E+1 -0.800277E+1
  vertex  0.974801E+1  0.307097E+1 -0.666898E+1
  vertex  0.584881E+1  0.779536E+1 -0.400138E+1
 endloop
endfacet
facet normal -1.260345E+1  0.000000E+0 -1.842242E+1
 outer loop
  vertex  0.584881E+1  0.779536E+1 -0.400138E+1
  vertex  0.974801E+1  0.307097E+1 -0.666898E+1
  vertex  0.974801E+1 -0.165369E+1 -0.666898E+1
 endloop
endfacet
facet normal -2.520620E+1  0.000000E+0 -3.684379E+1
 outer loop
  vertex  0.584881E+1  0.779536E+1 -0.400138E+1
  vertex  0.974801E+1 -0.165369E+1 -0.666898E+1
  vertex  0.584881E+1 -0.165369E+1 -0.400138E+1
 endloop
endfacet
facet normal -1.260274E+1  0.000000E+0 -1.842137E+1
 outer loop
  vertex  0.584881E+1 -0.165369E+1 -0.400138E+1
  vertex  0.974801E+1 -0.165369E+1 -0.666898E+1
  vertex  0.974801E+1 -0.637807E+1 -0.666898E+1
 endloop
endfacet
facet normal -1.052267E+1  4.768372E-7 -1.538095E+1
 outer loop
  vertex  0.584881E+1 -0.165369E+1 -0.400138E+1
  vertex  0.974801E+1 -0.637807E+1 -0.666898E+1
  vertex  0.649237E+1 -0.637807E+1 -0.444167E+1
 endloop
endfacet
facet normal -2.520544E+1  0.000000E+0 -3.684268E+1
 outer loop
  vertex  0.974801E+1 -0.165369E+1 -0.666898E+1
  vertex  0.175464E+2 -0.637807E+1 -1.200415E+1
  vertex  0.974801E+1 -0.637807E+1 -0.666898E+1
 endloop
endfacet
facet normal -5.041086E+1  0.000000E+0 -7.368535E+1
 outer loop
  vertex  0.974801E+1 -0.637807E+1 -0.666898E+1
  vertex  0.175464E+2 -0.637807E+1 -1.200415E+1
  vertex  0.175464E+2 -1.582685E+1 -1.200415E+1
 endloop
endfacet
facet normal -2.520543E+1  0.000000E+0 -3.684268E+1
 outer loop
  vertex  0.974801E+1 -0.637807E+1 -0.666898E+1
  vertex  0.175464E+2 -1.582685E+1 -1.200415E+1
  vertex  0.974801E+1 -1.110246E+1 -0.666898E+1
 endloop
endfacet
facet normal -5.041087E+1  0.000000E+0 -7.368536E+1
 outer loop
  vertex  0.974801E+1 -1.110246E+1 -0.666898E+1
  vertex  0.175464E+2 -1.582685E+1 -1.200415E+1
  vertex  0.175464E+2 -2.527562E+1 -1.200415E+1
 endloop
endfacet
facet normal -3.780818E+1 -0.000000E+1 -5.526406E+1
 outer loop
  vertex  0.974801E+1 -1.110246E+1 -0.666898E+1
  vertex  0.175464E+2 -2.527562E+1 -1.200415E+1
  vertex  0.136472E+2 -2.527562E+1 -0.933656E+1
 endloop
endfacet
facet normal -3.780822E+1  -0.000000E+0 -5.526410E+1
 outer loop
  vertex  0.253448E+2 -2.527562E+1 -1.733933E+1
  vertex  0.214456E+2 -2.527562E+1 -1.467174E+1
  vertex  0.253448E+2 -1.110246E+1 -1.733933E+1
 endloop
endfacet
facet normal -2.520548E+1  0.000000E+0 -3.684273E+1
 outer loop
  vertex  0.253448E+2 -1.110246E+1 -1.733933E+1
  vertex  0.214456E+2 -2.527562E+1 -1.467174E+1
  vertex  0.214456E+2 -1.582685E+1 -1.467174E+1
 endloop
endfacet
facet normal -1.260274E+1  0.000000E+0 -1.842137E+1
 outer loop
  vertex  0.253448E+2 -1.110246E+1 -1.733933E+1
  vertex  0.214456E+2 -1.582685E+1 -1.467174E+1
  vertex  0.214456E+2 -1.110246E+1 -1.467174E+1
 endloop
endfacet
facet normal -1.260271E+1  0.000000E+0 -1.842133E+1
 outer loop
  vertex  0.214456E+2 -1.110246E+1 -1.467174E+1
  vertex  0.214456E+2 -1.582685E+1 -1.467174E+1
  vertex  0.175464E+2 -1.582685E+1 -1.200415E+1
 endloop
endfacet
facet normal -1.260271E+1  -0.000000E+0 -1.842133E+1
 outer loop
  vertex  0.214456E+2 -1.110246E+1 -1.467174E+1
  vertex  0.175464E+2 -1.582685E+1 -1.200415E+1
  vertex  0.214456E+2 -0.637807E+1 -1.467174E+1
 endloop
endfacet
facet normal -2.520542E+1  0.000000E+0 -3.684266E+1
 outer loop
  vertex  0.214456E+2 -0.637807E+1 -1.467174E+1
  vertex  0.175464E+2 -1.582685E+1 -1.200415E+1
  vertex  0.175464E+2 -0.637807E+1 -1.200415E+1
 endloop
endfacet
facet normal -1.260269E+1  -0.000000E+0 -1.842130E+1
 outer loop
  vertex -1.364721E+1 -3.000000E+1  0.933656E+1
  vertex -1.364721E+1 -2.527562E+1  0.933656E+1
  vertex -0.974801E+1 -2.055123E+1  0.666898E+1
 endloop
endfacet
facet normal -1.260274E+1  1.907349E-6 -1.842137E+1
 outer loop
  vertex -0.974801E+1 -2.055123E+1  0.666898E+1
  vertex -1.364721E+1 -2.527562E+1  0.933656E+1
  vertex -1.754642E+1 -2.527562E+1  0.120042E+2
 endloop
endfacet
facet normal -5.041087E+1  0.000000E+0 -7.368536E+1
 outer loop
  vertex -0.974801E+1 -2.055123E+1  0.666898E+1
  vertex -1.754642E+1 -2.527562E+1  0.120042E+2
  vertex -1.754642E+1 -1.582685E+1  0.120042E+2
 endloop
endfacet
facet normal -2.520543E+1  -0.000000E+0 -3.684268E+1
 outer loop
  vertex -0.974801E+1 -1.110246E+1  0.666898E+1
  vertex -1.754642E+1 -0.637807E+1  0.120042E+2
  vertex -0.974801E+1 -0.637807E+1  0.666898E+1
 endloop
endfacet
facet normal -2.520544E+1  0.000000E+0 -3.684268E+1
 outer loop
  vertex -0.974801E+1 -0.637807E+1  0.666898E+1
  vertex -1.754642E+1 -0.637807E+1  0.120042E+2
  vertex -1.754642E+1 -0.165369E+1  0.120042E+2
 endloop
endfacet
facet normal -1.052268E+1  3.814697E-6 -1.538097E+1
 outer loop
  vertex -0.974801E+1 -0.637807E+1  0.666898E+1
  vertex -1.754642E+1 -0.165369E+1  0.120042E+2
  vertex -0.649236E+1 -0.637807E+1  0.444166E+1
 endloop
endfacet
facet normal -1.260346E+1  0.000000E+0 -1.842242E+1
 outer loop
  vertex -0.584880E+1 -0.165369E+1  0.400138E+1
  vertex -0.974801E+1 -0.165369E+1  0.666898E+1
  vertex -0.974801E+1  0.307097E+1  0.666898E+1
 endloop
endfacet
facet normal -0.159863E+1  4.768372E-7 -0.233671E+1
 outer loop
  vertex  0.254925E+1 -0.246194E+1 -0.174404E+1
  vertex  0.129364E+1 -0.206132E+1 -0.088503E+1
  vertex  0.584881E+1 -0.165369E+1 -0.400138E+1
 endloop
endfacet
facet normal -0.078104E+1  1.907349E-6 -0.114164E+1
 outer loop
  vertex  0.584881E+1 -0.165369E+1 -0.400138E+1
  vertex  0.129364E+1 -0.206132E+1 -0.088503E+1
  vertex  4.994686E-16 -0.192646E+1  7.300711E-16
 endloop
endfacet
facet normal -0.218294E+1  3.814697E-6 -0.319079E+1
 outer loop
  vertex  0.584881E+1 -0.165369E+1 -0.400138E+1
  vertex  4.994686E-16 -0.192646E+1  7.300711E-16
  vertex -0.584880E+1 -0.165369E+1  0.400138E+1
 endloop
endfacet
facet normal -0.078104E+1  1.907349E-6 -0.114164E+1
 outer loop
  vertex -0.584880E+1 -0.165369E+1  0.400138E+1
  vertex  4.994686E-16 -0.192646E+1  7.300711E-16
  vertex -0.129364E+1 -0.206132E+1  0.088503E+1
 endloop
endfacet
facet normal -0.467822E+1 -0.000000E+1 -0.683813E+1
 outer loop
  vertex  0.974801E+1 -2.055123E+1 -0.666898E+1
  vertex  0.666050E+1 -1.546975E+1 -0.455669E+1
  vertex  0.716294E+1 -1.408190E+1 -0.490043E+1
 endloop
endfacet
facet normal -1.260271E+1  -0.000000E+0 -1.842133E+1
 outer loop
  vertex -1.754642E+1  0.779536E+1  0.120042E+2
  vertex -1.754642E+1  0.125197E+2  0.120042E+2
  vertex -1.364721E+1  0.779536E+1  0.933656E+1
 endloop
endfacet
facet normal -1.890406E+1 -0.000000E+1 -2.763198E+1
 outer loop
  vertex -1.364721E+1  0.779536E+1  0.933656E+1
  vertex -1.754642E+1  0.125197E+2  0.120042E+2
  vertex -1.169761E+1  0.125197E+2  0.800277E+1
 endloop
endfacet
facet normal -0.630136E+1  0.000000E+0 -0.921067E+1
 outer loop
  vertex -1.364721E+1  0.779536E+1  0.933656E+1
  vertex -1.169761E+1  0.125197E+2  0.800277E+1
  vertex -1.364721E+1  0.307097E+1  0.933656E+1
 endloop
endfacet
facet normal -0.630135E+1  0.000000E+0 -0.921065E+1
 outer loop
  vertex -1.364721E+1  0.307097E+1  0.933656E+1
  vertex -1.169761E+1  0.125197E+2  0.800277E+1
  vertex -1.169761E+1  0.779536E+1  0.800277E+1
 endloop
endfacet
facet normal -1.260272E+1 -0.000000E+1 -1.842134E+1
 outer loop
  vertex -1.364721E+1  0.307097E+1  0.933656E+1
  vertex -1.169761E+1  0.779536E+1  0.800277E+1
  vertex -0.974801E+1  0.307097E+1  0.666898E+1
 endloop
endfacet
facet normal -1.890410E+1 -0.000000E+1 -2.763205E+1
 outer loop
  vertex -0.974801E+1  0.307097E+1  0.666898E+1
  vertex -1.169761E+1  0.779536E+1  0.800277E+1
  vertex -0.584880E+1  0.779536E+1  0.400138E+1
 endloop
endfacet
facet normal -2.520621E+1  0.000000E+0 -3.684381E+1
 outer loop
  vertex -0.974801E+1  0.307097E+1  0.666898E+1
  vertex -0.584880E+1  0.779536E+1  0.400138E+1
  vertex -0.584880E+1 -0.165369E+1  0.400138E+1
 endloop
endfacet
facet normal -2.520548E+1  -0.000000E+0 -3.684273E+1
 outer loop
  vertex -2.144562E+1 -2.527562E+1  0.146717E+2
  vertex -2.534483E+1 -2.527562E+1  0.173393E+2
  vertex -2.144562E+1 -1.582685E+1  0.146717E+2
 endloop
endfacet
facet normal -3.780822E+1  0.000000E+0 -5.526410E+1
 outer loop
  vertex -2.144562E+1 -1.582685E+1  0.146717E+2
  vertex -2.534483E+1 -2.527562E+1  0.173393E+2
  vertex -2.534483E+1 -1.110246E+1  0.173393E+2
 endloop
endfacet
facet normal -1.260271E+1  5.722046E-6 -1.842133E+1
 outer loop
  vertex -2.144562E+1 -1.582685E+1  0.146717E+2
  vertex -2.534483E+1 -1.110246E+1  0.173393E+2
  vertex -1.754642E+1 -1.582685E+1  0.120042E+2
 endloop
endfacet
facet normal -1.260274E+1 -0.000001E+1 -1.842136E+1
 outer loop
  vertex -1.754642E+1 -1.582685E+1  0.120042E+2
  vertex -2.534483E+1 -1.110246E+1  0.173393E+2
  vertex -2.144562E+1 -1.110246E+1  0.146717E+2
 endloop
endfacet
facet normal -1.260273E+1 -0.000000E+1 -1.842135E+1
 outer loop
  vertex -1.754642E+1 -1.582685E+1  0.120042E+2
  vertex -2.144562E+1 -1.110246E+1  0.146717E+2
  vertex -0.974801E+1 -2.055123E+1  0.666898E+1
 endloop
endfacet
facet normal -0.409605E+1  4.768372E-7 -0.598718E+1
 outer loop
  vertex -0.414219E+1 -1.878430E+1  0.283382E+1
  vertex -0.304215E+1 -1.950560E+1  0.208125E+1
  vertex -0.974801E+1 -2.055123E+1  0.666898E+1
 endloop
endfacet
facet normal -3.780811E+1  -0.000000E+0 -5.526396E+1
 outer loop
  vertex  0.194960E+1 -3.000000E+1 -0.133380E+1
  vertex  0.194960E+1 -2.527562E+1 -0.133380E+1
  vertex  0.136472E+2 -3.000000E+1 -0.933656E+1
 endloop
endfacet
facet normal -2.520542E+1 -0.000000E+1 -3.684266E+1
 outer loop
  vertex  0.136472E+2 -3.000000E+1 -0.933656E+1
  vertex  0.194960E+1 -2.527562E+1 -0.133380E+1
  vertex  0.974801E+1 -2.527562E+1 -0.666898E+1
 endloop
endfacet
facet normal -1.260269E+1  -0.000000E+0 -1.842130E+1
 outer loop
  vertex  0.136472E+2 -3.000000E+1 -0.933656E+1
  vertex  0.974801E+1 -2.527562E+1 -0.666898E+1
  vertex  0.136472E+2 -2.527562E+1 -0.933656E+1
 endloop
endfacet
facet normal -1.260272E+1  0.000000E+0 -1.842134E+1
 outer loop
  vertex  0.136472E+2 -2.527562E+1 -0.933656E+1
  vertex  0.974801E+1 -2.527562E+1 -0.666898E+1
  vertex  0.974801E+1 -2.055123E+1 -0.666898E+1
 endloop
endfacet
facet normal -2.520540E+1  0.000000E+0 -3.684264E+1
 outer loop
  vertex  0.136472E+2 -2.527562E+1 -0.933656E+1
  vertex  0.974801E+1 -2.055123E+1 -0.666898E+1
  vertex  0.974801E+1 -1.110246E+1 -0.666898E+1
 endloop
endfacet
facet normal -1.671058E+1  0.000000E+0 -2.442579E+1
 outer loop
  vertex  0.974801E+1 -1.110246E+1 -0.666898E+1
  vertex  0.974801E+1 -2.055123E+1 -0.666898E+1
  vertex  0.716294E+1 -1.408190E+1 -0.490043E+1
 endloop
endfacet
facet normal -0.197234E+1  4.768372E-7 -0.288296E+1
 outer loop
  vertex  0.974801E+1 -1.110246E+1 -0.666898E+1
  vertex  0.716294E+1 -1.408190E+1 -0.490043E+1
  vertex  0.746999E+1 -1.261278E+1 -0.511049E+1
 endloop
endfacet
facet normal -0.224708E+1  2.980232E-8 -0.328454E+1
 outer loop
  vertex -0.757328E+1 -1.110246E+1  0.518116E+1
  vertex -0.746999E+1 -1.261278E+1  0.511049E+1
  vertex -0.974801E+1 -1.110246E+1  0.666898E+1
 endloop
endfacet
facet normal -0.197233E+1 -0.000000E+1 -0.288295E+1
 outer loop
  vertex -0.974801E+1 -1.110246E+1  0.666898E+1
  vertex -0.746999E+1 -1.261278E+1  0.511049E+1
  vertex -0.716294E+1 -1.408190E+1  0.490043E+1
 endloop
endfacet
facet normal -0.282122E+1  0.000000E+0 -0.412376E+1
 outer loop
  vertex -0.512924E+1 -1.785346E+1  0.350910E+1
  vertex -1.754642E+1 -0.637807E+1  0.120042E+2
  vertex -0.597638E+1 -1.673847E+1  0.408866E+1
 endloop
endfacet
facet normal -1.787874E+1 -0.000000E+1 -2.613328E+1
 outer loop
  vertex -0.597638E+1 -1.673847E+1  0.408866E+1
  vertex -1.754642E+1 -0.637807E+1  0.120042E+2
  vertex -0.974801E+1 -1.110246E+1  0.666898E+1
 endloop
endfacet
facet normal -0.063587E+1 -0.000000E+1 -0.092945E+1
 outer loop
  vertex -0.597638E+1 -1.673847E+1  0.408866E+1
  vertex -0.974801E+1 -1.110246E+1  0.666898E+1
  vertex -0.666050E+1 -1.546975E+1  0.455669E+1
 endloop
endfacet
facet normal -0.143034E+1  4.768372E-7 -0.209072E+1
 outer loop
  vertex -0.666050E+1 -1.546975E+1  0.455669E+1
  vertex -0.974801E+1 -1.110246E+1  0.666898E+1
  vertex -0.716294E+1 -1.408190E+1  0.490043E+1
 endloop
endfacet
facet normal -2.520544E+1 -0.000001E+1 -3.684268E+1
 outer loop
  vertex -1.754642E+1 -0.165369E+1  0.120042E+2
  vertex -0.974801E+1 -0.165369E+1  0.666898E+1
  vertex -0.649236E+1 -0.637807E+1  0.444166E+1
 endloop
endfacet
facet normal -1.260274E+1 -0.000000E+1 -1.842138E+1
 outer loop
  vertex -0.649236E+1 -0.637807E+1  0.444166E+1
  vertex -0.974801E+1 -0.165369E+1  0.666898E+1
  vertex -0.584880E+1 -0.165369E+1  0.400138E+1
 endloop
endfacet
facet normal -0.190012E+1 -0.000000E+1 -0.277740E+1
 outer loop
  vertex -0.649236E+1 -0.637807E+1  0.444166E+1
  vertex -0.584880E+1 -0.165369E+1  0.400138E+1
  vertex -0.573090E+1 -0.510381E+1  0.392072E+1
 endloop
endfacet
facet normal -0.228351E+1 -0.000000E+1 -0.333780E+1
 outer loop
  vertex -0.573090E+1 -0.510381E+1  0.392072E+1
  vertex -0.584880E+1 -0.165369E+1  0.400138E+1
  vertex -0.480097E+1 -0.400587E+1  0.328452E+1
 endloop
endfacet
facet normal -0.310376E+1 -0.000000E+1 -0.453675E+1
 outer loop
  vertex  0.185913E+1 -1.999767E+1 -0.127190E+1
  vertex  0.304215E+1 -1.950560E+1 -0.208125E+1
  vertex  0.974801E+1 -2.055123E+1 -0.666898E+1
 endloop
endfacet
facet normal -0.409605E+1  0.000000E+0 -0.598718E+1
 outer loop
  vertex  0.974801E+1 -2.055123E+1 -0.666898E+1
  vertex  0.304215E+1 -1.950560E+1 -0.208125E+1
  vertex  0.414219E+1 -1.878430E+1 -0.283383E+1
 endloop
endfacet
facet normal -0.159863E+1  0.000000E+0 -0.233671E+1
 outer loop
  vertex -0.129364E+1 -0.206132E+1  0.088503E+1
  vertex -0.254925E+1 -0.246194E+1  0.174404E+1
  vertex -0.584880E+1 -0.165369E+1  0.400138E+1
 endloop
endfacet
facet normal -0.213052E+1  4.768372E-7 -0.311417E+1
 outer loop
  vertex -0.584880E+1 -0.165369E+1  0.400138E+1
  vertex -0.254925E+1 -0.246194E+1  0.174404E+1
  vertex -0.372993E+1 -0.311653E+1  0.255178E+1
 endloop
endfacet
facet normal -0.236107E+1  2.384186E-7 -0.345117E+1
 outer loop
  vertex -0.584880E+1 -0.165369E+1  0.400138E+1
  vertex -0.372993E+1 -0.311653E+1  0.255178E+1
  vertex -0.480097E+1 -0.400587E+1  0.328452E+1
 endloop
endfacet
facet normal -0.015840E+1  2.861023E-6 -0.023154E+1
 outer loop
  vertex -0.512924E+1 -1.785346E+1  0.350910E+1
  vertex -0.414219E+1 -1.878430E+1  0.283382E+1
  vertex -1.754642E+1 -0.637807E+1  0.120042E+2
 endloop
endfacet
facet normal -6.378308E+1  0.000000E+0 -9.323146E+1
 outer loop
  vertex -1.754642E+1 -0.637807E+1  0.120042E+2
  vertex -0.414219E+1 -1.878430E+1  0.283382E+1
  vertex -0.974801E+1 -2.055123E+1  0.666898E+1
 endloop
endfacet
facet normal -3.780812E+1  3.814697E-6 -5.526398E+1
 outer loop
  vertex -1.754642E+1 -0.637807E+1  0.120042E+2
  vertex -0.974801E+1 -2.055123E+1  0.666898E+1
  vertex -2.144562E+1 -0.637807E+1  0.146717E+2
 endloop
endfacet
facet normal -3.780814E+1  0.000000E+0 -5.526401E+1
 outer loop
  vertex -2.144562E+1 -0.637807E+1  0.146717E+2
  vertex -0.974801E+1 -2.055123E+1  0.666898E+1
  vertex -2.144562E+1 -1.110246E+1  0.146717E+2
 endloop
endfacet
facet normal -0.310376E+1 -0.000000E+1 -0.453675E+1
 outer loop
  vertex -0.304215E+1 -1.950560E+1  0.208125E+1
  vertex -0.185913E+1 -1.999767E+1  0.127190E+1
  vertex -0.974801E+1 -2.055123E+1  0.666898E+1
 endloop
endfacet
facet normal -0.181353E+1  3.814697E-6 -0.265083E+1
 outer loop
  vertex -0.974801E+1 -2.055123E+1  0.666898E+1
  vertex -0.185913E+1 -1.999767E+1  0.127190E+1
  vertex -0.062540E+1 -2.024712E+1  0.042786E+1
 endloop
endfacet
facet normal -0.405620E+1 -0.000001E+1 -0.592893E+1
 outer loop
  vertex -0.974801E+1 -2.055123E+1  0.666898E+1
  vertex -0.062540E+1 -2.024712E+1  0.042786E+1
  vertex  0.974801E+1 -2.055123E+1 -0.666898E+1
 endloop
endfacet
facet normal -0.026023E+1  7.629395E-6 -0.038038E+1
 outer loop
  vertex  0.974801E+1 -2.055123E+1 -0.666898E+1
  vertex -0.062540E+1 -2.024712E+1  0.042786E+1
  vertex  0.062540E+1 -2.024712E+1 -0.042786E+1
 endloop
endfacet
facet normal -0.181353E+1 -0.000000E+1 -0.265083E+1
 outer loop
  vertex  0.974801E+1 -2.055123E+1 -0.666898E+1
  vertex  0.062540E+1 -2.024712E+1 -0.042786E+1
  vertex  0.185913E+1 -1.999767E+1 -0.127190E+1
 endloop
endfacet
facet normal -0.476306E+1  7.152557E-7 -0.696215E+1
 outer loop
  vertex  0.414219E+1 -1.878430E+1 -0.283383E+1
  vertex  0.512925E+1 -1.785346E+1 -0.350911E+1
  vertex  0.974801E+1 -2.055123E+1 -0.666898E+1
 endloop
endfacet
facet normal -0.508673E+1 -0.000000E+1 -0.743525E+1
 outer loop
  vertex  0.974801E+1 -2.055123E+1 -0.666898E+1
  vertex  0.512925E+1 -1.785346E+1 -0.350911E+1
  vertex  0.597638E+1 -1.673847E+1 -0.408866E+1
 endloop
endfacet
facet normal -0.505819E+1  4.768372E-7 -0.739354E+1
 outer loop
  vertex  0.974801E+1 -2.055123E+1 -0.666898E+1
  vertex  0.597638E+1 -1.673847E+1 -0.408866E+1
  vertex  0.666050E+1 -1.546975E+1 -0.455669E+1
 endloop
endfacet
facet normal  0.000000E+0  0.257763E+2  -0.000000E+0
 outer loop
  vertex  0.245263E+2 -1.110246E+1 -1.016871E+1
  vertex  0.284255E+2 -1.110246E+1 -1.283630E+1
  vertex  0.214456E+2 -1.110246E+1 -1.467174E+1
 endloop
endfacet
facet normal  0.000000E+0  0.257763E+2  0.000000E+0
 outer loop
  vertex  0.214456E+2 -1.110246E+1 -1.467174E+1
  vertex  0.284255E+2 -1.110246E+1 -1.283630E+1
  vertex  0.253448E+2 -1.110246E+1 -1.733933E+1
 endloop
endfacet
facet normal  0.212741E+2  0.000000E+0 -1.455436E+1
 outer loop
  vertex  0.245263E+2 -0.637807E+1 -1.016871E+1
  vertex  0.245263E+2 -1.110246E+1 -1.016871E+1
  vertex  0.214456E+2 -0.637807E+1 -1.467174E+1
 endloop
endfacet
facet normal  0.212741E+2  0.000000E+0 -1.455436E+1
 outer loop
  vertex  0.214456E+2 -0.637807E+1 -1.467174E+1
  vertex  0.245263E+2 -1.110246E+1 -1.016871E+1
  vertex  0.214456E+2 -1.110246E+1 -1.467174E+1
 endloop
endfacet
facet normal  0.000000E+0  0.257762E+2  -0.000000E+0
 outer loop
  vertex  0.206271E+2 -0.637807E+1 -0.750112E+1
  vertex  0.245263E+2 -0.637807E+1 -1.016871E+1
  vertex  0.175464E+2 -0.637807E+1 -1.200415E+1
 endloop
endfacet
facet normal  0.000000E+0  0.257762E+2  0.000000E+0
 outer loop
  vertex  0.175464E+2 -0.637807E+1 -1.200415E+1
  vertex  0.245263E+2 -0.637807E+1 -1.016871E+1
  vertex  0.214456E+2 -0.637807E+1 -1.467174E+1
 endloop
endfacet
facet normal  0.212741E+2  0.000000E+0 -1.455437E+1
 outer loop
  vertex  0.206271E+2 -0.165369E+1 -0.750112E+1
  vertex  0.206271E+2 -0.637807E+1 -0.750112E+1
  vertex  0.175464E+2 -0.165369E+1 -1.200415E+1
 endloop
endfacet
facet normal  0.212741E+2  0.000000E+0 -1.455437E+1
 outer loop
  vertex  0.175464E+2 -0.165369E+1 -1.200415E+1
  vertex  0.206271E+2 -0.637807E+1 -0.750112E+1
  vertex  0.175464E+2 -0.637807E+1 -1.200415E+1
 endloop
endfacet
facet normal  0.000000E+0  0.515525E+2  -0.000000E+0
 outer loop
  vertex  0.128287E+2 -0.165369E+1 -0.216594E+1
  vertex  0.206271E+2 -0.165369E+1 -0.750112E+1
  vertex  0.974801E+1 -0.165369E+1 -0.666898E+1
 endloop
endfacet
facet normal  0.000000E+0  0.515525E+2  0.000000E+0
 outer loop
  vertex  0.974801E+1 -0.165369E+1 -0.666898E+1
  vertex  0.206271E+2 -0.165369E+1 -0.750112E+1
  vertex  0.175464E+2 -0.165369E+1 -1.200415E+1
 endloop
endfacet
facet normal  0.212753E+2  0.000000E+0 -1.455520E+1
 outer loop
  vertex  0.128287E+2  0.307097E+1 -0.216594E+1
  vertex  0.128287E+2 -0.165369E+1 -0.216594E+1
  vertex  0.974801E+1  0.307097E+1 -0.666898E+1
 endloop
endfacet
facet normal  0.212753E+2  0.000000E+0 -1.455520E+1
 outer loop
  vertex  0.974801E+1  0.307097E+1 -0.666898E+1
  vertex  0.128287E+2 -0.165369E+1 -0.216594E+1
  vertex  0.974801E+1 -0.165369E+1 -0.666898E+1
 endloop
endfacet
facet normal  0.000000E+0 -2.577622E+1  0.000000E+0
 outer loop
  vertex  0.167279E+2  0.307097E+1 -0.483353E+1
  vertex  0.128287E+2  0.307097E+1 -0.216594E+1
  vertex  0.136472E+2  0.307097E+1 -0.933656E+1
 endloop
endfacet
facet normal  0.000000E+0 -2.577622E+1  0.000000E+0
 outer loop
  vertex  0.136472E+2  0.307097E+1 -0.933656E+1
  vertex  0.128287E+2  0.307097E+1 -0.216594E+1
  vertex  0.974801E+1  0.307097E+1 -0.666898E+1
 endloop
endfacet
facet normal  0.212741E+2  0.000000E+0 -1.455438E+1
 outer loop
  vertex  0.167279E+2  0.779536E+1 -0.483353E+1
  vertex  0.167279E+2  0.307097E+1 -0.483353E+1
  vertex  0.136472E+2  0.779536E+1 -0.933656E+1
 endloop
endfacet
facet normal  0.212741E+2  0.000000E+0 -1.455438E+1
 outer loop
  vertex  0.136472E+2  0.779536E+1 -0.933656E+1
  vertex  0.167279E+2  0.307097E+1 -0.483353E+1
  vertex  0.136472E+2  0.307097E+1 -0.933656E+1
 endloop
endfacet
facet normal  0.000000E+0 -2.577626E+1  0.000000E+0
 outer loop
  vertex  0.206271E+2  0.779536E+1 -0.750112E+1
  vertex  0.167279E+2  0.779536E+1 -0.483353E+1
  vertex  0.175464E+2  0.779536E+1 -1.200415E+1
 endloop
endfacet
facet normal  0.000000E+0 -2.577626E+1  0.000000E+0
 outer loop
  vertex  0.175464E+2  0.779536E+1 -1.200415E+1
  vertex  0.167279E+2  0.779536E+1 -0.483353E+1
  vertex  0.136472E+2  0.779536E+1 -0.933656E+1
 endloop
endfacet
facet normal  0.212740E+2  0.000000E+0 -1.455435E+1
 outer loop
  vertex  0.206271E+2  0.125197E+2 -0.750112E+1
  vertex  0.206271E+2  0.779536E+1 -0.750112E+1
  vertex  0.175464E+2  0.125197E+2 -1.200415E+1
 endloop
endfacet
facet normal  0.212740E+2  0.000000E+0 -1.455435E+1
 outer loop
  vertex  0.175464E+2  0.125197E+2 -1.200415E+1
  vertex  0.206271E+2  0.779536E+1 -0.750112E+1
  vertex  0.175464E+2  0.779536E+1 -1.200415E+1
 endloop
endfacet
facet normal  0.000000E+0  0.386644E+2  -0.000000E+0
 outer loop
  vertex  0.147783E+2  0.125197E+2 -0.349974E+1
  vertex  0.206271E+2  0.125197E+2 -0.750112E+1
  vertex  0.116976E+2  0.125197E+2 -0.800277E+1
 endloop
endfacet
facet normal  0.000000E+0  0.386644E+2  0.000000E+0
 outer loop
  vertex  0.116976E+2  0.125197E+2 -0.800277E+1
  vertex  0.206271E+2  0.125197E+2 -0.750112E+1
  vertex  0.175464E+2  0.125197E+2 -1.200415E+1
 endloop
endfacet
facet normal -2.127403E+1  0.000000E+0  0.145543E+2
 outer loop
  vertex  0.147783E+2  0.779536E+1 -0.349974E+1
  vertex  0.147783E+2  0.125197E+2 -0.349974E+1
  vertex  0.116976E+2  0.779536E+1 -0.800277E+1
 endloop
endfacet
facet normal -2.127403E+1  0.000000E+0  0.145543E+2
 outer loop
  vertex  0.116976E+2  0.779536E+1 -0.800277E+1
  vertex  0.147783E+2  0.125197E+2 -0.349974E+1
  vertex  0.116976E+2  0.125197E+2 -0.800277E+1
 endloop
endfacet
facet normal  0.000000E+0  0.386644E+2  -0.000000E+0
 outer loop
  vertex  0.892950E+1  0.779536E+1  0.050165E+1
  vertex  0.147783E+2  0.779536E+1 -0.349974E+1
  vertex  0.584881E+1  0.779536E+1 -0.400138E+1
 endloop
endfacet
facet normal  0.000000E+0  0.386644E+2  0.000000E+0
 outer loop
  vertex  0.584881E+1  0.779536E+1 -0.400138E+1
  vertex  0.147783E+2  0.779536E+1 -0.349974E+1
  vertex  0.116976E+2  0.779536E+1 -0.800277E+1
 endloop
endfacet
facet normal -4.254935E+1  0.000000E+0  0.291096E+2
 outer loop
  vertex  0.892950E+1 -0.165369E+1  0.050165E+1
  vertex  0.892950E+1  0.779536E+1  0.050165E+1
  vertex  0.584881E+1 -0.165369E+1 -0.400138E+1
 endloop
endfacet
facet normal -4.254935E+1  0.000000E+0  0.291096E+2
 outer loop
  vertex  0.584881E+1 -0.165369E+1 -0.400138E+1
  vertex  0.892950E+1  0.779536E+1  0.050165E+1
  vertex  0.584881E+1  0.779536E+1 -0.400138E+1
 endloop
endfacet
facet normal  0.000000E+0  0.773287E+2  -0.000000E+0
 outer loop
  vertex -0.276812E+1 -0.165369E+1  0.850441E+1
  vertex  0.892950E+1 -0.165369E+1  0.050165E+1
  vertex -0.584880E+1 -0.165369E+1  0.400138E+1
 endloop
endfacet
facet normal  0.000000E+0  0.773287E+2  0.000000E+0
 outer loop
  vertex -0.584880E+1 -0.165369E+1  0.400138E+1
  vertex  0.892950E+1 -0.165369E+1  0.050165E+1
  vertex  0.584881E+1 -0.165369E+1 -0.400138E+1
 endloop
endfacet
facet normal  0.425493E+2  0.000000E+0 -2.910957E+1
 outer loop
  vertex -0.276812E+1  0.779536E+1  0.850441E+1
  vertex -0.276812E+1 -0.165369E+1  0.850441E+1
  vertex -0.584880E+1  0.779536E+1  0.400138E+1
 endloop
endfacet
facet normal  0.425493E+2  0.000000E+0 -2.910957E+1
 outer loop
  vertex -0.584880E+1  0.779536E+1  0.400138E+1
  vertex -0.276812E+1 -0.165369E+1  0.850441E+1
  vertex -0.584880E+1 -0.165369E+1  0.400138E+1
 endloop
endfacet
facet normal  0.000000E+0  0.386644E+2  -0.000000E+0
 outer loop
  vertex -0.861692E+1  0.779536E+1  0.125058E+2
  vertex -0.276812E+1  0.779536E+1  0.850441E+1
  vertex -1.169761E+1  0.779536E+1  0.800277E+1
 endloop
endfacet
facet normal  0.000000E+0  0.386644E+2  0.000000E+0
 outer loop
  vertex -1.169761E+1  0.779536E+1  0.800277E+1
  vertex -0.276812E+1  0.779536E+1  0.850441E+1
  vertex -0.584880E+1  0.779536E+1  0.400138E+1
 endloop
endfacet
facet normal  0.212740E+2  0.000000E+0 -1.455435E+1
 outer loop
  vertex -0.861692E+1  0.125197E+2  0.125058E+2
  vertex -0.861692E+1  0.779536E+1  0.125058E+2
  vertex -1.169761E+1  0.125197E+2  0.800277E+1
 endloop
endfacet
facet normal  0.212740E+2  0.000000E+0 -1.455435E+1
 outer loop
  vertex -1.169761E+1  0.125197E+2  0.800277E+1
  vertex -0.861692E+1  0.779536E+1  0.125058E+2
  vertex -1.169761E+1  0.779536E+1  0.800277E+1
 endloop
endfacet
facet normal  0.000000E+0  0.386644E+2  -0.000000E+0
 outer loop
  vertex -1.446573E+1  0.125197E+2  0.165072E+2
  vertex -0.861692E+1  0.125197E+2  0.125058E+2
  vertex -1.754642E+1  0.125197E+2  0.120042E+2
 endloop
endfacet
facet normal  0.000000E+0  0.386644E+2  0.000000E+0
 outer loop
  vertex -1.754642E+1  0.125197E+2  0.120042E+2
  vertex -0.861692E+1  0.125197E+2  0.125058E+2
  vertex -1.169761E+1  0.125197E+2  0.800277E+1
 endloop
endfacet
facet normal -2.127403E+1  0.000000E+0  0.145543E+2
 outer loop
  vertex -1.446573E+1  0.779536E+1  0.165072E+2
  vertex -1.446573E+1  0.125197E+2  0.165072E+2
  vertex -1.754642E+1  0.779536E+1  0.120042E+2
 endloop
endfacet
facet normal -2.127403E+1  0.000000E+0  0.145543E+2
 outer loop
  vertex -1.754642E+1  0.779536E+1  0.120042E+2
  vertex -1.446573E+1  0.125197E+2  0.165072E+2
  vertex -1.754642E+1  0.125197E+2  0.120042E+2
 endloop
endfacet
facet normal  0.000000E+0 -2.577626E+1  0.000000E+0
 outer loop
  vertex -1.056652E+1  0.779536E+1  0.138396E+2
  vertex -1.446573E+1  0.779536E+1  0.165072E+2
  vertex -1.364721E+1  0.779536E+1  0.933656E+1
 endloop
endfacet
facet normal  0.000000E+0 -2.577626E+1  0.000000E+0
 outer loop
  vertex -1.364721E+1  0.779536E+1  0.933656E+1
  vertex -1.446573E+1  0.779536E+1  0.165072E+2
  vertex -1.754642E+1  0.779536E+1  0.120042E+2
 endloop
endfacet
facet normal -2.127408E+1  0.000000E+0  0.145544E+2
 outer loop
  vertex -1.056652E+1  0.307097E+1  0.138396E+2
  vertex -1.056652E+1  0.779536E+1  0.138396E+2
  vertex -1.364721E+1  0.307097E+1  0.933656E+1
 endloop
endfacet
facet normal -2.127408E+1  0.000000E+0  0.145544E+2
 outer loop
  vertex -1.364721E+1  0.307097E+1  0.933656E+1
  vertex -1.056652E+1  0.779536E+1  0.138396E+2
  vertex -1.364721E+1  0.779536E+1  0.933656E+1
 endloop
endfacet
facet normal  0.000000E+0 -2.577622E+1  0.000000E+0
 outer loop
  vertex -0.666732E+1  0.307097E+1  0.111720E+2
  vertex -1.056652E+1  0.307097E+1  0.138396E+2
  vertex -0.974801E+1  0.307097E+1  0.666898E+1
 endloop
endfacet
facet normal  0.000000E+0 -2.577622E+1  0.000000E+0
 outer loop
  vertex -0.974801E+1  0.307097E+1  0.666898E+1
  vertex -1.056652E+1  0.307097E+1  0.138396E+2
  vertex -1.364721E+1  0.307097E+1  0.933656E+1
 endloop
endfacet
facet normal -2.127527E+1  0.000000E+0  0.145552E+2
 outer loop
  vertex -0.666732E+1 -0.165369E+1  0.111720E+2
  vertex -0.666732E+1  0.307097E+1  0.111720E+2
  vertex -0.974801E+1 -0.165369E+1  0.666898E+1
 endloop
endfacet
facet normal -2.127527E+1  0.000000E+0  0.145552E+2
 outer loop
  vertex -0.974801E+1 -0.165369E+1  0.666898E+1
  vertex -0.666732E+1  0.307097E+1  0.111720E+2
  vertex -0.974801E+1  0.307097E+1  0.666898E+1
 endloop
endfacet
facet normal  0.000000E+0  0.515525E+2  -0.000000E+0
 outer loop
  vertex -1.446573E+1 -0.165369E+1  0.165072E+2
  vertex -0.666732E+1 -0.165369E+1  0.111720E+2
  vertex -1.754642E+1 -0.165369E+1  0.120042E+2
 endloop
endfacet
facet normal  0.000000E+0  0.515525E+2  0.000000E+0
 outer loop
  vertex -1.754642E+1 -0.165369E+1  0.120042E+2
  vertex -0.666732E+1 -0.165369E+1  0.111720E+2
  vertex -0.974801E+1 -0.165369E+1  0.666898E+1
 endloop
endfacet
facet normal -2.127407E+1  0.000000E+0  0.145544E+2
 outer loop
  vertex -1.446573E+1 -0.637807E+1  0.165072E+2
  vertex -1.446573E+1 -0.165369E+1  0.165072E+2
  vertex -1.754642E+1 -0.637807E+1  0.120042E+2
 endloop
endfacet
facet normal -2.127407E+1  0.000000E+0  0.145544E+2
 outer loop
  vertex -1.754642E+1 -0.637807E+1  0.120042E+2
  vertex -1.446573E+1 -0.165369E+1  0.165072E+2
  vertex -1.754642E+1 -0.165369E+1  0.120042E+2
 endloop
endfacet
facet normal  0.000000E+0  0.257762E+2  -0.000000E+0
 outer loop
  vertex -1.836493E+1 -0.637807E+1  0.191748E+2
  vertex -1.446573E+1 -0.637807E+1  0.165072E+2
  vertex -2.144562E+1 -0.637807E+1  0.146717E+2
 endloop
endfacet
facet normal  0.000000E+0  0.257762E+2  0.000000E+0
 outer loop
  vertex -2.144562E+1 -0.637807E+1  0.146717E+2
  vertex -1.446573E+1 -0.637807E+1  0.165072E+2
  vertex -1.754642E+1 -0.637807E+1  0.120042E+2
 endloop
endfacet
facet normal -2.127406E+1  0.000000E+0  0.145544E+2
 outer loop
  vertex -1.836493E+1 -1.110246E+1  0.191748E+2
  vertex -1.836493E+1 -0.637807E+1  0.191748E+2
  vertex -2.144562E+1 -1.110246E+1  0.146717E+2
 endloop
endfacet
facet normal -2.127406E+1  0.000000E+0  0.145544E+2
 outer loop
  vertex -2.144562E+1 -1.110246E+1  0.146717E+2
  vertex -1.836493E+1 -0.637807E+1  0.191748E+2
  vertex -2.144562E+1 -0.637807E+1  0.146717E+2
 endloop
endfacet
facet normal  0.000000E+0  0.257763E+2  -0.000000E+0
 outer loop
  vertex -2.226414E+1 -1.110246E+1  0.218424E+2
  vertex -1.836493E+1 -1.110246E+1  0.191748E+2
  vertex -2.534483E+1 -1.110246E+1  0.173393E+2
 endloop
endfacet
facet normal  0.000000E+0  0.257763E+2  0.000000E+0
 outer loop
  vertex -2.534483E+1 -1.110246E+1  0.173393E+2
  vertex -1.836493E+1 -1.110246E+1  0.191748E+2
  vertex -2.144562E+1 -1.110246E+1  0.146717E+2
 endloop
endfacet
facet normal -6.382218E+1  0.000000E+0  0.436631E+2
 outer loop
  vertex -2.226414E+1 -2.527562E+1  0.218424E+2
  vertex -2.226414E+1 -1.110246E+1  0.218424E+2
  vertex -2.534483E+1 -2.527562E+1  0.173393E+2
 endloop
endfacet
facet normal -6.382218E+1  0.000000E+0  0.436631E+2
 outer loop
  vertex -2.534483E+1 -2.527562E+1  0.173393E+2
  vertex -2.226414E+1 -1.110246E+1  0.218424E+2
  vertex -2.534483E+1 -1.110246E+1  0.173393E+2
 endloop
endfacet
facet normal  0.000000E+0 -2.577629E+1  0.000000E+0
 outer loop
  vertex -1.836493E+1 -2.527562E+1  0.191748E+2
  vertex -2.226414E+1 -2.527562E+1  0.218424E+2
  vertex -2.144562E+1 -2.527562E+1  0.146717E+2
 endloop
endfacet
facet normal  0.000000E+0 -2.577628E+1  0.000000E+0
 outer loop
  vertex -2.144562E+1 -2.527562E+1  0.146717E+2
  vertex -2.226414E+1 -2.527562E+1  0.218424E+2
  vertex -2.534483E+1 -2.527562E+1  0.173393E+2
 endloop
endfacet
facet normal  0.425481E+2  0.000000E+0 -2.910875E+1
 outer loop
  vertex -1.836493E+1 -1.582685E+1  0.191748E+2
  vertex -1.836493E+1 -2.527562E+1  0.191748E+2
  vertex -2.144562E+1 -1.582685E+1  0.146717E+2
 endloop
endfacet
facet normal  0.425481E+2  0.000000E+0 -2.910875E+1
 outer loop
  vertex -2.144562E+1 -1.582685E+1  0.146717E+2
  vertex -1.836493E+1 -2.527562E+1  0.191748E+2
  vertex -2.144562E+1 -2.527562E+1  0.146717E+2
 endloop
endfacet
facet normal  0.000000E+0 -2.577621E+1  0.000000E+0
 outer loop
  vertex -1.446573E+1 -1.582685E+1  0.165072E+2
  vertex -1.836493E+1 -1.582685E+1  0.191748E+2
  vertex -1.754642E+1 -1.582685E+1  0.120042E+2
 endloop
endfacet
facet normal  0.000000E+0 -2.577623E+1  0.000000E+0
 outer loop
  vertex -1.754642E+1 -1.582685E+1  0.120042E+2
  vertex -1.836493E+1 -1.582685E+1  0.191748E+2
  vertex -2.144562E+1 -1.582685E+1  0.146717E+2
 endloop
endfacet
facet normal -4.254813E+1  0.000000E+0  0.291087E+2
 outer loop
  vertex -1.446573E+1 -2.527562E+1  0.165072E+2
  vertex -1.446573E+1 -1.582685E+1  0.165072E+2
  vertex -1.754642E+1 -2.527562E+1  0.120042E+2
 endloop
endfacet
facet normal -4.254813E+1  0.000000E+0  0.291087E+2
 outer loop
  vertex -1.754642E+1 -2.527562E+1  0.120042E+2
  vertex -1.446573E+1 -1.582685E+1  0.165072E+2
  vertex -1.754642E+1 -1.582685E+1  0.120042E+2
 endloop
endfacet
facet normal  0.000000E+0 -2.577626E+1  0.000000E+0
 outer loop
  vertex -1.056652E+1 -2.527562E+1  0.138396E+2
  vertex -1.446573E+1 -2.527562E+1  0.165072E+2
  vertex -1.364721E+1 -2.527562E+1  0.933656E+1
 endloop
endfacet
facet normal  0.000000E+0 -2.577626E+1  0.000000E+0
 outer loop
  vertex -1.364721E+1 -2.527562E+1  0.933656E+1
  vertex -1.446573E+1 -2.527562E+1  0.165072E+2
  vertex -1.754642E+1 -2.527562E+1  0.120042E+2
 endloop
endfacet
facet normal -2.127403E+1  0.000000E+0  0.145543E+2
 outer loop
  vertex -1.056652E+1 -3.000000E+1  0.138396E+2
  vertex -1.056652E+1 -2.527562E+1  0.138396E+2
  vertex -1.364721E+1 -3.000000E+1  0.933656E+1
 endloop
endfacet
facet normal -2.127403E+1  0.000000E+0  0.145543E+2
 outer loop
  vertex -1.364721E+1 -3.000000E+1  0.933656E+1
  vertex -1.056652E+1 -2.527562E+1  0.138396E+2
  vertex -1.364721E+1 -2.527562E+1  0.933656E+1
 endloop
endfacet
facet normal  0.000000E+0 -7.732874E+1  0.000000E+0
 outer loop
  vertex  0.113109E+1 -3.000000E+1  0.583683E+1
  vertex -1.056652E+1 -3.000000E+1  0.138396E+2
  vertex -0.194960E+1 -3.000000E+1  0.133379E+1
 endloop
endfacet
facet normal  0.000000E+0 -7.732874E+1  0.000000E+0
 outer loop
  vertex -0.194960E+1 -3.000000E+1  0.133379E+1
  vertex -1.056652E+1 -3.000000E+1  0.138396E+2
  vertex -1.364721E+1 -3.000000E+1  0.933656E+1
 endloop
endfacet
facet normal  0.212740E+2  0.000000E+0 -1.455435E+1
 outer loop
  vertex  0.113109E+1 -2.527562E+1  0.583683E+1
  vertex  0.113109E+1 -3.000000E+1  0.583683E+1
  vertex -0.194960E+1 -2.527562E+1  0.133379E+1
 endloop
endfacet
facet normal  0.212740E+2  0.000000E+0 -1.455435E+1
 outer loop
  vertex -0.194960E+1 -2.527562E+1  0.133379E+1
  vertex  0.113109E+1 -3.000000E+1  0.583683E+1
  vertex -0.194960E+1 -3.000000E+1  0.133379E+1
 endloop
endfacet
facet normal  0.000000E+0  0.515525E+2  -0.000000E+0
 outer loop
  vertex -0.666732E+1 -2.527562E+1  0.111720E+2
  vertex  0.113109E+1 -2.527562E+1  0.583683E+1
  vertex -0.974801E+1 -2.527562E+1  0.666898E+1
 endloop
endfacet
facet normal  0.000000E+0  0.515525E+2  0.000000E+0
 outer loop
  vertex -0.974801E+1 -2.527562E+1  0.666898E+1
  vertex  0.113109E+1 -2.527562E+1  0.583683E+1
  vertex -0.194960E+1 -2.527562E+1  0.133379E+1
 endloop
endfacet
facet normal  0.212741E+2  0.000000E+0 -1.455438E+1
 outer loop
  vertex -0.666732E+1 -2.055123E+1  0.111720E+2
  vertex -0.666732E+1 -2.527562E+1  0.111720E+2
  vertex -0.974801E+1 -2.055123E+1  0.666898E+1
 endloop
endfacet
facet normal  0.212741E+2  0.000000E+0 -1.455438E+1
 outer loop
  vertex -0.974801E+1 -2.055123E+1  0.666898E+1
  vertex -0.666732E+1 -2.527562E+1  0.111720E+2
  vertex -0.974801E+1 -2.527562E+1  0.666898E+1
 endloop
endfacet
facet normal  0.000000E+0 -12.888132E+1  0.000000E+0
 outer loop
  vertex  0.128287E+2 -2.055123E+1 -0.216594E+1
  vertex -0.666732E+1 -2.055123E+1  0.111720E+2
  vertex  0.974801E+1 -2.055123E+1 -0.666898E+1
 endloop
endfacet
facet normal  0.000000E+0 -12.888130E+1  0.000000E+0
 outer loop
  vertex  0.974801E+1 -2.055123E+1 -0.666898E+1
  vertex -0.666732E+1 -2.055123E+1  0.111720E+2
  vertex -0.974801E+1 -2.055123E+1  0.666898E+1
 endloop
endfacet
facet normal -2.127408E+1  0.000000E+0  0.145544E+2
 outer loop
  vertex  0.128287E+2 -2.527562E+1 -0.216594E+1
  vertex  0.128287E+2 -2.055123E+1 -0.216594E+1
  vertex  0.974801E+1 -2.527562E+1 -0.666898E+1
 endloop
endfacet
facet normal -2.127408E+1  0.000000E+0  0.145544E+2
 outer loop
  vertex  0.974801E+1 -2.527562E+1 -0.666898E+1
  vertex  0.128287E+2 -2.055123E+1 -0.216594E+1
  vertex  0.974801E+1 -2.055123E+1 -0.666898E+1
 endloop
endfacet
facet normal  0.000000E+0  0.515525E+2  -0.000000E+0
 outer loop
  vertex  0.503029E+1 -2.527562E+1  0.316924E+1
  vertex  0.128287E+2 -2.527562E+1 -0.216594E+1
  vertex  0.194960E+1 -2.527562E+1 -0.133380E+1
 endloop
endfacet
facet normal  0.000000E+0  0.515525E+2  0.000000E+0
 outer loop
  vertex  0.194960E+1 -2.527562E+1 -0.133380E+1
  vertex  0.128287E+2 -2.527562E+1 -0.216594E+1
  vertex  0.974801E+1 -2.527562E+1 -0.666898E+1
 endloop
endfacet
facet normal -2.127403E+1  0.000000E+0  0.145543E+2
 outer loop
  vertex  0.503029E+1 -3.000000E+1  0.316924E+1
  vertex  0.503029E+1 -2.527562E+1  0.316924E+1
  vertex  0.194960E+1 -3.000000E+1 -0.133380E+1
 endloop
endfacet
facet normal -2.127403E+1  0.000000E+0  0.145543E+2
 outer loop
  vertex  0.194960E+1 -3.000000E+1 -0.133380E+1
  vertex  0.503029E+1 -2.527562E+1  0.316924E+1
  vertex  0.194960E+1 -2.527562E+1 -0.133380E+1
 endloop
endfacet
facet normal  0.000000E+0 -7.732873E+1  0.000000E+0
 outer loop
  vertex  0.167279E+2 -3.000000E+1 -0.483353E+1
  vertex  0.503029E+1 -3.000000E+1  0.316924E+1
  vertex  0.136472E+2 -3.000000E+1 -0.933656E+1
 endloop
endfacet
facet normal  0.000000E+0 -7.732873E+1  0.000000E+0
 outer loop
  vertex  0.136472E+2 -3.000000E+1 -0.933656E+1
  vertex  0.503029E+1 -3.000000E+1  0.316924E+1
  vertex  0.194960E+1 -3.000000E+1 -0.133380E+1
 endloop
endfacet
facet normal  0.212740E+2  0.000000E+0 -1.455435E+1
 outer loop
  vertex  0.167279E+2 -2.527562E+1 -0.483353E+1
  vertex  0.167279E+2 -3.000000E+1 -0.483353E+1
  vertex  0.136472E+2 -2.527562E+1 -0.933656E+1
 endloop
endfacet
facet normal  0.212740E+2  0.000000E+0 -1.455435E+1
 outer loop
  vertex  0.136472E+2 -2.527562E+1 -0.933656E+1
  vertex  0.167279E+2 -3.000000E+1 -0.483353E+1
  vertex  0.136472E+2 -3.000000E+1 -0.933656E+1
 endloop
endfacet
facet normal  0.000000E+0 -2.577626E+1  0.000000E+0
 outer loop
  vertex  0.206271E+2 -2.527562E+1 -0.750112E+1
  vertex  0.167279E+2 -2.527562E+1 -0.483353E+1
  vertex  0.175464E+2 -2.527562E+1 -1.200415E+1
 endloop
endfacet
facet normal  0.000000E+0 -2.577626E+1  0.000000E+0
 outer loop
  vertex  0.175464E+2 -2.527562E+1 -1.200415E+1
  vertex  0.167279E+2 -2.527562E+1 -0.483353E+1
  vertex  0.136472E+2 -2.527562E+1 -0.933656E+1
 endloop
endfacet
facet normal  0.425481E+2  0.000000E+0 -2.910875E+1
 outer loop
  vertex  0.206271E+2 -1.582685E+1 -0.750112E+1
  vertex  0.206271E+2 -2.527562E+1 -0.750112E+1
  vertex  0.175464E+2 -1.582685E+1 -1.200415E+1
 endloop
endfacet
facet normal  0.425481E+2  0.000000E+0 -2.910875E+1
 outer loop
  vertex  0.175464E+2 -1.582685E+1 -1.200415E+1
  vertex  0.206271E+2 -2.527562E+1 -0.750112E+1
  vertex  0.175464E+2 -2.527562E+1 -1.200415E+1
 endloop
endfacet
facet normal  0.000000E+0 -2.577621E+1  0.000000E+0
 outer loop
  vertex  0.245263E+2 -1.582685E+1 -1.016871E+1
  vertex  0.206271E+2 -1.582685E+1 -0.750112E+1
  vertex  0.214456E+2 -1.582685E+1 -1.467174E+1
 endloop
endfacet
facet normal  0.000000E+0 -2.577623E+1  0.000000E+0
 outer loop
  vertex  0.214456E+2 -1.582685E+1 -1.467174E+1
  vertex  0.206271E+2 -1.582685E+1 -0.750112E+1
  vertex  0.175464E+2 -1.582685E+1 -1.200415E+1
 endloop
endfacet
facet normal -4.254812E+1  0.000000E+0  0.291087E+2
 outer loop
  vertex  0.245263E+2 -2.527562E+1 -1.016871E+1
  vertex  0.245263E+2 -1.582685E+1 -1.016871E+1
  vertex  0.214456E+2 -2.527562E+1 -1.467174E+1
 endloop
endfacet
facet normal -4.254812E+1  0.000000E+0  0.291087E+2
 outer loop
  vertex  0.214456E+2 -2.527562E+1 -1.467174E+1
  vertex  0.245263E+2 -1.582685E+1 -1.016871E+1
  vertex  0.214456E+2 -1.582685E+1 -1.467174E+1
 endloop
endfacet
facet normal  0.000000E+0 -2.577629E+1  0.000000E+0
 outer loop
  vertex  0.284255E+2 -2.527562E+1 -1.283630E+1
  vertex  0.245263E+2 -2.527562E+1 -1.016871E+1
  vertex  0.253448E+2 -2.527562E+1 -1.733933E+1
 endloop
endfacet
facet normal  0.000000E+0 -2.577628E+1  0.000000E+0
 outer loop
  vertex  0.253448E+2 -2.527562E+1 -1.733933E+1
  vertex  0.245263E+2 -2.527562E+1 -1.016871E+1
  vertex  0.214456E+2 -2.527562E+1 -1.467174E+1
 endloop
endfacet
facet normal  0.638222E+2  0.000000E+0 -4.366312E+1
 outer loop
  vertex  0.284255E+2 -1.110246E+1 -1.283630E+1
  vertex  0.284255E+2 -2.527562E+1 -1.283630E+1
  vertex  0.253448E+2 -1.110246E+1 -1.733933E+1
 endloop
endfacet
facet normal  0.638222E+2  0.000000E+0 -4.366312E+1
 outer loop
  vertex  0.253448E+2 -1.110246E+1 -1.733933E+1
  vertex  0.284255E+2 -2.527562E+1 -1.283630E+1
  vertex  0.253448E+2 -2.527562E+1 -1.733933E+1
 endloop
endfacet
facet normal  0.000000E+0 -0.154703E+1  -0.000000E+0
 outer loop
  vertex -0.388837E+1 -0.637807E+1  0.686695E+1
  vertex -0.276812E+1 -0.637807E+1  0.850441E+1
  vertex -0.453192E+1 -0.637807E+1  0.730723E+1
 endloop
endfacet
facet normal  0.000000E+0 -0.937319E+1  -0.000000E+0
 outer loop
  vertex -0.453192E+1 -0.637807E+1  0.730723E+1
  vertex -0.276812E+1 -0.637807E+1  0.850441E+1
  vertex -0.666732E+1 -0.637807E+1  0.111720E+2
 endloop
endfacet
facet normal  0.000000E+0 -1.369579E+1  0.000000E+0
 outer loop
  vertex -0.453192E+1 -0.637807E+1  0.730723E+1
  vertex -0.666732E+1 -0.637807E+1  0.111720E+2
  vertex -0.649236E+1 -0.637807E+1  0.444166E+1
 endloop
endfacet
facet normal  0.000000E+0 -2.152196E+1  0.000000E+0
 outer loop
  vertex -0.649236E+1 -0.637807E+1  0.444166E+1
  vertex -0.666732E+1 -0.637807E+1  0.111720E+2
  vertex -0.974801E+1 -0.637807E+1  0.666898E+1
 endloop
endfacet
facet normal  0.212741E+2  0.000000E+0 -1.455437E+1
 outer loop
  vertex -0.666732E+1 -0.637807E+1  0.111720E+2
  vertex -0.666732E+1 -1.110246E+1  0.111720E+2
  vertex -0.974801E+1 -0.637807E+1  0.666898E+1
 endloop
endfacet
facet normal  0.212741E+2  0.000000E+0 -1.455437E+1
 outer loop
  vertex -0.974801E+1 -0.637807E+1  0.666898E+1
  vertex -0.666732E+1 -1.110246E+1  0.111720E+2
  vertex -0.974801E+1 -1.110246E+1  0.666898E+1
 endloop
endfacet
facet normal  0.000000E+0  0.914862E+1  0.000000E+0
 outer loop
  vertex -0.757328E+1 -1.110246E+1  0.518116E+1
  vertex -0.974801E+1 -1.110246E+1  0.666898E+1
  vertex -0.561284E+1 -1.110246E+1  0.804672E+1
 endloop
endfacet
facet normal  -0.000000E+0  0.143764E+2  0.000000E+0
 outer loop
  vertex -0.561284E+1 -1.110246E+1  0.804672E+1
  vertex -0.974801E+1 -1.110246E+1  0.666898E+1
  vertex -0.666732E+1 -1.110246E+1  0.111720E+2
 endloop
endfacet
facet normal  0.000000E+0  0.414541E+1  0.000000E+0
 outer loop
  vertex -0.561284E+1 -1.110246E+1  0.804672E+1
  vertex -0.666732E+1 -1.110246E+1  0.111720E+2
  vertex -0.388837E+1 -1.110246E+1  0.686695E+1
 endloop
endfacet
facet normal  0.000000E+0  0.937319E+1  0.000000E+0
 outer loop
  vertex -0.388837E+1 -1.110246E+1  0.686695E+1
  vertex -0.666732E+1 -1.110246E+1  0.111720E+2
  vertex -0.276812E+1 -1.110246E+1  0.850441E+1
 endloop
endfacet
facet normal -2.127406E+1  0.000000E+0  0.145544E+2
 outer loop
  vertex  0.128287E+2 -1.110246E+1 -0.216594E+1
  vertex  0.128287E+2 -0.637807E+1 -0.216594E+1
  vertex  0.974801E+1 -1.110246E+1 -0.666898E+1
 endloop
endfacet
facet normal -2.127406E+1  0.000000E+0  0.145544E+2
 outer loop
  vertex  0.974801E+1 -1.110246E+1 -0.666898E+1
  vertex  0.128287E+2 -0.637807E+1 -0.216594E+1
  vertex  0.974801E+1 -0.637807E+1 -0.666898E+1
 endloop
endfacet
facet normal  -0.000000E+0 -1.369578E+1  0.000000E+0
 outer loop
  vertex  0.649237E+1 -0.637807E+1 -0.444167E+1
  vertex  0.974801E+1 -0.637807E+1 -0.666898E+1
  vertex  0.845280E+1 -0.637807E+1 -0.157610E+1
 endloop
endfacet
facet normal  0.000000E+0 -2.152194E+1  0.000000E+0
 outer loop
  vertex  0.845280E+1 -0.637807E+1 -0.157610E+1
  vertex  0.974801E+1 -0.637807E+1 -0.666898E+1
  vertex  0.128287E+2 -0.637807E+1 -0.216594E+1
 endloop
endfacet
facet normal  -0.000000E+0 -0.154703E+1  -0.000000E+0
 outer loop
  vertex  0.845280E+1 -0.637807E+1 -0.157610E+1
  vertex  0.128287E+2 -0.637807E+1 -0.216594E+1
  vertex  0.780924E+1 -0.637807E+1 -0.113582E+1
 endloop
endfacet
facet normal  -0.000000E+0 -0.937319E+1  0.000000E+0
 outer loop
  vertex  0.780924E+1 -0.637807E+1 -0.113582E+1
  vertex  0.128287E+2 -0.637807E+1 -0.216594E+1
  vertex  0.892950E+1 -0.637807E+1  0.050165E+1
 endloop
endfacet
facet normal  0.000000E+0  0.414541E+1  0.000000E+0
 outer loop
  vertex  0.780924E+1 -1.110246E+1 -0.113582E+1
  vertex  0.892950E+1 -1.110246E+1  0.050165E+1
  vertex  0.953372E+1 -1.110246E+1 -0.231559E+1
 endloop
endfacet
facet normal  0.000000E+0  0.937319E+1  0.000000E+0
 outer loop
  vertex  0.953372E+1 -1.110246E+1 -0.231559E+1
  vertex  0.892950E+1 -1.110246E+1  0.050165E+1
  vertex  0.128287E+2 -1.110246E+1 -0.216594E+1
 endloop
endfacet
facet normal  0.000000E+0  0.914862E+1  -0.000000E+0
 outer loop
  vertex  0.953372E+1 -1.110246E+1 -0.231559E+1
  vertex  0.128287E+2 -1.110246E+1 -0.216594E+1
  vertex  0.757328E+1 -1.110246E+1 -0.518116E+1
 endloop
endfacet
facet normal  0.000000E+0  0.143764E+2  0.000000E+0
 outer loop
  vertex  0.757328E+1 -1.110246E+1 -0.518116E+1
  vertex  0.128287E+2 -1.110246E+1 -0.216594E+1
  vertex  0.974801E+1 -1.110246E+1 -0.666898E+1
 endloop
endfacet
facet normal  0.365148E+1 -0.320331E+1 -0.249812E+1
 outer loop
  vertex -0.453192E+1 -0.637807E+1  0.730723E+1
  vertex -0.649236E+1 -0.637807E+1  0.444166E+1
  vertex -0.573090E+1 -0.510381E+1  0.392072E+1
 endloop
endfacet
facet normal  0.365148E+1 -0.320331E+1 -0.249812E+1
 outer loop
  vertex -0.453192E+1 -0.637807E+1  0.730723E+1
  vertex -0.573090E+1 -0.510381E+1  0.392072E+1
  vertex -0.377046E+1 -0.510381E+1  0.678628E+1
 endloop
endfacet
facet normal  0.314621E+1 -0.391197E+1 -0.215244E+1
 outer loop
  vertex -0.377046E+1 -0.510381E+1  0.678628E+1
  vertex -0.573090E+1 -0.510381E+1  0.392072E+1
  vertex -0.480097E+1 -0.400587E+1  0.328452E+1
 endloop
endfacet
facet normal  0.314621E+1 -0.391197E+1 -0.215244E+1
 outer loop
  vertex -0.377046E+1 -0.510381E+1  0.678628E+1
  vertex -0.480097E+1 -0.400587E+1  0.328452E+1
  vertex -0.284054E+1 -0.400587E+1  0.615009E+1
 endloop
endfacet
facet normal  0.254846E+1 -0.450564E+1 -0.174349E+1
 outer loop
  vertex -0.284054E+1 -0.400587E+1  0.615009E+1
  vertex -0.480097E+1 -0.400587E+1  0.328452E+1
  vertex -0.372993E+1 -0.311653E+1  0.255178E+1
 endloop
endfacet
facet normal  0.254846E+1 -0.450564E+1 -0.174349E+1
 outer loop
  vertex -0.284054E+1 -0.400587E+1  0.615009E+1
  vertex -0.372993E+1 -0.311653E+1  0.255178E+1
  vertex -0.176949E+1 -0.311653E+1  0.541735E+1
 endloop
endfacet
facet normal  0.187579E+1 -0.496685E+1 -0.128330E+1
 outer loop
  vertex -0.176949E+1 -0.311653E+1  0.541735E+1
  vertex -0.372993E+1 -0.311653E+1  0.255178E+1
  vertex -0.254925E+1 -0.246194E+1  0.174404E+1
 endloop
endfacet
facet normal  0.187579E+1 -0.496685E+1 -0.128330E+1
 outer loop
  vertex -0.176949E+1 -0.311653E+1  0.541735E+1
  vertex -0.254925E+1 -0.246194E+1  0.174404E+1
  vertex -0.058881E+1 -0.246194E+1  0.460960E+1
 endloop
endfacet
facet normal  0.114800E+1 -0.528208E+1 -0.078539E+1
 outer loop
  vertex -0.058881E+1 -0.246194E+1  0.460960E+1
  vertex -0.254925E+1 -0.246194E+1  0.174404E+1
  vertex -0.129364E+1 -0.206132E+1  0.088503E+1
 endloop
endfacet
facet normal  0.114800E+1 -0.528208E+1 -0.078539E+1
 outer loop
  vertex -0.058881E+1 -0.246194E+1  0.460960E+1
  vertex -0.129364E+1 -0.206132E+1  0.088503E+1
  vertex  0.066680E+1 -0.206132E+1  0.375059E+1
 endloop
endfacet
facet normal  0.038645E+1 -0.544204E+1 -0.026438E+1
 outer loop
  vertex  0.066680E+1 -0.206132E+1  0.375059E+1
  vertex -0.129364E+1 -0.206132E+1  0.088503E+1
  vertex  4.994686E-16 -0.192646E+1  7.300711E-16
 endloop
endfacet
facet normal  0.038645E+1 -0.544204E+1 -0.026438E+1
 outer loop
  vertex  0.066680E+1 -0.206132E+1  0.375059E+1
  vertex  4.994686E-16 -0.192646E+1  7.300711E-16
  vertex  0.196044E+1 -0.192646E+1  0.286557E+1
 endloop
endfacet
facet normal -0.038645E+1 -0.544205E+1  0.026438E+1
 outer loop
  vertex  0.196044E+1 -0.192646E+1  0.286557E+1
  vertex  4.994686E-16 -0.192646E+1  7.300711E-16
  vertex  0.129364E+1 -0.206132E+1 -0.088503E+1
 endloop
endfacet
facet normal -0.038645E+1 -0.544205E+1  0.026438E+1
 outer loop
  vertex  0.196044E+1 -0.192646E+1  0.286557E+1
  vertex  0.129364E+1 -0.206132E+1 -0.088503E+1
  vertex  0.325408E+1 -0.206132E+1  0.198054E+1
 endloop
endfacet
facet normal -0.114800E+1 -0.528207E+1  0.078539E+1
 outer loop
  vertex  0.325408E+1 -0.206132E+1  0.198054E+1
  vertex  0.129364E+1 -0.206132E+1 -0.088503E+1
  vertex  0.254925E+1 -0.246194E+1 -0.174404E+1
 endloop
endfacet
facet normal -0.114800E+1 -0.528208E+1  0.078539E+1
 outer loop
  vertex  0.325408E+1 -0.206132E+1  0.198054E+1
  vertex  0.254925E+1 -0.246194E+1 -0.174404E+1
  vertex  0.450969E+1 -0.246194E+1  0.112153E+1
 endloop
endfacet
facet normal -0.187579E+1 -0.496685E+1  0.128330E+1
 outer loop
  vertex  0.450969E+1 -0.246194E+1  0.112153E+1
  vertex  0.254925E+1 -0.246194E+1 -0.174404E+1
  vertex  0.372993E+1 -0.311653E+1 -0.255178E+1
 endloop
endfacet
facet normal -0.187579E+1 -0.496685E+1  0.128330E+1
 outer loop
  vertex  0.450969E+1 -0.246194E+1  0.112153E+1
  vertex  0.372993E+1 -0.311653E+1 -0.255178E+1
  vertex  0.569037E+1 -0.311653E+1  0.031378E+1
 endloop
endfacet
facet normal -0.254846E+1 -0.450564E+1  0.174349E+1
 outer loop
  vertex  0.569037E+1 -0.311653E+1  0.031378E+1
  vertex  0.372993E+1 -0.311653E+1 -0.255178E+1
  vertex  0.480098E+1 -0.400587E+1 -0.328452E+1
 endloop
endfacet
facet normal -0.254846E+1 -0.450564E+1  0.174349E+1
 outer loop
  vertex  0.569037E+1 -0.311653E+1  0.031378E+1
  vertex  0.480098E+1 -0.400587E+1 -0.328452E+1
  vertex  0.676142E+1 -0.400587E+1 -0.041896E+1
 endloop
endfacet
facet normal -0.314621E+1 -0.391196E+1  0.215244E+1
 outer loop
  vertex  0.676142E+1 -0.400587E+1 -0.041896E+1
  vertex  0.480098E+1 -0.400587E+1 -0.328452E+1
  vertex  0.573090E+1 -0.510381E+1 -0.392072E+1
 endloop
endfacet
facet normal -0.314621E+1 -0.391196E+1  0.215244E+1
 outer loop
  vertex  0.676142E+1 -0.400587E+1 -0.041896E+1
  vertex  0.573090E+1 -0.510381E+1 -0.392072E+1
  vertex  0.769133E+1 -0.510381E+1 -0.105515E+1
 endloop
endfacet
facet normal -0.365148E+1 -0.320333E+1  0.249812E+1
 outer loop
  vertex  0.769133E+1 -0.510381E+1 -0.105515E+1
  vertex  0.573090E+1 -0.510381E+1 -0.392072E+1
  vertex  0.649237E+1 -0.637807E+1 -0.444167E+1
 endloop
endfacet
facet normal -0.365148E+1 -0.320333E+1  0.249812E+1
 outer loop
  vertex  0.769133E+1 -0.510381E+1 -0.105515E+1
  vertex  0.649237E+1 -0.637807E+1 -0.444167E+1
  vertex  0.845280E+1 -0.637807E+1 -0.157610E+1
 endloop
endfacet
facet normal -0.432792E+1  0.043452E+1  0.296089E+1
 outer loop
  vertex  0.953372E+1 -1.110246E+1 -0.231559E+1
  vertex  0.757328E+1 -1.110246E+1 -0.518116E+1
  vertex  0.746999E+1 -1.261278E+1 -0.511049E+1
 endloop
endfacet
facet normal -0.432792E+1  0.043452E+1  0.296089E+1
 outer loop
  vertex  0.953372E+1 -1.110246E+1 -0.231559E+1
  vertex  0.746999E+1 -1.261278E+1 -0.511049E+1
  vertex  0.943043E+1 -1.261278E+1 -0.224493E+1
 endloop
endfacet
facet normal -0.420987E+1  0.129169E+1  0.288013E+1
 outer loop
  vertex  0.943043E+1 -1.261278E+1 -0.224493E+1
  vertex  0.746999E+1 -1.261278E+1 -0.511049E+1
  vertex  0.716294E+1 -1.408190E+1 -0.490043E+1
 endloop
endfacet
facet normal -0.420987E+1  0.129169E+1  0.288013E+1
 outer loop
  vertex  0.943043E+1 -1.261278E+1 -0.224493E+1
  vertex  0.716294E+1 -1.408190E+1 -0.490043E+1
  vertex  0.912338E+1 -1.408190E+1 -0.203486E+1
 endloop
endfacet
facet normal -0.397698E+1  0.211364E+1  0.272080E+1
 outer loop
  vertex  0.912338E+1 -1.408190E+1 -0.203486E+1
  vertex  0.716294E+1 -1.408190E+1 -0.490043E+1
  vertex  0.666050E+1 -1.546975E+1 -0.455669E+1
 endloop
endfacet
facet normal -0.397698E+1  0.211364E+1  0.272080E+1
 outer loop
  vertex  0.912338E+1 -1.408190E+1 -0.203486E+1
  vertex  0.666050E+1 -1.546975E+1 -0.455669E+1
  vertex  0.862094E+1 -1.546975E+1 -0.169113E+1
 endloop
endfacet
facet normal -0.363561E+1  0.287793E+1  0.248725E+1
 outer loop
  vertex  0.862094E+1 -1.546975E+1 -0.169113E+1
  vertex  0.666050E+1 -1.546975E+1 -0.455669E+1
  vertex  0.597638E+1 -1.673847E+1 -0.408866E+1
 endloop
endfacet
facet normal -0.363561E+1  0.287793E+1  0.248725E+1
 outer loop
  vertex  0.862094E+1 -1.546975E+1 -0.169113E+1
  vertex  0.597638E+1 -1.673847E+1 -0.408866E+1
  vertex  0.793682E+1 -1.673847E+1 -0.122310E+1
 endloop
endfacet
facet normal -0.319507E+1  0.356371E+1  0.218587E+1
 outer loop
  vertex  0.793682E+1 -1.673847E+1 -0.122310E+1
  vertex  0.597638E+1 -1.673847E+1 -0.408866E+1
  vertex  0.512925E+1 -1.785346E+1 -0.350911E+1
 endloop
endfacet
facet normal -0.319507E+1  0.356371E+1  0.218587E+1
 outer loop
  vertex  0.793682E+1 -1.673847E+1 -0.122310E+1
  vertex  0.512925E+1 -1.785346E+1 -0.350911E+1
  vertex  0.708968E+1 -1.785346E+1 -0.064354E+1
 endloop
endfacet
facet normal -0.266737E+1  0.415230E+1  0.182485E+1
 outer loop
  vertex  0.708968E+1 -1.785346E+1 -0.064354E+1
  vertex  0.512925E+1 -1.785346E+1 -0.350911E+1
  vertex  0.414219E+1 -1.878430E+1 -0.283383E+1
 endloop
endfacet
facet normal -0.266737E+1  0.415230E+1  0.182485E+1
 outer loop
  vertex  0.708968E+1 -1.785346E+1 -0.064354E+1
  vertex  0.414219E+1 -1.878430E+1 -0.283383E+1
  vertex  0.610263E+1 -1.878430E+1  3.173818E-2
 endloop
endfacet
facet normal -0.206694E+1  0.462761E+1  0.141407E+1
 outer loop
  vertex  0.610263E+1 -1.878430E+1  3.173818E-2
  vertex  0.414219E+1 -1.878430E+1 -0.283383E+1
  vertex  0.304215E+1 -1.950560E+1 -0.208125E+1
 endloop
endfacet
facet normal -0.206694E+1  0.462761E+1  0.141407E+1
 outer loop
  vertex  0.610263E+1 -1.878430E+1  3.173818E-2
  vertex  0.304215E+1 -1.950560E+1 -0.208125E+1
  vertex  0.500259E+1 -1.950560E+1  0.078432E+1
 endloop
endfacet
facet normal -0.141006E+1  0.497672E+1  0.096467E+1
 outer loop
  vertex  0.500259E+1 -1.950560E+1  0.078432E+1
  vertex  0.304215E+1 -1.950560E+1 -0.208125E+1
  vertex  0.185913E+1 -1.999767E+1 -0.127190E+1
 endloop
endfacet
facet normal -0.141006E+1  0.497672E+1  0.096467E+1
 outer loop
  vertex  0.500259E+1 -1.950560E+1  0.078432E+1
  vertex  0.185913E+1 -1.999767E+1 -0.127190E+1
  vertex  0.381957E+1 -1.999767E+1  0.159367E+1
 endloop
endfacet
facet normal -0.071482E+1  0.519004E+1  0.048903E+1
 outer loop
  vertex  0.381957E+1 -1.999767E+1  0.159367E+1
  vertex  0.185913E+1 -1.999767E+1 -0.127190E+1
  vertex  0.062540E+1 -2.024712E+1 -0.042786E+1
 endloop
endfacet
facet normal -0.071482E+1  0.519004E+1  0.048903E+1
 outer loop
  vertex  0.381957E+1 -1.999767E+1  0.159367E+1
  vertex  0.062540E+1 -2.024712E+1 -0.042786E+1
  vertex  0.258583E+1 -2.024712E+1  0.243771E+1
 endloop
endfacet
facet normal  0.000000E+0  0.526180E+1  0.000000E+0
 outer loop
  vertex  0.258583E+1 -2.024712E+1  0.243771E+1
  vertex  0.062540E+1 -2.024712E+1 -0.042786E+1
  vertex -0.062540E+1 -2.024712E+1  0.042786E+1
 endloop
endfacet
facet normal  -0.000000E+0  0.526180E+1  0.000000E+0
 outer loop
  vertex  0.258583E+1 -2.024712E+1  0.243771E+1
  vertex -0.062540E+1 -2.024712E+1  0.042786E+1
  vertex  0.133504E+1 -2.024712E+1  0.329342E+1
 endloop
endfacet
facet normal  0.071482E+1  0.519004E+1 -0.048903E+1
 outer loop
  vertex  0.133504E+1 -2.024712E+1  0.329342E+1
  vertex -0.062540E+1 -2.024712E+1  0.042786E+1
  vertex -0.185913E+1 -1.999767E+1  0.127190E+1
 endloop
endfacet
facet normal  0.071482E+1  0.519004E+1 -0.048903E+1
 outer loop
  vertex  0.133504E+1 -2.024712E+1  0.329342E+1
  vertex -0.185913E+1 -1.999767E+1  0.127190E+1
  vertex  0.010131E+1 -1.999767E+1  0.413746E+1
 endloop
endfacet
facet normal  0.141006E+1  0.497671E+1 -0.096467E+1
 outer loop
  vertex  0.010131E+1 -1.999767E+1  0.413746E+1
  vertex -0.185913E+1 -1.999767E+1  0.127190E+1
  vertex -0.304215E+1 -1.950560E+1  0.208125E+1
 endloop
endfacet
facet normal  0.141006E+1  0.497671E+1 -0.096467E+1
 outer loop
  vertex  0.010131E+1 -1.999767E+1  0.413746E+1
  vertex -0.304215E+1 -1.950560E+1  0.208125E+1
  vertex -0.108171E+1 -1.950560E+1  0.494681E+1
 endloop
endfacet
facet normal  0.206694E+1  0.462761E+1 -0.141407E+1
 outer loop
  vertex -0.108171E+1 -1.950560E+1  0.494681E+1
  vertex -0.304215E+1 -1.950560E+1  0.208125E+1
  vertex -0.414219E+1 -1.878430E+1  0.283382E+1
 endloop
endfacet
facet normal  0.206694E+1  0.462761E+1 -0.141407E+1
 outer loop
  vertex -0.108171E+1 -1.950560E+1  0.494681E+1
  vertex -0.414219E+1 -1.878430E+1  0.283382E+1
  vertex -0.218175E+1 -1.878430E+1  0.569939E+1
 endloop
endfacet
facet normal  0.266737E+1  0.415231E+1 -0.182485E+1
 outer loop
  vertex -0.218175E+1 -1.878430E+1  0.569939E+1
  vertex -0.414219E+1 -1.878430E+1  0.283382E+1
  vertex -0.512924E+1 -1.785346E+1  0.350910E+1
 endloop
endfacet
facet normal  0.266737E+1  0.415231E+1 -0.182485E+1
 outer loop
  vertex -0.218175E+1 -1.878430E+1  0.569939E+1
  vertex -0.512924E+1 -1.785346E+1  0.350910E+1
  vertex -0.316880E+1 -1.785346E+1  0.637467E+1
 endloop
endfacet
facet normal  0.319507E+1  0.356372E+1 -0.218587E+1
 outer loop
  vertex -0.316880E+1 -1.785346E+1  0.637467E+1
  vertex -0.512924E+1 -1.785346E+1  0.350910E+1
  vertex -0.597638E+1 -1.673847E+1  0.408866E+1
 endloop
endfacet
facet normal  0.319507E+1  0.356372E+1 -0.218587E+1
 outer loop
  vertex -0.316880E+1 -1.785346E+1  0.637467E+1
  vertex -0.597638E+1 -1.673847E+1  0.408866E+1
  vertex -0.401594E+1 -1.673847E+1  0.695423E+1
 endloop
endfacet
facet normal  0.363561E+1  0.287793E+1 -0.248725E+1
 outer loop
  vertex -0.401594E+1 -1.673847E+1  0.695423E+1
  vertex -0.597638E+1 -1.673847E+1  0.408866E+1
  vertex -0.666050E+1 -1.546975E+1  0.455669E+1
 endloop
endfacet
facet normal  0.363561E+1  0.287794E+1 -0.248725E+1
 outer loop
  vertex -0.401594E+1 -1.673847E+1  0.695423E+1
  vertex -0.666050E+1 -1.546975E+1  0.455669E+1
  vertex -0.470006E+1 -1.546975E+1  0.742226E+1
 endloop
endfacet
facet normal  0.397698E+1  0.211364E+1 -0.272080E+1
 outer loop
  vertex -0.470006E+1 -1.546975E+1  0.742226E+1
  vertex -0.666050E+1 -1.546975E+1  0.455669E+1
  vertex -0.716294E+1 -1.408190E+1  0.490043E+1
 endloop
endfacet
facet normal  0.397698E+1  0.211363E+1 -0.272080E+1
 outer loop
  vertex -0.470006E+1 -1.546975E+1  0.742226E+1
  vertex -0.716294E+1 -1.408190E+1  0.490043E+1
  vertex -0.520250E+1 -1.408190E+1  0.776599E+1
 endloop
endfacet
facet normal  0.420987E+1  0.129170E+1 -0.288013E+1
 outer loop
  vertex -0.520250E+1 -1.408190E+1  0.776599E+1
  vertex -0.716294E+1 -1.408190E+1  0.490043E+1
  vertex -0.746999E+1 -1.261278E+1  0.511049E+1
 endloop
endfacet
facet normal  0.420987E+1  0.129170E+1 -0.288013E+1
 outer loop
  vertex -0.520250E+1 -1.408190E+1  0.776599E+1
  vertex -0.746999E+1 -1.261278E+1  0.511049E+1
  vertex -0.550955E+1 -1.261278E+1  0.797606E+1
 endloop
endfacet
facet normal  0.432792E+1  0.043452E+1 -0.296089E+1
 outer loop
  vertex -0.550955E+1 -1.261278E+1  0.797606E+1
  vertex -0.746999E+1 -1.261278E+1  0.511049E+1
  vertex -0.757328E+1 -1.110246E+1  0.518116E+1
 endloop
endfacet
facet normal  0.432792E+1  0.043452E+1 -0.296089E+1
 outer loop
  vertex -0.550955E+1 -1.261278E+1  0.797606E+1
  vertex -0.757328E+1 -1.110246E+1  0.518116E+1
  vertex -0.561284E+1 -1.110246E+1  0.804672E+1
 endloop
endfacet
facet normal -0.056103E+1  1.564622E-7 -0.082006E+1
 outer loop
  vertex  0.769133E+1 -0.510381E+1 -0.105515E+1
  vertex  0.845280E+1 -0.637807E+1 -0.157610E+1
  vertex  0.780924E+1 -0.637807E+1 -0.113582E+1
 endloop
endfacet
facet normal -0.178184E+1  2.980232E-8 -0.260451E+1
 outer loop
  vertex -0.550955E+1 -1.261278E+1  0.797606E+1
  vertex -0.561284E+1 -1.110246E+1  0.804672E+1
  vertex -0.388837E+1 -1.110246E+1  0.686695E+1
 endloop
endfacet
facet normal -0.023871E+1 -0.000000E+1 -0.034893E+1
 outer loop
  vertex  0.676142E+1 -0.400587E+1 -0.041896E+1
  vertex  0.769133E+1 -0.510381E+1 -0.105515E+1
  vertex  0.569037E+1 -0.311653E+1  0.031378E+1
 endloop
endfacet
facet normal -0.158407E+1  2.384186E-7 -0.231543E+1
 outer loop
  vertex  0.569037E+1 -0.311653E+1  0.031378E+1
  vertex  0.769133E+1 -0.510381E+1 -0.105515E+1
  vertex  0.780924E+1 -0.637807E+1 -0.113582E+1
 endloop
endfacet
facet normal -0.168559E+1  8.344650E-7 -0.246382E+1
 outer loop
  vertex  0.569037E+1 -0.311653E+1  0.031378E+1
  vertex  0.780924E+1 -0.637807E+1 -0.113582E+1
  vertex  0.450969E+1 -0.246194E+1  0.112153E+1
 endloop
endfacet
facet normal -1.066458E+1  0.000000E+0 -1.558837E+1
 outer loop
  vertex  0.450969E+1 -0.246194E+1  0.112153E+1
  vertex  0.780924E+1 -0.637807E+1 -0.113582E+1
  vertex  0.780924E+1 -1.110246E+1 -0.113582E+1
 endloop
endfacet
facet normal -0.178184E+1 -0.000000E+1 -0.260450E+1
 outer loop
  vertex  0.953372E+1 -1.110246E+1 -0.231559E+1
  vertex  0.943043E+1 -1.261278E+1 -0.224493E+1
  vertex  0.780924E+1 -1.110246E+1 -0.113582E+1
 endloop
endfacet
facet normal -0.194668E+1  0.000000E+0 -0.284546E+1
 outer loop
  vertex  0.780924E+1 -1.110246E+1 -0.113582E+1
  vertex  0.943043E+1 -1.261278E+1 -0.224493E+1
  vertex  0.912338E+1 -1.408190E+1 -0.203486E+1
 endloop
endfacet
facet normal -0.585624E+1 -0.000000E+1 -0.856003E+1
 outer loop
  vertex  0.010131E+1 -1.999767E+1  0.413746E+1
  vertex -0.108171E+1 -1.950560E+1  0.494681E+1
  vertex -0.388837E+1 -1.110246E+1  0.686695E+1
 endloop
endfacet
facet normal -0.493901E+1  7.152557E-7 -0.721933E+1
 outer loop
  vertex -0.388837E+1 -1.110246E+1  0.686695E+1
  vertex -0.108171E+1 -1.950560E+1  0.494681E+1
  vertex -0.218175E+1 -1.878430E+1  0.569939E+1
 endloop
endfacet
facet normal -0.410058E+1  1.192093E-7 -0.599380E+1
 outer loop
  vertex -0.388837E+1 -1.110246E+1  0.686695E+1
  vertex -0.218175E+1 -1.878430E+1  0.569939E+1
  vertex -0.316880E+1 -1.785346E+1  0.637467E+1
 endloop
endfacet
facet normal -0.056103E+1 -0.000000E+1 -0.082006E+1
 outer loop
  vertex -0.453192E+1 -0.637807E+1  0.730723E+1
  vertex -0.377046E+1 -0.510381E+1  0.678628E+1
  vertex -0.388837E+1 -0.637807E+1  0.686695E+1
 endloop
endfacet
facet normal -0.072211E+1 -0.000000E+1 -0.105551E+1
 outer loop
  vertex -0.388837E+1 -0.637807E+1  0.686695E+1
  vertex -0.377046E+1 -0.510381E+1  0.678628E+1
  vertex -0.284054E+1 -0.400587E+1  0.615009E+1
 endloop
endfacet
facet normal -0.021345E+1  8.940697E-8 -0.031200E+1
 outer loop
  vertex -0.520250E+1 -1.408190E+1  0.776599E+1
  vertex -0.550955E+1 -1.261278E+1  0.797606E+1
  vertex -0.470006E+1 -1.546975E+1  0.742226E+1
 endloop
endfacet
facet normal -0.400512E+1  3.278255E-7 -0.585426E+1
 outer loop
  vertex -0.470006E+1 -1.546975E+1  0.742226E+1
  vertex -0.550955E+1 -1.261278E+1  0.797606E+1
  vertex -0.388837E+1 -1.110246E+1  0.686695E+1
 endloop
endfacet
facet normal -0.274857E+1  1.490116E-7 -0.401757E+1
 outer loop
  vertex -0.470006E+1 -1.546975E+1  0.742226E+1
  vertex -0.388837E+1 -1.110246E+1  0.686695E+1
  vertex -0.401594E+1 -1.673847E+1  0.695423E+1
 endloop
endfacet
facet normal -0.336371E+1  1.639128E-7 -0.491673E+1
 outer loop
  vertex -0.401594E+1 -1.673847E+1  0.695423E+1
  vertex -0.388837E+1 -1.110246E+1  0.686695E+1
  vertex -0.316880E+1 -1.785346E+1  0.637467E+1
 endloop
endfacet
facet normal -1.627162E+1  0.000000E+0 -2.378416E+1
 outer loop
  vertex  0.325408E+1 -0.206132E+1  0.198054E+1
  vertex  0.450969E+1 -0.246194E+1  0.112153E+1
  vertex  0.010131E+1 -1.999767E+1  0.413746E+1
 endloop
endfacet
facet normal -6.564349E+1  1.907349E-6 -9.595083E+1
 outer loop
  vertex  0.010131E+1 -1.999767E+1  0.413746E+1
  vertex  0.450969E+1 -0.246194E+1  0.112153E+1
  vertex  0.780924E+1 -1.110246E+1 -0.113582E+1
 endloop
endfacet
facet normal -0.882336E+1  0.000000E+0 -1.289707E+1
 outer loop
  vertex  0.010131E+1 -1.999767E+1  0.413746E+1
  vertex  0.780924E+1 -1.110246E+1 -0.113582E+1
  vertex  0.133504E+1 -2.024712E+1  0.329342E+1
 endloop
endfacet
facet normal -2.141813E+1 -0.000000E+1 -3.130680E+1
 outer loop
  vertex  0.133504E+1 -2.024712E+1  0.329342E+1
  vertex  0.780924E+1 -1.110246E+1 -0.113582E+1
  vertex  0.912338E+1 -1.408190E+1 -0.203486E+1
 endloop
endfacet
facet normal -0.527566E+1 -0.000000E+1 -0.771141E+1
 outer loop
  vertex  0.133504E+1 -2.024712E+1  0.329342E+1
  vertex  0.912338E+1 -1.408190E+1 -0.203486E+1
  vertex  0.258583E+1 -2.024712E+1  0.243771E+1
 endloop
endfacet
facet normal -0.408806E+1 -0.000000E+1 -0.597549E+1
 outer loop
  vertex  0.258583E+1 -2.024712E+1  0.243771E+1
  vertex  0.912338E+1 -1.408190E+1 -0.203486E+1
  vertex  0.862094E+1 -1.546975E+1 -0.169113E+1
 endloop
endfacet
facet normal -0.300236E+1  4.768372E-7 -0.438854E+1
 outer loop
  vertex  0.258583E+1 -2.024712E+1  0.243771E+1
  vertex  0.862094E+1 -1.546975E+1 -0.169113E+1
  vertex  0.381957E+1 -1.999767E+1  0.159367E+1
 endloop
endfacet
facet normal -0.204828E+1 -0.000000E+1 -0.299397E+1
 outer loop
  vertex  0.381957E+1 -1.999767E+1  0.159367E+1
  vertex  0.862094E+1 -1.546975E+1 -0.169113E+1
  vertex  0.793682E+1 -1.673847E+1 -0.122310E+1
 endloop
endfacet
facet normal -0.125179E+1  4.768372E-7 -0.182974E+1
 outer loop
  vertex  0.381957E+1 -1.999767E+1  0.159367E+1
  vertex  0.793682E+1 -1.673847E+1 -0.122310E+1
  vertex  0.500259E+1 -1.950560E+1  0.078432E+1
 endloop
endfacet
facet normal -0.063453E+1  0.000000E+0 -0.092750E+1
 outer loop
  vertex  0.500259E+1 -1.950560E+1  0.078432E+1
  vertex  0.793682E+1 -1.673847E+1 -0.122310E+1
  vertex  0.708968E+1 -1.785346E+1 -0.064354E+1
 endloop
endfacet
facet normal -0.021345E+1  1.192093E-7 -0.031199E+1
 outer loop
  vertex  0.500259E+1 -1.950560E+1  0.078432E+1
  vertex  0.708968E+1 -1.785346E+1 -0.064354E+1
  vertex  0.610263E+1 -1.878430E+1  3.173818E-2
 endloop
endfacet
facet normal -1.616503E+1 -0.000000E+1 -2.362836E+1
 outer loop
  vertex  0.325408E+1 -0.206132E+1  0.198054E+1
  vertex  0.010131E+1 -1.999767E+1  0.413746E+1
  vertex  0.196044E+1 -0.192646E+1  0.286557E+1
 endloop
endfacet
facet normal -6.063888E+1  0.000000E+0 -8.863561E+1
 outer loop
  vertex  0.196044E+1 -0.192646E+1  0.286557E+1
  vertex  0.010131E+1 -1.999767E+1  0.413746E+1
  vertex -0.388837E+1 -1.110246E+1  0.686695E+1
 endloop
endfacet
facet normal -0.758137E+1  0.000000E+0 -1.108166E+1
 outer loop
  vertex  0.196044E+1 -0.192646E+1  0.286557E+1
  vertex -0.388837E+1 -1.110246E+1  0.686695E+1
  vertex  0.066680E+1 -0.206132E+1  0.375059E+1
 endloop
endfacet
facet normal -1.472288E+1  0.000000E+0 -2.152037E+1
 outer loop
  vertex  0.066680E+1 -0.206132E+1  0.375059E+1
  vertex -0.388837E+1 -1.110246E+1  0.686695E+1
  vertex -0.388837E+1 -0.637807E+1  0.686695E+1
 endloop
endfacet
facet normal -0.245967E+1  7.152557E-7 -0.359529E+1
 outer loop
  vertex  0.066680E+1 -0.206132E+1  0.375059E+1
  vertex -0.388837E+1 -0.637807E+1  0.686695E+1
  vertex -0.058881E+1 -0.246194E+1  0.460960E+1
 endloop
endfacet
facet normal -0.254756E+1  0.000000E+0 -0.372375E+1
 outer loop
  vertex -0.058881E+1 -0.246194E+1  0.460960E+1
  vertex -0.388837E+1 -0.637807E+1  0.686695E+1
  vertex -0.284054E+1 -0.400587E+1  0.615009E+1
 endloop
endfacet
facet normal -0.023871E+1  1.192093E-7 -0.034892E+1
 outer loop
  vertex -0.058881E+1 -0.246194E+1  0.460960E+1
  vertex -0.284054E+1 -0.400587E+1  0.615009E+1
  vertex -0.176949E+1 -0.311653E+1  0.541735E+1
 endloop
endfacet
endsolid DefaultTransformed