solid DefaultTransformed
facet normal -0.413243E+1  0.448492E+2  0.127390E+3
 outer loop
  vertex  0.154058E+2 -2.388931E+1 -0.421632E+1
  vertex  0.149968E+2 -1.945062E+1 -0.579229E+1
  vertex -1.305248E+1 -2.651147E+1 -0.421632E+1
 endloop
endfacet
facet normal -0.413242E+1  0.448493E+2  0.127390E+3
 outer loop
  vertex -1.305248E+1 -2.651147E+1 -0.421632E+1
  vertex  0.149968E+2 -1.945062E+1 -0.579229E+1
  vertex -1.346146E+1 -2.207277E+1 -0.579229E+1
 endloop
endfacet
facet normal -11.445555E+1 -3.316106E+1 -6.369505E+1
 outer loop
  vertex  0.041971E+1 -1.698519E+1  0.191182E+2
  vertex  1.072764E-2 -1.254649E+1  0.175422E+2
  vertex  0.154058E+2 -2.388931E+1 -0.421632E+1
 endloop
endfacet
facet normal -11.445536E+1 -3.316089E+1 -6.369501E+1
 outer loop
  vertex  0.154058E+2 -2.388931E+1 -0.421632E+1
  vertex  1.072764E-2 -1.254649E+1  0.175422E+2
  vertex  0.149968E+2 -1.945062E+1 -0.579229E+1
 endloop
endfacet
facet normal -11.958357E+1 -8.455837E+1 -0.000016E+1
 outer loop
  vertex  0.149968E+2 -1.945061E+1 -1.091704E+1
  vertex  0.149968E+2 -1.945062E+1 -0.579229E+1
  vertex -0.150318E+1  0.388391E+1 -1.091704E+1
 endloop
endfacet
facet normal -11.958356E+1 -8.455834E+1 -0.000003E+1
 outer loop
  vertex -0.150318E+1  0.388391E+1 -1.091704E+1
  vertex  0.149968E+2 -1.945062E+1 -0.579229E+1
  vertex -0.150318E+1  0.388391E+1 -0.579229E+1
 endloop
endfacet
facet normal -1.343790E+1  0.145842E+3  0.000000E+0
 outer loop
  vertex -1.346146E+1 -2.207277E+1 -1.091704E+1
  vertex -1.346146E+1 -2.207277E+1 -0.579229E+1
  vertex  0.149968E+2 -1.945061E+1 -1.091704E+1
 endloop
endfacet
facet normal -1.343786E+1  0.145842E+3  2.713994E-4
 outer loop
  vertex  0.149968E+2 -1.945061E+1 -1.091704E+1
  vertex -1.346146E+1 -2.207277E+1 -0.579229E+1
  vertex  0.149968E+2 -1.945062E+1 -0.579229E+1
 endloop
endfacet
facet normal -5.329906E+1  0.117655E+3 -6.904157E+1
 outer loop
  vertex  0.189419E+2 -1.666106E+1 -0.408404E+1
  vertex  0.149968E+2 -1.945062E+1 -0.579229E+1
  vertex  0.395576E+1 -0.975694E+1  0.192505E+2
 endloop
endfacet
facet normal -5.329904E+1  0.117655E+3 -6.904160E+1
 outer loop
  vertex  0.395576E+1 -0.975694E+1  0.192505E+2
  vertex  0.149968E+2 -1.945062E+1 -0.579229E+1
  vertex  1.072764E-2 -1.254649E+1  0.175422E+2
 endloop
endfacet
facet normal -3.986120E+1 -2.818614E+1  0.138083E+3
 outer loop
  vertex  0.244186E+1  0.667347E+1 -0.408404E+1
  vertex -0.150318E+1  0.388391E+1 -0.579229E+1
  vertex  0.189419E+2 -1.666106E+1 -0.408404E+1
 endloop
endfacet
facet normal -3.986115E+1 -2.818610E+1  0.138083E+3
 outer loop
  vertex  0.189419E+2 -1.666106E+1 -0.408404E+1
  vertex -0.150318E+1  0.388391E+1 -0.579229E+1
  vertex  0.149968E+2 -1.945062E+1 -0.579229E+1
 endloop
endfacet
facet normal  0.118588E+3 -1.168837E+1 -6.369508E+1
 outer loop
  vertex -1.305248E+1 -2.651147E+1 -0.421632E+1
  vertex -1.346146E+1 -2.207277E+1 -0.579229E+1
  vertex  0.041971E+1 -1.698519E+1  0.191182E+2
 endloop
endfacet
facet normal  0.118588E+3 -1.168834E+1 -6.369504E+1
 outer loop
  vertex  0.041971E+1 -1.698519E+1  0.191182E+2
  vertex -1.346146E+1 -2.207277E+1 -0.579229E+1
  vertex  1.072764E-2 -1.254649E+1  0.175422E+2
 endloop
endfacet
facet normal  0.133021E+3 -6.128320E+1 -0.000002E+1
 outer loop
  vertex -0.150318E+1  0.388391E+1 -1.091704E+1
  vertex -0.150318E+1  0.388391E+1 -0.579229E+1
  vertex -1.346146E+1 -2.207277E+1 -1.091704E+1
 endloop
endfacet
facet normal  0.133021E+3 -6.128319E+1  0.000000E+0
 outer loop
  vertex -1.346146E+1 -2.207277E+1 -1.091704E+1
  vertex -0.150318E+1  0.388391E+1 -0.579229E+1
  vertex -1.346146E+1 -2.207277E+1 -0.579229E+1
 endloop
endfacet
facet normal  0.931602E+2 -8.946931E+1 -6.904159E+1
 outer loop
  vertex  0.395576E+1 -0.975694E+1  0.192505E+2
  vertex  1.072764E-2 -1.254649E+1  0.175422E+2
  vertex  0.244186E+1  0.667347E+1 -0.408404E+1
 endloop
endfacet
facet normal  0.931603E+2 -8.946933E+1 -6.904160E+1
 outer loop
  vertex  0.244186E+1  0.667347E+1 -0.408404E+1
  vertex  1.072764E-2 -1.254649E+1  0.175422E+2
  vertex -0.150318E+1  0.388391E+1 -0.579229E+1
 endloop
endfacet
facet normal  0.309026E+2  0.125414E+3 -6.904155E+1
 outer loop
  vertex -0.437762E+1 -1.052478E+1  0.192505E+2
  vertex  1.072764E-2 -1.254649E+1  0.175422E+2
  vertex -1.784981E+1 -2.005105E+1 -0.408404E+1
 endloop
endfacet
facet normal  0.309026E+2  0.125414E+3 -6.904164E+1
 outer loop
  vertex -1.784981E+1 -2.005105E+1 -0.408404E+1
  vertex  1.072764E-2 -1.254649E+1  0.175422E+2
  vertex -1.346146E+1 -2.207277E+1 -0.579229E+1
 endloop
endfacet
facet normal  0.443405E+2 -2.042776E+1  0.138083E+3
 outer loop
  vertex -1.784981E+1 -2.005105E+1 -0.408404E+1
  vertex -1.346146E+1 -2.207277E+1 -0.579229E+1
  vertex -0.589152E+1  0.590563E+1 -0.408404E+1
 endloop
endfacet
facet normal  0.443405E+2 -2.042774E+1  0.138083E+3
 outer loop
  vertex -0.589152E+1  0.590563E+1 -0.408404E+1
  vertex -1.346146E+1 -2.207277E+1 -0.579229E+1
  vertex -0.150318E+1  0.388391E+1 -0.579229E+1
 endloop
endfacet
facet normal -7.524312E+1 -10.498605E+1 -6.904159E+1
 outer loop
  vertex -0.589152E+1  0.590563E+1 -0.408404E+1
  vertex -0.150318E+1  0.388391E+1 -0.579229E+1
  vertex -0.437762E+1 -1.052478E+1  0.192505E+2
 endloop
endfacet
facet normal -7.524306E+1 -10.498605E+1 -6.904159E+1
 outer loop
  vertex -0.437762E+1 -1.052478E+1  0.192505E+2
  vertex -0.150318E+1  0.388391E+1 -0.579229E+1
  vertex  1.072764E-2 -1.254649E+1  0.175422E+2
 endloop
endfacet
facet normal -33.015491E+1  0.152103E+3  0.128519E+3
 outer loop
  vertex -2.509318E+1 -3.000000E+1 -1.091704E+1
  vertex -1.784981E+1 -2.005105E+1 -0.408404E+1
  vertex -0.283311E+1  0.183177E+2 -1.091703E+1
 endloop
endfacet
facet normal -17.736187E+1  0.817110E+2  0.690416E+2
 outer loop
  vertex -1.784981E+1 -2.005105E+1 -0.408404E+1
  vertex -0.589152E+1  0.590563E+1 -0.408404E+1
  vertex -0.283311E+1  0.183177E+2 -1.091703E+1
 endloop
endfacet
facet normal -33.015484E+1  0.152103E+3  0.128519E+3
 outer loop
  vertex -0.283311E+1  0.183177E+2 -1.091703E+1
  vertex -0.589152E+1  0.590563E+1 -0.408404E+1
  vertex -0.001502E+1 -1.226706E+1  0.325196E+2
 endloop
endfacet
facet normal -17.736191E+1  0.817109E+2  0.690416E+2
 outer loop
  vertex -0.589152E+1  0.590563E+1 -0.408404E+1
  vertex -0.437762E+1 -1.052478E+1  0.192505E+2
  vertex -0.001502E+1 -1.226706E+1  0.325196E+2
 endloop
endfacet
facet normal -31.097992E+1  0.143269E+3  0.121055E+3
 outer loop
  vertex -0.001502E+1 -1.226706E+1  0.325196E+2
  vertex -0.437762E+1 -1.052478E+1  0.192505E+2
  vertex -2.509318E+1 -3.000000E+1 -1.091704E+1
 endloop
endfacet
facet normal -16.706104E+1  0.769651E+2  0.650319E+2
 outer loop
  vertex -0.437762E+1 -1.052478E+1  0.192505E+2
  vertex -1.784981E+1 -2.005105E+1 -0.408404E+1
  vertex -2.509318E+1 -3.000000E+1 -1.091704E+1
 endloop
endfacet
facet normal  0.000000E+0  0.000000E+0 -36.316505E+1
 outer loop
  vertex -2.509318E+1 -3.000000E+1 -1.091704E+1
  vertex -1.346146E+1 -2.207277E+1 -1.091704E+1
  vertex  0.278812E+2 -2.511892E+1 -1.091704E+1
 endloop
endfacet
facet normal -0.000001E+1 -0.000008E+1 -19.509541E+1
 outer loop
  vertex -1.346146E+1 -2.207277E+1 -1.091704E+1
  vertex  0.149968E+2 -1.945061E+1 -1.091704E+1
  vertex  0.278812E+2 -2.511892E+1 -1.091704E+1
 endloop
endfacet
facet normal  9.906602E-5  9.544556E-5 -38.555717E+1
 outer loop
  vertex  0.278812E+2 -2.511892E+1 -1.091704E+1
  vertex  0.149968E+2 -1.945061E+1 -1.091704E+1
  vertex -0.283311E+1  0.183177E+2 -1.091703E+1
 endloop
endfacet
facet normal  3.211550E-6  2.766627E-5 -20.712467E+1
 outer loop
  vertex  0.149968E+2 -1.945061E+1 -1.091704E+1
  vertex -0.150318E+1  0.388391E+1 -1.091704E+1
  vertex -0.283311E+1  0.183177E+2 -1.091703E+1
 endloop
endfacet
facet normal -0.000005E+1  4.626270E-5 -38.555771E+1
 outer loop
  vertex -0.283311E+1  0.183177E+2 -1.091703E+1
  vertex -0.150318E+1  0.388391E+1 -1.091704E+1
  vertex -2.509318E+1 -3.000000E+1 -1.091704E+1
 endloop
endfacet
facet normal -0.000001E+1  1.109287E-5 -20.712475E+1
 outer loop
  vertex -0.150318E+1  0.388391E+1 -1.091704E+1
  vertex -1.346146E+1 -2.207277E+1 -1.091704E+1
  vertex -2.509318E+1 -3.000000E+1 -1.091704E+1
 endloop
endfacet
facet normal  0.296803E+3  0.209871E+3  0.128519E+3
 outer loop
  vertex -0.001502E+1 -1.226706E+1  0.325196E+2
  vertex  0.395576E+1 -0.975694E+1  0.192505E+2
  vertex -0.283311E+1  0.183177E+2 -1.091703E+1
 endloop
endfacet
facet normal  0.159445E+3  0.112744E+3  0.690416E+2
 outer loop
  vertex  0.395576E+1 -0.975694E+1  0.192505E+2
  vertex  0.244186E+1  0.667347E+1 -0.408404E+1
  vertex -0.283311E+1  0.183177E+2 -1.091703E+1
 endloop
endfacet
facet normal  0.296803E+3  0.209871E+3  0.128519E+3
 outer loop
  vertex -0.283311E+1  0.183177E+2 -1.091703E+1
  vertex  0.244186E+1  0.667347E+1 -0.408404E+1
  vertex  0.278812E+2 -2.511892E+1 -1.091704E+1
 endloop
endfacet
facet normal  0.159445E+3  0.112744E+3  0.690416E+2
 outer loop
  vertex  0.244186E+1  0.667347E+1 -0.408404E+1
  vertex  0.189419E+2 -1.666106E+1 -0.408404E+1
  vertex  0.278812E+2 -2.511892E+1 -1.091704E+1
 endloop
endfacet
facet normal  0.279564E+3  0.197682E+3  0.121055E+3
 outer loop
  vertex  0.278812E+2 -2.511892E+1 -1.091704E+1
  vertex  0.189419E+2 -1.666106E+1 -0.408404E+1
  vertex -0.001502E+1 -1.226706E+1  0.325196E+2
 endloop
endfacet
facet normal  0.150184E+3  0.106196E+3  0.650317E+2
 outer loop
  vertex  0.189419E+2 -1.666106E+1 -0.408404E+1
  vertex  0.395576E+1 -0.975694E+1  0.192505E+2
  vertex -0.001502E+1 -1.226706E+1  0.325196E+2
 endloop
endfacet
facet normal  0.327068E+2 -35.496628E+1  0.126031E+3
 outer loop
  vertex -2.509318E+1 -3.000000E+1 -1.091704E+1
  vertex -1.305248E+1 -2.651147E+1 -0.421632E+1
  vertex -0.001502E+1 -1.226706E+1  0.325196E+2
 endloop
endfacet
facet normal  0.175704E+2 -19.069080E+1  0.677049E+2
 outer loop
  vertex -1.305248E+1 -2.651147E+1 -0.421632E+1
  vertex  0.041971E+1 -1.698519E+1  0.191182E+2
  vertex -0.001502E+1 -1.226706E+1  0.325196E+2
 endloop
endfacet
facet normal  0.327066E+2 -35.496620E+1  0.126031E+3
 outer loop
  vertex -0.001502E+1 -1.226706E+1  0.325196E+2
  vertex  0.041971E+1 -1.698519E+1  0.191182E+2
  vertex  0.278812E+2 -2.511892E+1 -1.091704E+1
 endloop
endfacet
facet normal  0.175701E+2 -19.069073E+1  0.677048E+2
 outer loop
  vertex  0.041971E+1 -1.698519E+1  0.191182E+2
  vertex  0.154058E+2 -2.388931E+1 -0.421632E+1
  vertex  0.278812E+2 -2.511892E+1 -1.091704E+1
 endloop
endfacet
facet normal  0.327067E+2 -35.496628E+1  0.126031E+3
 outer loop
  vertex  0.278812E+2 -2.511892E+1 -1.091704E+1
  vertex  0.154058E+2 -2.388931E+1 -0.421632E+1
  vertex -2.509318E+1 -3.000000E+1 -1.091704E+1
 endloop
endfacet
facet normal  0.175703E+2 -19.069078E+1  0.677050E+2
 outer loop
  vertex  0.154058E+2 -2.388931E+1 -0.421632E+1
  vertex -1.305248E+1 -2.651147E+1 -0.421632E+1
  vertex -2.509318E+1 -3.000000E+1 -1.091704E+1
 endloop
endfacet
endsolid DefaultTransformed