solid Workspace
facet normal  0.000000E+0  0.000000E+0  0.360000E+4
 outer loop
  vertex  0.600000E+2  0.600000E+2  0.600000E+2
  vertex -6.000000E+1  0.600000E+2  0.600000E+2
  vertex  0.600000E+2 -6.000000E+1  0.600000E+2
 endloop
endfacet
facet normal  0.000000E+0  0.000000E+0  0.360000E+4
 outer loop
  vertex -6.000000E+1 -6.000000E+1  0.600000E+2
  vertex  0.600000E+2 -6.000000E+1  0.600000E+2
  vertex -6.000000E+1  0.600000E+2  0.600000E+2
 endloop
endfacet
facet normal  0.000000E+0  0.000000E+0  0.360000E+4
 outer loop
  vertex  0.600000E+2  0.600000E+2 -6.000000E+1
  vertex -6.000000E+1  0.600000E+2 -6.000000E+1
  vertex  0.600000E+2 -6.000000E+1 -6.000000E+1
 endloop
endfacet
facet normal  0.000000E+0  0.000000E+0  0.360000E+4
 outer loop
  vertex -6.000000E+1 -6.000000E+1 -6.000000E+1
  vertex  0.600000E+2 -6.000000E+1 -6.000000E+1
  vertex -6.000000E+1  0.600000E+2 -6.000000E+1
 endloop
endfacet
facet normal  0.000000E+0 -360.000000E+1  0.000000E+0
 outer loop
  vertex  0.600000E+2  0.600000E+2  0.600000E+2
  vertex -6.000000E+1  0.600000E+2  0.600000E+2
  vertex  0.600000E+2  0.600000E+2 -6.000000E+1
 endloop
endfacet
facet normal  -0.000000E+0 -360.000000E+1  -0.000000E+0
 outer loop
  vertex -6.000000E+1  0.600000E+2 -6.000000E+1
  vertex  0.600000E+2  0.600000E+2 -6.000000E+1
  vertex -6.000000E+1  0.600000E+2  0.600000E+2
 endloop
endfacet
facet normal  0.000000E+0 -360.000000E+1  0.000000E+0
 outer loop
  vertex  0.600000E+2 -6.000000E+1  0.600000E+2
  vertex -6.000000E+1 -6.000000E+1  0.600000E+2
  vertex  0.600000E+2 -6.000000E+1 -6.000000E+1
 endloop
endfacet
facet normal  -0.000000E+0 -360.000000E+1  -0.000000E+0
 outer loop
  vertex -6.000000E+1 -6.000000E+1 -6.000000E+1
  vertex  0.600000E+2 -6.000000E+1 -6.000000E+1
  vertex -6.000000E+1 -6.000000E+1  0.600000E+2
 endloop
endfacet
facet normal  0.360000E+4  0.000000E+0  0.000000E+0
 outer loop
  vertex  0.600000E+2  0.600000E+2  0.600000E+2
  vertex  0.600000E+2 -6.000000E+1  0.600000E+2
  vertex  0.600000E+2  0.600000E+2 -6.000000E+1
 endloop
endfacet
facet normal  0.360000E+4  0.000000E+0  0.000000E+0
 outer loop
  vertex  0.600000E+2 -6.000000E+1 -6.000000E+1
  vertex  0.600000E+2  0.600000E+2 -6.000000E+1
  vertex  0.600000E+2 -6.000000E+1  0.600000E+2
 endloop
endfacet
facet normal  0.360000E+4  0.000000E+0  0.000000E+0
 outer loop
  vertex -6.000000E+1  0.600000E+2  0.600000E+2
  vertex -6.000000E+1 -6.000000E+1  0.600000E+2
  vertex -6.000000E+1  0.600000E+2 -6.000000E+1
 endloop
endfacet
facet normal  0.360000E+4  0.000000E+0  0.000000E+0
 outer loop
  vertex -6.000000E+1 -6.000000E+1 -6.000000E+1
  vertex -6.000000E+1  0.600000E+2 -6.000000E+1
  vertex -6.000000E+1 -6.000000E+1  0.600000E+2
 endloop
endfacet
endsolid Workspace