solid Default
facet normal -0.100000E+1  -0.000000E+0  -0.000000E+0
 outer loop
  vertex -0.708658E+1 -0.236233E+1  0.347200E+1
  vertex -0.708658E+1 -0.236233E+1  0.545600E+1
  vertex -0.708658E+1  0.236206E+1  0.347200E+1
 endloop
endfacet
facet normal -0.100000E+1  0.000000E+0  0.000000E+0
 outer loop
  vertex -0.708658E+1  0.236206E+1  0.347200E+1
  vertex -0.708658E+1 -0.236233E+1  0.545600E+1
  vertex -0.708658E+1  0.236206E+1  0.545600E+1
 endloop
endfacet
facet normal  0.100000E+1  -0.000000E+0  0.000000E+0
 outer loop
  vertex  0.708658E+1  0.236206E+1  0.347200E+1
  vertex  0.708658E+1  0.236206E+1  0.545600E+1
  vertex  0.708658E+1 -0.236233E+1  0.347200E+1
 endloop
endfacet
facet normal  0.100000E+1  0.000000E+0  0.000000E+0
 outer loop
  vertex  0.708658E+1 -0.236233E+1  0.347200E+1
  vertex  0.708658E+1  0.236206E+1  0.545600E+1
  vertex  0.708658E+1 -0.236233E+1  0.545600E+1
 endloop
endfacet
facet normal  0.000000E+0  -0.000000E+0  0.100000E+1
 outer loop
  vertex  0.236219E+1 -1.653549E+1  0.545600E+1
  vertex  0.236219E+1 -2.125987E+1  0.545600E+1
  vertex  0.118110E+2 -1.653549E+1  0.545600E+1
 endloop
endfacet
facet normal  0.000000E+0  -0.000000E+0  0.100000E+1
 outer loop
  vertex  0.118110E+2 -1.653549E+1  0.545600E+1
  vertex  0.236219E+1 -2.125987E+1  0.545600E+1
  vertex  0.165354E+2 -2.125987E+1  0.545600E+1
 endloop
endfacet
facet normal  0.000000E+0  0.000000E+0  0.100000E+1
 outer loop
  vertex  0.118110E+2 -1.653549E+1  0.545600E+1
  vertex  0.165354E+2 -2.125987E+1  0.545600E+1
  vertex  0.118110E+2 -1.181110E+1  0.545600E+1
 endloop
endfacet
facet normal  0.000000E+0  0.000000E+0  0.100000E+1
 outer loop
  vertex  0.118110E+2 -1.181110E+1  0.545600E+1
  vertex  0.165354E+2 -2.125987E+1  0.545600E+1
  vertex  0.165354E+2 -1.653549E+1  0.545600E+1
 endloop
endfacet
facet normal  0.000000E+0  0.000000E+0  0.100000E+1
 outer loop
  vertex -0.708658E+1 -0.236233E+1  0.545600E+1
  vertex  0.708658E+1 -0.236233E+1  0.545600E+1
  vertex -0.708658E+1  0.236206E+1  0.545600E+1
 endloop
endfacet
facet normal  0.000000E+0  0.000000E+0  0.100000E+1
 outer loop
  vertex -0.708658E+1  0.236206E+1  0.545600E+1
  vertex  0.708658E+1 -0.236233E+1  0.545600E+1
  vertex  0.708658E+1  0.236206E+1  0.545600E+1
 endloop
endfacet
facet normal  0.000000E+0  0.000000E+0  0.100000E+1
 outer loop
  vertex  0.708658E+1  0.708644E+1  0.545600E+1
  vertex  0.118110E+2  0.708644E+1  0.545600E+1
  vertex  0.708658E+1  0.165355E+2  0.545600E+1
 endloop
endfacet
facet normal  0.000000E+0  0.000000E+0  0.100000E+1
 outer loop
  vertex  0.708658E+1  0.165355E+2  0.545600E+1
  vertex  0.118110E+2  0.708644E+1  0.545600E+1
  vertex  0.118110E+2  0.118111E+2  0.545600E+1
 endloop
endfacet
facet normal  0.000000E+0  0.000000E+0  0.100000E+1
 outer loop
  vertex  0.708658E+1  0.165355E+2  0.545600E+1
  vertex  0.118110E+2  0.118111E+2  0.545600E+1
  vertex  0.141732E+2  0.165355E+2  0.545600E+1
 endloop
endfacet
facet normal  0.000000E+0  -0.000000E+0  0.100000E+1
 outer loop
  vertex  0.141732E+2  0.165355E+2  0.545600E+1
  vertex  0.118110E+2  0.118111E+2  0.545600E+1
  vertex  0.165354E+2  0.118111E+2  0.545600E+1
 endloop
endfacet
facet normal  0.000000E+0  0.000000E+0  0.100000E+1
 outer loop
  vertex  0.141732E+2  0.165355E+2  0.545600E+1
  vertex  0.165354E+2  0.118111E+2  0.545600E+1
  vertex  0.141732E+2  0.212599E+2  0.545600E+1
 endloop
endfacet
facet normal  0.000000E+0  0.000000E+0  0.100000E+1
 outer loop
  vertex  0.141732E+2  0.212599E+2  0.545600E+1
  vertex  0.165354E+2  0.118111E+2  0.545600E+1
  vertex  0.165354E+2  0.165355E+2  0.545600E+1
 endloop
endfacet
facet normal  0.000000E+0  0.000000E+0  0.100000E+1
 outer loop
  vertex  0.141732E+2  0.212599E+2  0.545600E+1
  vertex  0.165354E+2  0.165355E+2  0.545600E+1
  vertex  0.212597E+2  0.212599E+2  0.545600E+1
 endloop
endfacet
facet normal  0.000000E+0  0.000000E+0  0.100000E+1
 outer loop
  vertex  0.212597E+2  0.212599E+2  0.545600E+1
  vertex  0.165354E+2  0.165355E+2  0.545600E+1
  vertex  0.212597E+2  0.165355E+2  0.545600E+1
 endloop
endfacet
facet normal  0.000000E+0  0.000000E+0  0.100000E+1
 outer loop
  vertex  0.259841E+2  0.236206E+1  0.545600E+1
  vertex  0.212597E+2  0.236206E+1  0.545600E+1
  vertex  0.259841E+2 -0.236233E+1  0.545600E+1
 endloop
endfacet
facet normal  -0.000000E+0  0.000000E+0  0.100000E+1
 outer loop
  vertex  0.259841E+2 -0.236233E+1  0.545600E+1
  vertex  0.212597E+2  0.236206E+1  0.545600E+1
  vertex  0.212597E+2 -0.708672E+1  0.545600E+1
 endloop
endfacet
facet normal  0.000000E+0  -0.000000E+0  0.100000E+1
 outer loop
  vertex  0.259841E+2 -0.236233E+1  0.545600E+1
  vertex  0.212597E+2 -0.708672E+1  0.545600E+1
  vertex  0.307085E+2 -0.236233E+1  0.545600E+1
 endloop
endfacet
facet normal  0.000000E+0  0.000000E+0  0.100000E+1
 outer loop
  vertex  0.307085E+2 -0.236233E+1  0.545600E+1
  vertex  0.212597E+2 -0.708672E+1  0.545600E+1
  vertex  0.259841E+2 -0.708672E+1  0.545600E+1
 endloop
endfacet
facet normal  0.000000E+0  0.000000E+0  0.100000E+1
 outer loop
  vertex  0.307085E+2 -0.236233E+1  0.545600E+1
  vertex  0.259841E+2 -0.708672E+1  0.545600E+1
  vertex  0.307085E+2 -1.653549E+1  0.545600E+1
 endloop
endfacet
facet normal  -0.000000E+0  0.000000E+0  0.100000E+1
 outer loop
  vertex  0.307085E+2 -1.653549E+1  0.545600E+1
  vertex  0.259841E+2 -0.708672E+1  0.545600E+1
  vertex  0.259841E+2 -1.653549E+1  0.545600E+1
 endloop
endfacet
facet normal  0.000000E+0  0.000000E+0  0.100000E+1
 outer loop
  vertex  0.165354E+2 -1.653549E+1  0.545600E+1
  vertex  0.212597E+2 -1.653549E+1  0.545600E+1
  vertex  0.118110E+2 -1.181110E+1  0.545600E+1
 endloop
endfacet
facet normal  0.000000E+0  0.000000E+0  0.100000E+1
 outer loop
  vertex  0.118110E+2 -1.181110E+1  0.545600E+1
  vertex  0.212597E+2 -1.653549E+1  0.545600E+1
  vertex  0.212597E+2 -0.708672E+1  0.545600E+1
 endloop
endfacet
facet normal  0.000000E+0  0.000000E+0  0.100000E+1
 outer loop
  vertex  0.118110E+2 -1.181110E+1  0.545600E+1
  vertex  0.212597E+2 -0.708672E+1  0.545600E+1
  vertex  0.118110E+2 -0.236233E+1  0.545600E+1
 endloop
endfacet
facet normal  0.000000E+0  0.000000E+0  0.100000E+1
 outer loop
  vertex  0.118110E+2 -0.236233E+1  0.545600E+1
  vertex  0.212597E+2 -0.708672E+1  0.545600E+1
  vertex  0.212597E+2  0.236206E+1  0.545600E+1
 endloop
endfacet
facet normal  0.000000E+0  0.000000E+0  0.100000E+1
 outer loop
  vertex  0.118110E+2 -0.236233E+1  0.545600E+1
  vertex  0.212597E+2  0.236206E+1  0.545600E+1
  vertex  0.118110E+2  0.236206E+1  0.545600E+1
 endloop
endfacet
facet normal  0.000000E+0  0.000000E+0  0.100000E+1
 outer loop
  vertex  0.118110E+2  0.236206E+1  0.545600E+1
  vertex  0.212597E+2  0.236206E+1  0.545600E+1
  vertex  0.212597E+2  0.708644E+1  0.545600E+1
 endloop
endfacet
facet normal  0.000000E+0  0.000000E+0  0.100000E+1
 outer loop
  vertex  0.212597E+2  0.708644E+1  0.545600E+1
  vertex  0.118110E+2  0.708644E+1  0.545600E+1
  vertex  0.118110E+2  0.236206E+1  0.545600E+1
 endloop
endfacet
facet normal  0.000000E+0  0.000000E+0  0.100000E+1
 outer loop
  vertex  0.118110E+2  0.236206E+1  0.545600E+1
  vertex  0.118110E+2  0.708644E+1  0.545600E+1
  vertex  0.708658E+1  0.708644E+1  0.545600E+1
 endloop
endfacet
facet normal  -0.000000E+0  0.000000E+0  0.100000E+1
 outer loop
  vertex  0.118110E+2  0.236206E+1  0.545600E+1
  vertex  0.708658E+1  0.708644E+1  0.545600E+1
  vertex  0.708658E+1  0.236206E+1  0.545600E+1
 endloop
endfacet
facet normal  0.000000E+0  0.000000E+0  0.100000E+1
 outer loop
  vertex  0.708658E+1  0.236206E+1  0.545600E+1
  vertex  0.708658E+1  0.708644E+1  0.545600E+1
  vertex -0.708658E+1  0.708644E+1  0.545600E+1
 endloop
endfacet
facet normal  -0.000000E+0  0.000000E+0  0.100000E+1
 outer loop
  vertex  0.708658E+1  0.236206E+1  0.545600E+1
  vertex -0.708658E+1  0.708644E+1  0.545600E+1
  vertex -0.708658E+1  0.236206E+1  0.545600E+1
 endloop
endfacet
facet normal  0.000000E+0  -0.000000E+0  0.100000E+1
 outer loop
  vertex -1.653535E+1  0.165355E+2  0.545600E+1
  vertex -1.653535E+1  0.118111E+2  0.545600E+1
  vertex -1.181097E+1  0.118111E+2  0.545600E+1
 endloop
endfacet
facet normal  0.000000E+0  -0.000000E+0  0.100000E+1
 outer loop
  vertex -2.125974E+1  0.212599E+2  0.545600E+1
  vertex -2.125974E+1  0.165355E+2  0.545600E+1
  vertex -1.417316E+1  0.212599E+2  0.545600E+1
 endloop
endfacet
facet normal  0.000000E+0  0.000000E+0  0.100000E+1
 outer loop
  vertex -1.417316E+1  0.212599E+2  0.545600E+1
  vertex -2.125974E+1  0.165355E+2  0.545600E+1
  vertex -1.653535E+1  0.165355E+2  0.545600E+1
 endloop
endfacet
facet normal  0.000000E+0  0.000000E+0  0.100000E+1
 outer loop
  vertex -1.417316E+1  0.212599E+2  0.545600E+1
  vertex -1.653535E+1  0.165355E+2  0.545600E+1
  vertex -1.417316E+1  0.165355E+2  0.545600E+1
 endloop
endfacet
facet normal  0.000000E+0  -0.000000E+0  0.100000E+1
 outer loop
  vertex -1.417316E+1  0.165355E+2  0.545600E+1
  vertex -1.653535E+1  0.165355E+2  0.545600E+1
  vertex -1.181097E+1  0.118111E+2  0.545600E+1
 endloop
endfacet
facet normal  0.000000E+0  0.000000E+0  0.100000E+1
 outer loop
  vertex -1.417316E+1  0.165355E+2  0.545600E+1
  vertex -1.181097E+1  0.118111E+2  0.545600E+1
  vertex -0.708658E+1  0.165355E+2  0.545600E+1
 endloop
endfacet
facet normal  0.000000E+0  0.000000E+0  0.100000E+1
 outer loop
  vertex -0.708658E+1  0.165355E+2  0.545600E+1
  vertex -1.181097E+1  0.118111E+2  0.545600E+1
  vertex -1.181097E+1  0.708644E+1  0.545600E+1
 endloop
endfacet
facet normal  0.000000E+0  0.000000E+0  0.100000E+1
 outer loop
  vertex -0.708658E+1  0.165355E+2  0.545600E+1
  vertex -1.181097E+1  0.708644E+1  0.545600E+1
  vertex -0.708658E+1  0.708644E+1  0.545600E+1
 endloop
endfacet
facet normal  0.000000E+0  0.000000E+0  0.100000E+1
 outer loop
  vertex -0.708658E+1  0.708644E+1  0.545600E+1
  vertex -1.181097E+1  0.708644E+1  0.545600E+1
  vertex -1.181097E+1  0.236206E+1  0.545600E+1
 endloop
endfacet
facet normal  0.000000E+0  0.000000E+0  0.100000E+1
 outer loop
  vertex -0.708658E+1  0.708644E+1  0.545600E+1
  vertex -1.181097E+1  0.236206E+1  0.545600E+1
  vertex -0.708658E+1  0.236206E+1  0.545600E+1
 endloop
endfacet
facet normal  0.000000E+0  -0.000000E+0  0.100000E+1
 outer loop
  vertex -1.653535E+1 -1.653549E+1  0.545600E+1
  vertex -1.653535E+1 -2.125987E+1  0.545600E+1
  vertex -1.181097E+1 -1.653549E+1  0.545600E+1
 endloop
endfacet
facet normal  0.000000E+0  -0.000000E+0  0.100000E+1
 outer loop
  vertex -1.181097E+1 -1.653549E+1  0.545600E+1
  vertex -1.653535E+1 -2.125987E+1  0.545600E+1
  vertex -0.236219E+1 -2.125987E+1  0.545600E+1
 endloop
endfacet
facet normal  0.000000E+0  0.000000E+0  0.100000E+1
 outer loop
  vertex -1.181097E+1 -1.653549E+1  0.545600E+1
  vertex -0.236219E+1 -2.125987E+1  0.545600E+1
  vertex -0.236219E+1 -1.653549E+1  0.545600E+1
 endloop
endfacet
facet normal  0.000000E+0  0.000000E+0  0.100000E+1
 outer loop
  vertex -3.070851E+1 -1.653549E+1  0.545600E+1
  vertex -2.598412E+1 -1.653549E+1  0.545600E+1
  vertex -3.070851E+1 -0.236233E+1  0.545600E+1
 endloop
endfacet
facet normal  0.000000E+0  0.000000E+0  0.100000E+1
 outer loop
  vertex -3.070851E+1 -0.236233E+1  0.545600E+1
  vertex -2.598412E+1 -1.653549E+1  0.545600E+1
  vertex -2.598412E+1 -0.708672E+1  0.545600E+1
 endloop
endfacet
facet normal  0.000000E+0  0.000000E+0  0.100000E+1
 outer loop
  vertex -3.070851E+1 -0.236233E+1  0.545600E+1
  vertex -2.598412E+1 -0.708672E+1  0.545600E+1
  vertex -2.598412E+1 -0.236233E+1  0.545600E+1
 endloop
endfacet
facet normal  0.000000E+0  -0.000000E+0  0.100000E+1
 outer loop
  vertex -2.598412E+1 -0.236233E+1  0.545600E+1
  vertex -2.598412E+1 -0.708672E+1  0.545600E+1
  vertex -2.125974E+1 -0.708672E+1  0.545600E+1
 endloop
endfacet
facet normal  0.000000E+0  0.000000E+0  0.100000E+1
 outer loop
  vertex -2.598412E+1 -0.236233E+1  0.545600E+1
  vertex -2.125974E+1 -0.708672E+1  0.545600E+1
  vertex -2.598412E+1  0.236206E+1  0.545600E+1
 endloop
endfacet
facet normal  0.000000E+0  0.000000E+0  0.100000E+1
 outer loop
  vertex -2.598412E+1  0.236206E+1  0.545600E+1
  vertex -2.125974E+1 -0.708672E+1  0.545600E+1
  vertex -2.125974E+1  0.236206E+1  0.545600E+1
 endloop
endfacet
facet normal  0.000000E+0  0.000000E+0  0.100000E+1
 outer loop
  vertex -2.125974E+1 -1.653549E+1  0.545600E+1
  vertex -1.653535E+1 -1.653549E+1  0.545600E+1
  vertex -2.125974E+1 -0.708672E+1  0.545600E+1
 endloop
endfacet
facet normal  0.000000E+0  0.000000E+0  0.100000E+1
 outer loop
  vertex -2.125974E+1 -0.708672E+1  0.545600E+1
  vertex -1.653535E+1 -1.653549E+1  0.545600E+1
  vertex -1.181097E+1 -1.653549E+1  0.545600E+1
 endloop
endfacet
facet normal  0.000000E+0  0.000000E+0  0.100000E+1
 outer loop
  vertex -2.125974E+1 -0.708672E+1  0.545600E+1
  vertex -1.181097E+1 -1.653549E+1  0.545600E+1
  vertex -2.125974E+1  0.236206E+1  0.545600E+1
 endloop
endfacet
facet normal  0.000000E+0  0.000000E+0  0.100000E+1
 outer loop
  vertex -2.125974E+1  0.236206E+1  0.545600E+1
  vertex -1.181097E+1 -1.653549E+1  0.545600E+1
  vertex -1.181097E+1 -1.181110E+1  0.545600E+1
 endloop
endfacet
facet normal  0.000000E+0  0.000000E+0  0.100000E+1
 outer loop
  vertex -1.181097E+1  0.708644E+1  0.545600E+1
  vertex -2.125974E+1  0.708644E+1  0.545600E+1
  vertex -1.181097E+1  0.236206E+1  0.545600E+1
 endloop
endfacet
facet normal  -0.000000E+0  0.000000E+0  0.100000E+1
 outer loop
  vertex -1.181097E+1  0.236206E+1  0.545600E+1
  vertex -2.125974E+1  0.708644E+1  0.545600E+1
  vertex -2.125974E+1  0.236206E+1  0.545600E+1
 endloop
endfacet
facet normal  0.000000E+0  0.000000E+0  0.100000E+1
 outer loop
  vertex -1.181097E+1  0.236206E+1  0.545600E+1
  vertex -2.125974E+1  0.236206E+1  0.545600E+1
  vertex -1.181097E+1 -0.236233E+1  0.545600E+1
 endloop
endfacet
facet normal  -0.000000E+0  0.000000E+0  0.100000E+1
 outer loop
  vertex -1.181097E+1 -0.236233E+1  0.545600E+1
  vertex -2.125974E+1  0.236206E+1  0.545600E+1
  vertex -1.181097E+1 -1.181110E+1  0.545600E+1
 endloop
endfacet
facet normal  0.000000E+0  -0.000000E+0  0.100000E+1
 outer loop
  vertex -1.181097E+1 -0.236233E+1  0.545600E+1
  vertex -1.181097E+1 -1.181110E+1  0.545600E+1
  vertex -0.708658E+1 -0.236233E+1  0.545600E+1
 endloop
endfacet
facet normal  0.000000E+0  -0.000000E+0  0.100000E+1
 outer loop
  vertex -0.708658E+1 -0.236233E+1  0.545600E+1
  vertex -1.181097E+1 -1.181110E+1  0.545600E+1
  vertex  0.118110E+2 -1.181110E+1  0.545600E+1
 endloop
endfacet
facet normal  0.000000E+0  0.000000E+0  0.100000E+1
 outer loop
  vertex -0.708658E+1 -0.236233E+1  0.545600E+1
  vertex  0.118110E+2 -1.181110E+1  0.545600E+1
  vertex  0.708658E+1 -0.236233E+1  0.545600E+1
 endloop
endfacet
facet normal  0.000000E+0  0.000000E+0  0.100000E+1
 outer loop
  vertex  0.708658E+1 -0.236233E+1  0.545600E+1
  vertex  0.118110E+2 -1.181110E+1  0.545600E+1
  vertex  0.118110E+2 -0.236233E+1  0.545600E+1
 endloop
endfacet
facet normal  1.156267E-21 -0.000000E+1 -0.100000E+1
 outer loop
  vertex  0.786633E+1  0.236206E+1  1.157158E-15
  vertex  0.694372E+1  0.363632E+1  1.079131E-15
  vertex  0.708658E+1  0.708644E+1  8.678722E-16
 endloop
endfacet
facet normal -0.000000E+1 -0.000000E+1 -0.100000E+1
 outer loop
  vertex  0.694372E+1  0.363632E+1  1.079131E-15
  vertex  0.581700E+1  0.473426E+1  1.011902E-15
  vertex  0.708658E+1  0.708644E+1  8.678722E-16
 endloop
endfacet
facet normal -0.000000E+1 -0.000000E+1 -0.100000E+1
 outer loop
  vertex  0.708658E+1  0.708644E+1  8.678722E-16
  vertex  0.581700E+1  0.473426E+1  1.011902E-15
  vertex  0.451929E+1  0.562360E+1  9.574459E-16
 endloop
endfacet
facet normal  3.507592E-23 -0.000000E+1 -0.100000E+1
 outer loop
  vertex  0.708658E+1  0.708644E+1  8.678722E-16
  vertex  0.451929E+1  0.562360E+1  9.574459E-16
  vertex  0.308875E+1  0.627819E+1  9.173633E-16
 endloop
endfacet
facet normal  0.000000E+0 -0.000000E+1 -0.100000E+1
 outer loop
  vertex  0.165354E+2  0.165355E+2  2.892853E-16
  vertex  0.165354E+2  0.118111E+2  5.785704E-16
  vertex  0.118110E+2  0.118111E+2  5.785704E-16
 endloop
endfacet
facet normal  0.000000E+0 -0.000000E+1 -0.100000E+1
 outer loop
  vertex  0.905085E+1 -0.387265E+1  1.538923E-15
  vertex  0.917600E+1 -0.236233E+1  1.446443E-15
  vertex  0.118110E+2 -0.236233E+1  1.446443E-15
 endloop
endfacet
facet normal  0.000000E+0 -0.000000E+1 -0.100000E+1
 outer loop
  vertex -0.236219E+1 -1.653549E+1  2.314298E-15
  vertex -0.236219E+1 -2.125987E+1  2.603584E-15
  vertex -1.181097E+1 -1.653549E+1  2.314298E-15
 endloop
endfacet
facet normal  0.000000E+0 -0.000000E+1 -0.100000E+1
 outer loop
  vertex -1.181097E+1 -1.653549E+1  2.314298E-15
  vertex -0.236219E+1 -2.125987E+1  2.603584E-15
  vertex -1.653535E+1 -2.125987E+1  2.603584E-15
 endloop
endfacet
facet normal -0.000000E+1 -0.000000E+1 -0.100000E+1
 outer loop
  vertex -1.181097E+1 -1.653549E+1  2.314298E-15
  vertex -1.653535E+1 -2.125987E+1  2.603584E-15
  vertex -1.181097E+1 -1.181110E+1  2.025013E-15
 endloop
endfacet
facet normal  -0.000000E+0 -0.000000E+1 -0.100000E+1
 outer loop
  vertex  0.118110E+2  0.708644E+1  8.678722E-16
  vertex  0.212597E+2  0.708644E+1  8.678722E-16
  vertex  0.212597E+2  0.236206E+1  1.157158E-15
 endloop
endfacet
facet normal  0.000000E+0 -0.000000E+1 -0.100000E+1
 outer loop
  vertex  0.212597E+2  0.212599E+2  0.000000E+0
  vertex  0.212597E+2  0.165355E+2  2.892853E-16
  vertex  0.141732E+2  0.212599E+2  0.000000E+0
 endloop
endfacet
facet normal  0.000000E+0 -0.000000E+1 -0.100000E+1
 outer loop
  vertex  0.141732E+2  0.212599E+2  0.000000E+0
  vertex  0.212597E+2  0.165355E+2  2.892853E-16
  vertex  0.165354E+2  0.165355E+2  2.892853E-16
 endloop
endfacet
facet normal  0.000000E+0 -0.000000E+1 -0.100000E+1
 outer loop
  vertex  0.141732E+2  0.212599E+2  0.000000E+0
  vertex  0.165354E+2  0.165355E+2  2.892853E-16
  vertex  0.141732E+2  0.165355E+2  2.892853E-16
 endloop
endfacet
facet normal  -0.000000E+0 -0.000000E+1 -0.100000E+1
 outer loop
  vertex  0.141732E+2  0.165355E+2  2.892853E-16
  vertex  0.165354E+2  0.165355E+2  2.892853E-16
  vertex  0.118110E+2  0.118111E+2  5.785704E-16
 endloop
endfacet
facet normal  0.000000E+0 -0.000000E+1 -0.100000E+1
 outer loop
  vertex  0.141732E+2  0.165355E+2  2.892853E-16
  vertex  0.118110E+2  0.118111E+2  5.785704E-16
  vertex  0.708658E+1  0.165355E+2  2.892853E-16
 endloop
endfacet
facet normal -0.000000E+1 -0.000000E+1 -0.100000E+1
 outer loop
  vertex  0.708658E+1  0.165355E+2  2.892853E-16
  vertex  0.118110E+2  0.118111E+2  5.785704E-16
  vertex  0.118110E+2  0.708644E+1  8.678722E-16
 endloop
endfacet
facet normal  0.000000E+0 -0.000000E+1 -0.100000E+1
 outer loop
  vertex  0.708658E+1  0.165355E+2  2.892853E-16
  vertex  0.118110E+2  0.708644E+1  8.678722E-16
  vertex  0.708658E+1  0.708644E+1  8.678722E-16
 endloop
endfacet
facet normal  -0.000000E+0 -0.000000E+1 -0.100000E+1
 outer loop
  vertex  0.708658E+1  0.708644E+1  8.678722E-16
  vertex  0.118110E+2  0.708644E+1  8.678722E-16
  vertex  0.118110E+2  0.236206E+1  1.157158E-15
 endloop
endfacet
facet normal  0.000000E+0 -0.000000E+1 -0.100000E+1
 outer loop
  vertex  0.708658E+1  0.708644E+1  8.678722E-16
  vertex  0.118110E+2  0.236206E+1  1.157158E-15
  vertex  0.786633E+1  0.236206E+1  1.157158E-15
 endloop
endfacet
facet normal  0.000000E+0 -0.000000E+1 -0.100000E+1
 outer loop
  vertex  0.118110E+2  0.708644E+1  8.678722E-16
  vertex  0.212597E+2  0.236206E+1  1.157158E-15
  vertex  0.118110E+2  0.236206E+1  1.157158E-15
 endloop
endfacet
facet normal  -0.000000E+0 -0.000000E+1 -0.100000E+1
 outer loop
  vertex  0.118110E+2  0.236206E+1  1.157158E-15
  vertex  0.212597E+2  0.236206E+1  1.157158E-15
  vertex  0.212597E+2 -0.708672E+1  1.735728E-15
 endloop
endfacet
facet normal  9.487454E-24 -0.000000E+1 -0.100000E+1
 outer loop
  vertex  0.118110E+2  0.236206E+1  1.157158E-15
  vertex  0.212597E+2 -0.708672E+1  1.735728E-15
  vertex  0.118110E+2 -0.236233E+1  1.446443E-15
 endloop
endfacet
facet normal  1.423118E-23 -0.000000E+1 -0.100000E+1
 outer loop
  vertex  0.118110E+2 -0.236233E+1  1.446443E-15
  vertex  0.212597E+2 -0.708672E+1  1.735728E-15
  vertex  0.212597E+2 -1.653549E+1  2.314298E-15
 endloop
endfacet
facet normal  0.000000E+0 -0.000000E+1 -0.100000E+1
 outer loop
  vertex  0.118110E+2 -0.236233E+1  1.446443E-15
  vertex  0.212597E+2 -1.653549E+1  2.314298E-15
  vertex  0.165354E+2 -1.653549E+1  2.314298E-15
 endloop
endfacet
facet normal  0.000000E+0 -0.000000E+1 -0.100000E+1
 outer loop
  vertex  0.307085E+2 -1.653549E+1  2.314298E-15
  vertex  0.259841E+2 -1.653549E+1  2.314298E-15
  vertex  0.307085E+2 -0.236233E+1  1.446443E-15
 endloop
endfacet
facet normal -0.000000E+1 -0.000000E+1 -0.100000E+1
 outer loop
  vertex  0.307085E+2 -0.236233E+1  1.446443E-15
  vertex  0.259841E+2 -1.653549E+1  2.314298E-15
  vertex  0.259841E+2 -0.708672E+1  1.735728E-15
 endloop
endfacet
facet normal  0.000000E+0 -0.000000E+1 -0.100000E+1
 outer loop
  vertex  0.307085E+2 -0.236233E+1  1.446443E-15
  vertex  0.259841E+2 -0.708672E+1  1.735728E-15
  vertex  0.259841E+2 -0.236233E+1  1.446443E-15
 endloop
endfacet
facet normal  0.000000E+0 -0.000000E+1 -0.100000E+1
 outer loop
  vertex  0.259841E+2 -0.236233E+1  1.446443E-15
  vertex  0.259841E+2 -0.708672E+1  1.735728E-15
  vertex  0.212597E+2 -0.708672E+1  1.735728E-15
 endloop
endfacet
facet normal -0.000000E+1 -0.000000E+1 -0.100000E+1
 outer loop
  vertex  0.259841E+2 -0.236233E+1  1.446443E-15
  vertex  0.212597E+2 -0.708672E+1  1.735728E-15
  vertex  0.259841E+2  0.236206E+1  1.157158E-15
 endloop
endfacet
facet normal  0.000000E+0 -0.000000E+1 -0.100000E+1
 outer loop
  vertex  0.259841E+2  0.236206E+1  1.157158E-15
  vertex  0.212597E+2 -0.708672E+1  1.735728E-15
  vertex  0.212597E+2  0.236206E+1  1.157158E-15
 endloop
endfacet
facet normal  3.510365E-22 -0.000000E+1 -0.100000E+1
 outer loop
  vertex -1.653535E+1 -2.125987E+1  2.603584E-15
  vertex -1.653535E+1 -1.653549E+1  2.314298E-15
  vertex -1.181097E+1 -1.181110E+1  2.025013E-15
 endloop
endfacet
facet normal  0.000000E+0 -0.000000E+1 -0.100000E+1
 outer loop
  vertex -1.181097E+1 -1.181110E+1  2.025013E-15
  vertex -1.653535E+1 -1.653549E+1  2.314298E-15
  vertex -2.125974E+1 -1.653549E+1  2.314298E-15
 endloop
endfacet
facet normal  4.743726E-24 -0.000000E+1 -0.100000E+1
 outer loop
  vertex -1.181097E+1 -1.181110E+1  2.025013E-15
  vertex -2.125974E+1 -1.653549E+1  2.314298E-15
  vertex -2.125974E+1 -0.708672E+1  1.735728E-15
 endloop
endfacet
facet normal  0.000000E+0 -0.000000E+1 -0.100000E+1
 outer loop
  vertex -1.181097E+1 -0.236233E+1  1.446443E-15
  vertex -2.125974E+1  0.236206E+1  1.157158E-15
  vertex -1.181097E+1  0.236206E+1  1.157158E-15
 endloop
endfacet
facet normal  0.000000E+0 -0.000000E+1 -0.100000E+1
 outer loop
  vertex -1.181097E+1  0.236206E+1  1.157158E-15
  vertex -2.125974E+1  0.236206E+1  1.157158E-15
  vertex -2.125974E+1  0.708644E+1  8.678722E-16
 endloop
endfacet
facet normal  -0.000000E+0 -0.000000E+1 -0.100000E+1
 outer loop
  vertex -1.181097E+1  0.236206E+1  1.157158E-15
  vertex -2.125974E+1  0.708644E+1  8.678722E-16
  vertex -0.786633E+1  0.236206E+1  1.157158E-15
 endloop
endfacet
facet normal  0.000000E+0 -0.000000E+1 -0.100000E+1
 outer loop
  vertex -0.708658E+1  0.708644E+1  8.678722E-16
  vertex -1.181097E+1  0.708644E+1  8.678722E-16
  vertex -1.181097E+1  0.118111E+2  5.785704E-16
 endloop
endfacet
facet normal -0.000000E+1 -0.000000E+1 -0.100000E+1
 outer loop
  vertex  0.308875E+1  0.627819E+1  9.173633E-16
  vertex  0.156741E+1  0.667881E+1  8.928326E-16
  vertex  0.708658E+1  0.708644E+1  8.678722E-16
 endloop
endfacet
facet normal -0.000000E+1 -0.000000E+1 -0.100000E+1
 outer loop
  vertex  0.708658E+1  0.708644E+1  8.678722E-16
  vertex  0.156741E+1  0.667881E+1  8.928326E-16
  vertex  0.000000E+0  0.681367E+1  8.845748E-16
 endloop
endfacet
facet normal  0.000000E+0 -0.000000E+1 -0.100000E+1
 outer loop
  vertex  0.708658E+1  0.708644E+1  8.678722E-16
  vertex  0.000000E+0  0.681367E+1  8.845748E-16
  vertex -0.708658E+1  0.708644E+1  8.678722E-16
 endloop
endfacet
facet normal  2.152804E-23 -0.000000E+1 -0.100000E+1
 outer loop
  vertex -0.708658E+1  0.708644E+1  8.678722E-16
  vertex  0.000000E+0  0.681367E+1  8.845748E-16
  vertex -0.156741E+1  0.667881E+1  8.928326E-16
 endloop
endfacet
facet normal  3.067005E-22 -0.000000E+1 -0.100000E+1
 outer loop
  vertex  0.118110E+2 -1.181110E+1  2.025013E-15
  vertex  0.807005E+1 -0.672962E+1  1.713862E-15
  vertex  0.867882E+1 -0.534177E+1  1.628881E-15
 endloop
endfacet
facet normal  -0.000000E+0 -0.000000E+1 -0.100000E+1
 outer loop
  vertex -2.125974E+1  0.165355E+2  2.892853E-16
  vertex -2.125974E+1  0.212599E+2  0.000000E+0
  vertex -1.653535E+1  0.165355E+2  2.892853E-16
 endloop
endfacet
facet normal  0.000000E+0 -0.000000E+1 -0.100000E+1
 outer loop
  vertex -1.653535E+1  0.165355E+2  2.892853E-16
  vertex -2.125974E+1  0.212599E+2  0.000000E+0
  vertex -1.417316E+1  0.212599E+2  0.000000E+0
 endloop
endfacet
facet normal -0.000000E+1 -0.000000E+1 -0.100000E+1
 outer loop
  vertex -1.653535E+1  0.165355E+2  2.892853E-16
  vertex -1.417316E+1  0.212599E+2  0.000000E+0
  vertex -1.653535E+1  0.118111E+2  5.785704E-16
 endloop
endfacet
facet normal  3.415489E-22 -0.000000E+1 -0.100000E+1
 outer loop
  vertex -1.653535E+1  0.118111E+2  5.785704E-16
  vertex -1.417316E+1  0.212599E+2  0.000000E+0
  vertex -1.417316E+1  0.165355E+2  2.892853E-16
 endloop
endfacet
facet normal  -0.000000E+0 -0.000000E+1 -0.100000E+1
 outer loop
  vertex -1.653535E+1  0.118111E+2  5.785704E-16
  vertex -1.417316E+1  0.165355E+2  2.892853E-16
  vertex -1.181097E+1  0.118111E+2  5.785704E-16
 endloop
endfacet
facet normal  0.000000E+0 -0.000000E+1 -0.100000E+1
 outer loop
  vertex -1.181097E+1  0.118111E+2  5.785704E-16
  vertex -1.417316E+1  0.165355E+2  2.892853E-16
  vertex -0.708658E+1  0.165355E+2  2.892853E-16
 endloop
endfacet
facet normal  4.743582E-23 -0.000000E+1 -0.100000E+1
 outer loop
  vertex -1.181097E+1  0.118111E+2  5.785704E-16
  vertex -0.708658E+1  0.165355E+2  2.892853E-16
  vertex -0.708658E+1  0.708644E+1  8.678722E-16
 endloop
endfacet
facet normal  0.000000E+0 -0.000000E+1 -0.100000E+1
 outer loop
  vertex -2.598412E+1 -1.653549E+1  2.314298E-15
  vertex -3.070851E+1 -1.653549E+1  2.314298E-15
  vertex -2.598412E+1 -0.708672E+1  1.735728E-15
 endloop
endfacet
facet normal  2.213736E-23 -0.000000E+1 -0.100000E+1
 outer loop
  vertex -2.598412E+1 -0.708672E+1  1.735728E-15
  vertex -3.070851E+1 -1.653549E+1  2.314298E-15
  vertex -3.070851E+1 -0.236233E+1  1.446443E-15
 endloop
endfacet
facet normal  -0.000000E+0 -0.000000E+1 -0.100000E+1
 outer loop
  vertex -2.598412E+1 -0.708672E+1  1.735728E-15
  vertex -3.070851E+1 -0.236233E+1  1.446443E-15
  vertex -2.125974E+1 -0.708672E+1  1.735728E-15
 endloop
endfacet
facet normal  0.000000E+0 -0.000000E+1 -0.100000E+1
 outer loop
  vertex -2.125974E+1 -0.708672E+1  1.735728E-15
  vertex -3.070851E+1 -0.236233E+1  1.446443E-15
  vertex -2.598412E+1 -0.236233E+1  1.446443E-15
 endloop
endfacet
facet normal -0.000000E+1 -0.000000E+1 -0.100000E+1
 outer loop
  vertex -2.125974E+1 -0.708672E+1  1.735728E-15
  vertex -2.598412E+1 -0.236233E+1  1.446443E-15
  vertex -1.181097E+1 -1.181110E+1  2.025013E-15
 endloop
endfacet
facet normal -0.000000E+1 -0.000000E+1 -0.100000E+1
 outer loop
  vertex -0.501880E+1 -1.004417E+1  1.916820E-15
  vertex -0.368596E+1 -1.076547E+1  1.960986E-15
  vertex -1.181097E+1 -1.181110E+1  2.025013E-15
 endloop
endfacet
facet normal  -0.000000E+0 -0.000000E+1 -0.100000E+1
 outer loop
  vertex  0.236219E+1 -2.125987E+1  2.603584E-15
  vertex  0.236219E+1 -1.653549E+1  2.314298E-15
  vertex  0.165354E+2 -2.125987E+1  2.603584E-15
 endloop
endfacet
facet normal  0.000000E+0 -0.000000E+1 -0.100000E+1
 outer loop
  vertex  0.165354E+2 -2.125987E+1  2.603584E-15
  vertex  0.236219E+1 -1.653549E+1  2.314298E-15
  vertex  0.118110E+2 -1.653549E+1  2.314298E-15
 endloop
endfacet
facet normal  0.000000E+0 -0.000000E+1 -0.100000E+1
 outer loop
  vertex  0.165354E+2 -2.125987E+1  2.603584E-15
  vertex  0.118110E+2 -1.653549E+1  2.314298E-15
  vertex  0.165354E+2 -1.653549E+1  2.314298E-15
 endloop
endfacet
facet normal  0.000000E+0 -0.000000E+1 -0.100000E+1
 outer loop
  vertex  0.165354E+2 -1.653549E+1  2.314298E-15
  vertex  0.118110E+2 -1.653549E+1  2.314298E-15
  vertex  0.118110E+2 -1.181110E+1  2.025013E-15
 endloop
endfacet
facet normal -0.000000E+1 -0.000000E+1 -0.100000E+1
 outer loop
  vertex  0.165354E+2 -1.653549E+1  2.314298E-15
  vertex  0.118110E+2 -1.181110E+1  2.025013E-15
  vertex  0.118110E+2 -0.236233E+1  1.446443E-15
 endloop
endfacet
facet normal  2.862083E-23 -0.000000E+1 -0.100000E+1
 outer loop
  vertex  0.118110E+2 -0.236233E+1  1.446443E-15
  vertex  0.118110E+2 -1.181110E+1  2.025013E-15
  vertex  0.867882E+1 -0.534177E+1  1.628881E-15
 endloop
endfacet
facet normal  2.046005E-22 -0.000000E+1 -0.100000E+1
 outer loop
  vertex  0.118110E+2 -0.236233E+1  1.446443E-15
  vertex  0.867882E+1 -0.534177E+1  1.628881E-15
  vertex  0.905085E+1 -0.387265E+1  1.538923E-15
 endloop
endfacet
facet normal  0.000000E+0 -0.000000E+1 -0.100000E+1
 outer loop
  vertex -0.917600E+1 -0.236233E+1  1.446443E-15
  vertex -0.905085E+1 -0.387265E+1  1.538923E-15
  vertex -1.181097E+1 -0.236233E+1  1.446443E-15
 endloop
endfacet
facet normal -0.000000E+1 -0.000000E+1 -0.100000E+1
 outer loop
  vertex -1.181097E+1 -0.236233E+1  1.446443E-15
  vertex -0.905085E+1 -0.387265E+1  1.538923E-15
  vertex -0.867882E+1 -0.534177E+1  1.628881E-15
 endloop
endfacet
facet normal  5.721518E-22 -0.000000E+1 -0.100000E+1
 outer loop
  vertex -0.621474E+1 -0.911333E+1  1.859822E-15
  vertex -2.125974E+1  0.236206E+1  1.157158E-15
  vertex -0.724115E+1 -0.799834E+1  1.791549E-15
 endloop
endfacet
facet normal  0.000000E+0 -0.000000E+1 -0.100000E+1
 outer loop
  vertex -0.724115E+1 -0.799834E+1  1.791549E-15
  vertex -2.125974E+1  0.236206E+1  1.157158E-15
  vertex -1.181097E+1 -0.236233E+1  1.446443E-15
 endloop
endfacet
facet normal -0.000000E+1 -0.000000E+1 -0.100000E+1
 outer loop
  vertex -0.724115E+1 -0.799834E+1  1.791549E-15
  vertex -1.181097E+1 -0.236233E+1  1.446443E-15
  vertex -0.807005E+1 -0.672962E+1  1.713862E-15
 endloop
endfacet
facet normal  3.970708E-22 -0.000000E+1 -0.100000E+1
 outer loop
  vertex -0.807005E+1 -0.672962E+1  1.713862E-15
  vertex -1.181097E+1 -0.236233E+1  1.446443E-15
  vertex -0.867882E+1 -0.534177E+1  1.628881E-15
 endloop
endfacet
facet normal  -0.000000E+0 -0.000000E+1 -0.100000E+1
 outer loop
  vertex -2.125974E+1  0.708644E+1  8.678722E-16
  vertex -1.181097E+1  0.708644E+1  8.678722E-16
  vertex -0.786633E+1  0.236206E+1  1.157158E-15
 endloop
endfacet
facet normal  0.000000E+0 -0.000000E+1 -0.100000E+1
 outer loop
  vertex -0.786633E+1  0.236206E+1  1.157158E-15
  vertex -1.181097E+1  0.708644E+1  8.678722E-16
  vertex -0.708658E+1  0.708644E+1  8.678722E-16
 endloop
endfacet
facet normal -0.000000E+1 -0.000000E+1 -0.100000E+1
 outer loop
  vertex -0.786633E+1  0.236206E+1  1.157158E-15
  vertex -0.708658E+1  0.708644E+1  8.678722E-16
  vertex -0.694372E+1  0.363632E+1  1.079131E-15
 endloop
endfacet
facet normal  1.112678E-22 -0.000000E+1 -0.100000E+1
 outer loop
  vertex -0.694372E+1  0.363632E+1  1.079131E-15
  vertex -0.708658E+1  0.708644E+1  8.678722E-16
  vertex -0.581700E+1  0.473426E+1  1.011902E-15
 endloop
endfacet
facet normal -0.000000E+1 -0.000000E+1 -0.100000E+1
 outer loop
  vertex  0.225257E+1 -1.125754E+1  1.991118E-15
  vertex  0.368596E+1 -1.076547E+1  1.960986E-15
  vertex  0.118110E+2 -1.181110E+1  2.025013E-15
 endloop
endfacet
facet normal  1.842681E-22 -0.000000E+1 -0.100000E+1
 outer loop
  vertex  0.118110E+2 -1.181110E+1  2.025013E-15
  vertex  0.368596E+1 -1.076547E+1  1.960986E-15
  vertex  0.501880E+1 -1.004417E+1  1.916820E-15
 endloop
endfacet
facet normal  1.081005E-23 -0.000000E+1 -0.100000E+1
 outer loop
  vertex -0.156741E+1  0.667881E+1  8.928326E-16
  vertex -0.308875E+1  0.627819E+1  9.173633E-16
  vertex -0.708658E+1  0.708644E+1  8.678722E-16
 endloop
endfacet
facet normal -0.000000E+1 -0.000000E+1 -0.100000E+1
 outer loop
  vertex -0.708658E+1  0.708644E+1  8.678722E-16
  vertex -0.308875E+1  0.627819E+1  9.173633E-16
  vertex -0.451929E+1  0.562360E+1  9.574459E-16
 endloop
endfacet
facet normal  6.963176E-23 -0.000000E+1 -0.100000E+1
 outer loop
  vertex -0.708658E+1  0.708644E+1  8.678722E-16
  vertex -0.451929E+1  0.562360E+1  9.574459E-16
  vertex -0.581700E+1  0.473426E+1  1.011902E-15
 endloop
endfacet
facet normal -0.000000E+1 -0.000000E+1 -0.100000E+1
 outer loop
  vertex -0.621474E+1 -0.911333E+1  1.859822E-15
  vertex -0.501880E+1 -1.004417E+1  1.916820E-15
  vertex -2.125974E+1  0.236206E+1  1.157158E-15
 endloop
endfacet
facet normal  4.499038E-23 -0.000000E+1 -0.100000E+1
 outer loop
  vertex -2.125974E+1  0.236206E+1  1.157158E-15
  vertex -0.501880E+1 -1.004417E+1  1.916820E-15
  vertex -1.181097E+1 -1.181110E+1  2.025013E-15
 endloop
endfacet
facet normal  0.000000E+0 -0.000000E+1 -0.100000E+1
 outer loop
  vertex -2.125974E+1  0.236206E+1  1.157158E-15
  vertex -1.181097E+1 -1.181110E+1  2.025013E-15
  vertex -2.598412E+1  0.236206E+1  1.157158E-15
 endloop
endfacet
facet normal  6.324972E-24 -0.000000E+1 -0.100000E+1
 outer loop
  vertex -2.598412E+1  0.236206E+1  1.157158E-15
  vertex -1.181097E+1 -1.181110E+1  2.025013E-15
  vertex -2.598412E+1 -0.236233E+1  1.446443E-15
 endloop
endfacet
facet normal  2.203063E-22 -0.000000E+1 -0.100000E+1
 outer loop
  vertex -0.368596E+1 -1.076547E+1  1.960986E-15
  vertex -0.225257E+1 -1.125754E+1  1.991118E-15
  vertex -1.181097E+1 -1.181110E+1  2.025013E-15
 endloop
endfacet
facet normal -0.000000E+1 -0.000000E+1 -0.100000E+1
 outer loop
  vertex -1.181097E+1 -1.181110E+1  2.025013E-15
  vertex -0.225257E+1 -1.125754E+1  1.991118E-15
  vertex -0.075775E+1 -1.150699E+1  2.006392E-15
 endloop
endfacet
facet normal  -0.000000E+0 -0.000000E+1 -0.100000E+1
 outer loop
  vertex -1.181097E+1 -1.181110E+1  2.025013E-15
  vertex -0.075775E+1 -1.150699E+1  2.006392E-15
  vertex  0.118110E+2 -1.181110E+1  2.025013E-15
 endloop
endfacet
facet normal  0.000000E+0 -0.000000E+1 -0.100000E+1
 outer loop
  vertex  0.118110E+2 -1.181110E+1  2.025013E-15
  vertex -0.075775E+1 -1.150699E+1  2.006392E-15
  vertex  0.075775E+1 -1.150699E+1  2.006392E-15
 endloop
endfacet
facet normal  2.137600E-23 -0.000000E+1 -0.100000E+1
 outer loop
  vertex  0.118110E+2 -1.181110E+1  2.025013E-15
  vertex  0.075775E+1 -1.150699E+1  2.006392E-15
  vertex  0.225257E+1 -1.125754E+1  1.991118E-15
 endloop
endfacet
facet normal -0.000000E+1 -0.000000E+1 -0.100000E+1
 outer loop
  vertex  0.501880E+1 -1.004417E+1  1.916820E-15
  vertex  0.621474E+1 -0.911333E+1  1.859822E-15
  vertex  0.118110E+2 -1.181110E+1  2.025013E-15
 endloop
endfacet
facet normal  1.351585E-22 -0.000000E+1 -0.100000E+1
 outer loop
  vertex  0.118110E+2 -1.181110E+1  2.025013E-15
  vertex  0.621474E+1 -0.911333E+1  1.859822E-15
  vertex  0.724115E+1 -0.799834E+1  1.791549E-15
 endloop
endfacet
facet normal -0.000000E+1 -0.000000E+1 -0.100000E+1
 outer loop
  vertex  0.118110E+2 -1.181110E+1  2.025013E-15
  vertex  0.724115E+1 -0.799834E+1  1.791549E-15
  vertex  0.807005E+1 -0.672962E+1  1.713862E-15
 endloop
endfacet
facet normal  0.000000E+0  0.100000E+1  -0.000000E+0
 outer loop
  vertex  0.259841E+2 -0.236233E+1  0.545600E+1
  vertex  0.307085E+2 -0.236233E+1  0.545600E+1
  vertex  0.259841E+2 -0.236233E+1  1.446443E-15
 endloop
endfacet
facet normal  0.000000E+0  0.100000E+1  0.000000E+0
 outer loop
  vertex  0.259841E+2 -0.236233E+1  1.446443E-15
  vertex  0.307085E+2 -0.236233E+1  0.545600E+1
  vertex  0.307085E+2 -0.236233E+1  1.446443E-15
 endloop
endfacet
facet normal  0.100000E+1  0.000000E+0  0.000000E+0
 outer loop
  vertex  0.259841E+2  0.236206E+1  0.545600E+1
  vertex  0.259841E+2 -0.236233E+1  0.545600E+1
  vertex  0.259841E+2  0.236206E+1  1.157158E-15
 endloop
endfacet
facet normal  0.100000E+1  0.000000E+0  0.000000E+0
 outer loop
  vertex  0.259841E+2  0.236206E+1  1.157158E-15
  vertex  0.259841E+2 -0.236233E+1  0.545600E+1
  vertex  0.259841E+2 -0.236233E+1  1.446443E-15
 endloop
endfacet
facet normal  0.000000E+0  0.100000E+1  -0.000000E+0
 outer loop
  vertex  0.212597E+2  0.236206E+1  0.545600E+1
  vertex  0.259841E+2  0.236206E+1  0.545600E+1
  vertex  0.212597E+2  0.236206E+1  1.157158E-15
 endloop
endfacet
facet normal  0.000000E+0  0.100000E+1  0.000000E+0
 outer loop
  vertex  0.212597E+2  0.236206E+1  1.157158E-15
  vertex  0.259841E+2  0.236206E+1  0.545600E+1
  vertex  0.259841E+2  0.236206E+1  1.157158E-15
 endloop
endfacet
facet normal  0.100000E+1  0.000000E+0  0.000000E+0
 outer loop
  vertex  0.212597E+2  0.708644E+1  0.545600E+1
  vertex  0.212597E+2  0.236206E+1  0.545600E+1
  vertex  0.212597E+2  0.708644E+1  8.678722E-16
 endloop
endfacet
facet normal  0.100000E+1  0.000000E+0  0.000000E+0
 outer loop
  vertex  0.212597E+2  0.708644E+1  8.678722E-16
  vertex  0.212597E+2  0.236206E+1  0.545600E+1
  vertex  0.212597E+2  0.236206E+1  1.157158E-15
 endloop
endfacet
facet normal  0.000000E+0  0.100000E+1  -0.000000E+0
 outer loop
  vertex  0.118110E+2  0.708644E+1  0.545600E+1
  vertex  0.212597E+2  0.708644E+1  0.545600E+1
  vertex  0.118110E+2  0.708644E+1  8.678722E-16
 endloop
endfacet
facet normal  0.000000E+0  0.100000E+1  0.000000E+0
 outer loop
  vertex  0.118110E+2  0.708644E+1  8.678722E-16
  vertex  0.212597E+2  0.708644E+1  0.545600E+1
  vertex  0.212597E+2  0.708644E+1  8.678722E-16
 endloop
endfacet
facet normal  0.100000E+1  0.000000E+0  0.000000E+0
 outer loop
  vertex  0.118110E+2  0.118111E+2  0.545600E+1
  vertex  0.118110E+2  0.708644E+1  0.545600E+1
  vertex  0.118110E+2  0.118111E+2  5.785704E-16
 endloop
endfacet
facet normal  0.100000E+1  0.000000E+0  0.000000E+0
 outer loop
  vertex  0.118110E+2  0.118111E+2  5.785704E-16
  vertex  0.118110E+2  0.708644E+1  0.545600E+1
  vertex  0.118110E+2  0.708644E+1  8.678722E-16
 endloop
endfacet
facet normal  0.000000E+0 -0.100000E+1  0.000000E+0
 outer loop
  vertex  0.165354E+2  0.118111E+2  0.545600E+1
  vertex  0.118110E+2  0.118111E+2  0.545600E+1
  vertex  0.165354E+2  0.118111E+2  5.785704E-16
 endloop
endfacet
facet normal  0.000000E+0 -0.100000E+1  0.000000E+0
 outer loop
  vertex  0.165354E+2  0.118111E+2  5.785704E-16
  vertex  0.118110E+2  0.118111E+2  0.545600E+1
  vertex  0.118110E+2  0.118111E+2  5.785704E-16
 endloop
endfacet
facet normal  0.100000E+1  0.000000E+0  0.000000E+0
 outer loop
  vertex  0.165354E+2  0.165355E+2  0.545600E+1
  vertex  0.165354E+2  0.118111E+2  0.545600E+1
  vertex  0.165354E+2  0.165355E+2  2.892853E-16
 endloop
endfacet
facet normal  0.100000E+1  0.000000E+0  0.000000E+0
 outer loop
  vertex  0.165354E+2  0.165355E+2  2.892853E-16
  vertex  0.165354E+2  0.118111E+2  0.545600E+1
  vertex  0.165354E+2  0.118111E+2  5.785704E-16
 endloop
endfacet
facet normal  0.000000E+0 -0.100000E+1  0.000000E+0
 outer loop
  vertex  0.212597E+2  0.165355E+2  0.545600E+1
  vertex  0.165354E+2  0.165355E+2  0.545600E+1
  vertex  0.212597E+2  0.165355E+2  2.892853E-16
 endloop
endfacet
facet normal  0.000000E+0 -0.100000E+1  0.000000E+0
 outer loop
  vertex  0.212597E+2  0.165355E+2  2.892853E-16
  vertex  0.165354E+2  0.165355E+2  0.545600E+1
  vertex  0.165354E+2  0.165355E+2  2.892853E-16
 endloop
endfacet
facet normal  0.100000E+1  0.000000E+0  0.000000E+0
 outer loop
  vertex  0.212597E+2  0.212599E+2  0.545600E+1
  vertex  0.212597E+2  0.165355E+2  0.545600E+1
  vertex  0.212597E+2  0.212599E+2  0.000000E+0
 endloop
endfacet
facet normal  0.100000E+1  0.000000E+0  0.000000E+0
 outer loop
  vertex  0.212597E+2  0.212599E+2  0.000000E+0
  vertex  0.212597E+2  0.165355E+2  0.545600E+1
  vertex  0.212597E+2  0.165355E+2  2.892853E-16
 endloop
endfacet
facet normal  0.000000E+0  0.100000E+1  -0.000000E+0
 outer loop
  vertex  0.141732E+2  0.212599E+2  0.545600E+1
  vertex  0.212597E+2  0.212599E+2  0.545600E+1
  vertex  0.141732E+2  0.212599E+2  0.000000E+0
 endloop
endfacet
facet normal  0.000000E+0  0.100000E+1  0.000000E+0
 outer loop
  vertex  0.141732E+2  0.212599E+2  0.000000E+0
  vertex  0.212597E+2  0.212599E+2  0.545600E+1
  vertex  0.212597E+2  0.212599E+2  0.000000E+0
 endloop
endfacet
facet normal -0.100000E+1  0.000000E+0  0.000000E+0
 outer loop
  vertex  0.141732E+2  0.165355E+2  0.545600E+1
  vertex  0.141732E+2  0.212599E+2  0.545600E+1
  vertex  0.141732E+2  0.165355E+2  2.892853E-16
 endloop
endfacet
facet normal -0.100000E+1  -0.000000E+0  0.000000E+0
 outer loop
  vertex  0.141732E+2  0.165355E+2  2.892853E-16
  vertex  0.141732E+2  0.212599E+2  0.545600E+1
  vertex  0.141732E+2  0.212599E+2  0.000000E+0
 endloop
endfacet
facet normal  0.000000E+0  0.100000E+1  -0.000000E+0
 outer loop
  vertex  0.708658E+1  0.165355E+2  0.545600E+1
  vertex  0.141732E+2  0.165355E+2  0.545600E+1
  vertex  0.708658E+1  0.165355E+2  2.892853E-16
 endloop
endfacet
facet normal  0.000000E+0  0.100000E+1  0.000000E+0
 outer loop
  vertex  0.708658E+1  0.165355E+2  2.892853E-16
  vertex  0.141732E+2  0.165355E+2  0.545600E+1
  vertex  0.141732E+2  0.165355E+2  2.892853E-16
 endloop
endfacet
facet normal -0.100000E+1  0.000000E+0  0.000000E+0
 outer loop
  vertex  0.708658E+1  0.708644E+1  0.545600E+1
  vertex  0.708658E+1  0.165355E+2  0.545600E+1
  vertex  0.708658E+1  0.708644E+1  8.678722E-16
 endloop
endfacet
facet normal -0.100000E+1  -0.000000E+0  0.000000E+0
 outer loop
  vertex  0.708658E+1  0.708644E+1  8.678722E-16
  vertex  0.708658E+1  0.165355E+2  0.545600E+1
  vertex  0.708658E+1  0.165355E+2  2.892853E-16
 endloop
endfacet
facet normal  0.000000E+0  0.100000E+1  -0.000000E+0
 outer loop
  vertex -0.708658E+1  0.708644E+1  0.545600E+1
  vertex  0.708658E+1  0.708644E+1  0.545600E+1
  vertex -0.708658E+1  0.708644E+1  8.678722E-16
 endloop
endfacet
facet normal  0.000000E+0  0.100000E+1  0.000000E+0
 outer loop
  vertex -0.708658E+1  0.708644E+1  8.678722E-16
  vertex  0.708658E+1  0.708644E+1  0.545600E+1
  vertex  0.708658E+1  0.708644E+1  8.678722E-16
 endloop
endfacet
facet normal  0.100000E+1  0.000000E+0  0.000000E+0
 outer loop
  vertex -0.708658E+1  0.165355E+2  0.545600E+1
  vertex -0.708658E+1  0.708644E+1  0.545600E+1
  vertex -0.708658E+1  0.165355E+2  2.892853E-16
 endloop
endfacet
facet normal  0.100000E+1  0.000000E+0  0.000000E+0
 outer loop
  vertex -0.708658E+1  0.165355E+2  2.892853E-16
  vertex -0.708658E+1  0.708644E+1  0.545600E+1
  vertex -0.708658E+1  0.708644E+1  8.678722E-16
 endloop
endfacet
facet normal  0.000000E+0  0.100000E+1  -0.000000E+0
 outer loop
  vertex -1.417316E+1  0.165355E+2  0.545600E+1
  vertex -0.708658E+1  0.165355E+2  0.545600E+1
  vertex -1.417316E+1  0.165355E+2  2.892853E-16
 endloop
endfacet
facet normal  0.000000E+0  0.100000E+1  0.000000E+0
 outer loop
  vertex -1.417316E+1  0.165355E+2  2.892853E-16
  vertex -0.708658E+1  0.165355E+2  0.545600E+1
  vertex -0.708658E+1  0.165355E+2  2.892853E-16
 endloop
endfacet
facet normal  0.100000E+1  0.000000E+0  0.000000E+0
 outer loop
  vertex -1.417316E+1  0.212599E+2  0.545600E+1
  vertex -1.417316E+1  0.165355E+2  0.545600E+1
  vertex -1.417316E+1  0.212599E+2  0.000000E+0
 endloop
endfacet
facet normal  0.100000E+1  0.000000E+0  0.000000E+0
 outer loop
  vertex -1.417316E+1  0.212599E+2  0.000000E+0
  vertex -1.417316E+1  0.165355E+2  0.545600E+1
  vertex -1.417316E+1  0.165355E+2  2.892853E-16
 endloop
endfacet
facet normal  0.000000E+0  0.100000E+1  -0.000000E+0
 outer loop
  vertex -2.125974E+1  0.212599E+2  0.545600E+1
  vertex -1.417316E+1  0.212599E+2  0.545600E+1
  vertex -2.125974E+1  0.212599E+2  0.000000E+0
 endloop
endfacet
facet normal  0.000000E+0  0.100000E+1  0.000000E+0
 outer loop
  vertex -2.125974E+1  0.212599E+2  0.000000E+0
  vertex -1.417316E+1  0.212599E+2  0.545600E+1
  vertex -1.417316E+1  0.212599E+2  0.000000E+0
 endloop
endfacet
facet normal -0.100000E+1  0.000000E+0  0.000000E+0
 outer loop
  vertex -2.125974E+1  0.165355E+2  0.545600E+1
  vertex -2.125974E+1  0.212599E+2  0.545600E+1
  vertex -2.125974E+1  0.165355E+2  2.892853E-16
 endloop
endfacet
facet normal -0.100000E+1  -0.000000E+0  0.000000E+0
 outer loop
  vertex -2.125974E+1  0.165355E+2  2.892853E-16
  vertex -2.125974E+1  0.212599E+2  0.545600E+1
  vertex -2.125974E+1  0.212599E+2  0.000000E+0
 endloop
endfacet
facet normal  0.000000E+0 -0.100000E+1  0.000000E+0
 outer loop
  vertex -1.653535E+1  0.165355E+2  0.545600E+1
  vertex -2.125974E+1  0.165355E+2  0.545600E+1
  vertex -1.653535E+1  0.165355E+2  2.892853E-16
 endloop
endfacet
facet normal  0.000000E+0 -0.100000E+1  0.000000E+0
 outer loop
  vertex -1.653535E+1  0.165355E+2  2.892853E-16
  vertex -2.125974E+1  0.165355E+2  0.545600E+1
  vertex -2.125974E+1  0.165355E+2  2.892853E-16
 endloop
endfacet
facet normal -0.100000E+1  0.000000E+0  0.000000E+0
 outer loop
  vertex -1.653535E+1  0.118111E+2  0.545600E+1
  vertex -1.653535E+1  0.165355E+2  0.545600E+1
  vertex -1.653535E+1  0.118111E+2  5.785704E-16
 endloop
endfacet
facet normal -0.100000E+1  -0.000000E+0  0.000000E+0
 outer loop
  vertex -1.653535E+1  0.118111E+2  5.785704E-16
  vertex -1.653535E+1  0.165355E+2  0.545600E+1
  vertex -1.653535E+1  0.165355E+2  2.892853E-16
 endloop
endfacet
facet normal  0.000000E+0 -0.100000E+1  0.000000E+0
 outer loop
  vertex -1.181097E+1  0.118111E+2  0.545600E+1
  vertex -1.653535E+1  0.118111E+2  0.545600E+1
  vertex -1.181097E+1  0.118111E+2  5.785704E-16
 endloop
endfacet
facet normal  0.000000E+0 -0.100000E+1  0.000000E+0
 outer loop
  vertex -1.181097E+1  0.118111E+2  5.785704E-16
  vertex -1.653535E+1  0.118111E+2  0.545600E+1
  vertex -1.653535E+1  0.118111E+2  5.785704E-16
 endloop
endfacet
facet normal -0.100000E+1  0.000000E+0  0.000000E+0
 outer loop
  vertex -1.181097E+1  0.708644E+1  0.545600E+1
  vertex -1.181097E+1  0.118111E+2  0.545600E+1
  vertex -1.181097E+1  0.708644E+1  8.678722E-16
 endloop
endfacet
facet normal -0.100000E+1  -0.000000E+0  0.000000E+0
 outer loop
  vertex -1.181097E+1  0.708644E+1  8.678722E-16
  vertex -1.181097E+1  0.118111E+2  0.545600E+1
  vertex -1.181097E+1  0.118111E+2  5.785704E-16
 endloop
endfacet
facet normal  0.000000E+0  0.100000E+1  -0.000000E+0
 outer loop
  vertex -2.125974E+1  0.708644E+1  0.545600E+1
  vertex -1.181097E+1  0.708644E+1  0.545600E+1
  vertex -2.125974E+1  0.708644E+1  8.678722E-16
 endloop
endfacet
facet normal  0.000000E+0  0.100000E+1  0.000000E+0
 outer loop
  vertex -2.125974E+1  0.708644E+1  8.678722E-16
  vertex -1.181097E+1  0.708644E+1  0.545600E+1
  vertex -1.181097E+1  0.708644E+1  8.678722E-16
 endloop
endfacet
facet normal -0.100000E+1  0.000000E+0  0.000000E+0
 outer loop
  vertex -2.125974E+1  0.236206E+1  0.545600E+1
  vertex -2.125974E+1  0.708644E+1  0.545600E+1
  vertex -2.125974E+1  0.236206E+1  1.157158E-15
 endloop
endfacet
facet normal -0.100000E+1  -0.000000E+0  0.000000E+0
 outer loop
  vertex -2.125974E+1  0.236206E+1  1.157158E-15
  vertex -2.125974E+1  0.708644E+1  0.545600E+1
  vertex -2.125974E+1  0.708644E+1  8.678722E-16
 endloop
endfacet
facet normal  0.000000E+0  0.100000E+1  -0.000000E+0
 outer loop
  vertex -2.598412E+1  0.236206E+1  0.545600E+1
  vertex -2.125974E+1  0.236206E+1  0.545600E+1
  vertex -2.598412E+1  0.236206E+1  1.157158E-15
 endloop
endfacet
facet normal  0.000000E+0  0.100000E+1  0.000000E+0
 outer loop
  vertex -2.598412E+1  0.236206E+1  1.157158E-15
  vertex -2.125974E+1  0.236206E+1  0.545600E+1
  vertex -2.125974E+1  0.236206E+1  1.157158E-15
 endloop
endfacet
facet normal -0.100000E+1  0.000000E+0  0.000000E+0
 outer loop
  vertex -2.598412E+1 -0.236233E+1  0.545600E+1
  vertex -2.598412E+1  0.236206E+1  0.545600E+1
  vertex -2.598412E+1 -0.236233E+1  1.446443E-15
 endloop
endfacet
facet normal -0.100000E+1  -0.000000E+0  0.000000E+0
 outer loop
  vertex -2.598412E+1 -0.236233E+1  1.446443E-15
  vertex -2.598412E+1  0.236206E+1  0.545600E+1
  vertex -2.598412E+1  0.236206E+1  1.157158E-15
 endloop
endfacet
facet normal  0.000000E+0  0.100000E+1  -0.000000E+0
 outer loop
  vertex -3.070851E+1 -0.236233E+1  0.545600E+1
  vertex -2.598412E+1 -0.236233E+1  0.545600E+1
  vertex -3.070851E+1 -0.236233E+1  1.446443E-15
 endloop
endfacet
facet normal  0.000000E+0  0.100000E+1  0.000000E+0
 outer loop
  vertex -3.070851E+1 -0.236233E+1  1.446443E-15
  vertex -2.598412E+1 -0.236233E+1  0.545600E+1
  vertex -2.598412E+1 -0.236233E+1  1.446443E-15
 endloop
endfacet
facet normal -0.100000E+1  0.000000E+0  0.000000E+0
 outer loop
  vertex -3.070851E+1 -1.653549E+1  0.545600E+1
  vertex -3.070851E+1 -0.236233E+1  0.545600E+1
  vertex -3.070851E+1 -1.653549E+1  2.314298E-15
 endloop
endfacet
facet normal -0.100000E+1  -0.000000E+0  0.000000E+0
 outer loop
  vertex -3.070851E+1 -1.653549E+1  2.314298E-15
  vertex -3.070851E+1 -0.236233E+1  0.545600E+1
  vertex -3.070851E+1 -0.236233E+1  1.446443E-15
 endloop
endfacet
facet normal  0.000000E+0 -0.100000E+1  0.000000E+0
 outer loop
  vertex -2.598412E+1 -1.653549E+1  0.545600E+1
  vertex -3.070851E+1 -1.653549E+1  0.545600E+1
  vertex -2.598412E+1 -1.653549E+1  2.314298E-15
 endloop
endfacet
facet normal  0.000000E+0 -0.100000E+1  0.000000E+0
 outer loop
  vertex -2.598412E+1 -1.653549E+1  2.314298E-15
  vertex -3.070851E+1 -1.653549E+1  0.545600E+1
  vertex -3.070851E+1 -1.653549E+1  2.314298E-15
 endloop
endfacet
facet normal  0.100000E+1  0.000000E+0  0.000000E+0
 outer loop
  vertex -2.598412E+1 -0.708672E+1  0.545600E+1
  vertex -2.598412E+1 -1.653549E+1  0.545600E+1
  vertex -2.598412E+1 -0.708672E+1  1.735728E-15
 endloop
endfacet
facet normal  0.100000E+1  0.000000E+0  0.000000E+0
 outer loop
  vertex -2.598412E+1 -0.708672E+1  1.735728E-15
  vertex -2.598412E+1 -1.653549E+1  0.545600E+1
  vertex -2.598412E+1 -1.653549E+1  2.314298E-15
 endloop
endfacet
facet normal  0.000000E+0 -0.100000E+1  0.000000E+0
 outer loop
  vertex -2.125974E+1 -0.708672E+1  0.545600E+1
  vertex -2.598412E+1 -0.708672E+1  0.545600E+1
  vertex -2.125974E+1 -0.708672E+1  1.735728E-15
 endloop
endfacet
facet normal  0.000000E+0 -0.100000E+1  0.000000E+0
 outer loop
  vertex -2.125974E+1 -0.708672E+1  1.735728E-15
  vertex -2.598412E+1 -0.708672E+1  0.545600E+1
  vertex -2.598412E+1 -0.708672E+1  1.735728E-15
 endloop
endfacet
facet normal -0.100000E+1  0.000000E+0  0.000000E+0
 outer loop
  vertex -2.125974E+1 -1.653549E+1  0.545600E+1
  vertex -2.125974E+1 -0.708672E+1  0.545600E+1
  vertex -2.125974E+1 -1.653549E+1  2.314298E-15
 endloop
endfacet
facet normal -0.100000E+1  -0.000000E+0  0.000000E+0
 outer loop
  vertex -2.125974E+1 -1.653549E+1  2.314298E-15
  vertex -2.125974E+1 -0.708672E+1  0.545600E+1
  vertex -2.125974E+1 -0.708672E+1  1.735728E-15
 endloop
endfacet
facet normal  0.000000E+0 -0.100000E+1  0.000000E+0
 outer loop
  vertex -1.653535E+1 -1.653549E+1  0.545600E+1
  vertex -2.125974E+1 -1.653549E+1  0.545600E+1
  vertex -1.653535E+1 -1.653549E+1  2.314298E-15
 endloop
endfacet
facet normal  0.000000E+0 -0.100000E+1  0.000000E+0
 outer loop
  vertex -1.653535E+1 -1.653549E+1  2.314298E-15
  vertex -2.125974E+1 -1.653549E+1  0.545600E+1
  vertex -2.125974E+1 -1.653549E+1  2.314298E-15
 endloop
endfacet
facet normal -0.100000E+1  0.000000E+0  0.000000E+0
 outer loop
  vertex -1.653535E+1 -2.125987E+1  0.545600E+1
  vertex -1.653535E+1 -1.653549E+1  0.545600E+1
  vertex -1.653535E+1 -2.125987E+1  2.603584E-15
 endloop
endfacet
facet normal -0.100000E+1  -0.000000E+0  0.000000E+0
 outer loop
  vertex -1.653535E+1 -2.125987E+1  2.603584E-15
  vertex -1.653535E+1 -1.653549E+1  0.545600E+1
  vertex -1.653535E+1 -1.653549E+1  2.314298E-15
 endloop
endfacet
facet normal  0.000000E+0 -0.100000E+1  0.000000E+0
 outer loop
  vertex -0.236219E+1 -2.125987E+1  0.545600E+1
  vertex -1.653535E+1 -2.125987E+1  0.545600E+1
  vertex -0.236219E+1 -2.125987E+1  2.603584E-15
 endloop
endfacet
facet normal  0.000000E+0 -0.100000E+1  0.000000E+0
 outer loop
  vertex -0.236219E+1 -2.125987E+1  2.603584E-15
  vertex -1.653535E+1 -2.125987E+1  0.545600E+1
  vertex -1.653535E+1 -2.125987E+1  2.603584E-15
 endloop
endfacet
facet normal  0.100000E+1  0.000000E+0  0.000000E+0
 outer loop
  vertex -0.236219E+1 -1.653549E+1  0.545600E+1
  vertex -0.236219E+1 -2.125987E+1  0.545600E+1
  vertex -0.236219E+1 -1.653549E+1  2.314298E-15
 endloop
endfacet
facet normal  0.100000E+1  0.000000E+0  0.000000E+0
 outer loop
  vertex -0.236219E+1 -1.653549E+1  2.314298E-15
  vertex -0.236219E+1 -2.125987E+1  0.545600E+1
  vertex -0.236219E+1 -2.125987E+1  2.603584E-15
 endloop
endfacet
facet normal  0.000000E+0  0.100000E+1  -0.000000E+0
 outer loop
  vertex -1.181097E+1 -1.653549E+1  0.545600E+1
  vertex -0.236219E+1 -1.653549E+1  0.545600E+1
  vertex -1.181097E+1 -1.653549E+1  2.314298E-15
 endloop
endfacet
facet normal  0.000000E+0  0.100000E+1  0.000000E+0
 outer loop
  vertex -1.181097E+1 -1.653549E+1  2.314298E-15
  vertex -0.236219E+1 -1.653549E+1  0.545600E+1
  vertex -0.236219E+1 -1.653549E+1  2.314298E-15
 endloop
endfacet
facet normal  0.100000E+1  0.000000E+0  0.000000E+0
 outer loop
  vertex -1.181097E+1 -1.181110E+1  0.545600E+1
  vertex -1.181097E+1 -1.653549E+1  0.545600E+1
  vertex -1.181097E+1 -1.181110E+1  2.025013E-15
 endloop
endfacet
facet normal  0.100000E+1  0.000000E+0  0.000000E+0
 outer loop
  vertex -1.181097E+1 -1.181110E+1  2.025013E-15
  vertex -1.181097E+1 -1.653549E+1  0.545600E+1
  vertex -1.181097E+1 -1.653549E+1  2.314298E-15
 endloop
endfacet
facet normal  0.000000E+0 -0.100000E+1  0.000000E+0
 outer loop
  vertex  0.118110E+2 -1.181110E+1  0.545600E+1
  vertex -1.181097E+1 -1.181110E+1  0.545600E+1
  vertex  0.118110E+2 -1.181110E+1  2.025013E-15
 endloop
endfacet
facet normal  0.000000E+0 -0.100000E+1  0.000000E+0
 outer loop
  vertex  0.118110E+2 -1.181110E+1  2.025013E-15
  vertex -1.181097E+1 -1.181110E+1  0.545600E+1
  vertex -1.181097E+1 -1.181110E+1  2.025013E-15
 endloop
endfacet
facet normal -0.100000E+1  0.000000E+0  0.000000E+0
 outer loop
  vertex  0.118110E+2 -1.653549E+1  0.545600E+1
  vertex  0.118110E+2 -1.181110E+1  0.545600E+1
  vertex  0.118110E+2 -1.653549E+1  2.314298E-15
 endloop
endfacet
facet normal -0.100000E+1  -0.000000E+0  0.000000E+0
 outer loop
  vertex  0.118110E+2 -1.653549E+1  2.314298E-15
  vertex  0.118110E+2 -1.181110E+1  0.545600E+1
  vertex  0.118110E+2 -1.181110E+1  2.025013E-15
 endloop
endfacet
facet normal  0.000000E+0  0.100000E+1  -0.000000E+0
 outer loop
  vertex  0.236219E+1 -1.653549E+1  0.545600E+1
  vertex  0.118110E+2 -1.653549E+1  0.545600E+1
  vertex  0.236219E+1 -1.653549E+1  2.314298E-15
 endloop
endfacet
facet normal  0.000000E+0  0.100000E+1  0.000000E+0
 outer loop
  vertex  0.236219E+1 -1.653549E+1  2.314298E-15
  vertex  0.118110E+2 -1.653549E+1  0.545600E+1
  vertex  0.118110E+2 -1.653549E+1  2.314298E-15
 endloop
endfacet
facet normal -0.100000E+1  0.000000E+0  0.000000E+0
 outer loop
  vertex  0.236219E+1 -2.125987E+1  0.545600E+1
  vertex  0.236219E+1 -1.653549E+1  0.545600E+1
  vertex  0.236219E+1 -2.125987E+1  2.603584E-15
 endloop
endfacet
facet normal -0.100000E+1  -0.000000E+0  0.000000E+0
 outer loop
  vertex  0.236219E+1 -2.125987E+1  2.603584E-15
  vertex  0.236219E+1 -1.653549E+1  0.545600E+1
  vertex  0.236219E+1 -1.653549E+1  2.314298E-15
 endloop
endfacet
facet normal  0.000000E+0 -0.100000E+1  0.000000E+0
 outer loop
  vertex  0.165354E+2 -2.125987E+1  0.545600E+1
  vertex  0.236219E+1 -2.125987E+1  0.545600E+1
  vertex  0.165354E+2 -2.125987E+1  2.603584E-15
 endloop
endfacet
facet normal  0.000000E+0 -0.100000E+1  0.000000E+0
 outer loop
  vertex  0.165354E+2 -2.125987E+1  2.603584E-15
  vertex  0.236219E+1 -2.125987E+1  0.545600E+1
  vertex  0.236219E+1 -2.125987E+1  2.603584E-15
 endloop
endfacet
facet normal  0.100000E+1  0.000000E+0  0.000000E+0
 outer loop
  vertex  0.165354E+2 -1.653549E+1  0.545600E+1
  vertex  0.165354E+2 -2.125987E+1  0.545600E+1
  vertex  0.165354E+2 -1.653549E+1  2.314298E-15
 endloop
endfacet
facet normal  0.100000E+1  0.000000E+0  0.000000E+0
 outer loop
  vertex  0.165354E+2 -1.653549E+1  2.314298E-15
  vertex  0.165354E+2 -2.125987E+1  0.545600E+1
  vertex  0.165354E+2 -2.125987E+1  2.603584E-15
 endloop
endfacet
facet normal  0.000000E+0 -0.100000E+1  0.000000E+0
 outer loop
  vertex  0.212597E+2 -1.653549E+1  0.545600E+1
  vertex  0.165354E+2 -1.653549E+1  0.545600E+1
  vertex  0.212597E+2 -1.653549E+1  2.314298E-15
 endloop
endfacet
facet normal  0.000000E+0 -0.100000E+1  0.000000E+0
 outer loop
  vertex  0.212597E+2 -1.653549E+1  2.314298E-15
  vertex  0.165354E+2 -1.653549E+1  0.545600E+1
  vertex  0.165354E+2 -1.653549E+1  2.314298E-15
 endloop
endfacet
facet normal  0.100000E+1  0.000000E+0  0.000000E+0
 outer loop
  vertex  0.212597E+2 -0.708672E+1  0.545600E+1
  vertex  0.212597E+2 -1.653549E+1  0.545600E+1
  vertex  0.212597E+2 -0.708672E+1  1.735728E-15
 endloop
endfacet
facet normal  0.100000E+1  0.000000E+0  0.000000E+0
 outer loop
  vertex  0.212597E+2 -0.708672E+1  1.735728E-15
  vertex  0.212597E+2 -1.653549E+1  0.545600E+1
  vertex  0.212597E+2 -1.653549E+1  2.314298E-15
 endloop
endfacet
facet normal  0.000000E+0 -0.100000E+1  0.000000E+0
 outer loop
  vertex  0.259841E+2 -0.708672E+1  0.545600E+1
  vertex  0.212597E+2 -0.708672E+1  0.545600E+1
  vertex  0.259841E+2 -0.708672E+1  1.735728E-15
 endloop
endfacet
facet normal  0.000000E+0 -0.100000E+1  0.000000E+0
 outer loop
  vertex  0.259841E+2 -0.708672E+1  1.735728E-15
  vertex  0.212597E+2 -0.708672E+1  0.545600E+1
  vertex  0.212597E+2 -0.708672E+1  1.735728E-15
 endloop
endfacet
facet normal -0.100000E+1  0.000000E+0  0.000000E+0
 outer loop
  vertex  0.259841E+2 -1.653549E+1  0.545600E+1
  vertex  0.259841E+2 -0.708672E+1  0.545600E+1
  vertex  0.259841E+2 -1.653549E+1  2.314298E-15
 endloop
endfacet
facet normal -0.100000E+1  -0.000000E+0  0.000000E+0
 outer loop
  vertex  0.259841E+2 -1.653549E+1  2.314298E-15
  vertex  0.259841E+2 -0.708672E+1  0.545600E+1
  vertex  0.259841E+2 -0.708672E+1  1.735728E-15
 endloop
endfacet
facet normal  0.000000E+0 -0.100000E+1  0.000000E+0
 outer loop
  vertex  0.307085E+2 -1.653549E+1  0.545600E+1
  vertex  0.259841E+2 -1.653549E+1  0.545600E+1
  vertex  0.307085E+2 -1.653549E+1  2.314298E-15
 endloop
endfacet
facet normal  0.000000E+0 -0.100000E+1  0.000000E+0
 outer loop
  vertex  0.307085E+2 -1.653549E+1  2.314298E-15
  vertex  0.259841E+2 -1.653549E+1  0.545600E+1
  vertex  0.259841E+2 -1.653549E+1  2.314298E-15
 endloop
endfacet
facet normal  0.100000E+1  0.000000E+0  0.000000E+0
 outer loop
  vertex  0.307085E+2 -0.236233E+1  0.545600E+1
  vertex  0.307085E+2 -1.653549E+1  0.545600E+1
  vertex  0.307085E+2 -0.236233E+1  1.446443E-15
 endloop
endfacet
facet normal  0.100000E+1  0.000000E+0  0.000000E+0
 outer loop
  vertex  0.307085E+2 -0.236233E+1  1.446443E-15
  vertex  0.307085E+2 -1.653549E+1  0.545600E+1
  vertex  0.307085E+2 -1.653549E+1  2.314298E-15
 endloop
endfacet
facet normal  0.000000E+0 -0.100000E+1  0.000000E+0
 outer loop
  vertex -0.708658E+1  0.236206E+1  0.347200E+1
  vertex -0.708658E+1  0.236206E+1  0.545600E+1
  vertex -0.786633E+1  0.236206E+1  0.347200E+1
 endloop
endfacet
facet normal  0.000000E+0 -0.100000E+1  -0.000000E+0
 outer loop
  vertex -0.786633E+1  0.236206E+1  0.347200E+1
  vertex -0.708658E+1  0.236206E+1  0.545600E+1
  vertex -1.181097E+1  0.236206E+1  0.545600E+1
 endloop
endfacet
facet normal  0.000000E+0 -0.100000E+1  0.000000E+0
 outer loop
  vertex -0.786633E+1  0.236206E+1  0.347200E+1
  vertex -1.181097E+1  0.236206E+1  0.545600E+1
  vertex -0.786633E+1  0.236206E+1  1.157158E-15
 endloop
endfacet
facet normal  0.000000E+0 -0.100000E+1  0.000000E+0
 outer loop
  vertex -0.786633E+1  0.236206E+1  1.157158E-15
  vertex -1.181097E+1  0.236206E+1  0.545600E+1
  vertex -1.181097E+1  0.236206E+1  1.157158E-15
 endloop
endfacet
facet normal  0.100000E+1  0.000000E+0  0.000000E+0
 outer loop
  vertex -1.181097E+1  0.236206E+1  0.545600E+1
  vertex -1.181097E+1 -0.236233E+1  0.545600E+1
  vertex -1.181097E+1  0.236206E+1  1.157158E-15
 endloop
endfacet
facet normal  0.100000E+1  0.000000E+0  0.000000E+0
 outer loop
  vertex -1.181097E+1  0.236206E+1  1.157158E-15
  vertex -1.181097E+1 -0.236233E+1  0.545600E+1
  vertex -1.181097E+1 -0.236233E+1  1.446443E-15
 endloop
endfacet
facet normal  -0.000000E+0  0.100000E+1  0.000000E+0
 outer loop
  vertex -0.917600E+1 -0.236233E+1  1.446443E-15
  vertex -1.181097E+1 -0.236233E+1  1.446443E-15
  vertex -0.917600E+1 -0.236233E+1  0.347200E+1
 endloop
endfacet
facet normal  -0.000000E+0  0.100000E+1  0.000000E+0
 outer loop
  vertex -0.917600E+1 -0.236233E+1  0.347200E+1
  vertex -1.181097E+1 -0.236233E+1  1.446443E-15
  vertex -1.181097E+1 -0.236233E+1  0.545600E+1
 endloop
endfacet
facet normal  0.000000E+0  0.100000E+1  0.000000E+0
 outer loop
  vertex -0.917600E+1 -0.236233E+1  0.347200E+1
  vertex -1.181097E+1 -0.236233E+1  0.545600E+1
  vertex -0.708658E+1 -0.236233E+1  0.347200E+1
 endloop
endfacet
facet normal  0.000000E+0  0.100000E+1  0.000000E+0
 outer loop
  vertex -0.708658E+1 -0.236233E+1  0.347200E+1
  vertex -1.181097E+1 -0.236233E+1  0.545600E+1
  vertex -0.708658E+1 -0.236233E+1  0.545600E+1
 endloop
endfacet
facet normal -0.100000E+1  0.000000E+0  0.000000E+0
 outer loop
  vertex  0.118110E+2 -0.236233E+1  0.545600E+1
  vertex  0.118110E+2  0.236206E+1  0.545600E+1
  vertex  0.118110E+2 -0.236233E+1  1.446443E-15
 endloop
endfacet
facet normal -0.100000E+1  -0.000000E+0  0.000000E+0
 outer loop
  vertex  0.118110E+2 -0.236233E+1  1.446443E-15
  vertex  0.118110E+2  0.236206E+1  0.545600E+1
  vertex  0.118110E+2  0.236206E+1  1.157158E-15
 endloop
endfacet
facet normal  -0.000000E+0 -0.100000E+1  -0.000000E+0
 outer loop
  vertex  0.786633E+1  0.236206E+1  1.157158E-15
  vertex  0.118110E+2  0.236206E+1  1.157158E-15
  vertex  0.786633E+1  0.236206E+1  0.347200E+1
 endloop
endfacet
facet normal  -0.000000E+0 -0.100000E+1  0.000000E+0
 outer loop
  vertex  0.786633E+1  0.236206E+1  0.347200E+1
  vertex  0.118110E+2  0.236206E+1  1.157158E-15
  vertex  0.118110E+2  0.236206E+1  0.545600E+1
 endloop
endfacet
facet normal  0.000000E+0 -0.100000E+1  -0.000000E+0
 outer loop
  vertex  0.786633E+1  0.236206E+1  0.347200E+1
  vertex  0.118110E+2  0.236206E+1  0.545600E+1
  vertex  0.708658E+1  0.236206E+1  0.347200E+1
 endloop
endfacet
facet normal  0.000000E+0 -0.100000E+1  -0.000000E+0
 outer loop
  vertex  0.708658E+1  0.236206E+1  0.347200E+1
  vertex  0.118110E+2  0.236206E+1  0.545600E+1
  vertex  0.708658E+1  0.236206E+1  0.545600E+1
 endloop
endfacet
facet normal  0.000000E+0  0.100000E+1  0.000000E+0
 outer loop
  vertex  0.708658E+1 -0.236233E+1  0.347200E+1
  vertex  0.708658E+1 -0.236233E+1  0.545600E+1
  vertex  0.917600E+1 -0.236233E+1  0.347200E+1
 endloop
endfacet
facet normal  0.000000E+0  0.100000E+1  0.000000E+0
 outer loop
  vertex  0.917600E+1 -0.236233E+1  0.347200E+1
  vertex  0.708658E+1 -0.236233E+1  0.545600E+1
  vertex  0.118110E+2 -0.236233E+1  0.545600E+1
 endloop
endfacet
facet normal  0.000000E+0  0.100000E+1  -0.000000E+0
 outer loop
  vertex  0.917600E+1 -0.236233E+1  0.347200E+1
  vertex  0.118110E+2 -0.236233E+1  0.545600E+1
  vertex  0.917600E+1 -0.236233E+1  1.446443E-15
 endloop
endfacet
facet normal  0.000000E+0  0.100000E+1  0.000000E+0
 outer loop
  vertex  0.917600E+1 -0.236233E+1  1.446443E-15
  vertex  0.118110E+2 -0.236233E+1  0.545600E+1
  vertex  0.118110E+2 -0.236233E+1  1.446443E-15
 endloop
endfacet
facet normal  0.080998E+1 -0.058646E+1  0.000000E+0
 outer loop
  vertex -0.786633E+1  0.236206E+1  0.347200E+1
  vertex -0.786633E+1  0.236206E+1  1.157158E-15
  vertex -0.694372E+1  0.363632E+1  1.079131E-15
 endloop
endfacet
facet normal  0.080998E+1 -0.058646E+1  0.000000E+0
 outer loop
  vertex -0.786633E+1  0.236206E+1  0.347200E+1
  vertex -0.694372E+1  0.363632E+1  1.079131E-15
  vertex -0.694372E+1  0.363632E+1  0.347200E+1
 endloop
endfacet
facet normal  0.069790E+1 -0.071620E+1  0.000000E+0
 outer loop
  vertex -0.694372E+1  0.363632E+1  0.347200E+1
  vertex -0.694372E+1  0.363632E+1  1.079131E-15
  vertex -0.581700E+1  0.473426E+1  1.011902E-15
 endloop
endfacet
facet normal  0.069790E+1 -0.071620E+1  0.000000E+0
 outer loop
  vertex -0.694372E+1  0.363632E+1  0.347200E+1
  vertex -0.581700E+1  0.473426E+1  1.011902E-15
  vertex -0.581700E+1  0.473426E+1  0.347200E+1
 endloop
endfacet
facet normal  0.056530E+1 -0.082488E+1  0.000000E+0
 outer loop
  vertex -0.581700E+1  0.473426E+1  0.347200E+1
  vertex -0.581700E+1  0.473426E+1  1.011902E-15
  vertex -0.451929E+1  0.562360E+1  9.574459E-16
 endloop
endfacet
facet normal  0.056530E+1 -0.082488E+1  0.000000E+0
 outer loop
  vertex -0.581700E+1  0.473426E+1  0.347200E+1
  vertex -0.451929E+1  0.562360E+1  9.574459E-16
  vertex -0.451929E+1  0.562360E+1  0.347200E+1
 endloop
endfacet
facet normal  0.041609E+1 -0.090932E+1  0.000000E+0
 outer loop
  vertex -0.451929E+1  0.562360E+1  0.347200E+1
  vertex -0.451929E+1  0.562360E+1  9.574459E-16
  vertex -0.308875E+1  0.627819E+1  9.173633E-16
 endloop
endfacet
facet normal  0.041609E+1 -0.090932E+1  0.000000E+0
 outer loop
  vertex -0.451929E+1  0.562360E+1  0.347200E+1
  vertex -0.308875E+1  0.627819E+1  9.173633E-16
  vertex -0.308875E+1  0.627819E+1  0.347200E+1
 endloop
endfacet
facet normal  0.025465E+1 -0.096703E+1  0.000000E+0
 outer loop
  vertex -0.308875E+1  0.627819E+1  0.347200E+1
  vertex -0.308875E+1  0.627819E+1  9.173633E-16
  vertex -0.156741E+1  0.667881E+1  8.928326E-16
 endloop
endfacet
facet normal  0.025465E+1 -0.096703E+1  0.000000E+0
 outer loop
  vertex -0.308875E+1  0.627819E+1  0.347200E+1
  vertex -0.156741E+1  0.667881E+1  8.928326E-16
  vertex -0.156741E+1  0.667881E+1  0.347200E+1
 endloop
endfacet
facet normal  8.572338E-2 -0.099632E+1  0.000000E+0
 outer loop
  vertex -0.156741E+1  0.667881E+1  0.347200E+1
  vertex -0.156741E+1  0.667881E+1  8.928326E-16
  vertex  0.000000E+0  0.681367E+1  8.845748E-16
 endloop
endfacet
facet normal  8.572338E-2 -0.099632E+1  0.000000E+0
 outer loop
  vertex -0.156741E+1  0.667881E+1  0.347200E+1
  vertex  0.000000E+0  0.681367E+1  8.845748E-16
  vertex  0.000000E+0  0.681367E+1  0.347200E+1
 endloop
endfacet
facet normal -0.008572E+1 -0.099632E+1  0.000000E+0
 outer loop
  vertex  0.000000E+0  0.681367E+1  0.347200E+1
  vertex  0.000000E+0  0.681367E+1  8.845748E-16
  vertex  0.156741E+1  0.667881E+1  8.928326E-16
 endloop
endfacet
facet normal -0.008572E+1 -0.099632E+1  0.000000E+0
 outer loop
  vertex  0.000000E+0  0.681367E+1  0.347200E+1
  vertex  0.156741E+1  0.667881E+1  8.928326E-16
  vertex  0.156741E+1  0.667881E+1  0.347200E+1
 endloop
endfacet
facet normal -0.025465E+1 -0.096703E+1  0.000000E+0
 outer loop
  vertex  0.156741E+1  0.667881E+1  0.347200E+1
  vertex  0.156741E+1  0.667881E+1  8.928326E-16
  vertex  0.308875E+1  0.627819E+1  9.173633E-16
 endloop
endfacet
facet normal -0.025465E+1 -0.096703E+1  0.000000E+0
 outer loop
  vertex  0.156741E+1  0.667881E+1  0.347200E+1
  vertex  0.308875E+1  0.627819E+1  9.173633E-16
  vertex  0.308875E+1  0.627819E+1  0.347200E+1
 endloop
endfacet
facet normal -0.041609E+1 -0.090932E+1  0.000000E+0
 outer loop
  vertex  0.308875E+1  0.627819E+1  0.347200E+1
  vertex  0.308875E+1  0.627819E+1  9.173633E-16
  vertex  0.451929E+1  0.562360E+1  9.574459E-16
 endloop
endfacet
facet normal -0.041609E+1 -0.090932E+1  0.000000E+0
 outer loop
  vertex  0.308875E+1  0.627819E+1  0.347200E+1
  vertex  0.451929E+1  0.562360E+1  9.574459E-16
  vertex  0.451929E+1  0.562360E+1  0.347200E+1
 endloop
endfacet
facet normal -0.056530E+1 -0.082488E+1  0.000000E+0
 outer loop
  vertex  0.451929E+1  0.562360E+1  0.347200E+1
  vertex  0.451929E+1  0.562360E+1  9.574459E-16
  vertex  0.581700E+1  0.473426E+1  1.011902E-15
 endloop
endfacet
facet normal -0.056530E+1 -0.082488E+1  0.000000E+0
 outer loop
  vertex  0.451929E+1  0.562360E+1  0.347200E+1
  vertex  0.581700E+1  0.473426E+1  1.011902E-15
  vertex  0.581700E+1  0.473426E+1  0.347200E+1
 endloop
endfacet
facet normal -0.069790E+1 -0.071619E+1  0.000000E+0
 outer loop
  vertex  0.581700E+1  0.473426E+1  0.347200E+1
  vertex  0.581700E+1  0.473426E+1  1.011902E-15
  vertex  0.694372E+1  0.363632E+1  1.079131E-15
 endloop
endfacet
facet normal -0.069790E+1 -0.071619E+1  0.000000E+0
 outer loop
  vertex  0.581700E+1  0.473426E+1  0.347200E+1
  vertex  0.694372E+1  0.363632E+1  1.079131E-15
  vertex  0.694372E+1  0.363632E+1  0.347200E+1
 endloop
endfacet
facet normal -0.080998E+1 -0.058646E+1  0.000000E+0
 outer loop
  vertex  0.694372E+1  0.363632E+1  0.347200E+1
  vertex  0.694372E+1  0.363632E+1  1.079131E-15
  vertex  0.786633E+1  0.236206E+1  1.157158E-15
 endloop
endfacet
facet normal -0.080998E+1 -0.058646E+1  0.000000E+0
 outer loop
  vertex  0.694372E+1  0.363632E+1  0.347200E+1
  vertex  0.786633E+1  0.236206E+1  1.157158E-15
  vertex  0.786633E+1  0.236206E+1  0.347200E+1
 endloop
endfacet
facet normal -0.099658E+1  8.258009E-2  0.000000E+0
 outer loop
  vertex  0.917600E+1 -0.236233E+1  0.347200E+1
  vertex  0.917600E+1 -0.236233E+1  1.446443E-15
  vertex  0.905085E+1 -0.387265E+1  1.538923E-15
 endloop
endfacet
facet normal -0.099658E+1  8.258009E-2  0.000000E+0
 outer loop
  vertex  0.917600E+1 -0.236233E+1  0.347200E+1
  vertex  0.905085E+1 -0.387265E+1  1.538923E-15
  vertex  0.905085E+1 -0.387265E+1  0.347200E+1
 endloop
endfacet
facet normal -0.096940E+1  0.024548E+1  0.000000E+0
 outer loop
  vertex  0.905085E+1 -0.387265E+1  0.347200E+1
  vertex  0.905085E+1 -0.387265E+1  1.538923E-15
  vertex  0.867882E+1 -0.534177E+1  1.628881E-15
 endloop
endfacet
facet normal -0.096940E+1  0.024548E+1  0.000000E+0
 outer loop
  vertex  0.905085E+1 -0.387265E+1  0.347200E+1
  vertex  0.867882E+1 -0.534177E+1  1.628881E-15
  vertex  0.867882E+1 -0.534177E+1  0.347200E+1
 endloop
endfacet
facet normal -0.091577E+1  0.040170E+1  0.000000E+0
 outer loop
  vertex  0.867882E+1 -0.534177E+1  0.347200E+1
  vertex  0.867882E+1 -0.534177E+1  1.628881E-15
  vertex  0.807005E+1 -0.672962E+1  1.713862E-15
 endloop
endfacet
facet normal -0.091577E+1  0.040170E+1  0.000000E+0
 outer loop
  vertex  0.867882E+1 -0.534177E+1  0.347200E+1
  vertex  0.807005E+1 -0.672962E+1  1.713862E-15
  vertex  0.807005E+1 -0.672962E+1  0.347200E+1
 endloop
endfacet
facet normal -0.083717E+1  0.054695E+1  0.000000E+0
 outer loop
  vertex  0.807005E+1 -0.672962E+1  0.347200E+1
  vertex  0.807005E+1 -0.672962E+1  1.713862E-15
  vertex  0.724115E+1 -0.799834E+1  1.791549E-15
 endloop
endfacet
facet normal -0.083717E+1  0.054695E+1  0.000000E+0
 outer loop
  vertex  0.807005E+1 -0.672962E+1  0.347200E+1
  vertex  0.724115E+1 -0.799834E+1  1.791549E-15
  vertex  0.724115E+1 -0.799834E+1  0.347200E+1
 endloop
endfacet
facet normal -0.073573E+1  0.067728E+1  0.000000E+0
 outer loop
  vertex  0.724115E+1 -0.799834E+1  0.347200E+1
  vertex  0.724115E+1 -0.799834E+1  1.791549E-15
  vertex  0.621474E+1 -0.911333E+1  1.859822E-15
 endloop
endfacet
facet normal -0.073573E+1  0.067728E+1  0.000000E+0
 outer loop
  vertex  0.724115E+1 -0.799834E+1  0.347200E+1
  vertex  0.621474E+1 -0.911333E+1  1.859822E-15
  vertex  0.621474E+1 -0.911333E+1  0.347200E+1
 endloop
endfacet
facet normal -0.061421E+1  0.078914E+1  0.000000E+0
 outer loop
  vertex  0.621474E+1 -0.911333E+1  0.347200E+1
  vertex  0.621474E+1 -0.911333E+1  1.859822E-15
  vertex  0.501880E+1 -1.004417E+1  1.916820E-15
 endloop
endfacet
facet normal -0.061421E+1  0.078914E+1  0.000000E+0
 outer loop
  vertex  0.621474E+1 -0.911333E+1  0.347200E+1
  vertex  0.501880E+1 -1.004417E+1  1.916820E-15
  vertex  0.501880E+1 -1.004417E+1  0.347200E+1
 endloop
endfacet
facet normal -0.047595E+1  0.087947E+1  0.000000E+0
 outer loop
  vertex  0.501880E+1 -1.004417E+1  0.347200E+1
  vertex  0.501880E+1 -1.004417E+1  1.916820E-15
  vertex  0.368596E+1 -1.076547E+1  1.960986E-15
 endloop
endfacet
facet normal -0.047595E+1  0.087947E+1  0.000000E+0
 outer loop
  vertex  0.501880E+1 -1.004417E+1  0.347200E+1
  vertex  0.368596E+1 -1.076547E+1  1.960986E-15
  vertex  0.368596E+1 -1.076547E+1  0.347200E+1
 endloop
endfacet
facet normal -0.032469E+1  0.094582E+1  0.000000E+0
 outer loop
  vertex  0.368596E+1 -1.076547E+1  0.347200E+1
  vertex  0.368596E+1 -1.076547E+1  1.960986E-15
  vertex  0.225257E+1 -1.125754E+1  1.991118E-15
 endloop
endfacet
facet normal -0.032469E+1  0.094582E+1  0.000000E+0
 outer loop
  vertex  0.368596E+1 -1.076547E+1  0.347200E+1
  vertex  0.225257E+1 -1.125754E+1  1.991118E-15
  vertex  0.225257E+1 -1.125754E+1  0.347200E+1
 endloop
endfacet
facet normal -0.016460E+1  0.098636E+1  0.000000E+0
 outer loop
  vertex  0.225257E+1 -1.125754E+1  0.347200E+1
  vertex  0.225257E+1 -1.125754E+1  1.991118E-15
  vertex  0.075775E+1 -1.150699E+1  2.006392E-15
 endloop
endfacet
facet normal -0.016460E+1  0.098636E+1  0.000000E+0
 outer loop
  vertex  0.225257E+1 -1.125754E+1  0.347200E+1
  vertex  0.075775E+1 -1.150699E+1  2.006392E-15
  vertex  0.075775E+1 -1.150699E+1  0.347200E+1
 endloop
endfacet
facet normal  0.000000E+0  0.100000E+1  0.000000E+0
 outer loop
  vertex  0.075775E+1 -1.150699E+1  0.347200E+1
  vertex  0.075775E+1 -1.150699E+1  2.006392E-15
  vertex -0.075775E+1 -1.150699E+1  2.006392E-15
 endloop
endfacet
facet normal  0.000000E+0  0.100000E+1  0.000000E+0
 outer loop
  vertex  0.075775E+1 -1.150699E+1  0.347200E+1
  vertex -0.075775E+1 -1.150699E+1  2.006392E-15
  vertex -0.075775E+1 -1.150699E+1  0.347200E+1
 endloop
endfacet
facet normal  0.016460E+1  0.098636E+1  -0.000000E+0
 outer loop
  vertex -0.075775E+1 -1.150699E+1  0.347200E+1
  vertex -0.075775E+1 -1.150699E+1  2.006392E-15
  vertex -0.225257E+1 -1.125754E+1  1.991118E-15
 endloop
endfacet
facet normal  0.016460E+1  0.098636E+1  0.000000E+0
 outer loop
  vertex -0.075775E+1 -1.150699E+1  0.347200E+1
  vertex -0.225257E+1 -1.125754E+1  1.991118E-15
  vertex -0.225257E+1 -1.125754E+1  0.347200E+1
 endloop
endfacet
facet normal  0.032469E+1  0.094582E+1  -0.000000E+0
 outer loop
  vertex -0.225257E+1 -1.125754E+1  0.347200E+1
  vertex -0.225257E+1 -1.125754E+1  1.991118E-15
  vertex -0.368596E+1 -1.076547E+1  1.960986E-15
 endloop
endfacet
facet normal  0.032469E+1  0.094582E+1  0.000000E+0
 outer loop
  vertex -0.225257E+1 -1.125754E+1  0.347200E+1
  vertex -0.368596E+1 -1.076547E+1  1.960986E-15
  vertex -0.368596E+1 -1.076547E+1  0.347200E+1
 endloop
endfacet
facet normal  0.047595E+1  0.087947E+1  -0.000000E+0
 outer loop
  vertex -0.368596E+1 -1.076547E+1  0.347200E+1
  vertex -0.368596E+1 -1.076547E+1  1.960986E-15
  vertex -0.501880E+1 -1.004417E+1  1.916820E-15
 endloop
endfacet
facet normal  0.047595E+1  0.087947E+1  0.000000E+0
 outer loop
  vertex -0.368596E+1 -1.076547E+1  0.347200E+1
  vertex -0.501880E+1 -1.004417E+1  1.916820E-15
  vertex -0.501880E+1 -1.004417E+1  0.347200E+1
 endloop
endfacet
facet normal  0.061421E+1  0.078914E+1  -0.000000E+0
 outer loop
  vertex -0.501880E+1 -1.004417E+1  0.347200E+1
  vertex -0.501880E+1 -1.004417E+1  1.916820E-15
  vertex -0.621474E+1 -0.911333E+1  1.859822E-15
 endloop
endfacet
facet normal  0.061421E+1  0.078914E+1  0.000000E+0
 outer loop
  vertex -0.501880E+1 -1.004417E+1  0.347200E+1
  vertex -0.621474E+1 -0.911333E+1  1.859822E-15
  vertex -0.621474E+1 -0.911333E+1  0.347200E+1
 endloop
endfacet
facet normal  0.073572E+1  0.067728E+1  -0.000000E+0
 outer loop
  vertex -0.621474E+1 -0.911333E+1  0.347200E+1
  vertex -0.621474E+1 -0.911333E+1  1.859822E-15
  vertex -0.724115E+1 -0.799834E+1  1.791549E-15
 endloop
endfacet
facet normal  0.073572E+1  0.067728E+1  0.000000E+0
 outer loop
  vertex -0.621474E+1 -0.911333E+1  0.347200E+1
  vertex -0.724115E+1 -0.799834E+1  1.791549E-15
  vertex -0.724115E+1 -0.799834E+1  0.347200E+1
 endloop
endfacet
facet normal  0.083717E+1  0.054695E+1  -0.000000E+0
 outer loop
  vertex -0.724115E+1 -0.799834E+1  0.347200E+1
  vertex -0.724115E+1 -0.799834E+1  1.791549E-15
  vertex -0.807005E+1 -0.672962E+1  1.713862E-15
 endloop
endfacet
facet normal  0.083717E+1  0.054695E+1  0.000000E+0
 outer loop
  vertex -0.724115E+1 -0.799834E+1  0.347200E+1
  vertex -0.807005E+1 -0.672962E+1  1.713862E-15
  vertex -0.807005E+1 -0.672962E+1  0.347200E+1
 endloop
endfacet
facet normal  0.091577E+1  0.040169E+1  -0.000000E+0
 outer loop
  vertex -0.807005E+1 -0.672962E+1  0.347200E+1
  vertex -0.807005E+1 -0.672962E+1  1.713862E-15
  vertex -0.867882E+1 -0.534177E+1  1.628881E-15
 endloop
endfacet
facet normal  0.091577E+1  0.040169E+1  0.000000E+0
 outer loop
  vertex -0.807005E+1 -0.672962E+1  0.347200E+1
  vertex -0.867882E+1 -0.534177E+1  1.628881E-15
  vertex -0.867882E+1 -0.534177E+1  0.347200E+1
 endloop
endfacet
facet normal  0.096940E+1  0.024549E+1  -0.000000E+0
 outer loop
  vertex -0.867882E+1 -0.534177E+1  0.347200E+1
  vertex -0.867882E+1 -0.534177E+1  1.628881E-15
  vertex -0.905085E+1 -0.387265E+1  1.538923E-15
 endloop
endfacet
facet normal  0.096940E+1  0.024549E+1  0.000000E+0
 outer loop
  vertex -0.867882E+1 -0.534177E+1  0.347200E+1
  vertex -0.905085E+1 -0.387265E+1  1.538923E-15
  vertex -0.905085E+1 -0.387265E+1  0.347200E+1
 endloop
endfacet
facet normal  0.099658E+1  8.258009E-2  -0.000000E+0
 outer loop
  vertex -0.905085E+1 -0.387265E+1  0.347200E+1
  vertex -0.905085E+1 -0.387265E+1  1.538923E-15
  vertex -0.917600E+1 -0.236233E+1  1.446443E-15
 endloop
endfacet
facet normal  0.099658E+1  8.258009E-2  0.000000E+0
 outer loop
  vertex -0.905085E+1 -0.387265E+1  0.347200E+1
  vertex -0.917600E+1 -0.236233E+1  1.446443E-15
  vertex -0.917600E+1 -0.236233E+1  0.347200E+1
 endloop
endfacet
facet normal  0.000000E+0  0.000000E+0 -0.100000E+1
 outer loop
  vertex  0.694372E+1  0.363632E+1  0.347200E+1
  vertex  0.786633E+1  0.236206E+1  0.347200E+1
  vertex  0.708658E+1  0.236206E+1  0.347200E+1
 endloop
endfacet
facet normal  0.000000E+0  -0.000000E+0 -0.100000E+1
 outer loop
  vertex -0.905085E+1 -0.387265E+1  0.347200E+1
  vertex -0.917600E+1 -0.236233E+1  0.347200E+1
  vertex -0.708658E+1 -0.236233E+1  0.347200E+1
 endloop
endfacet
facet normal  0.000000E+0  0.000000E+0 -0.100000E+1
 outer loop
  vertex  0.581700E+1  0.473426E+1  0.347200E+1
  vertex  0.694372E+1  0.363632E+1  0.347200E+1
  vertex  0.451929E+1  0.562360E+1  0.347200E+1
 endloop
endfacet
facet normal  0.000000E+0  0.000000E+0 -0.100000E+1
 outer loop
  vertex  0.451929E+1  0.562360E+1  0.347200E+1
  vertex  0.694372E+1  0.363632E+1  0.347200E+1
  vertex  0.708658E+1  0.236206E+1  0.347200E+1
 endloop
endfacet
facet normal  0.000000E+0  0.000000E+0 -0.100000E+1
 outer loop
  vertex  0.451929E+1  0.562360E+1  0.347200E+1
  vertex  0.708658E+1  0.236206E+1  0.347200E+1
  vertex  0.308875E+1  0.627819E+1  0.347200E+1
 endloop
endfacet
facet normal  0.000000E+0  0.000000E+0 -0.100000E+1
 outer loop
  vertex  0.308875E+1  0.627819E+1  0.347200E+1
  vertex  0.708658E+1  0.236206E+1  0.347200E+1
  vertex  0.708658E+1 -0.236233E+1  0.347200E+1
 endloop
endfacet
facet normal  0.000000E+0  0.000000E+0 -0.100000E+1
 outer loop
  vertex  0.917600E+1 -0.236233E+1  0.347200E+1
  vertex  0.905085E+1 -0.387265E+1  0.347200E+1
  vertex  0.708658E+1 -0.236233E+1  0.347200E+1
 endloop
endfacet
facet normal  0.000000E+0  0.000000E+0 -0.100000E+1
 outer loop
  vertex  0.708658E+1 -0.236233E+1  0.347200E+1
  vertex  0.905085E+1 -0.387265E+1  0.347200E+1
  vertex  0.867882E+1 -0.534177E+1  0.347200E+1
 endloop
endfacet
facet normal  0.000000E+0  0.000000E+0 -0.100000E+1
 outer loop
  vertex -0.225257E+1 -1.125754E+1  0.347200E+1
  vertex -0.368596E+1 -1.076547E+1  0.347200E+1
  vertex -0.708658E+1 -0.236233E+1  0.347200E+1
 endloop
endfacet
facet normal  0.000000E+0  0.000000E+0 -0.100000E+1
 outer loop
  vertex -0.708658E+1 -0.236233E+1  0.347200E+1
  vertex -0.368596E+1 -1.076547E+1  0.347200E+1
  vertex -0.501880E+1 -1.004417E+1  0.347200E+1
 endloop
endfacet
facet normal  0.000000E+0  0.000000E+0 -0.100000E+1
 outer loop
  vertex -0.708658E+1 -0.236233E+1  0.347200E+1
  vertex -0.501880E+1 -1.004417E+1  0.347200E+1
  vertex -0.621474E+1 -0.911333E+1  0.347200E+1
 endloop
endfacet
facet normal  -0.000000E+0  0.000000E+0 -0.100000E+1
 outer loop
  vertex -0.786633E+1  0.236206E+1  0.347200E+1
  vertex -0.694372E+1  0.363632E+1  0.347200E+1
  vertex -0.708658E+1  0.236206E+1  0.347200E+1
 endloop
endfacet
facet normal  0.000000E+0  0.000000E+0 -0.100000E+1
 outer loop
  vertex -0.708658E+1  0.236206E+1  0.347200E+1
  vertex -0.694372E+1  0.363632E+1  0.347200E+1
  vertex -0.581700E+1  0.473426E+1  0.347200E+1
 endloop
endfacet
facet normal  -0.000000E+0  -0.000000E+0 -0.100000E+1
 outer loop
  vertex -0.867882E+1 -0.534177E+1  0.347200E+1
  vertex -0.905085E+1 -0.387265E+1  0.347200E+1
  vertex -0.807005E+1 -0.672962E+1  0.347200E+1
 endloop
endfacet
facet normal  0.000000E+0  -0.000000E+0 -0.100000E+1
 outer loop
  vertex -0.807005E+1 -0.672962E+1  0.347200E+1
  vertex -0.905085E+1 -0.387265E+1  0.347200E+1
  vertex -0.708658E+1 -0.236233E+1  0.347200E+1
 endloop
endfacet
facet normal  -0.000000E+0  0.000000E+0 -0.100000E+1
 outer loop
  vertex -0.807005E+1 -0.672962E+1  0.347200E+1
  vertex -0.708658E+1 -0.236233E+1  0.347200E+1
  vertex -0.724115E+1 -0.799834E+1  0.347200E+1
 endloop
endfacet
facet normal  -0.000000E+0  0.000000E+0 -0.100000E+1
 outer loop
  vertex -0.724115E+1 -0.799834E+1  0.347200E+1
  vertex -0.708658E+1 -0.236233E+1  0.347200E+1
  vertex -0.621474E+1 -0.911333E+1  0.347200E+1
 endloop
endfacet
facet normal  0.000000E+0  0.000000E+0 -0.100000E+1
 outer loop
  vertex  0.156741E+1  0.667881E+1  0.347200E+1
  vertex  0.308875E+1  0.627819E+1  0.347200E+1
  vertex -0.225257E+1 -1.125754E+1  0.347200E+1
 endloop
endfacet
facet normal  0.000000E+0  0.000000E+0 -0.100000E+1
 outer loop
  vertex -0.225257E+1 -1.125754E+1  0.347200E+1
  vertex  0.308875E+1  0.627819E+1  0.347200E+1
  vertex  0.708658E+1 -0.236233E+1  0.347200E+1
 endloop
endfacet
facet normal  -0.000000E+0  0.000000E+0 -0.100000E+1
 outer loop
  vertex -0.225257E+1 -1.125754E+1  0.347200E+1
  vertex  0.708658E+1 -0.236233E+1  0.347200E+1
  vertex -0.075775E+1 -1.150699E+1  0.347200E+1
 endloop
endfacet
facet normal  0.000000E+0  0.000000E+0 -0.100000E+1
 outer loop
  vertex -0.075775E+1 -1.150699E+1  0.347200E+1
  vertex  0.708658E+1 -0.236233E+1  0.347200E+1
  vertex  0.867882E+1 -0.534177E+1  0.347200E+1
 endloop
endfacet
facet normal  -0.000000E+0  0.000000E+0 -0.100000E+1
 outer loop
  vertex -0.075775E+1 -1.150699E+1  0.347200E+1
  vertex  0.867882E+1 -0.534177E+1  0.347200E+1
  vertex  0.075775E+1 -1.150699E+1  0.347200E+1
 endloop
endfacet
facet normal  0.000000E+0  0.000000E+0 -0.100000E+1
 outer loop
  vertex  0.075775E+1 -1.150699E+1  0.347200E+1
  vertex  0.867882E+1 -0.534177E+1  0.347200E+1
  vertex  0.807005E+1 -0.672962E+1  0.347200E+1
 endloop
endfacet
facet normal  0.000000E+0  0.000000E+0 -0.100000E+1
 outer loop
  vertex  0.075775E+1 -1.150699E+1  0.347200E+1
  vertex  0.807005E+1 -0.672962E+1  0.347200E+1
  vertex  0.225257E+1 -1.125754E+1  0.347200E+1
 endloop
endfacet
facet normal  0.000000E+0  0.000000E+0 -0.100000E+1
 outer loop
  vertex  0.225257E+1 -1.125754E+1  0.347200E+1
  vertex  0.807005E+1 -0.672962E+1  0.347200E+1
  vertex  0.724115E+1 -0.799834E+1  0.347200E+1
 endloop
endfacet
facet normal  0.000000E+0  0.000000E+0 -0.100000E+1
 outer loop
  vertex  0.225257E+1 -1.125754E+1  0.347200E+1
  vertex  0.724115E+1 -0.799834E+1  0.347200E+1
  vertex  0.368596E+1 -1.076547E+1  0.347200E+1
 endloop
endfacet
facet normal  0.000000E+0  0.000000E+0 -0.100000E+1
 outer loop
  vertex  0.368596E+1 -1.076547E+1  0.347200E+1
  vertex  0.724115E+1 -0.799834E+1  0.347200E+1
  vertex  0.621474E+1 -0.911333E+1  0.347200E+1
 endloop
endfacet
facet normal  0.000000E+0  0.000000E+0 -0.100000E+1
 outer loop
  vertex  0.368596E+1 -1.076547E+1  0.347200E+1
  vertex  0.621474E+1 -0.911333E+1  0.347200E+1
  vertex  0.501880E+1 -1.004417E+1  0.347200E+1
 endloop
endfacet
facet normal  0.000000E+0  0.000000E+0 -0.100000E+1
 outer loop
  vertex  0.156741E+1  0.667881E+1  0.347200E+1
  vertex -0.225257E+1 -1.125754E+1  0.347200E+1
  vertex  0.000000E+0  0.681367E+1  0.347200E+1
 endloop
endfacet
facet normal  0.000000E+0  0.000000E+0 -0.100000E+1
 outer loop
  vertex  0.000000E+0  0.681367E+1  0.347200E+1
  vertex -0.225257E+1 -1.125754E+1  0.347200E+1
  vertex -0.708658E+1 -0.236233E+1  0.347200E+1
 endloop
endfacet
facet normal  0.000000E+0  0.000000E+0 -0.100000E+1
 outer loop
  vertex  0.000000E+0  0.681367E+1  0.347200E+1
  vertex -0.708658E+1 -0.236233E+1  0.347200E+1
  vertex -0.156741E+1  0.667881E+1  0.347200E+1
 endloop
endfacet
facet normal  0.000000E+0  0.000000E+0 -0.100000E+1
 outer loop
  vertex -0.156741E+1  0.667881E+1  0.347200E+1
  vertex -0.708658E+1 -0.236233E+1  0.347200E+1
  vertex -0.708658E+1  0.236206E+1  0.347200E+1
 endloop
endfacet
facet normal  0.000000E+0  0.000000E+0 -0.100000E+1
 outer loop
  vertex -0.156741E+1  0.667881E+1  0.347200E+1
  vertex -0.708658E+1  0.236206E+1  0.347200E+1
  vertex -0.308875E+1  0.627819E+1  0.347200E+1
 endloop
endfacet
facet normal  0.000000E+0  0.000000E+0 -0.100000E+1
 outer loop
  vertex -0.308875E+1  0.627819E+1  0.347200E+1
  vertex -0.708658E+1  0.236206E+1  0.347200E+1
  vertex -0.581700E+1  0.473426E+1  0.347200E+1
 endloop
endfacet
facet normal  0.000000E+0  0.000000E+0 -0.100000E+1
 outer loop
  vertex -0.308875E+1  0.627819E+1  0.347200E+1
  vertex -0.581700E+1  0.473426E+1  0.347200E+1
  vertex -0.451929E+1  0.562360E+1  0.347200E+1
 endloop
endfacet
endsolid Default