solid Default
facet normal -0.003058E+1  0.033193E+1  0.094281E+1
 outer loop
  vertex  0.140118E+2 -1.804818E+1  0.670071E+1
  vertex  0.136028E+2 -1.360949E+1  0.512475E+1
  vertex -1.444651E+1 -2.067034E+1  0.670071E+1
 endloop
endfacet
facet normal -0.003058E+1  0.033193E+1  0.094281E+1
 outer loop
  vertex -1.444651E+1 -2.067034E+1  0.670071E+1
  vertex  0.136028E+2 -1.360949E+1  0.512475E+1
  vertex -1.485549E+1 -1.623164E+1  0.512475E+1
 endloop
endfacet
facet normal -0.084708E+1 -0.024542E+1 -0.047140E+1
 outer loop
  vertex -0.097432E+1 -1.114406E+1  0.300352E+2
  vertex -0.138330E+1 -0.670536E+1  0.284593E+2
  vertex  0.140118E+2 -1.804818E+1  0.670071E+1
 endloop
endfacet
facet normal -0.084708E+1 -0.024542E+1 -0.047140E+1
 outer loop
  vertex  0.140118E+2 -1.804818E+1  0.670071E+1
  vertex -0.138330E+1 -0.670536E+1  0.284593E+2
  vertex  0.136028E+2 -1.360949E+1  0.512475E+1
 endloop
endfacet
facet normal -0.081650E+1 -0.057735E+1 -0.000000E+1
 outer loop
  vertex  0.136028E+2 -1.360948E+1  0.000000E+0
  vertex  0.136028E+2 -1.360949E+1  0.512475E+1
  vertex -0.289720E+1  0.972504E+1  3.276219E-6
 endloop
endfacet
facet normal -0.081650E+1 -0.057735E+1 -0.000000E+1
 outer loop
  vertex -0.289720E+1  0.972504E+1  3.276219E-6
  vertex  0.136028E+2 -1.360949E+1  0.512475E+1
  vertex -0.289720E+1  0.972504E+1  0.512475E+1
 endloop
endfacet
facet normal -0.009175E+1  0.099578E+1  0.000000E+0
 outer loop
  vertex -1.485549E+1 -1.623164E+1  1.877201E-6
  vertex -1.485549E+1 -1.623164E+1  0.512475E+1
  vertex  0.136028E+2 -1.360948E+1  0.000000E+0
 endloop
endfacet
facet normal -0.009175E+1  0.099578E+1  2.038377E-6
 outer loop
  vertex  0.136028E+2 -1.360948E+1  0.000000E+0
  vertex -1.485549E+1 -1.623164E+1  0.512475E+1
  vertex  0.136028E+2 -1.360949E+1  0.512475E+1
 endloop
endfacet
facet normal -0.036392E+1  0.080333E+1 -0.047140E+1
 outer loop
  vertex  0.175478E+2 -1.081993E+1  0.683300E+1
  vertex  0.136028E+2 -1.360949E+1  0.512475E+1
  vertex  0.256173E+1 -0.391581E+1  0.301675E+2
 endloop
endfacet
facet normal -0.036392E+1  0.080333E+1 -0.047140E+1
 outer loop
  vertex  0.256173E+1 -0.391581E+1  0.301675E+2
  vertex  0.136028E+2 -1.360949E+1  0.512475E+1
  vertex -0.138330E+1 -0.670536E+1  0.284593E+2
 endloop
endfacet
facet normal -0.027217E+1 -0.019245E+1  0.094281E+1
 outer loop
  vertex  0.104783E+1  0.125146E+2  0.683300E+1
  vertex -0.289720E+1  0.972504E+1  0.512475E+1
  vertex  0.175478E+2 -1.081993E+1  0.683300E+1
 endloop
endfacet
facet normal -0.027217E+1 -0.019245E+1  0.094281E+1
 outer loop
  vertex  0.175478E+2 -1.081993E+1  0.683300E+1
  vertex -0.289720E+1  0.972504E+1  0.512475E+1
  vertex  0.136028E+2 -1.360949E+1  0.512475E+1
 endloop
endfacet
facet normal  0.087766E+1 -0.008651E+1 -0.047140E+1
 outer loop
  vertex -1.444651E+1 -2.067034E+1  0.670071E+1
  vertex -1.485549E+1 -1.623164E+1  0.512475E+1
  vertex -0.097432E+1 -1.114406E+1  0.300352E+2
 endloop
endfacet
facet normal  0.087766E+1 -0.008650E+1 -0.047140E+1
 outer loop
  vertex -0.097432E+1 -1.114406E+1  0.300352E+2
  vertex -1.485549E+1 -1.623164E+1  0.512475E+1
  vertex -0.138330E+1 -0.670536E+1  0.284593E+2
 endloop
endfacet
facet normal  0.090825E+1 -0.041843E+1 -0.000000E+1
 outer loop
  vertex -0.289720E+1  0.972504E+1  3.276219E-6
  vertex -0.289720E+1  0.972504E+1  0.512475E+1
  vertex -1.485549E+1 -1.623164E+1  1.877201E-6
 endloop
endfacet
facet normal  0.090825E+1 -0.041843E+1  0.000000E+0
 outer loop
  vertex -1.485549E+1 -1.623164E+1  1.877201E-6
  vertex -0.289720E+1  0.972504E+1  0.512475E+1
  vertex -1.485549E+1 -1.623164E+1  0.512475E+1
 endloop
endfacet
facet normal  0.063608E+1 -0.061088E+1 -0.047140E+1
 outer loop
  vertex  0.256173E+1 -0.391581E+1  0.301675E+2
  vertex -0.138330E+1 -0.670536E+1  0.284593E+2
  vertex  0.104783E+1  0.125146E+2  0.683300E+1
 endloop
endfacet
facet normal  0.063608E+1 -0.061088E+1 -0.047140E+1
 outer loop
  vertex  0.104783E+1  0.125146E+2  0.683300E+1
  vertex -0.138330E+1 -0.670536E+1  0.284593E+2
  vertex -0.289720E+1  0.972504E+1  0.512475E+1
 endloop
endfacet
facet normal  0.021100E+1  0.085630E+1 -0.047140E+1
 outer loop
  vertex -0.577164E+1 -0.468365E+1  0.301675E+2
  vertex -0.138330E+1 -0.670536E+1  0.284593E+2
  vertex -1.924384E+1 -1.420992E+1  0.683300E+1
 endloop
endfacet
facet normal  0.021100E+1  0.085630E+1 -0.047140E+1
 outer loop
  vertex -1.924384E+1 -1.420992E+1  0.683300E+1
  vertex -0.138330E+1 -0.670536E+1  0.284593E+2
  vertex -1.485549E+1 -1.623164E+1  0.512475E+1
 endloop
endfacet
facet normal  0.030275E+1 -0.013948E+1  0.094281E+1
 outer loop
  vertex -1.924384E+1 -1.420992E+1  0.683300E+1
  vertex -1.485549E+1 -1.623164E+1  0.512475E+1
  vertex -0.728555E+1  0.117468E+2  0.683300E+1
 endloop
endfacet
facet normal  0.030275E+1 -0.013948E+1  0.094281E+1
 outer loop
  vertex -0.728555E+1  0.117468E+2  0.683300E+1
  vertex -1.485549E+1 -1.623164E+1  0.512475E+1
  vertex -0.289720E+1  0.972504E+1  0.512475E+1
 endloop
endfacet
facet normal -0.051375E+1 -0.071683E+1 -0.047140E+1
 outer loop
  vertex -0.728555E+1  0.117468E+2  0.683300E+1
  vertex -0.289720E+1  0.972504E+1  0.512475E+1
  vertex -0.577164E+1 -0.468365E+1  0.301675E+2
 endloop
endfacet
facet normal -0.051375E+1 -0.071683E+1 -0.047140E+1
 outer loop
  vertex -0.577164E+1 -0.468365E+1  0.301675E+2
  vertex -0.289720E+1  0.972504E+1  0.512475E+1
  vertex -0.138330E+1 -0.670536E+1  0.284593E+2
 endloop
endfacet
facet normal -0.085630E+1  0.039450E+1  0.033333E+1
 outer loop
  vertex -2.648721E+1 -2.415887E+1  1.877201E-6
  vertex -1.924384E+1 -1.420992E+1  0.683300E+1
  vertex -0.422714E+1  0.241589E+2  4.439040E-6
 endloop
endfacet
facet normal -0.085630E+1  0.039450E+1  0.033333E+1
 outer loop
  vertex -1.924384E+1 -1.420992E+1  0.683300E+1
  vertex -0.728555E+1  0.117468E+2  0.683300E+1
  vertex -0.422714E+1  0.241589E+2  4.439040E-6
 endloop
endfacet
facet normal -0.085630E+1  0.039450E+1  0.033333E+1
 outer loop
  vertex -0.422714E+1  0.241589E+2  4.439040E-6
  vertex -0.728555E+1  0.117468E+2  0.683300E+1
  vertex -0.140905E+1 -0.642593E+1  0.434367E+2
 endloop
endfacet
facet normal -0.085630E+1  0.039450E+1  0.033333E+1
 outer loop
  vertex -0.728555E+1  0.117468E+2  0.683300E+1
  vertex -0.577164E+1 -0.468365E+1  0.301675E+2
  vertex -0.140905E+1 -0.642593E+1  0.434367E+2
 endloop
endfacet
facet normal -0.085630E+1  0.039450E+1  0.033333E+1
 outer loop
  vertex -0.140905E+1 -0.642593E+1  0.434367E+2
  vertex -0.577164E+1 -0.468365E+1  0.301675E+2
  vertex -2.648721E+1 -2.415887E+1  1.877201E-6
 endloop
endfacet
facet normal -0.085630E+1  0.039450E+1  0.033333E+1
 outer loop
  vertex -0.577164E+1 -0.468365E+1  0.301675E+2
  vertex -1.924384E+1 -1.420992E+1  0.683300E+1
  vertex -2.648721E+1 -2.415887E+1  1.877201E-6
 endloop
endfacet
facet normal  0.000000E+0  0.000000E+0 -0.100000E+1
 outer loop
  vertex -2.648721E+1 -2.415887E+1  1.877201E-6
  vertex -1.485549E+1 -1.623164E+1  1.877201E-6
  vertex  0.264872E+2 -1.927779E+1  1.877201E-6
 endloop
endfacet
facet normal -0.000000E+1 -0.000000E+1 -0.100000E+1
 outer loop
  vertex -1.485549E+1 -1.623164E+1  1.877201E-6
  vertex  0.136028E+2 -1.360948E+1  0.000000E+0
  vertex  0.264872E+2 -1.927779E+1  1.877201E-6
 endloop
endfacet
facet normal  2.491476E-7  2.351526E-7 -0.100000E+1
 outer loop
  vertex  0.264872E+2 -1.927779E+1  1.877201E-6
  vertex  0.136028E+2 -1.360948E+1  0.000000E+0
  vertex -0.422714E+1  0.241589E+2  4.439040E-6
 endloop
endfacet
facet normal -0.000000E+1  7.159643E-8 -0.100000E+1
 outer loop
  vertex  0.136028E+2 -1.360948E+1  0.000000E+0
  vertex -0.289720E+1  0.972504E+1  3.276219E-6
  vertex -0.422714E+1  0.241589E+2  4.439040E-6
 endloop
endfacet
facet normal -0.000000E+1  7.597196E-8 -0.100000E+1
 outer loop
  vertex -0.422714E+1  0.241589E+2  4.439040E-6
  vertex -0.289720E+1  0.972504E+1  3.276219E-6
  vertex -2.648721E+1 -2.415887E+1  1.877201E-6
 endloop
endfacet
facet normal -0.000000E+1  7.856612E-8 -0.100000E+1
 outer loop
  vertex -0.289720E+1  0.972504E+1  3.276219E-6
  vertex -1.485549E+1 -1.623164E+1  1.877201E-6
  vertex -2.648721E+1 -2.415887E+1  1.877201E-6
 endloop
endfacet
facet normal  0.076980E+1  0.054433E+1  0.033333E+1
 outer loop
  vertex -0.140905E+1 -0.642593E+1  0.434367E+2
  vertex  0.256173E+1 -0.391581E+1  0.301675E+2
  vertex -0.422714E+1  0.241589E+2  4.439040E-6
 endloop
endfacet
facet normal  0.076980E+1  0.054433E+1  0.033333E+1
 outer loop
  vertex  0.256173E+1 -0.391581E+1  0.301675E+2
  vertex  0.104783E+1  0.125146E+2  0.683300E+1
  vertex -0.422714E+1  0.241589E+2  4.439040E-6
 endloop
endfacet
facet normal  0.076980E+1  0.054433E+1  0.033333E+1
 outer loop
  vertex -0.422714E+1  0.241589E+2  4.439040E-6
  vertex  0.104783E+1  0.125146E+2  0.683300E+1
  vertex  0.264872E+2 -1.927779E+1  1.877201E-6
 endloop
endfacet
facet normal  0.076980E+1  0.054433E+1  0.033333E+1
 outer loop
  vertex  0.104783E+1  0.125146E+2  0.683300E+1
  vertex  0.175478E+2 -1.081993E+1  0.683300E+1
  vertex  0.264872E+2 -1.927779E+1  1.877201E-6
 endloop
endfacet
facet normal  0.076980E+1  0.054433E+1  0.033333E+1
 outer loop
  vertex  0.264872E+2 -1.927779E+1  1.877201E-6
  vertex  0.175478E+2 -1.081993E+1  0.683300E+1
  vertex -0.140905E+1 -0.642593E+1  0.434367E+2
 endloop
endfacet
facet normal  0.076980E+1  0.054433E+1  0.033333E+1
 outer loop
  vertex  0.175478E+2 -1.081993E+1  0.683300E+1
  vertex  0.256173E+1 -0.391581E+1  0.301675E+2
  vertex -0.140905E+1 -0.642593E+1  0.434367E+2
 endloop
endfacet
facet normal  8.650466E-2 -0.093883E+1  0.033333E+1
 outer loop
  vertex -2.648721E+1 -2.415887E+1  1.877201E-6
  vertex -1.444651E+1 -2.067034E+1  0.670071E+1
  vertex -0.140905E+1 -0.642593E+1  0.434367E+2
 endloop
endfacet
facet normal  8.650461E-2 -0.093883E+1  0.033333E+1
 outer loop
  vertex -1.444651E+1 -2.067034E+1  0.670071E+1
  vertex -0.097432E+1 -1.114406E+1  0.300352E+2
  vertex -0.140905E+1 -0.642593E+1  0.434367E+2
 endloop
endfacet
facet normal  8.650398E-2 -0.093883E+1  0.033333E+1
 outer loop
  vertex -0.140905E+1 -0.642593E+1  0.434367E+2
  vertex -0.097432E+1 -1.114406E+1  0.300352E+2
  vertex  0.264872E+2 -1.927779E+1  1.877201E-6
 endloop
endfacet
facet normal  8.650346E-2 -0.093883E+1  0.033333E+1
 outer loop
  vertex -0.097432E+1 -1.114406E+1  0.300352E+2
  vertex  0.140118E+2 -1.804818E+1  0.670071E+1
  vertex  0.264872E+2 -1.927779E+1  1.877201E-6
 endloop
endfacet
facet normal  8.650429E-2 -0.093883E+1  0.033333E+1
 outer loop
  vertex  0.264872E+2 -1.927779E+1  1.877201E-6
  vertex  0.140118E+2 -1.804818E+1  0.670071E+1
  vertex -2.648721E+1 -2.415887E+1  1.877201E-6
 endloop
endfacet
facet normal  8.650443E-2 -0.093883E+1  0.033333E+1
 outer loop
  vertex  0.140118E+2 -1.804818E+1  0.670071E+1
  vertex -1.444651E+1 -2.067034E+1  0.670071E+1
  vertex -2.648721E+1 -2.415887E+1  1.877201E-6
 endloop
endfacet
endsolid Default