solid DefaultTransformed
facet normal -0.062161E+1  0.000000E+0  0.078333E+1
 outer loop
  vertex -0.168538E+1 -1.984259E+1  0.770934E+1
  vertex -0.013126E+1 -1.984259E+1  0.894261E+1
  vertex -0.168538E+1 -1.511820E+1  0.770934E+1
 endloop
endfacet
facet normal -0.062161E+1  0.000000E+0  0.078333E+1
 outer loop
  vertex -0.168538E+1 -1.511820E+1  0.770934E+1
  vertex -0.013126E+1 -1.984259E+1  0.894261E+1
  vertex -0.013126E+1 -1.511820E+1  0.894261E+1
 endloop
endfacet
facet normal  0.062161E+1  0.000000E+0 -0.078333E+1
 outer loop
  vertex  0.712480E+1 -1.511820E+1 -0.339288E+1
  vertex  0.867892E+1 -1.511820E+1 -0.215960E+1
  vertex  0.712480E+1 -1.984259E+1 -0.339288E+1
 endloop
endfacet
facet normal  0.062161E+1  0.000000E+0 -0.078333E+1
 outer loop
  vertex  0.712480E+1 -1.984259E+1 -0.339288E+1
  vertex  0.867892E+1 -1.511820E+1 -0.215960E+1
  vertex  0.867892E+1 -1.984259E+1 -0.215960E+1
 endloop
endfacet
facet normal  0.078333E+1  -0.000000E+0  0.062161E+1
 outer loop
  vertex  0.574220E+1 -3.401575E+1  0.154113E+1
  vertex  0.574220E+1 -3.874013E+1  0.154113E+1
  vertex  0.116156E+2 -3.401575E+1 -0.586035E+1
 endloop
endfacet
facet normal  0.078333E+1  1.196376E-5  0.062161E+1
 outer loop
  vertex  0.116156E+2 -3.401575E+1 -0.586035E+1
  vertex  0.574220E+1 -3.874013E+1  0.154113E+1
  vertex  0.145524E+2 -3.874013E+1 -0.956108E+1
 endloop
endfacet
facet normal  0.078332E+1  0.000000E+0  0.062162E+1
 outer loop
  vertex  0.116156E+2 -3.401575E+1 -0.586035E+1
  vertex  0.145524E+2 -3.874013E+1 -0.956108E+1
  vertex  0.116156E+2 -2.929136E+1 -0.586035E+1
 endloop
endfacet
facet normal  0.078332E+1  0.000000E+0  0.062162E+1
 outer loop
  vertex  0.116156E+2 -2.929136E+1 -0.586035E+1
  vertex  0.145524E+2 -3.874013E+1 -0.956108E+1
  vertex  0.145524E+2 -3.401575E+1 -0.956108E+1
 endloop
endfacet
facet normal  0.078333E+1  0.000000E+0  0.062161E+1
 outer loop
  vertex -0.013126E+1 -1.984259E+1  0.894261E+1
  vertex  0.867892E+1 -1.984259E+1 -0.215960E+1
  vertex -0.013126E+1 -1.511820E+1  0.894261E+1
 endloop
endfacet
facet normal  0.078333E+1  0.000000E+0  0.062161E+1
 outer loop
  vertex -0.013126E+1 -1.511820E+1  0.894261E+1
  vertex  0.867892E+1 -1.984259E+1 -0.215960E+1
  vertex  0.867892E+1 -1.511820E+1 -0.215960E+1
 endloop
endfacet
facet normal  0.078333E+1  0.000000E+0  0.062160E+1
 outer loop
  vertex  0.867892E+1 -1.039382E+1 -0.215960E+1
  vertex  0.116156E+2 -1.039382E+1 -0.586035E+1
  vertex  0.867892E+1 -0.094477E+1 -0.215960E+1
 endloop
endfacet
facet normal  0.078333E+1  0.000000E+0  0.062160E+1
 outer loop
  vertex  0.867892E+1 -0.094477E+1 -0.215960E+1
  vertex  0.116156E+2 -1.039382E+1 -0.586035E+1
  vertex  0.116156E+2 -0.566916E+1 -0.586035E+1
 endloop
endfacet
facet normal  0.078333E+1 -0.000001E+1  0.062161E+1
 outer loop
  vertex  0.867892E+1 -0.094477E+1 -0.215960E+1
  vertex  0.116156E+2 -0.566916E+1 -0.586035E+1
  vertex  0.130840E+2 -0.094477E+1 -0.771071E+1
 endloop
endfacet
facet normal  0.078332E+1 -0.000000E+1  0.062162E+1
 outer loop
  vertex  0.130840E+2 -0.094477E+1 -0.771071E+1
  vertex  0.116156E+2 -0.566916E+1 -0.586035E+1
  vertex  0.145524E+2 -0.566916E+1 -0.956108E+1
 endloop
endfacet
facet normal  0.078332E+1  0.000000E+0  0.062162E+1
 outer loop
  vertex  0.130840E+2 -0.094477E+1 -0.771071E+1
  vertex  0.145524E+2 -0.566916E+1 -0.956108E+1
  vertex  0.130840E+2  0.377961E+1 -0.771071E+1
 endloop
endfacet
facet normal  0.078332E+1  0.000000E+0  0.062162E+1
 outer loop
  vertex  0.130840E+2  0.377961E+1 -0.771071E+1
  vertex  0.145524E+2 -0.566916E+1 -0.956108E+1
  vertex  0.145524E+2 -0.094477E+1 -0.956108E+1
 endloop
endfacet
facet normal  0.078333E+1  5.554599E-6  0.062161E+1
 outer loop
  vertex  0.130840E+2  0.377961E+1 -0.771071E+1
  vertex  0.145524E+2 -0.094477E+1 -0.956108E+1
  vertex  0.174891E+2  0.377961E+1 -1.326182E+1
 endloop
endfacet
facet normal  0.078333E+1  -0.000000E+0  0.062161E+1
 outer loop
  vertex  0.174891E+2  0.377961E+1 -1.326182E+1
  vertex  0.145524E+2 -0.094477E+1 -0.956108E+1
  vertex  0.174891E+2 -0.094477E+1 -1.326182E+1
 endloop
endfacet
facet normal  0.078333E+1  -0.000000E+0  0.062161E+1
 outer loop
  vertex  0.204258E+2 -1.511820E+1 -1.696256E+1
  vertex  0.174891E+2 -1.511820E+1 -1.326182E+1
  vertex  0.204258E+2 -1.984259E+1 -1.696256E+1
 endloop
endfacet
facet normal  0.078333E+1  0.000000E+0  0.062161E+1
 outer loop
  vertex  0.204258E+2 -1.984259E+1 -1.696256E+1
  vertex  0.174891E+2 -1.511820E+1 -1.326182E+1
  vertex  0.174891E+2 -2.456697E+1 -1.326182E+1
 endloop
endfacet
facet normal  0.078333E+1 -0.000000E+1  0.062161E+1
 outer loop
  vertex  0.204258E+2 -1.984259E+1 -1.696256E+1
  vertex  0.174891E+2 -2.456697E+1 -1.326182E+1
  vertex  0.233625E+2 -1.984259E+1 -2.066330E+1
 endloop
endfacet
facet normal  0.078333E+1  0.000000E+0  0.062161E+1
 outer loop
  vertex  0.233625E+2 -1.984259E+1 -2.066330E+1
  vertex  0.174891E+2 -2.456697E+1 -1.326182E+1
  vertex  0.204258E+2 -2.456697E+1 -1.696256E+1
 endloop
endfacet
facet normal  0.078333E+1  -0.000000E+0  0.062161E+1
 outer loop
  vertex  0.233625E+2 -1.984259E+1 -2.066330E+1
  vertex  0.204258E+2 -2.456697E+1 -1.696256E+1
  vertex  0.233625E+2 -3.401575E+1 -2.066330E+1
 endloop
endfacet
facet normal  0.078333E+1  0.000000E+0  0.062161E+1
 outer loop
  vertex  0.233625E+2 -3.401575E+1 -2.066330E+1
  vertex  0.204258E+2 -2.456697E+1 -1.696256E+1
  vertex  0.204258E+2 -3.401575E+1 -1.696256E+1
 endloop
endfacet
facet normal  0.078333E+1  1.790294E-5  0.062161E+1
 outer loop
  vertex  0.145524E+2 -3.401575E+1 -0.956108E+1
  vertex  0.174891E+2 -3.401575E+1 -1.326182E+1
  vertex  0.116156E+2 -2.929136E+1 -0.586035E+1
 endloop
endfacet
facet normal  0.078332E+1  0.000000E+0  0.062161E+1
 outer loop
  vertex  0.116156E+2 -2.929136E+1 -0.586035E+1
  vertex  0.174891E+2 -3.401575E+1 -1.326182E+1
  vertex  0.174891E+2 -2.456697E+1 -1.326182E+1
 endloop
endfacet
facet normal  0.078332E+1  0.000000E+0  0.062161E+1
 outer loop
  vertex  0.116156E+2 -2.929136E+1 -0.586035E+1
  vertex  0.174891E+2 -2.456697E+1 -1.326182E+1
  vertex  0.116156E+2 -1.984259E+1 -0.586035E+1
 endloop
endfacet
facet normal  0.078332E+1  0.000000E+0  0.062161E+1
 outer loop
  vertex  0.116156E+2 -1.984259E+1 -0.586035E+1
  vertex  0.174891E+2 -2.456697E+1 -1.326182E+1
  vertex  0.174891E+2 -1.511820E+1 -1.326182E+1
 endloop
endfacet
facet normal  0.078332E+1  0.000000E+0  0.062161E+1
 outer loop
  vertex  0.116156E+2 -1.984259E+1 -0.586035E+1
  vertex  0.174891E+2 -1.511820E+1 -1.326182E+1
  vertex  0.116156E+2 -1.511820E+1 -0.586035E+1
 endloop
endfacet
facet normal  0.078332E+1  0.000000E+0  0.062161E+1
 outer loop
  vertex  0.116156E+2 -1.511820E+1 -0.586035E+1
  vertex  0.174891E+2 -1.511820E+1 -1.326182E+1
  vertex  0.174891E+2 -1.039382E+1 -1.326182E+1
 endloop
endfacet
facet normal  0.078332E+1  0.000000E+0  0.062161E+1
 outer loop
  vertex  0.174891E+2 -1.039382E+1 -1.326182E+1
  vertex  0.116156E+2 -1.039382E+1 -0.586035E+1
  vertex  0.116156E+2 -1.511820E+1 -0.586035E+1
 endloop
endfacet
facet normal  0.078333E+1  0.000000E+0  0.062160E+1
 outer loop
  vertex  0.116156E+2 -1.511820E+1 -0.586035E+1
  vertex  0.116156E+2 -1.039382E+1 -0.586035E+1
  vertex  0.867892E+1 -1.039382E+1 -0.215960E+1
 endloop
endfacet
facet normal  0.078333E+1  0.000000E+0  0.062160E+1
 outer loop
  vertex  0.116156E+2 -1.511820E+1 -0.586035E+1
  vertex  0.867892E+1 -1.039382E+1 -0.215960E+1
  vertex  0.867892E+1 -1.511820E+1 -0.215960E+1
 endloop
endfacet
facet normal  0.078333E+1  0.000000E+0  0.062161E+1
 outer loop
  vertex  0.867892E+1 -1.511820E+1 -0.215960E+1
  vertex  0.867892E+1 -1.039382E+1 -0.215960E+1
  vertex -0.013126E+1 -1.039382E+1  0.894261E+1
 endloop
endfacet
facet normal  0.078333E+1  0.000000E+0  0.062161E+1
 outer loop
  vertex  0.867892E+1 -1.511820E+1 -0.215960E+1
  vertex -0.013126E+1 -1.039382E+1  0.894261E+1
  vertex -0.013126E+1 -1.511820E+1  0.894261E+1
 endloop
endfacet
facet normal  0.078332E+1  -0.000000E+0  0.062161E+1
 outer loop
  vertex -0.600471E+1 -0.094477E+1  0.163441E+2
  vertex -0.600471E+1 -0.566916E+1  0.163441E+2
  vertex -0.306799E+1 -0.566916E+1  0.126434E+2
 endloop
endfacet
facet normal  0.078333E+1  -0.000000E+0  0.062161E+1
 outer loop
  vertex -0.894143E+1  0.377961E+1  0.200448E+2
  vertex -0.894143E+1 -0.094477E+1  0.200448E+2
  vertex -0.453635E+1  0.377961E+1  0.144937E+2
 endloop
endfacet
facet normal  0.078332E+1  6.708304E-6  0.062161E+1
 outer loop
  vertex -0.453635E+1  0.377961E+1  0.144937E+2
  vertex -0.894143E+1 -0.094477E+1  0.200448E+2
  vertex -0.600471E+1 -0.094477E+1  0.163441E+2
 endloop
endfacet
facet normal  0.078333E+1  -0.000000E+0  0.062160E+1
 outer loop
  vertex -0.453635E+1  0.377961E+1  0.144937E+2
  vertex -0.600471E+1 -0.094477E+1  0.163441E+2
  vertex -0.453635E+1 -0.094477E+1  0.144937E+2
 endloop
endfacet
facet normal  0.078333E+1  1.318135E-5  0.062160E+1
 outer loop
  vertex -0.453635E+1 -0.094477E+1  0.144937E+2
  vertex -0.600471E+1 -0.094477E+1  0.163441E+2
  vertex -0.306799E+1 -0.566916E+1  0.126434E+2
 endloop
endfacet
facet normal  0.078333E+1  7.776445E-6  0.062161E+1
 outer loop
  vertex -0.453635E+1 -0.094477E+1  0.144937E+2
  vertex -0.306799E+1 -0.566916E+1  0.126434E+2
  vertex -0.013126E+1 -0.094477E+1  0.894261E+1
 endloop
endfacet
facet normal  0.078333E+1  0.000000E+0  0.062161E+1
 outer loop
  vertex -0.013126E+1 -0.094477E+1  0.894261E+1
  vertex -0.306799E+1 -0.566916E+1  0.126434E+2
  vertex -0.306799E+1 -1.039382E+1  0.126434E+2
 endloop
endfacet
facet normal  0.078333E+1  -0.000000E+0  0.062161E+1
 outer loop
  vertex -0.013126E+1 -0.094477E+1  0.894261E+1
  vertex -0.306799E+1 -1.039382E+1  0.126434E+2
  vertex -0.013126E+1 -1.039382E+1  0.894261E+1
 endloop
endfacet
facet normal  0.078333E+1  0.000000E+0  0.062161E+1
 outer loop
  vertex -0.013126E+1 -1.039382E+1  0.894261E+1
  vertex -0.306799E+1 -1.039382E+1  0.126434E+2
  vertex -0.306799E+1 -1.511820E+1  0.126434E+2
 endloop
endfacet
facet normal  0.078333E+1  -0.000000E+0  0.062161E+1
 outer loop
  vertex -0.013126E+1 -1.039382E+1  0.894261E+1
  vertex -0.306799E+1 -1.511820E+1  0.126434E+2
  vertex -0.013126E+1 -1.511820E+1  0.894261E+1
 endloop
endfacet
facet normal  0.078332E+1  -0.000000E+0  0.062161E+1
 outer loop
  vertex -0.600471E+1 -3.401575E+1  0.163441E+2
  vertex -0.600471E+1 -3.874013E+1  0.163441E+2
  vertex -0.306799E+1 -3.401575E+1  0.126434E+2
 endloop
endfacet
facet normal  0.078333E+1 -0.000000E+1  0.062161E+1
 outer loop
  vertex -0.306799E+1 -3.401575E+1  0.126434E+2
  vertex -0.600471E+1 -3.874013E+1  0.163441E+2
  vertex  0.280547E+1 -3.874013E+1  0.524187E+1
 endloop
endfacet
facet normal  0.078333E+1  0.000000E+0  0.062161E+1
 outer loop
  vertex -0.306799E+1 -3.401575E+1  0.126434E+2
  vertex  0.280547E+1 -3.874013E+1  0.524187E+1
  vertex  0.280547E+1 -3.401575E+1  0.524187E+1
 endloop
endfacet
facet normal  0.078332E+1  0.000000E+0  0.062161E+1
 outer loop
  vertex -1.481488E+1 -3.401575E+1  0.274463E+2
  vertex -1.187816E+1 -3.401575E+1  0.237456E+2
  vertex -1.481488E+1 -1.984259E+1  0.274463E+2
 endloop
endfacet
facet normal  0.078332E+1  0.000000E+0  0.062161E+1
 outer loop
  vertex -1.481488E+1 -1.984259E+1  0.274463E+2
  vertex -1.187816E+1 -3.401575E+1  0.237456E+2
  vertex -1.187816E+1 -2.456697E+1  0.237456E+2
 endloop
endfacet
facet normal  0.078332E+1  0.000000E+0  0.062161E+1
 outer loop
  vertex -1.481488E+1 -1.984259E+1  0.274463E+2
  vertex -1.187816E+1 -2.456697E+1  0.237456E+2
  vertex -1.187816E+1 -1.984259E+1  0.237456E+2
 endloop
endfacet
facet normal  0.078333E+1  -0.000000E+0  0.062160E+1
 outer loop
  vertex -1.187816E+1 -1.984259E+1  0.237456E+2
  vertex -1.187816E+1 -2.456697E+1  0.237456E+2
  vertex -0.894143E+1 -2.456697E+1  0.200448E+2
 endloop
endfacet
facet normal  0.078333E+1  0.000000E+0  0.062160E+1
 outer loop
  vertex -1.187816E+1 -1.984259E+1  0.237456E+2
  vertex -0.894143E+1 -2.456697E+1  0.200448E+2
  vertex -1.187816E+1 -1.511820E+1  0.237456E+2
 endloop
endfacet
facet normal  0.078333E+1  0.000000E+0  0.062160E+1
 outer loop
  vertex -1.187816E+1 -1.511820E+1  0.237456E+2
  vertex -0.894143E+1 -2.456697E+1  0.200448E+2
  vertex -0.894143E+1 -1.511820E+1  0.200448E+2
 endloop
endfacet
facet normal  0.078332E+1  0.000000E+0  0.062161E+1
 outer loop
  vertex -0.894143E+1 -3.401575E+1  0.200448E+2
  vertex -0.600471E+1 -3.401575E+1  0.163441E+2
  vertex -0.894143E+1 -2.456697E+1  0.200448E+2
 endloop
endfacet
facet normal  0.078332E+1  1.281838E-7  0.062161E+1
 outer loop
  vertex -0.894143E+1 -2.456697E+1  0.200448E+2
  vertex -0.600471E+1 -3.401575E+1  0.163441E+2
  vertex -0.306799E+1 -3.401575E+1  0.126434E+2
 endloop
endfacet
facet normal  0.078332E+1  0.000000E+0  0.062161E+1
 outer loop
  vertex -0.894143E+1 -2.456697E+1  0.200448E+2
  vertex -0.306799E+1 -3.401575E+1  0.126434E+2
  vertex -0.894143E+1 -1.511820E+1  0.200448E+2
 endloop
endfacet
facet normal  0.078332E+1  0.000000E+0  0.062161E+1
 outer loop
  vertex -0.894143E+1 -1.511820E+1  0.200448E+2
  vertex -0.306799E+1 -3.401575E+1  0.126434E+2
  vertex -0.306799E+1 -2.929136E+1  0.126434E+2
 endloop
endfacet
facet normal  0.078332E+1  -0.000000E+0  0.062161E+1
 outer loop
  vertex -0.306799E+1 -1.039382E+1  0.126434E+2
  vertex -0.894143E+1 -1.039382E+1  0.200448E+2
  vertex -0.306799E+1 -1.511820E+1  0.126434E+2
 endloop
endfacet
facet normal  0.078332E+1  0.000000E+0  0.062161E+1
 outer loop
  vertex -0.306799E+1 -1.511820E+1  0.126434E+2
  vertex -0.894143E+1 -1.039382E+1  0.200448E+2
  vertex -0.894143E+1 -1.511820E+1  0.200448E+2
 endloop
endfacet
facet normal  0.078332E+1  -0.000000E+0  0.062161E+1
 outer loop
  vertex -0.306799E+1 -1.511820E+1  0.126434E+2
  vertex -0.894143E+1 -1.511820E+1  0.200448E+2
  vertex -0.306799E+1 -1.984259E+1  0.126434E+2
 endloop
endfacet
facet normal  0.078332E+1  -0.000000E+0  0.062161E+1
 outer loop
  vertex -0.306799E+1 -1.984259E+1  0.126434E+2
  vertex -0.894143E+1 -1.511820E+1  0.200448E+2
  vertex -0.306799E+1 -2.929136E+1  0.126434E+2
 endloop
endfacet
facet normal  0.078333E+1  -0.000000E+0  0.062161E+1
 outer loop
  vertex -0.306799E+1 -1.984259E+1  0.126434E+2
  vertex -0.306799E+1 -2.929136E+1  0.126434E+2
  vertex -0.013126E+1 -1.984259E+1  0.894261E+1
 endloop
endfacet
facet normal  0.078333E+1  1.640742E-6  0.062161E+1
 outer loop
  vertex -0.013126E+1 -1.984259E+1  0.894261E+1
  vertex -0.306799E+1 -2.929136E+1  0.126434E+2
  vertex  0.116156E+2 -2.929136E+1 -0.586035E+1
 endloop
endfacet
facet normal  0.078333E+1 -0.000000E+1  0.062161E+1
 outer loop
  vertex -0.013126E+1 -1.984259E+1  0.894261E+1
  vertex  0.116156E+2 -2.929136E+1 -0.586035E+1
  vertex  0.867892E+1 -1.984259E+1 -0.215960E+1
 endloop
endfacet
facet normal  0.078333E+1  0.000000E+0  0.062160E+1
 outer loop
  vertex  0.867892E+1 -1.984259E+1 -0.215960E+1
  vertex  0.116156E+2 -2.929136E+1 -0.586035E+1
  vertex  0.116156E+2 -1.984259E+1 -0.586035E+1
 endloop
endfacet
facet normal -0.078332E+1  7.173402E-7 -0.062161E+1
 outer loop
  vertex  0.488979E+1 -1.511820E+1 -0.616191E+1
  vertex  0.431628E+1 -1.384394E+1 -0.543920E+1
  vertex  0.440509E+1 -1.039382E+1 -0.555111E+1
 endloop
endfacet
facet normal -0.078333E+1  8.308766E-7 -0.062161E+1
 outer loop
  vertex  0.431628E+1 -1.384394E+1 -0.543920E+1
  vertex  0.361590E+1 -1.274600E+1 -0.455661E+1
  vertex  0.440509E+1 -1.039382E+1 -0.555111E+1
 endloop
endfacet
facet normal -0.078333E+1  2.907873E-6 -0.062161E+1
 outer loop
  vertex  0.440509E+1 -1.039382E+1 -0.555111E+1
  vertex  0.361590E+1 -1.274600E+1 -0.455661E+1
  vertex  0.280924E+1 -1.185666E+1 -0.354008E+1
 endloop
endfacet
facet normal -0.078333E+1 -0.000000E+1 -0.062161E+1
 outer loop
  vertex  0.440509E+1 -1.039382E+1 -0.555111E+1
  vertex  0.280924E+1 -1.185666E+1 -0.354008E+1
  vertex  0.192000E+1 -1.120207E+1 -0.241950E+1
 endloop
endfacet
facet normal -0.078333E+1  0.000000E+0 -0.062160E+1
 outer loop
  vertex  0.102785E+2 -0.094477E+1 -1.295259E+1
  vertex  0.102785E+2 -0.566916E+1 -1.295259E+1
  vertex  0.734182E+1 -0.566916E+1 -0.925185E+1
 endloop
endfacet
facet normal -0.078333E+1 -0.000001E+1 -0.062161E+1
 outer loop
  vertex  0.562610E+1 -2.135291E+1 -0.708977E+1
  vertex  0.570389E+1 -1.984259E+1 -0.718781E+1
  vertex  0.734182E+1 -1.984259E+1 -0.925185E+1
 endloop
endfacet
facet normal -0.078333E+1  0.000000E+0 -0.062161E+1
 outer loop
  vertex -0.146836E+1 -3.401575E+1  0.185037E+1
  vertex -0.146836E+1 -3.874013E+1  0.185037E+1
  vertex -0.734182E+1 -3.401575E+1  0.925185E+1
 endloop
endfacet
facet normal -0.078333E+1 -0.000000E+1 -0.062161E+1
 outer loop
  vertex -0.734182E+1 -3.401575E+1  0.925185E+1
  vertex -0.146836E+1 -3.874013E+1  0.185037E+1
  vertex -1.027854E+1 -3.874013E+1  0.129526E+2
 endloop
endfacet
facet normal -0.078333E+1  -0.000000E+0 -0.062161E+1
 outer loop
  vertex -0.734182E+1 -3.401575E+1  0.925185E+1
  vertex -1.027854E+1 -3.874013E+1  0.129526E+2
  vertex -0.734182E+1 -2.929136E+1  0.925185E+1
 endloop
endfacet
facet normal -0.078333E+1  0.000000E+0 -0.062161E+1
 outer loop
  vertex  0.734182E+1 -1.039382E+1 -0.925185E+1
  vertex  0.132153E+2 -1.039382E+1 -1.665333E+1
  vertex  0.132153E+2 -1.511820E+1 -1.665333E+1
 endloop
endfacet
facet normal -0.078332E+1  0.000000E+0 -0.062161E+1
 outer loop
  vertex  0.132153E+2  0.377961E+1 -1.665333E+1
  vertex  0.132153E+2 -0.094477E+1 -1.665333E+1
  vertex  0.881018E+1  0.377961E+1 -1.110222E+1
 endloop
endfacet
facet normal -0.078332E+1  1.333092E-5 -0.062162E+1
 outer loop
  vertex  0.881018E+1  0.377961E+1 -1.110222E+1
  vertex  0.132153E+2 -0.094477E+1 -1.665333E+1
  vertex  0.102785E+2 -0.094477E+1 -1.295259E+1
 endloop
endfacet
facet normal -0.078334E+1  0.000000E+0 -0.062160E+1
 outer loop
  vertex  0.881018E+1  0.377961E+1 -1.110222E+1
  vertex  0.102785E+2 -0.094477E+1 -1.295259E+1
  vertex  0.881018E+1 -0.094477E+1 -1.110222E+1
 endloop
endfacet
facet normal -0.078334E+1  6.772406E-6 -0.062160E+1
 outer loop
  vertex  0.881018E+1 -0.094477E+1 -1.110222E+1
  vertex  0.102785E+2 -0.094477E+1 -1.295259E+1
  vertex  0.734182E+1 -0.566916E+1 -0.925185E+1
 endloop
endfacet
facet normal -0.078333E+1 -0.000000E+1 -0.062161E+1
 outer loop
  vertex  0.881018E+1 -0.094477E+1 -1.110222E+1
  vertex  0.734182E+1 -0.566916E+1 -0.925185E+1
  vertex  0.440509E+1 -0.094477E+1 -0.555111E+1
 endloop
endfacet
facet normal -0.078333E+1  0.000000E+0 -0.062161E+1
 outer loop
  vertex  0.440509E+1 -0.094477E+1 -0.555111E+1
  vertex  0.734182E+1 -0.566916E+1 -0.925185E+1
  vertex  0.734182E+1 -1.039382E+1 -0.925185E+1
 endloop
endfacet
facet normal -0.078333E+1  0.000000E+0 -0.062161E+1
 outer loop
  vertex  0.440509E+1 -0.094477E+1 -0.555111E+1
  vertex  0.734182E+1 -1.039382E+1 -0.925185E+1
  vertex  0.440509E+1 -1.039382E+1 -0.555111E+1
 endloop
endfacet
facet normal -0.078333E+1  0.000000E+0 -0.062161E+1
 outer loop
  vertex  0.440509E+1 -1.039382E+1 -0.555111E+1
  vertex  0.734182E+1 -1.039382E+1 -0.925185E+1
  vertex  0.734182E+1 -1.511820E+1 -0.925185E+1
 endloop
endfacet
facet normal -0.078333E+1  3.134397E-7 -0.062161E+1
 outer loop
  vertex  0.440509E+1 -1.039382E+1 -0.555111E+1
  vertex  0.734182E+1 -1.511820E+1 -0.925185E+1
  vertex  0.488979E+1 -1.511820E+1 -0.616191E+1
 endloop
endfacet
facet normal -0.078333E+1  0.000000E+0 -0.062161E+1
 outer loop
  vertex  0.734182E+1 -1.039382E+1 -0.925185E+1
  vertex  0.132153E+2 -1.511820E+1 -1.665333E+1
  vertex  0.734182E+1 -1.511820E+1 -0.925185E+1
 endloop
endfacet
facet normal -0.078333E+1  0.000000E+0 -0.062161E+1
 outer loop
  vertex  0.734182E+1 -1.511820E+1 -0.925185E+1
  vertex  0.132153E+2 -1.511820E+1 -1.665333E+1
  vertex  0.132153E+2 -2.456697E+1 -1.665333E+1
 endloop
endfacet
facet normal -0.078333E+1  0.000000E+0 -0.062161E+1
 outer loop
  vertex  0.734182E+1 -1.511820E+1 -0.925185E+1
  vertex  0.132153E+2 -2.456697E+1 -1.665333E+1
  vertex  0.734182E+1 -1.984259E+1 -0.925185E+1
 endloop
endfacet
facet normal -0.078333E+1  0.000000E+0 -0.062161E+1
 outer loop
  vertex  0.734182E+1 -1.984259E+1 -0.925185E+1
  vertex  0.132153E+2 -2.456697E+1 -1.665333E+1
  vertex  0.132153E+2 -3.401575E+1 -1.665333E+1
 endloop
endfacet
facet normal -0.078332E+1  6.636966E-6 -0.062162E+1
 outer loop
  vertex  0.734182E+1 -1.984259E+1 -0.925185E+1
  vertex  0.132153E+2 -3.401575E+1 -1.665333E+1
  vertex  0.102785E+2 -3.401575E+1 -1.295259E+1
 endloop
endfacet
facet normal -0.078333E+1  -0.000000E+0 -0.062161E+1
 outer loop
  vertex  0.190887E+2 -3.401575E+1 -2.405480E+1
  vertex  0.161520E+2 -3.401575E+1 -2.035406E+1
  vertex  0.190887E+2 -1.984259E+1 -2.405480E+1
 endloop
endfacet
facet normal -0.078333E+1  0.000000E+0 -0.062161E+1
 outer loop
  vertex  0.190887E+2 -1.984259E+1 -2.405480E+1
  vertex  0.161520E+2 -3.401575E+1 -2.035406E+1
  vertex  0.161520E+2 -2.456697E+1 -2.035406E+1
 endloop
endfacet
facet normal -0.078333E+1  0.000000E+0 -0.062161E+1
 outer loop
  vertex  0.190887E+2 -1.984259E+1 -2.405480E+1
  vertex  0.161520E+2 -2.456697E+1 -2.035406E+1
  vertex  0.161520E+2 -1.984259E+1 -2.035406E+1
 endloop
endfacet
facet normal -0.078333E+1  0.000000E+0 -0.062161E+1
 outer loop
  vertex  0.161520E+2 -1.984259E+1 -2.035406E+1
  vertex  0.161520E+2 -2.456697E+1 -2.035406E+1
  vertex  0.132153E+2 -2.456697E+1 -1.665333E+1
 endloop
endfacet
facet normal -0.078333E+1  -0.000000E+0 -0.062161E+1
 outer loop
  vertex  0.161520E+2 -1.984259E+1 -2.035406E+1
  vertex  0.132153E+2 -2.456697E+1 -1.665333E+1
  vertex  0.161520E+2 -1.511820E+1 -2.035406E+1
 endloop
endfacet
facet normal -0.078333E+1  0.000000E+0 -0.062161E+1
 outer loop
  vertex  0.161520E+2 -1.511820E+1 -2.035406E+1
  vertex  0.132153E+2 -2.456697E+1 -1.665333E+1
  vertex  0.132153E+2 -1.511820E+1 -1.665333E+1
 endloop
endfacet
facet normal -0.078333E+1  -0.000000E+0 -0.062161E+1
 outer loop
  vertex -1.027854E+1 -3.874013E+1  0.129526E+2
  vertex -1.027854E+1 -3.401575E+1  0.129526E+2
  vertex -0.734182E+1 -2.929136E+1  0.925185E+1
 endloop
endfacet
facet normal -0.078332E+1 -0.000001E+1 -0.062161E+1
 outer loop
  vertex -0.734182E+1 -2.929136E+1  0.925185E+1
  vertex -1.027854E+1 -3.401575E+1  0.129526E+2
  vertex -1.321527E+1 -3.401575E+1  0.166533E+2
 endloop
endfacet
facet normal -0.078333E+1  0.000000E+0 -0.062161E+1
 outer loop
  vertex -0.734182E+1 -2.929136E+1  0.925185E+1
  vertex -1.321527E+1 -3.401575E+1  0.166533E+2
  vertex -1.321527E+1 -2.456697E+1  0.166533E+2
 endloop
endfacet
facet normal -0.078333E+1  -0.000000E+0 -0.062161E+1
 outer loop
  vertex -0.734182E+1 -1.984259E+1  0.925185E+1
  vertex -1.321527E+1 -1.511820E+1  0.166533E+2
  vertex -0.734182E+1 -1.511820E+1  0.925185E+1
 endloop
endfacet
facet normal -0.078333E+1  0.000000E+0 -0.062161E+1
 outer loop
  vertex -0.734182E+1 -1.511820E+1  0.925185E+1
  vertex -1.321527E+1 -1.511820E+1  0.166533E+2
  vertex -1.321527E+1 -1.039382E+1  0.166533E+2
 endloop
endfacet
facet normal -0.078333E+1 -0.000000E+1 -0.062161E+1
 outer loop
  vertex -0.734182E+1 -1.511820E+1  0.925185E+1
  vertex -1.321527E+1 -1.039382E+1  0.166533E+2
  vertex -0.488979E+1 -1.511820E+1  0.616191E+1
 endloop
endfacet
facet normal -0.078333E+1  0.000000E+0 -0.062161E+1
 outer loop
  vertex -0.440509E+1 -1.039382E+1  0.555111E+1
  vertex -0.734182E+1 -1.039382E+1  0.925185E+1
  vertex -0.734182E+1 -0.566916E+1  0.925185E+1
 endloop
endfacet
facet normal -0.078333E+1 -0.000001E+1 -0.062161E+1
 outer loop
  vertex  0.192000E+1 -1.120207E+1 -0.241950E+1
  vertex  0.097432E+1 -1.080145E+1 -0.122780E+1
  vertex  0.440509E+1 -1.039382E+1 -0.555111E+1
 endloop
endfacet
facet normal -0.078333E+1  8.273394E-6 -0.062161E+1
 outer loop
  vertex  0.440509E+1 -1.039382E+1 -0.555111E+1
  vertex  0.097432E+1 -1.080145E+1 -0.122780E+1
  vertex  6.929113E-16 -1.066659E+1  5.498605E-16
 endloop
endfacet
facet normal -0.078333E+1  0.000000E+0 -0.062161E+1
 outer loop
  vertex  0.440509E+1 -1.039382E+1 -0.555111E+1
  vertex  6.929113E-16 -1.066659E+1  5.498605E-16
  vertex -0.440509E+1 -1.039382E+1  0.555111E+1
 endloop
endfacet
facet normal -0.078333E+1  2.344131E-5 -0.062161E+1
 outer loop
  vertex -0.440509E+1 -1.039382E+1  0.555111E+1
  vertex  6.929113E-16 -1.066659E+1  5.498605E-16
  vertex -0.097432E+1 -1.080145E+1  0.122779E+1
 endloop
endfacet
facet normal -0.078332E+1  1.956779E-6 -0.062161E+1
 outer loop
  vertex  0.734182E+1 -2.929136E+1 -0.925185E+1
  vertex  0.501642E+1 -2.420988E+1 -0.632149E+1
  vertex  0.539484E+1 -2.282203E+1 -0.679835E+1
 endloop
endfacet
facet normal -0.078332E+1  -0.000000E+0 -0.062161E+1
 outer loop
  vertex -1.321527E+1 -0.094477E+1  0.166533E+2
  vertex -1.321527E+1  0.377961E+1  0.166533E+2
  vertex -1.027854E+1 -0.094477E+1  0.129526E+2
 endloop
endfacet
facet normal -0.078333E+1 -0.000000E+1 -0.062161E+1
 outer loop
  vertex -1.027854E+1 -0.094477E+1  0.129526E+2
  vertex -1.321527E+1  0.377961E+1  0.166533E+2
  vertex -0.881018E+1  0.377961E+1  0.111022E+2
 endloop
endfacet
facet normal -0.078333E+1  0.000000E+0 -0.062160E+1
 outer loop
  vertex -1.027854E+1 -0.094477E+1  0.129526E+2
  vertex -0.881018E+1  0.377961E+1  0.111022E+2
  vertex -1.027854E+1 -0.566916E+1  0.129526E+2
 endloop
endfacet
facet normal -0.078333E+1  0.000000E+0 -0.062160E+1
 outer loop
  vertex -1.027854E+1 -0.566916E+1  0.129526E+2
  vertex -0.881018E+1  0.377961E+1  0.111022E+2
  vertex -0.881018E+1 -0.094477E+1  0.111022E+2
 endloop
endfacet
facet normal -0.078333E+1 -0.000000E+1 -0.062161E+1
 outer loop
  vertex -1.027854E+1 -0.566916E+1  0.129526E+2
  vertex -0.881018E+1 -0.094477E+1  0.111022E+2
  vertex -0.734182E+1 -0.566916E+1  0.925185E+1
 endloop
endfacet
facet normal -0.078333E+1 -0.000000E+1 -0.062161E+1
 outer loop
  vertex -0.734182E+1 -0.566916E+1  0.925185E+1
  vertex -0.881018E+1 -0.094477E+1  0.111022E+2
  vertex -0.440509E+1 -0.094477E+1  0.555111E+1
 endloop
endfacet
facet normal -0.078333E+1  0.000000E+0 -0.062161E+1
 outer loop
  vertex -0.734182E+1 -0.566916E+1  0.925185E+1
  vertex -0.440509E+1 -0.094477E+1  0.555111E+1
  vertex -0.440509E+1 -1.039382E+1  0.555111E+1
 endloop
endfacet
facet normal -0.078332E+1  -0.000000E+0 -0.062161E+1
 outer loop
  vertex -1.615199E+1 -3.401575E+1  0.203541E+2
  vertex -1.908872E+1 -3.401575E+1  0.240548E+2
  vertex -1.615199E+1 -2.456697E+1  0.203541E+2
 endloop
endfacet
facet normal -0.078332E+1  0.000000E+0 -0.062161E+1
 outer loop
  vertex -1.615199E+1 -2.456697E+1  0.203541E+2
  vertex -1.908872E+1 -3.401575E+1  0.240548E+2
  vertex -1.908872E+1 -1.984259E+1  0.240548E+2
 endloop
endfacet
facet normal -0.078333E+1 -0.000001E+1 -0.062160E+1
 outer loop
  vertex -1.615199E+1 -2.456697E+1  0.203541E+2
  vertex -1.908872E+1 -1.984259E+1  0.240548E+2
  vertex -1.321527E+1 -2.456697E+1  0.166533E+2
 endloop
endfacet
facet normal -0.078332E+1  1.444206E-5 -0.062161E+1
 outer loop
  vertex -1.321527E+1 -2.456697E+1  0.166533E+2
  vertex -1.908872E+1 -1.984259E+1  0.240548E+2
  vertex -1.615199E+1 -1.984259E+1  0.203541E+2
 endloop
endfacet
facet normal -0.078332E+1  2.119330E-5 -0.062162E+1
 outer loop
  vertex -1.321527E+1 -2.456697E+1  0.166533E+2
  vertex -1.615199E+1 -1.984259E+1  0.203541E+2
  vertex -0.734182E+1 -2.929136E+1  0.925185E+1
 endloop
endfacet
facet normal -0.078333E+1  6.441766E-6 -0.062161E+1
 outer loop
  vertex -0.311973E+1 -2.752443E+1  0.393136E+1
  vertex -0.229123E+1 -2.824573E+1  0.288731E+1
  vertex -0.734182E+1 -2.929136E+1  0.925185E+1
 endloop
endfacet
facet normal -0.078333E+1  -0.000000E+0 -0.062161E+1
 outer loop
  vertex  0.146836E+1 -3.874013E+1 -0.185037E+1
  vertex  0.146836E+1 -3.401575E+1 -0.185037E+1
  vertex  0.102785E+2 -3.874013E+1 -1.295259E+1
 endloop
endfacet
facet normal -0.078333E+1  8.289174E-6 -0.062161E+1
 outer loop
  vertex  0.102785E+2 -3.874013E+1 -1.295259E+1
  vertex  0.146836E+1 -3.401575E+1 -0.185037E+1
  vertex  0.734182E+1 -3.401575E+1 -0.925185E+1
 endloop
endfacet
facet normal -0.078333E+1  -0.000000E+0 -0.062160E+1
 outer loop
  vertex  0.102785E+2 -3.874013E+1 -1.295259E+1
  vertex  0.734182E+1 -3.401575E+1 -0.925185E+1
  vertex  0.102785E+2 -3.401575E+1 -1.295259E+1
 endloop
endfacet
facet normal -0.078333E+1  0.000000E+0 -0.062160E+1
 outer loop
  vertex  0.102785E+2 -3.401575E+1 -1.295259E+1
  vertex  0.734182E+1 -3.401575E+1 -0.925185E+1
  vertex  0.734182E+1 -2.929136E+1 -0.925185E+1
 endloop
endfacet
facet normal -0.078333E+1  0.000000E+0 -0.062160E+1
 outer loop
  vertex  0.102785E+2 -3.401575E+1 -1.295259E+1
  vertex  0.734182E+1 -2.929136E+1 -0.925185E+1
  vertex  0.734182E+1 -1.984259E+1 -0.925185E+1
 endloop
endfacet
facet normal -0.078333E+1  0.000000E+0 -0.062161E+1
 outer loop
  vertex  0.734182E+1 -1.984259E+1 -0.925185E+1
  vertex  0.734182E+1 -2.929136E+1 -0.925185E+1
  vertex  0.539484E+1 -2.282203E+1 -0.679835E+1
 endloop
endfacet
facet normal -0.078333E+1  2.320662E-6 -0.062161E+1
 outer loop
  vertex  0.734182E+1 -1.984259E+1 -0.925185E+1
  vertex  0.539484E+1 -2.282203E+1 -0.679835E+1
  vertex  0.562610E+1 -2.135291E+1 -0.708977E+1
 endloop
endfacet
facet normal -0.078333E+1  5.425552E-6 -0.062161E+1
 outer loop
  vertex -0.570389E+1 -1.984259E+1  0.718781E+1
  vertex -0.562610E+1 -2.135291E+1  0.708977E+1
  vertex -0.734182E+1 -1.984259E+1  0.925185E+1
 endloop
endfacet
facet normal -0.078333E+1 -0.000000E+1 -0.062161E+1
 outer loop
  vertex -0.734182E+1 -1.984259E+1  0.925185E+1
  vertex -0.562610E+1 -2.135291E+1  0.708977E+1
  vertex -0.539484E+1 -2.282203E+1  0.679835E+1
 endloop
endfacet
facet normal -0.078332E+1  7.348463E-6 -0.062162E+1
 outer loop
  vertex -0.386314E+1 -2.659359E+1  0.486817E+1
  vertex -1.321527E+1 -1.511820E+1  0.166533E+2
  vertex -0.450117E+1 -2.547860E+1  0.567219E+1
 endloop
endfacet
facet normal -0.078333E+1  9.035676E-7 -0.062161E+1
 outer loop
  vertex -0.450117E+1 -2.547860E+1  0.567219E+1
  vertex -1.321527E+1 -1.511820E+1  0.166533E+2
  vertex -0.734182E+1 -1.984259E+1  0.925185E+1
 endloop
endfacet
facet normal -0.078332E+1  1.238523E-5 -0.062162E+1
 outer loop
  vertex -0.450117E+1 -2.547860E+1  0.567219E+1
  vertex -0.734182E+1 -1.984259E+1  0.925185E+1
  vertex -0.501642E+1 -2.420988E+1  0.632149E+1
 endloop
endfacet
facet normal -0.078333E+1 -0.000001E+1 -0.062161E+1
 outer loop
  vertex -0.501642E+1 -2.420988E+1  0.632149E+1
  vertex -0.734182E+1 -1.984259E+1  0.925185E+1
  vertex -0.539484E+1 -2.282203E+1  0.679835E+1
 endloop
endfacet
facet normal -0.078333E+1  9.400124E-7 -0.062161E+1
 outer loop
  vertex -1.321527E+1 -1.039382E+1  0.166533E+2
  vertex -0.734182E+1 -1.039382E+1  0.925185E+1
  vertex -0.488979E+1 -1.511820E+1  0.616191E+1
 endloop
endfacet
facet normal -0.078333E+1 -0.000000E+1 -0.062161E+1
 outer loop
  vertex -0.488979E+1 -1.511820E+1  0.616191E+1
  vertex -0.734182E+1 -1.039382E+1  0.925185E+1
  vertex -0.440509E+1 -1.039382E+1  0.555111E+1
 endloop
endfacet
facet normal -0.078332E+1 -0.000000E+1 -0.062161E+1
 outer loop
  vertex -0.488979E+1 -1.511820E+1  0.616191E+1
  vertex -0.440509E+1 -1.039382E+1  0.555111E+1
  vertex -0.431628E+1 -1.384394E+1  0.543920E+1
 endloop
endfacet
facet normal -0.078333E+1 -0.000000E+1 -0.062161E+1
 outer loop
  vertex -0.431628E+1 -1.384394E+1  0.543920E+1
  vertex -0.440509E+1 -1.039382E+1  0.555111E+1
  vertex -0.361590E+1 -1.274600E+1  0.455661E+1
 endloop
endfacet
facet normal -0.078333E+1  2.862647E-6 -0.062161E+1
 outer loop
  vertex  0.140022E+1 -2.873780E+1 -0.176450E+1
  vertex  0.229123E+1 -2.824573E+1 -0.288731E+1
  vertex  0.734182E+1 -2.929136E+1 -0.925185E+1
 endloop
endfacet
facet normal -0.078333E+1  2.103432E-6 -0.062161E+1
 outer loop
  vertex  0.734182E+1 -2.929136E+1 -0.925185E+1
  vertex  0.229123E+1 -2.824573E+1 -0.288731E+1
  vertex  0.311974E+1 -2.752443E+1 -0.393136E+1
 endloop
endfacet
facet normal -0.078333E+1 -0.000000E+1 -0.062161E+1
 outer loop
  vertex -0.097432E+1 -1.080145E+1  0.122779E+1
  vertex -0.192000E+1 -1.120207E+1  0.241950E+1
  vertex -0.440509E+1 -1.039382E+1  0.555111E+1
 endloop
endfacet
facet normal -0.078333E+1  2.906639E-6 -0.062161E+1
 outer loop
  vertex -0.440509E+1 -1.039382E+1  0.555111E+1
  vertex -0.192000E+1 -1.120207E+1  0.241950E+1
  vertex -0.280924E+1 -1.185666E+1  0.354008E+1
 endloop
endfacet
facet normal -0.078333E+1 -0.000000E+1 -0.062161E+1
 outer loop
  vertex -0.440509E+1 -1.039382E+1  0.555111E+1
  vertex -0.280924E+1 -1.185666E+1  0.354008E+1
  vertex -0.361590E+1 -1.274600E+1  0.455661E+1
 endloop
endfacet
facet normal -0.078335E+1 -0.000006E+1 -0.062157E+1
 outer loop
  vertex -0.386314E+1 -2.659359E+1  0.486817E+1
  vertex -0.311973E+1 -2.752443E+1  0.393136E+1
  vertex -1.321527E+1 -1.511820E+1  0.166533E+2
 endloop
endfacet
facet normal -0.078333E+1 -0.000000E+1 -0.062161E+1
 outer loop
  vertex -1.321527E+1 -1.511820E+1  0.166533E+2
  vertex -0.311973E+1 -2.752443E+1  0.393136E+1
  vertex -0.734182E+1 -2.929136E+1  0.925185E+1
 endloop
endfacet
facet normal -0.078333E+1 -0.000001E+1 -0.062160E+1
 outer loop
  vertex -1.321527E+1 -1.511820E+1  0.166533E+2
  vertex -0.734182E+1 -2.929136E+1  0.925185E+1
  vertex -1.615199E+1 -1.511820E+1  0.203541E+2
 endloop
endfacet
facet normal -0.078333E+1  0.000000E+0 -0.062161E+1
 outer loop
  vertex -1.615199E+1 -1.511820E+1  0.203541E+2
  vertex -0.734182E+1 -2.929136E+1  0.925185E+1
  vertex -1.615199E+1 -1.984259E+1  0.203541E+2
 endloop
endfacet
facet normal -0.078333E+1 -0.000000E+1 -0.062161E+1
 outer loop
  vertex -0.229123E+1 -2.824573E+1  0.288731E+1
  vertex -0.140022E+1 -2.873780E+1  0.176450E+1
  vertex -0.734182E+1 -2.929136E+1  0.925185E+1
 endloop
endfacet
facet normal -0.078333E+1  4.750839E-6 -0.062161E+1
 outer loop
  vertex -0.734182E+1 -2.929136E+1  0.925185E+1
  vertex -0.140022E+1 -2.873780E+1  0.176450E+1
  vertex -0.047102E+1 -2.898725E+1  0.059356E+1
 endloop
endfacet
facet normal -0.078333E+1  1.062042E-6 -0.062161E+1
 outer loop
  vertex -0.734182E+1 -2.929136E+1  0.925185E+1
  vertex -0.047102E+1 -2.898725E+1  0.059356E+1
  vertex  0.734182E+1 -2.929136E+1 -0.925185E+1
 endloop
endfacet
facet normal -0.078333E+1 -0.000002E+1 -0.062161E+1
 outer loop
  vertex  0.734182E+1 -2.929136E+1 -0.925185E+1
  vertex -0.047102E+1 -2.898725E+1  0.059356E+1
  vertex  0.047102E+1 -2.898725E+1 -0.059356E+1
 endloop
endfacet
facet normal -0.078333E+1 -0.000000E+1 -0.062161E+1
 outer loop
  vertex  0.734182E+1 -2.929136E+1 -0.925185E+1
  vertex  0.047102E+1 -2.898725E+1 -0.059356E+1
  vertex  0.140022E+1 -2.873780E+1 -0.176450E+1
 endloop
endfacet
facet normal -0.078333E+1 -0.000000E+1 -0.062161E+1
 outer loop
  vertex  0.311974E+1 -2.752443E+1 -0.393136E+1
  vertex  0.386314E+1 -2.659359E+1 -0.486817E+1
  vertex  0.734182E+1 -2.929136E+1 -0.925185E+1
 endloop
endfacet
facet normal -0.078333E+1 -0.000000E+1 -0.062161E+1
 outer loop
  vertex  0.734182E+1 -2.929136E+1 -0.925185E+1
  vertex  0.386314E+1 -2.659359E+1 -0.486817E+1
  vertex  0.450117E+1 -2.547860E+1 -0.567219E+1
 endloop
endfacet
facet normal -0.078333E+1 -0.000000E+1 -0.062161E+1
 outer loop
  vertex  0.734182E+1 -2.929136E+1 -0.925185E+1
  vertex  0.450117E+1 -2.547860E+1 -0.567219E+1
  vertex  0.501642E+1 -2.420988E+1 -0.632149E+1
 endloop
endfacet
facet normal  0.000000E+0  0.100000E+1  -0.000000E+0
 outer loop
  vertex  0.204258E+2 -1.984259E+1 -1.696256E+1
  vertex  0.233625E+2 -1.984259E+1 -2.066330E+1
  vertex  0.161520E+2 -1.984259E+1 -2.035406E+1
 endloop
endfacet
facet normal  0.000000E+0  0.100000E+1  0.000000E+0
 outer loop
  vertex  0.161520E+2 -1.984259E+1 -2.035406E+1
  vertex  0.233625E+2 -1.984259E+1 -2.066330E+1
  vertex  0.190887E+2 -1.984259E+1 -2.405480E+1
 endloop
endfacet
facet normal  0.062161E+1  0.000000E+0 -0.078333E+1
 outer loop
  vertex  0.204258E+2 -1.511820E+1 -1.696256E+1
  vertex  0.204258E+2 -1.984259E+1 -1.696256E+1
  vertex  0.161520E+2 -1.511820E+1 -2.035406E+1
 endloop
endfacet
facet normal  0.062161E+1  0.000000E+0 -0.078333E+1
 outer loop
  vertex  0.161520E+2 -1.511820E+1 -2.035406E+1
  vertex  0.204258E+2 -1.984259E+1 -1.696256E+1
  vertex  0.161520E+2 -1.984259E+1 -2.035406E+1
 endloop
endfacet
facet normal  0.000000E+0  0.100000E+1  -0.000000E+0
 outer loop
  vertex  0.174891E+2 -1.511820E+1 -1.326182E+1
  vertex  0.204258E+2 -1.511820E+1 -1.696256E+1
  vertex  0.132153E+2 -1.511820E+1 -1.665333E+1
 endloop
endfacet
facet normal  0.000000E+0  0.100000E+1  0.000000E+0
 outer loop
  vertex  0.132153E+2 -1.511820E+1 -1.665333E+1
  vertex  0.204258E+2 -1.511820E+1 -1.696256E+1
  vertex  0.161520E+2 -1.511820E+1 -2.035406E+1
 endloop
endfacet
facet normal  0.062161E+1  0.000000E+0 -0.078332E+1
 outer loop
  vertex  0.174891E+2 -1.039382E+1 -1.326182E+1
  vertex  0.174891E+2 -1.511820E+1 -1.326182E+1
  vertex  0.132153E+2 -1.039382E+1 -1.665333E+1
 endloop
endfacet
facet normal  0.062161E+1  0.000000E+0 -0.078332E+1
 outer loop
  vertex  0.132153E+2 -1.039382E+1 -1.665333E+1
  vertex  0.174891E+2 -1.511820E+1 -1.326182E+1
  vertex  0.132153E+2 -1.511820E+1 -1.665333E+1
 endloop
endfacet
facet normal  0.000000E+0  0.100000E+1  -0.000000E+0
 outer loop
  vertex  0.116156E+2 -1.039382E+1 -0.586035E+1
  vertex  0.174891E+2 -1.039382E+1 -1.326182E+1
  vertex  0.734182E+1 -1.039382E+1 -0.925185E+1
 endloop
endfacet
facet normal  0.000000E+0  0.100000E+1  0.000000E+0
 outer loop
  vertex  0.734182E+1 -1.039382E+1 -0.925185E+1
  vertex  0.174891E+2 -1.039382E+1 -1.326182E+1
  vertex  0.132153E+2 -1.039382E+1 -1.665333E+1
 endloop
endfacet
facet normal  0.062161E+1  0.000000E+0 -0.078332E+1
 outer loop
  vertex  0.116156E+2 -0.566916E+1 -0.586035E+1
  vertex  0.116156E+2 -1.039382E+1 -0.586035E+1
  vertex  0.734182E+1 -0.566916E+1 -0.925185E+1
 endloop
endfacet
facet normal  0.062161E+1  0.000000E+0 -0.078332E+1
 outer loop
  vertex  0.734182E+1 -0.566916E+1 -0.925185E+1
  vertex  0.116156E+2 -1.039382E+1 -0.586035E+1
  vertex  0.734182E+1 -1.039382E+1 -0.925185E+1
 endloop
endfacet
facet normal  0.000000E+0 -0.100000E+1  0.000000E+0
 outer loop
  vertex  0.145524E+2 -0.566916E+1 -0.956108E+1
  vertex  0.116156E+2 -0.566916E+1 -0.586035E+1
  vertex  0.102785E+2 -0.566916E+1 -1.295259E+1
 endloop
endfacet
facet normal  0.000000E+0 -0.100000E+1  -0.000000E+0
 outer loop
  vertex  0.102785E+2 -0.566916E+1 -1.295259E+1
  vertex  0.116156E+2 -0.566916E+1 -0.586035E+1
  vertex  0.734182E+1 -0.566916E+1 -0.925185E+1
 endloop
endfacet
facet normal  0.062160E+1  0.000000E+0 -0.078333E+1
 outer loop
  vertex  0.145524E+2 -0.094477E+1 -0.956108E+1
  vertex  0.145524E+2 -0.566916E+1 -0.956108E+1
  vertex  0.102785E+2 -0.094477E+1 -1.295259E+1
 endloop
endfacet
facet normal  0.062160E+1  0.000000E+0 -0.078333E+1
 outer loop
  vertex  0.102785E+2 -0.094477E+1 -1.295259E+1
  vertex  0.145524E+2 -0.566916E+1 -0.956108E+1
  vertex  0.102785E+2 -0.566916E+1 -1.295259E+1
 endloop
endfacet
facet normal  0.000000E+0 -0.100000E+1  0.000000E+0
 outer loop
  vertex  0.174891E+2 -0.094477E+1 -1.326182E+1
  vertex  0.145524E+2 -0.094477E+1 -0.956108E+1
  vertex  0.132153E+2 -0.094477E+1 -1.665333E+1
 endloop
endfacet
facet normal  0.000000E+0 -0.100000E+1  -0.000000E+0
 outer loop
  vertex  0.132153E+2 -0.094477E+1 -1.665333E+1
  vertex  0.145524E+2 -0.094477E+1 -0.956108E+1
  vertex  0.102785E+2 -0.094477E+1 -1.295259E+1
 endloop
endfacet
facet normal  0.062161E+1  0.000000E+0 -0.078332E+1
 outer loop
  vertex  0.174891E+2  0.377961E+1 -1.326182E+1
  vertex  0.174891E+2 -0.094477E+1 -1.326182E+1
  vertex  0.132153E+2  0.377961E+1 -1.665333E+1
 endloop
endfacet
facet normal  0.062161E+1  0.000000E+0 -0.078332E+1
 outer loop
  vertex  0.132153E+2  0.377961E+1 -1.665333E+1
  vertex  0.174891E+2 -0.094477E+1 -1.326182E+1
  vertex  0.132153E+2 -0.094477E+1 -1.665333E+1
 endloop
endfacet
facet normal  0.000000E+0  0.100000E+1  -0.000000E+0
 outer loop
  vertex  0.130840E+2  0.377961E+1 -0.771071E+1
  vertex  0.174891E+2  0.377961E+1 -1.326182E+1
  vertex  0.881018E+1  0.377961E+1 -1.110222E+1
 endloop
endfacet
facet normal  0.000000E+0  0.100000E+1  0.000000E+0
 outer loop
  vertex  0.881018E+1  0.377961E+1 -1.110222E+1
  vertex  0.174891E+2  0.377961E+1 -1.326182E+1
  vertex  0.132153E+2  0.377961E+1 -1.665333E+1
 endloop
endfacet
facet normal -0.062161E+1  0.000000E+0  0.078333E+1
 outer loop
  vertex  0.130840E+2 -0.094477E+1 -0.771071E+1
  vertex  0.130840E+2  0.377961E+1 -0.771071E+1
  vertex  0.881018E+1 -0.094477E+1 -1.110222E+1
 endloop
endfacet
facet normal -0.062161E+1  0.000000E+0  0.078333E+1
 outer loop
  vertex  0.881018E+1 -0.094477E+1 -1.110222E+1
  vertex  0.130840E+2  0.377961E+1 -0.771071E+1
  vertex  0.881018E+1  0.377961E+1 -1.110222E+1
 endloop
endfacet
facet normal  0.000000E+0  0.100000E+1  -0.000000E+0
 outer loop
  vertex  0.867892E+1 -0.094477E+1 -0.215960E+1
  vertex  0.130840E+2 -0.094477E+1 -0.771071E+1
  vertex  0.440509E+1 -0.094477E+1 -0.555111E+1
 endloop
endfacet
facet normal  0.000000E+0  0.100000E+1  0.000000E+0
 outer loop
  vertex  0.440509E+1 -0.094477E+1 -0.555111E+1
  vertex  0.130840E+2 -0.094477E+1 -0.771071E+1
  vertex  0.881018E+1 -0.094477E+1 -1.110222E+1
 endloop
endfacet
facet normal -0.062161E+1  0.000000E+0  0.078333E+1
 outer loop
  vertex  0.867892E+1 -1.039382E+1 -0.215960E+1
  vertex  0.867892E+1 -0.094477E+1 -0.215960E+1
  vertex  0.440509E+1 -1.039382E+1 -0.555111E+1
 endloop
endfacet
facet normal -0.062161E+1  0.000000E+0  0.078333E+1
 outer loop
  vertex  0.440509E+1 -1.039382E+1 -0.555111E+1
  vertex  0.867892E+1 -0.094477E+1 -0.215960E+1
  vertex  0.440509E+1 -0.094477E+1 -0.555111E+1
 endloop
endfacet
facet normal  0.000000E+0  0.100000E+1  -0.000000E+0
 outer loop
  vertex -0.013126E+1 -1.039382E+1  0.894261E+1
  vertex  0.867892E+1 -1.039382E+1 -0.215960E+1
  vertex -0.440509E+1 -1.039382E+1  0.555111E+1
 endloop
endfacet
facet normal  0.000000E+0  0.100000E+1  0.000000E+0
 outer loop
  vertex -0.440509E+1 -1.039382E+1  0.555111E+1
  vertex  0.867892E+1 -1.039382E+1 -0.215960E+1
  vertex  0.440509E+1 -1.039382E+1 -0.555111E+1
 endloop
endfacet
facet normal  0.062161E+1  0.000000E+0 -0.078333E+1
 outer loop
  vertex -0.013126E+1 -0.094477E+1  0.894261E+1
  vertex -0.013126E+1 -1.039382E+1  0.894261E+1
  vertex -0.440509E+1 -0.094477E+1  0.555111E+1
 endloop
endfacet
facet normal  0.062161E+1  0.000000E+0 -0.078333E+1
 outer loop
  vertex -0.440509E+1 -0.094477E+1  0.555111E+1
  vertex -0.013126E+1 -1.039382E+1  0.894261E+1
  vertex -0.440509E+1 -1.039382E+1  0.555111E+1
 endloop
endfacet
facet normal  0.000000E+0  0.100000E+1  -0.000000E+0
 outer loop
  vertex -0.453635E+1 -0.094477E+1  0.144937E+2
  vertex -0.013126E+1 -0.094477E+1  0.894261E+1
  vertex -0.881018E+1 -0.094477E+1  0.111022E+2
 endloop
endfacet
facet normal  0.000000E+0  0.100000E+1  0.000000E+0
 outer loop
  vertex -0.881018E+1 -0.094477E+1  0.111022E+2
  vertex -0.013126E+1 -0.094477E+1  0.894261E+1
  vertex -0.440509E+1 -0.094477E+1  0.555111E+1
 endloop
endfacet
facet normal  0.062161E+1  0.000000E+0 -0.078333E+1
 outer loop
  vertex -0.453635E+1  0.377961E+1  0.144937E+2
  vertex -0.453635E+1 -0.094477E+1  0.144937E+2
  vertex -0.881018E+1  0.377961E+1  0.111022E+2
 endloop
endfacet
facet normal  0.062161E+1  0.000000E+0 -0.078333E+1
 outer loop
  vertex -0.881018E+1  0.377961E+1  0.111022E+2
  vertex -0.453635E+1 -0.094477E+1  0.144937E+2
  vertex -0.881018E+1 -0.094477E+1  0.111022E+2
 endloop
endfacet
facet normal  0.000000E+0  0.100000E+1  -0.000000E+0
 outer loop
  vertex -0.894143E+1  0.377961E+1  0.200448E+2
  vertex -0.453635E+1  0.377961E+1  0.144937E+2
  vertex -1.321527E+1  0.377961E+1  0.166533E+2
 endloop
endfacet
facet normal  0.000000E+0  0.100000E+1  0.000000E+0
 outer loop
  vertex -1.321527E+1  0.377961E+1  0.166533E+2
  vertex -0.453635E+1  0.377961E+1  0.144937E+2
  vertex -0.881018E+1  0.377961E+1  0.111022E+2
 endloop
endfacet
facet normal -0.062161E+1  0.000000E+0  0.078333E+1
 outer loop
  vertex -0.894143E+1 -0.094477E+1  0.200448E+2
  vertex -0.894143E+1  0.377961E+1  0.200448E+2
  vertex -1.321527E+1 -0.094477E+1  0.166533E+2
 endloop
endfacet
facet normal -0.062161E+1  0.000000E+0  0.078333E+1
 outer loop
  vertex -1.321527E+1 -0.094477E+1  0.166533E+2
  vertex -0.894143E+1  0.377961E+1  0.200448E+2
  vertex -1.321527E+1  0.377961E+1  0.166533E+2
 endloop
endfacet
facet normal  0.000000E+0 -0.100000E+1  0.000000E+0
 outer loop
  vertex -0.600471E+1 -0.094477E+1  0.163441E+2
  vertex -0.894143E+1 -0.094477E+1  0.200448E+2
  vertex -1.027854E+1 -0.094477E+1  0.129526E+2
 endloop
endfacet
facet normal  0.000000E+0 -0.100000E+1  -0.000000E+0
 outer loop
  vertex -1.027854E+1 -0.094477E+1  0.129526E+2
  vertex -0.894143E+1 -0.094477E+1  0.200448E+2
  vertex -1.321527E+1 -0.094477E+1  0.166533E+2
 endloop
endfacet
facet normal -0.062161E+1  0.000000E+0  0.078333E+1
 outer loop
  vertex -0.600471E+1 -0.566916E+1  0.163441E+2
  vertex -0.600471E+1 -0.094477E+1  0.163441E+2
  vertex -1.027854E+1 -0.566916E+1  0.129526E+2
 endloop
endfacet
facet normal -0.062161E+1  0.000000E+0  0.078333E+1
 outer loop
  vertex -1.027854E+1 -0.566916E+1  0.129526E+2
  vertex -0.600471E+1 -0.094477E+1  0.163441E+2
  vertex -1.027854E+1 -0.094477E+1  0.129526E+2
 endloop
endfacet
facet normal  0.000000E+0 -0.100000E+1  0.000000E+0
 outer loop
  vertex -0.306799E+1 -0.566916E+1  0.126434E+2
  vertex -0.600471E+1 -0.566916E+1  0.163441E+2
  vertex -0.734182E+1 -0.566916E+1  0.925185E+1
 endloop
endfacet
facet normal  0.000000E+0 -0.100000E+1  -0.000000E+0
 outer loop
  vertex -0.734182E+1 -0.566916E+1  0.925185E+1
  vertex -0.600471E+1 -0.566916E+1  0.163441E+2
  vertex -1.027854E+1 -0.566916E+1  0.129526E+2
 endloop
endfacet
facet normal -0.062162E+1  0.000000E+0  0.078332E+1
 outer loop
  vertex -0.306799E+1 -1.039382E+1  0.126434E+2
  vertex -0.306799E+1 -0.566916E+1  0.126434E+2
  vertex -0.734182E+1 -1.039382E+1  0.925185E+1
 endloop
endfacet
facet normal -0.062162E+1  0.000000E+0  0.078332E+1
 outer loop
  vertex -0.734182E+1 -1.039382E+1  0.925185E+1
  vertex -0.306799E+1 -0.566916E+1  0.126434E+2
  vertex -0.734182E+1 -0.566916E+1  0.925185E+1
 endloop
endfacet
facet normal  0.000000E+0  0.100000E+1  -0.000000E+0
 outer loop
  vertex -0.894143E+1 -1.039382E+1  0.200448E+2
  vertex -0.306799E+1 -1.039382E+1  0.126434E+2
  vertex -1.321527E+1 -1.039382E+1  0.166533E+2
 endloop
endfacet
facet normal  0.000000E+0  0.100000E+1  0.000000E+0
 outer loop
  vertex -1.321527E+1 -1.039382E+1  0.166533E+2
  vertex -0.306799E+1 -1.039382E+1  0.126434E+2
  vertex -0.734182E+1 -1.039382E+1  0.925185E+1
 endloop
endfacet
facet normal -0.062161E+1  0.000000E+0  0.078333E+1
 outer loop
  vertex -0.894143E+1 -1.511820E+1  0.200448E+2
  vertex -0.894143E+1 -1.039382E+1  0.200448E+2
  vertex -1.321527E+1 -1.511820E+1  0.166533E+2
 endloop
endfacet
facet normal -0.062161E+1  0.000000E+0  0.078333E+1
 outer loop
  vertex -1.321527E+1 -1.511820E+1  0.166533E+2
  vertex -0.894143E+1 -1.039382E+1  0.200448E+2
  vertex -1.321527E+1 -1.039382E+1  0.166533E+2
 endloop
endfacet
facet normal  0.000000E+0  0.100000E+1  -0.000000E+0
 outer loop
  vertex -1.187816E+1 -1.511820E+1  0.237456E+2
  vertex -0.894143E+1 -1.511820E+1  0.200448E+2
  vertex -1.615199E+1 -1.511820E+1  0.203541E+2
 endloop
endfacet
facet normal  0.000000E+0  0.100000E+1  0.000000E+0
 outer loop
  vertex -1.615199E+1 -1.511820E+1  0.203541E+2
  vertex -0.894143E+1 -1.511820E+1  0.200448E+2
  vertex -1.321527E+1 -1.511820E+1  0.166533E+2
 endloop
endfacet
facet normal -0.062161E+1  0.000000E+0  0.078333E+1
 outer loop
  vertex -1.187816E+1 -1.984259E+1  0.237456E+2
  vertex -1.187816E+1 -1.511820E+1  0.237456E+2
  vertex -1.615199E+1 -1.984259E+1  0.203541E+2
 endloop
endfacet
facet normal -0.062161E+1  0.000000E+0  0.078333E+1
 outer loop
  vertex -1.615199E+1 -1.984259E+1  0.203541E+2
  vertex -1.187816E+1 -1.511820E+1  0.237456E+2
  vertex -1.615199E+1 -1.511820E+1  0.203541E+2
 endloop
endfacet
facet normal  0.000000E+0  0.100000E+1  -0.000000E+0
 outer loop
  vertex -1.481488E+1 -1.984259E+1  0.274463E+2
  vertex -1.187816E+1 -1.984259E+1  0.237456E+2
  vertex -1.908872E+1 -1.984259E+1  0.240548E+2
 endloop
endfacet
facet normal  0.000000E+0  0.100000E+1  0.000000E+0
 outer loop
  vertex -1.908872E+1 -1.984259E+1  0.240548E+2
  vertex -1.187816E+1 -1.984259E+1  0.237456E+2
  vertex -1.615199E+1 -1.984259E+1  0.203541E+2
 endloop
endfacet
facet normal -0.062161E+1  0.000000E+0  0.078333E+1
 outer loop
  vertex -1.481488E+1 -3.401575E+1  0.274463E+2
  vertex -1.481488E+1 -1.984259E+1  0.274463E+2
  vertex -1.908872E+1 -3.401575E+1  0.240548E+2
 endloop
endfacet
facet normal -0.062161E+1  0.000000E+0  0.078333E+1
 outer loop
  vertex -1.908872E+1 -3.401575E+1  0.240548E+2
  vertex -1.481488E+1 -1.984259E+1  0.274463E+2
  vertex -1.908872E+1 -1.984259E+1  0.240548E+2
 endloop
endfacet
facet normal  0.000000E+0 -0.100000E+1  0.000000E+0
 outer loop
  vertex -1.187816E+1 -3.401575E+1  0.237456E+2
  vertex -1.481488E+1 -3.401575E+1  0.274463E+2
  vertex -1.615199E+1 -3.401575E+1  0.203541E+2
 endloop
endfacet
facet normal  0.000000E+0 -0.100000E+1  -0.000000E+0
 outer loop
  vertex -1.615199E+1 -3.401575E+1  0.203541E+2
  vertex -1.481488E+1 -3.401575E+1  0.274463E+2
  vertex -1.908872E+1 -3.401575E+1  0.240548E+2
 endloop
endfacet
facet normal  0.062161E+1  0.000000E+0 -0.078333E+1
 outer loop
  vertex -1.187816E+1 -2.456697E+1  0.237456E+2
  vertex -1.187816E+1 -3.401575E+1  0.237456E+2
  vertex -1.615199E+1 -2.456697E+1  0.203541E+2
 endloop
endfacet
facet normal  0.062161E+1  0.000000E+0 -0.078333E+1
 outer loop
  vertex -1.615199E+1 -2.456697E+1  0.203541E+2
  vertex -1.187816E+1 -3.401575E+1  0.237456E+2
  vertex -1.615199E+1 -3.401575E+1  0.203541E+2
 endloop
endfacet
facet normal  0.000000E+0 -0.100000E+1  0.000000E+0
 outer loop
  vertex -0.894143E+1 -2.456697E+1  0.200448E+2
  vertex -1.187816E+1 -2.456697E+1  0.237456E+2
  vertex -1.321527E+1 -2.456697E+1  0.166533E+2
 endloop
endfacet
facet normal  0.000000E+0 -0.100000E+1  -0.000000E+0
 outer loop
  vertex -1.321527E+1 -2.456697E+1  0.166533E+2
  vertex -1.187816E+1 -2.456697E+1  0.237456E+2
  vertex -1.615199E+1 -2.456697E+1  0.203541E+2
 endloop
endfacet
facet normal -0.062161E+1  0.000000E+0  0.078333E+1
 outer loop
  vertex -0.894143E+1 -3.401575E+1  0.200448E+2
  vertex -0.894143E+1 -2.456697E+1  0.200448E+2
  vertex -1.321527E+1 -3.401575E+1  0.166533E+2
 endloop
endfacet
facet normal -0.062161E+1  0.000000E+0  0.078333E+1
 outer loop
  vertex -1.321527E+1 -3.401575E+1  0.166533E+2
  vertex -0.894143E+1 -2.456697E+1  0.200448E+2
  vertex -1.321527E+1 -2.456697E+1  0.166533E+2
 endloop
endfacet
facet normal  0.000000E+0 -0.100000E+1  0.000000E+0
 outer loop
  vertex -0.600471E+1 -3.401575E+1  0.163441E+2
  vertex -0.894143E+1 -3.401575E+1  0.200448E+2
  vertex -1.027854E+1 -3.401575E+1  0.129526E+2
 endloop
endfacet
facet normal  0.000000E+0 -0.100000E+1  -0.000000E+0
 outer loop
  vertex -1.027854E+1 -3.401575E+1  0.129526E+2
  vertex -0.894143E+1 -3.401575E+1  0.200448E+2
  vertex -1.321527E+1 -3.401575E+1  0.166533E+2
 endloop
endfacet
facet normal -0.062161E+1  0.000000E+0  0.078333E+1
 outer loop
  vertex -0.600471E+1 -3.874013E+1  0.163441E+2
  vertex -0.600471E+1 -3.401575E+1  0.163441E+2
  vertex -1.027854E+1 -3.874013E+1  0.129526E+2
 endloop
endfacet
facet normal -0.062161E+1  0.000000E+0  0.078333E+1
 outer loop
  vertex -1.027854E+1 -3.874013E+1  0.129526E+2
  vertex -0.600471E+1 -3.401575E+1  0.163441E+2
  vertex -1.027854E+1 -3.401575E+1  0.129526E+2
 endloop
endfacet
facet normal  0.000000E+0 -0.100000E+1  0.000000E+0
 outer loop
  vertex  0.280547E+1 -3.874013E+1  0.524187E+1
  vertex -0.600471E+1 -3.874013E+1  0.163441E+2
  vertex -0.146836E+1 -3.874013E+1  0.185037E+1
 endloop
endfacet
facet normal  0.000000E+0 -0.100000E+1  0.000000E+0
 outer loop
  vertex -0.146836E+1 -3.874013E+1  0.185037E+1
  vertex -0.600471E+1 -3.874013E+1  0.163441E+2
  vertex -1.027854E+1 -3.874013E+1  0.129526E+2
 endloop
endfacet
facet normal  0.062161E+1  0.000000E+0 -0.078333E+1
 outer loop
  vertex  0.280547E+1 -3.401575E+1  0.524187E+1
  vertex  0.280547E+1 -3.874013E+1  0.524187E+1
  vertex -0.146836E+1 -3.401575E+1  0.185037E+1
 endloop
endfacet
facet normal  0.062161E+1  0.000000E+0 -0.078333E+1
 outer loop
  vertex -0.146836E+1 -3.401575E+1  0.185037E+1
  vertex  0.280547E+1 -3.874013E+1  0.524187E+1
  vertex -0.146836E+1 -3.874013E+1  0.185037E+1
 endloop
endfacet
facet normal  0.000000E+0  0.100000E+1  -0.000000E+0
 outer loop
  vertex -0.306799E+1 -3.401575E+1  0.126434E+2
  vertex  0.280547E+1 -3.401575E+1  0.524187E+1
  vertex -0.734182E+1 -3.401575E+1  0.925185E+1
 endloop
endfacet
facet normal  0.000000E+0  0.100000E+1  0.000000E+0
 outer loop
  vertex -0.734182E+1 -3.401575E+1  0.925185E+1
  vertex  0.280547E+1 -3.401575E+1  0.524187E+1
  vertex -0.146836E+1 -3.401575E+1  0.185037E+1
 endloop
endfacet
facet normal  0.062162E+1  0.000000E+0 -0.078332E+1
 outer loop
  vertex -0.306799E+1 -2.929136E+1  0.126434E+2
  vertex -0.306799E+1 -3.401575E+1  0.126434E+2
  vertex -0.734182E+1 -2.929136E+1  0.925185E+1
 endloop
endfacet
facet normal  0.062162E+1  0.000000E+0 -0.078332E+1
 outer loop
  vertex -0.734182E+1 -2.929136E+1  0.925185E+1
  vertex -0.306799E+1 -3.401575E+1  0.126434E+2
  vertex -0.734182E+1 -3.401575E+1  0.925185E+1
 endloop
endfacet
facet normal  0.000000E+0 -0.100000E+1  0.000000E+0
 outer loop
  vertex  0.116156E+2 -2.929136E+1 -0.586035E+1
  vertex -0.306799E+1 -2.929136E+1  0.126434E+2
  vertex  0.734182E+1 -2.929136E+1 -0.925185E+1
 endloop
endfacet
facet normal  0.000000E+0 -0.100000E+1  0.000000E+0
 outer loop
  vertex  0.734182E+1 -2.929136E+1 -0.925185E+1
  vertex -0.306799E+1 -2.929136E+1  0.126434E+2
  vertex -0.734182E+1 -2.929136E+1  0.925185E+1
 endloop
endfacet
facet normal -0.062161E+1  0.000000E+0  0.078332E+1
 outer loop
  vertex  0.116156E+2 -3.401575E+1 -0.586035E+1
  vertex  0.116156E+2 -2.929136E+1 -0.586035E+1
  vertex  0.734182E+1 -3.401575E+1 -0.925185E+1
 endloop
endfacet
facet normal -0.062161E+1  0.000000E+0  0.078332E+1
 outer loop
  vertex  0.734182E+1 -3.401575E+1 -0.925185E+1
  vertex  0.116156E+2 -2.929136E+1 -0.586035E+1
  vertex  0.734182E+1 -2.929136E+1 -0.925185E+1
 endloop
endfacet
facet normal  0.000000E+0  0.100000E+1  -0.000000E+0
 outer loop
  vertex  0.574220E+1 -3.401575E+1  0.154113E+1
  vertex  0.116156E+2 -3.401575E+1 -0.586035E+1
  vertex  0.146836E+1 -3.401575E+1 -0.185037E+1
 endloop
endfacet
facet normal  0.000000E+0  0.100000E+1  0.000000E+0
 outer loop
  vertex  0.146836E+1 -3.401575E+1 -0.185037E+1
  vertex  0.116156E+2 -3.401575E+1 -0.586035E+1
  vertex  0.734182E+1 -3.401575E+1 -0.925185E+1
 endloop
endfacet
facet normal -0.062161E+1  0.000000E+0  0.078333E+1
 outer loop
  vertex  0.574220E+1 -3.874013E+1  0.154113E+1
  vertex  0.574220E+1 -3.401575E+1  0.154113E+1
  vertex  0.146836E+1 -3.874013E+1 -0.185037E+1
 endloop
endfacet
facet normal -0.062161E+1  0.000000E+0  0.078333E+1
 outer loop
  vertex  0.146836E+1 -3.874013E+1 -0.185037E+1
  vertex  0.574220E+1 -3.401575E+1  0.154113E+1
  vertex  0.146836E+1 -3.401575E+1 -0.185037E+1
 endloop
endfacet
facet normal  0.000000E+0 -0.100000E+1  0.000000E+0
 outer loop
  vertex  0.145524E+2 -3.874013E+1 -0.956108E+1
  vertex  0.574220E+1 -3.874013E+1  0.154113E+1
  vertex  0.102785E+2 -3.874013E+1 -1.295259E+1
 endloop
endfacet
facet normal  0.000000E+0 -0.100000E+1  0.000000E+0
 outer loop
  vertex  0.102785E+2 -3.874013E+1 -1.295259E+1
  vertex  0.574220E+1 -3.874013E+1  0.154113E+1
  vertex  0.146836E+1 -3.874013E+1 -0.185037E+1
 endloop
endfacet
facet normal  0.062160E+1  0.000000E+0 -0.078333E+1
 outer loop
  vertex  0.145524E+2 -3.401575E+1 -0.956108E+1
  vertex  0.145524E+2 -3.874013E+1 -0.956108E+1
  vertex  0.102785E+2 -3.401575E+1 -1.295259E+1
 endloop
endfacet
facet normal  0.062160E+1  0.000000E+0 -0.078333E+1
 outer loop
  vertex  0.102785E+2 -3.401575E+1 -1.295259E+1
  vertex  0.145524E+2 -3.874013E+1 -0.956108E+1
  vertex  0.102785E+2 -3.874013E+1 -1.295259E+1
 endloop
endfacet
facet normal  0.000000E+0 -0.100000E+1  0.000000E+0
 outer loop
  vertex  0.174891E+2 -3.401575E+1 -1.326182E+1
  vertex  0.145524E+2 -3.401575E+1 -0.956108E+1
  vertex  0.132153E+2 -3.401575E+1 -1.665333E+1
 endloop
endfacet
facet normal  0.000000E+0 -0.100000E+1  -0.000000E+0
 outer loop
  vertex  0.132153E+2 -3.401575E+1 -1.665333E+1
  vertex  0.145524E+2 -3.401575E+1 -0.956108E+1
  vertex  0.102785E+2 -3.401575E+1 -1.295259E+1
 endloop
endfacet
facet normal  0.062161E+1  0.000000E+0 -0.078332E+1
 outer loop
  vertex  0.174891E+2 -2.456697E+1 -1.326182E+1
  vertex  0.174891E+2 -3.401575E+1 -1.326182E+1
  vertex  0.132153E+2 -2.456697E+1 -1.665333E+1
 endloop
endfacet
facet normal  0.062161E+1  0.000000E+0 -0.078332E+1
 outer loop
  vertex  0.132153E+2 -2.456697E+1 -1.665333E+1
  vertex  0.174891E+2 -3.401575E+1 -1.326182E+1
  vertex  0.132153E+2 -3.401575E+1 -1.665333E+1
 endloop
endfacet
facet normal  0.000000E+0 -0.100000E+1  0.000000E+0
 outer loop
  vertex  0.204258E+2 -2.456697E+1 -1.696256E+1
  vertex  0.174891E+2 -2.456697E+1 -1.326182E+1
  vertex  0.161520E+2 -2.456697E+1 -2.035406E+1
 endloop
endfacet
facet normal  0.000000E+0 -0.100000E+1  -0.000000E+0
 outer loop
  vertex  0.161520E+2 -2.456697E+1 -2.035406E+1
  vertex  0.174891E+2 -2.456697E+1 -1.326182E+1
  vertex  0.132153E+2 -2.456697E+1 -1.665333E+1
 endloop
endfacet
facet normal -0.062161E+1  0.000000E+0  0.078333E+1
 outer loop
  vertex  0.204258E+2 -3.401575E+1 -1.696256E+1
  vertex  0.204258E+2 -2.456697E+1 -1.696256E+1
  vertex  0.161520E+2 -3.401575E+1 -2.035406E+1
 endloop
endfacet
facet normal -0.062161E+1  0.000000E+0  0.078333E+1
 outer loop
  vertex  0.161520E+2 -3.401575E+1 -2.035406E+1
  vertex  0.204258E+2 -2.456697E+1 -1.696256E+1
  vertex  0.161520E+2 -2.456697E+1 -2.035406E+1
 endloop
endfacet
facet normal  0.000000E+0 -0.100000E+1  0.000000E+0
 outer loop
  vertex  0.233625E+2 -3.401575E+1 -2.066330E+1
  vertex  0.204258E+2 -3.401575E+1 -1.696256E+1
  vertex  0.190887E+2 -3.401575E+1 -2.405480E+1
 endloop
endfacet
facet normal  0.000000E+0 -0.100000E+1  -0.000000E+0
 outer loop
  vertex  0.190887E+2 -3.401575E+1 -2.405480E+1
  vertex  0.204258E+2 -3.401575E+1 -1.696256E+1
  vertex  0.161520E+2 -3.401575E+1 -2.035406E+1
 endloop
endfacet
facet normal  0.062161E+1  0.000000E+0 -0.078332E+1
 outer loop
  vertex  0.233625E+2 -1.984259E+1 -2.066330E+1
  vertex  0.233625E+2 -3.401575E+1 -2.066330E+1
  vertex  0.190887E+2 -1.984259E+1 -2.405480E+1
 endloop
endfacet
facet normal  0.062161E+1  0.000000E+0 -0.078332E+1
 outer loop
  vertex  0.190887E+2 -1.984259E+1 -2.405480E+1
  vertex  0.233625E+2 -3.401575E+1 -2.066330E+1
  vertex  0.190887E+2 -3.401575E+1 -2.405480E+1
 endloop
endfacet
facet normal  0.000000E+0 -0.100000E+1  -0.000000E+0
 outer loop
  vertex -0.168538E+1 -1.511820E+1  0.770934E+1
  vertex -0.013126E+1 -1.511820E+1  0.894261E+1
  vertex -0.217008E+1 -1.511820E+1  0.832014E+1
 endloop
endfacet
facet normal  0.000000E+0 -0.100000E+1  -0.000000E+0
 outer loop
  vertex -0.217008E+1 -1.511820E+1  0.832014E+1
  vertex -0.013126E+1 -1.511820E+1  0.894261E+1
  vertex -0.306799E+1 -1.511820E+1  0.126434E+2
 endloop
endfacet
facet normal  0.000000E+0 -0.100000E+1  0.000000E+0
 outer loop
  vertex -0.217008E+1 -1.511820E+1  0.832014E+1
  vertex -0.306799E+1 -1.511820E+1  0.126434E+2
  vertex -0.488979E+1 -1.511820E+1  0.616191E+1
 endloop
endfacet
facet normal  0.000000E+0 -0.100000E+1  -0.000000E+0
 outer loop
  vertex -0.488979E+1 -1.511820E+1  0.616191E+1
  vertex -0.306799E+1 -1.511820E+1  0.126434E+2
  vertex -0.734182E+1 -1.511820E+1  0.925185E+1
 endloop
endfacet
facet normal  0.062162E+1  0.000000E+0 -0.078332E+1
 outer loop
  vertex -0.306799E+1 -1.511820E+1  0.126434E+2
  vertex -0.306799E+1 -1.984259E+1  0.126434E+2
  vertex -0.734182E+1 -1.511820E+1  0.925185E+1
 endloop
endfacet
facet normal  0.062162E+1  0.000000E+0 -0.078332E+1
 outer loop
  vertex -0.734182E+1 -1.511820E+1  0.925185E+1
  vertex -0.306799E+1 -1.984259E+1  0.126434E+2
  vertex -0.734182E+1 -1.984259E+1  0.925185E+1
 endloop
endfacet
facet normal  0.000000E+0  0.100000E+1  0.000000E+0
 outer loop
  vertex -0.570389E+1 -1.984259E+1  0.718781E+1
  vertex -0.734182E+1 -1.984259E+1  0.925185E+1
  vertex -0.298418E+1 -1.984259E+1  0.934604E+1
 endloop
endfacet
facet normal  -0.000000E+0  0.100000E+1  0.000000E+0
 outer loop
  vertex -0.298418E+1 -1.984259E+1  0.934604E+1
  vertex -0.734182E+1 -1.984259E+1  0.925185E+1
  vertex -0.306799E+1 -1.984259E+1  0.126434E+2
 endloop
endfacet
facet normal  0.000000E+0  0.100000E+1  0.000000E+0
 outer loop
  vertex -0.298418E+1 -1.984259E+1  0.934604E+1
  vertex -0.306799E+1 -1.984259E+1  0.126434E+2
  vertex -0.168538E+1 -1.984259E+1  0.770934E+1
 endloop
endfacet
facet normal  0.000000E+0  0.100000E+1  0.000000E+0
 outer loop
  vertex -0.168538E+1 -1.984259E+1  0.770934E+1
  vertex -0.306799E+1 -1.984259E+1  0.126434E+2
  vertex -0.013126E+1 -1.984259E+1  0.894261E+1
 endloop
endfacet
facet normal -0.062161E+1  0.000000E+0  0.078332E+1
 outer loop
  vertex  0.116156E+2 -1.984259E+1 -0.586035E+1
  vertex  0.116156E+2 -1.511820E+1 -0.586035E+1
  vertex  0.734182E+1 -1.984259E+1 -0.925185E+1
 endloop
endfacet
facet normal -0.062161E+1  0.000000E+0  0.078332E+1
 outer loop
  vertex  0.734182E+1 -1.984259E+1 -0.925185E+1
  vertex  0.116156E+2 -1.511820E+1 -0.586035E+1
  vertex  0.734182E+1 -1.511820E+1 -0.925185E+1
 endloop
endfacet
facet normal  -0.000000E+0 -0.100000E+1  0.000000E+0
 outer loop
  vertex  0.488979E+1 -1.511820E+1 -0.616191E+1
  vertex  0.734182E+1 -1.511820E+1 -0.925185E+1
  vertex  0.760950E+1 -1.511820E+1 -0.400368E+1
 endloop
endfacet
facet normal  0.000000E+0 -0.100000E+1  0.000000E+0
 outer loop
  vertex  0.760950E+1 -1.511820E+1 -0.400368E+1
  vertex  0.734182E+1 -1.511820E+1 -0.925185E+1
  vertex  0.116156E+2 -1.511820E+1 -0.586035E+1
 endloop
endfacet
facet normal  -0.000000E+0 -0.100000E+1  -0.000000E+0
 outer loop
  vertex  0.760950E+1 -1.511820E+1 -0.400368E+1
  vertex  0.116156E+2 -1.511820E+1 -0.586035E+1
  vertex  0.712480E+1 -1.511820E+1 -0.339288E+1
 endloop
endfacet
facet normal  -0.000000E+0 -0.100000E+1  0.000000E+0
 outer loop
  vertex  0.712480E+1 -1.511820E+1 -0.339288E+1
  vertex  0.116156E+2 -1.511820E+1 -0.586035E+1
  vertex  0.867892E+1 -1.511820E+1 -0.215960E+1
 endloop
endfacet
facet normal  0.000000E+0  0.100000E+1  0.000000E+0
 outer loop
  vertex  0.712480E+1 -1.984259E+1 -0.339288E+1
  vertex  0.867892E+1 -1.984259E+1 -0.215960E+1
  vertex  0.842360E+1 -1.984259E+1 -0.502958E+1
 endloop
endfacet
facet normal  0.000000E+0  0.100000E+1  0.000000E+0
 outer loop
  vertex  0.842360E+1 -1.984259E+1 -0.502958E+1
  vertex  0.867892E+1 -1.984259E+1 -0.215960E+1
  vertex  0.116156E+2 -1.984259E+1 -0.586035E+1
 endloop
endfacet
facet normal  0.000000E+0  0.100000E+1  -0.000000E+0
 outer loop
  vertex  0.842360E+1 -1.984259E+1 -0.502958E+1
  vertex  0.116156E+2 -1.984259E+1 -0.586035E+1
  vertex  0.570389E+1 -1.984259E+1 -0.718781E+1
 endloop
endfacet
facet normal  0.000000E+0  0.100000E+1  0.000000E+0
 outer loop
  vertex  0.570389E+1 -1.984259E+1 -0.718781E+1
  vertex  0.116156E+2 -1.984259E+1 -0.586035E+1
  vertex  0.734182E+1 -1.984259E+1 -0.925185E+1
 endloop
endfacet
facet normal  0.050349E+1 -0.058646E+1 -0.063448E+1
 outer loop
  vertex -0.217008E+1 -1.511820E+1  0.832014E+1
  vertex -0.488979E+1 -1.511820E+1  0.616191E+1
  vertex -0.431628E+1 -1.384394E+1  0.543920E+1
 endloop
endfacet
facet normal  0.050349E+1 -0.058646E+1 -0.063448E+1
 outer loop
  vertex -0.217008E+1 -1.511820E+1  0.832014E+1
  vertex -0.431628E+1 -1.384394E+1  0.543920E+1
  vertex -0.159657E+1 -1.384394E+1  0.759743E+1
 endloop
endfacet
facet normal  0.043382E+1 -0.071619E+1 -0.054668E+1
 outer loop
  vertex -0.159657E+1 -1.384394E+1  0.759743E+1
  vertex -0.431628E+1 -1.384394E+1  0.543920E+1
  vertex -0.361590E+1 -1.274600E+1  0.455661E+1
 endloop
endfacet
facet normal  0.043382E+1 -0.071619E+1 -0.054668E+1
 outer loop
  vertex -0.159657E+1 -1.384394E+1  0.759743E+1
  vertex -0.361590E+1 -1.274600E+1  0.455661E+1
  vertex -0.089619E+1 -1.274600E+1  0.671484E+1
 endloop
endfacet
facet normal  0.035140E+1 -0.082488E+1 -0.044282E+1
 outer loop
  vertex -0.089619E+1 -1.274600E+1  0.671484E+1
  vertex -0.361590E+1 -1.274600E+1  0.455661E+1
  vertex -0.280924E+1 -1.185666E+1  0.354008E+1
 endloop
endfacet
facet normal  0.035140E+1 -0.082488E+1 -0.044282E+1
 outer loop
  vertex -0.089619E+1 -1.274600E+1  0.671484E+1
  vertex -0.280924E+1 -1.185666E+1  0.354008E+1
  vertex -0.008953E+1 -1.185666E+1  0.569831E+1
 endloop
endfacet
facet normal  0.025865E+1 -0.090932E+1 -0.032593E+1
 outer loop
  vertex -0.008953E+1 -1.185666E+1  0.569831E+1
  vertex -0.280924E+1 -1.185666E+1  0.354008E+1
  vertex -0.192000E+1 -1.120207E+1  0.241950E+1
 endloop
endfacet
facet normal  0.025864E+1 -0.090932E+1 -0.032593E+1
 outer loop
  vertex -0.008953E+1 -1.185666E+1  0.569831E+1
  vertex -0.192000E+1 -1.120207E+1  0.241950E+1
  vertex  0.079972E+1 -1.120207E+1  0.457773E+1
 endloop
endfacet
facet normal  0.015829E+1 -0.096703E+1 -0.019948E+1
 outer loop
  vertex  0.079972E+1 -1.120207E+1  0.457773E+1
  vertex -0.192000E+1 -1.120207E+1  0.241950E+1
  vertex -0.097432E+1 -1.080145E+1  0.122779E+1
 endloop
endfacet
facet normal  0.015829E+1 -0.096703E+1 -0.019948E+1
 outer loop
  vertex  0.079972E+1 -1.120207E+1  0.457773E+1
  vertex -0.097432E+1 -1.080145E+1  0.122779E+1
  vertex  0.174539E+1 -1.080145E+1  0.338602E+1
 endloop
endfacet
facet normal  5.328655E-2 -0.099632E+1 -0.006715E+1
 outer loop
  vertex  0.174539E+1 -1.080145E+1  0.338602E+1
  vertex -0.097432E+1 -1.080145E+1  0.122779E+1
  vertex  6.929113E-16 -1.066659E+1  5.498605E-16
 endloop
endfacet
facet normal  5.328657E-2 -0.099632E+1 -0.006715E+1
 outer loop
  vertex  0.174539E+1 -1.080145E+1  0.338602E+1
  vertex  6.929113E-16 -1.066659E+1  5.498605E-16
  vertex  0.271971E+1 -1.066659E+1  0.215823E+1
 endloop
endfacet
facet normal -0.005329E+1 -0.099632E+1  6.714913E-2
 outer loop
  vertex  0.271971E+1 -1.066659E+1  0.215823E+1
  vertex  6.929113E-16 -1.066659E+1  5.498605E-16
  vertex  0.097432E+1 -1.080145E+1 -0.122780E+1
 endloop
endfacet
facet normal -0.005329E+1 -0.099632E+1  6.714913E-2
 outer loop
  vertex  0.271971E+1 -1.066659E+1  0.215823E+1
  vertex  0.097432E+1 -1.080145E+1 -0.122780E+1
  vertex  0.369403E+1 -1.080145E+1  0.093043E+1
 endloop
endfacet
facet normal -0.015830E+1 -0.096703E+1  0.019948E+1
 outer loop
  vertex  0.369403E+1 -1.080145E+1  0.093043E+1
  vertex  0.097432E+1 -1.080145E+1 -0.122780E+1
  vertex  0.192000E+1 -1.120207E+1 -0.241950E+1
 endloop
endfacet
facet normal -0.015830E+1 -0.096703E+1  0.019948E+1
 outer loop
  vertex  0.369403E+1 -1.080145E+1  0.093043E+1
  vertex  0.192000E+1 -1.120207E+1 -0.241950E+1
  vertex  0.463971E+1 -1.120207E+1 -0.026127E+1
 endloop
endfacet
facet normal -0.025865E+1 -0.090932E+1  0.032593E+1
 outer loop
  vertex  0.463971E+1 -1.120207E+1 -0.026127E+1
  vertex  0.192000E+1 -1.120207E+1 -0.241950E+1
  vertex  0.280924E+1 -1.185666E+1 -0.354008E+1
 endloop
endfacet
facet normal -0.025865E+1 -0.090932E+1  0.032593E+1
 outer loop
  vertex  0.463971E+1 -1.120207E+1 -0.026127E+1
  vertex  0.280924E+1 -1.185666E+1 -0.354008E+1
  vertex  0.552895E+1 -1.185666E+1 -0.138185E+1
 endloop
endfacet
facet normal -0.035140E+1 -0.082488E+1  0.044282E+1
 outer loop
  vertex  0.552895E+1 -1.185666E+1 -0.138185E+1
  vertex  0.280924E+1 -1.185666E+1 -0.354008E+1
  vertex  0.361590E+1 -1.274600E+1 -0.455661E+1
 endloop
endfacet
facet normal -0.035140E+1 -0.082488E+1  0.044282E+1
 outer loop
  vertex  0.552895E+1 -1.185666E+1 -0.138185E+1
  vertex  0.361590E+1 -1.274600E+1 -0.455661E+1
  vertex  0.633562E+1 -1.274600E+1 -0.239838E+1
 endloop
endfacet
facet normal -0.043382E+1 -0.071619E+1  0.054669E+1
 outer loop
  vertex  0.633562E+1 -1.274600E+1 -0.239838E+1
  vertex  0.361590E+1 -1.274600E+1 -0.455661E+1
  vertex  0.431628E+1 -1.384394E+1 -0.543920E+1
 endloop
endfacet
facet normal -0.043382E+1 -0.071619E+1  0.054669E+1
 outer loop
  vertex  0.633562E+1 -1.274600E+1 -0.239838E+1
  vertex  0.431628E+1 -1.384394E+1 -0.543920E+1
  vertex  0.703599E+1 -1.384394E+1 -0.328097E+1
 endloop
endfacet
facet normal -0.050349E+1 -0.058646E+1  0.063448E+1
 outer loop
  vertex  0.703599E+1 -1.384394E+1 -0.328097E+1
  vertex  0.431628E+1 -1.384394E+1 -0.543920E+1
  vertex  0.488979E+1 -1.511820E+1 -0.616191E+1
 endloop
endfacet
facet normal -0.050349E+1 -0.058646E+1  0.063448E+1
 outer loop
  vertex  0.703599E+1 -1.384394E+1 -0.328097E+1
  vertex  0.488979E+1 -1.511820E+1 -0.616191E+1
  vertex  0.760950E+1 -1.511820E+1 -0.400368E+1
 endloop
endfacet
facet normal -0.061949E+1  8.258180E-2  0.078065E+1
 outer loop
  vertex  0.842360E+1 -1.984259E+1 -0.502958E+1
  vertex  0.570389E+1 -1.984259E+1 -0.718781E+1
  vertex  0.562610E+1 -2.135291E+1 -0.708977E+1
 endloop
endfacet
facet normal -0.061949E+1  8.258202E-2  0.078065E+1
 outer loop
  vertex  0.842360E+1 -1.984259E+1 -0.502958E+1
  vertex  0.562610E+1 -2.135291E+1 -0.708977E+1
  vertex  0.834581E+1 -2.135291E+1 -0.493154E+1
 endloop
endfacet
facet normal -0.060259E+1  0.024548E+1  0.075936E+1
 outer loop
  vertex  0.834581E+1 -2.135291E+1 -0.493154E+1
  vertex  0.562610E+1 -2.135291E+1 -0.708977E+1
  vertex  0.539484E+1 -2.282203E+1 -0.679835E+1
 endloop
endfacet
facet normal -0.060259E+1  0.024548E+1  0.075936E+1
 outer loop
  vertex  0.834581E+1 -2.135291E+1 -0.493154E+1
  vertex  0.539484E+1 -2.282203E+1 -0.679835E+1
  vertex  0.811455E+1 -2.282203E+1 -0.464012E+1
 endloop
endfacet
facet normal -0.056925E+1  0.040169E+1  0.071735E+1
 outer loop
  vertex  0.811455E+1 -2.282203E+1 -0.464012E+1
  vertex  0.539484E+1 -2.282203E+1 -0.679835E+1
  vertex  0.501642E+1 -2.420988E+1 -0.632149E+1
 endloop
endfacet
facet normal -0.056925E+1  0.040169E+1  0.071735E+1
 outer loop
  vertex  0.811455E+1 -2.282203E+1 -0.464012E+1
  vertex  0.501642E+1 -2.420988E+1 -0.632149E+1
  vertex  0.773614E+1 -2.420988E+1 -0.416326E+1
 endloop
endfacet
facet normal -0.052039E+1  0.054695E+1  0.065578E+1
 outer loop
  vertex  0.773614E+1 -2.420988E+1 -0.416326E+1
  vertex  0.501642E+1 -2.420988E+1 -0.632149E+1
  vertex  0.450117E+1 -2.547860E+1 -0.567219E+1
 endloop
endfacet
facet normal -0.052039E+1  0.054695E+1  0.065577E+1
 outer loop
  vertex  0.773614E+1 -2.420988E+1 -0.416326E+1
  vertex  0.450117E+1 -2.547860E+1 -0.567219E+1
  vertex  0.722088E+1 -2.547860E+1 -0.351396E+1
 endloop
endfacet
facet normal -0.045733E+1  0.067728E+1  0.057631E+1
 outer loop
  vertex  0.722088E+1 -2.547860E+1 -0.351396E+1
  vertex  0.450117E+1 -2.547860E+1 -0.567219E+1
  vertex  0.386314E+1 -2.659359E+1 -0.486817E+1
 endloop
endfacet
facet normal -0.045733E+1  0.067728E+1  0.057631E+1
 outer loop
  vertex  0.722088E+1 -2.547860E+1 -0.351396E+1
  vertex  0.386314E+1 -2.659359E+1 -0.486817E+1
  vertex  0.658285E+1 -2.659359E+1 -0.270994E+1
 endloop
endfacet
facet normal -0.038180E+1  0.078914E+1  0.048113E+1
 outer loop
  vertex  0.658285E+1 -2.659359E+1 -0.270994E+1
  vertex  0.386314E+1 -2.659359E+1 -0.486817E+1
  vertex  0.311974E+1 -2.752443E+1 -0.393136E+1
 endloop
endfacet
facet normal -0.038180E+1  0.078914E+1  0.048113E+1
 outer loop
  vertex  0.658285E+1 -2.659359E+1 -0.270994E+1
  vertex  0.311974E+1 -2.752443E+1 -0.393136E+1
  vertex  0.583945E+1 -2.752443E+1 -0.177313E+1
 endloop
endfacet
facet normal -0.029585E+1  0.087947E+1  0.037282E+1
 outer loop
  vertex  0.583945E+1 -2.752443E+1 -0.177313E+1
  vertex  0.311974E+1 -2.752443E+1 -0.393136E+1
  vertex  0.229123E+1 -2.824573E+1 -0.288731E+1
 endloop
endfacet
facet normal -0.029585E+1  0.087947E+1  0.037282E+1
 outer loop
  vertex  0.583945E+1 -2.752443E+1 -0.177313E+1
  vertex  0.229123E+1 -2.824573E+1 -0.288731E+1
  vertex  0.501094E+1 -2.824573E+1 -0.072908E+1
 endloop
endfacet
facet normal -0.020183E+1  0.094582E+1  0.025434E+1
 outer loop
  vertex  0.501094E+1 -2.824573E+1 -0.072908E+1
  vertex  0.229123E+1 -2.824573E+1 -0.288731E+1
  vertex  0.140022E+1 -2.873780E+1 -0.176450E+1
 endloop
endfacet
facet normal -0.020183E+1  0.094582E+1  0.025434E+1
 outer loop
  vertex  0.501094E+1 -2.824573E+1 -0.072908E+1
  vertex  0.140022E+1 -2.873780E+1 -0.176450E+1
  vertex  0.411993E+1 -2.873780E+1  0.039373E+1
 endloop
endfacet
facet normal -0.010232E+1  0.098636E+1  0.012893E+1
 outer loop
  vertex  0.411993E+1 -2.873780E+1  0.039373E+1
  vertex  0.140022E+1 -2.873780E+1 -0.176450E+1
  vertex  0.047102E+1 -2.898725E+1 -0.059356E+1
 endloop
endfacet
facet normal -0.010232E+1  0.098636E+1  0.012893E+1
 outer loop
  vertex  0.411993E+1 -2.873780E+1  0.039373E+1
  vertex  0.047102E+1 -2.898725E+1 -0.059356E+1
  vertex  0.319073E+1 -2.898725E+1  0.156467E+1
 endloop
endfacet
facet normal  0.000000E+0  0.100000E+1  0.000000E+0
 outer loop
  vertex  0.319073E+1 -2.898725E+1  0.156467E+1
  vertex  0.047102E+1 -2.898725E+1 -0.059356E+1
  vertex -0.047102E+1 -2.898725E+1  0.059356E+1
 endloop
endfacet
facet normal  -0.000000E+0  0.100000E+1  0.000000E+0
 outer loop
  vertex  0.319073E+1 -2.898725E+1  0.156467E+1
  vertex -0.047102E+1 -2.898725E+1  0.059356E+1
  vertex  0.224869E+1 -2.898725E+1  0.275179E+1
 endloop
endfacet
facet normal  0.010232E+1  0.098636E+1 -0.012893E+1
 outer loop
  vertex  0.224869E+1 -2.898725E+1  0.275179E+1
  vertex -0.047102E+1 -2.898725E+1  0.059356E+1
  vertex -0.140022E+1 -2.873780E+1  0.176450E+1
 endloop
endfacet
facet normal  0.010232E+1  0.098636E+1 -0.012893E+1
 outer loop
  vertex  0.224869E+1 -2.898725E+1  0.275179E+1
  vertex -0.140022E+1 -2.873780E+1  0.176450E+1
  vertex  0.131949E+1 -2.873780E+1  0.392273E+1
 endloop
endfacet
facet normal  0.020183E+1  0.094582E+1 -0.025434E+1
 outer loop
  vertex  0.131949E+1 -2.873780E+1  0.392273E+1
  vertex -0.140022E+1 -2.873780E+1  0.176450E+1
  vertex -0.229123E+1 -2.824573E+1  0.288731E+1
 endloop
endfacet
facet normal  0.020183E+1  0.094582E+1 -0.025434E+1
 outer loop
  vertex  0.131949E+1 -2.873780E+1  0.392273E+1
  vertex -0.229123E+1 -2.824573E+1  0.288731E+1
  vertex  0.042848E+1 -2.824573E+1  0.504554E+1
 endloop
endfacet
facet normal  0.029586E+1  0.087947E+1 -0.037282E+1
 outer loop
  vertex  0.042848E+1 -2.824573E+1  0.504554E+1
  vertex -0.229123E+1 -2.824573E+1  0.288731E+1
  vertex -0.311973E+1 -2.752443E+1  0.393136E+1
 endloop
endfacet
facet normal  0.029586E+1  0.087947E+1 -0.037282E+1
 outer loop
  vertex  0.042848E+1 -2.824573E+1  0.504554E+1
  vertex -0.311973E+1 -2.752443E+1  0.393136E+1
  vertex -0.040002E+1 -2.752443E+1  0.608959E+1
 endloop
endfacet
facet normal  0.038180E+1  0.078914E+1 -0.048113E+1
 outer loop
  vertex -0.040002E+1 -2.752443E+1  0.608959E+1
  vertex -0.311973E+1 -2.752443E+1  0.393136E+1
  vertex -0.386314E+1 -2.659359E+1  0.486817E+1
 endloop
endfacet
facet normal  0.038180E+1  0.078914E+1 -0.048113E+1
 outer loop
  vertex -0.040002E+1 -2.752443E+1  0.608959E+1
  vertex -0.386314E+1 -2.659359E+1  0.486817E+1
  vertex -0.114343E+1 -2.659359E+1  0.702640E+1
 endloop
endfacet
facet normal  0.045733E+1  0.067728E+1 -0.057631E+1
 outer loop
  vertex -0.114343E+1 -2.659359E+1  0.702640E+1
  vertex -0.386314E+1 -2.659359E+1  0.486817E+1
  vertex -0.450117E+1 -2.547860E+1  0.567219E+1
 endloop
endfacet
facet normal  0.045733E+1  0.067728E+1 -0.057631E+1
 outer loop
  vertex -0.114343E+1 -2.659359E+1  0.702640E+1
  vertex -0.450117E+1 -2.547860E+1  0.567219E+1
  vertex -0.178146E+1 -2.547860E+1  0.783042E+1
 endloop
endfacet
facet normal  0.052039E+1  0.054695E+1 -0.065577E+1
 outer loop
  vertex -0.178146E+1 -2.547860E+1  0.783042E+1
  vertex -0.450117E+1 -2.547860E+1  0.567219E+1
  vertex -0.501642E+1 -2.420988E+1  0.632149E+1
 endloop
endfacet
facet normal  0.052039E+1  0.054695E+1 -0.065577E+1
 outer loop
  vertex -0.178146E+1 -2.547860E+1  0.783042E+1
  vertex -0.501642E+1 -2.420988E+1  0.632149E+1
  vertex -0.229671E+1 -2.420988E+1  0.847972E+1
 endloop
endfacet
facet normal  0.056925E+1  0.040169E+1 -0.071735E+1
 outer loop
  vertex -0.229671E+1 -2.420988E+1  0.847972E+1
  vertex -0.501642E+1 -2.420988E+1  0.632149E+1
  vertex -0.539484E+1 -2.282203E+1  0.679835E+1
 endloop
endfacet
facet normal  0.056925E+1  0.040169E+1 -0.071735E+1
 outer loop
  vertex -0.229671E+1 -2.420988E+1  0.847972E+1
  vertex -0.539484E+1 -2.282203E+1  0.679835E+1
  vertex -0.267513E+1 -2.282203E+1  0.895658E+1
 endloop
endfacet
facet normal  0.060259E+1  0.024548E+1 -0.075936E+1
 outer loop
  vertex -0.267513E+1 -2.282203E+1  0.895658E+1
  vertex -0.539484E+1 -2.282203E+1  0.679835E+1
  vertex -0.562610E+1 -2.135291E+1  0.708977E+1
 endloop
endfacet
facet normal  0.060259E+1  0.024548E+1 -0.075936E+1
 outer loop
  vertex -0.267513E+1 -2.282203E+1  0.895658E+1
  vertex -0.562610E+1 -2.135291E+1  0.708977E+1
  vertex -0.290639E+1 -2.135291E+1  0.924800E+1
 endloop
endfacet
facet normal  0.061949E+1  8.258180E-2 -0.078065E+1
 outer loop
  vertex -0.290639E+1 -2.135291E+1  0.924800E+1
  vertex -0.562610E+1 -2.135291E+1  0.708977E+1
  vertex -0.570389E+1 -1.984259E+1  0.718781E+1
 endloop
endfacet
facet normal  0.061949E+1  8.258167E-2 -0.078065E+1
 outer loop
  vertex -0.290639E+1 -2.135291E+1  0.924800E+1
  vertex -0.570389E+1 -1.984259E+1  0.718781E+1
  vertex -0.298418E+1 -1.984259E+1  0.934604E+1
 endloop
endfacet
facet normal -0.078333E+1 -0.000000E+1 -0.062161E+1
 outer loop
  vertex  0.703599E+1 -1.384394E+1 -0.328097E+1
  vertex  0.760950E+1 -1.511820E+1 -0.400368E+1
  vertex  0.712480E+1 -1.511820E+1 -0.339288E+1
 endloop
endfacet
facet normal -0.078333E+1  4.740891E-6 -0.062161E+1
 outer loop
  vertex -0.290639E+1 -2.135291E+1  0.924800E+1
  vertex -0.298418E+1 -1.984259E+1  0.934604E+1
  vertex -0.168538E+1 -1.984259E+1  0.770934E+1
 endloop
endfacet
facet normal -0.078332E+1  2.650510E-5 -0.062162E+1
 outer loop
  vertex  0.633562E+1 -1.274600E+1 -0.239838E+1
  vertex  0.703599E+1 -1.384394E+1 -0.328097E+1
  vertex  0.552895E+1 -1.185666E+1 -0.138185E+1
 endloop
endfacet
facet normal -0.078333E+1 -0.000000E+1 -0.062161E+1
 outer loop
  vertex  0.552895E+1 -1.185666E+1 -0.138185E+1
  vertex  0.703599E+1 -1.384394E+1 -0.328097E+1
  vertex  0.712480E+1 -1.511820E+1 -0.339288E+1
 endloop
endfacet
facet normal -0.078332E+1  3.793618E-6 -0.062161E+1
 outer loop
  vertex  0.552895E+1 -1.185666E+1 -0.138185E+1
  vertex  0.712480E+1 -1.511820E+1 -0.339288E+1
  vertex  0.463971E+1 -1.120207E+1 -0.026127E+1
 endloop
endfacet
facet normal -0.078333E+1  0.000000E+0 -0.062161E+1
 outer loop
  vertex  0.463971E+1 -1.120207E+1 -0.026127E+1
  vertex  0.712480E+1 -1.511820E+1 -0.339288E+1
  vertex  0.712480E+1 -1.984259E+1 -0.339288E+1
 endloop
endfacet
facet normal -0.078333E+1 -0.000000E+1 -0.062161E+1
 outer loop
  vertex  0.842360E+1 -1.984259E+1 -0.502958E+1
  vertex  0.834581E+1 -2.135291E+1 -0.493154E+1
  vertex  0.712480E+1 -1.984259E+1 -0.339288E+1
 endloop
endfacet
facet normal -0.078333E+1  1.244779E-6 -0.062161E+1
 outer loop
  vertex  0.712480E+1 -1.984259E+1 -0.339288E+1
  vertex  0.834581E+1 -2.135291E+1 -0.493154E+1
  vertex  0.811455E+1 -2.282203E+1 -0.464012E+1
 endloop
endfacet
facet normal -0.078333E+1  9.195047E-7 -0.062161E+1
 outer loop
  vertex  0.131949E+1 -2.873780E+1  0.392273E+1
  vertex  0.042848E+1 -2.824573E+1  0.504554E+1
  vertex -0.168538E+1 -1.984259E+1  0.770934E+1
 endloop
endfacet
facet normal -0.078333E+1 -0.000000E+1 -0.062161E+1
 outer loop
  vertex -0.168538E+1 -1.984259E+1  0.770934E+1
  vertex  0.042848E+1 -2.824573E+1  0.504554E+1
  vertex -0.040002E+1 -2.752443E+1  0.608959E+1
 endloop
endfacet
facet normal -0.078333E+1  3.282991E-8 -0.062161E+1
 outer loop
  vertex -0.168538E+1 -1.984259E+1  0.770934E+1
  vertex -0.040002E+1 -2.752443E+1  0.608959E+1
  vertex -0.114343E+1 -2.659359E+1  0.702640E+1
 endloop
endfacet
facet normal -0.078333E+1  2.429525E-6 -0.062161E+1
 outer loop
  vertex -0.217008E+1 -1.511820E+1  0.832014E+1
  vertex -0.159657E+1 -1.384394E+1  0.759743E+1
  vertex -0.168538E+1 -1.511820E+1  0.770934E+1
 endloop
endfacet
facet normal -0.078333E+1  2.644952E-6 -0.062161E+1
 outer loop
  vertex -0.168538E+1 -1.511820E+1  0.770934E+1
  vertex -0.159657E+1 -1.384394E+1  0.759743E+1
  vertex -0.089619E+1 -1.274600E+1  0.671484E+1
 endloop
endfacet
facet normal -0.078332E+1  1.143126E-6 -0.062162E+1
 outer loop
  vertex -0.267513E+1 -2.282203E+1  0.895658E+1
  vertex -0.290639E+1 -2.135291E+1  0.924800E+1
  vertex -0.229671E+1 -2.420988E+1  0.847972E+1
 endloop
endfacet
facet normal -0.078332E+1 -0.000000E+1 -0.062161E+1
 outer loop
  vertex -0.229671E+1 -2.420988E+1  0.847972E+1
  vertex -0.290639E+1 -2.135291E+1  0.924800E+1
  vertex -0.168538E+1 -1.984259E+1  0.770934E+1
 endloop
endfacet
facet normal -0.078333E+1 -0.000000E+1 -0.062161E+1
 outer loop
  vertex -0.229671E+1 -2.420988E+1  0.847972E+1
  vertex -0.168538E+1 -1.984259E+1  0.770934E+1
  vertex -0.178146E+1 -2.547860E+1  0.783042E+1
 endloop
endfacet
facet normal -0.078333E+1 -0.000000E+1 -0.062161E+1
 outer loop
  vertex -0.178146E+1 -2.547860E+1  0.783042E+1
  vertex -0.168538E+1 -1.984259E+1  0.770934E+1
  vertex -0.114343E+1 -2.659359E+1  0.702640E+1
 endloop
endfacet
facet normal -0.078333E+1 -0.000000E+1 -0.062161E+1
 outer loop
  vertex  0.369403E+1 -1.080145E+1  0.093043E+1
  vertex  0.463971E+1 -1.120207E+1 -0.026127E+1
  vertex  0.131949E+1 -2.873780E+1  0.392273E+1
 endloop
endfacet
facet normal -0.078333E+1  1.476572E-7 -0.062161E+1
 outer loop
  vertex  0.131949E+1 -2.873780E+1  0.392273E+1
  vertex  0.463971E+1 -1.120207E+1 -0.026127E+1
  vertex  0.712480E+1 -1.984259E+1 -0.339288E+1
 endloop
endfacet
facet normal -0.078333E+1  3.356621E-7 -0.062161E+1
 outer loop
  vertex  0.131949E+1 -2.873780E+1  0.392273E+1
  vertex  0.712480E+1 -1.984259E+1 -0.339288E+1
  vertex  0.224869E+1 -2.898725E+1  0.275179E+1
 endloop
endfacet
facet normal -0.078333E+1 -0.000000E+1 -0.062161E+1
 outer loop
  vertex  0.224869E+1 -2.898725E+1  0.275179E+1
  vertex  0.712480E+1 -1.984259E+1 -0.339288E+1
  vertex  0.811455E+1 -2.282203E+1 -0.464012E+1
 endloop
endfacet
facet normal -0.078333E+1  3.572465E-7 -0.062161E+1
 outer loop
  vertex  0.224869E+1 -2.898725E+1  0.275179E+1
  vertex  0.811455E+1 -2.282203E+1 -0.464012E+1
  vertex  0.319073E+1 -2.898725E+1  0.156467E+1
 endloop
endfacet
facet normal -0.078333E+1 -0.000000E+1 -0.062161E+1
 outer loop
  vertex  0.319073E+1 -2.898725E+1  0.156467E+1
  vertex  0.811455E+1 -2.282203E+1 -0.464012E+1
  vertex  0.773614E+1 -2.420988E+1 -0.416326E+1
 endloop
endfacet
facet normal -0.078333E+1  1.972885E-6 -0.062161E+1
 outer loop
  vertex  0.319073E+1 -2.898725E+1  0.156467E+1
  vertex  0.773614E+1 -2.420988E+1 -0.416326E+1
  vertex  0.411993E+1 -2.873780E+1  0.039373E+1
 endloop
endfacet
facet normal -0.078333E+1  7.624059E-6 -0.062161E+1
 outer loop
  vertex  0.411993E+1 -2.873780E+1  0.039373E+1
  vertex  0.773614E+1 -2.420988E+1 -0.416326E+1
  vertex  0.722088E+1 -2.547860E+1 -0.351396E+1
 endloop
endfacet
facet normal -0.078332E+1 -0.000001E+1 -0.062161E+1
 outer loop
  vertex  0.411993E+1 -2.873780E+1  0.039373E+1
  vertex  0.722088E+1 -2.547860E+1 -0.351396E+1
  vertex  0.501094E+1 -2.824573E+1 -0.072908E+1
 endloop
endfacet
facet normal -0.078333E+1  1.272949E-6 -0.062161E+1
 outer loop
  vertex  0.501094E+1 -2.824573E+1 -0.072908E+1
  vertex  0.722088E+1 -2.547860E+1 -0.351396E+1
  vertex  0.658285E+1 -2.659359E+1 -0.270994E+1
 endloop
endfacet
facet normal -0.078332E+1 -0.000002E+1 -0.062162E+1
 outer loop
  vertex  0.501094E+1 -2.824573E+1 -0.072908E+1
  vertex  0.658285E+1 -2.659359E+1 -0.270994E+1
  vertex  0.583945E+1 -2.752443E+1 -0.177313E+1
 endloop
endfacet
facet normal -0.078333E+1  1.082627E-7 -0.062161E+1
 outer loop
  vertex  0.369403E+1 -1.080145E+1  0.093043E+1
  vertex  0.131949E+1 -2.873780E+1  0.392273E+1
  vertex  0.271971E+1 -1.066659E+1  0.215823E+1
 endloop
endfacet
facet normal -0.078333E+1 -0.000000E+1 -0.062161E+1
 outer loop
  vertex  0.271971E+1 -1.066659E+1  0.215823E+1
  vertex  0.131949E+1 -2.873780E+1  0.392273E+1
  vertex -0.168538E+1 -1.984259E+1  0.770934E+1
 endloop
endfacet
facet normal -0.078332E+1 -0.000000E+1 -0.062161E+1
 outer loop
  vertex  0.271971E+1 -1.066659E+1  0.215823E+1
  vertex -0.168538E+1 -1.984259E+1  0.770934E+1
  vertex  0.174539E+1 -1.080145E+1  0.338602E+1
 endloop
endfacet
facet normal -0.078333E+1  0.000000E+0 -0.062161E+1
 outer loop
  vertex  0.174539E+1 -1.080145E+1  0.338602E+1
  vertex -0.168538E+1 -1.984259E+1  0.770934E+1
  vertex -0.168538E+1 -1.511820E+1  0.770934E+1
 endloop
endfacet
facet normal -0.078333E+1  1.127472E-5 -0.062160E+1
 outer loop
  vertex  0.174539E+1 -1.080145E+1  0.338602E+1
  vertex -0.168538E+1 -1.511820E+1  0.770934E+1
  vertex  0.079972E+1 -1.120207E+1  0.457773E+1
 endloop
endfacet
facet normal -0.078333E+1  7.398066E-7 -0.062161E+1
 outer loop
  vertex  0.079972E+1 -1.120207E+1  0.457773E+1
  vertex -0.168538E+1 -1.511820E+1  0.770934E+1
  vertex -0.089619E+1 -1.274600E+1  0.671484E+1
 endloop
endfacet
facet normal -0.078331E+1 -0.000005E+1 -0.062163E+1
 outer loop
  vertex  0.079972E+1 -1.120207E+1  0.457773E+1
  vertex -0.089619E+1 -1.274600E+1  0.671484E+1
  vertex -0.008953E+1 -1.185666E+1  0.569831E+1
 endloop
endfacet
endsolid DefaultTransformed