G75*
G70*
%OFA0B0*%
%FSLAX24Y24*%
%IPPOS*%
%LPD*%
%AMOC8*
5,1,8,0,0,1.08239X$1,22.5*
%
%ADD10C,0.1340*%
%ADD11C,0.0470*%
%ADD12R,0.0710X0.0710*%
%ADD13C,0.0710*%
D10*
X012239Y006936D03*
X044239Y006936D03*
X041739Y025936D03*
X012239Y025936D03*
D11*
X009120Y007086D03*
X007939Y008936D03*
X010380Y008936D03*
D12*
X014039Y006936D03*
X019239Y006936D03*
X026239Y006936D03*
X035239Y006936D03*
X043239Y008936D03*
X044239Y009936D03*
X044239Y017936D03*
X036239Y017936D03*
X035239Y017936D03*
X031239Y017936D03*
X031239Y025936D03*
X022639Y025936D03*
X015739Y022436D03*
X014239Y020436D03*
X009920Y024149D03*
X007361Y024149D03*
X007659Y017436D03*
X040239Y025936D03*
X043239Y025936D03*
D13*
X044239Y025936D03*
X044239Y024936D03*
X043239Y024936D03*
X043239Y023936D03*
X044239Y023936D03*
X044239Y022936D03*
X043239Y022936D03*
X043239Y021936D03*
X044239Y021936D03*
X044239Y020936D03*
X043239Y020936D03*
X043239Y019936D03*
X044239Y019936D03*
X044239Y018936D03*
X043239Y018936D03*
X043239Y017936D03*
X043239Y016936D03*
X044239Y016936D03*
X044239Y015936D03*
X043239Y015936D03*
X043239Y014936D03*
X044239Y014936D03*
X044239Y013936D03*
X043239Y013936D03*
X043239Y012936D03*
X044239Y012936D03*
X044239Y011936D03*
X043239Y011936D03*
X043239Y010936D03*
X044239Y010936D03*
X043239Y009936D03*
X044239Y008936D03*
X042239Y006936D03*
X041239Y006936D03*
X040239Y006936D03*
X039239Y006936D03*
X038239Y006936D03*
X037239Y006936D03*
X036239Y006936D03*
X033239Y006936D03*
X032239Y006936D03*
X031239Y006936D03*
X030239Y006936D03*
X029239Y006936D03*
X028239Y006936D03*
X027239Y006936D03*
X024239Y006936D03*
X023239Y006936D03*
X022239Y006936D03*
X021239Y006936D03*
X020239Y006936D03*
X016039Y006936D03*
X015039Y006936D03*
X007819Y012436D03*
X007659Y013436D03*
X007819Y014436D03*
X007659Y015436D03*
X007819Y016436D03*
X008239Y020070D03*
X008239Y021803D03*
X014239Y019436D03*
X015739Y019436D03*
X015739Y020436D03*
X015739Y021436D03*
X015639Y024936D03*
X016639Y024936D03*
X017639Y024936D03*
X018639Y024936D03*
X019639Y024936D03*
X020639Y024936D03*
X021639Y024936D03*
X022639Y024936D03*
X021639Y025936D03*
X020639Y025936D03*
X019639Y025936D03*
X018639Y025936D03*
X017639Y025936D03*
X016639Y025936D03*
X015639Y025936D03*
X009920Y025921D03*
X007361Y025921D03*
X024239Y025936D03*
X025239Y025936D03*
X026239Y025936D03*
X027239Y025936D03*
X028239Y025936D03*
X029239Y025936D03*
X030239Y025936D03*
X030239Y024936D03*
X031239Y024936D03*
X029239Y024936D03*
X028239Y024936D03*
X027239Y024936D03*
X026239Y024936D03*
X025239Y024936D03*
X024239Y024936D03*
X033239Y025936D03*
X034239Y025936D03*
X035239Y025936D03*
X036239Y025936D03*
X037239Y025936D03*
X038239Y025936D03*
X039239Y025936D03*
X032239Y017936D03*
X032239Y016936D03*
X031239Y016936D03*
X031239Y015936D03*
X032239Y015936D03*
X035239Y015936D03*
X036239Y015936D03*
X036239Y016936D03*
X035239Y016936D03*
M02*
