G75*
G70*
%OFA0B0*%
%FSLAX24Y24*%
%IPPOS*%
%LPD*%
%AMOC8*
5,1,8,0,0,1.08239X$1,22.5*
%
%ADD10C,0.0000*%
%ADD11R,1.2900X0.2900*%
%ADD12C,0.0030*%
%ADD13R,0.0360X0.0010*%
%ADD14R,0.0570X0.0010*%
%ADD15R,0.0710X0.0010*%
%ADD16R,0.0840X0.0010*%
%ADD17R,0.0940X0.0010*%
%ADD18R,0.1040X0.0010*%
%ADD19R,0.1130X0.0010*%
%ADD20R,0.1200X0.0010*%
%ADD21R,0.1280X0.0010*%
%ADD22R,0.1380X0.0010*%
%ADD23R,0.1440X0.0010*%
%ADD24R,0.1510X0.0010*%
%ADD25R,0.1570X0.0010*%
%ADD26R,0.1620X0.0010*%
%ADD27R,0.1680X0.0010*%
%ADD28R,0.1730X0.0010*%
%ADD29R,0.1780X0.0010*%
%ADD30R,0.1820X0.0010*%
%ADD31R,0.1880X0.0010*%
%ADD32R,0.1920X0.0010*%
%ADD33R,0.1990X0.0010*%
%ADD34R,0.2040X0.0010*%
%ADD35R,0.2070X0.0010*%
%ADD36R,0.2120X0.0010*%
%ADD37R,0.2160X0.0010*%
%ADD38R,0.2200X0.0010*%
%ADD39R,0.2240X0.0010*%
%ADD40R,0.2270X0.0010*%
%ADD41R,0.2300X0.0010*%
%ADD42R,0.2340X0.0010*%
%ADD43R,0.2380X0.0010*%
%ADD44R,0.2440X0.0010*%
%ADD45R,0.2470X0.0010*%
%ADD46R,0.2500X0.0010*%
%ADD47R,0.2530X0.0010*%
%ADD48R,0.2560X0.0010*%
%ADD49R,0.2600X0.0010*%
%ADD50R,0.2630X0.0010*%
%ADD51R,0.2660X0.0010*%
%ADD52R,0.2690X0.0010*%
%ADD53R,0.2720X0.0010*%
%ADD54R,0.2740X0.0010*%
%ADD55R,0.2780X0.0010*%
%ADD56R,0.2820X0.0010*%
%ADD57R,0.2840X0.0010*%
%ADD58R,0.2870X0.0010*%
%ADD59R,0.2900X0.0010*%
%ADD60R,0.2930X0.0010*%
%ADD61R,0.2950X0.0010*%
%ADD62R,0.2970X0.0010*%
%ADD63R,0.3000X0.0010*%
%ADD64R,0.3020X0.0010*%
%ADD65R,0.3050X0.0010*%
%ADD66R,0.3090X0.0010*%
%ADD67R,0.3110X0.0010*%
%ADD68R,0.3140X0.0010*%
%ADD69R,0.3160X0.0010*%
%ADD70R,0.3180X0.0010*%
%ADD71R,0.3200X0.0010*%
%ADD72R,0.3220X0.0010*%
%ADD73R,0.3240X0.0010*%
%ADD74R,0.3270X0.0010*%
%ADD75R,0.3290X0.0010*%
%ADD76R,0.3320X0.0010*%
%ADD77R,0.3350X0.0010*%
%ADD78R,0.1530X0.0010*%
%ADD79R,0.1520X0.0010*%
%ADD80R,0.1460X0.0010*%
%ADD81R,0.1450X0.0010*%
%ADD82R,0.1400X0.0010*%
%ADD83R,0.1390X0.0010*%
%ADD84R,0.1350X0.0010*%
%ADD85R,0.1310X0.0010*%
%ADD86R,0.1260X0.0010*%
%ADD87R,0.1230X0.0010*%
%ADD88R,0.1210X0.0010*%
%ADD89R,0.1190X0.0010*%
%ADD90R,0.1170X0.0010*%
%ADD91R,0.1160X0.0010*%
%ADD92R,0.1150X0.0010*%
%ADD93R,0.1140X0.0010*%
%ADD94R,0.1120X0.0010*%
%ADD95R,0.1100X0.0010*%
%ADD96R,0.1090X0.0010*%
%ADD97R,0.1080X0.0010*%
%ADD98R,0.1070X0.0010*%
%ADD99R,0.1060X0.0010*%
%ADD100R,0.1050X0.0010*%
%ADD101R,0.1030X0.0010*%
%ADD102R,0.1020X0.0010*%
%ADD103R,0.1010X0.0010*%
%ADD104R,0.1000X0.0010*%
%ADD105R,0.0990X0.0010*%
%ADD106R,0.0980X0.0010*%
%ADD107R,0.0970X0.0010*%
%ADD108R,0.0960X0.0010*%
%ADD109R,0.0950X0.0010*%
%ADD110R,0.0930X0.0010*%
%ADD111R,0.0920X0.0010*%
%ADD112R,0.0910X0.0010*%
%ADD113R,0.0900X0.0010*%
%ADD114R,0.0890X0.0010*%
%ADD115R,0.0880X0.0010*%
%ADD116R,0.0870X0.0010*%
%ADD117R,0.0860X0.0010*%
%ADD118R,0.0850X0.0010*%
%ADD119R,0.0830X0.0010*%
%ADD120R,0.0820X0.0010*%
%ADD121R,0.0810X0.0010*%
%ADD122R,0.0800X0.0010*%
%ADD123R,0.0140X0.0010*%
%ADD124R,0.0790X0.0010*%
%ADD125R,0.0340X0.0010*%
%ADD126R,0.0450X0.0010*%
%ADD127R,0.0540X0.0010*%
%ADD128R,0.0620X0.0010*%
%ADD129R,0.0690X0.0010*%
%ADD130R,0.0780X0.0010*%
%ADD131R,0.0770X0.0010*%
%ADD132R,0.0760X0.0010*%
%ADD133R,0.0750X0.0010*%
%ADD134R,0.1180X0.0010*%
%ADD135R,0.1300X0.0010*%
%ADD136R,0.1320X0.0010*%
%ADD137R,0.1360X0.0010*%
%ADD138R,0.0740X0.0010*%
%ADD139R,0.0730X0.0010*%
%ADD140R,0.1480X0.0010*%
%ADD141R,0.0720X0.0010*%
%ADD142R,0.1540X0.0010*%
%ADD143R,0.1580X0.0010*%
%ADD144R,0.1590X0.0010*%
%ADD145R,0.1640X0.0010*%
%ADD146R,0.1660X0.0010*%
%ADD147R,0.1700X0.0010*%
%ADD148R,0.1720X0.0010*%
%ADD149R,0.1740X0.0010*%
%ADD150R,0.1760X0.0010*%
%ADD151R,0.0700X0.0010*%
%ADD152R,0.0680X0.0010*%
%ADD153R,0.0670X0.0010*%
%ADD154R,0.0650X0.0010*%
%ADD155R,0.0640X0.0010*%
%ADD156R,0.0630X0.0010*%
%ADD157R,0.0610X0.0010*%
%ADD158R,0.0600X0.0010*%
%ADD159R,0.0020X0.0010*%
%ADD160R,0.0580X0.0010*%
%ADD161R,0.0040X0.0010*%
%ADD162R,0.0060X0.0010*%
%ADD163R,0.0550X0.0010*%
%ADD164R,0.0080X0.0010*%
%ADD165R,0.0100X0.0010*%
%ADD166R,0.0120X0.0010*%
%ADD167R,0.0530X0.0010*%
%ADD168R,0.0520X0.0010*%
%ADD169R,0.0160X0.0010*%
%ADD170R,0.0500X0.0010*%
%ADD171R,0.0180X0.0010*%
%ADD172R,0.0510X0.0010*%
%ADD173R,0.0200X0.0010*%
%ADD174R,0.0170X0.0010*%
%ADD175R,0.0220X0.0010*%
%ADD176R,0.0490X0.0010*%
%ADD177R,0.0280X0.0010*%
%ADD178R,0.0240X0.0010*%
%ADD179R,0.0260X0.0010*%
%ADD180R,0.0480X0.0010*%
%ADD181R,0.0420X0.0010*%
%ADD182R,0.0470X0.0010*%
%ADD183R,0.0300X0.0010*%
%ADD184R,0.0150X0.0010*%
%ADD185R,0.0460X0.0010*%
%ADD186R,0.0440X0.0010*%
%ADD187R,0.0430X0.0010*%
%ADD188R,0.0660X0.0010*%
%ADD189R,0.0410X0.0010*%
%ADD190R,0.0400X0.0010*%
%ADD191R,0.0390X0.0010*%
%ADD192R,0.1110X0.0010*%
%ADD193R,0.0380X0.0010*%
%ADD194R,0.0350X0.0010*%
%ADD195R,0.0320X0.0010*%
%ADD196R,0.0310X0.0010*%
%ADD197R,0.0590X0.0010*%
%ADD198R,0.1670X0.0010*%
%ADD199R,0.0560X0.0010*%
%ADD200R,0.0270X0.0010*%
%ADD201R,0.0230X0.0010*%
%ADD202R,0.0210X0.0010*%
%ADD203R,0.0190X0.0010*%
%ADD204R,0.0370X0.0010*%
%ADD205R,0.0130X0.0010*%
%ADD206R,0.0110X0.0010*%
%ADD207R,0.0070X0.0010*%
%ADD208R,0.0050X0.0010*%
%ADD209R,0.0090X0.0010*%
%ADD210R,0.0250X0.0010*%
%ADD211R,0.0290X0.0010*%
%ADD212R,0.0330X0.0010*%
%ADD213R,0.1630X0.0010*%
%ADD214R,0.1600X0.0010*%
%ADD215R,0.1560X0.0010*%
%ADD216R,0.1500X0.0010*%
%ADD217R,0.1420X0.0010*%
%ADD218R,0.1240X0.0010*%
%ADD219R,0.1290X0.0010*%
%ADD220R,0.1410X0.0010*%
%ADD221R,0.1470X0.0010*%
%ADD222R,0.3330X0.0010*%
%ADD223R,0.3310X0.0010*%
%ADD224R,0.3260X0.0010*%
%ADD225R,0.3130X0.0010*%
%ADD226R,0.3070X0.0010*%
%ADD227R,0.3040X0.0010*%
%ADD228R,0.2990X0.0010*%
%ADD229R,0.2920X0.0010*%
%ADD230R,0.2810X0.0010*%
%ADD231R,0.2760X0.0010*%
%ADD232R,0.2680X0.0010*%
%ADD233R,0.2650X0.0010*%
%ADD234R,0.2620X0.0010*%
%ADD235R,0.2590X0.0010*%
%ADD236R,0.2520X0.0010*%
%ADD237R,0.2490X0.0010*%
%ADD238R,0.2460X0.0010*%
%ADD239R,0.2410X0.0010*%
%ADD240R,0.2230X0.0010*%
%ADD241R,0.2190X0.0010*%
%ADD242R,0.2150X0.0010*%
%ADD243R,0.2110X0.0010*%
%ADD244R,0.2060X0.0010*%
%ADD245R,0.2030X0.0010*%
%ADD246R,0.1960X0.0010*%
%ADD247R,0.1870X0.0010*%
%ADD248R,0.1610X0.0010*%
%ADD249R,0.1340X0.0010*%
%ADD250R,0.1270X0.0010*%
%ADD251R,0.1680X0.0040*%
%ADD252R,0.0080X0.0040*%
%ADD253R,0.0040X0.0040*%
%ADD254R,0.0160X0.0040*%
%ADD255R,0.0200X0.0040*%
%ADD256R,0.0320X0.0040*%
%ADD257R,0.0640X0.0040*%
%ADD258R,0.0120X0.0040*%
%ADD259R,0.0600X0.0040*%
%ADD260R,0.0400X0.0040*%
%ADD261R,0.0280X0.0040*%
%ADD262R,0.0360X0.0040*%
%ADD263R,0.0440X0.0040*%
%ADD264R,0.0240X0.0040*%
%ADD265R,0.1200X0.0040*%
%ADD266R,0.1240X0.0040*%
%ADD267R,0.1160X0.0040*%
%ADD268R,0.0800X0.0040*%
%ADD269R,0.1220X0.0010*%
%ADD270R,0.1250X0.0010*%
%ADD271R,0.1330X0.0010*%
%ADD272R,0.1370X0.0010*%
%ADD273R,0.1430X0.0010*%
%ADD274R,0.1550X0.0010*%
%ADD275R,0.0030X0.0010*%
%ADD276R,0.0010X0.0010*%
D10*
X006239Y005936D02*
X046239Y005936D01*
X046239Y026936D01*
X006239Y026936D01*
X006239Y005936D01*
X011609Y006936D02*
X011611Y006986D01*
X011617Y007036D01*
X011627Y007085D01*
X011641Y007133D01*
X011658Y007180D01*
X011679Y007225D01*
X011704Y007269D01*
X011732Y007310D01*
X011764Y007349D01*
X011798Y007386D01*
X011835Y007420D01*
X011875Y007450D01*
X011917Y007477D01*
X011961Y007501D01*
X012007Y007522D01*
X012054Y007538D01*
X012102Y007551D01*
X012152Y007560D01*
X012201Y007565D01*
X012252Y007566D01*
X012302Y007563D01*
X012351Y007556D01*
X012400Y007545D01*
X012448Y007530D01*
X012494Y007512D01*
X012539Y007490D01*
X012582Y007464D01*
X012623Y007435D01*
X012662Y007403D01*
X012698Y007368D01*
X012730Y007330D01*
X012760Y007290D01*
X012787Y007247D01*
X012810Y007203D01*
X012829Y007157D01*
X012845Y007109D01*
X012857Y007060D01*
X012865Y007011D01*
X012869Y006961D01*
X012869Y006911D01*
X012865Y006861D01*
X012857Y006812D01*
X012845Y006763D01*
X012829Y006715D01*
X012810Y006669D01*
X012787Y006625D01*
X012760Y006582D01*
X012730Y006542D01*
X012698Y006504D01*
X012662Y006469D01*
X012623Y006437D01*
X012582Y006408D01*
X012539Y006382D01*
X012494Y006360D01*
X012448Y006342D01*
X012400Y006327D01*
X012351Y006316D01*
X012302Y006309D01*
X012252Y006306D01*
X012201Y006307D01*
X012152Y006312D01*
X012102Y006321D01*
X012054Y006334D01*
X012007Y006350D01*
X011961Y006371D01*
X011917Y006395D01*
X011875Y006422D01*
X011835Y006452D01*
X011798Y006486D01*
X011764Y006523D01*
X011732Y006562D01*
X011704Y006603D01*
X011679Y006647D01*
X011658Y006692D01*
X011641Y006739D01*
X011627Y006787D01*
X011617Y006836D01*
X011611Y006886D01*
X011609Y006936D01*
X011609Y025936D02*
X011611Y025986D01*
X011617Y026036D01*
X011627Y026085D01*
X011641Y026133D01*
X011658Y026180D01*
X011679Y026225D01*
X011704Y026269D01*
X011732Y026310D01*
X011764Y026349D01*
X011798Y026386D01*
X011835Y026420D01*
X011875Y026450D01*
X011917Y026477D01*
X011961Y026501D01*
X012007Y026522D01*
X012054Y026538D01*
X012102Y026551D01*
X012152Y026560D01*
X012201Y026565D01*
X012252Y026566D01*
X012302Y026563D01*
X012351Y026556D01*
X012400Y026545D01*
X012448Y026530D01*
X012494Y026512D01*
X012539Y026490D01*
X012582Y026464D01*
X012623Y026435D01*
X012662Y026403D01*
X012698Y026368D01*
X012730Y026330D01*
X012760Y026290D01*
X012787Y026247D01*
X012810Y026203D01*
X012829Y026157D01*
X012845Y026109D01*
X012857Y026060D01*
X012865Y026011D01*
X012869Y025961D01*
X012869Y025911D01*
X012865Y025861D01*
X012857Y025812D01*
X012845Y025763D01*
X012829Y025715D01*
X012810Y025669D01*
X012787Y025625D01*
X012760Y025582D01*
X012730Y025542D01*
X012698Y025504D01*
X012662Y025469D01*
X012623Y025437D01*
X012582Y025408D01*
X012539Y025382D01*
X012494Y025360D01*
X012448Y025342D01*
X012400Y025327D01*
X012351Y025316D01*
X012302Y025309D01*
X012252Y025306D01*
X012201Y025307D01*
X012152Y025312D01*
X012102Y025321D01*
X012054Y025334D01*
X012007Y025350D01*
X011961Y025371D01*
X011917Y025395D01*
X011875Y025422D01*
X011835Y025452D01*
X011798Y025486D01*
X011764Y025523D01*
X011732Y025562D01*
X011704Y025603D01*
X011679Y025647D01*
X011658Y025692D01*
X011641Y025739D01*
X011627Y025787D01*
X011617Y025836D01*
X011611Y025886D01*
X011609Y025936D01*
X041109Y025936D02*
X041111Y025986D01*
X041117Y026036D01*
X041127Y026085D01*
X041141Y026133D01*
X041158Y026180D01*
X041179Y026225D01*
X041204Y026269D01*
X041232Y026310D01*
X041264Y026349D01*
X041298Y026386D01*
X041335Y026420D01*
X041375Y026450D01*
X041417Y026477D01*
X041461Y026501D01*
X041507Y026522D01*
X041554Y026538D01*
X041602Y026551D01*
X041652Y026560D01*
X041701Y026565D01*
X041752Y026566D01*
X041802Y026563D01*
X041851Y026556D01*
X041900Y026545D01*
X041948Y026530D01*
X041994Y026512D01*
X042039Y026490D01*
X042082Y026464D01*
X042123Y026435D01*
X042162Y026403D01*
X042198Y026368D01*
X042230Y026330D01*
X042260Y026290D01*
X042287Y026247D01*
X042310Y026203D01*
X042329Y026157D01*
X042345Y026109D01*
X042357Y026060D01*
X042365Y026011D01*
X042369Y025961D01*
X042369Y025911D01*
X042365Y025861D01*
X042357Y025812D01*
X042345Y025763D01*
X042329Y025715D01*
X042310Y025669D01*
X042287Y025625D01*
X042260Y025582D01*
X042230Y025542D01*
X042198Y025504D01*
X042162Y025469D01*
X042123Y025437D01*
X042082Y025408D01*
X042039Y025382D01*
X041994Y025360D01*
X041948Y025342D01*
X041900Y025327D01*
X041851Y025316D01*
X041802Y025309D01*
X041752Y025306D01*
X041701Y025307D01*
X041652Y025312D01*
X041602Y025321D01*
X041554Y025334D01*
X041507Y025350D01*
X041461Y025371D01*
X041417Y025395D01*
X041375Y025422D01*
X041335Y025452D01*
X041298Y025486D01*
X041264Y025523D01*
X041232Y025562D01*
X041204Y025603D01*
X041179Y025647D01*
X041158Y025692D01*
X041141Y025739D01*
X041127Y025787D01*
X041117Y025836D01*
X041111Y025886D01*
X041109Y025936D01*
X043609Y006936D02*
X043611Y006986D01*
X043617Y007036D01*
X043627Y007085D01*
X043641Y007133D01*
X043658Y007180D01*
X043679Y007225D01*
X043704Y007269D01*
X043732Y007310D01*
X043764Y007349D01*
X043798Y007386D01*
X043835Y007420D01*
X043875Y007450D01*
X043917Y007477D01*
X043961Y007501D01*
X044007Y007522D01*
X044054Y007538D01*
X044102Y007551D01*
X044152Y007560D01*
X044201Y007565D01*
X044252Y007566D01*
X044302Y007563D01*
X044351Y007556D01*
X044400Y007545D01*
X044448Y007530D01*
X044494Y007512D01*
X044539Y007490D01*
X044582Y007464D01*
X044623Y007435D01*
X044662Y007403D01*
X044698Y007368D01*
X044730Y007330D01*
X044760Y007290D01*
X044787Y007247D01*
X044810Y007203D01*
X044829Y007157D01*
X044845Y007109D01*
X044857Y007060D01*
X044865Y007011D01*
X044869Y006961D01*
X044869Y006911D01*
X044865Y006861D01*
X044857Y006812D01*
X044845Y006763D01*
X044829Y006715D01*
X044810Y006669D01*
X044787Y006625D01*
X044760Y006582D01*
X044730Y006542D01*
X044698Y006504D01*
X044662Y006469D01*
X044623Y006437D01*
X044582Y006408D01*
X044539Y006382D01*
X044494Y006360D01*
X044448Y006342D01*
X044400Y006327D01*
X044351Y006316D01*
X044302Y006309D01*
X044252Y006306D01*
X044201Y006307D01*
X044152Y006312D01*
X044102Y006321D01*
X044054Y006334D01*
X044007Y006350D01*
X043961Y006371D01*
X043917Y006395D01*
X043875Y006422D01*
X043835Y006452D01*
X043798Y006486D01*
X043764Y006523D01*
X043732Y006562D01*
X043704Y006603D01*
X043679Y006647D01*
X043658Y006692D01*
X043641Y006739D01*
X043627Y006787D01*
X043617Y006836D01*
X043611Y006886D01*
X043609Y006936D01*
D11*
X024189Y021686D03*
D12*
X027430Y019960D02*
X027492Y020022D01*
X027616Y020022D01*
X027677Y019960D01*
X027799Y019960D02*
X028046Y019713D01*
X027984Y019651D01*
X027860Y019651D01*
X027799Y019713D01*
X027799Y019960D01*
X027860Y020022D01*
X027984Y020022D01*
X028046Y019960D01*
X028046Y019713D01*
X028167Y019651D02*
X028414Y019651D01*
X028167Y019898D01*
X028167Y019960D01*
X028229Y020022D01*
X028352Y020022D01*
X028414Y019960D01*
X028535Y019837D02*
X028782Y019837D01*
X028904Y019960D02*
X029151Y019713D01*
X029089Y019651D01*
X028965Y019651D01*
X028904Y019713D01*
X028904Y019960D01*
X028965Y020022D01*
X029089Y020022D01*
X029151Y019960D01*
X029151Y019713D01*
X029272Y019713D02*
X029272Y019960D01*
X029519Y019713D01*
X029457Y019651D01*
X029334Y019651D01*
X029272Y019713D01*
X029519Y019713D02*
X029519Y019960D01*
X029457Y020022D01*
X029334Y020022D01*
X029272Y019960D01*
X029640Y019960D02*
X029702Y020022D01*
X029825Y020022D01*
X029887Y019960D01*
X030009Y019960D02*
X030009Y019898D01*
X030070Y019837D01*
X030255Y019837D01*
X030377Y019837D02*
X030439Y019775D01*
X030624Y019775D01*
X030624Y019651D02*
X030624Y020022D01*
X030439Y020022D01*
X030377Y019960D01*
X030377Y019837D01*
X030255Y020022D02*
X030070Y020022D01*
X030009Y019960D01*
X030070Y019837D02*
X030009Y019775D01*
X030009Y019713D01*
X030070Y019651D01*
X030255Y019651D01*
X030255Y020022D01*
X029887Y019651D02*
X029640Y019898D01*
X029640Y019960D01*
X029640Y019651D02*
X029887Y019651D01*
X027677Y019651D02*
X027430Y019898D01*
X027430Y019960D01*
X027430Y019651D02*
X027677Y019651D01*
X019524Y019651D02*
X019524Y020022D01*
X019339Y020022D01*
X019277Y019960D01*
X019277Y019837D01*
X019339Y019775D01*
X019524Y019775D01*
X019400Y019775D02*
X019277Y019651D01*
X019155Y019651D02*
X018909Y019651D01*
X018787Y019775D02*
X018664Y019651D01*
X018540Y019775D01*
X018540Y020022D01*
X018787Y020022D02*
X018787Y019775D01*
X019032Y019837D02*
X019155Y019837D01*
X019155Y020022D02*
X019155Y019651D01*
X019155Y020022D02*
X018909Y020022D01*
X018051Y019960D02*
X018051Y019713D01*
X017989Y019651D01*
X017865Y019651D01*
X017804Y019713D01*
X017804Y019960D02*
X017865Y020022D01*
X017989Y020022D01*
X018051Y019960D01*
D13*
X037394Y021296D03*
X037394Y021306D03*
X037434Y021676D03*
X038304Y020766D03*
X039434Y021136D03*
X039484Y021426D03*
X039484Y021436D03*
X039484Y021446D03*
X039484Y021456D03*
X039484Y021466D03*
X039484Y021476D03*
X039474Y021496D03*
X039474Y021506D03*
X039474Y021516D03*
X039474Y021526D03*
X039474Y021536D03*
X039474Y021546D03*
X039474Y021556D03*
X039474Y021566D03*
X039464Y021576D03*
X039464Y021586D03*
X039464Y021596D03*
X039464Y021606D03*
X039464Y021616D03*
X039454Y021636D03*
X039454Y021646D03*
X039454Y021656D03*
X039444Y021686D03*
X039434Y021716D03*
X038434Y018926D03*
D14*
X038439Y018936D03*
X037749Y020656D03*
X037739Y020666D03*
X039129Y020666D03*
X040629Y021206D03*
X039059Y022226D03*
X036249Y021606D03*
X031819Y013906D03*
X033089Y012706D03*
X033099Y012686D03*
X033099Y012676D03*
X033109Y012666D03*
X033109Y012656D03*
X033109Y012646D03*
X033119Y012626D03*
X033119Y011796D03*
X033109Y011776D03*
X033109Y011766D03*
X033099Y011746D03*
X033099Y011736D03*
X033089Y011716D03*
X033089Y011706D03*
X033079Y011686D03*
X030199Y011836D03*
X030199Y011846D03*
X030189Y011816D03*
X030189Y011806D03*
X030189Y011796D03*
X030179Y011786D03*
X030179Y011776D03*
X030179Y011766D03*
X030219Y012476D03*
X030199Y012566D03*
X030199Y012576D03*
X030189Y012596D03*
X030189Y012606D03*
X030189Y012616D03*
X030179Y012636D03*
X030179Y012646D03*
D15*
X029909Y011296D03*
X032819Y011276D03*
X032829Y011286D03*
X032839Y013126D03*
X032829Y013136D03*
X032819Y013146D03*
X028939Y013866D03*
X038439Y018946D03*
X038999Y020586D03*
X038309Y020846D03*
X037869Y020586D03*
X036479Y020506D03*
X036469Y020526D03*
X036469Y020536D03*
X036459Y020546D03*
X036459Y020556D03*
X036449Y020566D03*
X036449Y020576D03*
X036439Y020596D03*
X038429Y021686D03*
X037929Y022276D03*
X036489Y022316D03*
X036469Y022276D03*
X036469Y022266D03*
X036459Y022256D03*
X036459Y022246D03*
X036449Y022226D03*
X036439Y022206D03*
X036339Y021776D03*
X040399Y022276D03*
X040409Y022256D03*
X040409Y022246D03*
X040419Y022236D03*
X040419Y022226D03*
X040429Y022216D03*
X040429Y022206D03*
X040439Y022186D03*
X040539Y021036D03*
X040439Y020616D03*
X040429Y020596D03*
X040429Y020586D03*
X040419Y020576D03*
X040419Y020566D03*
X040409Y020546D03*
X040399Y020526D03*
D16*
X040124Y020086D03*
X040114Y020076D03*
X040104Y020066D03*
X038434Y020246D03*
X036774Y020056D03*
X036764Y020066D03*
X036754Y020076D03*
X038434Y018956D03*
X038434Y022556D03*
X036774Y022746D03*
X036764Y022736D03*
X036754Y022726D03*
X040104Y022736D03*
X040114Y022726D03*
X040124Y022716D03*
X032664Y013286D03*
X029724Y013286D03*
X031954Y010606D03*
D17*
X029624Y011066D03*
X029064Y010636D03*
X029614Y013356D03*
X029054Y013776D03*
X032004Y013776D03*
X038434Y018966D03*
X036954Y019876D03*
X036944Y019886D03*
X038434Y020266D03*
X039934Y022906D03*
X039924Y022916D03*
X036954Y022926D03*
X036944Y022916D03*
X036934Y022906D03*
D18*
X037094Y023036D03*
X038304Y021016D03*
X037094Y019766D03*
X038434Y018976D03*
X039794Y019776D03*
X032054Y013726D03*
X029104Y013726D03*
X032054Y010706D03*
D19*
X032099Y010756D03*
X032099Y013666D03*
X038439Y018986D03*
X037199Y019696D03*
X038309Y021116D03*
X038309Y021126D03*
X039689Y019706D03*
X039689Y023096D03*
X037199Y023106D03*
D20*
X037264Y023136D03*
X038434Y022466D03*
X039604Y023136D03*
X038434Y020336D03*
X038434Y018996D03*
X029184Y013626D03*
X032364Y011006D03*
X032134Y010806D03*
X029194Y010786D03*
D21*
X029234Y010846D03*
X032174Y010866D03*
X032174Y013556D03*
X029224Y013566D03*
X038434Y019006D03*
X037344Y019626D03*
X039524Y019626D03*
X038434Y022446D03*
D22*
X038434Y022416D03*
X038434Y020386D03*
X038434Y019016D03*
X032224Y013466D03*
X029274Y013476D03*
X029284Y010936D03*
X032224Y010956D03*
D23*
X029314Y010996D03*
X029304Y013416D03*
X038434Y019026D03*
X038434Y020406D03*
X038434Y023776D03*
D24*
X038439Y019036D03*
D25*
X038439Y019046D03*
X029729Y012396D03*
X029729Y012386D03*
X029729Y012376D03*
X029729Y012366D03*
X029729Y012356D03*
X029729Y012346D03*
X029729Y012336D03*
X029729Y012326D03*
X029729Y012316D03*
X029729Y012306D03*
X029729Y012296D03*
X029729Y012286D03*
X029729Y012276D03*
X029729Y012266D03*
X029729Y012256D03*
X029729Y012246D03*
X029729Y012236D03*
X029729Y012226D03*
X029729Y012216D03*
X029729Y012206D03*
X029729Y012196D03*
X029729Y012186D03*
X029729Y012176D03*
X029729Y012166D03*
X029729Y012156D03*
X029729Y012146D03*
X029729Y012136D03*
X029729Y012126D03*
X029729Y012116D03*
X029729Y012106D03*
X029729Y012096D03*
X029729Y012086D03*
X029729Y012076D03*
X029729Y012066D03*
X029729Y012056D03*
X029729Y012046D03*
X029729Y012036D03*
X029729Y012026D03*
D26*
X038434Y019056D03*
X038434Y020476D03*
D27*
X038434Y020506D03*
X038054Y021226D03*
X038054Y021236D03*
X038054Y021246D03*
X038054Y021256D03*
X038054Y021266D03*
X038434Y022296D03*
X038434Y019066D03*
D28*
X038439Y019076D03*
D29*
X038434Y019086D03*
X038434Y020556D03*
X038434Y023716D03*
D30*
X038434Y023706D03*
X038434Y019096D03*
D31*
X038434Y019106D03*
D32*
X038434Y019116D03*
X038434Y023686D03*
D33*
X038439Y019126D03*
D34*
X038434Y019136D03*
D35*
X038439Y019146D03*
D36*
X038434Y019156D03*
D37*
X038434Y019166D03*
D38*
X038434Y019176D03*
D39*
X038434Y019186D03*
D40*
X038439Y019196D03*
X038439Y023606D03*
D41*
X038434Y023596D03*
X038434Y019206D03*
D42*
X038434Y019216D03*
X038434Y023586D03*
D43*
X038434Y023576D03*
X038434Y019226D03*
D44*
X038434Y019236D03*
D45*
X038439Y019246D03*
D46*
X038434Y019256D03*
D47*
X038439Y019266D03*
D48*
X038434Y019276D03*
X038434Y023526D03*
D49*
X038434Y019286D03*
D50*
X038439Y019296D03*
D51*
X038434Y019306D03*
D52*
X038439Y019316D03*
D53*
X038434Y019326D03*
X038434Y023476D03*
D54*
X038434Y023466D03*
X038434Y019336D03*
D55*
X038434Y019346D03*
D56*
X038434Y019356D03*
D57*
X038434Y019366D03*
X038434Y023436D03*
D58*
X038439Y023426D03*
X038439Y019376D03*
D59*
X038434Y019386D03*
X038434Y023416D03*
D60*
X038439Y019396D03*
D61*
X038439Y019406D03*
X038439Y023396D03*
D62*
X038439Y023386D03*
X038439Y019416D03*
D63*
X038434Y019426D03*
D64*
X038434Y019436D03*
X038434Y023366D03*
D65*
X038439Y019446D03*
D66*
X038439Y019456D03*
D67*
X038439Y019466D03*
X038439Y023336D03*
D68*
X038434Y019476D03*
D69*
X038434Y019486D03*
X038434Y023316D03*
D70*
X038434Y023306D03*
X038434Y019496D03*
D71*
X038434Y019506D03*
X038434Y023296D03*
D72*
X038434Y023286D03*
X038434Y019516D03*
D73*
X038434Y019526D03*
X038434Y023276D03*
D74*
X038439Y019536D03*
D75*
X038439Y019546D03*
X038439Y023256D03*
D76*
X038434Y019556D03*
D77*
X038439Y019566D03*
D78*
X039359Y019576D03*
D79*
X038434Y020436D03*
X037514Y019576D03*
D80*
X038434Y020416D03*
X039404Y019586D03*
X038434Y022386D03*
X037474Y023216D03*
D81*
X037469Y019586D03*
D82*
X038434Y020396D03*
X039444Y019596D03*
X038434Y022406D03*
X037434Y023206D03*
X032234Y013446D03*
X029284Y013456D03*
X029294Y010956D03*
X032234Y010976D03*
D83*
X032229Y010966D03*
X029289Y010946D03*
X029279Y013466D03*
X032229Y013456D03*
X037429Y019596D03*
D84*
X037399Y019606D03*
X039469Y019606D03*
X032209Y013496D03*
X029259Y013506D03*
X029269Y010906D03*
X032209Y010926D03*
D85*
X032189Y010896D03*
X029249Y010876D03*
X029239Y013536D03*
X032189Y013536D03*
X037369Y019616D03*
X039499Y019616D03*
D86*
X039544Y019636D03*
X038434Y020346D03*
X037324Y019636D03*
X037324Y023166D03*
X039544Y023166D03*
X032164Y013576D03*
X032164Y010856D03*
X029224Y010836D03*
D87*
X032149Y010826D03*
X032149Y013596D03*
X029199Y013606D03*
X037299Y019646D03*
X039569Y019646D03*
D88*
X039589Y019656D03*
X037279Y019656D03*
X037279Y023146D03*
X039589Y023146D03*
X032139Y013616D03*
X029189Y013616D03*
X029199Y010796D03*
X032139Y010816D03*
D89*
X032129Y013626D03*
X037259Y019666D03*
X039609Y019666D03*
X038439Y023806D03*
D90*
X039639Y019676D03*
X029169Y013646D03*
X029179Y010766D03*
X032119Y010786D03*
D91*
X032114Y013646D03*
X037234Y019676D03*
X038304Y021166D03*
X038304Y021176D03*
X038434Y022476D03*
X039654Y023116D03*
D92*
X037219Y023116D03*
X038309Y021156D03*
X038309Y021146D03*
X039659Y019686D03*
X032109Y013656D03*
X029159Y013656D03*
X029169Y010756D03*
X032109Y010776D03*
D93*
X032104Y010766D03*
X029164Y010746D03*
X029154Y013666D03*
X037214Y019686D03*
X038434Y020316D03*
X038304Y021136D03*
X038434Y022486D03*
X039674Y023106D03*
X039674Y019696D03*
D94*
X038304Y021106D03*
X037184Y019706D03*
X037184Y023096D03*
X038434Y023816D03*
X032094Y013676D03*
X032414Y013406D03*
X029474Y013406D03*
X029144Y013676D03*
X029154Y010736D03*
D95*
X029144Y010726D03*
X032424Y011016D03*
X032084Y013686D03*
X037164Y019716D03*
X038434Y020306D03*
X038304Y021076D03*
X038304Y021086D03*
X038434Y022496D03*
X039704Y019716D03*
D96*
X039719Y019726D03*
X038309Y021066D03*
X037149Y019726D03*
X037149Y023076D03*
X039719Y023076D03*
X032079Y013696D03*
X029129Y013696D03*
X029139Y010716D03*
X032079Y010736D03*
D97*
X032074Y010726D03*
X037134Y019736D03*
X038304Y021056D03*
X039734Y019736D03*
X039734Y023066D03*
D98*
X039749Y023056D03*
X037139Y023066D03*
X038309Y021046D03*
X039749Y019746D03*
X032069Y013706D03*
X029119Y013706D03*
X029529Y011026D03*
X029129Y010706D03*
D99*
X032064Y010716D03*
X032454Y013396D03*
X029514Y013396D03*
X029114Y013716D03*
X037124Y019746D03*
X038434Y020296D03*
X038304Y021036D03*
X038434Y022506D03*
X037124Y023056D03*
X039764Y023046D03*
X039764Y019756D03*
D100*
X039779Y019766D03*
X038309Y021026D03*
X037109Y019756D03*
X037109Y023046D03*
X039779Y023036D03*
X032059Y013716D03*
X032459Y011026D03*
X029119Y010696D03*
D101*
X029109Y010686D03*
X029559Y011036D03*
X032049Y010696D03*
X037079Y019776D03*
X037069Y023016D03*
X037079Y023026D03*
X039789Y023026D03*
X039799Y023016D03*
D102*
X039824Y023006D03*
X038434Y022516D03*
X038434Y023826D03*
X038304Y021006D03*
X038434Y020286D03*
X039814Y019786D03*
X032044Y013736D03*
X032484Y013386D03*
X029544Y013386D03*
X029094Y013736D03*
X029104Y010676D03*
D103*
X032039Y010686D03*
X032489Y011036D03*
X037059Y019786D03*
X039829Y019796D03*
X039839Y019806D03*
X037049Y023006D03*
D104*
X037034Y022996D03*
X037024Y022986D03*
X039834Y022996D03*
X039844Y022986D03*
X038304Y020996D03*
X037044Y019796D03*
X037034Y019806D03*
X032034Y013746D03*
X029084Y013746D03*
X029584Y011046D03*
X029094Y010666D03*
D105*
X032029Y010676D03*
X032509Y011046D03*
X032509Y013376D03*
X029569Y013376D03*
X037009Y019826D03*
X037019Y019816D03*
X038309Y020986D03*
X039849Y019816D03*
X039859Y019826D03*
X039859Y022976D03*
X037009Y022976D03*
D106*
X036994Y022966D03*
X038434Y022526D03*
X039874Y022966D03*
X039884Y022956D03*
X038304Y020976D03*
X038434Y020276D03*
X039874Y019836D03*
X036994Y019836D03*
X032024Y013756D03*
X029074Y013756D03*
X029084Y010656D03*
D107*
X029609Y011056D03*
X032019Y010666D03*
X032529Y013366D03*
X029589Y013366D03*
X039889Y019846D03*
X036989Y022956D03*
D108*
X036974Y022946D03*
X039894Y022946D03*
X039904Y022936D03*
X038304Y020966D03*
X036984Y019846D03*
X036974Y019856D03*
X039894Y019856D03*
X032014Y013766D03*
X029064Y013766D03*
X029074Y010646D03*
D109*
X032009Y010656D03*
X032529Y011056D03*
X032549Y013356D03*
X036959Y019866D03*
X038309Y020956D03*
X039909Y019866D03*
X039919Y019876D03*
X039919Y022926D03*
X036969Y022936D03*
D110*
X038429Y021516D03*
X038429Y021506D03*
X038429Y021496D03*
X038309Y020946D03*
X036929Y019896D03*
X039929Y019886D03*
X039939Y019896D03*
X032569Y013346D03*
X032549Y011066D03*
X031999Y010646D03*
D111*
X029644Y011076D03*
X029054Y010626D03*
X029634Y013346D03*
X029044Y013786D03*
X031994Y013786D03*
X036914Y019906D03*
X036904Y019916D03*
X039954Y019906D03*
X039964Y019916D03*
X038434Y022536D03*
X036914Y022896D03*
X036904Y022886D03*
X038434Y023836D03*
X039954Y022896D03*
X039964Y022886D03*
X039974Y022876D03*
D112*
X039989Y022866D03*
X038429Y021536D03*
X038429Y021526D03*
X038309Y020936D03*
X039979Y019926D03*
X039989Y019936D03*
X036899Y022876D03*
X032589Y013336D03*
X029649Y013336D03*
X029659Y011086D03*
X031989Y010636D03*
X032569Y011076D03*
D113*
X031984Y013796D03*
X029034Y013796D03*
X036874Y019946D03*
X036884Y019936D03*
X036894Y019926D03*
X038434Y020256D03*
X038304Y020926D03*
X038434Y021546D03*
X036884Y022866D03*
X036874Y022856D03*
X036864Y022846D03*
X039994Y022856D03*
X040004Y022846D03*
X039994Y019946D03*
D114*
X040009Y019956D03*
X040019Y019966D03*
X038429Y021556D03*
X036859Y022836D03*
X036849Y022826D03*
X040019Y022836D03*
X040019Y022826D03*
X036859Y019966D03*
X036859Y019956D03*
X029669Y013326D03*
X029679Y011096D03*
X029039Y010616D03*
X031979Y010626D03*
X032589Y011086D03*
D115*
X032604Y011096D03*
X029694Y011106D03*
X032604Y013326D03*
X031974Y013806D03*
X029024Y013806D03*
X036834Y019986D03*
X036844Y019976D03*
X038304Y020916D03*
X038424Y021566D03*
X038434Y022546D03*
X036834Y022816D03*
X040034Y022816D03*
X040044Y022806D03*
X040044Y019996D03*
X040034Y019986D03*
X040024Y019976D03*
D116*
X040049Y020006D03*
X038429Y021576D03*
X036819Y022796D03*
X036829Y022806D03*
X040049Y022796D03*
X040059Y022786D03*
X036829Y019996D03*
X036819Y020006D03*
X032619Y013316D03*
X029679Y013316D03*
X029709Y011116D03*
X029029Y010606D03*
D117*
X031964Y010616D03*
X032624Y011106D03*
X032634Y013306D03*
X029694Y013306D03*
X036804Y020016D03*
X038304Y020906D03*
X038424Y021586D03*
X036814Y022786D03*
X040074Y022776D03*
X040074Y020026D03*
X040064Y020016D03*
D118*
X040079Y020036D03*
X040089Y020046D03*
X040099Y020056D03*
X038429Y021596D03*
X036799Y022776D03*
X036789Y022766D03*
X036779Y022756D03*
X040079Y022766D03*
X040089Y022756D03*
X040099Y022746D03*
X036799Y020026D03*
X036789Y020036D03*
X036779Y020046D03*
X031959Y013816D03*
X032649Y013296D03*
X029709Y013296D03*
X029009Y013816D03*
X029719Y011126D03*
X029019Y010596D03*
X032639Y011116D03*
D119*
X032649Y011126D03*
X029739Y011136D03*
X029739Y013276D03*
X028999Y013826D03*
X031949Y013826D03*
X036749Y020086D03*
X036739Y020096D03*
X038309Y020896D03*
X038429Y021606D03*
X038429Y021616D03*
X036749Y022716D03*
X036739Y022706D03*
X040129Y022706D03*
X040139Y022696D03*
X040139Y020106D03*
X040129Y020096D03*
D120*
X040144Y020116D03*
X040174Y020146D03*
X036734Y020106D03*
X036724Y020116D03*
X036704Y022666D03*
X036714Y022676D03*
X036724Y022686D03*
X036734Y022696D03*
X038434Y023846D03*
X040144Y022686D03*
X040154Y022676D03*
X040164Y022666D03*
X032674Y013276D03*
X032664Y011136D03*
X031944Y010596D03*
X029764Y011156D03*
X029754Y011146D03*
X029004Y010586D03*
D121*
X032679Y011146D03*
X032689Y011156D03*
X032689Y013266D03*
X029749Y013266D03*
X036699Y020136D03*
X036709Y020126D03*
X036689Y020156D03*
X038429Y021626D03*
X036699Y022656D03*
X036689Y022646D03*
X036409Y021896D03*
X040169Y022656D03*
X040179Y022646D03*
X040189Y022636D03*
X040469Y020916D03*
X040459Y020906D03*
X040189Y020166D03*
X040179Y020156D03*
X040169Y020136D03*
X040159Y020126D03*
D122*
X040194Y020176D03*
X040214Y020206D03*
X040474Y020926D03*
X038934Y020566D03*
X038304Y020886D03*
X037934Y020566D03*
X036694Y020146D03*
X036684Y020166D03*
X036404Y021886D03*
X036674Y022616D03*
X036684Y022636D03*
X040194Y022626D03*
X040204Y022606D03*
X031934Y013836D03*
X032704Y013256D03*
X029764Y013256D03*
X028984Y013836D03*
X029774Y011166D03*
X032704Y011166D03*
D123*
X038434Y020176D03*
X039364Y021326D03*
X039944Y020716D03*
X040074Y020856D03*
X040084Y020866D03*
X040094Y020876D03*
X040104Y020886D03*
X040114Y020896D03*
X037504Y021486D03*
X037074Y021926D03*
X037064Y021936D03*
X037054Y021946D03*
X037044Y021956D03*
X037034Y021966D03*
X036924Y022076D03*
X036854Y022006D03*
X036844Y021996D03*
X036834Y021986D03*
X036824Y021976D03*
X036814Y021966D03*
X036804Y021956D03*
X036794Y021946D03*
X036784Y021936D03*
X036774Y021916D03*
X036764Y021906D03*
D124*
X036399Y021876D03*
X036389Y021866D03*
X036649Y022586D03*
X036659Y022596D03*
X036669Y022606D03*
X036679Y022626D03*
X038429Y021636D03*
X040209Y022596D03*
X040219Y022586D03*
X040229Y022576D03*
X040199Y022616D03*
X040479Y020936D03*
X040229Y020226D03*
X040219Y020216D03*
X040209Y020196D03*
X040199Y020186D03*
X036679Y020176D03*
X036669Y020186D03*
X036659Y020196D03*
X036659Y020206D03*
X036649Y020216D03*
X032719Y013246D03*
X029789Y013236D03*
X029779Y013246D03*
X029799Y011186D03*
X029789Y011176D03*
X028989Y010576D03*
X031929Y010586D03*
D125*
X038434Y020186D03*
X039424Y021156D03*
X037434Y021666D03*
D126*
X037409Y021746D03*
X037629Y022066D03*
X037639Y022076D03*
X039239Y022066D03*
X040689Y021326D03*
X039319Y020866D03*
X039309Y020856D03*
X038439Y020196D03*
X037579Y020826D03*
X037569Y020836D03*
X037559Y020846D03*
X036179Y021476D03*
X028809Y013926D03*
D127*
X033164Y012426D03*
X033164Y012416D03*
X033164Y012406D03*
X033174Y012356D03*
X033174Y012346D03*
X033174Y012336D03*
X033174Y012326D03*
X033174Y012316D03*
X033174Y012306D03*
X033174Y012296D03*
X033174Y012286D03*
X033174Y012276D03*
X033184Y012236D03*
X033184Y012226D03*
X033184Y012216D03*
X033184Y012206D03*
X033184Y012196D03*
X033184Y012186D03*
X033174Y012146D03*
X033174Y012136D03*
X033174Y012126D03*
X033174Y012116D03*
X033174Y012106D03*
X033174Y012096D03*
X033174Y012086D03*
X033174Y012076D03*
X033174Y012066D03*
X033174Y012056D03*
X033164Y012016D03*
X033164Y012006D03*
X033164Y011996D03*
X028864Y010506D03*
X038434Y020206D03*
X038304Y020796D03*
X037694Y020696D03*
X036224Y021566D03*
X037774Y022196D03*
X038434Y022596D03*
X039084Y022206D03*
X040644Y021236D03*
X038434Y023866D03*
D128*
X038434Y022586D03*
X039014Y022246D03*
X037854Y022246D03*
X036274Y021656D03*
X037794Y020626D03*
X038304Y020816D03*
X038434Y020216D03*
X039074Y020626D03*
X040594Y021136D03*
X032984Y012926D03*
X032994Y012916D03*
X032994Y012906D03*
X033004Y012896D03*
X032994Y011506D03*
X032984Y011496D03*
X032974Y011476D03*
X030084Y011546D03*
X030074Y011526D03*
X030064Y011516D03*
X030064Y011506D03*
X030084Y012866D03*
X030074Y012886D03*
X030064Y012896D03*
X030064Y012906D03*
X030054Y012916D03*
D129*
X029939Y013086D03*
X029929Y013096D03*
X029919Y013106D03*
X031879Y013876D03*
X032859Y013106D03*
X032869Y013096D03*
X032859Y011316D03*
X032849Y011306D03*
X029949Y011336D03*
X029939Y011326D03*
X029929Y011316D03*
X038439Y020226D03*
X036419Y020646D03*
X036409Y020666D03*
X036409Y020676D03*
X036399Y020686D03*
X036399Y020696D03*
X036389Y020736D03*
X036319Y021746D03*
X036379Y022036D03*
X036389Y022066D03*
X036399Y022106D03*
X036399Y022116D03*
X036409Y022126D03*
X036409Y022136D03*
X036419Y022156D03*
X038429Y021696D03*
X040459Y022136D03*
X040469Y022116D03*
X040469Y022106D03*
X040479Y022096D03*
X040479Y022086D03*
X040479Y022076D03*
X040489Y022046D03*
X040489Y022036D03*
X040549Y021056D03*
X040499Y020786D03*
X040489Y020766D03*
X040489Y020756D03*
X040479Y020726D03*
X040479Y020716D03*
X040479Y020706D03*
X040469Y020696D03*
X040469Y020686D03*
X040459Y020666D03*
X038439Y023856D03*
D130*
X036644Y022576D03*
X036634Y022566D03*
X036384Y021856D03*
X038424Y021646D03*
X038304Y020876D03*
X038434Y020236D03*
X036644Y020226D03*
X036634Y020236D03*
X036624Y020246D03*
X040234Y020236D03*
X040244Y020246D03*
X040484Y020946D03*
X040244Y022556D03*
X040234Y022566D03*
X031924Y013846D03*
X032724Y013236D03*
X032714Y011176D03*
X029814Y011196D03*
D131*
X028979Y010566D03*
X032729Y011186D03*
X032739Y011196D03*
X032749Y013216D03*
X032739Y013226D03*
X029799Y013226D03*
X028969Y013846D03*
X036609Y020266D03*
X036619Y020256D03*
X036599Y020286D03*
X038429Y021656D03*
X036629Y022556D03*
X036619Y022546D03*
X036609Y022536D03*
X036609Y022526D03*
X036599Y022516D03*
X036379Y021846D03*
X040249Y022546D03*
X040259Y022536D03*
X040259Y022526D03*
X040269Y022516D03*
X040499Y020966D03*
X040489Y020956D03*
X040269Y020286D03*
X040259Y020266D03*
X040249Y020256D03*
D132*
X040264Y020276D03*
X040274Y020296D03*
X040284Y020306D03*
X040294Y020326D03*
X040314Y020356D03*
X040504Y020976D03*
X040314Y022446D03*
X040304Y022456D03*
X040294Y022466D03*
X040294Y022476D03*
X040284Y022486D03*
X040284Y022496D03*
X040274Y022506D03*
X038904Y022286D03*
X037964Y022286D03*
X036594Y022506D03*
X036584Y022496D03*
X036584Y022486D03*
X036574Y022466D03*
X036374Y021836D03*
X038304Y020866D03*
X036604Y020276D03*
X036594Y020296D03*
X036584Y020306D03*
X036584Y020316D03*
X036574Y020326D03*
X029814Y013216D03*
X029824Y013206D03*
X029834Y013196D03*
X029844Y011226D03*
X029834Y011216D03*
X029824Y011206D03*
X031914Y010576D03*
D133*
X032749Y011206D03*
X032759Y011216D03*
X032769Y013196D03*
X032759Y013206D03*
X031909Y013856D03*
X036569Y020336D03*
X036559Y020346D03*
X036559Y020356D03*
X036549Y020366D03*
X036539Y020386D03*
X037899Y020576D03*
X038969Y020576D03*
X040289Y020316D03*
X040299Y020336D03*
X040309Y020346D03*
X040319Y020366D03*
X040329Y020376D03*
X040329Y020386D03*
X040509Y020986D03*
X040329Y022416D03*
X040319Y022436D03*
X038429Y021666D03*
X036579Y022476D03*
X036569Y022456D03*
X036559Y022446D03*
X036549Y022436D03*
X036539Y022416D03*
X036369Y021826D03*
X036359Y021816D03*
X036359Y021806D03*
D134*
X037244Y023126D03*
X039624Y023126D03*
X038434Y020326D03*
X032124Y013636D03*
X029174Y013636D03*
X029184Y010776D03*
X032124Y010796D03*
D135*
X032184Y010886D03*
X029244Y010866D03*
X029234Y013546D03*
X032184Y013546D03*
X038434Y020356D03*
D136*
X038434Y020366D03*
X038434Y022436D03*
X039494Y023186D03*
X037374Y023186D03*
X032194Y013526D03*
X032194Y010906D03*
X029254Y010886D03*
D137*
X029274Y010916D03*
X032214Y010936D03*
X032214Y013486D03*
X029264Y013496D03*
X038434Y020376D03*
X038434Y022426D03*
X039464Y023196D03*
X037404Y023196D03*
D138*
X038434Y022566D03*
X040324Y022426D03*
X040334Y022406D03*
X040344Y022396D03*
X040344Y022386D03*
X040354Y022366D03*
X040514Y021006D03*
X040514Y020996D03*
X040344Y020416D03*
X040344Y020406D03*
X040334Y020396D03*
X036544Y020376D03*
X036534Y020396D03*
X036354Y021796D03*
X036534Y022406D03*
X036544Y022426D03*
X028954Y013856D03*
X029844Y013186D03*
X029854Y013176D03*
X032784Y013186D03*
X032794Y013176D03*
X032784Y011236D03*
X032774Y011226D03*
X029864Y011246D03*
X029854Y011236D03*
D139*
X029879Y011256D03*
X028959Y010556D03*
X031899Y010566D03*
X032789Y011246D03*
X032799Y013166D03*
X029869Y013166D03*
X036529Y020406D03*
X036529Y020416D03*
X036519Y020426D03*
X036509Y020446D03*
X038309Y020856D03*
X038429Y021676D03*
X036529Y022386D03*
X036529Y022396D03*
X036519Y022376D03*
X036519Y022366D03*
X036509Y022356D03*
X036349Y021786D03*
X040349Y022376D03*
X040359Y022356D03*
X040369Y020456D03*
X040359Y020446D03*
X040359Y020436D03*
X040349Y020426D03*
D140*
X038434Y020426D03*
X038434Y022376D03*
D141*
X036504Y022346D03*
X036494Y022336D03*
X036494Y022326D03*
X036484Y022306D03*
X036484Y022296D03*
X036474Y022286D03*
X036474Y020516D03*
X036484Y020496D03*
X036484Y020486D03*
X036494Y020476D03*
X036494Y020466D03*
X036504Y020456D03*
X036514Y020436D03*
X040374Y020466D03*
X040374Y020476D03*
X040384Y020486D03*
X040384Y020496D03*
X040394Y020506D03*
X040394Y020516D03*
X040404Y020536D03*
X040414Y020556D03*
X040524Y021016D03*
X040534Y021026D03*
X040404Y022266D03*
X040394Y022286D03*
X040394Y022296D03*
X040384Y022306D03*
X040384Y022316D03*
X040374Y022326D03*
X040374Y022336D03*
X040364Y022346D03*
X031894Y013866D03*
X032814Y013156D03*
X029894Y013136D03*
X029884Y013146D03*
X029874Y013156D03*
X029904Y011286D03*
X029894Y011276D03*
X029884Y011266D03*
X032804Y011256D03*
X032814Y011266D03*
D142*
X038434Y020446D03*
X038434Y022356D03*
X039344Y023226D03*
X037524Y023226D03*
D143*
X038434Y020456D03*
D144*
X038439Y020466D03*
X038439Y022336D03*
D145*
X038434Y020486D03*
D146*
X038434Y020496D03*
X038434Y022306D03*
D147*
X038434Y020516D03*
D148*
X038434Y020526D03*
X038434Y023726D03*
D149*
X038434Y020536D03*
D150*
X038434Y020546D03*
D151*
X036444Y020586D03*
X036434Y020606D03*
X036434Y020616D03*
X036424Y020626D03*
X036424Y020636D03*
X036414Y020656D03*
X036324Y021756D03*
X036334Y021766D03*
X036414Y022146D03*
X036424Y022166D03*
X036424Y022176D03*
X036434Y022186D03*
X036434Y022196D03*
X036444Y022216D03*
X036454Y022236D03*
X038944Y022276D03*
X040434Y022196D03*
X040444Y022176D03*
X040444Y022166D03*
X040454Y022156D03*
X040454Y022146D03*
X040464Y022126D03*
X040544Y021046D03*
X040464Y020676D03*
X040454Y020656D03*
X040454Y020646D03*
X040444Y020636D03*
X040444Y020626D03*
X040434Y020606D03*
X032844Y013116D03*
X029914Y013116D03*
X029904Y013126D03*
X029924Y011306D03*
X028944Y010546D03*
X031884Y010556D03*
X032844Y011296D03*
D152*
X032864Y011326D03*
X032874Y011336D03*
X029964Y011356D03*
X029954Y011346D03*
X029954Y013066D03*
X029944Y013076D03*
X028924Y013876D03*
X032874Y013086D03*
X032884Y013076D03*
X039014Y020596D03*
X040484Y020736D03*
X040484Y020746D03*
X040494Y020776D03*
X040504Y020796D03*
X040504Y020806D03*
X040504Y020816D03*
X040514Y020826D03*
X040514Y020836D03*
X040514Y020846D03*
X040524Y020876D03*
X040554Y021066D03*
X040524Y021926D03*
X040514Y021956D03*
X040514Y021966D03*
X040514Y021976D03*
X040504Y021986D03*
X040504Y021996D03*
X040504Y022006D03*
X040494Y022016D03*
X040494Y022026D03*
X040484Y022056D03*
X040484Y022066D03*
X038434Y022576D03*
X036394Y022096D03*
X036394Y022086D03*
X036394Y022076D03*
X036384Y022056D03*
X036384Y022046D03*
X036374Y022026D03*
X036374Y022016D03*
X036364Y021996D03*
X036364Y021986D03*
X036354Y021956D03*
X036314Y021736D03*
X036354Y020846D03*
X036364Y020816D03*
X036364Y020806D03*
X036374Y020786D03*
X036374Y020776D03*
X036374Y020766D03*
X036384Y020756D03*
X036384Y020746D03*
X036394Y020726D03*
X036394Y020716D03*
X036394Y020706D03*
D153*
X036369Y020796D03*
X036359Y020826D03*
X036359Y020836D03*
X036349Y020856D03*
X036349Y020866D03*
X036349Y020876D03*
X036339Y020886D03*
X036339Y020896D03*
X036339Y020906D03*
X036329Y020936D03*
X036329Y020946D03*
X036319Y020986D03*
X036309Y021716D03*
X036309Y021726D03*
X036339Y021906D03*
X036339Y021916D03*
X036349Y021926D03*
X036349Y021936D03*
X036349Y021946D03*
X036359Y021966D03*
X036359Y021976D03*
X036369Y022006D03*
X037899Y022266D03*
X038429Y021706D03*
X038969Y022266D03*
X040519Y021946D03*
X040519Y021936D03*
X040529Y021916D03*
X040529Y021906D03*
X040529Y021896D03*
X040539Y021886D03*
X040539Y021876D03*
X040539Y021866D03*
X040539Y021856D03*
X040549Y021836D03*
X040549Y021826D03*
X040549Y021816D03*
X040559Y021776D03*
X040559Y021076D03*
X040529Y020896D03*
X040529Y020886D03*
X040519Y020866D03*
X040519Y020856D03*
X038309Y020836D03*
X037849Y020596D03*
X032889Y013066D03*
X032899Y013056D03*
X029979Y013036D03*
X029969Y013046D03*
X029959Y013056D03*
X029979Y011376D03*
X029969Y011366D03*
X028929Y010536D03*
X031869Y010546D03*
X032879Y011346D03*
X032889Y011356D03*
X032899Y011366D03*
D154*
X032919Y011396D03*
X032929Y011406D03*
X032939Y011426D03*
X032939Y012996D03*
X032929Y013016D03*
X032919Y013026D03*
X031859Y013886D03*
X030019Y012976D03*
X030009Y012986D03*
X030009Y012996D03*
X029999Y013006D03*
X030019Y011436D03*
X030009Y011426D03*
X029999Y011406D03*
X037829Y020606D03*
X038309Y020826D03*
X039039Y020606D03*
X040579Y021106D03*
X040579Y021116D03*
X040589Y021456D03*
X040589Y021466D03*
X040589Y021476D03*
X040589Y021486D03*
X040589Y021496D03*
X040589Y021506D03*
X040579Y021626D03*
X040579Y021636D03*
X040579Y021646D03*
X040579Y021656D03*
X040569Y021716D03*
X038429Y021716D03*
X037879Y022256D03*
X036299Y021696D03*
X036279Y021386D03*
X036279Y021376D03*
X036279Y021366D03*
X036279Y021356D03*
X036279Y021346D03*
X036279Y021336D03*
X036279Y021326D03*
X036279Y021316D03*
X036279Y021306D03*
X036279Y021296D03*
X036289Y021216D03*
X036289Y021206D03*
X036289Y021196D03*
X036289Y021186D03*
X036299Y021116D03*
X036299Y021106D03*
X036299Y021096D03*
X036299Y021086D03*
X036309Y021036D03*
D155*
X036284Y021676D03*
X036294Y021686D03*
X038994Y022256D03*
X039054Y020616D03*
X028904Y013886D03*
X030024Y012966D03*
X030034Y012956D03*
X030044Y012936D03*
X030044Y011476D03*
X030034Y011456D03*
X030024Y011446D03*
X032934Y011416D03*
X032944Y011436D03*
X032954Y011446D03*
X032954Y012976D03*
X032944Y012986D03*
D156*
X032959Y012966D03*
X032969Y012956D03*
X032969Y012946D03*
X032979Y012936D03*
X032979Y011486D03*
X032969Y011466D03*
X032959Y011456D03*
X031849Y010536D03*
X030059Y011496D03*
X030049Y011486D03*
X030039Y011466D03*
X028909Y010526D03*
X030049Y012926D03*
X030039Y012946D03*
X037809Y020616D03*
X036279Y021666D03*
X038429Y021726D03*
X040589Y021126D03*
D157*
X040599Y021146D03*
X039089Y020636D03*
X037779Y020636D03*
X036269Y021646D03*
X038429Y021736D03*
X031839Y013896D03*
X033009Y012886D03*
X033009Y012876D03*
X033019Y012866D03*
X033029Y012846D03*
X033029Y011576D03*
X033019Y011556D03*
X033009Y011536D03*
X032999Y011526D03*
X032999Y011516D03*
X030109Y011596D03*
X030099Y011576D03*
X030089Y011556D03*
X030079Y011536D03*
X030109Y012816D03*
X030099Y012836D03*
X030089Y012856D03*
X030079Y012876D03*
D158*
X030094Y012846D03*
X030104Y012826D03*
X030114Y012806D03*
X030114Y012796D03*
X030124Y012786D03*
X028884Y013896D03*
X030124Y011626D03*
X030114Y011606D03*
X030104Y011586D03*
X030094Y011566D03*
X033014Y011546D03*
X033024Y011566D03*
X033034Y011586D03*
X033044Y011606D03*
X033044Y012816D03*
X033034Y012836D03*
X033024Y012856D03*
X037764Y020646D03*
X039104Y020646D03*
X040604Y021156D03*
X040604Y021166D03*
X040614Y021176D03*
X039034Y022236D03*
X037834Y022236D03*
X036264Y021636D03*
D159*
X036924Y022136D03*
X039944Y020656D03*
D160*
X039114Y020656D03*
X038304Y020806D03*
X038424Y021746D03*
X037814Y022226D03*
X036254Y021616D03*
X040624Y021196D03*
X033074Y012746D03*
X033084Y012726D03*
X033084Y012716D03*
X033094Y012696D03*
X033094Y011726D03*
X033084Y011696D03*
X033074Y011676D03*
X033074Y011666D03*
X033064Y011656D03*
X033064Y011646D03*
X030174Y011746D03*
X030174Y011756D03*
X030164Y011736D03*
X030164Y011726D03*
X030164Y011716D03*
X030154Y011706D03*
X030154Y011696D03*
X030144Y011676D03*
X030184Y012626D03*
X030174Y012656D03*
X030174Y012666D03*
X030164Y012676D03*
X030164Y012686D03*
X030154Y012706D03*
X030154Y012716D03*
X030144Y012736D03*
D161*
X039944Y020666D03*
X039324Y021416D03*
X037554Y021396D03*
X036924Y022126D03*
D162*
X036924Y022116D03*
X037544Y021416D03*
X039334Y021396D03*
X039944Y020676D03*
X038434Y022626D03*
D163*
X039069Y022216D03*
X038429Y021756D03*
X037789Y022206D03*
X036239Y021586D03*
X036229Y021576D03*
X037709Y020686D03*
X037719Y020676D03*
X039149Y020676D03*
X039159Y020686D03*
X039169Y020696D03*
X039469Y021006D03*
X040639Y021226D03*
X033139Y012546D03*
X033139Y012536D03*
X033149Y012516D03*
X033149Y012506D03*
X033149Y012496D03*
X033149Y012486D03*
X033159Y012476D03*
X033159Y012466D03*
X033159Y012456D03*
X033159Y012446D03*
X033159Y012436D03*
X033169Y012396D03*
X033169Y012386D03*
X033169Y012376D03*
X033169Y012366D03*
X033179Y012266D03*
X033179Y012256D03*
X033179Y012246D03*
X033179Y012176D03*
X033179Y012166D03*
X033179Y012156D03*
X033169Y012046D03*
X033169Y012036D03*
X033169Y012026D03*
X033159Y011986D03*
X033159Y011976D03*
X033159Y011966D03*
X033159Y011956D03*
X033159Y011946D03*
X033149Y011936D03*
X033149Y011926D03*
X033149Y011916D03*
X033149Y011906D03*
X033139Y011886D03*
X033139Y011876D03*
X033139Y011866D03*
X031809Y010516D03*
X030219Y011926D03*
X030219Y011936D03*
X030219Y012486D03*
D164*
X039944Y020686D03*
X039344Y021376D03*
X037534Y021436D03*
X036924Y022106D03*
D165*
X036924Y022096D03*
X039344Y021366D03*
X039944Y020696D03*
X028634Y013406D03*
D166*
X039944Y020706D03*
X039354Y021346D03*
X037514Y021466D03*
X037134Y021866D03*
X036924Y022086D03*
D167*
X037759Y022186D03*
X039099Y022196D03*
X040649Y021246D03*
X039469Y021016D03*
X039189Y020716D03*
X039179Y020706D03*
X036219Y021556D03*
X031799Y013916D03*
D168*
X037684Y020706D03*
X037674Y020716D03*
X039204Y020726D03*
X039464Y021026D03*
X040654Y021256D03*
X039124Y022176D03*
X039114Y022186D03*
X038424Y021766D03*
X037744Y022176D03*
X036214Y021546D03*
D169*
X036924Y022066D03*
X037494Y021516D03*
X037494Y021506D03*
X039374Y021306D03*
X039864Y020806D03*
X039944Y020726D03*
X031734Y013946D03*
D170*
X031784Y010506D03*
X037664Y020726D03*
X037654Y020736D03*
X037644Y020746D03*
X036204Y021526D03*
X037394Y021786D03*
X037714Y022146D03*
X037724Y022156D03*
X039464Y021036D03*
X040664Y021276D03*
D171*
X039944Y020736D03*
X037484Y021536D03*
X036924Y022056D03*
X028804Y010476D03*
D172*
X028839Y013916D03*
X039209Y020736D03*
X039219Y020746D03*
X040659Y021266D03*
X039149Y022156D03*
X039139Y022166D03*
X037729Y022166D03*
X036209Y021536D03*
D173*
X036924Y022046D03*
X037484Y021546D03*
X039384Y021266D03*
X039944Y020746D03*
D174*
X039379Y021286D03*
X039379Y021296D03*
X038309Y020746D03*
X037489Y021526D03*
D175*
X036924Y022036D03*
X039394Y021246D03*
X039944Y020756D03*
D176*
X039459Y021046D03*
X039239Y020766D03*
X039229Y020756D03*
X038309Y020786D03*
X037639Y020756D03*
X037629Y020766D03*
X036199Y021516D03*
X037399Y021776D03*
X037689Y022126D03*
X037699Y022136D03*
X038429Y021776D03*
X039159Y022146D03*
X039169Y022136D03*
X040669Y021286D03*
X028839Y010496D03*
D177*
X038304Y020756D03*
X039414Y021206D03*
X039944Y020786D03*
X037454Y021616D03*
D178*
X037464Y021576D03*
X036924Y022026D03*
X039944Y020766D03*
D179*
X039944Y020776D03*
X039404Y021226D03*
X036924Y022016D03*
D180*
X037404Y021766D03*
X037674Y022116D03*
X039184Y022126D03*
X040674Y021296D03*
X039264Y020796D03*
X039254Y020786D03*
X039244Y020776D03*
X037624Y020776D03*
X036194Y021506D03*
D181*
X036164Y021446D03*
X037414Y021726D03*
X037564Y021986D03*
X037574Y021996D03*
X037514Y020926D03*
X038304Y020776D03*
X039354Y020926D03*
X039364Y020946D03*
X039374Y020966D03*
X039444Y021106D03*
X040714Y021366D03*
X039304Y021986D03*
X039294Y021996D03*
X039294Y022006D03*
D182*
X039209Y022106D03*
X039199Y022116D03*
X037659Y022106D03*
X036189Y021496D03*
X037599Y020796D03*
X037609Y020786D03*
X039269Y020806D03*
X039279Y020816D03*
X039459Y021056D03*
X039459Y021066D03*
X040679Y021306D03*
X031769Y013926D03*
D183*
X039944Y020796D03*
X039414Y021196D03*
X037444Y021636D03*
D184*
X037499Y021496D03*
X039369Y021316D03*
X039679Y020996D03*
X039689Y020986D03*
X039699Y020976D03*
X039709Y020966D03*
X039719Y020956D03*
X039729Y020946D03*
X039739Y020936D03*
X039749Y020926D03*
X039759Y020916D03*
X039769Y020906D03*
X039779Y020896D03*
X039789Y020886D03*
X039799Y020876D03*
X039809Y020866D03*
X039819Y020856D03*
X039829Y020846D03*
X039839Y020836D03*
X039849Y020826D03*
X039859Y020816D03*
X040029Y020806D03*
X040039Y020816D03*
X040049Y020826D03*
X040059Y020836D03*
X040069Y020846D03*
D185*
X039454Y021076D03*
X039304Y020846D03*
X039294Y020836D03*
X039284Y020826D03*
X040684Y021316D03*
X039234Y022076D03*
X039224Y022086D03*
X039214Y022096D03*
X037654Y022096D03*
X037644Y022086D03*
X037404Y021756D03*
X036184Y021486D03*
X037584Y020816D03*
X037594Y020806D03*
D186*
X037554Y020856D03*
X037544Y020866D03*
X036174Y021456D03*
X036174Y021466D03*
X037414Y021736D03*
X037604Y022036D03*
X037614Y022046D03*
X037624Y022056D03*
X038434Y021786D03*
X039244Y022056D03*
X039254Y022046D03*
X039264Y022036D03*
X038434Y022606D03*
X040694Y021336D03*
X040704Y021346D03*
X039454Y021086D03*
X039344Y020906D03*
X039324Y020876D03*
X031754Y010496D03*
D187*
X037539Y020876D03*
X037539Y020886D03*
X037529Y020896D03*
X037519Y020906D03*
X037519Y020916D03*
X037579Y022006D03*
X037589Y022016D03*
X037599Y022026D03*
X039269Y022026D03*
X039279Y022016D03*
X040709Y021356D03*
X039449Y021096D03*
X039359Y020936D03*
X039349Y020916D03*
X039339Y020896D03*
X039329Y020886D03*
D188*
X040564Y021086D03*
X040574Y021096D03*
X040594Y021426D03*
X040594Y021436D03*
X040594Y021446D03*
X040584Y021516D03*
X040584Y021526D03*
X040584Y021536D03*
X040584Y021546D03*
X040584Y021556D03*
X040584Y021566D03*
X040584Y021576D03*
X040584Y021586D03*
X040584Y021596D03*
X040584Y021606D03*
X040584Y021616D03*
X040574Y021666D03*
X040574Y021676D03*
X040574Y021686D03*
X040574Y021696D03*
X040574Y021706D03*
X040564Y021726D03*
X040564Y021736D03*
X040564Y021746D03*
X040564Y021756D03*
X040564Y021766D03*
X040554Y021786D03*
X040554Y021796D03*
X040554Y021806D03*
X040544Y021846D03*
X036304Y021706D03*
X036284Y021286D03*
X036284Y021276D03*
X036284Y021266D03*
X036284Y021256D03*
X036284Y021246D03*
X036284Y021236D03*
X036284Y021226D03*
X036294Y021176D03*
X036294Y021166D03*
X036294Y021156D03*
X036294Y021146D03*
X036294Y021136D03*
X036294Y021126D03*
X036304Y021076D03*
X036304Y021066D03*
X036304Y021056D03*
X036304Y021046D03*
X036314Y021026D03*
X036314Y021016D03*
X036314Y021006D03*
X036314Y020996D03*
X036324Y020976D03*
X036324Y020966D03*
X036324Y020956D03*
X036334Y020926D03*
X036334Y020916D03*
X032904Y013046D03*
X032914Y013036D03*
X032934Y013006D03*
X032914Y011386D03*
X032904Y011376D03*
X030004Y011416D03*
X029994Y011396D03*
X029984Y011386D03*
X029994Y013016D03*
X029984Y013026D03*
D189*
X028809Y010486D03*
X037509Y020936D03*
X037499Y020946D03*
X037499Y020956D03*
X037489Y020966D03*
X037489Y020976D03*
X037479Y020996D03*
X037419Y021716D03*
X037529Y021926D03*
X037539Y021936D03*
X037539Y021946D03*
X037549Y021956D03*
X037549Y021966D03*
X037559Y021976D03*
X036159Y021436D03*
X039309Y021976D03*
X039319Y021966D03*
X039329Y021946D03*
X039389Y020996D03*
X039379Y020976D03*
X039369Y020956D03*
X040719Y021376D03*
D190*
X040724Y021386D03*
X039444Y021116D03*
X039384Y020986D03*
X039364Y021896D03*
X039354Y021906D03*
X039344Y021916D03*
X039344Y021926D03*
X039334Y021936D03*
X039324Y021956D03*
X038424Y021796D03*
X037524Y021916D03*
X037514Y021906D03*
X037514Y021896D03*
X037504Y021886D03*
X037424Y021706D03*
X037444Y021086D03*
X037464Y021026D03*
X037474Y021006D03*
X037484Y020986D03*
X036154Y021426D03*
D191*
X036149Y021416D03*
X037419Y021176D03*
X037429Y021136D03*
X037429Y021126D03*
X037439Y021106D03*
X037439Y021096D03*
X037449Y021076D03*
X037449Y021066D03*
X037449Y021056D03*
X037459Y021046D03*
X037459Y021036D03*
X037469Y021016D03*
X037489Y021846D03*
X037489Y021856D03*
X037499Y021866D03*
X037499Y021876D03*
X039369Y021886D03*
X039369Y021876D03*
X039379Y021866D03*
X039379Y021856D03*
X040729Y021396D03*
D192*
X038309Y021096D03*
X037169Y023086D03*
X039699Y023086D03*
X029139Y013686D03*
X029499Y011016D03*
X032089Y010746D03*
D193*
X037434Y021116D03*
X037424Y021146D03*
X037424Y021156D03*
X037424Y021166D03*
X037424Y021696D03*
X037464Y021796D03*
X037464Y021806D03*
X037474Y021816D03*
X037474Y021826D03*
X037484Y021836D03*
X036144Y021406D03*
X039384Y021836D03*
X039384Y021846D03*
X039394Y021826D03*
X039394Y021816D03*
X039404Y021806D03*
X039404Y021796D03*
X039424Y021746D03*
X039434Y021126D03*
X040734Y021406D03*
D194*
X039429Y021146D03*
X038429Y021806D03*
X028769Y013936D03*
X031719Y010486D03*
D195*
X039424Y021166D03*
X037444Y021646D03*
X038434Y022616D03*
X038434Y023876D03*
D196*
X039419Y021186D03*
X039419Y021176D03*
D197*
X040619Y021186D03*
X036259Y021626D03*
X033039Y012826D03*
X033049Y012806D03*
X033049Y012796D03*
X033059Y012786D03*
X033059Y012776D03*
X033069Y012766D03*
X033069Y012756D03*
X033079Y012736D03*
X033059Y011636D03*
X033049Y011626D03*
X033049Y011616D03*
X033039Y011596D03*
X031829Y010526D03*
X030119Y011616D03*
X030129Y011636D03*
X030129Y011646D03*
X030139Y011656D03*
X030139Y011666D03*
X030149Y011686D03*
X030159Y012696D03*
X030149Y012726D03*
X030139Y012746D03*
X030139Y012756D03*
X030129Y012766D03*
X030129Y012776D03*
X028889Y010516D03*
D198*
X038059Y021186D03*
X038059Y021196D03*
X038059Y021206D03*
X038059Y021216D03*
X038439Y023736D03*
D199*
X037804Y022216D03*
X036244Y021596D03*
X040634Y021216D03*
X028864Y013906D03*
X030194Y012586D03*
X030204Y012556D03*
X030204Y012546D03*
X030204Y012536D03*
X030214Y012526D03*
X030214Y012516D03*
X030214Y012506D03*
X030214Y012496D03*
X030214Y011916D03*
X030214Y011906D03*
X030214Y011896D03*
X030214Y011886D03*
X030204Y011876D03*
X030204Y011866D03*
X030204Y011856D03*
X030194Y011826D03*
X033104Y011756D03*
X033114Y011786D03*
X033124Y011806D03*
X033124Y011816D03*
X033124Y011826D03*
X033134Y011836D03*
X033134Y011846D03*
X033134Y011856D03*
X033144Y011896D03*
X033144Y012526D03*
X033134Y012556D03*
X033134Y012566D03*
X033134Y012576D03*
X033134Y012586D03*
X033124Y012596D03*
X033124Y012606D03*
X033124Y012616D03*
X033114Y012636D03*
D200*
X039409Y021216D03*
X037459Y021606D03*
D201*
X037469Y021566D03*
X038429Y021826D03*
X039399Y021236D03*
D202*
X039389Y021256D03*
X037479Y021556D03*
D203*
X039379Y021276D03*
D204*
X039479Y021486D03*
X039459Y021626D03*
X039449Y021666D03*
X039449Y021676D03*
X039439Y021696D03*
X039439Y021706D03*
X039429Y021726D03*
X039429Y021736D03*
X039419Y021756D03*
X039419Y021766D03*
X039419Y021776D03*
X039409Y021786D03*
X040739Y021416D03*
X037429Y021686D03*
X037389Y021386D03*
X037389Y021376D03*
X037389Y021366D03*
X037389Y021356D03*
X037389Y021346D03*
X037389Y021336D03*
X037389Y021326D03*
X037389Y021316D03*
X037399Y021286D03*
X037399Y021276D03*
X036139Y021396D03*
X031739Y013936D03*
D205*
X039359Y021336D03*
X038429Y021836D03*
X037509Y021476D03*
X037199Y021796D03*
X037189Y021806D03*
X037179Y021816D03*
X037169Y021826D03*
X037159Y021836D03*
X037149Y021846D03*
X037139Y021856D03*
X037129Y021876D03*
X037119Y021886D03*
X037109Y021896D03*
X037089Y021906D03*
X037079Y021916D03*
X037029Y021976D03*
X037019Y021986D03*
X037009Y021996D03*
X036999Y022006D03*
X036779Y021926D03*
D206*
X037519Y021456D03*
X039349Y021356D03*
X031589Y011006D03*
X028649Y011006D03*
D207*
X037539Y021426D03*
X039339Y021386D03*
D208*
X039329Y021406D03*
X037549Y021406D03*
D209*
X037529Y021446D03*
D210*
X037459Y021586D03*
X037459Y021596D03*
D211*
X037449Y021626D03*
X038429Y021816D03*
D212*
X037439Y021656D03*
D213*
X038439Y022316D03*
D214*
X038434Y022326D03*
D215*
X038434Y022346D03*
X038434Y023756D03*
X029724Y012466D03*
X029724Y012456D03*
X029724Y012446D03*
X029724Y012436D03*
X029724Y012426D03*
X029724Y012416D03*
X029724Y012406D03*
X029724Y012016D03*
X029724Y012006D03*
X029724Y011996D03*
X029724Y011986D03*
X029724Y011976D03*
X029724Y011966D03*
X029724Y011956D03*
D216*
X038434Y022366D03*
X038434Y023766D03*
D217*
X038434Y022396D03*
X032244Y013426D03*
X029294Y013436D03*
X029304Y010976D03*
X032244Y010996D03*
D218*
X032154Y010836D03*
X029214Y010816D03*
X029204Y013596D03*
X038434Y022456D03*
X039564Y023156D03*
X037304Y023156D03*
D219*
X037349Y023176D03*
X039519Y023176D03*
X029229Y013556D03*
X032179Y010876D03*
X029239Y010856D03*
D220*
X029299Y010966D03*
X032239Y010986D03*
X032239Y013436D03*
X029289Y013446D03*
X039439Y023206D03*
D221*
X039399Y023216D03*
D222*
X038439Y023236D03*
D223*
X038439Y023246D03*
D224*
X038434Y023266D03*
D225*
X038439Y023326D03*
D226*
X038439Y023346D03*
D227*
X038434Y023356D03*
D228*
X038439Y023376D03*
D229*
X038434Y023406D03*
D230*
X038439Y023446D03*
D231*
X038434Y023456D03*
D232*
X038434Y023486D03*
D233*
X038439Y023496D03*
D234*
X038434Y023506D03*
D235*
X038439Y023516D03*
D236*
X038434Y023536D03*
D237*
X038439Y023546D03*
D238*
X038434Y023556D03*
D239*
X038439Y023566D03*
D240*
X038439Y023616D03*
D241*
X038439Y023626D03*
D242*
X038439Y023636D03*
D243*
X038439Y023646D03*
D244*
X038434Y023656D03*
D245*
X038439Y023666D03*
D246*
X038434Y023676D03*
D247*
X038439Y023696D03*
D248*
X038439Y023746D03*
D249*
X038434Y023786D03*
X032204Y013506D03*
X029254Y013516D03*
D250*
X029219Y013576D03*
X032169Y013566D03*
X038439Y023796D03*
D251*
X038599Y011076D03*
X038599Y011036D03*
X038599Y010996D03*
X038599Y010956D03*
X038599Y010916D03*
X038599Y010876D03*
X038599Y010836D03*
X038599Y010796D03*
X038599Y010756D03*
X038599Y010716D03*
D252*
X038839Y011596D03*
X039159Y011876D03*
X039199Y011836D03*
X039239Y011796D03*
X039279Y011756D03*
X039319Y011716D03*
X039359Y011676D03*
X039399Y011636D03*
X039439Y011596D03*
X039479Y011556D03*
X039119Y011916D03*
X039079Y011956D03*
X039039Y011996D03*
X038919Y012116D03*
X038799Y012236D03*
X038759Y012276D03*
X038719Y012316D03*
X038679Y012356D03*
X038639Y012396D03*
X038519Y012396D03*
X038479Y012356D03*
X038439Y012316D03*
X038399Y012276D03*
X038359Y012236D03*
X038319Y012196D03*
X038279Y012156D03*
X038199Y012076D03*
X038159Y012036D03*
X038159Y012196D03*
X038159Y012236D03*
X038159Y012276D03*
X038159Y012316D03*
X038439Y012596D03*
X038479Y012556D03*
X038519Y012516D03*
X038639Y012516D03*
X038679Y012556D03*
X038719Y012596D03*
X038759Y012636D03*
X038799Y012676D03*
X038839Y012716D03*
X038879Y012756D03*
X038959Y012836D03*
X038999Y012876D03*
X038999Y012996D03*
X038999Y013036D03*
X039119Y012996D03*
X039159Y013036D03*
X039199Y013076D03*
X039239Y013116D03*
X039279Y013156D03*
X039319Y013196D03*
X039359Y013236D03*
X039399Y013276D03*
X039439Y013316D03*
X039479Y013356D03*
X038999Y013196D03*
X038839Y013196D03*
X038839Y013236D03*
X038119Y012916D03*
X038119Y012796D03*
X038119Y012756D03*
X038119Y012716D03*
X037959Y012916D03*
X037959Y012956D03*
X037879Y013156D03*
X037839Y013196D03*
X037799Y013236D03*
X037759Y013276D03*
X037719Y013316D03*
X037679Y013356D03*
X037639Y013396D03*
X038399Y012636D03*
X038959Y012636D03*
X038959Y012596D03*
X038959Y012556D03*
X038959Y012516D03*
X038959Y012476D03*
X038239Y011836D03*
X038239Y011756D03*
X038119Y011836D03*
X037999Y011876D03*
X037959Y011836D03*
X037919Y011796D03*
X037879Y011756D03*
X037839Y011716D03*
X037799Y011676D03*
X037759Y011636D03*
X037719Y011596D03*
D253*
X037699Y011556D03*
X038179Y012156D03*
X038139Y012356D03*
X038139Y012396D03*
X038139Y012436D03*
X038139Y012476D03*
X038139Y012516D03*
X038139Y012556D03*
X038139Y012596D03*
X038139Y012636D03*
X038139Y012676D03*
X038939Y012436D03*
X038939Y012396D03*
X038939Y012356D03*
X038939Y012316D03*
X038939Y012276D03*
X038939Y012236D03*
X038899Y011996D03*
X038899Y011956D03*
X038899Y011916D03*
X038899Y011876D03*
X038899Y011836D03*
X038899Y011796D03*
X038979Y012676D03*
X038979Y012716D03*
X038979Y012756D03*
X039499Y013396D03*
D254*
X039039Y012956D03*
X038879Y012196D03*
X038959Y012036D03*
X038839Y011676D03*
X038839Y011636D03*
X038039Y013036D03*
X038039Y013196D03*
D255*
X038259Y011636D03*
D256*
X038239Y011676D03*
X038479Y012676D03*
X038519Y013356D03*
D257*
X038599Y013316D03*
X038599Y011716D03*
D258*
X038379Y011836D03*
X038339Y011876D03*
X038139Y011876D03*
X038139Y011996D03*
X038219Y012116D03*
X038099Y011756D03*
X038139Y011716D03*
X038939Y012076D03*
X038899Y012156D03*
X038579Y012436D03*
X038579Y012476D03*
X038939Y012796D03*
X039019Y012916D03*
X038979Y013236D03*
X038099Y012956D03*
D259*
X038619Y011756D03*
D260*
X038239Y011796D03*
X038199Y011916D03*
X038439Y012756D03*
D261*
X038099Y012836D03*
X038059Y012876D03*
X038099Y013236D03*
X038499Y013236D03*
X038179Y011956D03*
D262*
X038459Y012716D03*
D263*
X038419Y012796D03*
D264*
X038039Y012996D03*
D265*
X038519Y013076D03*
D266*
X038499Y013116D03*
D267*
X038539Y013156D03*
D268*
X038559Y013276D03*
D269*
X032144Y013606D03*
X029434Y011006D03*
X029204Y010806D03*
D270*
X029219Y010826D03*
X032159Y010846D03*
X032159Y013586D03*
X029209Y013586D03*
D271*
X029249Y013526D03*
X032199Y013516D03*
X032199Y010916D03*
X029259Y010896D03*
D272*
X029279Y010926D03*
X032219Y010946D03*
X032219Y013476D03*
X029269Y013486D03*
D273*
X029299Y013426D03*
X032249Y013416D03*
X029309Y010986D03*
D274*
X029729Y011946D03*
D275*
X028609Y013396D03*
D276*
X031549Y013406D03*
M02*
